<svg viewBox="0 0 1279.16 377.85" xmlns="http://www.w3.org/2000/svg"><g fill-rule="evenodd"><path d="m.09 158.34c-.75-7.15 2.96-10.21 11.09-9.24l.37-20.69c1.13-5.42 5.45-6.11 10.35-5.91.42-6.53 3.27-9.11 7.39-9.61-3.92-19.01-2.73-36.66 8.13-51.73-3.59-4.17-2.57-8.15 5.91-11.82l2.11-6.48c.63-3.91 4.4-4.59 4.93.05l1.18 6.3c8.81 2.35 9.51 7.33 6.01 12.88 10.64 15.52 13.57 32.14 8.68 49.88h29.19c.05-9.69 3.52-15.37 12.19-14.6-.43-6.1 1.72-10.23 6.47-12.38-1.97-21.85 3.02-40.38 12.38-56.81-6.72-6.37-2.83-11.49 7.2-15.89-.04-5.51 1.73-9.49 4.9-12.29l1.98 158.81z" fill="#806a14"/><path d="m276.51 158.37c.75-7.15-2.96-10.21-11.09-9.24l-.37-20.69c-1.13-5.42-5.44-6.11-10.35-5.91-.43-6.53-3.27-9.11-7.39-9.61 3.92-19.01 2.73-36.66-8.13-51.73 3.59-4.17 2.57-8.15-5.91-11.82l-2.11-6.48c-.63-3.91-4.4-4.59-4.93.05l-1.18 6.3c-8.81 2.35-9.51 7.33-6.01 12.88-10.64 15.52-13.57 32.14-8.68 49.88h-29.19c-.05-9.69-3.52-15.37-12.19-14.6.43-6.1-1.72-10.23-6.47-12.38 1.97-21.85-3.02-40.38-12.38-56.81 6.72-6.37 2.83-11.49-7.2-15.89.04-5.51-1.73-9.49-4.9-12.29l-1.98 158.81 140.46-.48z" fill="#a08000"/><path d="m93.39 206.63h22.33l22.34 38.34 33.87-57.7-116.51-1.49 81.52 143.69 97.96-162.89 23.49-.04-121.82 203.87-113.98-203.83 185.11-.04-70.39 120.12z" fill="#806a14"/><g fill="#a08000"><path d="m113.13 166.81-99.42 168.58-.09 42.46 123.75-211.25z"/><path d="m13.84 289.84 70.87-123.13-70.61.06-.04 20.52 34.29.13-34.42 59.84z"/><path d="m165.49 166.7 99.43 168.58.09 42.45-123.75-211.25z"/><path d="m264.82 289.92-70.87-123.12 70.61.06.05 20.52-34.29.13 34.41 59.83z"/><path d="m719.95 134.61h74.56v84.95h-28.08v-57.58h-46.48zm-68.82 13.74c0 10.7 2.33 21.03 7.02 31.05 8.5 17.08 21.74 28.96 39.66 35.61 7.12 3.04 17.79 4.56 32.03 4.56h25.11v-27.61h-28.59c-20.49 0-34.8-8.84-42.9-26.5-2.57-5.67-3.85-11.37-3.85-17.11s1.28-11.37 3.85-17.11c8.1-17.65 22.41-26.49 42.9-26.49h68.14v-27.68h-64.67c-14.24 0-24.91 1.52-32.03 4.56-17.92 6.72-31.15 18.6-39.66 35.68-4.69 10.02-7.02 20.39-7.02 31.05zm307.24-71.18-105.2 71.28 104.8 71.11h-40.64l-107.97-71.21 107.4-71.18h41.62zm80.5 0h1.01c21.87 0 40.57 8.94 56.06 26.9 10.02 13.43 15.02 28.08 15.02 43.88v1.01c0 21.87-9.15 40.47-27.47 55.76-13.33 9.89-27.95 14.85-43.81 14.85h-1.01c-21.74 0-40.37-8.91-55.86-26.7-5.4-7.59-9.18-14.55-11.37-20.89-2.57-7.9-3.85-15.63-3.85-23.22v-.98c0-21.5 8.88-39.89 26.6-55.18 12.02-8.57 22.95-13.4 32.84-14.45 3.04-.64 6.99-.98 11.85-.98zm-42.8 70.98c0 12.39 4.83 23.29 14.51 32.64 8.64 7.39 17.72 11.07 27.2 11.07h2.77c7.66 0 15.42-2.6 23.36-7.8 8.17-6.01 13.7-13.67 16.61-22.95.91-2.43 1.59-6.62 1.96-12.55 0-12.12-4.69-22.85-14.14-32.13-8.81-7.86-18.5-11.78-29.06-11.78-12.32 0-23.25 5.16-32.84 15.42-4.02 5.3-6.55 9.75-7.59 13.47-1.86 5.13-2.77 10.02-2.77 14.61zm129.74-71.08h91.57c16.13 0 28.79 4.83 37.97 14.55 4.08 3.81 6.92 7.49 8.51 11.07 3.54 7.12 5.33 14.07 5.33 20.86v4.05c0 10.43-4.52 20.59-13.53 30.54-5.81 5.54-11.07 9.11-15.83 10.7 11.98 12.79 17.99 29.7 17.99 50.73h-28.76v-2.19c0-15.56-6.31-27.91-18.9-37.06-7.19-5.1-16.57-7.63-28.18-7.63h-56.16v-27.51h93.36c10.19 0 17.11-5.03 20.76-15.12.41-2.02.64-3.75.78-5.13 0-5.6-2.33-10.7-7.02-15.22-4.02-3.17-8.3-4.76-12.86-4.76 0-.27-1.38-.41-4.15-.41h-90.86v-27.47z"/><path d="m533.1 130.66v86.91h-33.08v-138.31h29.32l71.66 82.46v-82.46h33.07v138.31h-26.19z"/><path d="m368.05 218.34 45.38-111.93 42.45 111.93h29.79l-52.05-138.31h-38.59l-58.29 138.31z"/></g><path d="m349.6 343.77v-81.59h54.81v10.21h-43.69v24.51h38.15v9.99h-38.15v36.88zm66.38 0v-81.59h11.12v81.59zm46.96 0v-71.72h-25.76v-9.87h62.64v9.87h-25.76v71.72zm46.62 0v-81.59h12.14l38.17 59.27c.85 1.29 1.59 2.5 2.21 3.65.62 1.13 1.12 2.21 1.49 3.21v-66.14h10.55v81.59h-12.03l-38.94-60.1c-.59-.91-1.13-1.87-1.63-2.87-.51-1-.98-2.04-1.42-3.16v66.14h-10.55zm81.95 0v-81.59h58.18v10.1h-47.17v24.4h43.58v9.53h-43.58v27.35h48.11v10.21zm68.79-26.89h10.67c.11 5.92 2.08 10.63 5.9 14.15 3.84 3.5 8.95 5.26 15.34 5.26s11.31-1.32 14.94-3.99c3.65-2.67 5.47-6.3 5.47-10.87 0-6.24-6.85-11.01-20.52-14.26-.81-.19-1.44-.32-1.87-.43-11.08-2.63-18.4-5.56-21.96-8.78-3.57-3.23-5.35-7.83-5.35-13.77 0-7.28 2.67-13.13 7.98-17.53 5.32-4.41 12.39-6.62 21.22-6.62s16.1 2.31 21.26 6.94c5.18 4.61 7.79 10.97 7.87 19.04l-10.55.06c-.38-5.43-2.23-9.61-5.58-12.5s-7.92-4.35-13.73-4.35c-5.43 0-9.78 1.19-13.03 3.56-3.25 2.38-4.88 5.54-4.88 9.48 0 6.3 6.73 11.01 20.2 14.09 1.99.49 3.52.85 4.6 1.12l1.17.27c8.78 2.12 14.6 4.39 17.5 6.83 2.17 1.85 3.84 4.1 4.97 6.73 1.15 2.65 1.72 5.6 1.72 8.85 0 7.89-2.82 14.15-8.45 18.8-5.62 4.67-13.24 7-22.85 7s-17.61-2.5-23.13-7.51-8.47-12.2-8.89-21.54zm75.4 0h10.67c.11 5.92 2.08 10.63 5.9 14.15 3.84 3.5 8.95 5.26 15.34 5.26s11.31-1.32 14.94-3.99c3.65-2.67 5.47-6.3 5.47-10.87 0-6.24-6.85-11.01-20.52-14.26-.81-.19-1.44-.32-1.87-.43-11.08-2.63-18.4-5.56-21.96-8.78-3.57-3.23-5.35-7.83-5.35-13.77 0-7.28 2.67-13.13 7.98-17.53 5.31-4.41 12.39-6.62 21.22-6.62s16.1 2.31 21.26 6.94c5.18 4.61 7.79 10.97 7.87 19.04l-10.55.06c-.38-5.43-2.23-9.61-5.58-12.5s-7.92-4.35-13.73-4.35c-5.43 0-9.78 1.19-13.03 3.56-3.25 2.38-4.88 5.54-4.88 9.48 0 6.3 6.73 11.01 20.2 14.09 1.99.49 3.52.85 4.6 1.12l1.17.27c8.78 2.12 14.6 4.39 17.5 6.83 2.17 1.85 3.84 4.1 4.97 6.73 1.15 2.65 1.72 5.6 1.72 8.85 0 7.89-2.82 14.15-8.45 18.8-5.62 4.67-13.24 7-22.85 7s-17.61-2.5-23.13-7.51-8.47-12.2-8.89-21.54zm165.23-3.41h10.78c-.47 9.93-3.88 17.83-10.18 23.74-6.3 5.88-14.43 8.83-24.4 8.83-11.5 0-20.5-3.91-27.03-11.74-6.52-7.83-9.78-18.69-9.78-32.53 0-12.78 3.42-22.94 10.25-30.47 6.83-7.51 16.06-11.27 27.65-11.27 9.23 0 16.8 2.38 22.68 7.15 5.9 4.77 9.3 11.27 10.23 19.52h-10.89c-1.04-5.39-3.5-9.55-7.36-12.44-3.88-2.89-8.93-4.35-15.13-4.35-8.27 0-14.68 2.89-19.23 8.7-4.56 5.81-6.85 13.98-6.85 24.55 0 9.97 2.36 17.97 7.11 23.98 4.75 6.03 11.05 9.04 18.88 9.04 6.68 0 12.16-2.08 16.42-6.22 4.27-4.16 6.54-9.65 6.85-16.47zm23.81 30.3v-81.59h58.18v10.1h-47.17v24.4h43.58v9.53h-43.58v27.35h48.11v10.21zm72.41 0v-81.59h12.14l38.17 59.27c.85 1.29 1.59 2.5 2.21 3.65.62 1.13 1.12 2.21 1.49 3.21v-66.14h10.55v81.59h-12.03l-38.94-60.1c-.59-.91-1.13-1.87-1.63-2.87-.51-1-.98-2.04-1.42-3.16v66.14h-10.55zm100 0v-71.72h-25.76v-9.87h62.64v9.87h-25.76v71.72zm46.73 0v-81.59h58.18v10.1h-47.17v24.4h43.58v9.53h-43.58v27.35h48.11v10.21zm83.42-72.05v27.69h18.93c6.85 0 11.67-1.12 14.51-3.33 2.82-2.21 4.24-5.92 4.24-11.1 0-4.84-1.32-8.26-3.99-10.27-2.67-1.99-7.58-2.99-14.75-2.99h-18.93zm-10.89-9.54h31.66c5.12 0 8.91.23 11.33.66 2.42.45 4.6 1.19 6.51 2.21 3.44 1.89 6.05 4.52 7.85 7.87 1.8 3.37 2.69 7.32 2.69 11.86s-.95 8.15-2.82 11.27c-1.89 3.12-4.69 5.56-8.42 7.34 3.18.89 5.43 2.38 6.79 4.48 1.34 2.1 2.18 5.67 2.52 10.69l.95 13.47c.17 2.87.55 5.03 1.13 6.45.57 1.42 1.42 2.44 2.57 3.03v2.27h-12.8c-1.04-1.7-1.76-5.33-2.18-10.91v-.32l-.68-10.65c-.36-5.47-1.53-9-3.48-10.63-1.97-1.63-6.85-2.44-14.68-2.44h-17.93v34.95h-11.01v-81.59z" fill="#96959b"/></g></svg>