<svg viewBox="0 0 1095.56 614.9" xmlns="http://www.w3.org/2000/svg"><path d="m0 0h1095.56v614.9h-1095.56z" fill="none" opacity=".64"/><path d="m1036.07 397.63c2.92 0 4.95-2.03 4.95-4.95v-145.14h49.28c2.92 0 4.95-2.03 4.95-4.95v-20.02c0-2.93-2.02-4.95-4.95-4.95h-131.2c-2.93 0-4.95 2.02-4.95 4.95v20.02c0 2.93 2.02 4.95 4.95 4.95h49.29v145.14c0 2.93 2.02 4.95 4.95 4.95zm-342.89-5.86-60.98-169.67c-1.13-3.15-3.38-4.5-6.75-4.5h-30.16c-3.37 0-5.39 1.35-6.52 4.5l-60.99 169.67c-1.13 2.93.9 5.86 3.82 5.86h22.05c3.38 0 5.4-1.57 6.52-4.73l13.29-38.25h72.68l13.28 38.25c1.12 3.16 3.15 4.73 6.53 4.73h23.41c3.15 0 4.95-2.93 3.82-5.86zm-109.38-66.6 26.11-74.26 25.88 74.26h-51.98zm393.98 66.16-38.03-41.19 25.21-43.2c2.25-3.82.22-6.3-3.38-6.3h-21.82c-3.6 0-5.63 1.13-7.42 4.05l-14.18 24.76-25.21-27.23c17.11-9.46 33.31-22.06 33.31-44.55 0-26.33-18.46-44.11-48.61-44.11s-49.06 19.12-49.06 47.03c0 11.02 4.73 23.62 15.07 35.55-21.15 11.7-35.1 25.65-35.1 51.76 0 33.98 25.88 53.78 58.74 53.78 26.55 0 42.53-11.47 54-26.78l17.1 18.9c2.48 2.93 4.51 3.83 8.33 3.83h28.57c3.61 0 5.41-3.15 2.48-6.3zm-99.68-149.88c11.7 0 17.55 7.65 17.55 16.88 0 9.9-6.75 15.53-22.73 24.75-9.23-9.9-13.27-16.65-13.27-24.3 0-9.9 6.75-17.33 18.45-17.33zm-10.13 131.87c-14.86 0-27.46-11.02-27.46-26.55s9-23.63 22.96-31.51l36.45 39.16c-7.88 11.93-17.56 18.9-31.95 18.9zm-137.49 24.31c-2.92 0-4.95-2.03-4.95-4.95v-145.14h-49.28c-2.93 0-4.95-2.03-4.95-4.95v-20.02c0-2.93 2.02-4.95 4.95-4.95h131.19c2.93 0 4.95 2.02 4.95 4.95v20.02c0 2.93-2.02 4.95-4.95 4.95h-49.28v145.14c0 2.93-2.02 4.95-4.95 4.95z"/><path d="m340.47 114.14c-33.73-20.23-72.89-31.73-115.12-31.73s-82.86 11.91-116.71 32.67c-10.14 6.25-15.86 11.26-15.86 17.69 0 18.99 44.35 39.39 123.02 39.39s138.23-22.35 138.23-43.88c0-5.13-4.48-8.73-13.56-14.15zm33.49 25c.94 1.47 1.42 3.07 1.42 5.19 0 25-76.49 69.23-198.27 69.23-89.46 0-106.21-33.2-106.21-54.31 0-7.55 2.89-15.27 9.26-23.12.35-.47.06-.65-.35-.3-11.62 9.85-22.29 20.94-31.67 32.91-4.48 5.66-7.25 10.67-7.25 13.68 0 43.76 109.69 75.49 212.24 75.49 109.28 0 158.05-35.68 158.05-67.05 0-11.21-4.36-17.75-15.51-30.43-7.25-8.26-14.09-14.98-21.35-21.58-.35-.29-.59-.06-.35.29zm-351.95 71.77c-6.6 13.09-13.92 35.21-16.1 46.65-.94 4.89-.53 7.25 1.18 10.91 13.8 29.31 83.62 76.19 246.51 76.19 99.37 0 176.57-24.41 189.07-69 2.3-8.2 2.42-16.87-.53-28.54-3.3-13.03-9.49-28.25-14.74-38.92-.18-.35-.47-.29-.41.12 1.95 58.44-161 96.13-243.21 96.13-89.05 0-163.36-35.5-163.36-80.32 0-4.31.88-8.61 2-13.09.12-.41-.24-.47-.41-.12zm158.11 186.77c-115.17 0-169.49-53.67-179.34-90.29-.12-.53-.47-.41-.47.06 0 12.32 1.24 28.25 3.36 38.8 1 5.13 5.19 13.21 11.32 19.64 27.89 29.07 97.42 69.82 217.85 69.82 164.06 0 201.57-54.67 209.24-72.65 5.48-12.86 8.32-36.09 8.32-55.61 0-4.72-.12-8.49-.3-12.21 0-.59-.35-.65-.47-.06-8.2 43.99-148.38 102.5-269.51 102.5zm60.51 99.02c55.38 0 116.24-15.09 152.62-45 9.97-8.14 19.46-18.99 27.95-33.55 4.89-8.37 9.67-18.34 13.57-28.13.18-.47-.12-.71-.47-.18-33.85 49.83-131.86 80.91-233.06 80.91-71.53 0-148.49-22.88-178.63-66.58-.3-.41-.59-.24-.41.24 28.07 59.68 113.23 92.29 218.44 92.29zm-153.28-11.5c38.16 29.55 86.04 47.3 138 47.3 56.85 0 108.69-21.11 148.26-55.79.47-.41.24-.71-.24-.41-17.75 11.85-68.35 37.74-148.02 37.74-69.23 0-112.99-15.45-137.7-29.25-.47-.24-.65.12-.3.41z" fill="#0091cd"/></svg>