<svg viewBox="0 0 959.91 584.77" xmlns="http://www.w3.org/2000/svg"><g fill="#065624"><path d="m333.24 417.59c.73-.54 1.92-1.46 3.54-2.72 4.7-3.98 7.06-4.98 7.06-2.99v10.6l-.55 3.81c0 2.17-3.25 4.89-9.78 8.15-3.8 1.98-8.49 3.7-14.11 5.15-5.42 1.46-11.54 2.82-18.32 4.07-6.79 1.26-13.91 1.91-21.3 1.91-15.76 0-30.33-2.26-43.73-6.79-5.06-1.8-9.95-3.98-14.66-6.52v.27c-7.43-4.16-14.12-9.04-20.1-14.65-9.77-9.42-17.42-20.91-22.94-34.49-5.52-13.57-8.28-29.05-8.28-46.42s2.77-32.85 8.28-46.44c5.52-13.55 13.13-25.01 22.82-34.34 9.68-9.31 21.21-16.28 34.61-20.9 13.39-4.61 27.96-6.93 43.72-6.93 7.43 0 14.52.64 21.31 1.9 6.79 1.29 12.94 2.64 18.46 4.08s10.18 3.19 13.98 5.17c6.54 3.26 9.89 5.97 10.05 8.14l.27 3.82v10.56c0 2.01-2.36 1.1-7.06-2.7-1.62-1.46-2.79-2.45-3.54-3-4.14-2.9-8.77-5.6-13.83-8.13s-10.64-4.76-16.72-6.66c-6.05-1.91-12.71-2.84-19.92-2.84-11.78 0-22.73 1.98-32.87 5.95-3.98 1.46-7.79 3.27-11.41 5.44-5.25 3.44-10.14 7.52-14.67 12.22-7.43 8.15-13.25 18.37-17.5 30.66-4.25 12.32-6.37 26.95-6.37 43.87s2.12 31.58 6.37 43.98 10.08 22.63 17.5 30.68c7.43 8.05 16.2 14.03 26.34 17.92 10.14 3.9 21.08 5.85 32.87 5.85 7.21 0 13.88-.96 19.94-2.86 6.08-1.89 11.64-4.12 16.7-6.65 5.06-2.54 9.68-5.26 13.83-8.14z"/><path d="m606.45 228.6c.36.2 1.09.2 2.15 0 1.1-.17 2.51.29 4.22 1.37 1.72 1.09 2.93 2.7 3.66 4.89l80.65 173.49-11.95 32.85c-.9 2.01-1.9 3.43-2.98 4.35-1.08.89-2.03 1.31-2.87 1.21-.8-.08-1.61-.44-2.43-1.07-.82-.65-1.38-1.1-1.79-1.37-.34-.27-.61-.59-.78-.95l-3.26-7.32-91.76-198.21c-1.08-2.89-1.22-5.02-.39-6.37.8-1.37 1.93-2.22 3.37-2.58l2.46-.56 21.71.27zm157.19 0c.38 0 .73.09 1.08.29.38.19.82.81 1.37 1.9.55 1.07.19 2.71-1.09 4.88l-79.83 205.54c-1.98 2.34-3.35 3.79-4.06 4.35-.57-1.28-1.38-2.63-2.46-4.08-.36-.71-1.34-2.03-2.99-3.93-1.61-1.9-2.71-3.5-3.24-4.75l2.68-7.35 9.53-39.62c1.45 0 2.17.08 2.17.25.91 1.81 1.54 2.36 1.9 1.65.36-.37.83-1.44 1.37-3.26l54.83-150.97c.36-1.45.95-2.63 1.76-3.53.82-.9 1.59-1.37 2.32-1.37l1.07-.27 13.58.27z"/><path d="m538.99 443.05c-.36-.2-1.09-.2-2.18 0-1.09.16-2.5-.29-4.2-1.36-1.72-1.1-2.94-2.73-3.69-4.9l-80.63-173.49 11.95-32.85c.92-2 1.9-3.45 2.98-4.35 1.1-.88 2.05-1.31 2.86-1.21.81.08 1.63.44 2.44 1.07.81.64 1.41 1.11 1.77 1.38.38.27.63.58.81.95l3.26 7.33 91.76 198.18c1.09 2.91 1.23 5.04.42 6.38-.81 1.37-1.94 2.22-3.4 2.58l-2.42.54zm-157.21 0c-.34 0-.73-.11-1.08-.29s-.81-.81-1.35-1.9c-.55-1.07-.19-2.72 1.08-4.87l79.82-205.54c2-2.36 3.36-3.81 4.09-4.35.53 1.28 1.35 2.62 2.43 4.08.36.71 1.36 2.04 3.01 3.94 1.61 1.89 2.71 3.48 3.24 4.75l-2.72 7.32-9.51 39.64c-1.44 0-2.17-.07-2.17-.26-.9-1.83-1.54-2.36-1.88-1.63-.36.34-.83 1.43-1.37 3.26l-54.84 150.95c-.36 1.45-.94 2.63-1.74 3.55-.83.88-1.6 1.36-2.33 1.36l-1.1.25-13.56-.25z"/><path d="m810.27 229.7c.17 0 .66-.09 1.49-.27.82-.19 1.62.23 2.45 1.22.81 1 1.13 2.58.94 4.76v207.42c0 .55-.21 1.23-.68 2.04-.45.83-1.23 1.13-2.3.95h-18.46c-1.27.18-2.22-.22-2.85-1.22-.64-.98-1.06-1.8-1.21-2.44-.2-.63-.28-1.11-.28-1.48v-7.86l.28-195.51c.15-5.44 1.8-7.95 4.88-7.59h15.75zm64.6 116.48c-.17 1.63.1 3.89.83 6.78l-.83 2.16c-1.08.18-2.3-.3-3.66-1.47-1.34-1.19-2.39-2.32-3.12-3.4l-1.09-1.88-47.24-68.18c-.71-1.08-1.27-1.85-1.63-2.3-.36-.46-.73-.77-1.09-.95-.37-.18-.73.05-1.09.67-.36.64-.62 1.67-.81 3.12-.36.37-1.52.37-3.54 0-1.97-.36-4.16-.84-6.49-1.49-2.36-.63-3.63-.94-3.82-.94l-4.34-40.73c-.9-1.29-.82-2.45.27-3.54 1.1-1.08 2.26-1.89 3.52-2.45 1.27-.52 2.1-.8 2.46-.8l5.7-1.36c2.54-.55 4.9.73 7.05 3.8l60.54 94.75c-.15 0-.22-.27-.12-.81.08-.55.02-.98-.13-1.34 0 .71-.52 2.3-1.52 4.73-.99 2.44-1.39 4.41-1.22 5.85 0 .54.18 1.31.56 2.3.36.99.63 1.69.8 2.04.19.72.19 2.55 0 5.44zm-54.83-65.99c.19 0 .27-.09.27-.26v.26zm54.3 72.77c.18-.73 0-1.86-.54-3.4-.55-1.53-.9-2.67-1.08-3.39 0-.38-.17-1.4-.53-3.13-.37-1.72-.46-2.94-.27-3.67v-.53h-.29c.75-9.59 1.54-14.3 2.46-14.12.54.73 1.07.95 1.63.68.55-.28.99-.68 1.34-1.23l.81-1.07 56.77-90.7c.7-1.27 1.98-2.19 3.77-2.72 1.8-.54 3.45-.73 4.91-.54h2.17l9.49.27c.91 2.9.27 5.61-1.9 8.14l-4.35 40.73c-4.89 1.24-8.32 2.07-10.32 2.43-1.97.37-3.15.37-3.51 0-.2-1.44-.45-2.48-.8-3.12-.39-.63-.75-.86-1.12-.67-.36.17-.71.49-1.06.95-.38.45-.93 1.23-1.63 2.3l-42.65 60.82-6.79 9.51c-3.26 3.98-5.61 5.44-7.07 4.35l.54-1.91zm55.68-72.77-.29-.26zm24.96-50.76c.17.18.64.18 1.36 0 .73-.19 1.53.23 2.44 1.22.9 1 1.29 2.51 1.09 4.47v206.62c0 .38-.03.81-.14 1.36-.09.54-.36 1.22-.81 2.03s-1.13 1.23-2.04 1.23h-18.18c-1.09 0-1.96-.52-2.58-1.51-.64-.98-1-1.8-1.1-2.44-.08-.63-.12-1.11-.12-1.49v-203.64c0-2.7.68-4.75 2.04-6.09 1.36-1.37 2.73-2.04 4.2-2.04h2.18l11.66.27z"/></g><path d="m465.26 339.4c-32.15 29.02-64.5 55.75-85.94 70.85 30.03-29.89 55.71-58.6 78.64-87.34z" fill="#708c24"/><path d="m516.92 287.15c31.92-35.22 51.17-55.44 64.5-76.84 26.76-34.92-7.88-146.06-53.52-160.41-50.47-15.9-198.48-64.6-290.48-45.54-34.24 8.06-136.47 44.71-136.47 44.71s-72.88 23.59-86.06 47.84c-57.7 120.5 67.32 345.84 118.86 362.86 44.83 14.79-102.39-264.59 12.66-354.03 27.98-21.75 71.11-36.11 110.51-41.11 89.49-11.09 193.31 10.24 241.86 33.45 23.05 11.99 42.75 79.2 31.7 106.29-6.71 16.4-6.76 22.47-27.55 53.14l13.98 29.65z" fill="#708c24"/><g fill="#065624"><path d="m201.07 513.16c-1.76.92-5.67 2.15-10.66 2.15-11.2 0-18.49-7.6-18.49-18.95s7.83-19.72 19.95-19.72c3.99 0 7.52 1 9.36 1.92l-1.53 5.22c-1.61-.92-4.14-1.76-7.82-1.76-8.52 0-13.12 6.29-13.12 14.04 0 8.59 5.52 13.89 12.89 13.89 3.84 0 6.37-1 8.29-1.84l1.15 5.06z"/><path d="m242.11 495.67c0 13.73-9.51 19.71-18.49 19.71-10.05 0-17.8-7.36-17.8-19.1 0-12.43 8.13-19.72 18.41-19.72s17.87 7.75 17.87 19.1zm-29.46.38c0 8.13 4.68 14.27 11.28 14.27s11.28-6.06 11.28-14.42c0-6.29-3.14-14.27-11.12-14.27s-11.43 7.37-11.43 14.42z"/><path d="m250.62 487.46c0-3.84-.08-6.98-.31-10.05h5.98l.38 6.14h.15c1.84-3.53 6.14-6.98 12.27-6.98 5.14 0 13.12 3.07 13.12 15.81v22.17h-6.75v-21.4c0-5.98-2.22-10.97-8.59-10.97-4.45 0-7.9 3.14-9.05 6.9-.31.84-.46 1.99-.46 3.14v22.32h-6.75v-27.08z"/><path d="m319.65 513.16c-1.76.92-5.67 2.15-10.66 2.15-11.2 0-18.49-7.6-18.49-18.95s7.82-19.72 19.95-19.72c3.99 0 7.52 1 9.36 1.92l-1.53 5.22c-1.61-.92-4.14-1.76-7.82-1.76-8.52 0-13.12 6.29-13.12 14.04 0 8.59 5.52 13.89 12.89 13.89 3.84 0 6.37-1 8.29-1.84l1.15 5.06z"/><path d="m327.54 489c0-4.38-.08-8.13-.31-11.58h5.91l.23 7.29h.31c1.69-4.99 5.75-8.13 10.28-8.13.77 0 1.3.08 1.91.23v6.37c-.69-.15-1.38-.23-2.3-.23-4.76 0-8.13 3.61-9.05 8.67-.15.92-.3 2-.3 3.14v19.79h-6.67v-25.54z"/><path d="m355.61 497.21c.15 9.13 5.99 12.89 12.74 12.89 4.83 0 7.75-.85 10.28-1.92l1.15 4.83c-2.38 1.07-6.45 2.3-12.35 2.3-11.43 0-18.26-7.52-18.26-18.72s6.6-20.02 17.42-20.02c12.12 0 15.34 10.66 15.34 17.49 0 1.38-.15 2.45-.23 3.14h-26.08zm19.8-4.84c.08-4.3-1.76-10.97-9.36-10.97-6.83 0-9.82 6.29-10.36 10.97z"/><path d="m398.42 466.75v10.66h9.67v5.14h-9.67v20.02c0 4.6 1.3 7.21 5.06 7.21 1.76 0 3.07-.23 3.91-.46l.31 5.06c-1.3.54-3.38.92-5.98.92-3.14 0-5.68-1-7.29-2.84-1.92-2-2.61-5.29-2.61-9.67v-20.25h-5.76v-5.14h5.76v-8.9l6.6-1.76z"/><path d="m448.81 495.67c0 13.73-9.51 19.71-18.49 19.71-10.05 0-17.8-7.36-17.8-19.1 0-12.43 8.13-19.72 18.41-19.72s17.87 7.75 17.87 19.1zm-29.46.38c0 8.13 4.68 14.27 11.28 14.27s11.28-6.06 11.28-14.42c0-6.29-3.14-14.27-11.12-14.27s-11.43 7.37-11.43 14.42z"/><path d="m456.4 507.64c2 1.3 5.52 2.69 8.9 2.69 4.91 0 7.21-2.46 7.21-5.52 0-3.22-1.92-4.99-6.9-6.83-6.67-2.38-9.82-6.06-9.82-10.51 0-5.99 4.83-10.9 12.81-10.9 3.76 0 7.06 1.08 9.13 2.3l-1.69 4.91c-1.46-.92-4.14-2.15-7.59-2.15-3.99 0-6.21 2.3-6.21 5.06 0 3.07 2.22 4.45 7.06 6.29 6.44 2.46 9.74 5.68 9.74 11.2 0 6.52-5.06 11.13-13.88 11.13-4.07 0-7.82-1-10.43-2.53l1.69-5.14z"/><path d="m506.41 477.41 8.13 21.94c.85 2.46 1.76 5.37 2.38 7.6h.15c.69-2.23 1.46-5.06 2.38-7.75l7.37-21.78h7.13l-10.13 26.47c-4.83 12.73-8.13 19.25-12.73 23.24-3.3 2.92-6.6 4.07-8.29 4.38l-1.69-5.68c1.69-.54 3.91-1.61 5.91-3.3 1.84-1.46 4.14-4.06 5.67-7.52.31-.69.54-1.23.54-1.61s-.15-.92-.46-1.76l-13.73-34.21h7.36z"/><path d="m576.89 514.54-.54-4.68h-.23c-2.07 2.91-6.06 5.52-11.35 5.52-7.52 0-11.35-5.29-11.35-10.66 0-8.98 7.98-13.89 22.33-13.81v-.77c0-3.07-.85-8.59-8.44-8.59-3.45 0-7.06 1.08-9.67 2.76l-1.53-4.45c3.07-2 7.52-3.3 12.2-3.3 11.35 0 14.12 7.75 14.12 15.19v13.88c0 3.22.15 6.37.61 8.9h-6.14zm-.99-18.94c-7.37-.15-15.73 1.15-15.73 8.36 0 4.38 2.91 6.45 6.37 6.45 4.83 0 7.9-3.07 8.98-6.22.23-.69.38-1.46.38-2.15z"/><path d="m592.38 507.64c2 1.3 5.52 2.69 8.9 2.69 4.91 0 7.21-2.46 7.21-5.52 0-3.22-1.92-4.99-6.9-6.83-6.67-2.38-9.82-6.06-9.82-10.51 0-5.99 4.83-10.9 12.81-10.9 3.76 0 7.06 1.08 9.13 2.3l-1.69 4.91c-1.46-.92-4.14-2.15-7.59-2.15-3.99 0-6.21 2.3-6.21 5.06 0 3.07 2.22 4.45 7.06 6.29 6.44 2.46 9.74 5.68 9.74 11.2 0 6.52-5.06 11.13-13.88 11.13-4.07 0-7.82-1-10.43-2.53l1.69-5.14z"/><path d="m624.37 514.54v-31.99h-5.22v-5.14h5.22v-1.76c0-5.22 1.15-9.97 4.3-12.96 2.53-2.46 5.91-3.45 9.05-3.45 2.38 0 4.45.53 5.75 1.07l-.92 5.22c-1-.46-2.38-.85-4.29-.85-5.76 0-7.21 5.06-7.21 10.74v2h8.98v5.14h-8.98v31.99h-6.67z"/><path d="m666.63 514.54-.54-4.68h-.23c-2.07 2.91-6.06 5.52-11.35 5.52-7.52 0-11.35-5.29-11.35-10.66 0-8.98 7.98-13.89 22.33-13.81v-.77c0-3.07-.85-8.59-8.44-8.59-3.45 0-7.06 1.08-9.67 2.76l-1.53-4.45c3.07-2 7.52-3.3 12.2-3.3 11.35 0 14.12 7.75 14.12 15.19v13.88c0 3.22.15 6.37.61 8.9h-6.14zm-.99-18.94c-7.37-.15-15.73 1.15-15.73 8.36 0 4.38 2.91 6.45 6.37 6.45 4.83 0 7.9-3.07 8.98-6.22.23-.69.38-1.46.38-2.15z"/><path d="m683.04 460.07h6.75v54.47h-6.75z"/><path d="m709.27 466.75v10.66h9.67v5.14h-9.67v20.02c0 4.6 1.3 7.21 5.06 7.21 1.76 0 3.07-.23 3.91-.46l.31 5.06c-1.3.54-3.38.92-5.98.92-3.14 0-5.68-1-7.29-2.84-1.92-2-2.61-5.29-2.61-9.67v-20.25h-5.76v-5.14h5.76v-8.9l6.6-1.76z"/><path d="m759.67 495.67c0 13.73-9.51 19.71-18.49 19.71-10.05 0-17.8-7.36-17.8-19.1 0-12.43 8.13-19.72 18.41-19.72s17.87 7.75 17.87 19.1zm-29.46.38c0 8.13 4.68 14.27 11.28 14.27s11.28-6.06 11.28-14.42c0-6.29-3.14-14.27-11.12-14.27s-11.43 7.37-11.43 14.42z"/><path d="m767.26 507.64c2 1.3 5.52 2.69 8.9 2.69 4.91 0 7.21-2.46 7.21-5.52 0-3.22-1.92-4.99-6.9-6.83-6.67-2.38-9.82-6.06-9.82-10.51 0-5.99 4.83-10.9 12.81-10.9 3.76 0 7.06 1.08 9.13 2.3l-1.69 4.91c-1.46-.92-4.14-2.15-7.59-2.15-3.99 0-6.21 2.3-6.21 5.06 0 3.07 2.22 4.45 7.06 6.29 6.44 2.46 9.74 5.68 9.74 11.2 0 6.52-5.06 11.13-13.88 11.13-4.07 0-7.82-1-10.43-2.53l1.69-5.14z"/><path d="m204.8 532.22v42.64c0 3.13.07 6.71.29 9.11h-5.76l-.29-6.12h-.15c-1.97 3.93-6.27 6.92-12.02 6.92-8.53 0-15.09-7.22-15.09-17.93-.07-11.73 7.22-18.95 15.82-18.95 5.4 0 9.04 2.55 10.64 5.39h.14v-21.06zm-6.42 30.83c0-.8-.07-1.89-.29-2.69-.95-4.08-4.44-7.44-9.26-7.44-6.63 0-10.57 5.83-10.57 13.63 0 7.14 3.5 13.04 10.42 13.04 4.3 0 8.24-2.84 9.4-7.65.22-.87.29-1.75.29-2.77v-6.13z"/><path d="m225.92 567.5c.15 8.67 5.69 12.24 12.1 12.24 4.6 0 7.36-.8 9.77-1.82l1.09 4.59c-2.26 1.02-6.13 2.19-11.74 2.19-10.86 0-17.35-7.15-17.35-17.79s6.27-19.02 16.55-19.02c11.52 0 14.58 10.13 14.58 16.62 0 1.31-.15 2.33-.22 2.99zm18.81-4.6c.07-4.08-1.68-10.42-8.89-10.42-6.49 0-9.33 5.98-9.84 10.42z"/><path d="m265.78 532.22h6.41v51.75h-6.41z"/><path d="m314.74 548.69 6.93 19.83c1.16 3.21 2.11 6.12 2.84 9.04h.22c.8-2.91 1.82-5.83 2.99-9.04l6.85-19.83h6.71l-13.85 35.28h-6.12l-13.41-35.28h6.85z"/><path d="m373.48 583.97-.51-4.44h-.22c-1.97 2.77-5.76 5.25-10.79 5.25-7.14 0-10.79-5.03-10.79-10.13 0-8.53 7.58-13.19 21.21-13.12v-.73c0-2.92-.8-8.17-8.02-8.17-3.28 0-6.71 1.02-9.19 2.62l-1.46-4.22c2.92-1.9 7.14-3.13 11.59-3.13 10.79 0 13.41 7.36 13.41 14.43v13.19c0 3.06.15 6.05.58 8.46h-5.83zm-.95-18c-7-.15-14.94 1.09-14.94 7.94 0 4.15 2.77 6.13 6.05 6.13 4.59 0 7.51-2.92 8.53-5.91.22-.66.36-1.38.36-2.04z"/><path d="m395.99 532.22h6.41v51.75h-6.41z"/><path d="m420.11 532.22h6.41v51.75h-6.41z"/><path d="m447.8 567.5c.15 8.67 5.69 12.24 12.1 12.24 4.6 0 7.36-.8 9.77-1.82l1.09 4.59c-2.26 1.02-6.13 2.19-11.74 2.19-10.86 0-17.35-7.15-17.35-17.79s6.27-19.02 16.55-19.02c11.52 0 14.58 10.13 14.58 16.62 0 1.31-.15 2.33-.22 2.99zm18.81-4.6c.07-4.08-1.68-10.42-8.89-10.42-6.49 0-9.33 5.98-9.84 10.42z"/><path d="m540.49 532.22v42.64c0 3.13.07 6.71.29 9.11h-5.76l-.29-6.12h-.15c-1.97 3.93-6.27 6.92-12.02 6.92-8.53 0-15.09-7.22-15.09-17.93-.07-11.73 7.22-18.95 15.82-18.95 5.4 0 9.04 2.55 10.64 5.39h.14v-21.06zm-6.41 30.83c0-.8-.07-1.89-.29-2.69-.95-4.08-4.45-7.44-9.26-7.44-6.63 0-10.57 5.83-10.57 13.63 0 7.14 3.5 13.04 10.42 13.04 4.3 0 8.24-2.84 9.4-7.65.22-.87.29-1.75.29-2.77v-6.13z"/><path d="m561.62 567.5c.15 8.67 5.69 12.24 12.1 12.24 4.59 0 7.36-.8 9.77-1.82l1.09 4.59c-2.26 1.02-6.13 2.19-11.74 2.19-10.86 0-17.35-7.15-17.35-17.79s6.27-19.02 16.55-19.02c11.52 0 14.58 10.13 14.58 16.62 0 1.31-.15 2.33-.22 2.99zm18.8-4.6c.07-4.08-1.68-10.42-8.89-10.42-6.49 0-9.33 5.98-9.84 10.42z"/><path d="m623.85 558.24c0-3.64-.07-6.64-.29-9.55h5.61l.29 5.69h.22c1.97-3.35 5.25-6.49 11.08-6.49 4.81 0 8.46 2.91 9.99 7.07h.15c1.09-1.97 2.48-3.5 3.93-4.59 2.11-1.6 4.44-2.48 7.8-2.48 4.67 0 11.59 3.06 11.59 15.31v20.77h-6.27v-19.97c0-6.78-2.48-10.86-7.66-10.86-3.64 0-6.49 2.7-7.58 5.83-.29.88-.51 2.04-.51 3.21v21.79h-6.27v-21.14c0-5.61-2.48-9.7-7.36-9.7-4.01 0-6.92 3.21-7.94 6.42-.37.95-.51 2.04-.51 3.13v21.28h-6.27v-25.73z"/><path d="m695.11 567.5c.15 8.67 5.69 12.24 12.1 12.24 4.59 0 7.36-.8 9.77-1.82l1.09 4.59c-2.26 1.02-6.13 2.19-11.74 2.19-10.86 0-17.35-7.15-17.35-17.79s6.27-19.02 16.55-19.02c11.52 0 14.58 10.13 14.58 16.62 0 1.31-.15 2.33-.22 2.99zm18.81-4.6c.07-4.08-1.68-10.42-8.89-10.42-6.49 0-9.33 5.98-9.84 10.42zm1.53-29.45-8.89 10.42h-4.59l6.41-10.42z"/><path d="m737.74 548.69 5.03 7.58c1.31 1.97 2.41 3.79 3.57 5.76h.22c1.17-2.11 2.33-3.93 3.5-5.83l4.96-7.51h6.92l-12.03 17.06 12.39 18.22h-7.29l-5.18-7.95c-1.39-2.04-2.55-4.01-3.79-6.12h-.15c-1.17 2.11-2.4 4.01-3.72 6.12l-5.1 7.95h-7.07l12.54-18-11.95-17.28h7.14z"/><path d="m782.56 538.78c.07 2.19-1.53 3.94-4.08 3.94-2.26 0-3.86-1.75-3.86-3.94s1.68-4.01 4.01-4.01 3.93 1.75 3.93 4.01zm-7.15 45.19v-35.28h6.41v35.28z"/><path d="m824.53 582.66c-1.68.87-5.39 2.04-10.13 2.04-10.64 0-17.57-7.22-17.57-18.01s7.43-18.73 18.95-18.73c3.79 0 7.14.95 8.89 1.82l-1.46 4.96c-1.53-.87-3.94-1.67-7.44-1.67-8.09 0-12.46 5.98-12.46 13.34 0 8.16 5.25 13.19 12.25 13.19 3.64 0 6.05-.95 7.87-1.75l1.09 4.81z"/><path d="m870.44 566.04c0 13.04-9.04 18.73-17.57 18.73-9.55 0-16.91-7-16.91-18.15 0-11.81 7.73-18.73 17.49-18.73s16.98 7.36 16.98 18.15zm-27.99.36c0 7.73 4.45 13.56 10.71 13.56s10.72-5.76 10.72-13.71c0-5.98-2.99-13.56-10.57-13.56s-10.86 7-10.86 13.71z"/></g></svg>