<?xml version="1.0" encoding="UTF-8"?>
<svg id="Capa_1" data-name="Capa 1" xmlns="http://www.w3.org/2000/svg" xmlns:xlink="http://www.w3.org/1999/xlink" version="1.1" viewBox="0 0 880.5 741">
  <defs>
    <style>
      .cls-1 {
        fill: url(#Degradado_sin_nombre_20);
      }

      .cls-1, .cls-2, .cls-3, .cls-4, .cls-5, .cls-6, .cls-7, .cls-8, .cls-9, .cls-10, .cls-11, .cls-12, .cls-13, .cls-14, .cls-15, .cls-16, .cls-17, .cls-18, .cls-19, .cls-20, .cls-21, .cls-22, .cls-23, .cls-24, .cls-25, .cls-26, .cls-27, .cls-28, .cls-29 {
        stroke-width: 0px;
      }

      .cls-2 {
        fill: url(#Degradado_sin_nombre_17);
      }

      .cls-3 {
        fill: url(#Degradado_sin_nombre_14);
      }

      .cls-4 {
        fill: url(#Degradado_sin_nombre_16);
      }

      .cls-5 {
        fill: url(#Degradado_sin_nombre_18);
      }

      .cls-6 {
        fill: url(#Degradado_sin_nombre_12);
      }

      .cls-7 {
        fill: url(#Degradado_sin_nombre_10);
      }

      .cls-8 {
        fill: url(#Degradado_sin_nombre_19);
      }

      .cls-8, .cls-9, .cls-10, .cls-11, .cls-13, .cls-14, .cls-23, .cls-25, .cls-26, .cls-29 {
        fill-rule: evenodd;
      }

      .cls-9 {
        fill: url(#Degradado_sin_nombre_15);
      }

      .cls-10 {
        fill: url(#Degradado_sin_nombre_13);
      }

      .cls-11 {
        fill: url(#Degradado_sin_nombre_11);
      }

      .cls-30 {
        clip-path: url(#clippath);
      }

      .cls-12 {
        fill: none;
      }

      .cls-31 {
        mask: url(#mask);
      }

      .cls-13 {
        fill: #2eb4e4;
      }

      .cls-14 {
        fill: #1a1f4f;
      }

      .cls-32 {
        clip-path: url(#clippath-1);
      }

      .cls-33 {
        clip-path: url(#clippath-4);
      }

      .cls-34 {
        clip-path: url(#clippath-3);
      }

      .cls-35 {
        clip-path: url(#clippath-2);
      }

      .cls-36 {
        clip-path: url(#clippath-5);
      }

      .cls-15 {
        fill: url(#Degradado_sin_nombre_5);
      }

      .cls-16 {
        fill: url(#Degradado_sin_nombre_4);
      }

      .cls-17 {
        fill: url(#Degradado_sin_nombre_3);
      }

      .cls-18 {
        fill: url(#Degradado_sin_nombre_2);
      }

      .cls-19 {
        fill: url(#Degradado_sin_nombre_8);
      }

      .cls-20 {
        fill: url(#Degradado_sin_nombre_9);
      }

      .cls-21 {
        fill: url(#Degradado_sin_nombre_7);
      }

      .cls-22 {
        fill: url(#Degradado_sin_nombre_6);
      }

      .cls-23, .cls-28 {
        fill: #283881;
      }

      .cls-24 {
        fill: url(#Degradado_sin_nombre);
      }

      .cls-25 {
        fill: #ecebec;
      }

      .cls-26, .cls-27 {
        fill: #fff;
      }

      .cls-37 {
        mask: url(#mask-3);
      }

      .cls-38 {
        mask: url(#mask-2);
      }

      .cls-39 {
        mask: url(#mask-5);
      }

      .cls-40 {
        mask: url(#mask-4);
      }

      .cls-41 {
        mask: url(#mask-1);
      }

      .cls-42 {
        mask: url(#mask-7);
      }

      .cls-43 {
        mask: url(#mask-6);
      }

      .cls-44 {
        mask: url(#mask-8);
      }

      .cls-45 {
        mask: url(#mask-9);
      }

      .cls-29 {
        fill: #faf4c3;
      }
    </style>
    <linearGradient id="Degradado_sin_nombre_11" data-name="Degradado sin nombre 11" x1="353.5" y1="616.7" x2="785.6" y2="616.7" gradientTransform="translate(0 992) scale(1 -1)" gradientUnits="userSpaceOnUse">
      <stop offset="0" stop-color="#8f8f8e"/>
      <stop offset="1" stop-color="#e5e5e5"/>
    </linearGradient>
    <clipPath id="clippath">
      <path class="cls-12" d="M441.6,360.7l6.7,26.5,58.6,22.6-153.4,239.1c36.3,14.6,75.9,22.7,117.5,22.7,124.1,0,231.5-71.9,282.6-176.4,20.4-41.7,31.9-88.6,31.9-138.2,0-100.1-46.8-189.3-119.7-246.9-14.8-11.7-30.8-22.1-47.6-31.1-10.2,14.7,4.7,30.7,4.7,50.9s-20.5,37.2-32.8,53.2l-148.6,177.4h0Z"/>
    </clipPath>
    <linearGradient id="Degradado_sin_nombre_12" data-name="Degradado sin nombre 12" x1="466" y1="606.4" x2="1172.5" y2="676.5" gradientTransform="translate(0 992) scale(1 -1)" gradientUnits="userSpaceOnUse">
      <stop offset="0" stop-color="#8f8f8e"/>
      <stop offset="1" stop-color="#e5e5e5"/>
    </linearGradient>
    <linearGradient id="Degradado_sin_nombre" data-name="Degradado sin nombre" x1="1983.2" y1="-1011.7" x2="2" y2="727.1" gradientTransform="translate(216.6 794.4) scale(1 -1)" gradientUnits="userSpaceOnUse">
      <stop offset="0" stop-color="#fff"/>
      <stop offset="1" stop-color="#000"/>
    </linearGradient>
    <mask id="mask" x="353.5" y="79" width="432" height="592.5" maskUnits="userSpaceOnUse">
      <g id="e">
        <path class="cls-24" d="M353.5,79.1h432v592.5h-432V79.1Z"/>
      </g>
    </mask>
    <linearGradient id="Degradado_sin_nombre_13" data-name="Degradado sin nombre 13" x1="102.8" y1="657.6" x2="498.1" y2="657.6" gradientTransform="translate(0 992) scale(1 -1)" gradientUnits="userSpaceOnUse">
      <stop offset="0" stop-color="#009fdf"/>
      <stop offset=".2" stop-color="#0196d6"/>
      <stop offset=".4" stop-color="#0680bf"/>
      <stop offset=".7" stop-color="#0e5c9a"/>
      <stop offset="1" stop-color="#1a2c68"/>
    </linearGradient>
    <clipPath id="clippath-1">
      <path class="cls-12" d="M418.8,46.8l-10.9-28.7c-5.5-14.5-21.8-21.8-36.2-16.3l-61.9,23.5c-14.5,5.5-21.8,21.8-16.3,36.2l10.9,28.7c-11.8,7.4-23,15.5-33.6,24.3l-23.8-19.4c-12-9.8-29.8-8-39.5,4l-41.9,51.3c-9.8,12-8,29.8,4,39.5l23.8,19.4c-6.5,12.2-12.2,24.8-17.1,37.9l-30.3-4.9c-15.3-2.5-29.8,7.9-32.2,23.2l-10.6,65.3c-2.5,15.3,7.9,29.8,23.2,32.2l30.3,4.9c.5,14,1.9,27.8,4.1,41.3l-28.7,10.9c-14.5,5.5-21.8,21.8-16.3,36.2l23.5,61.9c5.5,14.5,21.8,21.8,36.2,16.3l28.7-10.9c7.4,11.8,15.5,23,24.3,33.7l-19.4,23.8c-9.8,12-8,29.8,4,39.5l51.3,41.9c12,9.8,29.8,8,39.5-4l19.4-23.8c2.5,1.3,4.9,2.6,7.4,3.8l46.8-97c-67.2-34.1-113.3-104-113.3-184.5,0-114.2,92.6-206.9,206.9-206.9s17.1.5,25.5,1.6c1.1-5.5,1.6-11.1,1.6-16.7,0-26-11.7-50.3-31.9-66.5-14.6-11.7-29.9-17-47.4-21.7"/>
    </clipPath>
    <linearGradient id="Degradado_sin_nombre_14" data-name="Degradado sin nombre 14" x1="-185.3" y1="247.9" x2="609.2" y2="919.6" gradientTransform="translate(0 992) scale(1 -1)" gradientUnits="userSpaceOnUse">
      <stop offset="0" stop-color="#009fdf"/>
      <stop offset=".2" stop-color="#0196d6"/>
      <stop offset=".4" stop-color="#0680bf"/>
      <stop offset=".7" stop-color="#0e5c9a"/>
      <stop offset="1" stop-color="#1a2c68"/>
    </linearGradient>
    <linearGradient id="Degradado_sin_nombre_2" data-name="Degradado sin nombre 2" x1="-108.7" y1="473.5" x2="206.3" y2="425.3" gradientTransform="translate(179.7 773.4) scale(1 -1)" gradientUnits="userSpaceOnUse">
      <stop offset="0" stop-color="#fff"/>
      <stop offset="1" stop-color="#000"/>
    </linearGradient>
    <mask id="mask-1" x="210.3" y="96.3" width="287.8" height="493.8" maskUnits="userSpaceOnUse">
      <g id="j">
        <path class="cls-18" d="M210.3,96.3h287.8v493.8H210.3V96.3Z"/>
      </g>
    </mask>
    <linearGradient id="Degradado_sin_nombre_15" data-name="Degradado sin nombre 15" x1="211.1" y1="648.7" x2="498.1" y2="648.7" gradientTransform="translate(0 992) scale(1 -1)" gradientUnits="userSpaceOnUse">
      <stop offset="0" stop-color="#3cbeec"/>
      <stop offset=".1" stop-color="#38b5e4"/>
      <stop offset=".4" stop-color="#2e9ed1"/>
      <stop offset=".7" stop-color="#1d79b1"/>
      <stop offset="1" stop-color="#074686"/>
      <stop offset="1" stop-color="#054182"/>
    </linearGradient>
    <clipPath id="clippath-2">
      <path class="cls-12" d="M489.6,97.8c-6.1-.4-12.3-.7-18.5-.7-143.5,0-259.9,116.4-259.9,259.9s58.3,189.6,143.3,232.3l23.1-47.8c-67.2-34.1-113.3-104-113.3-184.5,0-114.2,92.6-206.9,206.9-206.9s17.1.5,25.5,1.6c1.1-5.5,1.6-11.1,1.6-16.7,0-13.1-3-25.8-8.5-37.2"/>
    </clipPath>
    <linearGradient id="Degradado_sin_nombre_16" data-name="Degradado sin nombre 16" x1="-146" y1="742.5" x2="589.4" y2="604.8" gradientTransform="translate(0 992) scale(1 -1)" gradientUnits="userSpaceOnUse">
      <stop offset="0" stop-color="#3cbeec"/>
      <stop offset=".1" stop-color="#38b5e4"/>
      <stop offset=".4" stop-color="#2e9ed1"/>
      <stop offset=".7" stop-color="#1d79b1"/>
      <stop offset="1" stop-color="#074686"/>
      <stop offset="1" stop-color="#054182"/>
    </linearGradient>
    <clipPath id="clippath-3">
      <path class="cls-12" d="M465.2,377.7l147.1-188.1c.3-.8,17.8-19.6,20.5-51.3.2-2.7.3-5.4.3-8.2,0-18.8-5.4-36.3-14.8-51-23-12.2-47.7-21.6-73.6-27.9-33.9-8.1-69.1-10.6-103.9-7.3,39.2,12.1,67.2,48.5,67.2,91.1s-12.5,47.4-27.4,71.4l-74.5,120.1c-24.5,64,53.3,64.6,59,51.2"/>
    </clipPath>
    <linearGradient id="Degradado_sin_nombre_17" data-name="Degradado sin nombre 17" x1="507.4" y1="966.7" x2="507.4" y2="555.3" gradientTransform="translate(0 992) scale(1 -1)" gradientUnits="userSpaceOnUse">
      <stop offset="0" stop-color="#009fdf"/>
      <stop offset=".1" stop-color="#0196d6"/>
      <stop offset=".3" stop-color="#0680bf"/>
      <stop offset=".6" stop-color="#0e5c9a"/>
      <stop offset=".9" stop-color="#1a2c68"/>
    </linearGradient>
    <linearGradient id="Degradado_sin_nombre_3" data-name="Degradado sin nombre 3" x1="429.1" y1="865" x2="201.8" y2="408.8" gradientTransform="translate(229.6 716.4) scale(1 -1)" gradientUnits="userSpaceOnUse">
      <stop offset="0" stop-color="#fff"/>
      <stop offset="1" stop-color="#000"/>
    </linearGradient>
    <mask id="mask-2" x="403.7" y="42.5" width="156.8" height="326.8" maskUnits="userSpaceOnUse">
      <g id="q">
        <path class="cls-17" d="M403.7,42.5h156.8v326.8h-156.8V42.5Z"/>
      </g>
    </mask>
    <linearGradient id="Degradado_sin_nombre_4" data-name="Degradado sin nombre 4" x1="2072.7" y1="-1005.9" x2="91.4" y2="732.9" gradientTransform="translate(239.2 672.5) scale(1 -1)" gradientUnits="userSpaceOnUse">
      <stop offset="0" stop-color="#fff"/>
      <stop offset="1" stop-color="#000"/>
    </linearGradient>
    <mask id="mask-3" x="440.9" y="42.5" width="192.2" height="156.7" maskUnits="userSpaceOnUse">
      <g id="s">
        <path class="cls-16" d="M440.9,42.5h192.2v156.7h-192.2V42.5Z"/>
      </g>
    </mask>
    <clipPath id="clippath-4">
      <path class="cls-12" d="M487.5,480.8c5.2-42.5-32-43.3-52.5-35.4l-123.8,256.5,42.3-53,134-168.1h0Z"/>
    </clipPath>
    <linearGradient id="Degradado_sin_nombre_18" data-name="Degradado sin nombre 18" x1="541.1" y1="663" x2="239" y2="140.3" gradientTransform="translate(0 992) scale(1 -1)" gradientUnits="userSpaceOnUse">
      <stop offset="0" stop-color="#009fdf"/>
      <stop offset=".1" stop-color="#0196d6"/>
      <stop offset=".3" stop-color="#0680bf"/>
      <stop offset=".6" stop-color="#0e5c9a"/>
      <stop offset=".9" stop-color="#1a2c68"/>
    </linearGradient>
    <linearGradient id="Degradado_sin_nombre_5" data-name="Degradado sin nombre 5" x1="380.4" y1="575.9" x2="156" y2="153.6" gradientTransform="translate(205.7 802.2) scale(1 -1)" gradientUnits="userSpaceOnUse">
      <stop offset="0" stop-color="#fff"/>
      <stop offset="1" stop-color="#000"/>
    </linearGradient>
    <mask id="mask-4" x="311.3" y="453.5" width="176.3" height="248.5" maskUnits="userSpaceOnUse">
      <g id="w">
        <path class="cls-15" d="M311.3,453.5h176.3v248.5h-176.3v-248.5Z"/>
      </g>
    </mask>
    <linearGradient id="Degradado_sin_nombre_6" data-name="Degradado sin nombre 6" x1="1783.3" y1="-1244" x2="-197.9" y2="494.8" gradientTransform="translate(205.7 802.2) scale(1 -1)" gradientUnits="userSpaceOnUse">
      <stop offset="0" stop-color="#fff"/>
      <stop offset="1" stop-color="#000"/>
    </linearGradient>
    <mask id="mask-5" x="311.3" y="545.9" width="114.1" height="156" maskUnits="userSpaceOnUse">
      <g id="y">
        <path class="cls-22" d="M311.3,545.9h114.1v156h-114.1v-156Z"/>
      </g>
    </mask>
    <linearGradient id="Degradado_sin_nombre_19" data-name="Degradado sin nombre 19" x1="339.8" y1="588.3" x2="560.4" y2="588.3" gradientTransform="translate(0 992) scale(1 -1)" gradientUnits="userSpaceOnUse">
      <stop offset="0" stop-color="#009fdf"/>
      <stop offset=".1" stop-color="#0196d6"/>
      <stop offset=".3" stop-color="#0680bf"/>
      <stop offset=".6" stop-color="#0e5c9a"/>
      <stop offset=".9" stop-color="#1a2c68"/>
    </linearGradient>
    <clipPath id="clippath-5">
      <path class="cls-12" d="M435.1,445.4c16.3,2,52.5,5.6,52.5,35.4l72.9-91.4-95.2-11.7s-76.3-4.3-59-51.2l-66.4,107.2,95.2,11.7h0Z"/>
    </clipPath>
    <linearGradient id="Degradado_sin_nombre_20" data-name="Degradado sin nombre 20" x1="453.6" y1="467.9" x2="446.2" y2="725.1" gradientTransform="translate(0 992) scale(1 -1)" gradientUnits="userSpaceOnUse">
      <stop offset="0" stop-color="#009fdf"/>
      <stop offset=".1" stop-color="#0196d6"/>
      <stop offset=".3" stop-color="#0680bf"/>
      <stop offset=".6" stop-color="#0e5c9a"/>
      <stop offset=".9" stop-color="#1a2c68"/>
    </linearGradient>
    <linearGradient id="Degradado_sin_nombre_7" data-name="Degradado sin nombre 7" x1="458.5" y1="707.5" x2="193.9" y2="266" gradientTransform="translate(220.9 736) scale(1 -1)" gradientUnits="userSpaceOnUse">
      <stop offset="0" stop-color="#fff"/>
      <stop offset="1" stop-color="#000"/>
    </linearGradient>
    <mask id="mask-6" x="369.9" y="326.5" width="190.5" height="118.5" maskUnits="userSpaceOnUse">
      <g id="D">
        <path class="cls-21" d="M369.9,326.5h190.5v118.5h-190.5v-118.5Z"/>
      </g>
    </mask>
    <linearGradient id="Degradado_sin_nombre_8" data-name="Degradado sin nombre 8" x1="25.5" y1="429.3" x2="343.5" y2="337" gradientTransform="translate(229.4 721.8) scale(1 -1)" gradientUnits="userSpaceOnUse">
      <stop offset="0" stop-color="#fff"/>
      <stop offset="1" stop-color="#000"/>
    </linearGradient>
    <mask id="mask-7" x="403" y="326.5" width="157.5" height="63.6" maskUnits="userSpaceOnUse">
      <g id="F">
        <path class="cls-19" d="M403,326.5h157.5v63.6h-157.5v-63.6Z"/>
      </g>
    </mask>
    <linearGradient id="Degradado_sin_nombre_9" data-name="Degradado sin nombre 9" x1="537.7" y1="222.8" x2="129.7" y2="302.2" gradientTransform="translate(213.1 745.2) scale(1 -1)" gradientUnits="userSpaceOnUse">
      <stop offset="0" stop-color="#fff"/>
      <stop offset="1" stop-color="#000"/>
    </linearGradient>
    <mask id="mask-8" x="339.8" y="432.8" width="147.8" height="48" maskUnits="userSpaceOnUse">
      <g id="H">
        <path class="cls-20" d="M339.8,432.8h147.8v48h-147.8v-48Z"/>
      </g>
    </mask>
    <linearGradient id="Degradado_sin_nombre_10" data-name="Degradado sin nombre 10" x1="-4.3" y1="-206.4" x2="461.8" y2="792.8" gradientTransform="translate(216.6 788.6) scale(1 -1)" gradientUnits="userSpaceOnUse">
      <stop offset="0" stop-color="#fff"/>
      <stop offset="1" stop-color="#000"/>
    </linearGradient>
    <mask id="mask-9" x="353.5" y="79.1" width="306.3" height="569.8" maskUnits="userSpaceOnUse">
      <g id="J">
        <path class="cls-7" d="M353.5,79.1h306.2v569.8h-306.2V79.1Z"/>
      </g>
    </mask>
  </defs>
  <path class="cls-11" d="M441.6,360.7l6.7,26.5,58.6,22.6-153.4,239.1c36.3,14.6,75.9,22.7,117.5,22.7,124.1,0,231.5-71.9,282.6-176.4,20.4-41.7,31.9-88.6,31.9-138.2,0-100.1-46.8-189.3-119.7-246.9-14.8-11.7-30.8-22.1-47.6-31.1-10.2,14.7,4.7,30.7,4.7,50.9s-20.5,37.2-32.8,53.2l-148.6,177.4h0Z"/>
  <g class="cls-30">
    <path class="cls-6" d="M353.5,79.1h432v592.5h-432V79.1Z"/>
  </g>
  <g class="cls-31">
    <path class="cls-26" d="M425.3,558.8l-71.8,90c36.3,14.6,76,22.7,117.5,22.7,124.1,0,231.5-71.9,282.6-176.4,20.4-41.7,31.9-88.6,31.9-138.2,0-100.1-46.8-189.3-119.7-246.9-14.8-11.7-30.8-22.1-47.6-31.1,9.4,14.8,14.8,32.3,14.8,51s-7.3,41.8-19.6,57.9l-8.8,11.2c44.8,37.9,73.2,94.6,73.2,157.9,0,114.3-92.6,206.9-206.9,206.9s-31-1.8-45.7-5.1"/>
  </g>
  <path class="cls-10" d="M418.8,46.8l-10.9-28.7c-5.5-14.5-21.8-21.8-36.2-16.3l-61.9,23.5c-14.5,5.5-21.8,21.8-16.3,36.2l10.9,28.7c-11.8,7.4-23,15.5-33.6,24.3l-23.8-19.4c-12-9.8-29.8-8-39.5,4l-41.9,51.3c-9.8,12-8,29.8,4,39.5l23.8,19.4c-6.5,12.2-12.2,24.8-17.1,37.9l-30.3-4.9c-15.3-2.5-29.8,7.9-32.2,23.2l-10.6,65.3c-2.5,15.3,7.9,29.8,23.2,32.2l30.3,4.9c.5,14,1.9,27.8,4.1,41.3l-28.7,10.9c-14.5,5.5-21.8,21.8-16.3,36.2l23.5,61.9c5.5,14.5,21.8,21.8,36.2,16.3l28.7-10.9c7.4,11.8,15.5,23,24.3,33.7l-19.4,23.8c-9.8,12-8,29.8,4,39.5l51.3,41.9c12,9.8,29.8,8,39.5-4l19.4-23.8c2.5,1.3,4.9,2.6,7.4,3.8l46.8-97c-67.2-34.1-113.3-104-113.3-184.5,0-114.2,92.6-206.9,206.9-206.9s17.1.5,25.5,1.6c1.1-5.5,1.6-11.1,1.6-16.7,0-26-11.7-50.3-31.9-66.5-14.6-11.7-29.9-17-47.4-21.7"/>
  <g class="cls-32">
    <path class="cls-3" d="M100.6-3.7h397.5v676H100.6V-3.7Z"/>
  </g>
  <g class="cls-41">
    <path class="cls-25" d="M354.1,590.1l23.4-48.5c-67.2-34.1-113.3-104-113.3-184.5,0-114.2,92.6-206.9,206.9-206.9s17.1.5,25.5,1.6c1.1-5.5,1.6-11.1,1.6-16.7,0-13.4-3.1-26.4-9-38.1-6-.4-12.1-.6-18.1-.6-144,0-260.7,116.7-260.7,260.7s55.7,188.8,143.8,233.1h0,0Z"/>
  </g>
  <path class="cls-9" d="M489.6,97.8c-6.1-.4-12.3-.7-18.5-.7-143.5,0-259.9,116.4-259.9,259.9s58.3,189.6,143.3,232.3l23.1-47.8c-67.2-34.1-113.3-104-113.3-184.5,0-114.2,92.6-206.9,206.9-206.9s17.1.5,25.5,1.6c1.1-5.5,1.6-11.1,1.6-16.7,0-13.1-3-25.8-8.5-37.2"/>
  <g class="cls-35">
    <path class="cls-4" d="M211.1,97.2h287v492.2H211.1V97.2Z"/>
  </g>
  <g class="cls-34">
    <path class="cls-2" d="M381.8,40.6h251.4v350.5h-251.4V40.6Z"/>
  </g>
  <g class="cls-38">
    <path class="cls-23" d="M548,53.5c-2.9-.8-5.8-1.6-8.8-2.3-32.5-8.1-66.4-10.6-99.8-7.3,37.7,12.1,64.6,48.5,64.6,91.1s-12,47.4-26.4,71.4l-71.5,120.1c-8.2,23,5.4,35.8,21.3,42.8.1-.2,77.1-118.1,114.6-181.3,37.6-63.2,6-134.5,6-134.5"/>
  </g>
  <g class="cls-37">
    <path class="cls-23" d="M604.8,199.2l7.5-9.6c.3-.8,17.8-19.6,20.5-51.3.2-2.7.3-5.4.3-8.2,0-18.8-5.4-36.3-14.8-51-23-12.2-47.7-21.6-73.6-27.9-33.9-8.1-69.1-10.6-103.9-7.3,39.2,12.1,67.2,48.5,67.2,91.1s-.6,12.6-1.6,18.1c37.1,6.4,70.7,22.7,98.3,46"/>
  </g>
  <g class="cls-33">
    <path class="cls-5" d="M311.3,437.5h181.5v264.4h-181.5v-264.4Z"/>
  </g>
  <g class="cls-40">
    <path class="cls-23" d="M487.5,480.8c0-14.2-8.2-22.4-18.5-27.4l-157.8,248.5,42.3-53,134-168.1h0Z"/>
  </g>
  <g class="cls-39">
    <path class="cls-23" d="M386.6,545.9l-75.3,156,42.3-53,71.8-90c-13.5-3-26.5-7.4-38.8-12.9"/>
  </g>
  <path class="cls-8" d="M435.1,445.4c16.3,2,52.5,5.6,52.5,35.4l72.9-91.4-95.2-11.7s-76.3-4.3-59-51.2l-66.4,107.2,95.2,11.7h0Z"/>
  <g class="cls-36">
    <path class="cls-1" d="M339.8,326.5h220.6v154.3h-220.6v-154.3Z"/>
  </g>
  <g class="cls-43">
    <path class="cls-13" d="M516.1,445.1l44.4-55.7-95.2-11.7s-76.3-4.3-59-51.2l-36.3,58.6c27.3,54.7,122,0,146.1,59.9"/>
  </g>
  <g class="cls-42">
    <path class="cls-29" d="M559.8,390.1l.6-.8-95.2-11.7s-76.3-4.3-59-51.2c-9.9,22.5,4.3,36.3,21.8,43.7,10.7,4.5,25.4,7.7,37.1,8.4l94.7,11.5h0Z"/>
  </g>
  <g class="cls-44">
    <path class="cls-29" d="M435.1,445.4c16.3,2,52.5,5.6,52.5,35.4,1.8-28.4-31.1-33.7-52.4-36.3l-94.8-11.7-.6.9,95.2,11.7Z"/>
  </g>
  <g class="cls-45">
    <path class="cls-14" d="M465.2,377.7l95.2,11.7-44.4,55.7-162.5,203.8,240.4-274.1-91.3-13.8,138.1-164.4s30.4-43.3,14.4-94.6c-11.7-8.4-24-16.1-36.8-22.9,9.4,14.8,14.8,32.3,14.8,51s-7.3,41.8-19.6,57.9l-148.3,189.8Z"/>
  </g>
  <path class="cls-27" d="M380.5,652.6l-14.5-18,55.1-62.9,19.8,23.2c27.4,30.8,55.9,47.9,96.4,47.9s56.5-18.8,56.5-48.5v-1.1c0-32.5-29.1-50.8-78.2-50.8h-36.5l-9.6-39.2,91.2-112.6-192-3.8,37.4-60.4,6.5-11.1h261v66.2l-101,96.4c54.2,9.1,107.2,37.7,107.2,111.8v1.1c0,75.3-54.8,130.6-143.8,130.6s-121.5-28.5-155.8-69h0Z"/>
  <path class="cls-28" d="M325.3,408.7H0v-108.8h393.4l-68,108.8Z"/>
  <g>
    <path class="cls-27" d="M64.7,342.8c0,3.4-.5,6.3-1.5,8.8-1,2.5-2.4,4.5-4.1,6.1s-3.7,2.8-5.9,3.6c-2.2.8-4.4,1.2-6.6,1.2h-5.9v22.2h-13.5v-61h19c2.2,0,4.4.3,6.6,1s4.2,1.7,6,3.1c1.8,1.5,3.3,3.4,4.4,5.9,1.1,2.5,1.7,5.5,1.7,9.1h0ZM51.7,343.1c0-2.8-.7-4.7-2-6s-2.9-1.8-4.8-1.8h-4.4v15.9h4.4c1.9,0,3.5-.7,4.8-2.1,1.3-1.4,2-3.4,2-6.1Z"/>
    <path class="cls-27" d="M72,384.7v-61h14v48.2h16.3v12.8h-30.2Z"/>
    <path class="cls-27" d="M135.5,384.7l-2.5-11.1h-13.7l-2.5,11.1h-13.8l14.8-61h17.3l14.7,61h-14.4ZM126.3,336.9h-.3l-5.2,25.9h10.4l-4.9-25.9h0Z"/>
    <path class="cls-27" d="M181.6,384.7l-14.1-37.1h-.3l.4,37.1h-12.3v-61h15.2l14.1,37.6h.3l-.3-37.6h11.9v61h-14.7Z"/>
    <path class="cls-27" d="M207.2,384.7v-61h13.9v61h-13.9Z"/>
    <path class="cls-27" d="M231.9,384.7v-61h14v48.2h16.3v12.8h-30.2Z"/>
    <path class="cls-27" d="M268.3,384.7v-61h14v48.2h16.3v12.8h-30.2Z"/>
    <path class="cls-27" d="M331.8,384.7l-2.5-11.1h-13.7l-2.5,11.1h-13.8l14.8-61h17.3l14.7,61h-14.4ZM322.7,336.9h-.4l-5.2,25.9h10.4l-4.9-25.9h0Z"/>
    <path class="cls-27" d="M720.8,604.2c.9.9,1.6,1.9,2,3s.7,2.1.6,3.1c0,1-.2,2-.6,2.9s-1,1.8-1.8,2.5c-1.1,1-2.3,1.8-3.7,2.3-1.4.5-2.7.6-4,.5l-.3-3.4c1,.2,2,0,3-.2s1.8-.8,2.5-1.5c.9-.9,1.3-1.9,1.3-3,0-1.1-.5-2.3-1.6-3.4-.5-.5-1-.9-1.6-1.2s-1.2-.4-1.8-.4-1.3,0-1.9.2c-.7.1-1.3.3-2,.5-.8.3-1.7.5-2.5.6-.8.1-1.7.2-2.5.1-.8,0-1.7-.3-2.5-.7-.8-.4-1.7-1-2.5-1.9-1-1-1.7-2-2.1-3.1s-.6-2.1-.5-3.1c0-1,.3-1.9.7-2.8s1-1.7,1.7-2.3c1-1,2.1-1.7,3.2-2.1,1.1-.4,2.3-.6,3.4-.4l.2,3.4c-1.7-.3-3.2.2-4.4,1.4-.4.4-.7.8-.9,1.3-.2.5-.4,1-.4,1.6s0,1.2.3,1.8c.2.6.7,1.2,1.2,1.8.5.5,1,.9,1.6,1.1.5.2,1.1.3,1.7.4.6,0,1.2,0,1.8-.1.6-.1,1.2-.3,1.9-.5.8-.3,1.7-.5,2.5-.6.9-.2,1.7-.2,2.6-.2.9,0,1.8.3,2.7.7s1.7,1,2.5,1.8h0Z"/>
    <path class="cls-27" d="M724.8,597.6c.7.7,1.5,1.2,2.2,1.7s1.5.8,2.2,1c.7.2,1.3.2,2,0,.6-.1,1.2-.5,1.6-1,.6-.7.9-1.4.9-2.2,0-.8-.2-1.6-.6-2.4l2.9-.9c.6,1.3.8,2.6.8,3.9,0,1.3-.7,2.6-1.8,3.7-1.6,1.7-3.6,2.4-5.9,2.1-2.3-.3-4.7-1.7-7.3-4-1.2-1.1-2.2-2.3-2.9-3.5-.8-1.2-1.3-2.3-1.5-3.5-.3-1.1-.3-2.2,0-3.3.2-1,.7-2,1.5-2.8.9-.9,1.8-1.5,2.8-1.8,1-.3,2-.3,3.1,0s2.1.7,3.2,1.3c1.1.7,2.1,1.5,3.2,2.5l1.2,1.2-7.4,8h0ZM727.8,590.3c-1.3-1.2-2.6-2-3.8-2.3s-2.2,0-3,.8c-.5.5-.7,1.1-.8,1.7,0,.6,0,1.3.3,1.9.2.6.6,1.2,1,1.8.4.6.8,1,1.2,1.4l5-5.3h0Z"/>
    <path class="cls-27" d="M747.3,587.5c-.8.9-1.7,1.6-2.7,2-1,.4-2.1.5-3.2.3-1.1-.2-2.3-.5-3.5-1.2-1.2-.6-2.5-1.5-3.7-2.5s-2.3-2.2-3.1-3.2c-.8-1.1-1.4-2.2-1.7-3.3-.3-1.1-.4-2.2-.2-3.2s.7-2,1.5-3c.7-.8,1.5-1.4,2.2-1.8.8-.3,1.5-.5,2.1-.6l.9,3c-.5,0-1,0-1.5.2-.5.2-.9.5-1.3,1-.4.5-.6,1.1-.7,1.7s.1,1.3.5,2c.3.7.8,1.4,1.4,2.2.6.8,1.4,1.5,2.3,2.2.9.7,1.7,1.4,2.5,1.9s1.6.8,2.3,1c.7.2,1.4.2,2,0,.6-.2,1.2-.5,1.7-1.1.4-.5.7-1,.8-1.5s.1-1,0-1.5l3.1.6c.2,1.7-.3,3.3-1.6,4.8h0Z"/>
    <path class="cls-27" d="M756.6,575.9c-.8,1-1.6,1.7-2.6,2.1-1,.4-2.1.5-3.2.4-1.2-.1-2.3-.5-3.6-1-1.2-.6-2.5-1.4-3.8-2.4-1.3-1-2.4-2-3.2-3.1s-1.5-2.2-1.9-3.2c-.4-1.1-.5-2.2-.3-3.2.2-1.1.6-2.1,1.3-3,.7-.9,1.4-1.5,2.1-1.8.8-.4,1.4-.6,2-.7l1,3c-.5,0-1,.1-1.5.3-.5.2-.9.5-1.3,1-.4.5-.6,1.1-.6,1.7,0,.6.2,1.3.6,2,.4.7.9,1.4,1.5,2.1.7.7,1.4,1.4,2.3,2.1.9.7,1.8,1.3,2.6,1.8.8.5,1.6.8,2.4.9.8.2,1.4.2,2,0s1.2-.5,1.6-1.1c.4-.5.6-1,.7-1.5,0-.5,0-1,0-1.5l3.1.4c.3,1.7-.2,3.3-1.3,4.8h0Z"/>
    <path class="cls-27" d="M741.8,549.9c.6.4.9.9,1,1.5s0,1.1-.4,1.6c-.4.5-.8.8-1.5.9s-1.2,0-1.7-.5c-.5-.4-.9-.9-1-1.5-.1-.6,0-1.2.4-1.7s.9-.8,1.5-.9c.6,0,1.2,0,1.7.5h0ZM761.1,568.8l-16.7-12.1,2-2.8,16.7,12.1-2,2.8h0Z"/>
    <path class="cls-27" d="M751.2,541.9l-1.5,2.3-2.9-6.3,1.9-2.9,2.5,6.9ZM766.1,543.3c1.4.9,2.5,1.9,3.4,2.9.9,1,1.6,2.1,2.1,3.1.4,1.1.6,2.1.6,3.2s-.4,2.1-1.1,3.1c-.6,1-1.4,1.7-2.4,2.2-1,.5-2,.7-3.2.7s-2.4-.2-3.7-.7c-1.3-.5-2.6-1.1-4-2-1.4-.9-2.5-1.9-3.5-2.9-1-1-1.7-2.1-2.1-3.2-.5-1-.6-2.1-.6-3.2,0-1.1.4-2.1,1.1-3.1.7-1,1.5-1.7,2.4-2.2s2-.7,3.2-.7,2.4.2,3.7.7c1.3.5,2.7,1.2,4,2.1h0ZM764.1,546.3c-.9-.6-1.8-1.1-2.7-1.5-.9-.4-1.7-.7-2.5-.8-.8-.1-1.5,0-2.1,0-.6.2-1.1.5-1.5,1.1-.4.5-.5,1.1-.4,1.8,0,.6.3,1.3.7,1.9.4.7,1,1.3,1.7,2,.7.7,1.5,1.3,2.5,1.9s1.8,1.1,2.7,1.5c.9.4,1.7.7,2.5.8.8.1,1.5.1,2.1,0,.6-.2,1.1-.5,1.5-1.1.4-.6.5-1.2.5-1.8,0-.6-.3-1.3-.7-1.9-.4-.7-1-1.3-1.7-2-.7-.7-1.5-1.3-2.5-1.9h0Z"/>
    <path class="cls-27" d="M783,535l-11.4-6.6c-.5-.3-1-.6-1.6-.8-.5-.3-1.1-.4-1.6-.5-.5,0-1,0-1.5.2s-.8.5-1.2,1.1c-.3.5-.4,1-.4,1.6,0,.6.2,1.2.5,1.8.3.6.7,1.2,1.3,1.7.6.6,1.3,1.1,2.1,1.5l10.2,6-1.8,3-13.3-7.8c-.7-.4-1.5-.8-2.3-1.3s-1.6-.9-2.3-1.2l1.7-2.9c.6.3,1.2.6,1.9.9.6.3,1.1.5,1.3.7h0c-.8-1-1.4-2.1-1.7-3.2-.3-1.2,0-2.3.6-3.4.6-.9,1.2-1.6,2-2s1.5-.5,2.4-.5c.8,0,1.7.3,2.7.7.9.4,1.8.8,2.7,1.3l11.3,6.6-1.8,3h0Z"/>
    <path class="cls-27" d="M794.8,512.6l-22.4-10.8,1.3,6.4-3.3.3-1.7-8.7,1.5-3.1,26.2,12.6-1.6,3.3h0Z"/>
    <path class="cls-27" d="M799,486.4l6.2,2.5-1.3,3.1-6.2-2.5-4,9.7-3.1-1.3-14.2-15.6,1.8-4.4,17.8,7.3,1.3-3.2,2.8,1.2-1.3,3.2h0ZM780.4,482.2h0c0,0,11.8,12.6,11.8,12.6l2.7-6.6-14.5-6Z"/>
    <path class="cls-27" d="M805.7,463.8c1.2.4,2.2,1,3.1,1.7.9.7,1.5,1.5,2,2.4.5.9.8,1.9.8,3s-.1,2.2-.5,3.4c-.4,1.2-1,2.1-1.7,3s-1.5,1.4-2.5,1.8c-.9.4-2,.6-3.1.6-1.1,0-2.2-.2-3.4-.6-1.9-.6-3.3-1.6-4.2-2.8-.9-1.2-1.4-2.6-1.4-4h0c-1,1-2.1,1.7-3.4,2-1.3.3-2.7.1-4.2-.4-1-.3-1.8-.8-2.6-1.4-.8-.6-1.4-1.3-1.8-2.1-.5-.8-.7-1.7-.8-2.7,0-1,0-2.1.5-3.2.4-1.2.9-2.1,1.6-2.9.7-.7,1.4-1.3,2.3-1.7s1.8-.6,2.7-.6,1.9.2,2.9.5c1.5.5,2.6,1.3,3.5,2.2.9,1,1.3,2.2,1.4,3.6h0c1-1.2,2.2-1.9,3.6-2.3,1.5-.4,3.1-.3,5,.4h0ZM791.2,463.4c-1.4-.5-2.6-.5-3.7-.2-1.1.3-1.8,1-2.2,2.2-.4,1.2-.3,2.2.4,3.1.7.9,1.7,1.6,3.1,2.1.6.2,1.2.3,1.9.4.6,0,1.2,0,1.8-.2.5-.1,1-.4,1.4-.8s.7-.8.9-1.3c.2-.5.2-1.1.1-1.6,0-.5-.3-1-.7-1.5s-.8-.9-1.3-1.2c-.5-.4-1.1-.7-1.7-.9h0ZM804.3,467.3c-1.6-.6-3.1-.6-4.3-.2s-2.1,1.2-2.5,2.5c-.4,1.2-.2,2.4.5,3.5.8,1.1,1.9,1.9,3.6,2.5.8.3,1.5.4,2.2.5.7,0,1.4,0,2-.2.6-.2,1.2-.5,1.6-.9.5-.4.8-.9,1-1.6.2-.6.3-1.3.2-1.9,0-.6-.3-1.2-.7-1.7s-.8-1-1.4-1.4c-.6-.4-1.3-.7-2-1h0Z"/>
    <path class="cls-27" d="M819.7,443.1l-3.1-.8h0c1,.7,1.8,1.4,2.3,2.3s.7,2,.3,3.4c-.3,1-.8,1.8-1.5,2.5-.7.7-1.7,1.1-2.8,1.4-1.1.3-2.3.4-3.7.4-1.4,0-2.9-.3-4.4-.7-1.5-.4-2.9-.9-4.1-1.5-1.2-.6-2.2-1.3-3-2.1-.8-.8-1.3-1.6-1.7-2.6-.3-.9-.3-1.9,0-2.9.3-1.2.9-2.1,1.8-2.7s1.8-1,3-1h0c0,0-13-3.4-13-3.4l.9-3.4,30.1,7.7-.8,3.3h0ZM809.8,440.5c-1.1-.3-2.1-.5-3.1-.5-1,0-1.9,0-2.6.1-.8.2-1.4.4-1.9.8-.5.4-.8.9-1,1.5-.2.7-.1,1.3.2,1.8.3.6.7,1.1,1.3,1.6.6.5,1.4.9,2.3,1.3.9.4,1.9.7,3,1,1.1.3,2.1.5,3.1.5,1,0,1.8,0,2.6,0,.8-.1,1.4-.4,1.9-.7.5-.4.9-.9,1-1.5.2-.6,0-1.2-.2-1.8-.3-.6-.7-1.1-1.3-1.6-.6-.5-1.3-.9-2.2-1.3s-1.9-.7-3-1h0Z"/>
    <path class="cls-27" d="M813.3,429c1,.2,1.9.3,2.8.3.9,0,1.7-.1,2.3-.3.7-.2,1.2-.5,1.7-1,.5-.4.8-1,.9-1.7.2-.9,0-1.7-.4-2.3s-1-1.2-1.8-1.7l2-2.3c1.2.8,2.1,1.8,2.7,2.9.6,1.2.8,2.5.5,4.1-.5,2.3-1.8,3.9-3.9,4.9s-4.9,1.1-8.3.4c-1.6-.3-3-.8-4.3-1.4s-2.3-1.3-3.1-2.2c-.8-.8-1.4-1.8-1.8-2.8-.3-1-.4-2.1-.2-3.2.2-1.2.7-2.2,1.4-3s1.5-1.3,2.5-1.7c1-.4,2.1-.6,3.4-.6s2.6.1,4,.4l1.6.3-2.1,10.7h0ZM812,421.2c-1.8-.4-3.2-.4-4.4,0-1.2.3-1.9,1.1-2.1,2.3-.2.7,0,1.3.3,1.9s.8,1,1.3,1.5c.5.4,1.1.8,1.8,1,.7.3,1.2.5,1.8.6l1.4-7.2Z"/>
    <path class="cls-27" d="M825.5,414.7l-30.7-4.7.5-3.5,30.7,4.8-.5,3.5h0Z"/>
    <path class="cls-27" d="M807,382.4c-.6.5-1.1,1-1.5,1.6-.4.6-.6,1.3-.7,2,0,.7.1,1.4.5,2,.4.6,1.2,1,2.2,1.1.9,0,1.6-.2,2.2-.7.5-.6,1.2-1.4,1.9-2.5.4-.6.8-1.3,1.3-2,.5-.7,1.1-1.3,1.8-1.9.7-.5,1.5-1,2.5-1.3,1-.3,2-.4,3.3-.3,1.5.1,2.9.5,4,1.1,1.2.6,2.1,1.4,2.8,2.2.7.9,1.2,1.9,1.5,3,.3,1.1.4,2.3.3,3.5-.2,1.7-.6,3.3-1.4,4.7-.8,1.4-1.6,2.5-2.6,3.3l-4.6-3.8c.7-.6,1.3-1.2,1.8-2,.5-.8.7-1.6.8-2.4,0-.8-.1-1.5-.6-2.1-.5-.6-1.2-.9-2.1-1-1,0-1.7.2-2.4.8-.6.6-1.3,1.5-2,2.7-.5.8-.9,1.5-1.5,2.1-.5.6-1.1,1.2-1.8,1.7-.7.5-1.5.8-2.4,1s-1.9.3-3.1.2c-1.6-.1-3-.5-4.1-1.2-1.1-.6-2-1.4-2.7-2.3-.7-.9-1.1-1.9-1.4-3-.3-1.1-.3-2.1-.3-3.2.1-1.6.5-3,1.1-4.2.6-1.2,1.4-2.2,2.4-3l4.5,3.8h0Z"/>
    <path class="cls-27" d="M823.8,357.6c1.4.4,2.6,1,3.6,1.8,1,.8,1.8,1.9,2.4,3.1.6,1.3.8,2.8.8,4.6,0,1.8-.4,3.3-1,4.5-.6,1.2-1.5,2.2-2.5,3-1.1.8-2.3,1.3-3.7,1.6s-2.9.5-4.5.4l-18.3-.4.2-6.6,17.7.4c.8,0,1.6,0,2.3,0,.7,0,1.3-.2,1.8-.5.5-.2.9-.5,1.2-1,.3-.4.5-.9.5-1.6s-.1-1.2-.4-1.6c-.3-.4-.7-.8-1.2-1-.5-.3-1.1-.5-1.8-.6-.7-.1-1.5-.2-2.3-.2l-17.7-.4.2-6.6,18.3.4c1.6,0,3.1.2,4.5.7h0Z"/>
    <path class="cls-27" d="M806.1,343.3l23.5-.9.2,6.4-23.5.9.2,5.3-5.6.2-.6-17.1,5.6-.2.2,5.3h0Z"/>
    <path class="cls-27" d="M829.1,333.8l-28.9,2.6-1.2-14,5.8-.5.7,7.7,5.7-.5-.6-7.1,5.4-.5.6,7.1,6.2-.5-.7-8.2,5.9-.5,1.3,14.5h0Z"/>
    <path class="cls-27" d="M825.5,302.4l-10.9,5.4.3,1.9,11.5-1.6.9,6.3-28.8,4-1.3-9.2c-.4-2.8,0-5,1.3-6.8,1.2-1.7,3.3-2.8,6.2-3.2,1.1-.1,2-.2,2.9,0,.9.1,1.6.4,2.3.7.7.3,1.2.7,1.7,1.1.4.4.8.9,1,1.3l12.2-6.7.9,6.9h0ZM805.8,305.5c-.7.1-1.3.3-1.7.5-.4.3-.8.6-1,.9-.2.4-.4.8-.4,1.2,0,.4,0,.8,0,1.2l.3,2,7.3-1-.3-1.9c-.1-.9-.5-1.7-1.2-2.3-.7-.6-1.7-.8-3-.6h0Z"/>
    <path class="cls-27" d="M819.2,271.7l-19.5,4.2v.2s20.6.3,20.6.3l1,4.5-18.4,9h0c0,.1,19.4-4.5,19.4-4.5l1.3,5.8-28.3,6.5-1.8-8.1,17.2-8.7v-.2s-19.3-.3-19.3-.3l-2-8.5,28.3-6.5,1.4,6.3h0Z"/>
  </g>
</svg>