<svg viewBox="0 0 775.05 897.58" xmlns="http://www.w3.org/2000/svg"><g fill="#ab936a"><g fill-rule="evenodd"><path d="m610.75 364.73c26.55-3.9 49.15-15.21 59.8-47.24 5.27-10.23 26.12-.54 21.77 16.04-11.5 35.43-35.24 55.8-79.51 58.92-17.27-2.14-13.21-28.11-2.06-27.73z"/><path d="m640.8 351.37c9.81-6.16 17.55-13.92 22.17-24.05.39-.86.65-1.95.47-1.8-10.21 8.81-36.86-10.61-22-32.36 21.07-30.84 66.32-8.05 70.35 18.84 5.17 24.08-2.41 42.22-15.58 57.74-27.34 26.12-51.59 36.21-78.71 77.45-3.49 14.38-3.46 20.61 1.03 36.43 15.54 38.34 73.48 38.31 79.97-6.64 1.06-19.29-9.29-29.31-22.91-36.66l-16.04 15.47c16.28 11.54 6.14 38.13-9.17 24.4-6.62-7.65-9.08-15.03-6.42-24.29 9.32-22.19 62.86-47.59 85.7-84.78 12.41-20.7 15.4-42.85 11.92-65.99-28.54-95.17-177.09-52.3-124.65 29.33 8.92 9.57 11.59 11.01 23.87 16.91z"/><path d="m257.41 469.34-2.54-228.2 117.83-29.54.25 140.99c-3.66 20.07-29.03 12.84-29.65-1.98l1.08-96.99-57.89 13.4-1.03 208.73 59.02 24.35-.47-79.98c2.47-11.77 28.27-9.68 28.24-.47l-.83 102.96c-.18 22.18 1.2 23.82-22.28 13.02l-76.04-34.97c-12.1-3.77-15.73-18.97-15.69-31.31z"/><path d="m397.72 210.41v334.54l34.83-21.08-1.84-305.21z"/><path d="m486.83 237.5 31.27 9.57.92 197.97c-1.85 22.01-10.68 36.34-24.75 44.91l-19.25-21.08c7.99-7.57 13.09-17.79 13.75-32.08l-1.83-170.48-.1-28.82z"/><path d="m425.76 346.06 80.66 20.17-1.83 15.12-79.74-.46z"/><path d="m164.3 365.83c-26.55-3.9-49.15-15.21-59.8-47.24-5.27-10.23-26.12-.54-21.77 16.04 11.5 35.43 35.24 55.8 79.51 58.92 17.27-2.14 13.21-28.11 2.06-27.73z"/><path d="m134.25 352.47c-9.81-6.16-17.55-13.92-22.17-24.05-.39-.86-.65-1.95-.47-1.8 10.21 8.81 36.86-10.61 22-32.36-21.07-30.84-66.32-8.05-70.35 18.84-5.17 24.08 2.41 42.22 15.58 57.74 27.34 26.12 51.6 36.21 78.71 77.45 3.49 14.38 3.46 20.61-1.03 36.43-15.54 38.34-73.48 38.31-79.97-6.64-1.06-19.29 9.29-29.31 22.91-36.66l16.04 15.47c-16.28 11.54-6.14 38.13 9.17 24.4 6.62-7.65 9.08-15.03 6.42-24.29-9.32-22.19-62.86-47.59-85.7-84.78-12.41-20.7-15.4-42.85-11.92-65.99 28.54-95.17 177.09-52.3 124.65 29.33-8.92 9.57-11.59 11.01-23.87 16.91z"/><path d="m382.63 149.7-170.31 52.47-.39-27.95-21.4 6.34-.41 266.14c-1.98 39.9 10.84 69.02 35.74 89.36l142.98 83.41c11.95 7.28 24.67 7.31 38.15.23l138.74-83.64c24.37-19.08 37.03-47.37 35.75-86.61v-268.49l-28.44-4.65.06 28.5-170.48-55.11zm-165.7 80.69 165.9-49.49 171.28 50.11-1.72 222.11c-.86 30.35-14.11 52.14-37.58 67.83l-130.44 73.47-133.07-73.7c-19.93-16.12-31.86-34.98-33.46-58.43l-.92-231.89z"/><path d="m572.45 63.25c-1.18-8.82 2.21-13.06 8.82-12.6 4.55 1.48 9.32 3.07 14.26 4.75 12.37 3.9 21.25-12.77 15.98-19.42-6.92-8.57-16.87-11.52-29.79-12.14-16.34-.05-34.11 12.35-37.12 38.38-1 32.19 32.01 62.56 72.87 61.64l1.12-32.74c-23.65-.75-39.49-9.32-46.14-27.87z"/><path d="m615.56 232.13 3.32-148.37c23.67-68.42 73.89-86.64 141.61-83.41 9.7.34 12.93 6.28 13.4 19.12-4.66 77.19-59.62 92.63-121.1 104.61l1.38-29.33c45.29-1.89 74.77-23.93 88.9-65.53-39.56-2.63-73.94 10.87-97.61 57.74l-2.75 144.82c-.46 10.08-26.35 10.66-27.15.34z"/><path d="m646.49 215.06v-51.1c21.49-20.3 36.63-24.38 68.28-24.29 32.1 1.92 47.33 15.04 57.51 34.37 16.37 54.68-43.65 73.86-85.41 45.24l11.86-24.61c16.1 12.42 54.13 17.94 42.39-14.21-6.53-11.5-18.75-13.7-34.37-11.92-27.26 4.15-47.67 19.14-60.26 46.52z"/><path d="m204.79 64.35c1.18-8.82-2.21-13.06-8.82-12.6-4.55 1.48-9.32 3.07-14.26 4.75-12.37 3.89-21.25-12.77-15.98-19.42 6.92-8.57 16.87-11.52 29.79-12.14 16.34-.05 34.11 12.35 37.12 38.38 1 32.19-32.01 62.56-72.87 61.64l-1.12-32.74c23.65-.75 39.49-9.32 46.14-27.87z"/><path d="m159.49 233.23-3.32-148.37c-23.68-68.42-73.89-86.64-141.61-83.41-9.7.35-12.93 6.28-13.4 19.13 4.66 77.19 59.62 92.63 121.1 104.61l-1.38-29.33c-45.29-1.89-74.77-23.93-88.9-65.53 39.56-2.63 73.94 10.87 97.61 57.74l2.75 144.82c.46 10.08 26.35 10.66 27.15.34z"/><path d="m128.56 216.16v-51.1c-21.5-20.3-36.63-24.38-68.28-24.29-32.1 1.92-47.33 15.04-57.51 34.37-16.37 54.68 43.65 73.86 85.41 45.24l-11.86-24.61c-16.1 12.42-54.13 17.94-42.39-14.21 6.53-11.5 18.75-13.7 34.37-11.92 27.26 4.15 47.67 19.14 60.26 46.51z"/><path d="m365 99.74c2.18.68 4.69 1.69 5.69 3.38-.92.8-1.92.85-2.87 1.59.08 1.53.9 1.81 1.24 4.19-1.26.88-3.17 1.54-4.57 2.28-1.44.76-2.86 1.4-4.31 2.18-1.29.69-3.04 1.56-4.34 2.13l-4.37 2.06c-2.77 1.57-5.69 2.8-8.66 4.29-5.67 2.83-16.15 8.19-21.7 10.61l-4.33 2.16c-2.28 1.18-16.41 7.77-17.21 8.69-1.79.11-15.42 7.83-17.28 7.98-.58-.94-.65-1.67-1.42-2.53l-55.85 28.12 29.45-10.53c5.47-1.76 12.71-4.74 18.52-6.75l7.38-2.67c1.12-.33 2.36-1.04 3.6-1.23-.02-.98-.07-.93-.38-1.74-.35-.92-.4-.42-.35-1.45l12.85-4.88c1.33-.53 3.1-.87 4.2-1.78.81.1 16.28-5.97 18.39-6.71 3.2-1.13 6.04-2.4 9.24-3.45 1.58-.52 2.91-1.18 4.52-1.69 1.24-.4 3.12-1.28 4.5-1.76.32-.11 35.2-13.44 36.63-13.56 1.01 1.24 1.06 2.69 2.17 3.72.97-.3 2.19-.99 3.13-1.1.01.46.03.89.02 1.46 0 .26-.02.66-.02.9l.04.73-1.28 3.14c-.42.35-1.39 1.72-2 2.35-.69.7-1.52 1.36-2.25 1.87-1.28.88-3.65 1.79-4.93 2.29-8.46 3.3-20.12 7.96-28.58 10.85-.87.3-1.57.67-2.42.97l-31.18 11.41c-8.91 3.38-23.73 8.31-30.99 11.32l-20.67 7.37c-3.62 1.28-6.83 2.65-10.41 3.77-1.78.56-3.24 1.22-5.29 1.92l-15.58 5.46c-9.92 3.53-6.72 2.18-10.56-.06l-11.24 5.04c-.67-1.05-2.86-5.62-3.33-7.37 2.98-1.85 8.69-3.61 11.09-5.3.14-2.18-.83-4.11 1.94-5.55l24.54-12.67c6.72-3.36 16.28-8.55 22.27-11.33l7.39-3.69c3.15-1.6 6.39-3.28 9.87-5.05l64.34-32.11c1.78-.89 3.09-1.43 4.89-2.36l10-4.74c8.66-3.87 7.98-1.76 10.52-2.19z"/><path d="m401.43 101.3c-2.18.68-4.69 1.69-5.69 3.38.92.8 1.92.85 2.87 1.59-.08 1.53-.9 1.81-1.24 4.19 1.26.88 3.17 1.54 4.57 2.28 1.44.76 2.86 1.4 4.31 2.18 1.29.69 3.04 1.56 4.34 2.13l4.37 2.06c2.77 1.57 5.69 2.81 8.66 4.29 5.67 2.83 16.15 8.19 21.7 10.61l4.33 2.16c2.28 1.18 16.41 7.78 17.21 8.69 1.79.11 15.42 7.83 17.28 7.98.58-.94.65-1.67 1.42-2.53l55.85 28.12-29.45-10.53c-5.47-1.76-12.71-4.74-18.52-6.75l-7.38-2.67c-1.12-.33-2.36-1.04-3.6-1.23.02-.98.07-.93.38-1.74.35-.92.4-.42.35-1.45l-12.85-4.88c-1.33-.53-3.1-.87-4.2-1.78-.81.1-16.28-5.97-18.39-6.71-3.2-1.13-6.04-2.4-9.24-3.45-1.58-.52-2.91-1.18-4.52-1.69-1.24-.4-3.12-1.28-4.5-1.76-.32-.11-35.2-13.44-36.63-13.56-1.02 1.24-1.06 2.69-2.17 3.72-.97-.3-2.19-.99-3.13-1.1-.01.46-.03.89-.02 1.46 0 .27.02.67.02.9l-.04.73 1.28 3.14c.42.36 1.39 1.72 2 2.36.69.71 1.51 1.36 2.25 1.87 1.28.88 3.65 1.79 4.93 2.29 8.46 3.3 20.12 7.95 28.58 10.85.87.3 1.57.67 2.42.97l31.18 11.41c8.91 3.38 23.73 8.31 30.99 11.32l20.67 7.37c3.62 1.28 6.83 2.65 10.41 3.77 1.78.56 3.24 1.22 5.29 1.92l15.58 5.46c9.92 3.53 6.72 2.18 10.56-.06l11.24 5.04c.67-1.06 2.87-5.62 3.33-7.37-2.98-1.85-8.69-3.61-11.09-5.3-.14-2.17.83-4.11-1.94-5.54l-24.54-12.67c-6.72-3.36-16.28-8.55-22.27-11.33l-7.39-3.69c-3.15-1.6-6.39-3.28-9.87-5.05l-64.34-32.11c-1.78-.89-3.09-1.43-4.89-2.36l-10-4.74c-8.66-3.87-7.98-1.76-10.52-2.19z"/></g><path d="m178.32 872.42c0 13.57-10.74 24.6-24.31 25.16h-12.44c-14.14 0-25.45-11.31-25.45-25.16v-151.54c0-13.85 11.31-25.16 25.45-25.16h12.44c13.57.28 24.31 11.59 24.31 25.16v30.25c0 6.5-2.83 9.61-5.37 10.74l-14.7 6.79v-44.39c0-5.94-4.81-10.74-11.03-10.74s-10.74 4.81-10.74 10.74v144.48c0 6.22 4.81 11.03 10.74 11.03s11.03-4.81 11.03-11.03v-26.58c0-6.5 2.83-9.61 5.37-11.03 1.7-.85 9.61-4.24 14.7-6.5z"/><path d="m342 697.69c6.22 0 8.2 4.52 8.2 7.92v190h-20.36v-86.23c-.28-2.54-2.26-4.52-4.8-4.52h-22.05v90.76h-20.36v-190c0-3.39 1.98-7.92 8.2-7.92h12.16v80.01c0 5.65 2.26 7.07 7.07 7.07h19.79v-87.08h12.16z"/><path d="m473.74 697.69c5.94 0 8.2 4.52 8.2 7.92v190h-14.42c-4.81 0-5.65-2.83-5.94-4.24v-193.67h12.16z"/><path d="m658.93 872.42c0 13.57-10.74 24.6-24.31 25.16h-12.44c-14.14 0-25.45-11.31-25.45-25.16v-151.54c0-13.85 11.31-25.16 25.45-25.16h12.44c13.57.28 24.31 11.59 24.31 25.16v30.25c0 6.5-2.83 9.61-5.37 10.74l-14.7 6.79v-44.39c0-5.94-4.81-10.74-11.03-10.74s-10.74 4.81-10.74 10.74v144.48c0 6.22 4.81 11.03 10.74 11.03s11.03-4.81 11.03-11.03v-26.58c0-6.5 2.83-9.61 5.37-11.03 1.7-.85 9.61-4.24 14.7-6.5z"/></g></svg>