<?xml version="1.0" encoding="UTF-8"?>
<svg id="Capa_1" data-name="Capa 1" xmlns="http://www.w3.org/2000/svg" version="1.1" viewBox="0 0 1455 367">
  <defs>
    <style>
      .cls-1 {
        fill: #000;
        stroke-width: 0px;
      }
    </style>
  </defs>
  <path class="cls-1" d="M972.2,217.4c-4.4,7.5-8.4,14.5-12.5,21.5-18,30.6-36.1,61.3-54.1,92-1.6,2.7-3,5.8-3.7,8.8-1.1,4.6,1.3,7.7,5.9,7.1,4.1-.5,8.4-1.7,12.1-3.7,10.2-5.5,18.4-13.6,26.5-21.8,2.4-2.4,4.6-5.1,7.1-7.4,14.9-14,23.5-32.3,33.9-49.3,6.4-10.4,11.6-21.5,20.2-30.5,10.2-10.7,21.9-18.9,36.6-22,16.8-3.5,32.9,7.1,35.6,23.3.2,1.4.3,2.9.4,4.8,5.4-.2,10.7-.5,16.6-.8-.9,1.6-1.5,2.8-2.2,3.9-16.1,27.7-32.1,55.4-48.1,83.2-1.6,2.8-2.9,5.8-3.6,8.8-1,4.5,1.4,7.4,5.9,6.9,3.7-.4,7.6-1.5,10.9-3.3,11.2-6.1,20.1-15,28.7-24.1,31.4-33.2,57.6-70.5,83.9-107.7,1.4-2,2.9-4,4.5-6.2,7.4,3.6,14.7,7.1,21.9,10.5-2.7,6.9-5.4,13.4-7.7,20-5.8,16.9-8.6,34.4-11.7,51.9-2.3,13.1-5,26.2-7.6,39.8,6.9-6.1,13.9-12,20.5-18.3,5.3-5.1,10.2-10.7,15-16.4,1.8-2.1,3.3-2.4,5.4-.9.9.6,1.9,1.1,2.7,1.8,5.6,4.5,5.7,6.1,1,11.4-15.3,17.5-32.2,33.3-52.8,44.7-10.8,6-22.2,10-34.5,11.5-15.5,2-28.6-5.5-33.7-19.3-.8-2.1-.7-3.3,1.6-4.5,5.5-2.9,10.8-6.1,16.3-9.2.3.4.6.7.8,1,6.2,11.1,18.1,12.2,26.4,2.5,4.5-5.3,7.2-11.5,8.6-18.1,2.9-13.3,5.2-26.7,7.8-40,1.4-7.1,3.2-14.1,4.9-21.8-.9,1.2-1.6,2.1-2.3,3-17.6,24.2-35.4,48.2-56.1,70-13.1,13.8-26.7,27.1-44.1,35.4-5.4,2.6-11.5,4.4-17.4,5.2-14.5,1.9-22.7-3.6-27.4-17.6-1,.7-1.9,1.4-2.8,2.1-9.3,7.2-18.9,13.7-30.4,17-6.7,1.9-13.4,2-20-.2-8.7-2.9-13.6-9.7-13.9-18.8,0-.6,0-1.2-.1-2.5-1.2,1-2.1,1.7-3,2.4-10.3,8.5-20.8,16.8-33.9,20.4-5.5,1.5-11.7,2-17.4,1.6-12.1-.9-18.9-9.1-19.7-22.7-1,.8-1.8,1.4-2.5,2.1-8.9,7.5-18.2,14.3-29.1,18.7-6.1,2.5-12.5,3.9-19.1,3.5-17-.9-26.4-13.2-22.1-29.7,1.2-4.6,3.2-9.1,5.6-13.2,10.4-17.8,20.9-35.4,31.6-53,4.3-7,4.8-14.5-4.5-22.8-6,7.9-11.9,15.7-17.9,23.5-14.2,18.4-28.4,36.9-45,53.3-15.5,15.2-32.4,28.5-52.9,36.3-14,5.4-28.4,7.8-43.1,3.4-14.3-4.2-23.3-13.5-25.2-28.8,0-.6-.3-1.2-.5-2-3.8,2.9-7.2,5.7-10.9,8.3-13.6,9.9-28,17.8-44.7,21-11.8,2.3-23.5,2.2-34.7-2.8-11.7-5.2-18.7-14-20.4-26.8,0-.4-.2-.8-.3-1.2,0,0-.2-.1-.4-.3-4.8,3.9-9.5,7.9-14.4,11.6-9.5,7.2-19.6,13.7-31.5,16.1-5,1-10.3,1.3-15.3.5-16.4-2.5-24.5-15.3-19.9-31.2,1.3-4.5,3.3-8.8,5.8-12.8,13-21.5,26.4-42.9,39.4-64.4,1.9-3.1,3.2-6.5,4.2-10,1.1-4-1.6-7.3-5.6-6.4-4.8,1.1-9.6,3-13.8,5.6-11.9,7.3-21.3,17.5-31,27.5-7.1,7.3-12,16.1-17.3,24.6-12,19.4-24,38.8-35.9,58.3-1.1,1.7-2.1,2.6-4.3,2.4-9-.6-18-1.1-27.7-1.6,2.4-3.9,4.5-7.4,6.7-11-.2-.2-.3-.4-.5-.5-1,.6-2.1,1.3-3.1,1.9-9.4,5.6-19.1,10.5-30.3,10.4-4.7,0-9.6-.9-14.1-2.4-8.4-2.9-13.1-9.3-14.7-18.5-1.3.9-2.3,1.6-3.3,2.3-10,6.7-20.3,12.4-32.5,13.8-7.1.8-13.9-.5-20.1-4.1-9.1-5.3-13.4-15.6-10.6-26.7,1.2-4.6,3-9.2,5.5-13.2,14.4-23.2,29-46.3,43.7-69.3,10-15.6,23.9-26.2,42.3-30.1,17.7-3.8,35.3,7,39.6,24,.6,2.3.7,4.6,1.1,7.3,5.2.4,10.6.7,16.5,1.1-.9,1.4-1.4,2.4-2,3.4-15.8,25.6-31.7,51.2-47.4,76.9-1.7,2.7-3.3,5.6-4.2,8.6-1.7,5.3,1,9.2,6.6,8.9,3.8-.2,7.9-1.3,11.4-2.9,10.4-4.9,18.9-12.5,27.2-20.3,5.2-4.9,10.6-9.8,15.2-15.3,5.1-6.2,9.7-13,14-19.9,12.9-20.4,25.5-40.9,38.1-61.4,1-1.7,2.1-2.2,4.1-2.1,8.9.5,17.8.9,27.4,1.3-3.4,5.6-6.6,10.9-9.8,16.1.1,0,.2.1.4.2,3.9-3,7.6-6.1,11.7-8.9,7.4-5,15.3-8.6,24.4-9,18-.9,28.7,12.8,23.1,29.9-1.7,5.3-4.7,10.3-7.6,15.1-13.7,22.8-27.7,45.4-41.4,68.1-1.9,3.2-3.1,7-4,10.6-.7,2.9,1.2,5.3,4.1,5.5,3.4.2,7.1,0,10.3-1,8-2.7,14.8-7.8,20.9-13.5,9.6-9,19.3-18,28.1-27.8,5-5.5,8.4-12.4,12.4-18.7,7-11.2,13.7-22.5,20.8-33.6,9.1-14.2,21.2-24.6,37.8-29.1,8.5-2.3,17.1-3.1,25.8-1.2,17,3.8,25.8,18,20.6,34.6-2.1,6.8-6.2,13.1-9.5,19.5-.3.5-1.1,1.1-1.7,1.1-7.7,0-15.4,0-23.8,0,2-3.3,3.6-5.6,4.8-8.2,2-4.4,4.3-8.7,5.4-13.3,2.1-8.6-3.8-14.1-12.4-12-8.1,1.9-14.3,7-18.9,13.6-6.2,9.1-11.8,18.6-17.7,28-6,9.8-12,19.5-17.9,29.4-3.5,5.7-6.5,11.6-6.8,18.5-.3,7.1,2.7,12.2,9.2,15.1,8.8,3.9,17.8,3.1,26.7.2,14.1-4.6,26.2-12.7,37.3-22.3,5.9-5.1,11.8-10.4,16.9-16.3,4.4-5,8-10.8,11.6-16.5,7.8-12.4,15.3-25,23-37.5,7.9-12.8,18.2-23,32.3-28.9,9.6-4,19.5-5.6,29.9-4.3,18,2.2,28.2,16.7,23.2,34.1-3.9,13.7-12,25.3-21.3,35.9-10.5,12-23.6,19.7-39.5,22.4-8.9,1.5-17.7,1-26.3-2-.7-.2-1.4-.4-2.7-.8-2.6,5.4-5.7,10.6-7.6,16.3-4.7,13.6,2,23.1,16.3,24.2,10.5.8,19.9-2.4,29-7.1,18.5-9.6,33.5-23.4,47.1-38.9,18.4-21,35-43.4,51.5-65.9,1.3-1.8.6-2.8-.4-4.1-4.1-5.3-6.9-11.1-7.1-17.9-.3-10.1,4.4-18.1,10.9-25.3,1.3-1.4,2.3-3,3.7-4.8,5.8,6.4,10.8,11.9,15.8,17.5-.7.9-1.3,1.5-1.8,2.2-4.2,5.2-4.2,10.3,0,15.5,5.5,6.9,11.1,13.6,16.6,20.5,1.1,1.3,2.1,2.7,3.1,4.1,7,9.8,7.8,20.1,2.1,30.5-6.6,12.1-13.8,23.9-20.8,35.9-4.4,7.5-8.9,14.9-13.2,22.4-1.5,2.6-2.7,5.4-3.4,8.3-1,4.4,1.3,7,5.8,7.2,5,.2,9.2-1.8,13.3-4.2,10.6-6.3,19.4-14.8,28-23.5,2.8-2.8,5.3-5.9,8.2-8.6,10.9-10.4,17.5-23.8,25-36.4,10.9-18.2,21.7-36.5,32.4-54.7,1-1.7,2.1-2.6,4.2-2.6,7.8,0,15.7-.4,23.5-.6,1.1,0,2.3,0,3.9,0h0ZM359.6,241c-.5-8.3-7-13.5-15.6-12.2-10.1,1.6-16.9,7.9-22.1,16.1-14.5,23.1-28.9,46.3-43.3,69.5-1.5,2.3-2.6,4.9-3.5,7.5-1.5,4.6.6,7.9,5.4,8.6,1.8.3,3.8.5,5.4-.1,4.7-1.7,9.6-3.2,13.8-5.8,8.7-5.1,15.5-12.4,21.8-20.2,13.5-16.8,23.5-35.7,34.7-54,1.7-2.8,2.3-6.4,3.3-9.6h0ZM983.5,345c4.1-.1,9-2.4,13.5-5.4,10.8-7.1,19.8-16.4,26.7-27.1,11.6-18.1,22.4-36.8,33.2-55.3,1.7-2.9,2.5-6.6,2.8-10.1.7-6.1-3.1-10.6-9.2-10.9-3.2-.2-6.7.4-9.7,1.6-8,3.2-13.6,9.3-17.8,16.5-14.7,25-29.3,50.1-43.9,75.2-1.4,2.4-2.5,5-3.2,7.6-1.3,5.1.9,7.8,7.6,7.8h0ZM695.6,292.9c11.9,3.9,22.6,2.7,32.1-4.7,11.1-8.6,17.7-20.5,22.5-33.3,1.6-4.3,2-9-1.9-12.6-4-3.6-8.6-2.6-13-.8-2.2.9-4.5,1.9-6.1,3.4-3.9,3.6-8.2,7.1-11.1,11.4-7.7,11.8-14.8,24-22.5,36.6h0Z"/>
  <path class="cls-1" d="M75.5,301.7c30.9-48.3,61.8-96.6,93.3-145.9-5.7-.2-10.6-.7-15.4-.6-18.1.6-34.3,6.1-47.4,19.1-14.8,14.8-21.5,38.2-7.6,59.2-5.8,4.5-11.6,9-17.6,13.7-5.3-5.3-9.2-11.4-11.6-18.3-7.6-21.7-3.5-41.9,8.9-60.6,13.3-19.9,32.5-31.2,55.9-34.8,28.1-4.3,55.3-.2,80.4,13.4,25.6,13.9,40.9,36.1,45.1,64.6,7.3,50.1-8.2,93-46.3,126.4-30.4,26.6-70.7,29.7-106.5,10.1-7.5-4.1-14.6-8.9-22.8-13.9-1,1.3-2.2,3-3.6,4.4-16.5,16.2-44.8,19.4-64.4,7.5-13.8-8.4-19.7-24.6-13.8-38.3,4.5-10.4,13-15.7,23.8-17.6,16.2-2.9,31,1.3,45.1,9.1,1.3.7,2.6,1.5,3.9,2.2,0,0,.2,0,.5.1h0ZM97.6,317.1c6.9,4,13.2,8.2,19.8,11.5,14.3,7.1,29.4,10.8,45.4,7.3,15.6-3.4,28.1-12,38.6-23.6,20.2-22.4,30.9-48.9,32.4-78.9.8-15.6-2.1-30.5-10.1-44.2-6.8-11.6-16.5-20-28.8-25.7-32.4,51.1-64.8,102-97.5,153.5ZM64,321.3c0-.4-.1-.8-.2-1.2-5.8-2.1-11.5-4.5-17.5-6.1-3.8-1-7.8-1.4-11.7-1.3-4.5.1-7.5,2.7-8.2,6-.6,3,1.2,6.7,5,8.6,8.2,4,16.8,4.6,25,.2,2.8-1.5,5-4.1,7.5-6.2h0Z"/>
  <path class="cls-1" d="M1288.1,266.6c-8.9,0-17.6-1-25.8-4.5-25.9-11.2-31.4-44.3-10.5-63,12.8-11.4,28.2-18.2,44.3-23.4,2.8-.9,3.8-2.2,4.3-5.2,4.8-26.4,18.5-46.1,44.2-55.8,21.7-8.3,54.3-.9,66,29.9,5.2,13.5,7.9,27.4,7.2,41.8-1,18.9-10.9,33.2-25.3,44.7-13.3,10.6-28.8,17.2-44.6,23-16.4,6.1-33.3,10.6-50.8,12.1-3,.3-6,.3-9,.5h0Z"/>
  <path class="cls-1" d="M1209.3,149.9c-3.4-.2-6.9-.3-10.2-.7-2-.3-3,.3-4.1,2-6.7,10.9-14.2,21.3-23.8,29.8-4.8,4.2-10,8.2-15.6,11.2-14.2,7.6-27.9,5.3-40.1-5.3-12.8-11.1-15.7-25.2-13-41.1,2.7-16,9.1-30.5,17.1-44.4,11-19.3,23.6-37.7,40.4-52.5,12.1-10.7,26-17.6,42.6-18.1,9.2-.3,17.8,2.1,26.2,5.4,13,5.1,25.1,11.7,34.4,22.5,15.2,17.7,15.1,46.1-.2,65.4-13.2,16.6-31,24.5-51.9,25.8-.5,0-1.1,0-1.6,0,0,0,0,.2,0,.3h0Z"/>
  <path class="cls-1" d="M1407.5,103.2c-6-.1-11.4-1.8-16.1-5.5-9.2-7.2-8.2-20.5,1.9-26.4,8.6-4.9,20.9-3.9,26.9,2.4,4.1,4.2,5.9,9.5,4.6,15-1,3.9-3.4,7.8-6,10.9-2.7,3.2-7.1,3.6-11.3,3.5h0Z"/>
  <path class="cls-1" d="M1290.5,67.8c1.3-3.8,2.3-8.2,4.2-12.1,1.7-3.7,5.1-5.6,9.3-5.8,3-.1,6.2-1.1,9-.5,8.4,2,13.3,8.7,13.1,17.4-.2,6.4-2.3,12.2-6.8,16.8-8.3,8.6-21.5,6.1-26-4.9-1.3-3.2-1.7-6.8-2.8-11h0Z"/>
  <path class="cls-1" d="M977.6,167.3c9.6,0,16.8,7.1,16.7,16.6,0,10.1-8.4,18.2-18.6,18.3-9.5,0-16.6-7.1-16.5-16.4.1-10.3,8.2-18.4,18.4-18.4h0Z"/>
  <path class="cls-1" d="M1295.3,37.3c0,6.1-2.7,10.5-7.8,12.5-5.5,2.2-10.3.7-14.4-3.3-3.9-3.8-6-8.5-5.7-14.1.3-5.9,4.5-10.1,10.4-10.4.2,0,.4,0,.6,0,10.8-1,16.9,4.5,16.8,15.3h0Z"/>
  <path class="cls-1" d="M1428.7,105.5c8.6,0,17.1,6.8,16.3,13.9-.9,8-3.9,15-12.5,15-8.3,0-16.8-8.7-16.6-16.9.1-6.9,5.6-12,12.8-12h0Z"/>
  <path class="cls-1" d="M1266.9,17.3c0,7.5-4.5,12.9-10.9,13-6.8,0-13.4-6.8-13.4-13.9,0-7.1,5.7-11.9,14.3-11.9,5.6,0,10,5.6,10.1,12.8h0Z"/>
  <path class="cls-1" d="M1455,149.4c-1.1,6.5-4.7,13.3-12.3,13.2-7-.1-13.2-6.5-13.2-13.9,0-6.4,4.6-10.8,11.4-10.8,7.7,0,14.2,5.3,14.2,11.5h0Z"/>
  <path class="cls-1" d="M1226.9,18.4c-5.3,0-9.7-4-9.6-9.1,0-3.9,4.8-9.3,8.3-9.4,5.6,0,10.3,4.1,10.4,9.2,0,5.1-3.9,9.2-9,9.2h0Z"/>
  <path class="cls-1" d="M1451.8,180.1c0,4.5-4.6,8.5-9.7,8.5-4.5,0-8.4-4.3-8.4-9.2,0-5.3,4.1-9.4,9.3-9.4s8.8,4.3,8.8,10.1h0Z"/>
  <path class="cls-1" d="M1437.1,198.6c3.2,0,5.8,2.9,5.7,6.2,0,3-2.6,5.4-5.7,5.4-3.2,0-5.7-2.9-5.7-6.2,0-3.1,2.5-5.4,5.7-5.4h0Z"/>
  <path class="cls-1" d="M1206.7,9c0,3-2.6,5.5-5.6,5.5-3.2,0-5.8-2.7-5.8-6,0-3.1,2.5-5.5,5.5-5.5,3.2,0,5.9,2.7,5.9,6h0Z"/>
</svg>