<svg viewBox="0 0 1330.62 296.59" xmlns="http://www.w3.org/2000/svg"><path d="m966.14 35.67h159.63v32.55h-113.2v35.42h107.45v31.11h-107.45v39.25h114.16v32.54h-160.59z" fill="#67676b"/><path d="m1204.5 118.47-66.52-82.79h55.75l37.58 53.12 37.57-53.12h55.76l-66.52 82.79 72.5 88.07h-57.68l-41.63-57.67-41.64 57.67h-57.68z" fill="#67676b"/><g fill="#969596"><path d="m0 34.59h159.62v32.55h-113.19v35.41h107.45v31.12h-107.45v39.24h114.15v32.55h-160.58z"/><path d="m226.04 172.91h51.69c30.63 0 44.51-18.43 44.51-54.56 0-31.6-13.4-51.21-48.82-51.21h-47.38zm-46.42-138.32h106.49c58.63 0 84 33.99 84 85.43s-26.33 85.44-79.92 85.44h-110.56v-170.87z"/><path d="m489.73 177.7c42.12 0 56.96-31.11 56.96-57.67s-14.84-57.68-56.96-57.68-56.96 31.11-56.96 57.68 14.84 57.67 56.96 57.67m0-147.9c91.9 0 106.25 54.57 106.25 90.23s-14.35 90.22-106.25 90.22-106.25-54.57-106.25-90.22 14.35-90.23 106.25-90.23"/></g><path d="m656.45 73.91-72.58 132.63h45.22l49.97-91.31z" fill="#bc61a2"/><path d="m656.45 73.91 40.5 74.02 40.5-73.96-40.48-73.97z" fill="#eb5393"/><path d="m629.09 206.54h35.78l32.08-58.61-17.89-32.7z" fill="#763387"/><path d="m696.95 147.93 40.5-73.96 32.05 58.57-40.49 74z" fill="#20a4db"/><path d="m882.56 73.91 72.56 132.63h-45.21l-49.96-91.31z" fill="#ed647a"/><path d="m882.56 73.91-40.5 74.02-40.51-73.96 40.48-73.97z" fill="#f69b34"/><path d="m909.91 206.54h-35.78l-32.07-58.61 17.89-32.7z" fill="#e7254b"/><path d="m842.06 147.93-40.5-73.96-32.06 58.57 40.5 74z" fill="#f9cb33"/><path d="m769.5 132.54-40.49 74h80.99z" fill="#97c74a"/><g fill="#969596"><path d="m9.99 281.21h10.41c6.17 0 8.96-3.71 8.96-10.99 0-6.36-2.69-10.32-9.82-10.32h-9.55zm-9.35-27.86h21.45c11.81 0 16.92 6.85 16.92 17.2s-5.29 17.22-16.1 17.22h-22.27z"/><path d="m44.38 253.35h32.14v6.55h-22.8v7.14h21.65v6.27h-21.65v7.9h22.99v6.56h-32.33z"/><path d="m110.94 266.37c-.86-4.98-4.96-7.43-9.83-7.43-8.86 0-10.76 6.94-10.76 11.62s1.89 11.62 10.76 11.62c4.54 0 8.91-2.17 9.83-7.61h10.18c-1.17 10.02-9.41 14.17-20.35 14.17-12.53 0-20.34-5.39-20.34-18.17s7.81-18.18 20.34-18.18c8.29 0 18.85 2.12 20.24 13.98z"/><path d="m125.61 253.35h9.35v34.42h-9.35z"/><path d="m164.79 263.33c-.57-4.48-4.86-4.97-8.63-4.97s-6.36 1.74-6.36 4.05c0 1.83 1.55 2.84 3.96 3.22l11.71 1.89c6.27 1 11.04 3.38 11.04 9.63s-4.34 11.57-17.89 11.57c-8.38 0-19.28-1.06-19.38-11.81h10.51c.1 4.72 4.83 5.54 8.87 5.54 4.39 0 7.37-1.31 7.37-4.29 0-2.65-2.11-3.38-5.83-3.95l-8.53-1.3c-5.98-.92-11.77-2.7-11.77-9.74 0-7.66 6.27-10.8 17.07-10.8 7.09 0 17.59 1.2 18.23 10.95h-10.37z"/><path d="m180.8 253.35h9.35v34.42h-9.35z"/><path d="m216.19 282.18c8.48 0 11.48-6.27 11.48-11.63s-2.99-11.62-11.48-11.62-11.47 6.27-11.47 11.62 2.99 11.63 11.47 11.63m0-29.8c18.51 0 21.41 10.98 21.41 18.17s-2.9 18.18-21.41 18.18-21.4-11-21.4-18.18 2.89-18.17 21.4-18.17"/><path d="m271.24 253.35h9.06v34.42h-10.17l-18.75-24.01h-.09v24.01h-9.06v-34.42h10.84l18.08 24.01h.09z"/><path d="m286.87 253.35h32.15v6.55h-22.81v7.14h21.65v6.27h-21.65v7.9h23v6.56h-32.34z"/><path d="m347.66 263.33c-.58-4.48-4.87-4.97-8.63-4.97s-6.36 1.74-6.36 4.05c0 1.83 1.54 2.84 3.95 3.22l11.71 1.89c6.27 1 11.04 3.38 11.04 9.63s-4.33 11.57-17.88 11.57c-8.38 0-19.28-1.06-19.38-11.81h10.51c.1 4.72 4.83 5.54 8.87 5.54 4.39 0 7.37-1.31 7.37-4.29 0-2.65-2.11-3.38-5.82-3.95l-8.53-1.3c-5.98-.92-11.76-2.7-11.76-9.74 0-7.66 6.26-10.8 17.06-10.8 7.09 0 17.59 1.2 18.23 10.95h-10.36z"/><path d="m381.5 253.35h30.76v6.55h-21.41v7.52h20.06v6.56h-20.06v13.79h-9.35z"/><path d="m416.32 253.35h9.34v34.42h-9.34z"/><path d="m441.57 268.59h12.4c2.07 0 4.47-1.17 4.47-4.39 0-3.42-2.69-4.29-4.96-4.29h-11.91zm-9.35-15.24h25.02c9.55 0 11.14 5.83 11.14 9.35 0 4.2-1.69 6.9-5.59 8.3v.1c4.09.63 4.73 5.84 4.73 9.22 0 1.68.14 5.73 1.79 7.46h-10.23c-.86-1.59-.91-2.99-.91-6.6 0-4.83-2.07-6.03-4.97-6.03h-11.62v12.63h-9.35v-34.42z"/><path d="m507.47 253.35h13.74v34.42h-9.06v-27.57h-.1l-10.9 27.57h-7.8l-10.89-27.57h-.1v27.57h-9.06v-34.42h13.74l10.21 24.77z"/><path d="m527.77 253.35h32.16v6.55h-22.81v7.14h21.65v6.27h-21.65v7.9h23v6.56h-32.35z"/><path d="m588.56 263.33c-.57-4.48-4.87-4.97-8.63-4.97s-6.36 1.74-6.36 4.05c0 1.83 1.54 2.84 3.96 3.22l11.71 1.89c6.27 1 11.04 3.38 11.04 9.63s-4.34 11.57-17.89 11.57c-8.39 0-19.28-1.06-19.39-11.81h10.52c.09 4.72 4.82 5.54 8.86 5.54 4.39 0 7.37-1.31 7.37-4.29 0-2.65-2.12-3.38-5.83-3.95l-8.53-1.3c-5.98-.92-11.77-2.7-11.77-9.74 0-7.66 6.27-10.8 17.07-10.8 7.09 0 17.6 1.2 18.23 10.95h-10.37z"/><path d="m605.54 279.57h9.35v6.17c0 6.18-3.09 10.03-9.35 10.85v-3.38c3.14-.87 4.1-2.22 4.34-5.45h-4.34z"/><path d="m649.59 268.59h12.4c2.07 0 4.48-1.17 4.48-4.39 0-3.42-2.69-4.29-4.96-4.29h-11.92zm-9.34-15.24h25.02c9.55 0 11.14 5.83 11.14 9.35 0 4.2-1.69 6.9-5.6 8.3v.1c4.1.63 4.73 5.84 4.73 9.22 0 1.68.15 5.73 1.79 7.46h-10.23c-.86-1.59-.91-2.99-.91-6.6 0-4.83-2.07-6.03-4.97-6.03h-11.62v12.63h-9.35v-34.42z"/><path d="m681.33 253.35h32.15v6.55h-22.81v7.14h21.65v6.27h-21.65v7.9h23v6.56h-32.34z"/><path d="m742.12 263.33c-.58-4.48-4.87-4.97-8.64-4.97s-6.36 1.74-6.36 4.05c0 1.83 1.54 2.84 3.95 3.22l11.72 1.89c6.26 1 11.03 3.38 11.03 9.63s-4.34 11.57-17.89 11.57c-8.38 0-19.27-1.06-19.38-11.81h10.52c.09 4.72 4.82 5.54 8.86 5.54 4.39 0 7.38-1.31 7.38-4.29 0-2.65-2.11-3.38-5.83-3.95l-8.54-1.3c-5.98-.92-11.77-2.7-11.77-9.74 0-7.66 6.28-10.8 17.07-10.8 7.09 0 17.59 1.2 18.22 10.95h-10.36z"/><path d="m757.74 253.35h9.35v19.77c0 3.37.15 9.06 8.73 9.06s8.73-5.69 8.73-9.06v-19.77h9.35v22.07c0 3.87-.48 13.31-18.08 13.31s-18.08-9.45-18.08-13.31z"/><path d="m800.06 253.35h9.35v27.56h20.98v6.86h-30.33z"/><path d="m839.9 259.9h-12.78v-6.55h34.91v6.55h-12.78v27.87h-9.35z"/><path d="m880.3 260.78-5.39 13.65h10.8l-5.4-13.65zm7.91 19.9h-15.8l-2.8 7.09h-10.07l15.13-34.42h11.28l15.14 34.42h-10.07l-2.8-7.09z"/><path d="m913.04 281.21h10.42c6.16 0 8.96-3.71 8.96-10.99 0-6.36-2.7-10.32-9.83-10.32h-9.55zm-9.35-27.86h21.45c11.82 0 16.92 6.85 16.92 17.2s-5.29 17.22-16.1 17.22h-22.27z"/><path d="m966.89 282.18c8.49 0 11.48-6.27 11.48-11.63s-2.99-11.62-11.48-11.62-11.47 6.27-11.47 11.62 2.99 11.63 11.47 11.63m0-29.8c18.52 0 21.41 10.98 21.41 18.17s-2.89 18.18-21.41 18.18-21.4-11-21.4-18.18 2.9-18.17 21.4-18.17"/><path d="m1016.21 263.33c-.57-4.48-4.86-4.97-8.63-4.97s-6.35 1.74-6.35 4.05c0 1.83 1.53 2.84 3.94 3.22l11.72 1.89c6.26 1 11.04 3.38 11.04 9.63s-4.34 11.57-17.88 11.57c-8.39 0-19.29-1.06-19.39-11.81h10.51c.1 4.72 4.82 5.54 8.87 5.54 4.39 0 7.37-1.31 7.37-4.29 0-2.65-2.12-3.38-5.83-3.95l-8.53-1.3c-5.98-.92-11.76-2.7-11.76-9.74 0-7.66 6.26-10.8 17.07-10.8 7.08 0 17.59 1.2 18.22 10.95h-10.37z"/><path d="m1050.06 253.35h30.76v6.55h-21.41v7.52h20.05v6.56h-20.05v13.79h-9.35z"/><path d="m1084.48 253.35h9.35v19.77c0 3.37.15 9.06 8.73 9.06s8.72-5.69 8.72-9.06v-19.77h9.35v22.07c0 3.87-.48 13.31-18.08 13.31s-18.07-9.45-18.07-13.31z"/><path d="m1126.81 253.35h32.15v6.55h-22.81v7.14h21.65v6.27h-21.65v7.9h23v6.56h-32.34z"/><path d="m1173.66 268.59h12.39c2.08 0 4.48-1.17 4.48-4.39 0-3.42-2.7-4.29-4.96-4.29h-11.91zm-9.34-15.24h25.01c9.55 0 11.14 5.83 11.14 9.35 0 4.2-1.69 6.9-5.59 8.3v.1c4.09.63 4.72 5.84 4.72 9.22 0 1.68.15 5.73 1.79 7.46h-10.23c-.86-1.59-.9-2.99-.9-6.6 0-4.83-2.07-6.03-4.98-6.03h-11.61v12.63h-9.35v-34.42z"/><path d="m1214.84 259.9h-12.77v-6.55h34.89v6.55h-12.77v27.87h-9.35z"/><path d="m1240.2 253.35h32.15v6.55h-22.8v7.14h21.64v6.27h-21.64v7.9h23v6.56h-32.35z"/><path d="m1301 263.33c-.58-4.48-4.87-4.97-8.64-4.97s-6.35 1.74-6.35 4.05c0 1.83 1.54 2.84 3.95 3.22l11.71 1.89c6.26 1 11.04 3.38 11.04 9.63s-4.34 11.57-17.89 11.57c-8.38 0-19.28-1.06-19.38-11.81h10.51c.09 4.72 4.81 5.54 8.86 5.54 4.38 0 7.37-1.31 7.37-4.29 0-2.65-2.11-3.38-5.83-3.95l-8.54-1.3c-5.97-.92-11.76-2.7-11.76-9.74 0-7.66 6.27-10.8 17.07-10.8 7.08 0 17.6 1.2 18.23 10.95h-10.36z"/><path d="m1317.96 279.57h9.34v8.19h-9.34z"/></g><path d="m1034.6.63h47.29l-37.47 24.48h-32.98z" fill="#636569"/></svg>