<svg viewBox="0 0 516.46 618.09" xmlns="http://www.w3.org/2000/svg" xmlns:xlink="http://www.w3.org/1999/xlink"><clipPath id="a"><path d="m245.17.18c-7.82-.06-42.78 1.94-83.6 7.63v20.62c38.49-5.1 71.78-6.93 81.1-6.93l5.22-.13c11.37 0 58.16-.3 107 7.06v-20.2c-51.13-9.97-100.26-8.12-109.72-8.05z"/></clipPath><path d="m415.86 42.81c-61.16-20.69-139.93-21.74-155.1-21.74h-5.03c-15.17 0-93.94 1.05-155.09 21.74-39.4 13.33-64.83 28.65-78.48 38.37l-5.27 299.18-.04.72c-.03.51-.94 52.44 57.73 98.12 56.16 43.72 142.56 98.23 183.67 123.6 41.1-25.37 127.51-79.88 183.67-123.6 55.53-43.23 57.65-92.49 57.7-98.33l-5.28-299.68c-13.65-9.73-39.09-25.04-78.48-38.37z" fill="#fff"/><path d="m408.36 55.62c-58.25-19.71-133.27-20.71-147.72-20.71h-4.79c-14.45 0-89.47 1-147.71 20.71-37.52 12.69-61.75 27.28-74.75 36.55l-5.02 284.94-.04.69c-.02.49-.9 49.95 54.98 93.45 53.48 41.64 135.78 93.55 174.93 117.72 39.15-24.16 121.44-76.08 174.93-117.72 52.88-41.17 54.91-88.08 54.96-93.66l-5.03-285.42c-13-9.26-37.23-23.85-74.75-36.54z" fill="#fff" stroke="#077199" stroke-miterlimit="10" stroke-width="1.22"/><g fill="#144672"><path d="m237.14 541.74h-.25c-.55-.64-.9-.44-1.59 0h-.12c-.66-.62-1.43-1.15-1.76-2.07-.05-.13-.33-.25-.49-.24-.42.03-.58-.14-.76-.51-.31-.61-.25-1.1.12-1.63.21-.3.38-.63.54-.96.06-.11.1-.28.06-.39-.22-.58-.46-1.16-.74-1.83-.26 0-.75-.14-1.08.04-.36.19-.56.66-.83 1.02-.53-.53-.82-1.11-.71-1.84.07-.48.12-.96.23-1.43.14-.6-.13-1.43-.56-1.42-.79.02-1.15-.53-1.56-1.02-.11-.14-.13-.4-.1-.59.09-.54.23-1.06.38-1.69.78.01.97-.64 1.15-1.37.2-.8.38-1.67 1.37-1.83-.14-1.26-1.59-.89-2.04-1.74-.02-.03-.27.04-.4.09-.58.24-.89-.04-1.14-.54.17-.13.31-.24.45-.34-.24-.72-.81-.87-1.44-.94-1.53-.18-2.92-.6-3.63-2.15-.03-.06-.11-.1-.17-.15 0-.08 0-.16 0-.25.04 0 .09.02.11 0 1.5-1.36 3.01-2.72 3.1-4.96.02-.44.19-.7.68-.62s.85-.13 1.2-.45c.22-.2.54-.31.82-.45.27-.13.6-.2.81-.39.5-.46.8-1.14 1.6-1.23.11-.01.24-.26.29-.41.19-.64.4-1.29.52-1.95.16-.85.48-1.53 1.36-1.82.03 0 .04-.07.08-.15-.15-.19-.32-.39-.46-.6-.07-.1-.15-.29-.1-.37.27-.45.53-.91.87-1.3.4-.46 1.13-.78 1.27-1.28.24-.88.12-1.85.17-2.78.01-.28 0-.62.15-.82.37-.5.6-.96.44-1.62-.19-.77.33-1.38.68-1.96.15-.24.68-.32 1.04-.35 1.37-.09 2.39-.76 3.21-1.9-.78-.59-.57-1.35-.34-2.12.3-.03.56-.05.97-.09-.21-.2-.28-.32-.37-.34-.52-.09-.68-.48-.74-.92-.1-.79-.51-1.35-1.17-1.77-.19-.12-.38-.26-.52-.42-.09-.1-.14-.27-.17-.41-.06-.3-.09-.61-.15-.91-.13-.63-.71-1.25-.05-1.92.05-.06.01-.24-.02-.35-.18-.56-.19-1.26-1.02-1.27.05-.33.05-.59.13-.81.07-.18.24-.45.38-.46.52-.03.78-.26.74-.79.27-.04.49-.08.78-.13-.09.25-.16.41-.22.58 1.16.47 1.52.39 2-.42.29.05.58.11.91.17.03-.25.06-.46.08-.66.75-.25.92-.56.76-1.46-.24-1.39-.27-2.75.27-4.09.14-.33.27-.44.61-.4.71.07 1.43.1 2.14.12.15 0 .3-.11.45-.17-.12-.12-.22-.27-.36-.34-.21-.11-.46-.17-.69-.25-.78-.26-1.9-1.73-1.92-2.55-.03-1.3-.33-2.62.26-3.9-.04-.04-.08-.08-.12-.13-.3.14-.6.29-1.01.48-.14-.18-.48-.42-.47-.65.02-.55.2-1.1.33-1.74.74.44 1.39.86 2.07 1.21.26.13.66.23.89.13.81-.37 1.62-.77 2.33-1.29.57-.42 1.01-1.03 1.51-1.57.5.47.98.93 1.49 1.41.5-.39.96-.74 1.48-1.15-.8-.62-.69-1.42-.57-2.22.04-.26 0-.54.05-.79.2-.95-.15-1.66-.82-2.33-.91-.9-1.12-2.1-1.27-3.35 1.01.53 1.74 1.17 1.25 2.44.58.05 1.03.09 1.71.16-1.08-1.28-.67-2.42-.25-3.58.5.14.97.22 1.4.41.77.34 1.44.31 2.01-.36.02-.02.07 0 .28-.03.42.46.92 1 1.42 1.54.22.24.59.42.28.86-.04.05.07.26.16.34.75.73 1.47 1.48 2.27 2.14.39.32.95.64 1.41.62.69-.04 1.36-.39 2.13-.64.35.38.81.87 1.27 1.37.13-.1.24-.15.32-.24.45-.54.96-.78 1.64-.41.14.07.36 0 .54 0 .42-.02.84-.02 1.25-.06.18-.02.45-.09.52-.22.21-.41.52-.32.76-.15.17.12.34.42.31.62s-.3.37-.53.63c1.17.79 1.23 2.42 2.37 3.33.06.05.08.14.1.22.32.9.64 1.81.94 2.72.16.47-.34 1.73-.71 1.87q-.95.37-.95 1.36c0 .39.03.78 0 1.16s.17.5.47.67c.62.35.97-.21 1.53-.39-.38 1.15.57 1.6 1.08 2.35.52-.53 1.14-.34 1.48-.04.2.18-.02.85-.07 1.3-.06.44-.15.88-.22 1.32.06.02.12.03.19.05-.14.11-.28.23-.41.33.38.91.64.96 1.84.38-.11-.89.06-1.01.92-.76.21.06.47-.07.77-.12-.31-.63-.08-1.02.31-1.39.28-.26.6-.54.75-.88.28-.61.67-.87 1.33-.69.03 0 .07-.03.14-.07-.16-.95.8-.67 1.23-1.06-.71-.84.39-1.24.48-1.93-.22-.07-.4-.14-.55-.18-.28-.6-.08-1.04.29-1.49.52-.63 1.03-1.28 1.46-1.97.48-.77 1.05-1.27 2.02-1.14.19.03.42-.02.6-.1.95-.42 1.67 0 2.35.6q-.26 1.48.31 1.78c.05-.33.13-.65.13-.97 0-.52.37-.6.69-.51.19.06.37.4.42.65.04.22-.13.46-.16.7-.07.45.24.74.69.66.19-.03.37-.1.71-.21-1.09-.59-.69-1.31-.41-2.04.09-.23.13-.52.07-.75-.23-.86-.18-1.04.61-1.64.63.5 1.27 1 1.9 1.52.1.08.19.23.2.36.02.71 0 1.41 0 2.17-.27-.04-.46-.06-.65-.09-.21.34-.37.69-.62.95-.24.24-.58.38-.96.62.55.24.98.41 1.4.6.12.06.29.12.34.22.3.54-.12 1.68-.7 1.94-.66.29-1.31.58-1.98.87.38.67 1.34.94.86 1.9.77.37 1.49.72 2.26 1.08.26-.51.45-.99.72-1.41.15-.23.39-.46.64-.54.39-.12.55-.3.48-.69-.05-.28-.11-.56-.12-.84 0-.16.02-.44.12-.48.5-.24.83-.99 1.58-.55.1.06.32-.04.45-.12.39-.21.64-.11.83.27.43.87 1.31 1.06 2.12 1.49.03-.4.05-.7.06-.88.7.02 1.37.03 2.03.08.16.01.34.14.47.25.5.44 1.08.64 1.74.62.17 0 .35.04.58.06-.31.42-.56.78-.85 1.18.34.2.63.36.95.55.05-.14.05-.23.1-.29.15-.2.29-.5.49-.56.16-.05.46.16.61.33.64.74 1.26 1.5 1.87 2.27.11.14.23.36.2.53-.07.44-.1.97-.36 1.28-.54.62-.75 1.21-.67 2.05.05.55-.25 1.14.21 1.6-.6.81-1.29.12-1.98.16.15.9.3 1.76.44 2.61-.07-.03-.14-.05-.2-.08-.28.28-.59.53-.83.83-.25.32-.43.69-.67 1.02-.2.28-.17.49.04.75.57.72 1.09 1.48 1.66 2.2.24.31.36.59.24 1-.06.2.05.51.19.7.31.42.68.79 1.08 1.25-.47.07-.82.13-1.23.2.3 1.09.15 2.25 1.08 3.15-.44.39-.85.76-1.27 1.13.49.87.94 1.7 1.43 2.49.26.42.32.78.09 1.24-.29.58-.51 1.2-.74 1.81-.07.2-.14.44-.1.64.15.88.33 1.76.54 2.63.05.2.25.37.39.55.14.2.37.38.4.59.14 1.01.24 2.03.3 3.04.01.21-.15.5-.32.65-.84.72-1.63 1.48-2.17 2.46-.26.46-.56.9-.87 1.33-.11.15-.27.34-.44.37-1.9.39-3.82.66-5.73.07-.2-.06-.42-.23-.53-.41-.59-1-1.18-2-1.71-3.03-.53-1.04-1.56-1.42-2.42-2.04-.24.22-.43.4-.59.56-.64-.23-.74-.63-.46-1.16.48-.91.63-1.82.03-2.77.17-.09.34-.18.53-.29-.17-.22-.31-.42-.46-.62.13-.19.25-.37.41-.59-.9-.19-.47-.82-.49-1.29-.03-.73.63-.35 1.06-.63-.16-.18-.27-.44-.42-.47-.69-.13-.87-.56-.81-1.18.01-.14-.06-.28-.05-.42.08-.91-.58-1.92.35-2.6-.31-.34-.66-.6-.83-.96-.45-.95-1.24-1.48-2.15-1.88-.35-.16-.71-.33-1.02-.55-.14-.1-.28-.36-.25-.52.19-1.08.06-2.12-.17-3.2-.22-.98-.82-1.32-1.67-1.49-.18-.03-.36-.06-.54-.09-.54-.11-.83-.49-.75-1.01.03-.19.13-.4.25-.55.55-.67.3-1.31-.02-2.08-.53.6-1.02 1.13-1.5 1.68-.05.06-.11.16-.09.22.24.57 0 .9-.58 1.05.11.21.21.37.28.53.07.18.12.37.17.54-.07.04-.08.07-.1.06-.38-.07-.76-.15-1.14-.22-.84-.16-.86-.16-1.11.67-.08.25-.12.66.02.8.29.28.26.5.13.8-.15.38-.3.76-.4 1.15-.14.5-.43.84-.87 1.12-1.04.68-2.04 1.43-3.09 2.09-.45.28-.64.59-.63 1.13 0 .32-.13.75-.36.96-.59.53-.77 1.21-.9 1.92.87.38.92.39.78.89-.15.53.06.73.51.89.37.13.76.21.91.71.38 1.25.83 2.47 1.22 3.72.06.18-.02.48-.15.62-.37.43-.82.8-1.19 1.23-.14.16-.26.43-.24.63.2 2.03.44 4.05.63 6.08.02.21-.13.5-.29.66-.5.48-1.07.89-1.55 1.39-.42.43-.87.7-1.48.77-.27.03-.72.14-.75.28-.13.57-.57.61-.98.71v1.69c0 .32.08.68-.03.96-.35.84-.6 1.75-1.35 2.36-.12.09-.22.27-.24.41-.09 1.11-.83 1.68-1.75 2.06-.46.2-.84.4-.76.98-1.4-.03-2.36-.62-2.66-1.91-.91-.37-1.48.06-1.95.73-.53-.51-1.2-.8-1.27-1.58-.06-.61-.43-.89-.97-1.1-.39-.15-.63-.09-.91.2-.29.3-.1.51.03.75.38.68.75 1.37 1.21 2.2-.39-.25-.62-.43-.87-.54-.54-.23-1.08-.44-1.64-.61-.15-.04-.46.05-.51.17-.61 1.46-2.1 2.57-1.69 4.55-.38-.04-.68-.06-.98-.09-.15-.02-.36-.11-.44-.05-.56.45-1.09.93-1.71 1.48-.81-.57-1.66-.54-2.38.36-.02.03-.07.04-.11.05-1.21.22-1.9 1-2.24 2.13 0 .03-.06.05.01 0-.55-.18-1.02-.44-1.5-.45-.35 0-.5-.05-.64-.35-.22-.48-.38-1.21-.74-1.33-.42-.14-1.01.29-1.53.44-.39.11-.43.34-.37.69.06.33.17.73.05 1.01-.35.84-.79 1.61-1.76 1.97-1.07.4-2.03 1.01-2.7 2.01-.23.33-.62.57-.98.8-.72.45-1.69.63-1.68 1.79-.42-.2-.73-.35-1.21-.59-.11.96-.21 1.77-.3 2.59z"/><path d="m235.3 541.74c.69-.44 1.05-.64 1.59 0z"/><path d="m154.05 286.7v5.43h-23.71v-34.34h23.34v5.43h-16.8v8.82h15.31v5.38h-15.31v9.28z"/><path d="m166.1 288.27 2.46-4.41c2.92 2.41 6.17 3.29 9.33 3.29 4.32 0 6.82-1.48 6.82-4.13 0-2.78-2.88-3.99-7.19-5.2l-1.95-.56c-5.66-1.53-9.88-3.9-9.88-9.51 0-6.26 5.06-10.44 12.71-10.44 4.41 0 8.3 1.3 11.6 3.94l-2.92 4.55c-2.55-2.04-5.29-3.06-8.63-3.06-3.62 0-5.98 1.53-5.98 3.94 0 2.74 2.74 3.71 6.12 4.69l1.99.56c5.29 1.44 10.91 4.32 10.91 10.49s-5.29 10.16-13.18 10.16c-4.73 0-9.14-1.48-12.2-4.32z"/><path d="m202.46 274.86c0-10.53 7.29-17.54 18.19-17.54 5.62 0 10.16 1.86 13.55 5.52l-4.13 4.18c-1.95-2.51-5.24-4.27-9.33-4.27-6.91 0-11.51 4.87-11.51 12.16s4.69 12.25 11.6 12.25c4.64 0 7.84-2.09 10.02-5.43l4.41 3.94c-3.29 4.5-8.3 6.91-14.57 6.91-10.9 0-18.24-7.1-18.24-17.73z"/><path d="m246.71 279.13v-21.34h6.54v21.07c0 4.96 3.43 8.3 8.54 8.3s8.44-3.34 8.44-8.3v-21.07h6.54v21.34c0 8.07-5.98 13.46-14.99 13.46s-15.08-5.38-15.08-13.46z"/><path d="m315.18 286.7v5.43h-23.71v-34.34h23.34v5.43h-16.8v8.82h15.31v5.38h-15.31v9.28z"/><path d="m350.29 286.7v5.43h-21.72v-34.34h6.54v28.91h15.17z"/><path d="m383.41 285.3h-15.82l-2.78 6.82h-7.01l14.66-34.34h6.08l14.66 34.34h-7.01zm-2.19-5.43-5.71-13.97-5.71 13.97h11.41z"/><path d="m115.86 313.45h6.54v34.34h-6.54z"/><path d="m137.52 313.45h4.09l21.62 23.25-.14-23.25h6.54v34.34h-4.04l-21.62-23.25.09 23.25h-6.54z"/><path d="m208.82 318.87h-10.49v28.91h-6.54v-28.91h-10.44v-5.43h27.47z"/><path d="m244.26 342.35v5.43h-23.71v-34.34h23.34v5.43h-16.8v8.82h15.31v5.38h-15.31v9.28z"/><path d="m289.67 330.61c0 10.58-6.59 17.63-16.94 17.63s-17.68-7.05-17.68-17.63 6.96-17.63 17.68-17.63c4.92 0 8.95 1.25 12.16 3.8l-4.32 4.08c-1.81-1.67-4.36-2.46-7.75-2.46-6.59 0-11 4.87-11 12.2s4.36 12.2 10.95 12.2c5.71 0 9.47-3.53 10.02-8.96h-8.86v-5.43h15.64c.05.74.09 1.44.09 2.18z"/><path d="m315.45 335.16h-7.01v12.62h-6.54v-34.34h14.38c7.24 0 12.02 4.36 12.02 10.86 0 4.45-2.37 7.89-6.36 9.61l9.05 13.87h-7.7zm-7.01-5.43h6.63c3.9 0 6.5-2.18 6.5-5.43s-2.41-5.43-6.03-5.43h-7.1z"/><path d="m364.16 340.96h-15.82l-2.78 6.82h-7.01l14.66-34.34h6.08l14.66 34.34h-7.01zm-2.18-5.43-5.71-13.97-5.71 13.97h11.41z"/><path d="m406.59 342.35v5.43h-21.72v-34.34h6.54v28.91h15.17z"/><path d="m130.11 403.44-1.35-23.43-10.49 23.43h-3.62l-10.49-23.34-1.35 23.34h-6.54l2.32-34.52h7.19l10.67 23.8 10.67-23.8h7.19l2.32 34.52h-6.54z"/><path d="m167.45 398.01v5.43h-23.71v-34.34h23.34v5.43h-16.8v8.82h15.31v5.38h-15.31v9.28z"/><path d="m194.26 403.44-8.54-12.71-8.49 12.71h-7.56l12.44-17.77-11.55-16.57h7.56l7.61 11.46 7.61-11.46h7.56l-11.55 16.57 12.48 17.77z"/><path d="m205.75 369.11h6.54v34.34h-6.54z"/><path d="m247.74 403.44-1.62-1.9c-2.74 1.53-5.99 2.37-9.7 2.37-10.81 0-18.05-7.05-18.05-17.63s7.24-17.63 18.05-17.63 18 7.05 18 17.63c0 4.69-1.39 8.63-3.9 11.65l4.97 5.52h-7.75zm-5.62-6.4-5.66-6.5h7.42l2.18 2.46c1.02-1.9 1.58-4.18 1.58-6.73 0-7.33-4.5-12.2-11.23-12.2s-11.28 4.87-11.28 12.2 4.55 12.21 11.28 12.21c2.18 0 4.08-.51 5.71-1.44z"/><path d="m260.11 390.45v-21.35h6.54v21.07c0 4.97 3.43 8.31 8.54 8.31s8.44-3.34 8.44-8.31v-21.07h6.54v21.35c0 8.07-5.98 13.46-14.99 13.46s-15.08-5.38-15.08-13.46z"/><path d="m321.62 398.01v5.43h-23.71v-34.34h23.34v5.43h-16.8v8.82h15.31v5.38h-15.31v9.28z"/><path d="m328.06 369.11h4.09l21.62 23.25-.14-23.25h6.54v34.34h-4.04l-21.62-23.25.09 23.25h-6.54z"/><path d="m366.98 399.59 2.46-4.41c2.92 2.41 6.17 3.3 9.33 3.3 4.32 0 6.82-1.49 6.82-4.13 0-2.78-2.88-3.99-7.19-5.19l-1.95-.56c-5.66-1.53-9.88-3.9-9.88-9.51 0-6.26 5.06-10.44 12.71-10.44 4.41 0 8.3 1.3 11.6 3.94l-2.92 4.55c-2.55-2.04-5.29-3.06-8.63-3.06-3.62 0-5.98 1.53-5.98 3.94 0 2.74 2.74 3.71 6.12 4.69l1.99.56c5.29 1.44 10.91 4.31 10.91 10.49s-5.29 10.16-13.18 10.16c-4.73 0-9.14-1.49-12.2-4.32z"/><path d="m422.18 398.01v5.43h-23.71v-34.34h23.34v5.43h-16.8v8.82h15.31v5.38h-15.31v9.28z"/></g><path d="m97.53 430.33h323.33" fill="none" stroke="#818283" stroke-linecap="round" stroke-linejoin="round" stroke-width="2.5"/><path d="m97.53 238.26h323.33" fill="none" stroke="#818283" stroke-linecap="round" stroke-linejoin="round" stroke-width="2.5"/><path d="m343.45 97.45v-10.18h-11.74v-5.32l-1.59-.18c-5.94-.67-11.73-1.01-17.2-1.01-34.32 0-49.57 13.06-53.99 17.82-4.42-4.76-19.68-17.82-53.99-17.82-5.47 0-11.26.34-17.2 1.01l-1.59.18v5.32h-11.74v10.18h-9.31v119.35h86.58s1.32 3 7.26 3 7.26-3 7.26-3h86.58v-119.35h-9.31zm-30.53-12.86c4.86 0 9.98.27 15.24.82v104.8c-1.13-.05-2.73-.1-4.73-.1-11.19 0-39.08 1.72-62.71 17.11v-105.08c2.38-2.8 16.6-17.55 52.21-17.55zm-123.22.82c5.26-.55 10.38-.82 15.24-.82 35.63 0 49.85 14.77 52.21 17.55v105.08c-23.63-15.39-51.52-17.11-62.71-17.11-2 0-3.6.05-4.73.1v-104.8zm-11.73 117.75v-112.05h8.18v103.22l1.93-.17s2.4-.21 6.37-.21c10.57 0 36.46 1.56 58.89 15.3-7.56-2.49-36.81-10.86-75.36-6.08zm86.56 6.08c22.43-13.74 48.32-15.3 58.89-15.3 3.96 0 6.34.21 6.37.21l1.93.17v-103.22h8.18v112.05c-38.55-4.78-67.81 3.6-75.36 6.08z" fill="#979899"/><g fill="#808080"><path d="m292.8 138.65c0 2.09-1.28 3.79-2.86 3.79h-61.12c-1.58 0-2.86-1.69-2.86-3.79 0-2.09 1.28-3.79 2.86-3.79h61.12c1.58 0 2.86 1.69 2.86 3.79z"/><path d="m279.5 161.9 5.29-14.7h-25.41-25.41l5.29 14.7z"/><path d="m275.39 173.33 2.26-6.31h-36.54l2.27 6.31z"/><path d="m245.22 178.45 14.16 39.34 14.16-39.34z"/></g><path d="m257.42 129.96s-22.43.44-26.18-20.84c-3.74-21.23 20.97-29.27 15.76-47.21 0 0 20.57-.53 26.45 22.15 0 0 2.27-9.63 13.89-10.15 0 0-6.95 6.86-4.01 15.96s10.42 32.18-16.16 37.98c0 0 17.36-11.08 8.01-32.97 0 0-1.6 10.29-13.76 14.77 0 0 8.15-19.25-6.68-30.46 1.47 13.98-12.4 19.88-12.02 31.38.4 12 14.69 19.38 14.69 19.38z" fill="#cd5221"/><path d="m516.44 366.63-5.06-290.27s-28.69-30.38-97.88-54c-63.66-21.74-142.98-22.05-155.27-21.96-12.29-.09-91.6.22-155.26 21.96-69.19 23.62-97.88 54-97.88 54l-5.06 290.27s-3.38 67.51 67.51 123.2c70.88 55.69 190.7 128.26 190.7 128.26s119.82-72.57 190.7-128.26 67.51-123.2 67.51-123.2zm-74.53 112.57c-56.16 43.72-142.56 98.23-183.67 123.6-41.1-25.37-127.51-79.88-183.67-123.6-58.67-45.67-57.76-97.6-57.73-98.12l.04-.72 5.27-299.18c13.65-9.73 39.09-25.04 78.48-38.37 61.16-20.69 139.93-21.74 155.09-21.74h5.03c15.17 0 93.94 1.05 155.1 21.74 39.39 13.33 64.83 28.64 78.48 38.37l5.28 299.68c-.05 5.85-2.18 55.11-57.7 98.33z" fill="#144672"/><g clip-path="url(#a)"><path d="m153.64-15.84h67.51v47.93h-67.51z" fill="#00802f"/><path d="m221.16-15.84h67.51v47.93h-67.51z" fill="#fff"/><path d="m288.67-15.84h67.51v47.93h-67.51z" fill="#c6051c"/></g></svg>