<?xml version="1.0" encoding="UTF-8"?>
<svg id="Capa_1" data-name="Capa 1" xmlns="http://www.w3.org/2000/svg" version="1.1" viewBox="0 0 1142.4 481.4">
  <defs>
    <style>
      .cls-1, .cls-2, .cls-3, .cls-4, .cls-5 {
        stroke-width: 0px;
      }

      .cls-1, .cls-5 {
        fill: #ba4f17;
      }

      .cls-2, .cls-4 {
        fill: #4e4d4d;
      }

      .cls-2, .cls-5 {
        fill-rule: evenodd;
      }

      .cls-3 {
        fill: #ee7b0f;
      }
    </style>
  </defs>
  <path class="cls-1" d="M117.2,288.4v.8c-1.1-.2-2.2,0-3.5.5-1.1.3-1.9,1-2.2,1.8-.2.8-.3,2.8-.3,6v157.8c0,3.3.2,5.5.5,6.1.2.8.8,1.3,1.4,1.8.8.5,2.2.8,4.1.8v.7h-20.7v-.7c2.7,0,4.3-.5,4.9-1.6.6-1,.8-3.3.8-6.9v-157.3c0-3.8-.3-6.3-1-7.4-.6-1.2-2.2-1.6-4.8-1.5v-.8h20.7,0ZM1003,288.4v.8c-1.1-.2-2.2,0-3.5.5-1.1.3-1.9,1-2.1,1.8-.3.8-.5,2.8-.5,6v157.8c0,3.3.2,5.5.5,6.1.3.8.8,1.3,1.4,1.8.8.5,2.2.8,4.1.8v.7h-20.7v-.7c2.7,0,4.3-.5,4.9-1.6.6-1,.8-3.3.8-6.9v-157.3c0-3.8-.3-6.3-1-7.4-.6-1.2-2.2-1.6-4.8-1.5v-.8h20.7Z"/>
  <g>
    <path class="cls-5" d="M300.4,314l-10.7-.2-10.8,32.9,10.4-.3,11.1-32.4h0ZM948.9,314l10.7-.2,10.8,32.9-10.3-.3-11.2-32.4ZM875.3,314l10.7-.2,10.8,32.9-10.4-.3-11.2-32.4ZM799.5,314l10.7-.2,10.8,32.9-10.4-.3-11.2-32.4ZM550.2,124.6c8.6.2,17.5,14.5,17.8,28.2v17.7h6.4l-1.6,1.6c-2.5,2.6,2.4,7.3,6,7.3h47.2v6.8c0,9.1,7.2,16.5,15.9,16.5h4c.6-.2,1.3-.3,2.1-.3,4.8,0,8.6,4.1,8.6,9.1s-3.5,8.6-8.1,8.9v.5h10.4c-1.1,24.4,8.9,35,22.5,41.5v7.9h5.6v-15h12v-11.7l1-.3h-1.6.2c1-2.1.6-4.8,1.8-6.8-.8.6-1.6.2-2.5.5-1,.3-1.3,1.1-1.6,2-.3.8.3,1.6-1.6,2.5-.8.2-1.3-.5-1.6-.8-.2-.5-.3-1-.6-1.2-.2-.5-.3-.8.3-1.2,1.3-2.5,1.3-3.8,1.9-5.6.2-.3-.2-.7,0-1s.3-.2.8-.8c.2-.5,0-1,.5-1.5l-.3.3c-.3.2-1,.3-1.3-.2.8.7,2.2-.7,1.6-1.3.2.5-.3.8-.5.7.5.2.3-.7.3-1.1,0,.5-.2.8-.3.7.3,0,.2-.5.2-.7-.2,0-.3,0-.5.2.3-.5.6-.8,1.1-1-.2-.5,0-1-.2-1.5-.2-.3,0-.3.2-.2.5.5,0,.8,1,1.3-.2-.3-.2-.8-.2-1.3-.2-.3-.3-.5-.6-.7,1.4-.2,2.1,1.3,3,2.1.3-.2.8-.3,1.3,0,.2.5.8.3,1.3.8.3.2.2.7.8.7.5-.2.5.7,1.3,1,.3.2.5,0,.5-.5.2.3,0,.5-.2.8.3.2.5.3.8.7.3.5.6,1,1,1.6.3.3.8.3.8.8l.5,1.5.3-1.5c0-.5.6-.5.8-.8.3-.7.6-1.2,1.1-1.6.2-.3.5-.5.8-.7-.3-.3-.3-.5-.3-.8.2.5.3.7.6.5.6-.3.6-1.2,1.3-1,.6,0,.5-.5.6-.7.5-.5,1.1-.3,1.4-.8.5-.3.8-.2,1.1,0,1-.8,1.6-2.3,3-2.1-.3.2-.5.3-.6.7,0,.5,0,1-.2,1.3,1-.5.6-.8,1-1.3.2-.2.3-.2.2.2,0,.5,0,1-.2,1.5.5.2,1,.5,1.1,1-.2-.2-.3-.2-.5-.2,0,.2,0,.7.3.7-.3.2-.5-.2-.5-.7,0,.5,0,1.3.5,1.1-.3.2-.6-.2-.6-.7-.6.7.8,2,1.6,1.3-.2.5-1,.3-1.3.2l-.3-.3c.5.5.3,1,.6,1.5.5.7.6.5.6.8.2.3-.2.7,0,1,.6,1.8.6,3.1,1.9,5.6.6.3.5.7.3,1.2-.3.2-.5.7-.6,1.2-.3.3-.8,1-1.4.8-2.1-.8-1.3-1.6-1.8-2.5-.3-.8-.6-1.6-1.6-2-1-.3-1.8.2-2.4-.5,1,2,.6,4.6,1.6,6.8h.2-1.3l1,.3v11.7h11.9v15h14.8v4.3c0,8.3,6.5,15,14.5,15h17.5c.6-.2,1.3-.2,1.9-.2,4.5,0,8,3.6,8,8.3s-3.3,7.9-7.5,8.2v.2h215.5v3.1h-263.6v1.5h263.6v59.6h-28.2v-22.3l-3.3-.2-4.6-2.5v24.9h-.8v-26.3l4,2.1-11.3-32.4v56.5h-57.5v-22.3l-3.3-.2-4.6-2.5v24.9h-.8v-26.3l4,2.1-11.2-32.4-.2,56.5h-59.7v-22.3l-3.5-.2-4.5-2.5v24.9h-.8v-26.3l4,2.1-11.3-32.4v56.5h-172v-135.3h23.1v-4.1l-100-34.2-98.9,34.2v4.1h22.8v135.3h-172.2v-56.5l-11.1,32.4,4-2.1v26.3h-.8v-24.9l-4.6,2.5-3.4.2v22.3h-59.9v-56.5l-11.1,32.4,4-2.1v26.3h-.8v-24.9l-4.6,2.5-3.5.2v22.3h-57.5v-56.5l-11.1,32.4,4-2.1v26.3h-.8v-24.9l-4.6,2.5-3.4.2v22.3h-28.3v-59.6h261.5v-1.5H107.5v-3.1h215.5v-.2c-4.1-.3-7.3-4-7.3-8.2s3.5-8.3,8-8.3,1.3,0,1.9.2h17.4c8,0,14.6-6.8,14.6-15v-4.3h14.8v-15h11.8v-11.7l1.1-.3h-1.3c1-2.1.6-4.8,1.8-6.8-.8.6-1.6.2-2.5.5-.8.3-1.1,1.1-1.4,2-.5.8.1,1.6-1.8,2.5-.6.2-1.1-.5-1.6-.8,0-.5-.2-1-.6-1.2-.2-.5-.2-.8.3-1.2,1.3-2.5,1.3-3.8,2.1-5.6,0-.3-.3-.7-.2-1s.3-.2.8-.8c.3-.5.1-1,.5-1.5l-.3.3c-.3.2-1,.3-1.3-.2,1,.7,2.2-.7,1.8-1.3,0,.5-.3.8-.6.7.5.2.5-.7.3-1.1,0,.5-.2.8-.3.7.3,0,.1-.5.3-.7-.2,0-.4,0-.5.2.2-.5.5-.8,1-1,0-.5,0-1-.2-1.5-.2-.3,0-.3.2-.2.5.5.2.8,1.1,1.3-.3-.3-.2-.8-.3-1.3,0-.3-.3-.5-.5-.7,1.4-.2,1.9,1.3,3,2.1.3-.2.6-.3,1.1,0,.2.5.8.3,1.4.8.2.2,0,.7.6.7.6-.2.6.7,1.3,1,.3.2.5,0,.6-.5,0,.3-.2.5-.3.8.3.2.5.3.8.7.5.5.6,1,1,1.6.3.3,1,.3.8.8l.5,1.5.3-1.5c0-.5.6-.5,1-.8.3-.7.5-1.2,1-1.6.2-.3.5-.5.8-.7-.2-.3-.3-.5-.3-.8.2.5.3.7.6.5.6-.3.6-1.2,1.3-1,.6,0,.5-.5.6-.7.6-.5,1.3-.3,1.4-.8.5-.3.8-.2,1.1,0,1.1-.8,1.6-2.3,3-2.1-.2.2-.5.3-.5.7-.2.5-.2,1-.3,1.3,1-.5.6-.8,1-1.3.2-.1.3,0,.3.2-.2.5-.2,1-.2,1.5.3.2.8.5,1,1-.1-.1-.3-.2-.5-.2.2.2,0,.7.3.7-.1.2-.3-.2-.3-.7-.2.5-.2,1.3.3,1.1-.3.2-.6-.2-.6-.7-.5.7.8,2,1.8,1.3-.3.5-1,.3-1.3.2l-.5-.3c.5.5.3,1,.6,1.5.5.7.6.5.8.8,0,.3-.3.7-.2,1,.8,1.8.8,3.1,2.1,5.6.5.3.3.7.3,1.2-.5.2-.6.7-.6,1.2-.5.3-1,1-1.6.8-1.9-.8-1.3-1.6-1.8-2.5-.3-.8-.6-1.6-1.6-2-.8-.3-1.6.2-2.4-.5,1,2,.8,4.6,1.8,6.8h-1.4l.8.3v11.7h12v15h6v-7.9c13.4-6.4,23.6-17,22.3-41.5h10.4v-.5c-4.5-.3-8.1-4.1-8.1-8.9s4-9.1,8.8-9.1,1.4.2,2.1.3h4c8.8,0,15.8-7.4,15.8-16.5v-6.8h47.1c3.7,0,8.6-4.6,6.1-7.3l-1.4-1.6h6.2v-17.7c.5-13.7,9.4-28.1,17.8-28.2h.3,0ZM623.1,370.5h-18.8v-116.2h-108.6v116.2h-19v-132h146.4v132h0ZM224.6,314l-10.8-.2-10.8,32.9,10.4-.3,11.3-32.4ZM151,314l-10.7-.2-11,32.9,10.4-.3,11.3-32.4h0ZM449.4,229.6l-7.3-5,96.9-33.4v-3.3c0-6.1,4.8-10.9,10.5-10.9s10.5,4.8,10.5,10.9v3.1l98.1,33.5-8.3,4.6-100.2-34.2-100.2,34.5h0ZM720.3,303.9v-17.5c0-6.1-4.8-10.9-10.5-10.9s-10.5,4.8-10.5,10.9v17.5h21ZM379.6,303.9v-17.5c0-6.1,4.6-10.9,10.5-10.9s10.5,4.8,10.5,10.9v17.5h-21,0ZM641.6,261h9.9c-.3.5-.8,1-1,1.6h-5.4v6c-1.6.5-2.9,1.8-3.5,3.3v-10.9h0ZM660.6,261h9.9v10.9c-.8-1.6-2.1-3-3.8-3.5v-5.8h-5.1c-.2-.7-.6-1.2-1-1.6M670.5,277.1v11.4h-10.5c.6-.5,1.1-1.2,1.4-1.8h5.3v-6.1c1.8-.5,3-1.8,3.8-3.5M652.1,288.6h-10.5v-11.4c.6,1.5,1.9,2.8,3.5,3.3v6.3h5.6c.3.7.8,1.3,1.4,1.8M648.5,266.1h4.8v-.8c0-1.6,1.3-3,2.9-3s2.7,1.3,2.7,3v.8h4.5v5.4h1.8c1.4,0,2.7,1.3,2.7,3s-1.3,3-2.7,3h-1.8v6h-4.5v.3c0,1.6-1.3,3-2.7,3s-2.9-1.3-2.9-3v-.3h-4.8v-6h-1.4c-1.4,0-2.7-1.3-2.7-3s1.3-3,2.7-3h1.4v-5.4ZM439.5,266.1h4.8v-.8c0-1.6,1.3-3,2.9-3s2.7,1.3,2.7,3v.8h4.5v5.4h1.8c1.4,0,2.7,1.3,2.7,3s-1.3,3-2.7,3h-1.8v6h-4.5v.3c0,1.6-1.3,3-2.7,3s-2.9-1.3-2.9-3v-.3h-4.8v-6h-1.3c-1.6,0-2.9-1.3-2.9-3s1.3-3,2.9-3h1.3v-5.4ZM432.6,261h9.9c-.3.5-.8,1-1,1.6h-5.4v6c-1.6.5-2.9,1.8-3.5,3.3v-10.9h0ZM451.6,261h9.9v10.9c-.6-1.6-2.1-3-3.8-3.5v-5.8h-5.1c-.2-.7-.6-1.2-1-1.6M461.5,277.1v11.4h-10.5c.6-.5,1.1-1.2,1.4-1.8h5.3v-6.1c1.8-.5,3.2-1.8,3.8-3.5M443.1,288.6h-10.5v-11.4c.6,1.5,1.9,2.8,3.5,3.3v6.3h5.6c.3.7.8,1.3,1.4,1.8"/>
    <path class="cls-2" d="M338.2,179c1.9,9.8-2.4,17.5-6.1,25.6-2.4,5.6-3.5,12.4-5.4,18.2-1,3-1.8,4.6-2.5,6.3-1.6,3.5-7.2,7.1-4.9,17.4,1.3,7.1,2.2,10.7,4.5,18.5,1.3,3.8,1.4,9.3,6.2,11.1,3.5,2.3,8.9.8,11,5.1,8.1,6.4.2,7.1-3.8,7.1s-2.7,0-4-.5c-4.3.7-4.1-1-7.3-1.8-2.2-.3-5.4.3-6.7-1.3-1-1.3-1.9-2.6-2.4-4.6-.2-1-1.4-2.1-2.2-3.6-1.6-3,.3-2.5.5-6,.2-1.8,0-1.8-1.3-4.5-.8-1.5-4.8-10.6-6.4-13.2-1.6-2.8-3.2-5-4-8.1-.6-2.6-1.8-4-3.2-5.6-2.4-2.3-4.6-4.3-6.1-6.9-2.2-4-.8-5.6,1.9-8.9,5.6-6.9,9.9-16,3-21-13.1-10.4-16.6-19.8-16.1-30.9-1.1-.3-2.5-1.2-3.8-.5-2.5,1.5-6,10.4-5.9,14-.3,9.1-5.9,15.9-7.3,21.1-.2.5-1.3,4-1.3,6.3s.3,1.6-.5.2c-1.3-2.3-.5-3-.2-5.6-1.1,1.8-1.4,4-2.2,5.9-1.1,2.6-2.2,1.5-1.4-.7.8-1.8,1.3-4,1.4-5.9-1.4,2.5-2.4,5.3-3,8.1-.3,2-1,1-1.3,3.1-.5,1.5-.3,3.3-1.1,4.6-1.3-.8,0-3-1.1-3.5-.8-.3-.3-1.5-.3-2.3,0-1.2-.3-.8-.5.2-.6,3.8-1.3,7.6-.6,11.6,0,.8-.2.9-.5.3-.5-1.1-.2-2.8-1-3.6-.3-.3-.2-1.2-.2-1.5-.1-1.1-.3-.8-.3.2-.2,2.3.2,4.6-.3,6.9-1-.8-.6-2.3-1.1-3.5-.3.3-.8.7-1.1,0,0-.3.2-.7,0-.8-.3.5-.6,1.3-.6,2v2.3c0,2-.8,2.1-.8.3-.2-2.3-.5-4.6-.5-6.9-.6,1.2-1.4,2.8-1.6,5.6-1.8-2.1-.2-7.1-.3-10.1-.2.3-.6,1.2-1.1.8,1.1-2.5.6-4.1,1-6.3.3-1.3-.8-1.8-.6-.2.2.7-.8,1-1,1.6-.5,2.5-1.9,8.9-2.4,9.7-.6.7,0,1.6-.2,2.3-1.1-.5-.5-2.3-.6-3.5,0-2-.3-.7-.5,0-.8,3-.6,5.5-.8,8.8-1.3.3-.5-2.1-2.1-1.6-1-3.1,0-6.1,0-8.9-1,.5-.3,2-.8,3-.5,1.8-.2,4.1-.6,5.9-1.1,0-.6,4.5-.6,4.6-.3,0-1.6,0-1-3.1.2-1.3-.1-1.6-.6-.5-.3,1.1.2,3-1.1,3.3-.5.5,0,1.3-.3,1.8-1-.3-.6-1.6-.8-2.5,0-1-.3-.5-.3.3,0,1.3-.5,2.5,0,4-1.3-.2-1.6-2.3-1.6-3.8,1-4.3-.6-4.8-1.1-7.6-.6.7-.2,1.5-1.1,2.8-1.6,3.1-.8,4.9-.8,7.4-9.4-8.9,3.5-33.9,6.5-44.8,2.7-13.2,7.3-17.5,16.2-26.3,5.7-4.8,12.6-7.6,20.4-6.8,3.7-.2,9.2,4.1,13.1,1.8,1.4-1.3,4.6-6.9,8-12.6,1.1-2,11.1-12.7,13.4-14.9,7.3-7.4,16.1-6.9,22.8-18.8,1.9-2.8,4.9-8.6,7.6-11.6.6-1.5.8-2.3.5-3.6,0,0-.3-.5-.5-.3-.5,1.2-1.6,2.2-2.2,5.3-1.6-.7-.3-6.3-.1-7.4-.5.8-.8,1.3-1.4.8,1.1-1.3,1.1-3,1.1-3.3.3-1.2.3-2.3.2-3.5-.2-2.2-.6-6.8.3-8.4,1.6-2.5,1.6-6.1,2.5-9.1-.3-.2-1.4,1.3-1.3,0,.2-3.6,3.8-5.1,4.5-8.6,0-.2.3-1.8.2-2.5-.5.5-.6,1.2-1,1.8-.3.5-.6,1.2-1.4,1.2,1.1-1.8,1.3-3,1.4-3.3.8-3.1,1.9-6,3.4-8.6,1.3-2.5.6-4.1,1-5.6.1-1.8.8-2.3,1.9-3.8,1.9-2.5,5.1-3.5,6.2-6.8,1.3-4.3,6.1-6.4,7.3-9.9.8-2,2.1-3.5,3.8-4.1,2.4-1,4.5-1.1,5.4-3.8.5-2.3,3.3-2.3,4.8-3.6,1.4-1,2.2-2,3.3-3.1.3-.8.6-1.5,0-2.3-1.6-2.5-2.5-6.1-1.8-9.8.6-2.2,1.1-1.3,1.4-.2.3,2,3.4,3.1,3.8,4.3.6,1.8,1.1,3.3,2.4,4.6,1-.8,2.2-.7,3.3-.3,2.2,1,2.5,3.5,4.6,4.3,2.4,1.2,5.1.3,6.9,2.5,1.3,3.6,4.8,4.1,6.9,6.6,1.8,1.6,4.3,2.6,6.7,3.1.8.2,11.3,2.1,10.7,5.6-.3,2.5,1.9,4.1,1.1,6.8-.5,1.5-1.3,2.8-2.9,3.1-.3,1.7-1.9.2-2.4,1.3-.2.8-2.7,2.3-3.3,1.7-1.1-1-2.5-1.3-4-1.3s-9.7.3-13.5.2c-4.1,1.2-6.9,3.1-9.7,0-2.1,1.2-2.1,3.3-2.1,4.6s.2,2.5.5,3.8c.5,1.2-.2,4,0,5.8,1.4,11.1,4.8,12.2,9.9,19.5,3.7,5.3,5.1,8.6,4.5,17,0,.8.2,1.7,1,1.8,4.5-.2,9.2,2.5,13.5,1.5,1.6,0,3.2,0,4.8.2,5.6.3,7.2,1.7,8.1,6.6.2,1.3-.6,6.8-1,7.9,0,.8,0,1.7.3,2.3,1.4,3.6,3.3,5.1,5.6,7.1,1.6,1.7,1.8,2,1.1,3.8-.5,1.8,0,4,1,6.9.6,1.6,1.9,4.3.6,5.4-1.1,1.3-.5,4-1,5.6-1.1,3.3-2.7,2.1-6,0-1.4-1-2.7-2.5-3-4.3-.3-.8-.2-2-.2-2.6.2-.5.2-1-.3-1.5-1.1-1.3-.6-4.1.6-4.5.1,0,.5-.2.8-.3-.6-.8-.5-1.6-1.3-2.3-1.1,2.1-1.8,1.8-3,2.1-.5,0-.8.2-1,.5-.2,1-1.1,2-1.9,2.5-2.5,1.2-4.5,3.6-7.5,3.8-1.3.2-2.1,1.5-3.2,2.3-4.6,3.5-5.6-4-4.5-7.9.6-1.8,1.8-3,3.7-3.8.5-2.2,3.8-2.6,5.7-1.5,1.8,1-.2-1,1.8-3.1,1.8-2.7,4.1-5.9,2.5-9.6-.8-1.2-1.9-2.5-1.9-4-.3-.8-1-.7-1.6-.3-1.1.7-7.2,4.3-14.6,5.1-2.7.2-3.4,3.5-4.8,5.1-1.6,3-6.1,10.6-6.7,11.4-6.7,12.9-26.1,24-31.4,27.8-10.5,7.4-15,10.1-15.3,16.5v4h0Z"/>
    <path class="cls-2" d="M759.2,181.1c-1.9,9.9,2.4,17.7,6.1,25.8,2.4,5.6,3.5,12.4,5.6,18.2.8,3,1.6,4.5,2.4,6.3,1.6,3.5,7.2,7.1,4.9,17.3-1.3,7.1-2.1,10.7-4.3,18.5-1.4,3.8-1.4,9.3-6.4,11.1-3.5,2.3-8.9.8-11,5.1-8.1,6.4-.2,6.9,3.8,7.1,1.4,0,2.9,0,4-.5,4.3.7,4.1-1,7.3-1.8,2.4-.5,5.4.3,6.7-1.3,1-1.5,1.9-2.6,2.4-4.6.3-1,1.4-2.1,2.2-3.6,1.8-3.1-.3-2.5-.5-6-.2-1.8,0-1.8,1.3-4.5.8-1.5,4.9-10.6,6.4-13.4,1.6-2.8,3.2-5,4-7.9.6-2.6,1.8-4,3.2-5.8,2.4-2.3,4.6-4.1,6-6.8,2.2-4,.8-5.8-1.9-9.1-5.6-6.8-9.7-15.9-3-20.8,13.1-10.6,16.6-19.8,16.2-30.9,1-.5,2.4-1.3,3.7-.5,2.5,1.3,6.2,10.2,6,13.9.2,9.3,5.7,16,7.3,21.3,0,.5,1.3,4,1.1,6.3,0,.3-.2,1.6.6.2,1.1-2.3.5-3,0-5.6,1.1,1.6,1.6,3.8,2.4,5.9,1,2.6,2.1,1.5,1.3-.7-.8-1.8-1.3-4-1.4-5.9,1.4,2.3,2.4,5.3,3,8.1.3,1.8,1,1,1.3,3.1.5,1.5.3,3.3,1.1,4.5,1.3-.7,0-2.8,1.1-3.3.8-.3.3-1.5.3-2.3,0-1.2.3-.8.5.2.6,3.8,1.3,7.6.8,11.6-.1.7,0,.8.5.3.5-1.2,0-2.8,1-3.6.2-.3,0-1.2,0-1.5.2-1.2.3-1,.3.2.3,2.1-.2,4.6.5,6.8.8-.7.5-2.3,1-3.3.3.2,1,.7,1.1-.2,0-.2-.2-.5.2-.7.3.5.5,1.1.5,1.8v2.5c0,1.8.8,2.1,1,.2.2-2.1.3-4.6.3-6.8.8,1,1.4,2.8,1.8,5.6,1.6-2.1,0-7.1.2-10.1.2.2.6,1.2,1.3.8-1.3-2.5-.8-4.3-1.1-6.3-.3-1.3.8-1.8.6-.2-.2.7.8,1,1,1.6.5,2.3,1.9,8.9,2.4,9.7.8.7,0,1.5.3,2.3,1.1-.5.5-2.5.6-3.6,0-1.8.2-.7.3.2.8,3,.6,5.4.8,8.8,1.3.3.5-2.3,2.1-1.8,1-3,.2-5.9,0-8.9,1,.7.3,2.1,1,3.1.5,1.8.2,4,.6,5.9,1-.2.5,4.5.5,4.6.3,0,1.6,0,1-3.3-.2-1.1.2-1.5.6-.3.3,1.1,0,3,1.3,3.3.3.5-.2,1.3.3,1.6.8-.2.5-1.5.6-2.5.2-.8.3-.5.3.5s.5,2.5,0,4c1.3-.2,1.6-2.3,1.6-3.8-1-4.3.6-4.8,1.3-7.6.5.7,0,1.5,1,2.8,1.6,3.1.8,4.8,1,7.4,9.2-8.9-3.7-33.9-6.5-44.8-2.9-13.2-7.3-17.5-16.2-26.4-5.9-4.6-12.6-7.4-20.4-6.6-3.8-.2-9.4,4.1-13.2,1.8-1.4-1.3-4.6-6.9-7.8-12.6-1.1-2-11.3-12.7-13.5-14.9-7.3-7.4-15.9-7.1-22.6-19-2.1-2.8-5.1-8.6-7.7-11.4-.6-1.5-1-2.3-.5-3.6,0,0,.2-.7.3-.3.5,1,1.8,2.2,2.2,5.3,1.8-.7.3-6.3.2-7.6.6,1,.8,1.3,1.6,1-1.3-1.3-1.3-3-1.3-3.5-.2-1.2-.3-2.3-.2-3.3.3-2.2.6-6.8-.3-8.6-1.6-2.3-1.4-5.9-2.5-8.9.5-.2,1.4,1.3,1.3,0-.2-3.6-3.7-5.1-4.5-8.6,0-.2-.2-1.8-.2-2.5.5.5.6,1.2,1,1.7.3.7.8,1.3,1.4,1.3-1.1-1.8-1.3-3.1-1.4-3.3-.8-3.1-1.9-6-3.2-8.6-1.3-2.5-.8-4.1-1-5.6-.3-1.8-.8-2.3-1.9-3.8-1.9-2.5-5.2-3.5-6.4-6.8-1.3-4.3-6.1-6.4-7.3-9.9-.6-2-1.9-3.5-3.8-4.1-2.4-1.1-4.5-1.1-5.3-3.8-.5-2.3-3.3-2.3-4.9-3.6-1.4-1-2.2-2-3.3-3.3-.3-.7-.6-1.3.2-2.2,1.4-2.5,2.4-6.1,1.6-9.8-.6-2.3-1.1-1.3-1.3-.2-.5,2-3.3,3.1-4,4.3-.6,1.6-1.1,3.3-2.4,4.5-1-.7-2.2-.7-3.3-.2-2.1,1-2.5,3.3-4.6,4.3-2.4,1-5.1.3-6.8,2.3-1.3,3.6-4.8,4.3-6.8,6.8-1.8,1.6-4.3,2.5-6.5,3.1-.8.2-11.5,2.1-10.8,5.6.3,2.5-1.9,4-1.1,6.6.5,1.7,1.3,3,2.9,3.3.3,1.7,2.1.2,2.4,1.3.3.8,2.7,2.3,3.5,1.7,1-1,2.5-1.5,4-1.3.5,0,9.7.2,13.4.2,4.1,1.2,6.8,3,9.7,0,2.1,1.2,2.1,3.1,2.1,4.6s-.2,2.5-.5,3.8c-.5,1.2.2,3.8,0,5.8-1.4,11.1-4.6,12.1-9.9,19.5-3.7,5.3-5.1,8.6-4.3,17,0,.8-.3,1.7-1.1,1.8-4.5-.3-9.1,2.5-13.4,1.3-1.8.2-3.3.2-4.9.3-5.6.2-7.2,1.7-8,6.6-.3,1.2.6,6.6.8,7.9.2.8,0,1.7-.3,2.3-1.4,3.5-3.3,5.1-5.6,7.1-1.4,1.7-1.6,1.8-1.1,3.8.5,1.7.2,4-1,6.9-.6,1.6-1.8,4.1-.6,5.3,1.3,1.5.5,4,1,5.8,1.1,3.3,2.9,2.1,6,0,1.4-1,2.7-2.5,3-4.5.3-.8.2-1.8.2-2.6-.2-.3-.2-.8.3-1.3,1.1-1.3.6-4.1-.5-4.5-.3,0-.6-.2-1-.3.6-1,.6-1.8,1.3-2.5,1.1,2.1,1.8,2,3,2.1.5.2.8.3,1,.7.3,1,1.1,1.8,2.1,2.5,2.5,1,4.5,3.6,7.3,3.8,1.3.2,2.2,1.5,3.2,2.3,4.6,3.5,5.7-4,4.5-8.1-.5-1.6-1.8-2.8-3.5-3.6-.5-2.3-3.8-2.8-5.9-1.5-1.8,1,.3-1-1.8-3.1-1.8-2.8-4.1-5.9-2.4-9.6.6-1.3,1.8-2.5,1.8-4,.5-1,1-.8,1.6-.3,1.1.7,7.2,4.1,14.7,5,2.7.3,3.3,3.6,4.8,5.3,1.6,3,6,10.4,6.7,11.2,6.7,13.1,26.1,24.1,31.5,27.9,10.3,7.4,15,9.9,15.1,16.4v4h0Z"/>
    <path class="cls-2" d="M550.7,262.6c28.7,0,51.9,24.1,51.9,53.9s-23.2,53.9-51.9,53.9-51.9-24.1-51.9-53.9,23.3-53.9,51.9-53.9M502.6,316h39.7c0-1.6.6-3.3,1.6-4.6l-28-29.1c-8.1,8.8-13.1,20.6-13.2,33.7M559.1,316h39.5c-.2-13.1-5.1-25-13.1-33.7l-28,29.1c.8,1.3,1.4,3,1.6,4.6M598.6,318h-39.7c-.3,1.6-1,3.1-1.9,4.3l28,28.9c8-8.6,13.2-20.1,13.5-33.2M542.4,318h-39.7c.3,13.1,5.4,24.6,13.5,33.2l28-28.9c-1.1-1.2-1.8-2.6-1.9-4.3M584.1,280.8l-28,29.1c-1.3-1.2-2.7-1.8-4.5-2v-41.1c12.6.3,24,5.6,32.5,14M517.7,352.7l28-29.1c1.1.8,2.4,1.5,4,1.6v41c-12.4-.2-23.7-5.3-32-13.5M517.1,280.8l28,29.1c1.3-1.2,2.9-1.8,4.6-2v-41.1c-12.8.3-24.2,5.6-32.7,14M583.6,352.7l-28-29.1c-1.1.8-2.5,1.5-4,1.6v41c12.4-.2,23.6-5.3,32-13.5"/>
  </g>
  <path class="cls-4" d="M4.9,324.7v-1.5h86.3v16.7h-1.4v-.7c-.2-.2-.2-.3-.2-.7-1.3-4.8-3-7.8-5.3-8.9-2.2-1-5.6-1.6-10.2-1.6H30.4v62.3h40.9c3.5,0,5.9-.2,7.2-.8,1.3-.5,2.1-1.8,2.2-3.8h1.3v13.5h-1.3c0-3.3-2.1-5-6.1-5H30.4v56.5c0,5.3.6,8.8,2.2,10.2,1.6,1.6,4.3,2.3,8.1,2.3v1.3H4.9v-1.3c4.3,0,6.8-.8,8-2.5,1.1-1.6,1.8-4,1.8-6.9v-116.5c0-4.6-.6-7.9-2.1-9.9-1.3-1.8-3.8-2.8-7.7-2.8M188.3,384.7h15v.7c-2.2.2-3.8.7-4.8,1.5-.8,1-1.3,3-1.3,6v72.9l-61.6-68.1v59.3c0,2,.2,3.3.5,4.3.3.8.6,1.5,1.3,1.8.5.3,1.8.7,3.8,1v.7h-14.8v-.7c2.7,0,4.3-.5,4.9-1.5.6-1,1-3.3,1-7.1v-54.2c0-4.8-.6-8.6-1.9-11.6-1.3-3-4.1-4.5-8.8-4.3v-.7h14.5l57.8,63.9v-56.7c0-3-.5-4.8-1.4-5.5-1.1-.8-2.4-1.2-4.1-1.2v-.7h0ZM277.5,388.7l3,8.4h-.8c-7.5-7.8-16.2-11.6-26.4-11.6s-19,3.3-25.5,9.8-9.7,14.4-9.7,23.5,1.4,12.4,4.3,19.7c2.9,7.4,7.5,13.5,13.7,18.3,6.2,4.8,13.7,7.1,22.6,7.1s11.5-1,17-3c5.6-1.8,9.7-4.5,12.4-7.8l.6.3-5.4,8.6c-8.8,1.8-14.3,3-16.9,3.5-2.7.3-6.2.5-10.5.5-16.2,0-27.7-4-34.7-11.7-7-7.8-10.5-17-10.5-27.9s1.8-14.4,5.4-21.1c3.5-6.8,8.8-12.1,15.4-15.9,6.9-4,14.5-6,23.1-6s8.1.5,11.3,1.3c3.2.8,5.7,1.6,7.8,2.5l3.5,1.3c.2,0,.2.2.2.2M334.5,427.8h-22.5l-11.8,30.2c-.8,2.3-1.1,3.6-1.1,4.1,0,1.2.8,1.8,2.5,1.8v.7h-11.5v-.7c1.4,0,2.9-.5,3.8-1.2,1.1-.8,2.2-2.8,3.5-6.1l28-73.4h1.3l27.6,70.9c0,.3.6,2,2.1,5.1,1.4,3,3.7,4.6,6.5,4.6v.7h-18v-.7c1.6,0,2.4-.7,2.4-2s-.3-2.5-1.1-4.5c-.2-.2-.3-.3-.5-.7,0-.3,0-.5-.2-.5l-11.2-28.6ZM312.7,425.7h20.9l-10.4-27.4-10.5,27.4h0Z"/>
  <path class="cls-3" d="M397.4,412.3v-.7h23.6c5.9,0,10.7.5,14.2,1.5,3.4,1,6.4,2.5,8.9,4.6s4.6,4.8,6.2,7.9c1.4,3.3,2.2,6.9,2.2,10.9s-.8,7.8-2.4,11.4c-1.6,3.8-3.7,7-6.4,9.8-2.7,2.6-5.6,4.5-8.4,5.5-3,1-7.6,1.5-13.9,1.5h-24.1v-.5h.6c1.3,0,2.1-.5,2.5-1.5.3-1.2.6-3,.6-5.8v-38.5c0-3-.3-4.6-.8-5.3-.5-.7-1.4-.8-3-.8M414.9,412.8h-7.8v41.1c0,2.6.3,4.5,1.3,5.8.8,1.3,2.2,2.1,4.3,2.8,1.9.5,4.8.8,8.1.8,9.6,0,16.4-2.6,20.2-7.8,3.8-5,5.7-10.6,5.7-16.7s-2.5-13-8-18.3c-5.3-5.1-13.2-7.8-23.9-7.8M485.8,411c7.2,0,13.1,2.1,17.5,6.8,4.6,4.5,6.9,10.1,6.9,16.9s-2.5,16-8,22c-5.3,6-12.3,8.9-20.9,8.9s-12.9-2.3-17.5-7.1c-4.5-4.8-6.7-10.6-6.7-17.4s1.1-9.2,3.2-13.9c2.2-4.8,5.6-8.8,9.9-11.7,4.5-3,9.6-4.5,15.6-4.5M485.5,462.7c3.7,0,7-1,10.5-2.8,3.4-2,6.1-4.8,8.1-8.1,1.9-3.5,2.9-7.1,2.9-10.6,0-5.3-1.3-9.9-4-14-2.7-4.3-6.1-7.6-10.4-9.9-4.1-2.3-8.1-3.5-11.6-3.5-5.1,0-9.7,2-13.9,5.8-4.1,4-6.2,8.9-6.2,14.9s2.5,14,7.6,19.8c5.1,5.6,10.7,8.4,16.9,8.4M557.4,411.6h9.9v.7c-1.6,0-2.5.3-3.2,1-.6.5-.8,1.8-.8,3.8v48.2l-40.8-44.9v39.2c0,1.3,0,2.1.2,2.8.2.5.5,1,.8,1.2.5.3,1.3.5,2.7.6v.5h-9.9v-.5c1.8,0,2.9-.3,3.3-1,.3-.7.6-2.1.6-4.6v-35.9c0-3.1-.5-5.8-1.3-7.8-1-2-2.9-2.8-5.9-2.6v-.7h9.6l38.4,42.5v-37.5c0-2-.3-3.3-1.1-3.6-.6-.5-1.6-.7-2.5-.7v-.7h0ZM551.6,400.2h1.4c.2,2.3-.6,4.1-2.2,5.5-1.4,1.5-3.2,2.3-5.4,2.3s-3.2-.5-5.1-1.5c-1.8-1-3-1.6-3.7-2-.6-.3-1.4-.5-2.2-.5s-1.8.3-2.5,1c-.6.7-1,1.6-1.1,3h-1.4c-.2-2.5.6-4.3,2.1-5.6,1.6-1.5,3.2-2.1,5.1-2.1s1.4.2,2.1.3c.8.3,2.2.8,4.3,2s3.7,1.6,4.6,1.6c2.2,0,3.7-1.3,4.1-4M599.3,440.4h-14.8l-7.8,20c-.5,1.5-.8,2.3-.8,2.6,0,.8.6,1.2,1.8,1.2v.5h-7.7v-.5c1,0,1.9-.2,2.5-.6.6-.7,1.4-2,2.2-4.1l18.6-48.4h.8l18.3,46.8c0,.3.5,1.5,1.4,3.5,1,2,2.4,3,4.3,3v.5h-11.9v-.5c1,0,1.6-.3,1.6-1.3s-.3-1.5-.8-2.8c-.2-.2-.2-.3-.3-.5v-.3l-7.5-18.8h0ZM584.9,438.9h13.7l-6.8-18.2-6.9,18.2Z"/>
  <path class="cls-4" d="M653.9,385.5v-.8h48.6v10.9h-.8c-1-4-1.9-6.4-2.7-7.1-.6-.8-2.4-1.2-5.2-1.2h-25.5v36h23.7c2.4,0,3.8-.3,4.5-.8.6-.3,1-1,1-2h.8v7.6h-.8c-.2-1-.6-1.6-1.3-2.1-.6-.3-1.8-.5-3.5-.5h-24.4v24.8c0,3.6.5,6.4,1.1,8.1s1.6,2.6,3.2,3c1.4.5,3.7.7,6.5.7h13.5c4.5,0,7.2-.2,8.4-.5,1.1-.3,2.2-.8,3-1.8.8-.8,1.4-3,1.9-6.1h.8v11.1h-52.9v-.7c1.8-.2,3.2-.5,4.1-1.2,1-.5,1.3-2.1,1.3-4.6v-64.8c0-2.8-.2-5-.6-6.1-.5-1.2-2.1-1.8-4.8-1.8M784,464.7h-14.5v-12.2c-7.5,8.6-16.4,12.9-26.8,12.9s-13.7-2.3-18.2-6.8c-4.5-4.5-6.7-10.6-6.7-18.5v-47.9c0-3-.3-4.8-1-5.6-.8-.6-2.2-1.2-4.8-1.2v-.6h20.5v.6c-2.2,0-3.7.5-4.6,1.2-.8.7-1.3,2.3-1.3,5v44.1c0,9.1,2.1,15.7,6.2,19.7,4.1,4,8.9,5.9,14.2,5.9,8.4,0,15.8-4,22.3-11.7v-54.2c0-4.8-.5-7.6-1.3-8.6-.8-.8-2.1-1.3-3.8-1.3h-.6v-.6h20.2v.6c-2.5.2-4.1.7-4.8,1.3-.6.8-1,2.1-1,4.1v65.3c0,2.6.2,4.3.5,5.1.2.8.6,1.5,1.4,2,.8.5,2.1.8,3.8.8v.7h0ZM789.8,464.7v-.7c2.4,0,4-.5,4.6-1.5.8-1,1.1-2.5,1.1-4.8v-65.6c0-2.3-.3-4-.8-5.1-.6-1-2.2-1.5-5.1-1.6v-.6h20.7v.6c-1.9,0-3.2.3-4,.8-.8.5-1.3,1.2-1.6,1.8-.2.7-.3,2.1-.3,4.6v56.2c0,5,1.1,8.2,3.3,10.2,2.2,2,6,3,11.5,3h9.6c4.5,0,7.8-1.2,9.9-3.5,2.2-2.3,3.3-6.6,3.7-13h.6v19.2h-53.2ZM891.5,427.8h-22.6l-11.6,30.2c-.8,2.3-1.3,3.6-1.3,4.1,0,1.1,1,1.8,2.7,1.8v.7h-11.6v-.7c1.6,0,2.9-.5,4-1.2,1-.8,2.2-2.8,3.3-6.1l28-73.4h1.3l27.7,70.9c0,.3.6,2,2.1,5.1,1.4,3,3.5,4.6,6.5,4.6v.7h-18.2v-.7c1.8,0,2.5-.7,2.5-2s-.5-2.5-1.3-4.5c-.2-.2-.2-.3-.3-.7,0-.3-.2-.5-.2-.5l-11.2-28.6h0ZM869.7,425.7h20.9l-10.5-27.4-10.3,27.4ZM921.8,464.7v-.7c2.4,0,4-.5,4.8-1.5.6-1,1-2.5,1-4.8v-65.6c0-2.3-.2-4-.8-5.1-.5-1-2.2-1.5-5.1-1.6v-.6h20.9v.6c-2.1,0-3.3.3-4.1.8-.8.5-1.3,1.2-1.4,1.8-.3.7-.5,2.1-.5,4.6v56.2c0,5,1.1,8.2,3.3,10.2,2.2,2,6,3,11.5,3h9.6c4.5,0,7.8-1.2,9.9-3.5,2.2-2.3,3.3-6.6,3.7-13h.6v19.2h-53.2ZM1085.9,399.6h-39.8l-20.7,53.5c-1.4,3.8-2.1,6.3-2.1,7.1,0,2.1,1.4,3.1,4.5,3.1v1.3h-20.2v-1.3c2.7,0,5.1-.6,6.8-2,1.9-1.5,4-5,6-10.7l49.5-129.4h2.2l48.7,124.9c0,.7,1.3,3.6,3.8,9.1,2.4,5.4,6.2,8.1,11.3,8.1v1.3h-31.9v-1.3c3,0,4.5-1.1,4.5-3.5s-.8-4.1-2.2-7.8c-.2-.2-.5-.6-.6-1.1,0-.7-.2-1-.2-1l-19.8-50.4ZM1047.3,395.8h36.8l-18.3-48.2-18.5,48.2Z"/>
</svg>