<svg viewBox="0 0 420.33 722.3" xmlns="http://www.w3.org/2000/svg"><path d="m337.28 653.18c1.02 1.36 1.53 2.8 1.53 4.3 0 7.31-12.8 13.27-28.58 13.27s-28.64-5.96-28.64-13.27c0-11.76 25.23-14.32 31.41-13.57 6.91.75 13.02 2.11 19.49 5.43v-6.25c-3.13-1.21-7.05-2.34-10.25-2.86-13.81-1.73-32.43-1.73-44.57 8.74-.36.22-.8.53-1.31.98-6.26 5.43-5.53 10.48-3.71 14.85 1.38 3.31 7.34 7.39 10.32 9.27v.07c.08 0 .22.08.29.15.87.53 1.38.83 1.38.83v-.15c12.65 6.4 24.43 5.58 37.45 4.3 15.27-2.71 26.4-10.48 26.4-19.52 0-6.86-6.69-12.06-11.2-14.55v7.99zm-189.35-262.75v19.3c2.26-.23 4.51-.38 6.91-.38 2.11 0 4.22.07 6.33.3l.36-20.12zm-2.62 16.21v-15.9c-2.76 1.73-16.72 11.83-16.65 22.68-1.67 16.13 13.6 27.36 17.52 28.49 15.42 3.92 69.15 22.16 72.06 45.23 3.78 40.1-36.5 62.71-63.77 62.86l-2.04 22.84s8.73 18.02 37.16 28.12c17.67 3.77 28.21 2.71 34.83.45 7.13-2.87 17.23-9.42 21.96-16.73.87-3.09 1.45-6.03 1.97-8.37-.37-17.63-12.73-47.41-23.71-72.51 2.4-12.29 1.53-24.42-1.6-31.96-3.93-8.06-5.38-11.83-18.11-21.1-18.61-13.57-53.23-21.56-60.72-29.85-2.91-3.99-2.47-12.74 1.09-14.25zm102.9-99.57c2.98 3.47 5.45 6.79 7.64 10.55 18.03 5.2 34.1 11.08 47.92 16.13-.29-36.63-5.89-73.86-21.96-109.21l-33.59 82.53zm-3.57 282.43c-4.95 6.33-13.82 11.15-20.5 14.02-44.07 11.45-73.23-25.78-73.95-29.77-.73-3.77 1.6-20.5 2.03-23.51-1.31-.08-2.98 0-4.29-.08-.14 2.11-2.33 22.01-2.33 23.97 6.91 12.13 9.6 15.68 25.3 25.63 14.69 7.61 36.5 12.28 53.95 6.56.08 0 2.55-1.13.3-.08 8.21-3.62 11.27-6.03 13.52-8.44 2.55-2.33 6.11-7.76 5.96-8.29zm76.79 48.45c3.35.53 6.55 1.36 9.53 2.34l1.38-1.06v.08h-.08v-38.06h-.07v-.15h-23.92zm19.63 7.02c2.69 1.73 5.02 3.69 6.84 5.88l4.87-5.88zm10.04 11.3c.58 1.59.95 3.32.95 5.05 0 12.28-15.85 22.46-36.28 24.04l-15.99 12.51h-26.18l.95 13.34-6.4 11.08-49.3-.08-2.76-5.05-49.52-.3-2.98-10.4-26.47-.9-16.14-8.59-.58-11.31 1.31-12.43-32.87-.08-7.2-12.74-2.04-3.17v-12.81l5.45-15.53-19.99-.68c-4.29 5.88-13.6 10.71-31.78 10.78-30.76-.9-35.92-16.96-32.21-27.81 2.76-5.65 12.29-7.47 14.25-8.37v-196.42l18.76-25.02 3.78 1.13 18.76 25.03v158.81l5.16.08c-2.91-6.56-5.67-13.34-8.22-20.28l-15.42 16.43-.22.15 1.52 3.39 12.36.15v-155.34l-17.31-23.3-15.34 19.3v195.29c9.75-1.13 18.98-.76 28.58.53l-1.67-10.17 17.6-19.68-7.05-.22c0-.08 0 28.72 0 32.03-1.31-.23-3.42-.6-4.8-.75v-31.43l-23.71-.68-1.24-3.39-.58-1.81-4.73-13.26.22.15-.94-2.87 3.42-11.68 19.27-24.8c-.36-1.28-.65-2.64-1.02-4l-32.58-2.11-2.18-4.37-.65.08-3.06-16.36 5.46-9.2 22.69-23.67c-.58-5.13-1.09-10.32-1.6-15.6l-19.49-11.98-.51-.07-9.02-3.47v-14.92l8.14-6.56 8.22-4.07 11.27-14.47c0-1.73.15-4.29.22-6.03l-25.01 2.49s8.14-6.78 21.23-16.28l-15.71-8.97-6.47-6.78 1.75-18.47 9.6-2.11 19.71-.3c.94-6.03 2.04-11.99 3.27-17.86v45.9c1.53-1.05 3.05-2.11 4.58-3.17v-28.94l16-2.41v21.03c1.53-.98 3.05-1.88 4.65-2.86v-18.84l13.96-2.04v12.81c1.52-.9 3.05-1.73 4.65-2.56v-11.01l18.61-2.71v4.45c1.53-.68 3.06-1.36 4.66-2.03v-3.09l12.51-1.96c9.45-3.46 18.9-6.1 27.99-7.69v-20.5c-2.25-.3-5.38-1.21-6.03-3.69-1.46-5.12-1.02-9.2 2.4-12.74-.66-2.79-3.78-4.9-6.47-6.03v-21.48l17.23-3.99 5.67 16.58 6.04.08-5.67-17.71 4.58-.98 19.78 60.3c7.71.98 15.34.53 22.9 2.64l2.55-4.82c-6.76-.83-13.45-1.96-20.22-1.28l-19.05-58.19 5.24-1.28 3.64 11.68 54.9-12.14 6.4-15.6 16.72-4.45-37.74 98.21c2.26.45 4.58.98 6.91 1.43l37.81-101.3 7.78-1.89c2.03 6.56 1.6 11.31-1.75 18.84l-34.47 86.6c1.96.45 4 .98 5.97 1.51l35.85-89.77c2.83-6.56 2.55-12.36-.29-18.47l70.31-16.58 19.71 11.31 29.16-7.16-30.33-17.86-229.56 56.38v-20.43l7.27-1.96v-13.87l-14.25-4.83v-5.95l14.25 5.2v-56.45l-14.25-7.39v-6.03l14.25 7.61v-45.07l3.12-1.66v-4.44l-17.38-9.05v-5.95l17.38 9.27v-46.22l-17.6-10.7v47.03l-23.27 8.74v-53.36l23.27-11.08 61.15 37.99v44.85l4.07 2.34v-30.07l44.07-14.47 37.59 22.84v66.25c-.58 15.6-15.34 21.71-32.87 26.76v22.54l35.27-8.9v-146.16l26.76-10.03 25.38 15v-25.02l24.94-8.97v.83l31.92 17.03v146.22l17.53 11.08v23.89l-36.87 7.99 42.39 24.05-.44 19.14-2.61 7.24-22.54 22.38-.29 2.34 2.98-.3 33.09 15.45v28.79l-30.69 13.19v18.16l31.34 12.36v28.42l-30.25 5.81.14 20.72 27.27 20.81-.87 27.44-30.54-1.74-4.29 16.36 23.78 28.26-.36 22.76-4.22 4-31.85-2.78.07 7.83 21.67 34.37v7.23l-7.64 18.99h-35.04l11.85 33.92v5.43l-8.94 8.59zm-45.3 29.17c-8.44-.53-16.14-2.56-22.33-5.51l.51 4.98-9.96 6.63h24.21zm-30.76-37.23c2.47-2.19 5.53-4.15 9.09-5.8v-246.24l5.38-10.32h-.07l4.36-7.99h-.07l12.94-24.57 7.49-1.51 23.12 39.19v130.24h.14v.07l26.03 17.49h.44v4.97h-26.47v.15h-.14v49.3h-5.02v-199.29l-21.23-36.18-10.62 19.15-5.75 10.33-4.94 8.97-1.02 223.03v12.43l-4.66 2.27c-2.26 5.43-7.05 4.9-10.54 10.33l1.52 3.99zm39.7 5.58h-27.42c2.47-4.37 11.42-7.69 22.03-7.69 12.51 0 22.69 4.52 22.69 10.17s-10.18 10.1-22.69 10.1-21.74-4.14-22.61-9.35h28v-3.24zm22.47-14.7h.07v-37.84h.14v-.15h1.75l1.01 1.21 11.85 36.78h-14.83zm-5.02-43.87v-1.73l-15.64-17.26c-3.2 6.56-6.54 12.96-10.1 18.99zm-33.23-209.84 4.51-8.14 3.42-.3c.29 1.88.43 5.35.36 7.77zm-8.43-7.31-4.72 8.22-60.06 4.45c-1.16 8.22-3.2 17.56-5.82 23.66l51.34 147.66c.07.15.07.23.07.37-.43.83-.94 1.73-1.38 2.64-1.53.9-3.64 1.13-4.15-.38l-50.03-141.85c-2.33 3.84-5.46 11.46-9.16 14.02-1.02-1.89-4.95-7.54-6.33-8.74 11.78-16.96 18.69-45.83 13.16-69.35l11.2-1.06c1.46 8.74 2.69 15.45 1.53 25.17l64.35-4.82zm-254.73 229.51c-5.82-.08-22.91-.3-24.65 5.65-1.82 6.03 7.2 12.44 23.34 12.28 6.62 0 18.83-.6 22.4-8.14 1.96-4.75-5.02-7.23-8.14-8.06l.07.07c-4.72-1.13-10.11-1.73-13.02-1.8zm24.14 20.51h.14c-.58.45-1.16.83-1.82 1.2-2.76 1.73-5.31 2.41-5.31 2.41-5.09 1.74-11.42 2.56-19.56 2.56-23.63.15-31.99-14.54-28.21-22.23 3.85-7.69 23.92-7.39 32.43-7.23 2.54.08 6.84.38 10.62 1.05v.08c6.61 1.06 14.98 2.79 16.65 9.35.22.6.36 1.21.36 1.81s-.07 1.43-.21 2.18c-.51 4.07-2.69 6.94-5.09 8.82zm-44.94-14.33h22.18v2.19h-21.81c1.74 3.09 8.65 5.95 19.05 5.95 7.71-.07 14.47-2.04 17.52-3.69l-.14-5.58c-4.36-2.19-13.23-3.69-16.22-3.17-4.87-.08-18.98-.22-20.51 3.84 0 .15-.07.3-.07.45zm52.5 9.04c.29-2.03.51-4.74.51-6.63-.07-2.04-1.24-4.15-2.47-5.66l13.67-10.47c3.34 5.5 6.84 10.7 10.4 15.67l-2.47 7.08h-19.64zm-26.61-119-18.32-.3-6.33-.53 3.86-.3 18.47-9.35c.73 3.54 1.52 7.01 2.32 10.48zm-10.69-70.11-7.49-3.62 7.27 1.06c.07.83.14 1.66.22 2.56zm92.35 232.91-26.55.23 3.35-6.03 9.74-21.93c4.94 4.97 9.96 9.5 15.2 13.57l-1.74 14.17zm41.01 33.09-24.94-.6 3.85-9.57 3.49-22.77c5.16 2.49 12.22 4.9 17.6 6.48v26.45zm18.55 10.93 30.1-.15-1.96-3.54-2.18-31.06c-5.45.98-10.98 1.51-16.65 1.51-1.16 0-2.4-.08-3.56-.08l-2.69 26.38-3.05 6.94zm53.15-38.97h20.44l-4.95-13.57c-5.02 3.4-10.18 6.33-15.41 8.9zm22.76 6.33h-22.83l.51 27.66-1.82 9.8h28.87l5.53-7.39-2.77-17.56-5.52-7.01-1.96-5.51zm79.99-129.34h25.09l21.31 33.92h-30.47l-5.82-11.98-10.11-21.93zm15.93 40.25h31.19l-6.11 15.15-30.54-.45 5.45-14.7zm26.1-118.26-4.73 15.68-29.09-2.86c1.45-7.92 2.76-15.91 3.79-24.12l29.59 11.23.43.08zm-29.81 18.17 27.41 3.09 21.45 23.29-29.3-3.24zm19.63 29.09 30.25 2.34-.87 17.41-30.83-2.86 1.46-16.88zm15.35-113.96.14 20.65-32-3.39c.37-7.24.51-14.63.51-22.01v-3.31l31.34 8.07zm-25.82 22.76 27.48 2.79 19.78 14.17-26.69-3.69-20.57-13.26zm24.14 19.67 29.01 2.64-.44 18.92-30.25-3.55 1.67-18.01zm-345.77-241.04-2.04.22-7.42 18.09 9.46 11.83v-30.15zm0 64.06-18.25-6.03-5.96 20.58 24.21 23.97zm24 104.7c-.51 8.74-.37 15.83-.37 25.1 0 127.23 55.34 231.02 123.11 231.02 23.71 0 45.96-12.82 64.87-34.98-.08.08-.15.08-.23.08 1.31-1.58 2.77-3.31 3.93-4.82.07 0 .15 0 .15.07.95-1.28 1.89-2.49 2.84-3.77.22-.23.29-.38.29-.38.72-.98 1.45-1.96 2.18-3.01-1.31.75-2.69 1.43-4 2.11-.3.38-.51.75-.81 1.13-.22.15-.36.3-.51.53-.65 1.43-12.29 14.02-12.29 14.02s.08 0 .22.08c-11.28 10.7-27.7 20.88-48 19.82-40.29-2.11-64.5-34.07-67.77-37.31-3.2-3.24-1.24-5.58-1.24-5.58l12.94-30.75c-1.67-.45-3.34-1.05-5.02-1.66-1.89 3.99-10.62 22.99-12.15 25.85-1.74 3.24-5.24.6-5.24.6s-3.78-5.35-4.8-7.69c-.95-2.34 1.02-6.26 1.02-6.26l9.89-18.17c-1.53-.98-3.05-1.96-4.51-3.09l-10.03 20.2c-23.71-44.47-34.69-104.39-34.69-155.87l61.15-4.37c2.19-2.49 7.35-7.39 9.16-8.36l-69.88 5.12v-20.88l-10.25 1.21zm214.66 178.25c.95-2.11 1.97-4.22 2.9-6.4l-37.96-109.44c5.02-11.23 8.44-23.66 9.89-36.48l-8.29.45c-1.97 10.93-5.38 21.86-9.68 32.04l41.52 118.79c.29.68.88.98 1.6 1.05zm5.31-12.05c16.14-39.12 25.74-88.04 25.74-141.1 0-1.05-.14-1.5-.14-2.49l-42.1 2.56c-1.31 16.51-6.98 37.31-13.74 48.99l30.25 92.03zm-105.8-497.84v37.91l7.49 4.14v-37.76l-7.49-4.3zm-3.93 35.49v-37.99l-8.07-5.05v37.76l8.07 5.27zm-12.58-4.29-.15-41-9.23-5.73v45.6l5.45 3.32 3.93-2.18zm-59.19-55.25-18.61 8.89v50.95l18.61-7.01zm-23.27 11.08-13.96 6.63v49.14l13.96-5.2zm-18.62 8.89-16 7.61v47.03l16-5.95zm-16 60.45v50.27l16-5.43v-50.88l-16 6.03zm0 56.01v51.18l16-3.92v-52.69zm0 56.83v48.46l16-2.86v-49.52zm0 54.04v51.63l16-2.34v-52.16l-16 2.86zm0 97.76v4.9l-8.65.91s3.2-2.19 8.65-5.81zm16 3.32v-13.49c1.45-.9 3.05-1.81 4.65-2.79v15.83zm18.62-1.89v-22.46c1.52-.83 3.05-1.66 4.65-2.49v24.5zm23.27-2.41v-18.77l4.66 1.81v16.51zm0-26.76v-5.27c1.53-.68 3.06-1.43 4.66-2.11v9.2l-4.66-1.81zm27.92 23.97v-5.05l10.11 3.99zm0-13.19v-27.51c.58-.23 1.24-.45 1.89-.68l17.38 35.65zm0-41.91v-54.19l-23.27 4.14v53.52zm0-59.77v-54.12l-23.27 5.66v52.61zm0-59.77v-59.32l-23.27 7.84v57.13zm0-65.12v-53.44l-23.27 8.82v52.54zm-27.92 188.81v-53.36l-18.61 3.32v52.84l18.61-2.79zm-23.27 3.47v-52.68l-13.96 2.49v52.23zm23.27-62.41v-52.31l-18.61 4.6v51.03l18.61-3.31zm-23.27 4.14v-50.72l-13.96 3.39v49.82zm23.27-62.03v-56.76l-18.61 6.33v54.95zm-23.27 5.65v-54.49l-13.96 4.75v53.14l13.96-3.39zm23.27-68.14v-52.38l-18.61 7.01v51.71l18.61-6.33zm-23.27 7.92v-51.56l-13.96 5.28v51.03zm227.45-110.87 25.16 15.53v29.32zm-1.6 141.47 35.41-8.97-35.41-59.85zm51.71-12.66 11.27-3.24 14.54 8.44v-137.03l-25.81-13.49zm-161.14-59.25-30.1-16.51v124.52l30.1-7.61zm22.1 94.9 21.96-5.65v-22.69l-22.03-14.47zm5.53-48.39 18.83 12.28c11.42-2.94 25.23-6.48 30.03-18.92v-63.46l-22.98-12.81v70.7c-.43 5.2-12.29 9.42-25.88 12.21zm-6.11-60.07 9.38-3.85v37.23l-9.38 3.77v-37.16zm146.3 310.46 24.72 5.8 22.84-2.41-24.58-6.86zm25.46-10.4 28.87 9.65.29-18.01-28.36-10.78-.81 19.14zm-3.42-26.68v-15.75l-29.09-11.23c-.43.23-.94.53-1.38.83.51 8.59.58 17.19.22 25.7l.87.45zm-23.2-31.51 25.17 10.7 27.99-11.31-30.03-12.59c-5.96 4.37-15.56 8.82-23.12 13.19zm25.23-19.29 30.11 13.34v-16.81l-29.01-12.89-1.09 16.36zm-12.57-89.62 32.28 18.77v12.29l-32.07-18.32-.22-12.74zm30.83 36.93-23.27 22.61-29.45-16.28 22.18-23.07 30.54 16.73zm-56.87 12.36 30.18 15.98-.15 2.26-9.09.68-20.58 4.52c.44-7.84.29-15.6-.36-23.44zm-218 264.64s6.18-1.97 3.56-3.47-8.29-1.5-10.54-3.01c-2.26-1.59-2.91-3.47.29-3.85 3.27-.45 4.07-1.2 4.36-4.3.36-3.09 0-14.62 0-14.62s-2.25-2.18-4.65-3.77c.22 4.59.36 7.08-.07 5.5-.22.45-1.53-3.24-2.69-7.01-.22-.08-.51-.15-.73-.15-.15 0-.36-.08-.44-.08-1.75-.3-3.42-.6-5.02-.9.8 7.08 1.6 11.76 1.02 9.65-.29.61-2.33-5.8-3.71-10.25-1.38-.3-2.62-.68-3.78-.98 1.6 6.78 2.84 11.68 1.38 10.85-.44.75-3.27-7.91-4.51-11.83-5.31-1.88-8.29-3.99-8.29-6.26 0-2.04 2.4-3.99 6.69-5.65-.15-1.96-.29-3.92-.29-4.98 0-2.26-.29-7.31-.29-7.31s2.25-4.98 3.27-8.06c.94-3.09 4.51-.76.94 4.22-2.47 3.09-2.47 8.97-1.6 15.38 1.45-.53 3.13-.98 4.94-1.43-.07-.98-.07-1.81-.07-2.41 0-2.26.95-4.6.95-4.6s1.02-7.69 1.96-10.78 10.4-9.27 3.27-.37c-2.47 3.01-3.2 9.95-3.05 17.48 1.74-.46 3.63-.75 5.67-1.13v-1.74c0-2.34 1.31-3.47 1.31-3.47s2.26-13.12 3.27-16.21c.95-3.01 10.4-9.19 3.2-.38-2.69 3.39-3.64 12.06-3.85 21.18 4.22-.6 8.8-1.13 13.67-1.43 2.18-10.32 7.34-16.13 12.21-24.65-13.38-4.9-21.89-20.58-22.03-28.95-20.65 11.3-34.39 34-34.39 60.08 0 37.15 28.79 67.53 64.21 67.53 22.32 0 67.33-21.64 58.39-56.83-3.49 1.35-9.09 2.63-14.69 3.69-1.67 3.54-5.96 12.74-6.4 11.98-2.62 1.21.44-4.52 2.55-11.31-3.13.53-6.47.91-10.04 1.29 0 .07-.07.15-.07.22-1.97 2.64-4.87 5.73-4.87 5.73s.94 9.27-1.31 9.65c-2.33.37-3.27 2.34-3.27 2.34l-6.18 8.44s-2.26 3.47-5.24 4.97c-2.91 1.58-5.16 8.15-5.16 8.15 34.47 4.22 49.67-34.15 49.01-35.73 0 0 3.92-1.13.29 5.8-7.42 22.84-26.61 36.18-54.76 36.33-5.74-.15-8.22-.22-8.07-1.36-3.63 2.42-4.22-4.45-4.22-4.45l4.44-6.78s1.89-2.34 2.55-10.03c.29-3.47 2.33-6.03 4.36-7.76-.51.23-.95.38-1.38.45-2.62.38-6.18 8.06-5.89 10.78.36 2.72-1.31 6.56-4.22 7.69-2.91 1.2-3.56 5.8-3.56 5.8s-3.34 1.88-6.54 1.88c-2.18.08-25.23-13.64-16.8-15.08 4.51-.75 14.91 6.26 14.91 6.26zm231.89-318.45v-7.54l-16-8.52-14.84 8.29c3.2 8.29 5.38 16.43 6.69 25.33l24.14-17.56zm-117.29 112.53c1.6 4.22 4.43 10.47 6.62 23.89l-8.29.83c-.14-3.39-5.6-22.01-9.52-27.66l11.2 2.94zm20.51 22.31c-.15-2.71-1.74-11.76-4.14-17.56 24.07 6.93 42.47 13.64 42.47 13.64l-38.32 3.92zm-50.11-17.64c2.83 4.3 6.33 9.87 9.09 21.93l-11.28 1.21c-1.6-6.33-3.71-13.5-6.98-17.19l9.16-5.95zm-33.88-78.99 50.1-11.31-19.2 49c-6.9-.68-13.6-1.43-20.14-1.36zm-31.92 15.3v-8.29h13.31v8.44c-3.12-.68-9.74-.83-13.31-.15zm21.01 7.91 1.53-1.51 9.89 32.11c-1.74-.15-4.51-.23-6.25-.38l-6.76-22.08c1.24-1.89 3.27-5.65 1.6-8.14zm47.48 186.02c-3.27-9.72-8.36-17.11-15.2-25.18-11.63-12.96-28.14-21.03-46.32-21.03-3.42 0-6.69.3-9.96.83-.08 2.56.22 5.28 1.6 6.63 20.94 14.4 52.21 16.58 69.88 38.74zm-89.73-51.55-28.07 1.73c-1.38 11-.14 32.56-.14 32.56l-.15 1.13c6.54-10.78 15.7-19.6 26.69-25.4-.07-3.62.36-6.78 1.67-10.03zm35.05-122.71c-.36-.23-.8-.38-1.16-.6-1.74-.91-4.51-2.71-5.96-2.56-1.16.15-4.44 1.73-6.33 2.34v20.28c2.25-.3 4.51-.6 6.76-.76 2.11-.23 4.29-.3 6.47-.38zm1.82-4.52c-2.76-.68-6.62-3.62-9.23-3.32-1.09.15-4.44 1.88-5.6 2.04-1.16.08-5.38-.3-6.11-2.86-.66-2.56-.8-1.88.14-4.37 1.16-1.73 3.34-4.52 5.96-4.22 3.13-.68 12.14-.23 13.52.6 1.46.9 4.07 3.39 4.07 6.56s-2.76 5.58-2.76 5.58zm-12.22 5.58h-1.67v12.59h1.67zm0 14.24h-1.67v1.43h1.67zm-4.07 35.73h5.02v-22.23c2.04-.3 4-.53 5.89-.68 1.16-.07 2.4-.15 3.56-.23l-.36 23.44-6.69 16.43zm-1.53-21.03v17.79l-7.2-16.06c2.47-.68 4.87-1.28 7.2-1.74zm2.84 1.73h-1.89v2.19h1.89zm0 9.42h-1.89v7.39h1.89zm15.27 64.15-.29 14.92s14.54-1.28 13.89-10.55c-.65-9.65-7.27-15.6-15.27-15.53-12.44 0-22.98-1.43-27.85-9.95l-14.11 2.04c-2.84 4.45-1.09 11.38 3.27 12.66 3.56.76 11.71 2.72 14.62 2.72s20.14 1.13 20.14 1.13c2.62.15 5.67.98 5.6 2.56zm-28.21-22.69c4.8 5.35 10.4 8.52 17.23 8.52h8.87l.22-11.23zm174.74-23.59-283.23 29.09s76.71-58.49 130.45-62.86c56.86-4.45 152.78 33.77 152.78 33.77zm-115.26-29.17c4.44.98 12.94 7.24 13.82 9.05l-8.95 5.5c-5.16-5.5-13.09-10.78-21.01-12.96l1.45-3.17c4.8.38 9.74.9 14.69 1.58zm-28.29 41.76 57.73-36.41c-1.6-.38-3.12-.68-4.73-.98l-59.77 37.46-.29.68-.8.08 7.85-.83zm-18.03.9.44.91 2.1-.23-18.76-39.72c1.31-.38 2.54-.83 3.85-1.21l18.25 40.62-11.86 1.21-55.12-21.48c1.38-.68 2.76-1.43 4.22-2.11l56.86 22.01zm-17.6-38.59h-.14zm47.27-5.8-20.8 44.39-2.91.38 18.62-45c.14 0 6.91.38 5.09.23zm147.18 32.63-313.27 31.58s84.13-65.73 143.4-70.17c62.97-5.05 169.87 38.59 169.87 38.59zm-135.19 131.98v15.76c1.75-.15 3.42-.38 5.02-.6 1.02-4.22 1.31-8.44-.51-11.53-.94-1.28-1.38-2.41-1.53-3.31-.94-.08-1.96-.22-2.98-.3zm-5.81 16.36c.15-4.15.22-13.8-.73-17.04-1.6-.15-3.27-.3-4.94-.38-.95 2.11-1.31 4.07.14 5.05 2.91 1.96 1.31 8.9-1.02 10.03-.8.38-1.74 1.44-2.62 2.94 3.2-.15 6.25-.38 9.16-.6zm-16.43-36.63c-6.98 4.3-4.3-.23-4.37 15.9h1.02c.58-1.36 1.24-2.41 1.24-2.41s5.53-2.34 6.47-9.27c.15-1.06.51-1.81.87-2.26-1.53-.76-3.71-1.28-5.23-1.96zm13.74 6.4c.44 2.26.87 5.43.07 7.08-.43.83-1.09 1.96-1.82 3.24 5.02.45 9.74.98 13.96 1.66.36-.23.73-.16 1.09.15 3.56.52 7.93 1.5 10.76 2.18-3.42-5.2-13.38-10.4-24.07-14.32zm30.98 24.8c-.29-2.71-2.4-6.1-4.14-7.76-3.35-1.13-6.91-1.58-10.26-2.11-.65-.07-1.38-.22-2.11-.3.73 2.11 1.67 4.07 2.4 6.1.15 1.81.29 3.32.29 3.32v4.37c5.82-.97 10.98-2.26 13.82-3.62zm-91.34 4.52c-.22-4.45-.36-9.88-.36-15.23 4-.53 8.43-.98 13.16-1.28-.8 3.84-1.67 8.14-2.47 11.98-1.31 6.56-7.13 4.22-8.73 4.22-.36 0-.94.15-1.6.3zm-4.36-14.7c-.15 2.56-.22 5.2-.22 5.2l-.36 4.6s.58 2.04 1.38 4.52c-1.96-.23-3.78-.53-5.53-.83-.36-3.92-.73-8.29-.87-12.59 1.74-.3 3.56-.61 5.6-.91zm-8.51 1.51c.22 2.64.44 5.2.44 5.2l-.37 4.6s.14.6.44 1.51c-1.24-.3-2.47-.61-3.56-.91-.65-2.87-1.31-6.03-1.74-9.05 1.38-.45 2.98-.9 4.8-1.36zm-6.98 2.11c.14 1.58.22 2.72.22 2.72l.58 4.52c-3.05-1.13-4.73-2.41-4.73-3.77 0-1.2 1.38-2.33 3.93-3.47zm76.5 15.45c-1.31.08-2.62.15-4 .23-.8 2.64-1.31 6.03-1.02 10.17.66 9.2-6.47 11.16-8.8 11.91-2.25.75-6.47.38-7.13 4.22-.65 3.84-2.62 6.93-4.22 7.68-1.24.61-2.55 3.24-4.8 5.88 3.34-2.11 8.29-4.22 9.02-5.05 1.6-1.96 4.58-6.93 4.58-6.93s1.6-2.34 5.16-3.47c3.56-1.21 6.18-6.93 6.18-6.93s-.29-5.05 1.96-7.69c2.25-2.71 2.91-6.94 2.91-6.94s-.07-1.73.15-3.09zm-16.95.68c-.87.08-1.74.08-2.69.08-.36.53-.65.76-.65.76s-1.31 5.42-1.31 7.68c0 1.29-1.02 2.94-2.33 4.23 1.67-1.06 2.98-1.51 2.98-1.51s4.87 2.34 3.93-6.56c-.22-1.66-.14-3.24.07-4.68zm2.91-22.16c-.07 1.43.29 2.87 1.89 3.77 4.22 2.26-.36 8.82-.36 8.82s-2.4 2.34-3.78 6.56h-1.53c1.46-3.39 3.13-9.27 3.35-19.22.14 0 .29 0 .43.07z" fill="#682145" fill-rule="evenodd"/></svg>