<svg viewBox="0 0 1501.93 459.96" xmlns="http://www.w3.org/2000/svg"><path d="m1042.02 229.7c0-126.14 102.01-230.13 230.87-229.7 126.59.42 229.78 102.94 229.04 231.57-.73 126.68-104.11 229.45-232.23 228.38-124.81-1.05-227.98-102.87-227.68-230.25zm363.88-100.58c.2.31.54.57.78.25.29-.38-.18-.5-.45-.63.18-.66-1.35-1.59-.18-1.8 1.76-.32 1.1-1.33.84-2.01-.32-.83-.42-1.62-.4-2.48.04-1.45-.58-2.42-2.06-2.74l.03.03c.24-.91-.43-1.37-.91-1.97-4.07-5.05-8.7-9.56-13.38-14.02-7.76-7.39-16.21-13.92-25.24-19.67-11.04-7.04-22.72-12.84-35.1-17.14-4.01-1.39-7.95-3.16-12.28-3.44-.19-.45-.59-.52-1-.68-2.64-1.04-5.44-1.13-8.2-1.4.14-.16.28-.32.42-.48-.07-.03-.13-.08-.2-.1-2.51-.51-5.01-1.1-7.54-1.51-13.37-2.16-26.82-2.99-40.35-2.09-9.18.61-18.28 1.95-27.26 3.94-8.4 1.87-16.59 4.51-24.68 7.5-6.57 2.43-13.01 5.26-19.04 8.67-7.59 4.3-14.97 9.03-21.96 14.38-5.92 4.54-11.57 9.34-17.03 14.39-5.29 4.88-9.76 10.52-14.42 15.97-2.98 3.49-5.76 7.21-8.25 11.02-4.42 6.78-8.14 14.01-11.88 21.22-4.74 9.16-8.1 18.78-11.07 28.57-1.88 6.18-2.71 12.6-4.08 18.89-1.11 5.09-1.81 10.28-1.92 15.38-.21 9.6-.49 19.21.28 28.84.45 5.62 1.59 11.11 2.43 16.63 1.09 7.15 3.07 14.17 5.34 21.09 3.03 9.24 6.74 18.2 11.33 26.72 6.13 11.36 13.33 22.04 21.75 31.89 11.15 13.05 23.93 24.2 38.37 33.44 16.27 10.41 33.75 18.06 52.6 22.49 10.49 2.46 21.09 4.15 31.84 4.64 20.36.93 40.36-1.38 59.87-7.45 29.14-9.07 54.13-24.78 75.13-46.89 9.44-9.94 17.49-20.94 24.32-32.79 3.52-6.1 6.67-12.47 9.39-18.96 2.08-4.96 3.66-10.16 5.37-15.29 4.3-12.88 6.59-26.13 7.5-39.58.93-13.83.33-27.68-2.05-41.37-.28-1.63 0-3.57-1.4-5.32-.11.92-.19 1.49-.27 2.13-.51-.54-.63-1.1-.76-1.7-.64-3.01-1.33-6-2.05-8.99-.12-.52.25-1.43-.62-1.47-.95-.05-.81.93-1 1.54-.56 1.9-.91 3.83-1.03 5.81-1.48-1.06-.47-2.73-.99-4.03-.32-.81-.61-1.85-1.43-2-1.08-.2-.86 1.07-1.16 1.69-1.38 2.82-.64 5.97-1.51 8.99-3.48 12.07-7.21 24.03-11.98 35.66-.93-1.15-2.42-2.18-2.68-3.46-.64-3.13-3.72-5.16-3.55-8.57.03-.66-.19-1.35-.85-1.79-3.19-2.09-2.87-5.74-2.34-8.39.55-2.79.65-5.57.97-8.33.17-1.54 1.37-4.03-1.96-4.11-.13 0-.39-.41-.37-.61.27-2.7.1-5.64 1.81-7.82 1.22-1.56 1.82-3.03 1.74-4.89-.07-1.68.51-3.02 1.36-4.53 1.27-2.27 3.31-4.4 2.41-7.61-.33-1.19-1.08-2.79-.13-4.16 1.42-2.06 1.12-4.47 1.25-6.72.09-1.43 0-1.62 1.56-1.37 1.36.22 3.75 1.09 3.73-2.07 0-.17 1.18-2.58 3.15-2.53 2.63.07 3.37-1.31 2.14-3.58-1.59-2.92-3.44-5.72-4.8-8.74-.92-2.04-2.15-2.72-4.25-2.38-.11 1.74 2.36 2.88.97 4.94-1.19 1.76-.66 3.56.55 5.18.57.76 1.28 1.58.69 2.55-.97 1.57-2.08 3.05-3.16 4.55-.06.08-.52 0-.68-.15-1.58-1.29-4.34-.48-4.86-3.95-.47-3.09-1.71-6.33-3.54-9.15-.55-.84-.99-1.93-.05-2.84.85-.82 1.94-.45 2.94-.33.41.05.79.33 1.2.4.53.1.97.84 1.62.21.58-.57.2-1.11.02-1.66-1.31-4-3.55-7.28-7.21-9.51-1.05-.64-2.45-1.43-.11-2.31zm-287.9-25.27.25-.48c4.19.24 8.4.3 12.57.79 2.78.33 4.47-.75 6.1-2.78 1.17-1.46 1.18-2.28-.3-3.51-4.57-3.78-9.05-7.67-13.51-11.58-4.05-3.55-3.96-3.52-7.62.52-1.23 1.36-.93 2.03.3 3.03 2.76 2.25 5.43 4.6 8.66 7.37-4.96-.27-9.25-.27-13.48-.8-3.03-.37-4.76.95-6.39 3.13-.9 1.2-1.01 1.78.29 2.85 4.64 3.83 9.15 7.82 13.68 11.79 4.11 3.61 4.04 3.59 7.75-.49 1.08-1.19 1.06-1.79-.21-2.82-2.78-2.23-5.4-4.66-8.08-7.01zm200.75-55.14c6.23.05 10.47-3.07 12.43-8.56 1.9-5.32.73-10.56-3.33-13.82-4.72-3.79-10.73-3.85-16.24-5.34-.71-.19-1.02.37-1.17 1.05-1.72 7.37-3.47 14.73-5.2 22.1-.2.84-.06 1.58.95 1.78 4.46.9 8.8 2.36 12.56 2.79zm-59.24-5.06c2.09.22 4.16-.18 6.2-.8 5.78-1.76 8.71-6.26 8.5-13.09-.18-5.77-3.77-10.23-9.4-11.37-4.69-.95-9.41.17-14.11.21-1.46.01-1.37 1.23-1.32 2.3.38 7.12.78 14.25 1.1 21.37.06 1.44.59 2.03 2.03 1.9 2.31-.21 4.62-.35 7-.52zm-45.62 8.25c-2.93-1.69-5.58-3.24-8.26-4.73-.91-.51-1.33-.87-.44-1.88 3.01-3.38 1.92-7.44.36-9.8-1.91-2.88-5.79-4.23-9.39-3.29-4.25 1.12-8.17 3.17-12.28 4.68-1.4.51-1.22 1.33-.77 2.42 2.7 6.61 5.39 13.22 8.02 19.86.62 1.56 1.36 1.8 2.93 1.2 4.88-1.86 4.91-1.78 2.9-6.42-.17-.39-.47-.74-.58-1.15-.21-.77-.89-1.6.14-2.31.89-.62 1.73-.59 2.59.1.6.48 1.29.86 1.94 1.27q5.79 3.64 12.02.65c.15-.07.27-.2.8-.61zm-38.21-10.9c-.39.18-.72.3-1.01.47-4.93 2.81-9.85 5.64-14.79 8.43-1.08.61-.84 1.17-.33 2.07 3.62 6.35 7.21 12.72 10.74 19.12.78 1.41 1.52 1.48 2.82.71 4.82-2.84 9.66-5.63 14.55-8.34 1.24-.69 1.33-1.38.59-2.44-.44-.63-.89-1.28-1.21-1.98-.64-1.4-1.34-1.7-2.77-.79-2.68 1.71-5.53 3.15-8.26 4.78-1.44.86-1.93 0-2.58-1.04-.68-1.09-.39-1.65.66-2.21 1.89-1.02 3.72-2.16 5.59-3.21 3.68-2.07 3.64-2.03 1.49-5.52-.75-1.22-1.49-1.47-2.71-.72-2.34 1.44-4.74 2.79-7.1 4.21-1.02.61-1.76.77-2.48-.54-.68-1.25-.58-1.94.7-2.63 2.65-1.43 5.25-2.95 7.82-4.51.55-.33 1.91-.43 1.26-1.49-.91-1.48-1.25-3.4-2.96-4.36zm238.24 43.44c-.22-.87-.8-1.27-1.31-1.72-1.92-1.72-3.81-3.48-5.79-5.13-.88-.74-1.62-1.22-.5-2.4.91-.96 1.59-1.39 2.74-.31 1.76 1.64 3.63 3.16 5.47 4.71 2.85 2.39 2.79 2.31 5.37-.38 1.29-1.34 1.15-2.04-.26-3.23-4.02-3.36-7.93-6.87-11.76-10.45-1.23-1.15-1.88-.95-2.87.19-4.72 5.47-9.47 10.91-14.27 16.3-.96 1.08-1.01 1.76.12 2.73 4.25 3.63 8.45 7.32 12.62 11.03 1 .89 1.74.87 2.56-.16.48-.6 1.02-1.18 1.59-1.69 1.21-1.08 1.02-1.83-.23-2.85-2.47-2-4.72-4.27-7.16-6.31-1.28-1.07-.72-1.71.06-2.71.87-1.11 1.43-1.11 2.43-.16 1.87 1.77 3.85 3.43 5.84 5.07.66.54 1.22 1.8 2.32 1.07 1.37-.9 2.22-2.33 3.04-3.61zm-309.13 52.87c4.32.03 8.42-2.87 10.54-7.46 2.88-6.24 1.41-11.37-4.38-15.1-2.6-1.68-5.27-3.25-7.9-4.88-4.43-2.76-4.35-2.72-7.02 1.62-.93 1.51-.63 2.19.76 3.03 3.32 1.99 6.57 4.09 9.83 6.17 1.46.93 2.91 1.96 3.24 3.82.32 1.83-.34 3.39-1.75 4.6-1.47 1.27-3.18 1.44-4.8.52-2.99-1.69-5.88-3.55-8.82-5.34-4.86-2.97-4.8-2.93-7.73 2.01-.69 1.17-.44 1.53.55 2.14 3.59 2.2 7.08 4.55 10.68 6.73 2.06 1.25 4.26 2.28 6.79 2.15zm185.02-118.96c-1.8-.51-2.9.44-3.89 2.33-3.18 6.09-6.55 12.09-9.9 18.09-2.11 3.77-2.15 3.73 2.15 4.3 2.06.27 3.96.39 4.65-2.23.32-1.2 1.24-1.48 2.42-1.37 2.39.23 4.79.51 7.19.53 1.72.01 2.78.47 3.03 2.3.26 1.84 1.33 2.63 3.23 2.48.92-.08 1.88.14 2.81.31 2.02.36 2.42-.31 1.73-2.21-2.4-6.62-4.7-13.28-7.01-19.94-1.52-4.38-1.5-4.38-6.41-4.58zm-66.23 5.14c-3.43.06-6.63.86-9.48 2.84-3.23 2.24-4.24 4.9-3.2 8.43 1.01 3.42 3.48 5.29 7.32 5.27 2.23-.01 4.45-.37 6.67-.49 1.04-.06 2.15.03 2.37 1.42.19 1.23-.53 1.95-1.56 2.38-2.28.95-4.72 1.53-7.01.54-2.14-.92-3.13-.35-3.71 1.68-.09.33-.23.66-.43.93-1.35 1.85-.47 2.62 1.35 3.26 5.92 2.09 11.14.57 16.02-2.9 1.31-.93 2.54-1.96 2.87-3.72.96-5.08-2.49-9.52-7.68-9.79-2.23-.11-4.45-.04-6.67.43-1.16.24-2.36-.13-2.58-1.51-.19-1.2.67-1.84 1.76-2.18 1.81-.56 3.62-1.12 5.55-.58.74.2 1.63.5 1.99-.51.5-1.44 2.02-2.83 1.39-4.26-.61-1.36-2.5-1.15-3.94-1.26-.34-.03-.69 0-1.03 0zm-70.1 51.15c-3.73-2.44-6.96-4.24-9.83-6.51-3.48-2.74-6.37-3-9.64.37-1.36 1.4-1.58 1.81.14 2.79 6.13 3.48 12.35 6.83 18.26 10.65 3.01 1.95 4.98 1.63 7.53-.6 1.49-1.3 1.87-2.3 1.37-4.09-1.78-6.37-3.42-12.77-5.17-19.15-1.41-5.14-1.37-5.03-5.64-2.13-1.84 1.25-2.2 2.41-1.49 4.47 1.54 4.43 2.83 8.95 4.47 14.2zm284.64 24.52c-.19-7.84-8.63-14.15-16.47-12.56-6.05 1.23-11.24 7.46-11.04 13.25.22 6.07 6.55 13.35 12.21 14.07 1.1.14 1.69-.05 1.97-1.32.78-3.5.49-4.28-2.67-5.73-3.22-1.48-4.89-4.47-4.32-7.71.5-2.81 3.76-5.66 6.76-5.89 3.19-.25 6.4 1.67 6.96 4.91.44 2.58 1.66 2.95 3.84 3.19 2.14.23 3.22-.06 2.75-2.2zm-40.02-33.69c1.22.04 1.45-.81 1.88-1.42q2.17-3.07-.86-5.12c-4.12-2.81-8.23-5.62-12.35-8.42-2.97-2.02-2.87-1.93-4.95.9-1.22 1.66-1.1 2.64.72 3.54.76.38 1.39 1.03 2.17 1.37 1.79.79 1.66 1.71.62 3.15-2.46 3.41-4.77 6.92-7.13 10.4-2.79 4.11-2.74 4.04 1.48 6.74 1.57 1.01 2.31.65 3.24-.78 2.68-4.1 5.53-8.08 8.21-12.17.96-1.46 1.87-1.79 3.3-.68 1.22.94 2.54 1.73 3.66 2.48zm-251.26 26.07c-.37-.43-.73-.9-1.14-1.34-4.17-4.46-8.33-8.94-12.53-13.37-3.69-3.88-3.65-3.79-7.59-.22-1.27 1.15-1.05 1.74-.03 2.81 4.28 4.48 8.45 9.05 12.7 13.55 3.22 3.42 3.24 3.39 6.84.48.66-.53 1.44-.94 1.74-1.93zm232.36-44.89c-.09-.67-.57-.9-1.02-1.16-.97-.56-2-1.03-2.9-1.68-1.5-1.09-2.38-.89-3.3.84-2.81 5.32-5.82 10.53-8.7 15.81-2.56 4.69-2.51 4.66 2.27 7.28 1.14.63 1.69.68 2.38-.59 3.49-6.42 7.07-12.79 10.61-19.18.25-.45.46-.92.65-1.33zm-143.86-24.03c.13.76.28 1.52.4 2.28.79 5.18 1.8 10.34 2.3 15.55.52 5.52.64 5.69 6.04 4.97 2.13-.28 2.29-1.15 1.99-2.86-1.03-5.93-2.02-11.86-2.95-17.81-.84-5.34-.97-5.43-6.29-4.04-1.1.29-1.75.65-1.48 1.9z" fill="#9c999e"/><path d="m1418.37 232.84c4.76-11.63 8.5-23.59 11.98-35.65.87-3.02.14-6.17 1.51-8.99.3-.61.09-1.88 1.16-1.69.83.15 1.11 1.19 1.43 2 .52 1.3-.49 2.97.99 4.03.11.59.21 1.19.33 1.78 3.2 16.23 3.91 32.44-.06 48.68-6.78 27.72-21.82 50.36-42.49 69.58-2.58 2.4-5.33 4.6-8.23 6.62-.77.54-1.69 1.24-1.26 2.21.36.81 1.4.28 2.13.18 3.4-.46 6.42-1.89 9.25-3.75 9.6-6.32 16.61-15.12 23.32-24.24 3.94-5.35 6.86-11.33 10.58-16.81.64-.94 1.41-2.51 2.66-1.97 1.56.66.38 2.21.06 3.18-6.39 18.97-14.07 37.34-25.19 54.11-8.03 12.11-17.61 22.51-31.22 28.48-13.1 5.74-26.85 8.49-41.11 8.93-3.35.1-6.72.02-10.02.83-.86.21-1.91.47-2.01 1.37-.12 1.12 1.1 1.14 1.87 1.37 3.92 1.22 7.96 1.47 12.01 1.27 8.7-.42 17.29-1.72 25.79-3.66 1.61-.37 3.37-1.08 5.3.07-5.03 4.83-10.84 7.96-16.92 10.59-13.55 5.86-27.82 9-42.42 10.6-16.87 1.85-31.82-2.9-44.71-13.99-.53-.46-.98-1.13-1.87-1.04-.2 1.81.46 3.3 1.23 4.75 2.01 3.78 4.98 6.74 8.06 9.65 2.75 2.59 6.25 3.93 9.2 6.16.6.46 1.32 1.03 1.03 1.91-.28.86-1.17.54-1.8.61-5.53.57-11.03-.06-16.48-.79-9.41-1.25-19.05-1.93-26.89-8.46-.16 5.18-.32 5.28-5.19 4.11-12.61-3.05-24.67-7.59-36.15-13.58-23.75-12.4-44.02-29.04-60.55-50.18-.87-1.12-2.53-1.97-2.27-3.59.32-1.99 2.33-1.23 3.6-1.67-.42-1.1 3.41-.23 1.04-2.24-.28-.39-.58-.72-1.13-.48-2.3-.62-4.75.47-7-.66.09-.3.03-.52-.34-.53-.35-.59-.7-1.18-1.06-1.77-9.6-15.58-16.61-32.23-20.65-50.1-.59-2.6-1.09-5.23-.82-7.93.05-.52.18-1.09.76-1.22.67-.15.8.49 1.04.93 4.33 7.86 10.27 14.51 16.15 21.17 1.95 2.21 4.03 4.53 7.13 5.58.23-1.46-.47-2.27-1.02-3.12-9.59-14.74-16.59-30.67-21.79-47.42-3.14-10.11-5.14-20.33-3.84-31.02.99-8.14 2.52-16.14 4.96-23.97 1.92-6.16 3.96-12.28 6.61-18.16.42-.93.76-2.5 2.12-2.22 1.5.3.9 1.83.88 2.86-.05 4.82.29 9.65.29 14.46.01 14.49 4.69 27.9 9.11 41.39.39 1.19 1.1 2.43 2.44 2.28 1.42-.15 1.3-1.66 1.32-2.73.18-12.24 1.15-24.43 2.3-36.6 1.54-16.29 3.91-32.43 7.66-48.39 3.94-16.74 13.65-28.78 28.22-37.36 8.83-5.2 17.87-10 26.96-14.7 5.26-2.72 10.38-5.78 16.29-7 .98-.2 2.44-.72 2.87.13.58 1.13-1.03 1.56-1.74 2.15-17.61 14.56-33.2 30.75-42.68 52-2.03 4.56-4.35 8.98-5.18 13.97-.13.77-.38 1.67.4 2.12.82.48 1.4-.35 1.99-.8 2.47-1.88 3.69-4.72 5.46-7.13 8.86-12.11 18.88-23.23 29.03-34.25 2.47-2.68 4.64-5.63 7.4-8.04 7.99-6.98 16.59-13.1 25.77-18.44 22.4-13.04 46.35-19.37 72.35-17.23 2.77.27 5.56.36 8.2 1.4.41.16.81.24 1 .68-1.31.63-2.66 1.21-3.94 1.9-13.36 7.25-26.17 15.41-39.05 23.46-11.61 7.26-23.11 14.64-33.91 23.09-9.64 7.55-18.85 15.58-26.84 24.89-6.26 7.29-11.59 15.07-14.19 24.59-3.36 12.29-6.48 24.62-8.42 37.22-3.19 20.71-4.42 41.46-.71 62.22 2.58 14.45 9.39 21.63 22.92 23.96 4.68.81 8.95.04 12.57-3.58 12.3-12.31 25.57-23.55 38.95-34.66 1.27-1.05 3.76-1.8 3.33-3.49-.41-1.61-2.89-1.86-4.62-2.3-3.56-.91-7.15-1.72-10.46-3.45.76-.8 1.64-.46 2.48-.4 5.23.38 10.39 1.54 15.66 1.56 1.35 0 2.7.03 3.82-1.03-1.36-1.03-3.2-.77-4.78-2.4h9.1c-1.16-1.12-2.76-1.68-2.09-2.86.65-1.15 2.02-.36 2.99-.05 2.19.7 4.39.76 6.63.57.7.28 1.31-.02 1.98-.21 9.44-2.66 18.62-2.47 27.25 2.73 1.14.69 2.17.7 3.4.63 6.27-.33 12.56-2.06 18.8.16 4.78 2.99 8.58 6.89 11.2 11.9.88 1.04 1.27 2.22.99 3.59-1.52.51-3.03.22-4.11-.8-2.72-2.54-5.68-2.43-8.88-1.28-7.11 2.55-13.55 6.27-19.48 10.93-12.28 9.65-20.2 22.36-25.83 36.69-2.05 5.23-3.69 10.58-3.98 16.23-.17 3.27-.44 6.84 2 9.32 2.74 2.79 6.25 4.9 9.91 6.19 7.54 2.66 15.35 3.51 23.33 2.06 12.6-2.29 23.61-7.98 34.09-15.13 15.55-10.6 28.07-24.03 38.4-39.65 9.01-13.62 16.06-28.22 22.32-43.25zm-130.57 6.47c4.95.1 9.85.08 14.58 1.88 1.46.56 3.05-.04 3.92-1.7.47-.89.5-1.41-.68-1.54-6.01-.62-11.9.43-17.82 1.35z" fill="#0365ab"/><g fill="#fefefe"><path d="m1118 103.85c2.68 2.35 5.3 4.78 8.08 7.01 1.27 1.02 1.29 1.63.21 2.82-3.7 4.08-3.64 4.1-7.75.49-4.52-3.97-9.03-7.96-13.68-11.79-1.3-1.07-1.19-1.65-.29-2.85 1.64-2.18 3.36-3.5 6.39-3.13 4.23.52 8.52.53 13.48.8-3.24-2.76-5.91-5.12-8.66-7.37-1.23-1-1.53-1.67-.3-3.03 3.66-4.04 3.57-4.06 7.62-.52 4.46 3.91 8.94 7.8 13.51 11.58 1.48 1.23 1.47 2.05.3 3.51-1.62 2.03-3.32 3.11-6.1 2.78-4.16-.49-8.38-.55-12.57-.79l-.25.48z"/><path d="m1318.75 48.71c-3.76-.43-8.11-1.89-12.56-2.79-1.01-.2-1.15-.94-.95-1.78 1.73-7.37 3.48-14.73 5.2-22.1.16-.68.46-1.24 1.17-1.05 5.51 1.48 11.53 1.55 16.24 5.34 4.06 3.26 5.23 8.5 3.33 13.82-1.96 5.49-6.2 8.61-12.43 8.56zm-.39-6.46c1.41.07 2.68-.11 3.79-1.18 2.23-2.13 3.21-5.49 2.26-8.21-.85-2.44-3.52-4.02-6.81-4.23-1.23-.08-1.4.54-1.6 1.47-.58 2.68-1.21 5.34-1.85 8-.82 3.36-.7 3.55 2.68 4.02.51.07 1.02.09 1.54.14z"/><path d="m1259.51 43.65c-2.38.17-4.69.31-7 .52-1.44.13-1.96-.46-2.03-1.9-.32-7.13-.72-14.25-1.1-21.37-.06-1.07-.15-2.28 1.32-2.3 4.71-.04 9.42-1.17 14.11-.21 5.63 1.14 9.22 5.61 9.4 11.37.21 6.82-2.72 11.32-8.5 13.09-2.04.62-4.11 1.02-6.2.8zm-2.41-14.58s-.05 0-.08 0c.17 2.31.36 4.63.51 6.94.05.86.19 1.54 1.27 1.51 2.49-.06 5.18.2 6.84-2.15 1.84-2.59 1.81-5.54.58-8.36-1.07-2.44-4.57-3.67-7.92-2.77-2.76.75-.66 3.07-1.22 4.56-.03.07 0 .17 0 .26z"/><path d="m1213.89 51.9c-.53.4-.65.54-.8.61q-6.24 2.99-12.02-.65c-.66-.41-1.34-.79-1.94-1.27-.87-.69-1.7-.72-2.59-.1-1.02.71-.35 1.54-.14 2.31.11.4.41.75.58 1.15 2.01 4.64 1.98 4.56-2.9 6.42-1.57.6-2.32.37-2.93-1.2-2.62-6.64-5.32-13.25-8.02-19.86-.45-1.09-.63-1.91.77-2.42 4.11-1.51 8.03-3.56 12.28-4.68 3.6-.94 7.47.41 9.39 3.29 1.57 2.36 2.65 6.42-.36 9.8-.9 1.01-.48 1.37.44 1.88 2.68 1.49 5.33 3.05 8.26 4.73zm-16.65-13.87c-4.73.18-6.08 2.27-4.34 6.12.61 1.36 1.2 1.63 2.49.9 1.03-.59 2.22-.9 3.29-1.43 1.33-.67 1.81-1.78 1.32-3.22-.49-1.42-1.42-2.32-2.75-2.37z"/><path d="m1175.68 41c1.71.96 2.05 2.88 2.96 4.36.65 1.06-.71 1.16-1.26 1.49-2.57 1.56-5.17 3.08-7.82 4.51-1.28.69-1.38 1.38-.7 2.63.72 1.31 1.46 1.15 2.48.54 2.36-1.41 4.76-2.77 7.1-4.21 1.22-.75 1.96-.5 2.71.72 2.15 3.49 2.19 3.45-1.49 5.52-1.87 1.05-3.7 2.19-5.59 3.21-1.04.56-1.34 1.12-.66 2.21.65 1.03 1.14 1.91 2.58 1.04 2.73-1.63 5.58-3.07 8.26-4.78 1.43-.91 2.13-.62 2.77.79.32.7.76 1.34 1.21 1.98.74 1.06.66 1.74-.59 2.44-4.88 2.72-9.73 5.51-14.55 8.34-1.3.77-2.05.7-2.82-.71-3.52-6.4-7.11-12.77-10.74-19.12-.51-.9-.75-1.46.33-2.07 4.94-2.79 9.86-5.62 14.79-8.43.3-.17.62-.29 1.01-.47z"/><path d="m1413.92 84.44c-.81 1.29-1.67 2.71-3.04 3.61-1.1.72-1.66-.53-2.32-1.07-1.99-1.64-3.97-3.3-5.84-5.07-1-.95-1.56-.95-2.43.16-.78 1-1.35 1.64-.06 2.71 2.44 2.04 4.69 4.3 7.16 6.31 1.25 1.02 1.44 1.77.23 2.85-.57.51-1.11 1.09-1.59 1.69-.82 1.03-1.56 1.05-2.56.16-4.17-3.72-8.38-7.4-12.62-11.03-1.13-.97-1.08-1.65-.12-2.73 4.8-5.39 9.56-10.83 14.27-16.3.99-1.14 1.64-1.34 2.87-.19 3.83 3.58 7.74 7.08 11.76 10.45 1.42 1.19 1.55 1.89.26 3.23-2.58 2.69-2.52 2.76-5.37.38-1.84-1.55-3.71-3.07-5.47-4.71-1.15-1.07-1.83-.65-2.74.31-1.12 1.18-.38 1.66.5 2.4 1.98 1.65 3.87 3.41 5.79 5.13.51.45 1.09.85 1.31 1.72z"/><path d="m1104.79 137.31c-2.53.14-4.72-.89-6.79-2.14-3.6-2.19-7.09-4.53-10.68-6.73-1-.61-1.25-.96-.55-2.14 2.93-4.94 2.86-4.98 7.73-2.01 2.93 1.79 5.83 3.65 8.82 5.34 1.62.92 3.33.75 4.8-.52 1.41-1.21 2.06-2.77 1.75-4.6-.32-1.86-1.77-2.88-3.24-3.82-3.26-2.08-6.51-4.18-9.83-6.17-1.39-.83-1.69-1.52-.76-3.03 2.67-4.34 2.59-4.38 7.02-1.62 2.63 1.64 5.3 3.21 7.9 4.88 5.79 3.73 7.26 8.86 4.38 15.1-2.12 4.59-6.22 7.5-10.54 7.46z"/><path d="m1289.81 18.35c4.92.2 4.89.21 6.41 4.58 2.31 6.65 4.61 13.31 7.01 19.94.69 1.91.3 2.58-1.73 2.21-.93-.17-1.88-.38-2.81-.31-1.9.16-2.97-.64-3.23-2.48-.25-1.83-1.31-2.29-3.03-2.3-2.4-.02-4.8-.29-7.19-.53-1.18-.11-2.1.17-2.42 1.37-.69 2.62-2.6 2.5-4.65 2.23-4.3-.57-4.26-.53-2.15-4.3 3.35-6 6.72-11.99 9.9-18.09.99-1.89 2.09-2.84 3.89-2.33zm.74 7.97c-1.38.8-1.43 2.14-2 3.15-.65 1.16-2.19 2.53-1.45 3.57.85 1.21 2.87.66 4.39.8.09 0 .17.02.26.01.8-.03 1.07-.43.83-1.19-.66-2.09-1.33-4.18-2.02-6.35z"/><path d="m1223.58 23.49c.34 0 .69-.02 1.03 0 1.44.11 3.33-.1 3.94 1.26.64 1.42-.88 2.82-1.39 4.26-.35 1.01-1.25.71-1.99.51-1.94-.53-3.74.02-5.55.58-1.09.34-1.95.98-1.76 2.18.22 1.38 1.43 1.75 2.58 1.51 2.22-.47 4.44-.55 6.67-.43 5.19.26 8.63 4.7 7.68 9.79-.33 1.76-1.56 2.78-2.87 3.72-4.87 3.47-10.1 4.98-16.02 2.9-1.82-.64-2.7-1.42-1.35-3.26.2-.27.34-.61.43-.93.58-2.03 1.57-2.59 3.71-1.68 2.29.98 4.74.41 7.01-.54 1.03-.43 1.74-1.15 1.56-2.38-.21-1.39-1.32-1.47-2.37-1.42-2.23.12-4.45.48-6.67.49-3.85.02-6.31-1.85-7.32-5.27-1.04-3.53-.03-6.19 3.2-8.43 2.85-1.98 6.05-2.78 9.48-2.84z"/><path d="m1153.48 74.64c-1.63-5.25-2.93-9.77-4.47-14.2-.72-2.05-.35-3.22 1.49-4.47 4.27-2.9 4.23-3.01 5.64 2.13 1.75 6.38 3.39 12.78 5.17 19.15.5 1.78.12 2.79-1.37 4.09-2.55 2.23-4.52 2.55-7.53.6-5.91-3.83-12.13-7.17-18.26-10.65-1.72-.97-1.5-1.39-.14-2.79 3.27-3.37 6.17-3.11 9.64-.37 2.87 2.27 6.1 4.07 9.83 6.51z"/><path d="m1438.12 99.16c.47 2.14-.61 2.43-2.75 2.2-2.18-.23-3.4-.61-3.84-3.19-.56-3.24-3.77-5.16-6.96-4.91-3 .23-6.27 3.08-6.76 5.89-.57 3.24 1.1 6.23 4.32 7.71 3.16 1.46 3.46 2.24 2.67 5.73-.28 1.27-.87 1.46-1.97 1.32-5.66-.72-12-8-12.21-14.07-.21-5.79 4.99-12.02 11.04-13.25 7.84-1.59 16.28 4.73 16.47 12.56z"/><path d="m1398.1 65.47c-1.12-.75-2.44-1.55-3.66-2.48-1.43-1.11-2.34-.78-3.3.68-2.69 4.09-5.54 8.07-8.21 12.17-.93 1.43-1.67 1.78-3.24.78-4.22-2.7-4.27-2.63-1.48-6.74 2.36-3.48 4.67-7 7.13-10.4 1.04-1.44 1.17-2.36-.62-3.15-.77-.34-1.4-1-2.17-1.37-1.82-.9-1.94-1.89-.72-3.54 2.08-2.83 1.98-2.92 4.95-.9 4.12 2.8 8.23 5.62 12.35 8.42q3.02 2.06.86 5.12c-.43.6-.66 1.46-1.88 1.42z"/><path d="m1146.84 91.54c-.3.98-1.08 1.39-1.74 1.93-3.6 2.91-3.62 2.93-6.84-.48-4.25-4.5-8.42-9.08-12.7-13.55-1.03-1.07-1.24-1.66.03-2.81 3.94-3.57 3.9-3.66 7.59.22 4.21 4.43 8.36 8.91 12.53 13.37.41.43.77.9 1.14 1.34z"/><path d="m1379.2 46.65c-.2.4-.4.88-.65 1.33-3.54 6.39-7.12 12.76-10.61 19.18-.69 1.26-1.24 1.21-2.38.59-4.78-2.62-4.83-2.59-2.27-7.28 2.88-5.28 5.89-10.49 8.7-15.81.92-1.73 1.8-1.93 3.3-.84.9.65 1.93 1.13 2.9 1.68.45.26.92.49 1.02 1.16z"/><path d="m1235.34 22.62c-.27-1.25.39-1.61 1.48-1.9 5.32-1.39 5.45-1.3 6.29 4.04.93 5.94 1.93 11.88 2.95 17.81.3 1.71.14 2.58-1.99 2.86-5.4.71-5.52.55-6.04-4.97-.5-5.21-1.51-10.37-2.3-15.55-.12-.76-.26-1.52-.4-2.28z"/></g><g fill="#9c999e"><path d="m1349.62 247.94c2.33-1.97 7.16-.49 7.91 2.45.24.94.76.71 1.34.46 2.85-1.22 7.96-.24 10.09 1.88.48.48 1.05.94 1.68 1.16 1.11.39 2.8-.33 3.09 1.56s.43 3.84-.9 5.43c-1.71 2.04-3.24 4.24-5.4 5.87-2.58 1.94-4.35 4.21-5.38 7.51-1.63 5.23-5.19 9.5-9.54 12.82-1.91 1.46-4.69 1.18-7.03 2.09-3.23 1.26-5.99 2.35-7.06 6.19-.78 2.82-3.56 4.29-5.95 5.84-.65.42-1.39.72-1.94 1.25-2.97 2.88-6.05 5.41-10.9 3.31 1.88 3.49.12 6.44-3.42 6.68-2.1.15-4.6-.57-5.31 2.54-.05.24-.5.44-.8.57-.72.31-1.58-.68-2.18.05-.71.86.94 1.37.72 1.48-1.67.87-1.76 3.35-3.89 3.7-1.16.19-1.64.84-.47 1.65 1.1.76.49 1.12-.12 1.71-1.03.99-2.55 1.42-3.09 2.97-.31.89-1 .26-1.5.05-2.2-.91-3.7-2.49-4.55-4.72-.26-.67.1-.81.58-1.13 1.31-.89 2.42-1.91.22-3.12-.73-.4-.28-.97-.22-1.55.17-1.74.77-3.36.58-5.25-.15-1.49 1.17-3.22 2.05-4.71.61-1.03 1.03-2.09.72-3.17-.71-2.49 0-4.7.86-6.98 1.02-2.72 1.95-5.46 1.78-8.49-.08-1.46 1.08-2.68 1.77-3.95 5.17-9.42 11.24-18.12 19.67-24.99 2.02-1.64 4.16-3.08 6.48-4.2 2.25-1.08 4.44-2.21 6.58-3.51 3.49-2.11 6.95-1.36 9.64 1.83.68.81 1.46 1.46 2.34 2 .98.6 2.15 1.83 3.13.51.98-1.33 1.07-3.01-.58-4.22.28-1.36-.11-2.54-.99-3.59z"/><path d="m1286.99 232.72c-1.7-3.1 1.54-4.2 2.55-6.19.19-.38 1.18-.27 1.16-.86-.07-2.78 2.31-2.69 3.94-3.53 1.71-.88 4.08-.41 5.2-2.58.1-.2.95-.03 1.96-.03-2.39 2.36-1.98 4.86-1.65 7.36.78.1.85-.3.82-.6-.18-2 1.34-5.12 3.12-5.48 1.5-.3 2.99.57 4.07 1.73.94 1.02 2.14 1.4 3.4 1.53.97.09 1.86.16 2.57.93.43.46 1.19.88 1.48.12.89-2.33 3.13-1.25 4.64-1.96.73-.35 1.81-.16 1.14 1.32-.38.83 0 1.62 1.06 1.55 3.35-.21 5.14 2.44 6.85 4.38 2.22 2.51 4.06 3.83 7.16 2.91.59-.17 1.18-.37 1.76-.1 2.02.94 4.14 1.75 6.01 2.93 1 .63 1.62 1.92.99 3.56-2.15-1.69-4.21-3.21-6.8-3.68-6.25-2.22-12.53-.5-18.8-.16-1.22.07-2.25.05-3.4-.63-8.63-5.21-17.81-5.4-27.25-2.73-.67.19-1.28.49-1.98.21z"/><path d="m1136.07 323.63c-.54.24-.85-.09-1.13-.48.54-.24.85.08 1.13.48z"/><path d="m1127.94 322.49c-.48.06-.41-.24-.34-.53.37.01.43.23.34.53z"/><path d="m1220.41 193.91c-1.08-1.93-2.09-3.5-3.69-4.56-.25-.17-.52-.59-.48-.85.35-2.36-1.34-3.55-2.7-4.96-.87-.89-2.09-1.72-.64-3.19.6-.61-.02-1.39-.41-1.86-1.62-1.93-1.98-4.31-1.84-6.57.19-2.94-1.21-5-3.31-6.23-3.06-1.8-2.75-4.27-2.09-6.85 1.62-6.32 5.4-11.5 9.31-16.53 9.74-12.54 21.7-22.74 34.3-32.26 8.94-6.75 18.36-12.78 27.83-18.73 2.63-1.65 5.78-2.41 7.91-4.95.66-.79 1.86-1.47 2.99-.51 1.11.95-.28 1.89-.21 2.53.41 3.94-3.2 4-5.03 5.91.72 1.56 3.15 1.27 3.95 3.05.18.4.96.55.65 1.2-.28.57-.88.54-1.35.37-1.62-.58-3.07-.67-4.62.42-.96.68-1.8-.49-2.38-1.05-.74-.72.54-.75.75-1.17.67-1.35 1.23-2.76 1.74-4.38-1.55 2.02-3.31 1.31-5.17.46.35 1.65 1.68 1.44 2.79 1.83-.86 1.47-1.65 2.46-3.54 2.48-.86.01-2.44.13-2.62 1.84-.09.85-1.06 1.06-1.75 1.38-2.45 1.12-4.07 3.14-5.53 5.25-.82 1.18-1.64 2.6.16 3.8.47.32.43.9.51 1.41.23 1.43.4 2.64 2.55 2.05 1.71-.47 3.13 1.05 4.27 2.05 2.13 1.86 4.48 2.75 7.21 2.81 1.49.03 1.78.51 1.53 2.02-.35 2.11-.13 4.23 1.34 6.08.7.88 1.06 2.09 2.53 1.54 1.37-.51 1.94-1.63 2.04-3 .03-.41-.27-.83-.27-1.25.02-2.22-1.24-4.59 2.4-5.8 2.57-.85 2.57-4.7.52-6.74-.57-.56-1.23-.99-.68-1.92 1.09-1.88.83-3.98.85-6.01 0-.83.01-1.95.89-1.79 2.5.46 5.3-.71 7.52 1.32 1.01.93 2.01 1.86 3.46 2.12 1.4.25 1.07 1.55.94 2.32-.45 2.67 1.85 3.49 3.3 4.01 1.26.46 2.81-.82 3.21-2.76.3-1.46 1.23-2.1 2.33-.35 1.34 2.13 3.75 3.56 4.74 5.72.8 1.75 1.43 3.37 3.15 4.21 1.43.7 3.02 1.1 4.75 1.7-.97 1.28-2.4 1.17-3.49 1.69-.51.24-1.01.55-.76 1.12.32.72.86.25 1.25-.03 1.59-1.14 2.96-1.13 4.95-.37 2.17.83 1.8 2.48 1.89 3.67s-1.56 1.34-2.68 1.37c-.94.03-1.7.35-2.2 1.12-1.26 1.92-3.06 2.18-5.19 2.02-2.4-.18-4.83-.15-7.23-.02-2.38.13-3.97 2.03-5.88 3.14-1.75 1.02-2.82 2.97-4.23 5.04 1.61-.23 2.12-1.33 2.9-1.99 2.34-1.97 4.8-3.68 7.99-3.71 1.89-.02 2.58 1.19 1.33 2.56-1.22 1.34-.38 2.31.24 3.16 1.94 2.67 4.74 2.85 7.14.63.53-.49 1.22-.95 1.82-.45.7.58.17 1.24-.32 1.75-1.17 1.23-2.21 2.45-4.06 2.97-1.66.47-3.49.97-4.83 2.33-.71.72-1.42.41-1.92-.38-.52-.83-.24-1.39.54-1.93.97-.67 2.13-.52 3.14-1.07-1.74-.11-3.51-1.04-5.06.85-1.38 1.68-3.7 1.55-5.54 2.34-1.95.84-2.61 2.01-2.2 3.73.39 1.67.04 2.42-1.66 2.45-4.11.06-5.7 3.15-7.42 6.11-.53.91-.79 2.54-2.41.91-.34-.35-1.01.15-.89.81.17.89-.05 1.79.58 2.69 1.64 2.32 1.2 4.09-1.53 5.32-2.55 1.15-4.44 3.19-6.91 4.45-2.12 1.08-3.28 6.34-2.14 8.72.9 1.9 1.18 3.95 1.88 5.89.4 1.09 0 2.08-.56 2.93-.48.74-1.17 1-1.77-.07-1.51-2.73-3.67-5.04-4.23-8.37-.24-1.42-1.3-3.67-3.84-2.24-.42.24-.89.12-1.18-.22-1.92-2.25-4.48-1.17-6.79-1.3-.91-.05-1.5.5-1.56 1.38-.17 2.54-2.2 1.88-3.18 1.39-1.19-.6-2.43-.64-3.59-1.08-1.87-.71-3.45-.57-4.87.99-.62.68-1.43 1.09-2.4 1.38-1.7.51-2.84 1.86-2.24 3.72.54 1.67.14 3.15-.52 4.48-2.1 4.23.13 12.58 5.26 15.89 1.44.93 6.82-.62 7.61-2.16.2-.38.37-.78.54-1.17 1.6-3.71 2.64-4.36 6.53-4.09 1.78.13 2.18 1.45 1.34 2.48-1.81 2.21-1.37 5.01-2.42 7.39-.22.51-.05 1.19-.5 1.68-.35.39-.68.82-.19 1.33.41.43.93.48 1.43.26 1.94-.83 3.93-.16 5.88-.18 2.59-.03 4.07 1.75 3.9 4.37-.1 1.54-.49 3.06-.55 4.6-.12 3.44 1.84 5.55 5.34 5.87 1.8.16 3.6.24 5.39.41.58.05 1.2.17 1.72.42.67.32 1.09.92.67 1.69-.45.83-.94.56-1.68.19-1.66-.84-3.5-1.66-4.13 1.23-.12.56-.42.68-.91.46-2.24-1.04-4.4-2.41-6.75-3.07-4.18-1.17-5.18-5.09-7.49-7.88-.74-.9-1.23-2.24-2.81-1.24-.11.07-.39.04-.49-.05-2.25-2.1-5.43-2.48-7.85-4.21-1.32-.94-2.35-2.26-3.85-3.01-1-.5-1.94-.71-2.91-.04-1.01.7-2.11.81-3.19.32-5.55-2.51-10.94-5.29-15.59-9.31-1.01-.88-1.61-1.63-.85-3.27.68-1.46-.61-3.05-1.42-4.37-2.71-4.4-5.53-8.74-8.32-13.09-1.07-1.68-2.13-3.35-1.97-5.48.03-.41-.11-.86-.27-1.25-.39-.91-1.05-1.89-2.06-1.61-1.21.33-.86 1.68-.56 2.43.73 1.8 1.31 3.66 2.27 5.41 1.82 3.31 1.96 7.38 4.63 10.37.57.64.53 1.79-.22 3.18z"/><path d="m1307.1 72.5c3.73-2.09 7.19-4 10.62-5.95 1.22-.69 2.33-.74 3.65-.13 5.41 2.5 11.21 4.19 16.26 7.44 1.18.76 2.4 1.6 3.33 2.87 1.2 1.63 3 2.73 4.84 3.73 2.89 1.57 3.59 4.02 2.16 6.55-.26.46-.47 1.1-1.05.91-2.27-.74-1.78.79-1.87 2.05-.11 1.51.16 3.31-2.52 2.98-1.1-.13-1.94 1.09-1.25 2.39.8 1.52 1.88 2.9.25 4.59-.53.54.11 1.15.54 1.52 1.27 1.11.92 2.73 1.25 4.1.3 1.23-.77 1.46-1.67 1.06-4.24-1.91-8.94-3.03-12.09-6.87-.69-.84-1.75-1.48-1.27-2.85.22-.64-.07-.99-.76-.92-1.16.11-1.46-.72-1.65-1.57-.12-.56-.22-1.01-.93-.94-2.17.21-1.88-2.09-3-3.02-1.83-1.52.04-2.34.99-3.32.94-.97-.31-1.55-.67-2.15-.56-.94-.72-.06-1.1.39-.84 1.01-1.89.58-2.79.02-1.01-.63-.91-1.9-.42-2.47 1.21-1.42.64-1.54-.73-1.38-1.25.14-1.89-.16-2.4-1.57-1.27-3.49-4.52-5.18-7.72-7.43zm39.19 9.79c-.15-.07-.41-.27-.71-.32-.46-.07-.63.3-.43.61.14.22.56.32.86.35.19.02.53-.09.28-.64zm-25.82.32c-.28-.07-.52-.18-.75-.17-.16.01-.64.08-.22.41.17.13.48.12.72.11.07 0 .14-.2.25-.36z"/><path d="m1307.02 100.85c.21.45.7 1.01.58 1.33-.32.83-.98.19-1.51.11-3.06-.49-5.76-1.51-7.69-4.2-1.11-1.55-2.69-2.41-4.69-1.17-.41.25-1.02.43-1.46.32-.66-.17-1.78.05-1.78-1.03 0-.82.72-1.36 1.51-1.56.48-.12 1.01-.1 1.52-.07 1.36.07 4.59-3.01 4.57-4.39 0-.66-.37-1.09-.87-1.5-.99-.81-1.98-1.63-2.9-2.51-1.07-1.02-2.03-2.05-3.76-1.24-.58.27-1.53.15-1.79-.6-.24-.69.59-.95 1.06-1.26 1.51-.98 3.05-1.93 4.58-2.89.64-.4 1.33-.58 1.88.03 1.38 1.51 3.51 1.48 5.08 2.55 1.48 1 3.86 1.42 2.91 4.17-.22.64.42.53.77.69 2.46 1.11 4.79 2.47 7.37 3.33.65.22 1.37.89.68 1.55-.96.93-2.05 1.65-2.75 2.91-.42.75-1.14-.03-1.67-.48-1.12-.95-2.76-3.04-3.62-1.86-1.05 1.44 1.52 2 2.58 2.93.86.75 1.53 1.79 2.03 2.83.25.52.15 1.52-.21 1.93-.64.74-1.36-.32-2.1-.3-.37-.42-1.11-.56-1.24-.21-.23.6.59.4.9.63z"/><path d="m1394.17 114.48c-2.86-1.66-4.65-4.09-5.44-7.88 2.12 1.79 4.77 2.19 5.49 4.85.37 1.38 1.67 1.68 2.59 2.36 2.58 1.93 4.5 4.73 7.65 5.91 0 0-.03-.03-.03-.03.09.41.05.94.29 1.22 2.22 2.64-.08 3.72-1.7 5.02-.69.55-1.25.24-1.15-.53.31-2.43-2.12-3.16-2.92-4.89-.23-.49-1.07-.75-.24-1.33.89-.62.28-1.04-.16-1.37-.98-.73-1.72-2.77-2.9-1.97-.97.65.47 2.12.99 3.19.62 1.27 2.33 2.4.37 4.05-1.05.88-1.79.81-2.14-.33-.53-1.74-1.5-3.1-2.61-4.51-1.28-1.64-.34-3.31 1.73-3.61.09.26.09.78.48.54.31-.19.03-.55-.3-.7z"/><path d="m1293.76 201.62c-5.49.99-9.99-.29-13.97-3.63-1.29-1.08-2.74-1.23-4.28-.26-1.47.92-2.94.79-4.19-.54-.43-.46-.74-.96-.53-1.62.21-.69.76-.92 1.4-.9 2.31.08 4.64-.4 6.89-.27 2.27.12 4.09 1.95 5.92 3.28 1.14.83 2.17 1.3 3.5 1.12 2.32-.32 3.89.73 5.27 2.82z"/><path d="m1329.97 128.91c-1.84 3.86 2.69 2.36 3.46 4.09.23.52 1.62.07 1.7 1.18.09 1.35.27 2.71.12 4.04-.08.71-1.04.74-1.46.28-1.94-2.12-4.44-1.85-6.92-1.82-.72 0-1.67.32-1.99-.67-.28-.84-.13-1.69.47-2.42 1.24-1.5 2.75-2.84 2.69-5.06-.01-.53.52-.91 1.12-.76.55.14.84.56.81 1.13z"/><path d="m1299.99 202.99c.77.07 1.75-.15 2.27.25 3.19 2.42 6.81.96 10.21 1.2 1.25.09 2.24.39 2.13 1.52-.11 1.14-1.4.59-2.16.59-4 0-8-.21-11.85 1.29-1.16.45-2.15-.03-3.01-.91-.93-.95-.86-2.17-.53-3.14.48-1.44 1.95-.48 2.95-.8z"/><path d="m1368.04 93.82c-.91.63-.62 1.79-.99 2.66-.56 1.28-1.75-.27-2.4.03-2.36 1.06-3.66-1.08-5.2-1.86-.79-.4-1.53-1.91-2.72-2.55-.31-.17-.07-.62.26-.82.52-.32 1.16-.77 1.65-.29 1.5 1.49 2.78.54 4.13-.18.87-.46 5.23 1.96 5.27 3.02z"/><path d="m1286.81 205.13c1.17.33 2.56.25 2.77 1.82.1.7-.59 1.3-1.11 1.06-1.16-.53-2.47-1.15-3.17-2.12-.38-.53 1-.45 1.5-.76z"/><path d="m1293.31 90.7c-.72-.03-1.46-.13-1.36-1.08.1-1.07.93-1.29 1.85-1.33.87-.04 1.62.17 1.47 1.21-.15 1.08-1.08 1.15-1.96 1.19z"/><path d="m1314.03 130.8c1.65-.32 2.64.99 3.98 1.04.54.02.69.73.37 1.22-.37.56-1 .73-1.55.35-1-.69-2.18-1.22-2.8-2.61z"/><path d="m1289.13 102.34c-.02.85-.47 1.23-1.31 1.21-.65-.02-1.21-.12-1.23-.95-.03-1.02.64-1.35 1.47-1.39.72-.04 1.1.39 1.07 1.13z"/><path d="m1318.36 42.25c-.51-.04-1.03-.07-1.54-.14-3.38-.46-3.49-.66-2.68-4.02.65-2.66 1.27-5.33 1.85-8 .2-.92.37-1.55 1.6-1.47 3.29.22 5.96 1.8 6.81 4.23.95 2.72-.03 6.08-2.26 8.21-1.11 1.07-2.39 1.24-3.79 1.18z"/><path d="m1257.1 29.07c0-.09-.04-.18 0-.26.56-1.49-1.54-3.82 1.22-4.56 3.35-.9 6.85.33 7.92 2.77 1.23 2.82 1.26 5.77-.58 8.36-1.66 2.34-4.35 2.08-6.84 2.15-1.09.03-1.22-.66-1.27-1.51-.14-2.32-.34-4.63-.51-6.94h.08z"/><path d="m1197.24 38.03c1.34.05 2.27.95 2.75 2.37.49 1.44 0 2.55-1.32 3.22-1.07.54-2.26.85-3.29 1.43-1.28.73-1.87.46-2.49-.9-1.74-3.85-.39-5.94 4.34-6.12z"/><path d="m1290.55 26.32c.69 2.17 1.36 4.26 2.02 6.35.24.75-.03 1.15-.83 1.19-.09 0-.17 0-.26-.01-1.52-.14-3.54.42-4.39-.8-.73-1.04.8-2.41 1.45-3.57.57-1.02.62-2.35 2-3.15z"/></g><text fill="#5e5b5c" font-family="Lobster1.4, 'Lobster 1.4'" font-size="185.14" transform="translate(10.26 366.26)"><tspan x="0" y="0">Universidad</tspan></text><text fill="#5e5b5c" font-family="Lobster1.4, 'Lobster 1.4'" font-size="159.79" transform="translate(0 177.64)"><tspan x="0" y="0">Preparatoria y</tspan></text></svg>