<svg viewBox="0 0 497.33 570.1" xmlns="http://www.w3.org/2000/svg"><path d="m264.09 231.44c3.74 1.96 7.53 3.26 10.44 5.64 3.94 3.22 3.21 7.67 1.62 12.08-3.75 10.33-7.72 20.61-10.82 31.15-1.49 5.09-1.67 10.71-1.57 16.07.09 4.95 2.55 5.97 6.84 3.23 6.83-4.35 11.25-10.82 14.47-18.07 1.08-2.43 1.52-5.29 1.61-7.98.72-20.21 7.78-37.55 23.3-50.83 6.88-5.89 15.03-8.98 24.37-6.88 2.12.48 3.2-.2 3.81-2.23.72-2.39 1.64-4.72 2.47-7.08 6.85.96 11.73 4.63 12.4 9.68.23 1.75-.01 3.7-.53 5.4-7.03 23.19-14.16 46.36-21.23 69.54-.37 1.2-.46 2.49-.75 4.11 4.15-.56 7.78-1.24 11.44-1.49 3.02-.21 6.11-.23 9.09.21 6.81 1 10.15 5.45 9.58 12.3-.48 5.76-2.95 10.67-6.58 15.07-.73.88-1.47 1.75-2.85 3.41 7.32-1.14 13.7-2.09 20.06-3.12 32.07-5.21 64.14-10.42 96.21-15.67 3.31-.54 6.78-.48 9.13-3.88.59-.85 3.64-.84 4.92-.1 1.06.61 1.87 3.02 1.54 4.32-.32 1.27-2.25 3.09-3.42 3.04-18.9-.69-37 4.67-55.41 7.42-36.99 5.52-73.85 11.86-110.77 17.86-4.01.65-8.01 1.33-12.01 1.99-.02.49-.03.99-.05 1.48 1.97.16 4 .72 5.89.42 17.03-2.66 34.04-5.48 51.06-8.24 33.51-5.44 67.03-10.86 100.54-16.31 8.9-1.45 17.78-2.98 26.68-4.45 1.38-.23 2.77-.37 4.37-.58-1.93 3.09-3.64 5.83-5.44 8.72-3.18-2.75-7.11-2.43-11.32-1.73-38.47 6.32-76.97 12.51-115.46 18.73-15.19 2.46-30.37 4.9-45.56 7.36-.86.14-1.68.46-2.45.68 3.02 3.18 5.79 6.39 8.92 9.19.79.7 2.9.55 4.12.06 16.29-6.56 33.02-11.55 50.33-14.52 21.51-3.68 43.05-4.18 64.48.49 13.41 2.92 24.54 9.34 30.55 22.44 2.34 5.1 3.95 10.41 3.04 16.18-1.22 7.75-4.65 13.82-12.56 16.38-8.17 2.65-15.72 1.58-22.32-4.19-1.05-.92-1.8-2.18-3.44-2.78.25 4.42.7 8.83.72 13.25.09 23.4-9.35 42.56-26.02 58.59-33.25 31.95-71.79 54.16-117.01 64.36-43.87 9.89-87.29 7.86-130.08-5.49-16.66-5.2-33.37-10.77-49.18-18.08-24.95-11.54-47.76-26.62-65.66-48.03-8.12-9.72-14.31-20.41-14.61-33.62-.43-18.91 16.82-32.47 33.75-26.48 10.77 3.81 15.38 17.17 9.17 26.54-4.11 6.2-13.46 6.3-16.91-.1-1.06-1.96-1.46-5.17-.55-7 .76-1.53 3.87-1.92 5.96-2.75.44-.17.99-.07 1.49-.09.11-6.14-5.15-10.05-11.41-8.31-8.59 2.39-13.53 8.62-14.64 17.06-.64 4.91-.28 10.66 1.74 15.06 3.32 7.24 8.35 13.7 12.92 20.88 4.1-6.4 7.32-12.04 11.13-17.25 11.92-16.26 28.1-23.48 48.11-20.95 10.76 1.36 18.32 7.7 21.54 18.18 3.28 10.69 1.31 20.51-6.79 28.61-4.01 4.01-9 6.01-14.69 6.14-1.55.04-3.1 0-4.82 0 2.34 6.32 9.1 9.94 15.73 7.94 4.89-1.47 9.8-3.55 14.05-6.34 26.48-17.42 52.82-35.06 79.12-52.76 13.09-8.81 25.98-17.9 39.04-26.91-10.74-8.83-17.72-19.35-15.22-34.53-8.85 1.42-17.56 2.8-26.26 4.21-38.49 6.24-76.97 12.51-115.46 18.74-23.43 3.8-46.89 7.46-70.29 11.47-2.89.5-5.48 2.76-7.32 3.73-1.77-1.86-3.89-4.08-5.73-6.01 2.6-.43 6.76-1.15 10.92-1.82 67.95-10.98 135.89-21.96 203.84-32.94 3.27-.53 6.58-.9 9.8-1.66 1.43-.34 2.69-1.45 4.02-2.21-.16-.41-.31-.82-.47-1.23-6.73 1.07-13.46 2.12-20.18 3.21-38.62 6.25-77.23 12.51-115.85 18.76-25 4.05-50.01 8.06-75 12.19-2.44.4-4.72 1.74-7.16 2.25-1.23.26-2.88-.03-3.89-.73-.64-.45-.93-2.39-.48-3.14.55-.92 1.96-1.7 3.1-1.85 12.98-1.79 26.02-3.15 38.95-5.19 38.64-6.1 77.25-12.45 115.87-18.7 21.73-3.52 43.47-7.01 65.19-10.59 1.36-.22 3.01-.72 3.85-1.68 11.85-13.4 26.95-22.31 42.55-30.32 8.79-4.51 18.25-7.74 27.5-11.32 2.33-.9 3.76-1.8 3.06-4.88-5.63 3.56-11.36 7.2-18.23 6.09-7.31-1.19-10.45-7.05-12.99-13.34-2.32 3.98-4.11 8.23-6.95 11.61-3.16 3.77-6.8 7.62-11.06 9.91-9.37 5.06-15.12 2.29-19.48-8.38-2.03 3.34-3.89 6.65-5.98 9.8-3.36 5.06-8.1 8.31-13.91 10.03-7.77 2.31-13.03-.74-14.84-8.63-.44-1.92-.67-3.88-.97-5.7-2.74 4.97-5.27 10.19-8.4 15.02-1.75 2.71-4.18 5.25-6.85 7.05-7.15 4.83-14.23 2.39-17.21-5.72-2.7-7.32-1.97-14.91-1.17-22.43.45-4.19 1.39-8.32 1.57-12.7-.4.82-.88 1.62-1.2 2.48-4.72 12.66-9.39 25.34-14.16 37.99-.93 2.47-2.07 4.88-3.33 7.19-1.96 3.6-4.8 6.08-9.22 5.74-4.17-.32-4.93-3.89-6.25-7.06-3.15 1.97-6.13 4.11-9.36 5.8-10.93 5.75-22.2 4.06-30.37-4.1-3.98-3.98-5.33-8.88-5.25-14.14.18-10.98.73-21.94 1.14-33.39-4.81.7-10.34 1.85-15.91 2.21-4.21.27-5.99 2.33-7.71 5.87-6.4 13.23-12.75 26.52-20.02 39.28-3.47 6.09-8.35 11.73-13.66 16.34-8.43 7.33-18.61 9.11-29 4.35-10.21-4.68-14.92-13.57-16.09-24.36-.62-5.68-.44-11.38 2.28-16.72 5.4-10.6 17.17-12.17 24.65-3.04 3.92 4.78 7.1 10.07 8.19 16.27-.3.18-.61.36-.91.54-.58-.88-1.12-1.78-1.74-2.62-2.52-3.39-4.73-7.09-7.68-10.07-5.24-5.29-12.59-3.66-15.58 3.07-3.57 8.04-.7 20.68 5.98 26.35 4.43 3.76 11.08 4.49 16.41 1.45 2.51-1.43 4.97-3.18 6.92-5.29 12.66-13.69 19.24-30.81 27.15-47.99-8.63 1.08-16.49 2.13-24.36 3.04-4.61.53-9.24 1.07-13.86 1.19-6.27.16-8.53-1.7-10.09-7.87-.68-2.68-.97-5.46-1.55-8.84 2.56.25 4.72.67 6.87.65 15.52-.15 31.05-.34 46.56-.74 1.05-.03 2.51-1.66 3.01-2.86 6.6-15.96 15.28-30.62 27.04-43.3 8.47-9.14 17.89-17.02 30.44-20.06.77-.19 1.55-.36 2.34-.44 5.94-.66 7.13.3 8.37 6.16.99 4.69.43 8.87-1.68 13.4-6.25 13.45-11.89 27.18-17.73 40.81-.62 1.44-1.01 2.97-1.53 4.55h19.8c.12.48.25.95.37 1.43-1.78.67-3.51 1.59-5.35 1.96-4.81.95-9.69 1.58-14.5 2.51-.98.19-2.43 1.04-2.6 1.82-2.28 10.59-5.38 21.14-6.26 31.86-1.04 12.68 7.14 18.75 19.65 16.22 1.68-.34 3.36-.82 4.96-1.43 8.97-3.46 9.21-4.11 9.43-13.69.44-18.82 5.31-36.65 12.71-53.83.51-1.2 2.61-2.58 3.82-2.45 4.4.48 8.73 1.57 13.62 2.53-6.8 18.78-16.41 35.85-16.79 55.75 2.18-5.04 4.14-10.18 6.58-15.09 8.72-17.55 17.59-35.02 26.4-52.53.95-1.89 2.03-3.75 2.73-5.73s.99-4.1 1.45-6.16c9.42 1.96 15.32 8.69 11.5 18.11-5.46 13.48-10.16 27.29-14.55 41.17-1.47 4.66-1.17 9.93-1.33 14.92-.04 1.36.96 3.7 1.87 3.91 1.35.31 3.51-.45 4.5-1.52 2.96-3.18 5.97-6.48 8.15-10.2 4.59-7.81 7.26-16.3 9.01-25.3 2.89-14.95 6.77-29.7 10.26-44.53.39-1.65.9-3.28 1.49-5.38-5.27-.23-10.68.54-13.98-4.32-.78-1.15-.72-2.85-.95-3.88 4.99-.31 9.43-.47 13.85-.89 3.27-.31 5.2-2.22 5.91-5.52 1.61-7.5 3.33-14.98 5.02-22.52 9.71-.09 17.31 3.13 14.56 17.72 3.57-1.68 6.83-3.21 10.07-4.75 15.86-7.52 32.12-13.91 49.46-17.13 6.48-1.2 12.88-1.99 18.06 3.84 4.14 4.67 3.73 9.96 2.82 15.39-.1.57-1.64 1.41-2.36 1.28-19.93-3.58-38.73 1.84-57.45 7.35-8.37 2.46-16.49 5.75-24.67 8.83-1.03.39-2.15 1.61-2.47 2.68-6.47 21.56-12.95 43.13-19.12 64.78-1.02 3.6-1.01 7.62-.77 11.41.23 3.57 2.54 4.78 5.57 3.01 8.78-5.1 15.63-12.83 16.96-22.52 2.2-16.02 6.27-31.41 11.03-46.72.86-2.77 1.59-5.58 2.71-9.55zm-113.19 253.05c.05 6.95.54 14.4 4.38 21.02 1.01 1.73 2.98 3.54 4.84 4.04 10.11 2.7 20.24 5.5 30.53 7.3 11.44 2 22.96 4.67 34.73 2.57 11.92-2.13 23.3-5.69 31.89-14.86 11.89-12.7 14.24-32.91 6.1-49.86-7.14-14.86-24.02-24.26-41.36-22.83-9.36.77-15.78 5.87-19.29 14.44-3.28 8-3.16 15.84 2.5 22.89 2.88 3.58 6.55 6.14 11.4 4.82 5.07-1.37 7.38-5.54 8.1-10.33.35-2.35-.32-4.96-.96-7.33-.66-2.42-1.05-4.63 1.81-5.57 3.01-.98 4.05 1.29 4.55 3.61 1.6 7.36-.01 13.99-5.14 19.56-5.3 5.77-12.75 6.35-18.97 1.55-5.43-4.19-8.52-9.8-9.07-16.62-2.05-24.96 22.39-42.11 45-31.25 17.8 8.55 26.23 23.89 29.08 42.87.42 2.78 1.39 5.69 2.85 8.08 7 11.42 19.74 16.8 32.9 14.22 10.34-2.03 19.05-7.31 26.85-14.04 7.33-6.32 14.11-13.27 21.39-19.65 10.54-9.24 22.37-15.95 36.92-15.24 5.42.27 10.77 2.09 16.59 3.29 1.62-2.21 3.59-4.87 5.51-7.56 15.39-21.54 17.4-45.02 9.75-69.73-3.96-12.81-15.34-20.17-26.88-17.67-6.38 1.38-11.24 4.87-12.83 11.58-1.42 5.99.68 11.03 5.25 14.92 4.91 4.18 12.71 2.98 15.67-2.19 1.68-2.94.8-6.01-1.92-6.07-2.76-.06-5.05-.95-5.21-3.7-.12-1.97.64-4.95 2.03-5.78 1.6-.96 4.71-.77 6.49.18 7.02 3.75 7.83 14.56 1.86 20.69-7.35 7.54-19.97 5.94-26.18-3.32-6.45-9.63-4.25-22.03 5.31-29.88 9.94-8.16 22.93-7.68 31.65 1.28 5.04 5.17 7.83 11.61 9.73 18.44 1.12 4.04 1.99 8.15 2.99 12.33 4.4-2.83 5.25-2.59 7.81 1.88 1.96 3.41 4.85 5.55 8.75 6.26 8.52 1.53 15.84-5.06 16.35-14.72.7-13.3-7.29-24.5-20.85-29.08-10.95-3.7-22.36-4.51-33.77-4.63-29.67-.31-57.74 7.08-84.95 18.31-.57.23-1.03.72-1.25.88.73 3.55 1.78 6.76 1.98 10.02.6 9.89-4.8 16.69-12.62 21.49-15.54 9.55-31.83 9.75-48.35 2.6-2.29-.99-3.99-1.06-6.17.43-9.88 6.7-19.91 13.17-29.87 19.74-29.45 19.42-58.85 38.91-88.38 58.21-4.07 2.66-8.57 4.86-13.15 6.48-12.39 4.38-25.99-.57-27.53-13.05-.08-.67-.79-1.3-1.29-1.88-4.27-4.97-2.45-13.09 3.9-14.89 3.61-1.02 7.92-.94 11.59-.03 4.72 1.16 7.33 5.19 8.46 10.17.7-.55 1.14-.84 1.5-1.21 6.73-7.02 8.36-18.75 3.84-27.41-4.36-8.35-14.61-13.09-25.11-11.63-23.03 3.19-34.46 19.67-44.51 38.34 13.69 11.74 27 23.27 42.39 32.17 8.72 5.04 18.02 6.82 27.57 4.14 7.79-2.18 15.17-5.8 22.8-8.8zm253.33-31.38c-.15-.5-.3-1.01-.45-1.51-1.96-.22-3.92-.56-5.89-.64-10.47-.45-19.97 2.82-28.5 8.5-12.25 8.15-23.97 17.11-36.31 25.12-6.72 4.36-13.96 8.3-21.49 10.94-14.47 5.08-27.7 2.18-38.77-8.88-.5-.5-1.13-.88-2.08-1.61-2.81 15.92-11.49 27.14-24.8 35.26 60.71-4.17 114.62-23.77 158.29-67.17zm-89.16-98.25c-2.55-3.2-5.07-6.21-7.4-9.35-1.48-1.99-3.18-2.28-5.51-1.89-15.66 2.65-31.35 5.11-47 7.8-1.64.28-3.5 1.32-4.56 2.58-7.67 9.22-5.98 21.39 3.8 30.32 2.19 2 3.73 2.34 6.44.66 9.77-6.09 19.64-12.03 29.69-17.64 7.83-4.37 15.98-8.16 24.54-12.49zm-18.8-79.35c.69 2.85 1.24 7.11 2.76 10.99 2.07 5.27 6.27 7.19 11.61 5.42 3.32-1.1 6.39-3.09 9.4-4.96.97-.61 1.73-2.04 1.99-3.23 3.24-15.02 6.3-30.08 9.6-45.09.66-2.99-.33-4-3.05-4.58-5.71-1.21-10.54.65-14.73 4.21-11.03 9.37-16.16 21.67-17.58 37.23zm19.05 86.88c-16.89 9.23-33.78 18.45-51.14 27.94 19.75 10.13 48.26-5.08 51.14-27.94zm-41.85-26.41c.16.46.33.92.49 1.39 18.35-2.98 36.7-5.97 54.39-8.85-3.25-4.81-6.22-9.18-9.78-14.45-14.65 7.12-29.88 14.51-45.1 21.91zm-165.57-56.59c3.51-13.23 6.83-25.72 10.33-38.9-12.77 10.91-20.1 24.89-28 38.9h17.68zm218.3 31.45c1.43 1.92 2.51 3.03 3.21 4.34 3.17 5.93 8.35 9.07 13.28 7.9 5.89-1.4 11.47-7.94 11.87-13.92.27-3.99-1.85-6.45-5.72-5.43-7.71 2.03-15.25 4.75-22.63 7.12zm-25.18 28.75c.12-.47.24-.94.35-1.42-1.35-.33-2.76-1.11-4.03-.91-10.72 1.65-21.43 3.39-32.1 5.32-1.85.33-3.53 1.63-5.29 2.49.14.36.29.73.43 1.09 13.54-2.19 27.09-4.38 40.63-6.56z"/><path d="m54.78 140.21c-4.01-8.49-4.96-17.23-3.98-26.39 1.44-13.42 8.52-24.11 16.36-34.37 14.18-18.56 32.48-32.3 52.55-43.79 27.11-15.52 55.6-27.38 86.66-32.47 33.6-5.51 66.84-3.69 99.93 3.96 36.53 8.45 70.77 22.21 101.78 43.47 15.18 10.41 29.46 21.99 39.24 37.87 3.74 6.08 6.71 13.08 8.14 20.05 3.39 16.47-6.81 30.77-22.46 33.01-8.53 1.22-18.45-3.42-22.45-10.67-3.09-5.61-2.7-11.25.61-16.62 2.58-4.18 6.67-5.46 11.34-5.1 3.91.3 6.72 2.37 8.32 5.92 2.13 4.75-.44 8.6-5.64 8.58-.77 0-1.53 0-2.28 0-.9 6.36 6.61 9.94 12.35 8.21 8.88-2.67 15.56-12.74 14.44-23.15-.44-4.11-1.45-8.61-3.65-11.99-5.61-8.62-12.03-16.7-18.67-25.73-1.51 2.45-2.21 3.78-3.1 4.98-5.41 7.33-10.08 15.41-16.47 21.75-10.93 10.84-25.02 14.25-40.06 12.13-10.87-1.53-18.55-8.06-21.53-18.75-3.02-10.84-1-20.91 7.74-28.69 6.96-6.21 15.28-6.88 23.92-4.43 1.92.54 3.54 2.12 5.17 3.14.24-8.74-9.04-16.27-18.07-13.61-5.12 1.5-10.2 3.97-14.57 7.04-28.78 20.18-57.48 40.47-85.96 61.06-26.78 19.35-53.41 38.9-83.17 53.61-25.52 12.62-52.17 21.61-80.7 24.05-17.26 1.48-34.52 1.09-51.31-3.7-16.78-4.79-28.05-15.17-31.02-33.04-1.73-10.4 2.3-19.67 9.85-23.23 8.96-4.23 18.33-2 25.83 6.14.26.28.58.51.87.76zm197.88-22.62c-10.37 2.34-20.2 5.17-30.23 6.69-19.84 3.01-39.38 7.18-58.65 12.72-2.96.85-4.35 2.54-5.9 5.07-3.63 5.95-7.26 12.13-12.08 17.06-6.67 6.81-15.27 9.96-25.09 8.19-4.02-.73-7.44-2.73-8.73-6.7-1.22-3.75.65-7.06 3.36-9.64 1.8-1.72 3.77-3.52 6-4.5 7.63-3.34 15.34-6.51 23.16-9.37 2.59-.95 4.07-2.13 4.26-4.88.59-8.31 1.81-16.63 1.7-24.93-.28-20.13-1.19-40.25-1.86-60.83 3.2 0 6.52-.36 9.72.08 5.92.81 8.1 3.78 7.97 9.86-.11 5.3-.09 10.61-.29 15.91-.53 14.05-.98 28.1-1.81 42.13-.33 5.62-1.59 11.18-2.44 16.88.7.05 1.08.16 1.43.09 19.54-3.66 39.08-7.3 58.61-11.02 13.33-2.54 26.57-5.68 38.22-12.93 12.62-7.86 21.66-18.59 22.26-34.24.8-20.93-16.4-41.5-37.44-45.21-4.03-.71-8.18-.81-12.27-1.2l-.14-1.41c4.68-.69 9.36-1.38 13.96-2.06-.18-.3-.51-.87-1.34-2.28 6.18.63 11.6 1.18 17.57 1.78-1.48-.94-2.52-1.69-3.65-2.3-12.49-6.78-25.64-8.17-39.3-4.55-15.4 4.09-23.12 15.15-21.88 31.05.88 11.24 8.64 21.15 18.43 23.53 6.39 1.55 11.83-1.08 14.11-7.22 2.42-6.54 1.87-12.81-2.92-18.25-1.46-1.66-2.65-3.51-.59-5.1 2.31-1.78 3.59.52 4.62 2.16 3.83 6.08 4.58 12.65 2.61 19.49-3.16 10.94-13.11 14.83-23.3 9.01-9.82-5.6-14.45-14.53-15.24-25.52-1.76-24.39 19.5-41.94 44.19-35.77 23.1 5.77 37.69 21.4 45.48 43.39 5.14 14.51 4.91 28.92-3.55 42.48-.16.25-.02.69-.02 1.33 1.32-.94 2.38-1.73 3.47-2.48 21.56-14.76 43.06-29.62 64.76-44.17 4.11-2.76 8.87-4.97 13.64-6.26 15.35-4.16 27.37 7.25 23.96 22.33-1.35 5.98-5.24 9.53-10.21 9.32-6.32-.27-11.09-4.25-12.09-10.08-.75-4.39-1.9-4.94-5.69-2.53-7.33 4.66-10.2 11.79-10.09 20.03.11 8.39 3.74 15.11 11.4 19.18 6.41 3.4 13.25 3.69 20.16 2.16 20.47-4.53 30.96-19.88 40.16-36.84-13.26-11.84-27.24-22.06-42.71-30.19-1.03-.54-2.26-.83-3.43-.93-9.79-.85-19.34.14-28.47 4.01-2.34.99-4.58 2.22-6.86 3.35.31-2.49 1.18-4.37 2.37-6.02 1.08-1.49 2.55-2.69 3.77-4.1 2.58-2.97 2.43-4.73-.99-6.66-2.51-1.42-5.26-2.54-8.04-3.35-23.07-6.75-46.4-12.21-70.36-14.79-33.31-3.58-65.92-.99-97.67 10.36-34.76 12.42-64.24 33.05-90.89 58.06-8.51 7.98-13.82 18.09-16.71 29.37-4.85 18.89 2.63 34.76 19.39 41.46 18.37 7.36 33.8.58 40.15-17.64 4.28-12.27-3.06-26.41-15.21-29.29-8.19-1.94-16.56 1.64-18.8 8.04-1.47 4.2-.46 7.09 3.15 8.41 2.82 1.03 4.49 2.81 4.47 5.85-.02 3.41-1.77 5.79-4.89 7.05-2.9 1.17-5.43.52-7.51-1.88-3.84-4.41-5.17-9.5-4.09-15.19 3.24-16.97 22.93-23.95 37.6-13.37 11.65 8.41 14.99 27.04 7.16 40.67-13.18 22.93-50.22 25.93-64.89 3.11-.37-.58-.93-1.04-.92-1.04-1.25 1.41-2.37 2.67-3.49 3.92-1.26-1.15-2.9-2.08-3.71-3.49-2.76-4.76-6.63-7.52-12.2-7.57-5.56-.05-9.34 2.99-11.57 7.7-1.32 2.8-2.26 6.04-2.38 9.12-.66 16.57 9.53 29.2 27.1 33.42 22.62 5.43 45.29 4.41 67.88-.32 25.8-5.41 49.7-15.75 72.74-28.31 21.34-11.64 41.51-25.08 61.57-39.41zm-132.8 39.76c9.11 3.68 20.62-3.03 24.89-14.12-8.98 3.6-17.39 7.34-24.89 14.12z"/><path d="m370.47 196.72c10.86 3.29 14.91 9.64 11.11 19.51-5.03 13.07-9.54 26.38-13.46 39.83-1.43 4.89-.98 10.48-.56 15.69.31 3.86 3.27 5.23 6.23 2.8 3.9-3.21 7.46-7.09 10.3-11.27 5.09-7.5 4.72-16.63 6.57-25.12 2.42-11.09 5.82-21.97 8.76-32.95.85-3.19 2.94-4.27 5.94-3.46 4.06 1.1 8.06 2.45 12.62 3.85-2.5 6.51-5.08 12.43-7.06 18.55-3.13 9.69-6.09 19.44-8.62 29.3-.83 3.21-.46 6.87.01 10.23.63 4.48 3.2 5.55 6.5 2.36 3.56-3.45 6.54-7.59 9.31-11.73 2.36-3.52 2.97-7.52 3.04-11.99.23-16.34 5.49-31.01 17.15-42.82 8.89-9.01 19.23-12.45 31.6-6.41.75-2.1 1.45-4.05 2.56-7.15 4.09 3.77 8.09 6.83 11.28 10.56 3.16 3.69 1.42 7.92-.06 12.02-3.67 10.2-7.46 20.38-10.46 30.79-1.2 4.18-.83 8.94-.51 13.39.37 5.21 3.36 6.3 7.55 3.03 5.73-4.47 9.13-10.58 11.7-17.22.81-2.1 1.44-4.28 2.35-6.33.31-.69 1.25-1.09 1.9-1.62.38.76 1.17 1.57 1.08 2.26-.34 2.35-.64 4.81-1.59 6.95-2.86 6.51-5.52 13.19-9.16 19.26-5.69 9.48-17.99 11.26-24.01-.6-.17-.33-.47-.59-.73-.9-11.44 18.82-33.21 17.02-38.59-1.05-3.52 5.23-6.74 11.32-11.2 16.3-5.89 6.56-14.97 5.49-19.26-1.61-1.47-2.42-2.32-5.22-3.58-8.17-1.58 2.78-2.81 5.58-4.61 7.96-2.62 3.47-5.28 7.07-8.58 9.83-7.63 6.4-17.59 3.84-20.17-5.83-1.8-6.72-2.09-14.2-1.39-21.17 1.67-16.7 6.87-32.61 12.82-48.25 1.08-2.84 2.07-5.71 3.2-8.83zm60.17 47.58c.4 2.85.65 5.77 1.26 8.6.99 4.57 2.75 8.89 7.87 10.02 5.61 1.24 10.99.18 14.96-4.25 2.11-2.36 5.08-5.56 4.85-8.12-1.16-12.68 1.13-24.82 3.88-37.01.26-1.15-.53-3.05-1.47-3.87-3.51-3.06-8.52-2.88-13.53.84-11.25 8.36-16.54 19.98-17.82 33.78z"/><path d="m0 219.4c1.92-3.2 3.46-5.77 5.16-8.6 6.68 4.88 13.84 1.11 20.75.02 43.88-6.88 87.7-14.1 131.55-21.22 43.32-7.04 86.63-14.1 129.95-21.13 41.62-6.75 83.23-13.48 124.85-20.21 16.75-2.71 33.53-5.27 50.24-8.23 2.75-.49 5.19-2.75 7.82-4.21 1.72 1.61 4 3.75 6.65 6.23-158.94 25.78-317.68 51.52-476.97 77.35z"/><path d="m14.3 220.52c6.93-1.07 13.87-2.09 20.79-3.21 43.85-7.1 87.69-14.21 131.54-21.33 38.48-6.25 76.95-12.55 115.43-18.79 41.62-6.75 83.24-13.46 124.86-20.19 16.89-2.73 33.78-5.4 50.64-8.27 2.05-.35 3.83-2.12 5.89-2.66 1.83-.48 4.48-.93 5.62.01 1.11.91 1.6 4.14.82 5.36-.77 1.2-3.46 1.5-5.34 1.59-2.27.11-4.66-.94-6.85-.59-44.91 7.2-89.79 14.56-134.68 21.84-43.45 7.05-86.91 14.02-130.36 21.07-38.48 6.24-76.95 12.55-115.43 18.8-18.59 3.02-37.18 5.95-55.76 9.02-2.58.43-5.04 1.57-7.63 2.03-1.64.29-3.46.18-5.05-.27-.45-.13-.86-2.82-.46-3.09 1.37-.91 3.1-1.29 4.71-1.81.35-.11.79.06 1.18.1.02.13.04.27.06.4z"/><path d="m230.37 169.4c9.66-1.55 18.82-3 27.96-4.49 36.12-5.89 72.23-11.89 108.37-17.6 4.82-.76 7.44-2.93 8.2-7.14 10.31 1.76 20.38 3.49 31.11 5.32-24.88 3.91-49.1 7.67-73.3 11.54-33.65 5.38-67.29 10.84-100.93 16.28-6.94 1.12-13.86 2.37-20.81 3.36-1.15.16-2.46-.71-3.69-1.11.99-.95 1.83-2.47 2.98-2.77 11.5-2.99 21.07-9.17 29.53-17.3 4.31-4.14 8.48-8.42 13-12.32 2.47-2.13 5.35-3.98 8.35-5.25 5-2.12 10.09-.17 12.32 4.16 2.16 4.18.77 10.51-3.03 13.34-2.88 2.14-6.06 2.83-9.3.92-3.37-1.98-4.4-5.13-3.7-8.89.16-.87.44-1.73.91-3.54-9.59 8.73-18.51 16.85-27.98 25.47zm37.02-27.21c.08 1.6.86 3.99.07 4.73-1.09 1.02-3.34.81-5.73 1.23-.84 1.68-.24 4.11 2 4.38 1.8.21 4.47-1.25 5.67-2.8 2.15-2.79 1.02-5.58-2-7.54z"/><path d="m286.87 136.01c11.14-5.12 22.88-8.24 35.07-9.14 7.63-.56 15.34-.39 22.99-.03 7.52.35 11.91 3.88 13.35 9.77 1.56 6.42-2.23 11.65-8.81 11.54-3.11-.05-6.3-.83-9.27-1.83-6.01-2.04-11.88-4.48-17.82-6.73-11.47-4.33-23.14-6.7-35.5-3.58z"/><path d="m190.88 389.88c4.77-4.2 9.49-8.44 14.31-12.57 4.19-3.59 8.48-7.05 13.12-10.89-10.95 1.77-21.49 3.54-32.06 5.16-30.68 4.69-61.35 9.42-92.06 13.87-4.21.61-7.05 1.85-7.69 5.89-7.56-1.34-14.81-2.62-23.04-4.08 7.59-1.15 14.34-2.18 21.1-3.19 37.9-5.72 75.8-11.41 113.7-17.16 11.01-1.67 22-3.55 33.01-5.22 1.04-.16 2.2.47 3.31.74-.87.6-1.65 1.48-2.61 1.76-9.41 2.72-17.31 7.89-24.29 14.61-3.83 3.68-7.57 7.45-11.58 10.92-1.86 1.61-4.15 2.95-6.48 3.75-4.17 1.44-8.12-.4-9.68-4.01-1.53-3.54-.1-8.52 3.2-10.6 2.72-1.71 5.57-1.94 8.02.48 2.35 2.32 2.59 5.09 1.08 8.03-.44.86-.84 1.74-1.27 2.59-1.17-.09-2.49.15-3.46-.32-1.07-.51-1.82-1.68-2.71-2.55 1.01-.44 2.07-1.34 3.03-1.24 2.77.28 2.87-1.11 2.19-3.02-.96-2.7-4.4-3.06-6.37-.58-1.65 2.08-2.49 4.54-.61 6.88 2.25 2.8 5.06 2.21 7.85.76z"/><path d="m286.04 123.13c14.14-10.34 29.13-17.56 46.21-19.78 4.63-.6 9.13.13 11.6 4.96 1.61 3.15 1.76 6.37-.11 9.49-1.95 3.24-5.11 4.26-8.56 3.76-4.58-.66-9.05-1.96-13.62-2.71-10.86-1.77-21.37-.18-31.6 3.68-.98.37-1.99.68-2.99 1-.09.03-.24-.1-.92-.4z"/><path d="m205.14 409.79c-15.13 3.52-30.11 3.28-45.01-.41-5.3-1.31-10.28-3.24-11.19-9.71-.8-5.7 2.99-9.32 8.59-8.04 2.04.47 4.07 1.24 5.93 2.22 3.64 1.9 7.19 3.98 10.71 6.09 9.56 5.72 19.44 10.39 30.96 9.85z"/><path d="m420.88 330.93c8.26-2.48 16.76-2.63 25.29-1.11 13.11 2.33 24.11 8.5 32.89 18.55.44.5.9.99 1.25 1.54 1.27 2 3.24 4.28.99 6.38-2.3 2.14-4.05-.37-5.64-1.81-15.53-14.11-33.42-22.62-54.78-23.54z"/><path d="m189.44 418.67c-12.37 6.36-25.44 9.39-39.35 8.22-1.51-.13-3.09-.82-4.42-1.61-3.39-2.03-4.66-6.61-2.99-10.1 1.52-3.18 4.72-4.35 8.84-2.96 2.24.76 4.34 1.93 6.5 2.93 10.07 4.65 20.54 5.58 31.42 3.52z"/><path d="m56.41 78.69c-11.28 10.23-13.39 22.16-10.43 35.5.2.9.6 1.95.33 2.73-.73 2.06-1.52 5.44-2.75 5.66-1.99.35-4.78-.94-6.43-2.42-1.39-1.25-1.96-3.72-2.32-5.74-2.36-13.17 5.78-28.74 17.86-34.42.91-.43 1.9-.67 3.75-1.3z"/><path d="m60.77 201.17c-19.79.99-36.08-5.63-47.55-22.33-.89-1.3-1.9-2.72-2.15-4.2-.22-1.31.55-2.78.88-4.18 1.24.51 2.78.71 3.67 1.58 4.62 4.54 8.75 9.62 13.64 13.83 9.08 7.82 19.75 12.68 31.52 15.31z"/><path d="m288.66 111.21c6.58-7.77 13.27-15.38 22.76-19.55 3.23-1.42 6.77-2.25 10.25-2.93 2.52-.49 4.92.42 5.64 3.22.74 2.89-.88 4.81-3.36 6.04-.82.41-1.74.74-2.64.81-12.11.91-22.85 5.33-32.64 12.41z"/><path d="m142.76 539.47c-4.18 9.59-4.44 11.13-2.12 14.92-2.76-.78-4.86-1.38-7.32-2.08 4.28-2.95 7.89-13.99 6.35-18.28 6.8.73 6.99.9 7.44 7.27.18 2.51.3 5.02.5 8.58 2.09-2.56 3.7-4.49 5.27-6.44q4.03-5.02 10.02-2.04c-3.61 2.83-7.21 13.94-5.51 18.59-3.01-.97-5.57-1.79-8.58-2.76 5.46-2.96 4.44-8.4 6.09-12.71l-9.84 11.67c-.34-.08-.67-.16-1.01-.24-.4-5.17-.8-10.34-1.28-16.49z"/><path d="m430.28 431.21c8.4-8.29 9.69-17.5 7.36-27.69-.59-2.59-1.61-5.75 2.04-7.15 2.38-.91 5.64 1.64 6.42 5.2 2.86 13.04-5.07 26.32-15.81 29.64z"/><path d="m445.57 325.07c9.58-4.22 19.09-5.37 28.41.5 1.23.78 2.8 1.43 3.47 2.58 1.16 1.98 3.03 5.03 2.3 6.33-1.66 2.94-4.38.76-6.44-.51-8.5-5.23-17.68-8.25-27.73-8.9z"/><path d="m355.74 525.81c1.69-.92 3.94-2.18 6.23-3.39 2.8-1.47 6.1-2.85 8.38-.1 1.55 1.87 1.58 5.01 2.28 7.59-.42.23-.85.46-1.27.69 2.89 1.51 5.78 3.01 8.82 4.6-5.46 5.92-8.96-1.4-13.33-2.52-.3.34-.61.68-.91 1.02 1.51 2.18 3.01 4.36 4.63 6.7-1.65.85-4.08 2.11-6.54 3.38-.28-7.25-3.6-12.73-8.29-17.97zm6.02-.87c1.26 2.38 2.37 4.5 3.5 6.62 2.8-1.18 3.64-2.82 2.54-5.22-1.17-2.56-3.04-3.06-6.04-1.4z"/><path d="m197.93 568.26c3.69-3.41 4.96-15.47 1.97-19.66 4.29.44 8.08.47 11.65 1.36 1.55.39 3.7 2.52 3.73 3.9.05 2.4-1.32 4.84-2.1 7.26-.48-.02-.95-.03-1.43-.05 1.67 2.89 3.34 5.77 5.15 8.91-2.86.07-5.47.31-6.82-2.79-.98-2.24-2.04-4.45-3.07-6.67-.4.13-.8.25-1.2.38v8.11c-2.05-.19-4.71-.44-7.88-.73zm8.72-16.95c-.25 2.58-.47 4.93-.69 7.25 3.44.85 4.87-.68 5.13-3.2.28-2.65-1.14-4.15-4.44-4.05z"/><path d="m396.09 516.3c3.24 1.28 6.27 2.49 9.42 3.73-4.77 6.58-9.21-.85-13.8-1.04-.21.37-.41.73-.62 1.1 1.74 1.94 3.48 3.88 5.44 6.07-1.72 1.09-3.98 2.54-5.46 3.48-1.57-3.12-2.82-6.14-4.54-8.87-1.67-2.65-3.83-5.01-6.02-7.81 1.29-.89 3.5-2.44 5.74-3.93 2.53-1.68 5.29-2.91 8.13-1.08 3.02 1.95 3.1 4.95 1.7 8.34zm-5.95 1.63c2.98-1.43 3.57-3.28 2.07-5.64-1.5-2.38-3.41-2.56-5.92-.52 1.26 2.02 2.49 3.98 3.85 6.16z"/><path d="m66.2 517.24c5.24-.69 12.23-11.44 10.99-16.89 4.34 3.12 8.2 5.29 11.26 8.28 3.06 2.98 2.51 7.71-.43 11.67-2.93 3.95-7.12 5.37-11.59 3.28-3.28-1.53-6.22-3.82-10.22-6.34zm15.81-10.83c-2.87 4.49-5.6 8.76-8.25 12.9 3.39 4.2 7.88 1.81 10.56-2.28 3.07-4.68 2.48-8-2.31-10.63z"/><path d="m39.22 203.81c-10.31 4.98-25.22.55-30.08-8.27-.69-1.25-.21-3.14-.27-4.73 1.44.13 3.34-.29 4.24.47 7.34 6.27 15.47 10.83 26.11 12.53z"/><path d="m170.54 432.95c-7.27 4.88-14.8 8.96-23.77 9.05-1.96.02-4.16-.06-5.8-.94-1.33-.71-2.72-2.68-2.7-4.08.01-1.13 2-2.35 3.29-3.28.53-.38 1.59-.25 2.33-.05 8.95 2.39 17.8 1.88 26.65-.7z"/><path d="m174.14 563.95c-2.13-.46-4.26-.93-5.81-1.27 3.44-5.01 6.75-9.97 10.22-14.81.82-1.15 2.19-1.9 3.3-2.84.52 1.27 1.26 2.5 1.53 3.83.78 3.89 1.29 7.84 2.09 11.73.38 1.84 1.15 3.6 1.93 5.95-2.64-.5-5.33-1-6.9-1.3 0-2.54.71-5.28-.17-5.96-1.34-1.04-4.11-1.36-5.67-.65-1.53.7-2.99 3.04 1.14 4.8l-1.66.51z"/><path d="m430.54 502.14c-2.34 1.78-4.58 3.48-6.38 4.85-1.1-1.84-2.07-3.47-3.04-5.09-.53-.03-1.06-.05-1.59-.08-1.14 1.93-2.5 3.78-3.27 5.84-.17.45 1.74 1.67 3.13 2.94-1.32 1.03-3.05 2.39-4.34 3.4-1.63-6.09-3.27-12.04-4.77-18.03-.29-1.15-.02-2.44-.01-3.66 1.17.3 2.48.37 3.5.94 3.47 1.94 6.79 4.14 10.26 6.07 1.86 1.03 3.92 1.71 6.52 2.81z"/><path d="m115.44 522.94c-1.09 1.64-1.99 3.01-2.65 4-1.55-2.14-3.03-4.18-5.02-6.92-1.51 2.89-2.4 4.61-3.78 7.25 2.23.19 3.93.34 5.96.51-.91 1.75-1.81 3.49-2.73 5.25-1.21-1.69-2.17-3.02-3.6-5.01-1.43 2.81-2.42 4.75-4.03 7.89h8.94c-.45 1.28-1.01 2.87-1.72 4.87-4.76-2.45-9.13-4.7-13.95-7.19 4.79-1.75 10.46-12.79 9-17.61 4.74 2.42 8.97 4.59 13.59 6.95z"/><path d="m338.46 553.95c1.7-4.89-2.71-16.29-7.28-18.41 4.98-1.89 9.44-3.59 14.37-5.46.49 1.98.87 3.53 1.17 4.73-2.69-.32-5.11-.61-8.56-1.02 1.21 3.22 1.92 5.11 2.64 7.01.67.52 1.33 1.05 2 1.57.97-1.36 1.93-2.71 2.98-4.18.38.98 1.06 2.75 1.8 4.66-1.96-.12-3.68-.22-6.12-.37 1.07 2.8 1.8 4.72 2.54 6.65 3.79.06 5.67-1.66 6.32-5.55.83 1.46 1.67 2.92 2.75 4.82-5.06 1.92-9.64 3.66-14.6 5.54z"/><path d="m289.2 553.38c-.67-2.03-1.33-4.03-2.1-6.39 6.12-1.27 11.75-2.44 17.89-3.72.14 2.49.26 4.58.41 7.13-2.22-1.78-3.87-3.12-5.53-4.45-.43.36-.85.72-1.28 1.09 1.97 5.31.68 11.67 5.72 16.51-2.81.6-5.8 1.25-8.79 1.89 2.77-2.75 1.28-5.56.69-8.29-.64-2.96-1.26-5.93-1.9-8.97-4.99-1.32-2.27 4.14-5.11 5.19z"/><path d="m249.81 570.1c4.28-4.45 1.09-12.97-7.12-18.65 3.56-.32 6.43-.57 8.35-.74 1.06 3.12 1.96 5.76 2.86 8.4.41-.03.82-.07 1.24-.1.5-2.58 4.13-4.51.57-8.34 2.53-.14 4.64-.25 6.92-.38-3.06 6.34-9.81 11.5-4.29 19.82h-8.52z"/><path d="m327.65 557.42c-2.6.76-5.2 1.52-6.97 2.04-.63-3.32-.87-6.53-1.91-9.46-1.05-2.99-.28-7.12-5.57-8.75 3.51-1.13 6.13-1.97 8.04-2.58.6 3.36.76 6.6 1.81 9.52 1.07 2.97.24 7.14 4.6 9.24z"/><path d="m31.99 97.77c-3.86 5.38-4.46 10.61-3.91 16.14.1 1.04-.86 2.2-1.33 3.3-1.21-.62-2.82-.92-3.55-1.9-4.42-5.86-.32-14.9 8.79-17.54z"/><path d="m449.86 413c.38-3.76.73-7.8 1.23-11.83.13-1.03.73-1.99 1.11-2.99 1.05.66 2.47 1.07 3.08 2.01 3.07 4.79 0 11.12-5.42 12.81z"/><path d="m315.36 412.93c1.17 9.71 2.12 17.86 3.13 26 .78 6.26 2.73 12.62 2.11 18.73-.5 4.9-2.78 10.36-7.9 13.18-3.43 1.89-8.03-1.47-8.52-5.4-1-8.01-2.54-15.95-3.72-23.94-1.12-7.6-1.47-15.37-3.36-22.76-.94-3.65.39-5.9 1.72-8.42 2.32-4.43 6.6-5.56 10.74-2.76 2.47 1.67 4.44 4.07 5.8 5.37zm-3.54 27.4c.38-.06.75-.13 1.13-.19-1.08-8.09-2.14-16.18-3.29-24.26-.12-.88-.53-1.93-1.17-2.46-.93-.78-2.23-1.63-3.31-1.56-.81.06-1.9 1.41-2.18 2.39-.39 1.33-.39 2.9-.13 4.29 1.46 7.9 4.73 15.05 8.96 21.8zm-6.59-4.47c.69 5.1 1.27 10.22 2.15 15.28.25 1.44 1.36 2.73 2.07 4.09.34 1.28-.8 2.95-.6 4.44.29 2.15 1.26 5.71 2.46 5.93 2.99.57 3.29-2.63 3.75-4.92.18-.88.06-1.84-.02-2.75-.75-8.32-5.03-15.18-9.8-22.07z"/><path d="m290.18 409.63c.87 5.31 1.66 10.01 2.38 14.72.18 1.17.41 2.5.03 3.54-.63 1.74-1.58 3.45-2.77 4.84-.24.28-2.6-.54-3.2-1.4-1.17-1.66-3.05-3.21-1.21-5.92 2.14-3.16.44-10.46-2.53-12.8-2.04-1.61-3.59-1.08-3.92 1.46-.25 1.93-.12 3.98.23 5.91 2.88 16.3 5.84 32.6 8.82 48.88.33 1.81.78 3.66 1.56 5.3.43.91 1.59 1.8 2.57 1.99.49.1 1.67-1.31 1.88-2.19.93-3.86.64-7.42-2.08-10.8-1.03-1.28-.93-3.78-.69-5.65.11-.9 2.25-2.45 2.6-2.25 1.48.87 3.3 2.08 3.8 3.57 2.29 6.79 2.01 13.62-1.34 20.05-2.2 4.23-5.49 4.23-8.99 1-3.31-3.06-3.48-7.07-4.21-10.88-3.27-17.04-6.3-34.12-9.55-51.16-.47-2.45-1.36-4.45-.03-7.2 3.16-6.52 7.34-7.3 12.36-1.77.97 1.07 1.6 4.02 4.3.74z"/><path d="m334.02 441.89c.44-1.18.57-2.77 1.43-3.52 1.35-1.18 3.23-2.48 4.83-2.41.92.04 2.42 2.65 2.47 4.14.21 6.31-2.44 11.55-7.09 15.76-3.57 3.23-7.02 2.11-10.36-.56 0-1.23.11-2.6-.02-3.95-1.18-11.99-2.05-24.03-3.78-35.94-.69-4.74 1.44-7.54 4.15-10.25 3.31-3.3 7.2-3.44 11.25-.88.7.44 2.06-.16 3.49-.33.24 2.89 1.02 6.17.61 9.3-.31 2.37-1.86 4.79-3.47 6.67-.56.65-2.94-.26-4.49-.46.18-1.19.28-2.41.58-3.58.23-.88 1.12-1.74 1.01-2.51-.26-1.86-.7-3.79-1.58-5.42-.31-.57-2.71-.85-3.09-.38-1.17 1.43-2.56 3.28-2.56 4.96.02 4.75.67 9.5 1.12 14.25.7 7.52 1.36 15.04 2.24 22.53.14 1.21 1.32 2.29 2.02 3.44 1.14-.79 2.62-1.35 3.37-2.41 2.47-3.49 1.68-6.51-2.14-8.44z"/><path d="m372.76 429.4c1.35 0 1.88.07 2.38-.02.49-.09.95-.34 1.47-.54.07.34.22.62.13.74-3.17 4.44-5.68 5-11.93 2.78 3.31-10.14 1.54-20.5 1.22-30.75-.03-1.08-2.34-2.1-4.3-3.74 1.61-.59 3.45-1.5 5.4-1.93 2.31-.52 4.81-.29 7.04-.99 7.65-2.4 12.94 1.38 12.83 9.29-.09 6.31-.02 12.62-.02 19.16 1.19-.08 2.3-.14 3.4-.21.1.24.21.48.31.72-1.54.9-2.99 2.02-4.64 2.65-3.71 1.44-5.69.12-5.69-3.82 0-6.9.08-13.8.32-20.69.08-2.45-.26-4.37-3.08-4.5-2.53-.12-4.73 1.06-4.79 3.72-.19 9.26-.07 18.53-.07 28.13z"/><path d="m239.03 474.21c-9.78 15.07-28.15 21.33-41.96 14.9-2.35-1.09-4.59-2.73-6.36-4.6-.94-1-1.54-3.68-.89-4.49.85-1.07 3.16-1.63 4.69-1.39 3.25.5 6.36 1.87 9.6 2.5 11.25 2.17 21.89.33 31.87-5.32.66-.37 1.34-.7 3.06-1.6z"/><path d="m419.5 416.72c-6.25 1.27-12.47 2.73-18.76 3.67-1.44.21-4.45-1.3-4.5-2.15-.18-3.14-.28-6.86 1.23-9.36 1.48-2.45 4.96-3.71 7.58-5.45.43-.29 1.07-.28 1.47-.59 1.57-1.23 3.09-2.53 4.62-3.81-1.32-.97-2.73-2.85-3.93-2.72-2.1.22-4.48 1.26-5.95 2.74-1.07 1.08-.87 3.43-1.23 5.2-4.04-1.31-4.97-4.77-1.94-7.85 4.12-4.19 15.11-3.08 18.29 1.96.57.91.71 2.26.64 3.38-.19 3.44-.44 6.89-.92 10.3-.41 2.89.43 4.38 3.41 4.68zm-9.01-12.46c-6.5 1.74-8.42 3.82-8.61 9.34-.06 1.67-1.07 4.12 1.98 4.17 2.58.05 5.27-.5 5.77-3.63.52-3.22.59-6.52.86-9.88z"/><path d="m360.74 436.79c-3.27 6.65-4.62 7.08-12.74 5.07 3.6-10.23.64-20.61.73-30.94.01-1.19-.24-2.37-.23-3.56.02-3.21-.92-5.27-4.94-3.84.75-3.62 3.03-4.54 5.9-4.32 3.6.27 4.95 2.91 5.18 6 .42 5.53.53 11.09.75 16.64.19 4.62.28 9.25.56 13.86.16 2.71 1.25 4.11 4.8 1.09z"/><path d="m233.37 486.01c-.47 10.05-11.4 20.63-21.25 20.51-1.03-.01-2.4-.08-3.01-.7-1.27-1.31-3.08-3.13-2.9-4.52.15-1.25 2.52-2.68 4.17-3.17 2.1-.63 4.49-.17 6.69-.57 6.72-1.25 9.92-3.62 16.31-11.55z"/><path d="m232.09 504.1c-.67 5.37-3.94 8.85-8.63 8.18-1.24-.18-2.29-1.61-3.43-2.46.96-.67 1.83-1.52 2.88-1.98 3.03-1.33 6.13-2.51 9.18-3.74z"/><path d="m350.42 386q4.12 4.72.9 10.29c-4.36-3.89-4.37-3.95-.9-10.29z"/><path d="m218.77 97.79c-1.31 7.94-3.56 15.57-9.82 21.24-3.52 3.19-6.84 2.18-10.79-2.66-1.31 1.61-2.45 3.35-3.92 4.75-7.1 6.74-15.28 4.56-18.03-4.8-.59-2.02-1.06-4.15-1.1-6.24-.24-11.11 3.32-20.86 11.15-28.82 4.55-4.62 9.99-6.9 16.81-4.57.6-1.12 1.18-2.21 1.75-3.28 7.1 2.42 8.5 5.74 6.17 12.33-2.51 7.08-4.73 14.3-6.52 21.59-.55 2.24.75 4.94 1.21 7.42 1.98-1.53 4.57-2.69 5.82-4.68 2.48-3.95 4.23-8.35 6.29-12.57l.98.27zm-38.26 12.38c.36 1.78.42 4.3 1.42 6.36.76 1.57 2.53 3.23 4.17 3.66 4.22 1.12 10.48-3.98 10.92-8.33.73-7.2 1.46-14.41 2.36-21.6.38-3-1.15-3.98-3.6-3.65-1.62.21-3.41.92-4.66 1.96-6.54 5.44-9.88 12.57-10.61 21.61z"/><path d="m294.48 81.68c3.35-21.71-2.31-40.23-17.02-55.98-.63-.68-1.22-1.39-1.8-2.12-1.8-2.24-3.58-4.72-1.44-7.47 2.06-2.65 5.08-2.02 7.69-.88 10.91 4.79 16.94 13.73 20.03 24.76 3.54 12.63.36 29.89-7.46 41.68z"/><path d="m302.97 74.82c1.89-4.8 4.15-9.4 5.49-14.25 1.76-6.35.37-12.61-2.21-18.59-.58-1.34-1.56-2.72-1.51-4.05.08-2.07.38-5.48 1.49-5.89 2.11-.78 5.81-.77 7.12.59 2.22 2.29 3.96 5.77 4.38 8.96 1.87 14.01-3.52 25.02-14.77 33.24z"/><path d="m319.39 61.97c4.55-6.45 6.5-13.33 5.12-21.14-.39-2.23-1.09-5.22 2.05-6.08 3.02-.83 5.04 1.29 6.29 3.76 2.32 4.61 1.92 9.27-.53 13.7-2.83 5.1-7.45 7.99-12.92 9.76z"/></svg>