<svg viewBox="0 0 1125.3 631.6" xmlns="http://www.w3.org/2000/svg"><path d="m0 0h1125.3v631.6h-1125.3z" fill="none" opacity=".64"/><g fill="#211915"><path d="m172.89 487.62h-18.91l-32.09-136.24-33.51 131.7c-.33 1.01-.59 1.77-.75 2.27-.66 1.5-1.43 2.27-2.27 2.27s-1.46-.5-1.88-1.51c-.43-1.01-.8-2.02-1.14-3.03l-40.65-133.3-27.47 136.33c-.51 1.34-1.43 1.84-2.79 1.51-1.66-.37-2.16-1.46-1.49-3.29l29.01-141.25v-5.81h17.65s35.18 111.97 35.18 111.97l27.27-106.19.11-6.51h18.42l35.31 151.09z"/><path d="m345.93 488.05-18.4-.11-13.55-27.87c-3.72 1.7-6.75 2.97-9.1 3.81-7.73 2.71-14.81 4.05-21.19 4.05-5.4 0-11.35-1.01-17.92-3.02-15.16-4.71-24.39-7.06-27.77-7.06-2.03 0-3.54.08-4.55.25-1 .17-2.65.73-4.91 1.64-2.28.94-4.08 2.67-5.43 5.21l-9.34 20.81c-.84 1.52-2.09 2.28-3.78 2.28-.68 0-1.13-.34-1.39-1.07-.27-.72-.22-1.43.11-2.14l64.84-151.91 72.39 155.12zm-34.56-33.25c0-.52-.22-1.27-.66-2.29l-43.5-93.19-39.82 96.52c5.39-1.68 10.51-3.19 15.39-4.54 4.87-1.34 9.07-2.02 12.6-2.02 6.06 0 13.99 1.71 23.83 5.16 9.83 3.46 17.36 5.18 22.59 5.18 3.01 0 5.37-.42 7.04-1.27 1.68-.85 2.52-2.05 2.52-3.55z"/><path d="m505.1 468.19c0 5.71-2.81 10.6-8.47 14.62-5.63 4.03-12.22 6.05-19.79 6.05-12.44 0-28.09-6.97-46.93-20.93-7.88-6.05-15.79-12.1-23.7-18.15v37.83h-18.68v-133.45c0-4.36-.24-7.34-.75-8.94-.5-1.6-.93-2.99-1.25-4.15 0-1.36 3.31-2.5 9.95-3.42 6.66-.92 16.87-1.38 30.65-1.38 21.03 0 38.19 3.79 51.46 11.36 15.3 8.74 22.96 21.27 22.96 37.58 0 9.42-2.9 18.42-8.71 26.98-5.81 8.59-13.29 15.64-22.46 21.2-9.17 5.54-19.88 9.68-32.15 12.35-8.57 1.86-15.98 2.78-22.21 2.78 2.7 2.86 5.98 5.9 9.85 9.07 6.06 4.9 12.36 9.01 18.92 12.38 8.4 4.2 16.64 6.29 24.71 6.29 6.06 0 10.76-1.85 14.13-5.55 2.35-2.7 3.53-5.2 3.53-7.57 0-1.67-.61-3.28-1.77-4.78.5-1.02 1.01-1.67 1.51-2.02 1.68-1.35 3.95-2.03 6.81-2.03 3.53 0 6.46 1.36 8.82 4.05 2.37 2.69 3.55 5.96 3.55 9.83zm-22.45-78.45c0-15.3-5.44-27.36-16.33-36.2-10.88-8.83-25.43-13.24-43.66-13.24h-16.44v103.43h3.29c22.95 0 40.88-4.63 53.78-13.88 12.9-9.24 19.36-22.61 19.36-40.1z"/><path d="m640.04 447.5c0 11.61-4.41 21.49-13.25 29.64-8.82 8.17-19.04 12.25-30.64 12.25-8.57 0-16.38-1.68-23.45-5.06-5.72-2.69-12.11-7.32-19.18-13.87-1.84-1.67-3.49-3.57-4.91-5.67-1.44-2.11-2.15-3.83-2.15-5.17 0-2.52.93-3.78 2.78-3.78.84 0 2.35 1.93 4.54 5.8 1.69 3.02 3.95 5.88 6.8 8.56 4.2 4.2 8.65 7.5 13.37 9.84 6.22 3.21 12.95 4.8 20.17 4.8 9.58 0 17.32-2.85 23.2-8.58 5.88-5.72 8.84-12.86 8.84-21.44 0-5.2-1.6-10.68-4.8-16.41-2.37-4.2-4.97-7.73-7.81-10.59-8.75-7.22-16.33-13.53-22.69-18.92-7.06-5.88-11.87-10.16-14.37-12.86-4.22-4.37-7.55-9.5-9.98-15.38-2.45-5.89-3.66-10.93-3.66-15.13 0-3.72.76-7.71 2.26-12 1.51-4.27 3.87-8.11 7.07-11.49 1.68-1.67 4.84-3.51 9.46-5.52 4.62-2.04 8.95-3.05 12.99-3.05 4.36 0 8.83.95 13.37 2.79 4.53 1.86 6.8 3.7 6.8 5.56 0 1.68-.75 2.53-2.26 2.53-1.01 0-3.16-.98-6.43-2.91-3.29-1.94-7.19-2.91-11.73-2.91-6.72 0-11.94 2.1-15.64 6.3-3.02 3.54-4.54 8.07-4.54 13.63 0 4.2 1.43 8.57 4.3 13.11 1.68 2.7 4.03 5.65 7.07 8.84.82 1 4.1 4.03 9.83 9.08 4.03 3.54 6.64 5.8 7.82 6.81 3.2 2.69 6.55 5.47 10.1 8.33 3.52 2.86 6.46 5.46 8.81 7.83 6.23 6.22 10.59 11.5 13.12 15.87 3.19 5.56 4.79 11.96 4.79 19.17z"/><path d="m813.34 488.05-18.41-.11-13.57-27.87c-3.7 1.7-6.71 2.97-9.07 3.81-7.74 2.71-14.82 4.05-21.21 4.05-5.38 0-11.36-1.01-17.92-3.02-15.14-4.71-24.41-7.06-27.76-7.06-2.03 0-3.54.08-4.55.25s-2.65.73-4.93 1.64c-2.26.94-4.08 2.67-5.42 5.21l-9.34 20.81c-.84 1.52-2.11 2.28-3.79 2.28-.67 0-1.13-.34-1.38-1.07-.26-.72-.21-1.43.12-2.14l64.84-151.91 72.4 155.12zm-34.56-33.25c0-.52-.24-1.27-.66-2.29l-43.5-93.19-39.82 96.52c5.39-1.68 10.52-3.19 15.39-4.54 4.88-1.34 9.07-2.02 12.61-2.02 6.05 0 14 1.71 23.83 5.16 9.84 3.46 17.36 5.18 22.58 5.18 3.02 0 5.37-.42 7.05-1.27 1.69-.85 2.53-2.05 2.53-3.55z"/><path d="m947.03 485.35c0 1.01-.27 1.61-.76 1.77-.52.17-1.18.34-2.02.5h-88.55v-151.35h18.16v146.81h70.39c.66.18 1.3.39 1.89.62.58.26.89.81.89 1.65z"/><path d="m1120.32 488.05-18.42-.11-13.54-27.87c-3.73 1.7-6.74 2.97-9.08 3.81-7.76 2.71-14.83 4.05-21.22 4.05-5.39 0-11.36-1.01-17.92-3.02-15.15-4.71-24.39-7.06-27.76-7.06-2.03 0-3.55.08-4.55.25s-2.64.73-4.91 1.64c-2.27.94-4.08 2.67-5.43 5.21l-9.35 20.81c-.84 1.52-2.1 2.28-3.78 2.28-.68 0-1.14-.34-1.39-1.07-.26-.72-.21-1.43.13-2.14l64.82-151.91 72.41 155.12zm-34.56-33.25c0-.52-.23-1.27-.65-2.29l-43.52-93.19-39.82 96.52c5.37-1.68 10.52-3.19 15.38-4.54 4.89-1.34 9.09-2.02 12.6-2.02 6.07 0 14.01 1.71 23.84 5.16 9.87 3.46 17.37 5.18 22.58 5.18 3.03 0 5.39-.42 7.06-1.27 1.69-.85 2.53-2.05 2.53-3.55z"/></g><g fill="#99123e"><path d="m708.64 233.41v-23.25l-92.85-44.96v72.1c-7.21 0-13.9-.2-18.22-.51v-98l-94.36-45.68v120.98c-7.44-2.38-14.8-4.39-22.07-6.22v-140.97l-93.01-45.04v183.13c-124.89 9.68-134.43 27.67-134.43 27.67 150.25-11.09 254.61 24.55 254.61 24.55 210.59 61.04 335.52-57.84 335.52-57.84-45.29 12.54-96.77 36.52-135.18 34.03z"/><path d="m26.78 540.55c0 2.66-.03 5.48-.09 8.54-.03 3.05-.07 7.8-.07 14.26v22.34c0 2.88-.34 5.57-1.05 8.08-.7 2.51-1.94 4.77-3.71 6.79-1.8 2.08-4.36 3.87-7.65 5.37-3.29 1.51-7.63 2.52-12.98 3.01l-1.02-6.87c3.68-.43 6.63-.97 8.82-1.59 2.18-.61 4.04-1.62 5.54-3.02 1.47-1.38 2.53-3.06 3.17-5.05.62-1.99.94-4.59.94-7.77 0-3.43.01-6.83.04-10.16.02-3.32.02-6.46.02-9.42 0-7.12-.04-12.34-.1-15.61-.07-3.28-.12-6.23-.15-8.89h8.28z"/><path d="m104.7 605.08-7.82 4.05c-.14-.38-1.21-2.87-3.22-7.48-2-4.61-4.66-10.56-7.94-17.82h-29.73c-3.52 7.79-6.24 13.83-8.17 18.1-1.91 4.29-2.96 6.69-3.16 7.2l-6.74-3.64c.87-1.74 4.46-9.42 10.78-23.02 6.31-13.59 12.86-27.89 19.65-42.88h6.53c6.69 14.99 13.28 29.52 19.72 43.57 6.46 14.04 9.83 21.35 10.1 21.91zm-21.82-27.68c-1.78-4.09-3.64-8.37-5.63-12.82-1.96-4.45-4.03-9.11-6.2-13.96l-.2.04c-1.68 3.68-3.71 8.2-6.1 13.56-2.37 5.38-4.33 9.75-5.89 13.17l-.03.05h24.05v-.05z"/><path d="m168.85 603.75-6.29 5.18c-.72-.78-3.34-3.67-7.83-8.72-4.47-5.04-11.38-12.91-20.71-23.6l.05-.44c1.27-.34 2.95-1.06 5.07-2.19 2.11-1.11 3.89-2.32 5.33-3.63 1.24-1.13 2.32-2.55 3.25-4.21.92-1.68 1.37-3.92 1.37-6.74 0-2.57-.67-4.8-2.03-6.66-1.35-1.86-3.22-3.22-5.6-4.1-1.95-.74-3.99-1.17-6.12-1.34-2.15-.14-4.14-.22-5.94-.22-1.19 0-2.11 0-2.76.03-.64 0-1.11.02-1.41.02-.06 6.37-.11 11.97-.13 16.84 0 4.85-.02 8.29-.02 10.3 0 4.59.02 10.82.1 18.69.03 7.88.08 12.82.11 14.82h-8.28c.03-2 .09-5.89.15-11.67.08-5.78.11-12.95.11-21.56v-9.29c0-4.52-.08-12.75-.26-24.71.33 0 2-.04 5.01-.11 3.02-.06 5.78-.1 8.34-.1 2.89 0 5.71.17 8.46.5 2.73.35 5.41 1.05 8.02 2.16 3.32 1.41 5.92 3.47 7.88 6.19 1.93 2.73 2.9 5.94 2.9 9.61 0 4.75-1.46 8.71-4.38 11.87-2.91 3.18-5.68 5.51-8.28 7.05v.26c4.59 5.35 9.61 10.89 15.08 16.57 5.48 5.7 8.43 8.77 8.83 9.19z"/><path d="m238.4 574.54c0 5.89-1.44 11.06-4.33 15.52-2.89 4.45-6.65 8.03-11.27 10.74-4.02 2.38-8.49 4.19-13.42 5.43-4.94 1.23-10.47 1.85-16.63 1.85-2.34 0-4.63-.03-6.88-.1-2.24-.07-3.46-.09-3.71-.09 0-.17.06-4.03.15-11.58.08-7.55.12-14.7.12-21.46 0-3.59-.01-8.18-.02-13.8-.02-5.63-.1-12.46-.25-20.49.35 0 1.88-.01 4.6-.05 2.73-.04 4.2-.06 4.39-.06 6.93 0 13.07.63 18.44 1.87s10.16 3.19 14.36 5.88c4.9 3.1 8.53 6.84 10.9 11.21 2.36 4.37 3.56 9.41 3.56 15.14zm-8.54-.05c0-4.36-.93-8.3-2.81-11.85s-4.84-6.6-8.88-9.14c-3.77-2.38-7.97-4.04-12.56-4.98-4.61-.93-8.77-1.4-12.51-1.4h-2.61c-.06 5.29-.11 9.67-.12 13.15-.02 3.5-.03 6.26-.03 8.34 0 1.46.01 4.92.03 10.32 0 5.4.05 12.88.07 22.45h2.57c4.33 0 8.71-.51 13.09-1.52 4.37-1.02 8.08-2.44 11.07-4.26 3.82-2.27 6.87-5.15 9.22-8.65 2.32-3.5 3.48-7.66 3.48-12.47z"/><path d="m277.31 526.4-22.09 9.28-2.51-4.97 21.74-10.34zm-11.6 81.37h-8.28c.04-2 .09-5.58.14-10.72.08-5.17.1-12.56.1-22.2 0-3.81-.01-8.81-.05-15.01-.04-6.19-.09-12.62-.19-19.28h8.28c-.08 4.78-.14 10.34-.17 16.7-.05 6.35-.08 11.53-.08 15.53 0 10.17.03 18.05.11 23.63.06 5.56.11 9.36.15 11.36z"/><path d="m347.04 540.55c-.05 5.26-.12 11.27-.16 18.04-.05 6.75-.08 11.63-.08 14.6 0 9.51.04 17.07.1 22.68.06 5.6.1 8.59.1 8.96l-6.68 3.26c-10.11-13.64-19.56-25.98-28.34-36.96-8.78-11-13.87-17.34-15.24-19.06l-.09.05c0 8.98.06 20 .17 33.06.12 13.07.2 20.6.24 22.6h-7.85c.03-.82.08-3.81.16-8.93.07-5.12.1-12.25.1-21.39 0-3.64-.01-8.49-.05-14.54-.03-6.03-.1-12.44-.2-19.2l7.64-3.6c.6.76 5.72 7.27 15.38 19.51 9.65 12.24 18.74 23.63 27.29 34.12l.1-.05c0-5.16-.07-13.82-.2-26.03-.14-12.19-.19-21.21-.19-27.11h7.82z"/><path d="m438.16 563.54c0 4.89-1.58 9.31-4.74 13.26-3.16 3.94-7.38 6.61-12.65 8.03-2.27.61-4.75 1.05-7.44 1.29-2.69.29-5.69.43-9 .43l.1 21.21h-8.28c.03-2 .08-5.73.14-11.16.08-5.44.1-13.85.1-25.22 0-3.61-.01-8.04-.03-13.31-.04-5.24-.11-11.09-.21-17.52 1.43-.04 2.85-.05 4.23-.05h3.39c5.79 0 10.71.37 14.77 1.11 4.07.72 7.48 1.99 10.26 3.76 3.03 1.91 5.35 4.4 6.96 7.47 1.61 3.05 2.4 6.63 2.4 10.7zm-8.52 0c0-3.44-.79-6.39-2.37-8.8-1.58-2.43-3.99-4.36-7.23-5.75-2.01-.88-4.18-1.41-6.52-1.63-2.35-.21-4.75-.33-7.24-.33h-1.85c0 .37-.05 2.89-.1 7.54-.08 4.65-.11 8.33-.11 11.04 0 2.47.01 5.41.02 8.79.02 3.38.02 5.31.02 5.78h2.01c2.25 0 4.64-.16 7.17-.46s4.68-.85 6.5-1.66c3.14-1.34 5.54-3.2 7.2-5.58s2.5-5.35 2.5-8.94z"/><path d="m510.12 605.08-7.83 4.05c-.13-.38-1.19-2.87-3.2-7.48-2-4.61-4.66-10.56-7.94-17.82h-29.74c-3.52 7.79-6.25 13.83-8.16 18.1-1.92 4.29-2.99 6.69-3.18 7.2l-6.72-3.64c.87-1.74 4.47-9.42 10.78-23.02 6.29-13.59 12.85-27.89 19.66-42.88h6.51c6.71 14.99 13.27 29.52 19.73 43.57 6.48 14.04 9.84 21.35 10.1 21.91zm-21.81-27.68c-1.78-4.09-3.65-8.37-5.63-12.82-1.96-4.45-4.04-9.11-6.22-13.96l-.19.04c-1.69 3.68-3.71 8.2-6.09 13.56-2.39 5.38-4.34 9.75-5.89 13.17l-.02.05h24.04v-.05z"/><path d="m574.26 603.75-6.28 5.18c-.73-.78-3.35-3.67-7.81-8.72-4.49-5.04-11.4-12.91-20.74-23.6l.06-.44c1.26-.34 2.95-1.06 5.06-2.19 2.11-1.11 3.89-2.32 5.33-3.63 1.24-1.13 2.32-2.55 3.23-4.21.93-1.68 1.4-3.92 1.4-6.74 0-2.57-.68-4.8-2.04-6.66-1.35-1.86-3.22-3.22-5.59-4.1-1.95-.74-3.99-1.17-6.13-1.34-2.14-.14-4.12-.22-5.92-.22-1.22 0-2.13 0-2.78.03-.63 0-1.1.02-1.4.02-.07 6.37-.11 11.97-.13 16.84 0 4.85-.02 8.29-.02 10.3 0 4.59.02 10.82.07 18.69.05 7.88.1 12.82.13 14.82h-8.28c.03-2 .08-5.89.15-11.67.06-5.78.1-12.95.1-21.56v-9.29c0-4.52-.09-12.75-.24-24.71.34 0 2-.04 5.02-.11 3-.06 5.78-.1 8.32-.1 2.91 0 5.73.17 8.47.5 2.76.35 5.43 1.05 8.03 2.16 3.31 1.41 5.92 3.47 7.89 6.19 1.92 2.73 2.89 5.94 2.89 9.61 0 4.75-1.46 8.71-4.37 11.87-2.94 3.18-5.69 5.51-8.3 7.05v.26c4.59 5.35 9.62 10.89 15.1 16.57 5.47 5.7 8.41 8.77 8.81 9.19z"/><path d="m643.45 605.08-7.81 4.05c-.15-.38-1.2-2.87-3.22-7.48-2-4.61-4.65-10.56-7.95-17.82h-29.72c-3.53 7.79-6.26 13.83-8.16 18.1-1.93 4.29-2.98 6.69-3.19 7.2l-6.72-3.64c.87-1.74 4.47-9.42 10.78-23.02 6.29-13.59 12.85-27.89 19.64-42.88h6.53c6.7 14.99 13.27 29.52 19.73 43.57 6.45 14.04 9.81 21.35 10.08 21.91zm-21.8-27.68c-1.78-4.09-3.65-8.37-5.62-12.82s-4.03-9.11-6.2-13.96l-.2.04c-1.69 3.68-3.71 8.2-6.09 13.56-2.38 5.38-4.35 9.75-5.9 13.17l-.02.05h24.04v-.05z"/><path d="m724.2 607.67c-.32 0-2.53-.01-6.69-.04-4.15-.03-9.29-.06-15.41-.06-4.26 0-8.15.03-11.67.06-3.54.03-6.53.04-8.97.04.07-1.94.13-6.14.17-12.6.04-6.45.08-13.14.08-20.03 0-3.78-.03-8.78-.05-15-.03-6.22-.09-12.66-.2-19.33 2.37 0 5.35.01 8.92.04 3.55.04 7.22.06 11.02.06 6.39 0 11.59-.03 15.6-.06s6.2-.04 6.52-.04v6.99c-.33 0-2.42-.04-6.3-.09-3.87-.04-8.68-.07-14.43-.07-2.51 0-4.97 0-7.38.03-2.41.02-4.31.02-5.72.02 0 3.79-.04 7.56-.09 11.31-.07 3.76-.1 7.33-.1 10.68 1.51 0 3.29.02 5.34.03 2.07.01 3.89.03 5.5.03 5.88 0 11.15-.03 15.79-.09 4.63-.04 7.1-.07 7.4-.07v6.93c-.26 0-3.02-.04-8.28-.08s-10.05-.08-14.4-.08c-1.62 0-3.54.01-5.75.04-2.23.02-4.08.02-5.59.02 0 6.32.02 11.34.04 15.06.04 3.71.07 6.83.09 9.33 1.99.04 4.38.06 7.2.08 2.81.02 5.84.03 9.08.03 4.98 0 9.18-.02 12.57-.04 3.39-.04 5.31-.06 5.71-.06v6.98z"/><path d="m799.21 542.88c-.17.41-3.72 8.05-10.63 22.9-6.92 14.88-13.51 29.21-19.82 42.99h-6.66c-6.93-15.46-13.55-30.07-19.89-43.84-6.32-13.75-9.63-20.97-9.93-21.64l7.83-3.9c.22.68 3.25 7.63 9.06 20.91 5.8 13.28 11.4 25.76 16.79 37.48h.1c5.48-11.99 11.18-24.66 17.09-37.95 5.89-13.3 8.94-20.14 9.14-20.53z"/><path d="m854.47 607.67c-.3 0-2.53-.01-6.67-.04-4.15-.03-9.29-.06-15.41-.06-4.25 0-8.14.03-11.68.06-3.53.03-6.52.04-8.95.04.06-1.94.12-6.14.17-12.6.05-6.45.07-13.14.07-20.03 0-3.78-.01-8.78-.05-15-.03-6.22-.08-12.66-.18-19.33 2.37 0 5.33.01 8.91.04 3.56.04 7.23.06 11 .06 6.4 0 11.61-.03 15.63-.06 4.01-.03 6.19-.04 6.52-.04v6.99c-.33 0-2.42-.04-6.29-.09-3.86-.04-8.69-.07-14.44-.07-2.51 0-4.96 0-7.38.03-2.4.02-4.32.02-5.72.02 0 3.79-.03 7.56-.11 11.31-.06 3.76-.09 7.33-.09 10.68 1.5 0 3.28.02 5.34.03 2.05.01 3.89.03 5.5.03 5.89 0 11.16-.03 15.79-.09 4.64-.04 7.1-.07 7.39-.07v6.93c-.26 0-3.02-.04-8.27-.08-5.26-.04-10.06-.08-14.4-.08-1.61 0-3.54.01-5.75.04-2.24.02-4.09.02-5.6.02 0 6.32 0 11.34.05 15.06.03 3.71.07 6.83.09 9.33 1.98.04 4.37.06 7.19.08 2.81.02 5.84.03 9.08.03 4.99 0 9.18-.02 12.59-.04 3.39-.04 5.29-.06 5.69-.06v6.98z"/><path d="m931.69 540.55c-.06 5.26-.12 11.27-.17 18.04-.06 6.75-.08 11.63-.08 14.6 0 9.51.03 17.07.11 22.68.06 5.6.09 8.59.09 8.96l-6.68 3.26c-10.09-13.64-19.55-25.98-28.33-36.96-8.78-11-13.86-17.34-15.23-19.06l-.1.05c0 8.98.06 20 .17 33.06.13 13.07.19 20.6.24 22.6h-7.84c.03-.82.08-3.81.15-8.93.06-5.12.11-12.25.11-21.39 0-3.64-.03-8.49-.04-14.54-.04-6.03-.11-12.44-.22-19.2l7.64-3.6c.59.76 5.73 7.27 15.39 19.51s18.76 23.63 27.3 34.12l.08-.05c0-5.16-.05-13.82-.18-26.03-.14-12.19-.22-21.21-.22-27.11h7.84z"/><path d="m1001.49 547.63c-.54 0-2.78-.02-6.74-.05-3.94-.04-9.92-.05-17.93-.05-.06 6.87-.11 12.07-.13 15.62-.04 3.56-.06 8.39-.06 14.52s.03 11.89.07 17.97c.05 6.08.09 10.13.12 12.13h-8.28c.07-2 .13-6.11.17-12.29.06-6.21.08-12.26.08-18.18v-13.9c0-3.44-.05-8.72-.16-15.85-7.13-.03-12.91-.02-17.36.03-4.41.04-6.85.07-7.28.07v-6.93c3.45 0 7.64.01 12.57.04 4.94.04 10.21.06 15.79.06 8.11 0 14.87-.03 20.31-.06s8.38-.04 8.82-.04v6.93z"/><path d="m1073.18 574.19c0 5.42-.93 10.4-2.8 14.94-1.86 4.54-4.27 8.27-7.25 11.21-3.31 3.28-6.81 5.67-10.54 7.17-3.7 1.48-7.69 2.22-11.92 2.22s-8.07-.71-11.75-2.12c-3.68-1.43-6.98-3.54-9.93-6.35-3.24-3.05-5.85-6.89-7.85-11.53-1.99-4.64-2.99-9.84-2.99-15.64 0-5.17.78-9.84 2.36-14.08s3.93-8.04 7.08-11.43c2.91-3.15 6.36-5.57 10.39-7.31 4-1.72 8.23-2.59 12.69-2.59s8.69.83 12.53 2.44c3.85 1.62 7.18 3.87 9.99 6.74 3.27 3.35 5.77 7.3 7.45 11.83 1.69 4.55 2.54 9.36 2.54 14.48zm-8.53.8c0-4.35-.72-8.62-2.19-12.83-1.47-4.2-3.68-7.71-6.65-10.57-2.01-1.94-4.27-3.46-6.76-4.52-2.5-1.07-5.29-1.61-8.36-1.61s-5.83.55-8.43 1.64-4.96 2.68-7.06 4.8c-2.68 2.67-4.77 5.99-6.26 9.94-1.49 3.94-2.25 8.06-2.25 12.34 0 4.83.77 9.15 2.29 12.95 1.52 3.82 3.68 7.05 6.46 9.69 1.91 1.84 4.18 3.32 6.79 4.44 2.6 1.12 5.4 1.68 8.38 1.68s5.77-.54 8.37-1.62c2.59-1.09 4.95-2.66 7.07-4.69 2.51-2.42 4.57-5.48 6.19-9.2 1.6-3.75 2.41-7.88 2.41-12.44z"/><path d="m1125.1 588.84c0 3.46-.81 6.47-2.44 9.07-1.65 2.59-3.81 4.7-6.56 6.3-2.51 1.49-5.4 2.6-8.65 3.34-3.26.75-6.85 1.13-10.8 1.13-2.15 0-4.37-.06-6.67-.19-2.29-.13-3.62-.22-3.99-.25l-.4-7.24c.47.07 1.78.19 3.92.38 2.15.18 4.67.28 7.58.28 1.78 0 4.08-.24 6.89-.7 2.8-.48 4.97-1.08 6.46-1.81 1.99-.97 3.49-2.15 4.55-3.53 1.05-1.37 1.59-3.1 1.59-5.21 0-2.23-.54-4.13-1.59-5.7-1.06-1.56-2.81-3.06-5.25-4.49-1.57-.94-3.61-2-6.12-3.18-2.51-1.16-4.77-2.37-6.77-3.6-3.42-2.08-5.85-4.35-7.32-6.81-1.45-2.46-2.18-5.19-2.18-8.2s.66-5.75 1.99-8.02c1.32-2.26 3.04-4.2 5.16-5.79 2.13-1.61 4.76-2.82 7.86-3.61 3.11-.81 6.53-1.22 10.32-1.22 2.09 0 4.19.06 6.32.18s3.35.2 3.65.22l.7 7.29c-.3-.02-1.52-.16-3.66-.36-2.15-.19-4.79-.3-7.94-.3-1.87 0-3.8.19-5.79.63-1.98.42-3.74 1.06-5.25 1.94-1.34.76-2.48 1.83-3.42 3.2-.93 1.37-1.39 2.98-1.39 4.81 0 1.65.5 3.24 1.48 4.75.99 1.53 2.83 3.09 5.55 4.7 1.36.83 3.18 1.8 5.43 2.88 2.27 1.09 4.49 2.27 6.66 3.54 3.35 1.97 5.87 4.24 7.56 6.8 1.69 2.55 2.54 5.48 2.54 8.75z"/></g></svg>