<svg viewBox="0 0 1082.25 209.23" xmlns="http://www.w3.org/2000/svg"><path d="m223.55.85c8.88-1.38 18.72-1.58 26.61 3.43 11.39 6.77 17.89 19.04 22.39 31.08 12.63 34.71 13.83 72.67 8.53 108.95-1.19 9.29-4.74 19.78-13.85 24-5.39 1.81-12.29 1.33-16.03-3.45-6.04-7.29-4.13-17.36-3.63-26.03 1.96-13.71 2.71-27.61 2.08-41.43-.05-6.31-2.17-13.13-7.58-16.85-4.56-3.45-11.16-2.78-15.68.38-7.67 4.98-12.7 12.99-16.82 20.97-10.1 20.79-15.68 43.33-23.21 65.09-3.77 10.12-9.86 19.74-18.9 25.91-10.83 7.64-24.6 9.65-37.57 9.18-16.56-.79-31.48-11.19-40.17-24.96-10.83-17.52-20.48-35.75-31.06-53.41-3.36-5.14-7.89-11.71-14.89-10.96-7.37.68-10.15 8.93-9.92 15.29.52 21.79 11.07 41.65 14.82 62.86 1.31 6.54-.56 14.75-7.15 17.71-4.02.56-8.25 1.06-12.24.02-5.86-2.23-8.89-8.28-11.52-13.55-9.14-21.92-14.83-45.19-17.76-68.7.41-12.06-.72-24.27 1.83-36.17 3.49-19.4 8.82-39.94 23.21-54.28 12.4-12.56 33.74-16.3 48.78-6.4 14.59 10.12 23.61 25.82 33.18 40.33 7.02 11.18 13.58 24.33 26.48 29.7 8.89 4.33 20.3 1.67 26.84-5.61 4.69-4.83 7.01-11.28 9.49-17.41 5.26-13.19 10.51-26.36 16.28-39.33 6.56-16.62 19.48-32.07 37.46-36.38zm645.1 41.84c6.72-.52 13.47-.22 20.19.02.5 6.76-.41 13.56.61 20.28 6.88-.23 13.8-.43 20.68.11.18 5.98.83 12.04-.45 17.95-6.86-.13-13.71-.09-20.55.04-.32 14.44-.07 28.93-.16 43.37.07 6.13-.02 13.17 4.65 17.8 4.64 4.44 11.61 3.75 17.54 4.29.84 6.2.92 12.52-.23 18.68-11.26.13-23.66-.09-32.86-7.53-8.26-6.58-10.62-17.66-10.89-27.7-.16-26.95.11-53.92-.11-80.87.47-1.98-1.1-5.75 1.58-6.45zm-508.89 27.95c10.19-9.14 24.7-10.28 37.77-9.79 10.64-.04 21.31 2.89 29.7 9.54 9.4-9.76 23.97-9.79 36.54-9.54 11.48 0 23.75 3.41 31.49 12.36 5.71 6.7 6.77 15.86 6.95 24.34.07 17.91 0 35.82.04 53.76-.04 4.65.5 9.43-.97 13.92-6.68-.29-13.37.31-20.01-.34l-.7-1.01c-.72-23.34.65-46.75-.75-70.07.13-7.49-6.81-12.99-13.85-13.49-8.03-.5-17.37-1.47-23.93 4.22-4.89 4.02-4.31 10.91-4.62 16.6-.22 18.54-.13 37.1-.07 55.64-.45 2.61.84 6.32-1.4 8.23-6.81.23-13.71.49-20.5-.31 0-23.66.56-47.32-.57-70.97-.04-7.98-8-13.33-15.38-13.55-6.77-.34-14.14-.88-20.25 2.61-3.95 2.19-6.34 6.54-6.45 11.01-1.55 23.75-.09 47.57-.99 71.34-6.88 0-13.76-.05-20.63.05-.69-3.31-.98-6.7-.86-10.08.23-19.82-.18-39.63.2-59.43.11-9.04 2.16-18.85 9.25-25.06zm187.69-7.74c15.81-3.13 33.35-3.77 48.2 3.43 13.98 7.17 17.5 24.24 18.07 38.57.22 15.74 1.17 32.95-7.46 46.87-8.01 12.56-24.34 15.45-38.14 15.13-13.22.36-28.26-1.53-37.53-11.98-10.03-12.5-9.94-29.61-9.95-44.83.4-12.45 1.51-26.07 9.32-36.33 4.31-5.55 10.8-9.02 17.48-10.87m9.01 17.85c-6.25 1.33-10.83 6.81-12.06 12.92-2.23 13.25-2.26 26.79-.07 40.05 1.24 5.21 4.2 10.65 9.59 12.41 8.05 2.66 16.92 2.52 25.12.54 5.96-1.22 9.76-6.76 11.12-12.34 2.44-13.58 2.34-27.54-.02-41.12-1.6-6.27-6.56-11.79-13.19-12.7-6.79-.81-13.76-.93-20.5.25zm233.3-14.82c14.71-7.35 32-5.37 47.7-3.02 2.03.79 6.09.07 6.49 3 .25 4.94.2 9.92.09 14.88-.63.25-1.89.77-2.52 1.02-11.37-1.98-23.07-4.01-34.6-2.17-4.53.77-10.29 3.49-10.22 8.84-1.02 4.56 2.95 7.74 6.54 9.5 12.65 5.8 26.99 8.5 38.16 17.19 9.36 7.13 10.29 20.52 7.31 31.05-4.73 13.37-19.33 19.71-32.59 20.43-12.61.57-25.85.23-37.64-4.65-2.25-5.53-.83-12.04-.63-17.93 14.3 3.45 29.66 7.22 44.13 2.53 7.4-1.96 10.12-12.72 3.7-17.36-12.83-7.87-28.8-9.4-41.02-18.43-14.1-11.37-11-36.78 5.1-44.88zm146.08 1.1c-.65-2.61 2.21-4.11 4.35-4.22 14.79-1.99 29.99-3.22 44.7.02 9.41 2.39 18.63 8.16 22.69 17.32 5.14 11.09 3.18 23.57 3.56 35.38-.25 11.64 1.31 24.04-3.86 34.91-4.99 10.42-17.1 14.75-27.83 16.13-13.38.83-27.74.99-39.8-5.73-19.83-11.1-19.06-44.88 1.2-55.14 14.95-7.89 32.47-5.32 48.53-3.49.43-7.55-.77-16.96-8.62-20.36-14.43-5.59-29.99-.92-44.86-1.04-.04-4.6-.22-9.2-.05-13.78m14.52 75.85c6 6.5 15.68 6.02 23.79 5.73 5.48-.2 11.8-2.5 14.01-7.96 1.87-6.54.93-13.46 1.24-20.18-10.22-2.66-21.18-3.31-31.57-1.28-10.35 1.89-14.39 16.15-7.47 23.68zm87.7-71.54c11.37-11.46 28.94-11.18 43.93-10.12.43 6.07.31 12.16-.11 18.24-8.28 1.42-17.91-1.65-25.08 3.84-4.42 3.22-4.89 9.16-5.03 14.16-.41 22.42 0 44.86-.22 67.28-7.02.92-14.1.16-21.15.56-1.72-18.25-.27-36.72-.75-55.07.34-13.17-1.74-28.62 8.41-38.9zm-412.38-8.3c7.58-.13 15.29-.97 22.78.56 1.81 27.79 9.68 55.12 21.97 80.06 2.1-2.71 3.41-5.91 4.69-9.07 9.63-22.49 16.3-46.5 17.62-71.02 7.46-1.44 15.11-.7 22.66-.47-1.01 35.36-15.85 68.47-31.76 99.44-1.11 3.34-5.05 2.5-7.71 2.68-5.57-.18-11.18.38-16.69-.38l-1.8-2.23c-16.64-30.72-30.81-64.12-31.76-99.57zm107.71.09c7.19-.54 14.43-.47 21.63-.07.31 33.76.5 67.59-.07 101.33-6.65 1.92-14.14.18-21.09.84-.38-34.01-.93-68.07-.47-102.1z" fill="#0094ff"/></svg>