<svg viewBox="0 0 1419.12 442.69" xmlns="http://www.w3.org/2000/svg"><path d="m151.3 46.09c-7.09 20.45-21.97 35.99-33.89 53.39-7.68 11.2-15.78 22.11-23.59 33.23-37.36 53.21-24.22 120.84 11.99 163.11 14.35 16.75 29.95 32.75 51.59 40.69-2.59 8.5-8.62 4.01-13.58 3.58-43.04-9.62-73.75-35.58-94.43-73.34-28.51-52.06-21.24-111.27 17.56-156.11 24.53-28.35 54.87-51.21 77.21-81.62 3.02-2.57 4.53-8.86 9.97-5.78 3.9 2.2 2.27 7.07 1.22 10.51-1.27 4.12-2.64 8.25-4.05 12.34z" fill="#9bb324"/><path d="m26.23 248.1c26.92 71.92 78.25 108.18 156.88 110.82 16.73-1.35 33.36-3.22 49.04-9.79 5.69-2.38 8.37-.66 7.62 5.64-.75 2.58-2.16 4.77-4.07 6.64-6.63 5.34-13.72 10.05-20.88 14.7-32.46 14.55-65.82 21.98-101.27 12.63-10.36-3.21-20.44-7.35-31.11-9.58-40.03-19.13-69.49-47.25-78.67-92.5-4.81-31.83-7.04-63.49 6.22-94.13 7.94-7.19 8.32-1.33 8.18 4.83-.41 17.42.68 34.57 8.08 50.74z" fill="#8eb695"/><path d="m254.3 334.31c1.87 1.41 4.42 2.25 4.42 5.24-1.65 6.94-5.69 11.39-13 12.44-3.14 1.47-6.27 2.94-9.41 4.41 2.67-7.85-1.12-6.05-5.99-4.39-15.27 5.19-30.8 9.2-47.21 6.93 24.71-5.38 50.28-8.3 71.19-24.62z" fill="#9dc0a3"/><path d="m26.23 248.1c-11.73-13.45-9.03-29.9-9.97-45.72-.21-3.52 5.17-12.71-6.28-9.85 1.73-7.74 2.79-15.83 13.06-22.6-6.6 28.07-1.73 53.12 3.19 78.17z" fill="#a0c2a7"/><path d="m632.75 323.02c26.19 7.15 52.36 6.78 78.53-.08-19.59 13.92-58.81 13.96-78.53.08z" fill="#e6ebc8"/><path d="m151.3 46.09c-.87-4.35.45-8.28 1.91-12.34.98-2.72 2.69-6.93-.81-8.22-2.04-.75-5.44 2.2-8.23 3.49 4.73-9.67 9.47-19.34 14.2-29.02 4.63 16.49 2.63 31.89-7.06 46.09z" fill="#a9be44"/><path d="m9.23 346.49c12.82 11.68 19.29 27.39 26.94 42.35-13.75-11.1-20.36-26.71-26.94-42.35z" fill="#6aa486"/><path d="m143.82 340.08c4.4-1.66 10.01 1.22 13.58-3.58 6.33-.87 11.15 1.67 17.45 7.82-12.53 2.5-21.91.31-31.03-4.24z" fill="#b5c75e"/><path d="m193.57 326.5c-3.32-.88-6.64-1.77-9.96-2.65-2.46-2.16-4.92-4.32-7.38-6.49 7.57-.33 13.38 2.65 17.34 9.13z" fill="#73ab90"/><path d="m159.84 300.87c3.83 1.95 7.66 3.9 11.49 5.86l-.17-.13c-.23 2.37-.46 4.75-.69 7.12-4.7-3.34-9.16-6.86-10.63-12.85z" fill="#73ab90"/><path d="m19.88 346.13c9.31 6.01 16.16 14.53 23.35 22.71-12.08-3.17-19.29-11.32-23.35-22.71z" fill="#6aa486"/><path d="m285.4 300.54c.19-5.33 2.98-11.44 7.61-10.25 4.47 1.16 2.63 6.93-1.14 10.11-2.12 1.91-4.27 2.04-6.47.13z" fill="#75ab8f"/><path d="m180.45 310.89c6.49-.38 12.99-.76 19.48-1.14-6.15 6.3-12.72 5.3-19.48 1.14z" fill="#73ab90"/><g fill="#bccc6d"><path d="m576.79 248.08c3.57-28.48 3.05-56.82-2.96-84.97-27.97-85.62-132.04-90.04-180.53-49.99-35.3 29.15-49.56 93.01-31.9 146.44 13.96 42.26 46.05 67.51 90.31 71.07 60.54 4.86 94.95-14.77 121.71-69.44-.7-4.84.95-9.07 3.37-13.1zm-47.24-12.24c-7.51 36.37-31.41 56.16-66.01 54.58-33.66-1.54-56.5-24.73-60.09-61.2-.58-5.94-.61-11.93-.81-16.08.31-13.21.61-24.5 3.82-35.67 8.67-30.19 30.03-46.92 60.65-46.75 30.38.16 52.96 17.42 60.72 47.03 5.02 19.15 5.75 38.58 1.73 58.09z"/><path d="m994.39 145.62c-42.55 8.36-65.42 28.66-66.5 64.5-1.72 57.05-.84 114.17-1.04 171.26-.02 4.37-.12 8.34 5.52 10.27 21.02 7.22 40.1-5.95 40.42-28.52.24-17.18.05-34.36.05-55.14 47.41 41.44 104.51 17.49 118.12-34.56 5.01-19.15 6.3-38.66 3.37-58.25-7.92-53.04-46.8-80-99.94-69.56zm54.5 91.35c.11 11.01-.87 20.6-4.86 29.81-6.2 14.31-16.72 22.95-32.47 22.93-16.21-.03-28.38-8.13-33.99-23.36-7.37-20-7.08-40.62.41-60.53 5.21-13.85 16.23-21.96 31.3-22.09 15.3-.13 27.12 6.47 33.75 21.09 4.84 10.67 6.22 21.81 5.85 32.15z"/><path d="m757.5 116.88c-1.23-16.05-13.1-22.79-33.71-22.08-17.32.59-10.98 13.04-11.38 21.33-.78 16.25-.23 32.56-.23 52.24-36.69-39.29-91.3-27.65-111.61 16.03-5.1 10.97-7.43 22.68-10.27 34.27.02 13.08.04 26.16.05 39.24 5.33 27.39 14.49 52.31 42.37 65.1 26.19 11.48 52.37 9.95 78.53-.08 34.36-12.88 47.52-38.63 46.67-74.01-.78-32.59-.11-65.21-.12-97.82 0-11.41.54-22.87-.33-34.22zm-49.27 148.53c-5.33 15.86-16.28 24.01-32.56 24.93-15.79.89-29.62-8.55-35-24.13-5.78-16.74-6.85-33.93-2.09-51.22 5.54-20.1 17.28-30.15 35.13-30.19 18.63-.04 31.72 10.58 36.56 30.77 1.75 7.29 1.63 15.03 2.37 22.57-.67 9.28-1.4 18.31-4.41 27.26z"/><path d="m1254.63 231.58c0-14.67.3-26.11-.07-37.53-.67-20.59-10.65-35.28-29.97-42.57-26.34-9.95-53.28-10.91-80.16-2.14-16.46 5.37-28.16 16.33-33.86 32.87-1.22 3.54-4.59 10.45 2.14 10.4 14.76-.1 30.4 5.95 44.19-4.34 13.8-10.3 28.8-9.04 43.57-3.37 11.61 4.46 12.38 15.67 1.88 22.48-9.41 6.1-20.58 6.88-31.35 8.25-14.16 1.81-28.01 4.59-40.84 11.02-29.65 14.85-36.79 60.94-14.32 85.46 24.65 26.89 112.18 24.78 131.28-19.59 2.55-5.93 4.16-12.33 5.59-18.65 3.4-15.04 1.45-30.36 1.91-42.31zm-44.56 21.3c-.82 27.76-20.1 44.35-44.8 39.89-10.37-1.87-16.96-7.43-18.04-17.94-1.03-10.04 2.63-19 12.4-22.48 14.27-5.09 28.92-9.81 43.81-12.22 11.8-1.91 3.92 9.31 6.63 12.76z"/><path d="m1383.23 225.19c-16.96-2.34-34.06-4.18-49.21-13.24s0 0 0 0c-3.05-1.19-6.18-2.19-9.12-3.6-6.28-3.01-14.31-5.18-13.28-14.25 1.15-10.1 9.65-12.52 17.94-13.54 13.56-1.68 26.49.17 35.41 11.92 11.51 15.16 27.6 9.74 42.32 9.82 6.41.03 5.34-5.65 4.47-9.93-3.19-15.72-11.07-29.17-25.2-36.48-32.61-16.87-66.19-17.84-98.43.82-18.15 10.5-24.44 28.42-23.45 48.92.93 19.19 12.4 30.74 28.76 38.22 7.38 3.37 15.38 5.37 23.03 8.17 14.85 5.42 31.24 5.63 45.43 13.06 11.22 5.87 12.18 16.04 2.63 23.08-15.9 11.71-46.86 5.39-56.38-11.51-4.68-8.3-38.77-13.7-45.06-7.06-2.99 3.16-2.04 7.15-1.59 10.86 2.58 20.95 14.35 35.26 33.78 42.24 29.82 10.72 60.17 9.69 89.71-1.01 22.79-8.25 34.65-28.43 34.12-54.02-.45-21.74-9.94-32.97-35.88-42.45z"/><path d="m917.23 194.58c-.72-19.72-9.7-34.6-28.25-42.17-27.84-11.36-56.4-12.26-84.74-2.08-15.68 5.63-26.34 17.13-31.96 32.93-1.46 4.11-3.26 9.99 3.63 9.6 15.23-.86 31.02 5.48 45.59-5.89 12.2-9.53 26.85-7.14 40.78-2.43 4.96 1.68 8.71 4.82 9.5 10.21.92 6.27-2.68 10.36-7.76 13.14-9.79 5.36-20.73 6.48-31.53 7.89-14.7 1.93-29.02 4.94-42.18 12.16-27.41 15.04-34.3 61.14-12.45 83.64 29.49 30.36 106.94 21.76 128.87-14.36 3.68-6.07 6.2-12.58 7.98-19.55 4.11-16.15 2.02-32.52 2.61-45.05 0-15.17.34-26.62-.08-38.04zm-44.3 58.17c-.95 22.7-11.32 36.37-32.45 39.76-11.73 1.88-23.9 1.37-29.2-11.24-5.24-12.48-1.08-23.26 11.49-29.89 10.54-8.8 23.27-9.53 36.14-9.73 12.04-5.51 14.51-.37 14.03 11.1z"/><path d="m579.16 229.65c-1.43 5.26-.37 10.78-.59 16.18-.06.75-.15 1.49-.27 2.22.6 0 1.2-.02 1.81-.03.58-7.51 1.86-15.04 2.46-22.42 1.72-21.27 3.91-43.06-8.73-62.51 6.1 21.84 11.53 43.7 5.32 66.55z"/><path d="m1334.02 211.94c16.05 5.71 33.13 7.6 49.2 13.24-15.22-8.79-32.28-10.74-49.2-13.24z"/><path d="m590.32 218.68c-5.74 13.09-5.78 26.17.05 39.24-3.11-13.08-3-26.16-.05-39.24z"/><path d="m578.09 249.18c-.86 4.23-2.63 8.16-4.66 12 4.7-3.14 6.35-7.81 6.69-13.15-.66.98-1.34 1.36-2.02 1.15z"/><path d="m578.09 249.18c.08-.37.15-.74.21-1.12-.5 0-1 .01-1.51.02.43.6.86.97 1.29 1.1z"/><path d="m822.77 251.37c12.25-2.47 24.88-3.58 36.14-9.73-12.05 3.23-24.68 4.3-36.14 9.73z"/></g><path d="m171.31 306.54s-.09.05-.14.07c.05.02.1.04.14.07 0-.05 0-.09 0-.14z" fill="#519572"/><path d="m310.55 288.41c-.98-48.02-12.64-92.21-64.61-112.07-15.26-4.33-30.53-4.22-45.81-.1-56.48 24.12-74.53 79.94-40.29 124.63 4.03 1.08 5.49 9.47 11.45 5.06-.46-11.07-1.06-22.14-1.27-33.22-.07-3.87 1.1-8.11 6.03-8.04 5.29.07 5.08 4.63 5.22 8.38.15 3.78-.18 7.6.16 11.36.48 5.29.31 12.16 7.65 12.12 7.44-.04 7.27-6.71 7.27-12.17-.03-24.89-.22-49.79-.19-74.68 0-3.53-1.27-8.33 3.66-9.56 3.7-.92 5.63 2.42 7.11 5.43 2.08 0 4.15 0 6.23-.01 1.31-6.43-2.97-13.9 3.61-19.35 3.79-.79 7.57-1.59 9.89 2.79 7.22 21.77 4.15 44.32 4.42 66.53.09 6.91-6.19 7.77-11.56 2.75-.94-.01-1.85-.2-2.73-.55-6.51 6.21-2.47 14.19-3.58 21.31-.94 6.08 2.43 12.99-3.5 18.12-3.26 4.2-6.53 8.4-9.79 12.61-6.3 3.69-12.91 2.09-19.48 1.14-3.05-1.4-6.09-2.81-9.14-4.21v.05s-.12-.1-.15-.12c-.42.19-.83.43-1.25.74-1.23 2.25-1.12 4.38.55 6.37.71 3.12 3.17 3.48 5.75 3.65 7.46 1.77 11.78 8.43 18.28 11.67 22.46 10.22 44.59 4.61 66.7-1.46 9.38-3.71 15.1-11.79 22.08-18.36 1.97-2.16 3.55-4.56 4.71-7.32.86-.66-.41-3.01 1.52-2.37.04.01.06.02.09.03.55-.28 1.31.41 0 0-.22.12-.41.39-.4.97-1.42 4.38-3.87 8.27-7.41 11.45-8.8 11.3-12.6 26.1-24.59 35.19-2.57 5.79-6.2 10.56-12.4 12.82-1.89 1.05-3.56 2.4-5.01 4.03-3.65 4.94-8.7 8.02-14.11 10.6-37.98 23.42-78.97 28.05-121.93 18.66-20.95-4.58-38.7-16.46-57.2-26.58-11.39-3.69-18.71-11.9-24.56-21.78-3.06-4.33-5.02-10.04-11.99-9.46-4.84 3.35-4.94 7.04-.79 11.02 10.24 13.32 16.01 29.46 26.94 42.35 1.6 2.16 2.99 4.53 4.84 6.46 43.12 44.76 112.13 59.65 170.24 36.78 60.44-23.79 100.61-79.65 99.31-143.66zm-55.37-41.84c-.73 5.26 3.33 13.5-5.63 14.37-9.25.9-9.32-7.31-9.56-13.67-.37-9.69-.12-19.4 0-29.1.05-3.69-.46-8.36 4.4-9.18 4.95-.84 8.66 2.8 9.52 7.05 1.38 6.78 1.3 13.85 1.84 20.79-.17.01-.33.03-.5.04 0 3.23.36 6.52-.08 9.69zm23.15-17.14c-.04 6.98-.22 13.96-.07 20.94.17 8.28-3.47 12.01-11.86 10.57-.47-.46-.93-1.01-1.37-1.64-2.66-3.46-3.96-7.1-4.46-10.84-2.43-9.57-2.79-21.25.28-25.61 2.46-3.48 5.95-4.47 9.93-3.81 5.85.97 8.03 4.74 7.55 10.38z" fill="#519572"/><path d="m289.61 299.56c1.31.41.55-.28 0 0z" fill="#519572"/><path d="m171.15 306.6s.01.01.02.01-.02 0-.02-.01z" fill="#f2f7f5"/><path d="m171.32 306.67s-.1-.04-.14-.07c.03.02.15.12.15.12 0-.02 0-.04 0-.05z" fill="#f2f7f5"/><path d="m265.03 259.3c-1.83-2.59-3.35-6.49-4.46-10.84.5 3.74 1.79 7.38 4.46 10.84z" fill="#deede7"/><g fill="#6fae94"><path d="m214.5 229.55c-.3 4.41-.67 8.83.03 13.04-1.23 5.36-1.84 10.79-2.18 16.23.49-.69 1.03-1.37 1.65-2.04.89-.48 1.83-.82 2.8-1.07 0-1.94 0-3.88 0-5.83-1.71-6.75-2.32-13.53-2.3-20.33z"/><path d="m212.92 213.18c1.25 2.88 1.72 5.93 1.81 9.05.4-6.78 1.24-13.56 2.04-20.34 0-1.01 0-2.02 0-3.03-.52 2.95-1.13 5.85-3.74 7.97-.18 2.11-.2 4.23-.12 6.36z"/><path d="m213.04 206.83c2.6-2.12 3.22-5.02 3.74-7.97 0-4.22 0-8.45 0-12.67-6.58 5.45-2.3 12.92-3.61 19.35-.05.43-.08.86-.12 1.29z"/><path d="m214 256.78c-.62.67-1.16 1.35-1.65 2.04-.8 12.78-.14 25.69-2.63 38.32 5.93-5.13 2.55-12.03 3.5-18.12 1.11-7.12-2.93-15.1 3.58-21.31 0-.67 0-1.33 0-2-.97.25-1.91.59-2.8 1.07z"/><path d="m214.53 242.58c-.7-4.21-.33-8.63-.03-13.04 0-2.44.1-4.88.24-7.32-.09-3.12-.56-6.16-1.81-9.05.35 9.53 2.35 19.19-2.76 28.26-.06 7.34-.12 14.68-.17 22.02.55-1.59 1.3-3.15 2.36-4.65.34-5.44.94-10.86 2.18-16.23z"/><path d="m209.99 263.47c-.09 11.22-.18 22.45-.27 33.67 2.49-12.63 1.83-25.54 2.63-38.32-1.06 1.5-1.81 3.06-2.36 4.65z"/><path d="m216.8 249.88c0-16-.01-32-.02-48-.8 6.78-1.64 13.57-2.04 20.34.07 2.41-.07 4.86-.24 7.32-.02 6.8.59 13.58 2.3 20.33z"/><path d="m214.74 222.23c-.14 2.44-.23 4.88-.24 7.32.17-2.46.31-4.91.24-7.32z"/></g><path d="m216.96 255.67c.49-.12.99-.22 1.5-.28-.44-1.26-.84-2.51-1.19-3.77-.1 1.35-.2 2.7-.31 4.05z" fill="#c1dbd1"/><path d="m217.56 195.05c-.03.09-.05.19-.07.28 0 .09 0 .17.01.26.02-.18.04-.36.06-.54z" fill="#c1dbd1"/><path d="m216.96 255.67c-.06.68-.1 1.36-.16 2.04.88.35 1.79.53 2.73.55-.39-.95-.74-1.91-1.07-2.87-.51.06-1.01.16-1.5.28z" fill="#c1dbd1"/><path d="m219.54 255.38c-.3-.01-.57 0-.89-.02-.06 0-.12.02-.19.03.33.96.68 1.91 1.07 2.87 0-.96 0-1.92 0-2.87z" fill="#c1dbd1"/><path d="m217.5 195.59c0-.09 0-.17-.01-.26-.3 1.15-.5 2.34-.71 3.53v3.03c.25-2.1.49-4.2.72-6.3z" fill="#c1dbd1"/><path d="m216.8 249.88v5.83c.05-.01.1-.03.16-.04.11-1.35.21-2.7.31-4.05-.16-.58-.32-1.16-.47-1.74z" fill="#c1dbd1"/><path d="m216.8 255.71v2c.06-.68.1-1.36.16-2.04-.05.01-.1.03-.16.04z" fill="#c1dbd1"/><path d="m217.49 195.33c-.2-3.05-.44-6.1-.71-9.14v12.67c.21-1.19.41-2.38.71-3.53z" fill="#c1dbd1"/><path d="m266.39 260.94s0 0 0 0c-.49-.54-.94-1.08-1.36-1.63.44.62.9 1.18 1.37 1.64z" fill="#5ea081"/><path d="m270.78 219.05c-3.98-.66-7.46.33-9.93 3.81-3.08 4.35-2.71 16.04-.28 25.61-.91-6.81.79-13.95 1.58-20.93.35-3.15 2.51-6.46 6.04-6.7 5.76-.4 8.28 3.92 10.14 8.59.48-5.63-1.71-9.41-7.55-10.38z" fill="#5ea081"/><path d="m268.19 220.84c-3.53.24-5.69 3.55-6.04 6.7-.79 6.98-2.49 14.12-1.58 20.93 1.1 4.34 2.63 8.25 4.46 10.84.42.55.87 1.09 1.36 1.63-4.59-8.39-3.79-17.46-3.13-26.43.3-4.05-.32-9.24 4.62-10.89 4.95-1.66 7.26 3.29 10.46 5.82-1.87-4.66-4.39-8.98-10.14-8.59z" fill="#5ea081"/><path d="m212.71 207.01c-1.01.48-2.06.8-3.13 1.02.89.98 1.64 1.99 2.26 3.03.2-1.36.48-2.71.87-4.05z" fill="#63a588"/><path d="m209.57 208.03c1.07-.22 2.12-.55 3.13-1.02.14-.49.28-.98.46-1.47-2.08 0-4.15 0-6.23.01 1 .8 1.87 1.63 2.64 2.48z" fill="#63a588"/><path d="m211.83 211.06c-.62-1.04-1.37-2.05-2.26-3.03-.56.12-1.11.21-1.68.29 3.26 10.82.64 22.16 2.27 33.12 3.44-9.89.22-20.33 1.66-30.38z" fill="#63a588"/><path d="m207.9 208.32c.56-.08 1.12-.18 1.68-.29-.77-.85-1.64-1.68-2.64-2.48.37.92.68 1.84.96 2.77z" fill="#63a588"/><path d="m212.92 213.18c-.08-2.13-.07-4.25.12-6.36-.03.02-.05.05-.09.08-.08.04-.17.07-.25.1-.39 1.34-.68 2.69-.87 4.05.42.7.78 1.4 1.09 2.12z" fill="#63a588"/><path d="m212.96 206.9s.06-.05.09-.08c.04-.43.07-.86.12-1.29-.18.49-.31.98-.46 1.47.08-.04.17-.06.25-.1z" fill="#63a588"/><path d="m212.92 213.18c-.31-.72-.68-1.43-1.09-2.12-1.44 10.05 1.78 20.49-1.66 30.38 5.11-9.07 3.11-18.73 2.76-28.26z" fill="#63a588"/></svg>