<svg viewBox="0 0 701.79 513.5" xmlns="http://www.w3.org/2000/svg"><g fill="#003677"><path d="m13.13 513.44c-8.86 0-13.13-5.01-13.13-12.66v-19.3q0-.29.23-.29h7.79q.32 0 .32.38v20.64c0 3.11 2.6 4.41 4.87 4.41s4.87-1.25 4.87-4.41v-20.69c0-.28 0-.33.28-.33h7.61q.23 0 .23.33v19.72c0 7.46-3.85 12.19-13.09 12.19z"/><path d="m58.97 513.48c-.09.04-.23 0-.42-.14-7-5.24-17.95-15.31-17.95-15.31v14.19q0 .42-.42.42h-7c-.32 0-.46-.28-.46-.47-.23-11.83-.19-19.2 0-31.45 0-.23.05-.33.14-.37.09-.09.23-.04.37.04 6.63 4.73 18 15.26 18 15.26v-13.92c0-.51 0-.56.37-.56h7.05c.47 0 .47.1.47.56.18 9.05.14 21.49 0 31.13 0 .33 0 .56-.14.6z"/><path d="m74.16 512.65h-7.7c-.42 0-.42.05-.42-.42v-30.61c0-.47 0-.42.42-.42h7.7c.42 0 .47.05.47.42v30.61c0 .38-.05.42-.47.42z"/><path d="m102.3 488.43-12.38-.09v6.31l10.99-.14c.42 0 .6.19.6.55.09 1.95.14 4.04 0 6.27-.05.42-.23.51-.65.51l-10.95-.09v10.25c0 .51-.05.65-.42.65h-7.56c-.28 0-.37.05-.37-.65v-30.2c0-.55.05-.6.37-.6h20.36c.38 0 .33.1.38.47.14 2 .18 4.5 0 6.31-.05.42 0 .46-.38.46z"/><path d="m121.77 513.44c-9.38 0-16.47-7.33-16.47-16.42s7.09-16.47 16.47-16.47 16.46 7.38 16.46 16.47-7.09 16.42-16.46 16.42zm0-24.96c-5.02 0-7.8 3.76-7.8 8.54s2.78 8.49 7.8 8.49 7.79-3.71 7.79-8.49-2.88-8.54-7.79-8.54z"/><path d="m171.37 512.65h-8.21c-.37 0-.56-.09-.97-.93-1.58-3.01-4.96-8.35-4.96-8.35l-5.33.09v8.76c0 .38-.04.42-.37.42h-7.61c-.37 0-.37.05-.37-.42v-30.61c0-.47.23-.42.37-.42h14.38c7.15 0 10.95 4.93 10.95 10.63 0 4.27-1.48 7.28-4.31 8.63 1.21 1.9 3.85 6.59 6.54 10.95.56.93.42 1.25-.09 1.25zm-14.89-24.54h-4.59v9.09l4.64-.14c2.51-.1 3.9-1.95 3.9-4.65 0-2.46-1.25-4.31-3.94-4.31z"/><path d="m206.64 512.7h-7.55c-.32 0-.38-.14-.38-.37l-.27-13.5s-5.2 5.38-7.06 7.24c-.14.14-.28.23-.37.23s-.18-.09-.32-.23c-1.81-1.86-7.19-7.28-7.19-7.28l-.32 13.22c0 .6-.05.65-.51.65h-6.96c-.42 0-.42.14-.42-.28.1-9.93.51-21.95.93-31.23.05-.32.14-.46.28-.51.14 0 .23.04.37.19 4.03 3.99 12.07 12.06 14.15 14.43 1.95-2.33 9.69-10.44 14.06-14.66.14-.14.33-.19.46-.14.09.04.19.19.19.38.65 12.1.92 20.04 1.25 31.22 0 .38.14.65-.33.65z"/><path d="m235.08 512.65h-21.2c-.46 0-.51-.09-.51-.65v-30.34c0-.42-.05-.47.42-.47h20.96c.47 0 .51.05.51.6v5.67c0 .42-.14.65-.51.65l-13.27-.14v5.24h12.99c.42 0 .46.1.46.65v5.66c0 .56-.05.65-.46.65h-12.99v5.38l13.59-.14q.51 0 .51.6v5.98c0 .56-.04.65-.51.65z"/><path d="m250.51 513.44c-6.31 0-10.25-2.55-11.83-7.09-.18-.51-.14-.75.19-.88l5.7-2.32q.42-.14.51.23c.56 1.71 2.7 3.76 5.61 3.76 3.2 0 4.69-.98 4.69-3.11 0-1.9-1.34-3.11-5.61-3.62-.32-.05-.79-.1-1.12-.14-5.61-.55-9.51-3.71-9.51-9.46s4.13-10.26 12.34-10.26c6.17 0 9.97 2.93 11.18 6.83.14.51-.05.69-.32.79l-5.43 2.18c-.33.14-.46.04-.55-.18-.65-1.86-2.79-3.67-5.2-3.67-3.25 0-4.27 1.21-4.27 2.93 0 2.13 1.71 3.01 5.89 3.71.42.04.93.14 1.53.23 5.94.83 9.38 3.99 9.38 9.78 0 7.15-5.89 10.3-13.18 10.3z"/><path d="m286.75 512.65h-7.7c-.42 0-.42.05-.42-.42v-30.61c0-.47 0-.42.42-.42h7.7c.42 0 .47.05.47.42v30.61c0 .38-.05.42-.47.42z"/><path d="m320.46 513.48c-.09.04-.23 0-.42-.14-7-5.24-17.95-15.31-17.95-15.31v14.19q0 .42-.42.42h-7c-.32 0-.46-.28-.46-.47-.23-11.83-.19-19.2 0-31.45 0-.23.04-.33.14-.37.09-.09.23-.04.37.04 6.63 4.73 18 15.26 18 15.26v-13.92c0-.51 0-.56.37-.56h7.05c.47 0 .47.1.47.56.18 9.05.14 21.49 0 31.13 0 .33 0 .56-.14.6z"/><path d="m339.73 512.65h-11.83c-.32 0-.37-.04-.37-.42v-30.57c0-.37.05-.47.37-.47h12.9c8.91 0 14.24 5.53 14.24 15.73s-6.13 15.73-15.31 15.73zm.33-24.87h-4.37v18.19h4.27c4.64 0 6.41-3.76 6.41-9.19 0-5.06-2.27-9.01-6.31-9.01z"/><path d="m372.91 513.44c-8.86 0-13.13-5.01-13.13-12.66v-19.3q0-.29.23-.29h7.79q.33 0 .33.38v20.64c0 3.11 2.6 4.41 4.87 4.41s4.87-1.25 4.87-4.41v-20.69c0-.28 0-.33.28-.33h7.61q.23 0 .23.33v19.72c0 7.46-3.85 12.19-13.09 12.19z"/><path d="m402.48 513.44c-6.31 0-10.25-2.55-11.83-7.09-.19-.51-.14-.75.19-.88l5.7-2.32q.42-.14.51.23c.56 1.71 2.7 3.76 5.61 3.76 3.2 0 4.69-.98 4.69-3.11 0-1.9-1.35-3.11-5.61-3.62-.33-.05-.79-.1-1.12-.14-5.61-.55-9.51-3.71-9.51-9.46s4.13-10.26 12.35-10.26c6.17 0 9.97 2.93 11.18 6.83.13.51-.05.69-.33.79l-5.43 2.18c-.32.14-.46.04-.55-.18-.65-1.86-2.79-3.67-5.2-3.67-3.25 0-4.27 1.21-4.27 2.93 0 2.13 1.71 3.01 5.89 3.71.42.04.93.14 1.53.23 5.94.83 9.38 3.99 9.38 9.78 0 7.15-5.89 10.3-13.18 10.3z"/><path d="m442.31 487.97-7.93-.09v24.35c0 .38-.05.42-.42.42h-7.65c-.46 0-.46.05-.46-.42v-24.35l-8.17.09c-.32 0-.32-.04-.32-.32v-5.98c0-.37 0-.47.37-.47h24.54c.33 0 .38.1.38.47v5.98c0 .28-.05.32-.33.32z"/><path d="m474.66 512.65h-8.21c-.37 0-.56-.09-.98-.93-1.58-3.01-4.96-8.35-4.96-8.35l-5.33.09v8.76c0 .38-.04.42-.37.42h-7.61c-.37 0-.37.05-.37-.42v-30.61c0-.47.23-.42.37-.42h14.38c7.15 0 10.95 4.93 10.95 10.63 0 4.27-1.48 7.28-4.31 8.63 1.21 1.9 3.85 6.59 6.54 10.95.56.93.42 1.25-.09 1.25zm-14.89-24.54h-4.59v9.09l4.64-.14c2.51-.1 3.9-1.95 3.9-4.65 0-2.46-1.25-4.31-3.94-4.31z"/><path d="m487.05 512.65h-7.7c-.42 0-.42.05-.42-.42v-30.61c0-.47 0-.42.42-.42h7.7c.42 0 .47.05.47.42v30.61c0 .38-.05.42-.47.42z"/><path d="m523.46 512.65h-8.67c-.23 0-.42-.04-.56-.37-.55-1.25-1.25-2.97-1.71-4.13h-11.23c-.55 1.3-1.16 2.88-1.63 3.99-.14.38-.23.51-.83.51h-7.71c-.37 0-.42-.18-.23-.65 4.82-10.25 12.16-25.05 15.78-31.82.04-.09.27-.09.55-.09s.51-.05.56.09c4.22 8.25 10.77 21.57 15.87 31.82.28.6.23.65-.19.65zm-16.7-17.59-3.16 7.06h6.45l-3.3-7.06z"/><path d="m547.18 512.65h-19.62c-.42 0-.42.05-.42-.42v-30.61c0-.47 0-.42.42-.42h7.52c.37 0 .41.05.41.42v23.66l11.64-.23c.37 0 .42.09.42.46v6.72c0 .38 0 .42-.37.42z"/><path d="m572.99 512.65h-21.2c-.46 0-.51-.09-.51-.65v-30.34c0-.42-.05-.47.42-.47h20.96c.47 0 .51.05.51.6v5.67c0 .42-.13.65-.51.65l-13.27-.14v5.24h12.99c.42 0 .46.1.46.65v5.66c0 .56-.04.65-.46.65h-12.99v5.38l13.59-.14q.51 0 .51.6v5.98c0 .56-.05.65-.51.65z"/><path d="m588.42 513.44c-6.31 0-10.25-2.55-11.83-7.09-.19-.51-.13-.75.19-.88l5.7-2.32q.42-.14.51.23c.56 1.71 2.7 3.76 5.61 3.76 3.2 0 4.69-.98 4.69-3.11 0-1.9-1.35-3.11-5.61-3.62-.33-.05-.79-.1-1.12-.14-5.61-.55-9.51-3.71-9.51-9.46s4.13-10.26 12.35-10.26c6.17 0 9.97 2.93 11.18 6.83.13.51-.05.69-.33.79l-5.43 2.18c-.32.14-.46.04-.55-.18-.65-1.86-2.79-3.67-5.2-3.67-3.25 0-4.27 1.21-4.27 2.93 0 2.13 1.71 3.01 5.89 3.71.42.04.93.14 1.53.23 5.94.83 9.38 3.99 9.38 9.78 0 7.15-5.89 10.3-13.18 10.3z"/><path d="m564.92 440.4h-9.88c-.45 0-.67-.11-1.18-1.12-1.9-3.63-5.97-10.05-5.97-10.05l-6.42.11v10.55c0 .45-.06.5-.45.5h-9.16c-.45 0-.45.06-.45-.5v-36.85c0-.56.28-.5.45-.5h17.32c8.6 0 13.18 5.92 13.18 12.78 0 5.14-1.79 8.76-5.2 10.39 1.46 2.29 4.64 7.92 7.87 13.18.67 1.12.51 1.5-.11 1.5zm-17.93-29.54h-5.52v10.95l5.58-.17c3.01-.11 4.68-2.34 4.68-5.58 0-2.96-1.5-5.19-4.74-5.19z"/></g><path d="m574.78 422.91c0 16.01-12.98 28.99-28.99 28.99s-29-12.98-29-28.99 12.98-29 29-29 28.99 12.99 28.99 29z" fill="none" stroke="#003677" stroke-miterlimit="10" stroke-width="2.84"/><g fill="#003677"><path d="m548.79 111.54c-1.08-2.5-4.13-3.73-6.68-2.63-2.55 1.11-3.73 4.11-2.61 6.66 4.58 10.58 8.34 21.43 11.29 32.48-7.37 1.53-14.91 2.7-22.54 3.46-1.34.12-2.58.78-3.43 1.83-.86 1.04-1.25 2.38-1.13 3.71.27 2.61 2.44 4.59 5.06 4.59.11 0 .23-.01.49-.03 8.09-.79 16.12-2.06 23.96-3.69 3.76 16.92 5.66 34.32 5.66 52.07 0 35.47-7.71 69.06-21.47 99l-39.32-20.62c14.78-32.77 22.79-69.75 23.15-110.03 0-1.36-.49-2.63-1.46-3.61-.94-.97-2.21-1.51-3.57-1.53-.11 0-.19.01-.29.01-2.72.26-4.81 2.4-4.84 5.02-.35 38.56-7.96 73.97-22.09 105.35l-59.17-31.03c.25-.6.51-1.2.77-1.81.51-1.25.51-2.64 0-3.89-.53-1.25-1.51-2.22-2.75-2.73-.62-.26-1.25-.39-1.94-.39-2.04 0-3.89 1.23-4.67 3.12-.15.32-.29.65-.42.97l-1.36-.71c-.74-.38-1.54-.59-2.36-.59-1.89 0-3.6 1.05-4.48 2.71-.63 1.2-.76 2.57-.36 3.87.41 1.3 1.29 2.37 2.49 2.99l1.95 1.02c-12.27 26.25-28.99 50.23-51.23 73.16-15.7-13-33.56-24.74-53.2-34.8-1.52-.78-3.04-1.5-4.57-2.26l18.77-39.68c1.19-2.52.11-5.55-2.43-6.77-2.46-1.14-5.6 0-6.73 2.43l-18.77 39.69c-17.14-7.72-34.59-13.68-51.99-17.78 2.3-20.81 5.84-40.12 10.64-58.08.35-1.32.17-2.67-.51-3.85-.68-1.17-1.77-2.02-3.07-2.36-2.67-.71-5.5.96-6.22 3.6-4.83 18.13-8.42 37.6-10.8 58.53-15.43-3.01-30.74-4.56-45.75-4.56-3.32 0-6.57.11-9.81.26-2.02-40.34 5.71-81.3 23.25-120.07 1.62-.22 3.02-1.15 3.81-2.62.95-1.87.66-4.06-.63-5.59 0-.51-.08-1.02-.23-1.53-.45-1.27-1.38-2.3-2.58-2.87-.68-.33-1.46-.51-2.22-.51-.83 0-1.6.25-2.3.61l-45.78-24c10.39-21.83 24.17-41.94 41.1-59.63 1.93-2.02 1.87-5.23-.16-7.15-1.93-1.86-5.31-1.79-7.17.15-42.96 44.86-66.62 104.72-66.62 168.55 0 23.5 3.26 46.18 9.31 67.62-.04.62.01 1.25.23 1.87.16.48.39.9.66 1.29 28.48 96.17 113.43 166.13 213.53 166.13 123.4 0 223.82-106.27 223.82-236.91 0-34.3-6.81-67.42-20.21-98.44zm-398.65 5.78 44.7 23.45c-18.13 40.24-26.12 82.75-23.99 124.62-10.95 1.1-21.41 3.09-31.29 6.01-5.18-19.55-7.96-40.14-7.96-61.42 0-32.5 6.36-63.91 18.53-92.66zm251.29 267.06c-26.81 17.31-58.08 30.48-93.25 38.88-2.75-8.56-6.98-16.52-12.51-23.61 27.63-18.3 50.88-36.58 70.32-55.53 13.97 12.47 25.9 26.01 35.44 40.26zm-203.87-10.67c-24.92-25.35-44.09-57.03-55.17-92.57 9.2-2.72 18.97-4.59 29.2-5.63 3.02 33.48 12.53 66.4 28.49 97.26-.85.29-1.69.62-2.52.94zm10.83 7.03c.26-.05.5-.12.73-.22 6.39-1.75 13.02-2.64 19.81-2.64 2.58 0 5.18.18 7.76.45.73.39 1.56.65 2.46.65h.26c.35-.03.72-.09 1.08-.18 6.36.97 12.6 2.74 18.53 5.27.02 0 .04.03.06.04.05.02.06.02.1.04 2.61 1.12 5.15 2.36 7.62 3.75 17.13 9.79 28.92 25.46 33.17 43.71-35.51-8.16-67.74-25.7-94.3-50.08.91-.28 1.81-.55 2.73-.79zm201.43-2.02c-9.92-14.8-22.26-28.86-36.68-41.79 22.7-23.48 39.86-48.09 52.53-75.09l58.94 30.91c-17.22 34.19-42.48 63.26-74.79 85.97zm-120.98 13.28c-4.98-4.91-10.67-9.28-17.02-12.9-1.25-.71-2.53-1.37-3.82-2.02l35.33-74.68c1.43.7 2.86 1.39 4.28 2.14 18.69 9.53 35.67 20.66 50.63 32.95-19.14 18.56-42.09 36.51-69.4 54.51zm-30.15-18.94c-4.76-1.74-9.68-3.06-14.67-3.95-1.42-31.91-.94-61.04 1.46-87.71 16.36 3.96 32.75 9.55 48.68 16.69zm-24.89-5.15c-1.63-.09-3.25-.16-4.88-.16-6.44 0-12.76.73-18.92 2.12-15.87-30.11-25.31-62.32-28.29-95.1 3.01-.14 6.05-.23 9.12-.23 14.44 0 29.47 1.6 44.66 4.65-2.49 27.03-3.04 56.47-1.69 88.73zm76.84 65.17c36.28-8.66 68.52-22.22 96.23-40.05 5.62 9.49 10.16 19.25 13.56 29.17-23.41 9.38-48.78 14.54-75.25 14.54-11.73 0-23.22-1.03-34.43-2.96-.04-.23-.07-.47-.11-.7zm119.13-14.88c-3.63-10.5-8.52-20.81-14.46-30.81 33.87-23.68 60.37-54.08 78.38-89.89l39.27 20.61c-22.81 44.39-59.17 79.87-103.19 100.09z" opacity=".6"/><g opacity=".8"><path d="m117.99 311.42c9.71 2.89 19.55 5.21 29.46 7.13 9.42 1.81 30.16 8.48 44.39 8.48 4.16 0 7.75-.57 10.34-1.98-3.35-.61-6.71-1.17-10.06-1.72-25.14-1.94-49.64-6.23-74.14-11.91m-30.67-197.85c-13.94 0-39.44 49.64-45.31 62.25 1.74-2.84 6.63-10.39 7.49-10.39.25 0 .17.63-.45 2.22-.12.33-.21.68-.31 1.01 2.81-5.16 6.13-10.46 8.18-10.46h.11c.75-.66 1.28-.96 1.64-.96 3.28 0-5.9 22.81-6.67 25.05-5.86 15.89-9.91 32.96-8.51 50.09-1.1-17.03 3.24-33.97 9.59-49.54 5.31-13.47 34.87-69.23 34.72-69.23-.17-.02-.34-.03-.48-.03"/><path d="m54.05 276.89c1.26 1.51 2.61 2.98 3.97 4.41 10.41 10.37 22.73 18.15 35.78 24.21 5.11 1.15 10.26 2.28 15.38 3.81 2.92.71 5.86 1.41 8.81 2.09-2.89-.86-5.74-1.76-8.6-2.71-18.51-6.72-34.78-16.25-50.64-28.12-1.62-1.31-3.2-2.53-4.71-3.69m-10.57-44.53c.09 1.39.22 2.78.39 4.18 1.86 15.36 8.72 29.01 18.96 39.96 13.25 13.79 30.26 22.79 47.55 29.43 2.67.98 5.36 1.92 8.08 2.83 24.24 7.9 48.9 10.57 73.68 14.57.08 0 .14 0 .18.02 10.3.77 29.4 4.73 44.98 4.73 7.48 0 14.12-.91 18.59-3.5-33.08-2.57-65.93-2.18-98.8-7.89-15.68-2.77-31.22-6.51-46.3-11.85-17.23-6.44-34.2-15.23-47.51-28.75-10.27-10.8-17.27-24.29-19.34-39.53-.2-1.4-.33-2.8-.46-4.18"/><path d="m58.66 157.23c-.36 0-.89.3-1.64.96h-.11c-2.05 0-5.37 5.3-8.18 10.46-1.03 3.43-2.22 6.81-3.33 10.2-6.68 18.56-11.22 38.39-8.71 58.35 1.41 11.19 5.2 21.59 10.86 30.84 1.96 3.08 4.15 6.04 6.5 8.85 1.5 1.16 3.08 2.39 4.71 3.69 15.86 11.87 32.13 21.4 50.64 28.12 2.86.95 5.71 1.85 8.6 2.71 24.49 5.67 48.99 9.97 74.14 11.91-24.79-4-49.45-6.66-73.68-14.57-2.71-.91-5.4-1.84-8.08-2.83-17.29-6.63-34.3-15.64-47.55-29.43-10.24-10.95-17.1-24.6-18.96-39.96-.17-1.4-.3-2.79-.39-4.18-1.4-17.12 2.65-34.2 8.51-50.09.77-2.24 9.95-25.05 6.67-25.05"/><path d="m42 175.81c-.29.46-.48.8-.58.97-7.8 15.12-13.2 31.86-13.97 49.18-.13 2.8-.11 5.6.02 8.4.14-1.84.41-2.74.72-2.74.5 0 1.14 2.1 1.8 6.18.17 1.23.39 2.46.59 3.69.04.19.08.37.12.56-.14-1.44-.26-2.86-.33-4.3 0-.29 0-.76.06-1.36-1.96-16.71 1.18-33.59 6.84-49.21 1.28-3.5 2.7-6.97 4.25-10.37.12-.31.29-.64.47-1.02"/><path d="m49.49 165.42c-.86 0-5.75 7.55-7.49 10.39-.17.38-.35.71-.47 1.02-1.55 3.4-2.98 6.87-4.25 10.37-5.66 15.62-8.79 32.49-6.84 49.21.05-.6.12-1.33.21-2.15-1.03-19.62 4.77-38.9 13.31-56.14.6-1.15 2.52-5.25 4.77-9.45.1-.33.19-.68.31-1.01.62-1.59.69-2.22.45-2.22"/><path d="m48.73 168.65c-2.25 4.2-4.17 8.3-4.77 9.45-8.54 17.24-14.34 36.52-13.31 56.14.67-6.16 2.44-17.49 3.01-17.49.13 0 .18.54.17 1.8.42 6.27.83 12.52 1.91 18.73 1.87 11.19 5.92 21.55 11.79 30.75-5.66-9.25-9.44-19.65-10.86-30.84-2.51-19.95 2.03-39.79 8.71-58.35 1.11-3.39 2.3-6.77 3.33-10.2"/><path d="m366.49 323.85c-4.38.48-8.76.96-13.09 1.5-19.85 2.48-39.76 4.53-59.71 6.14-24.67 1.71-50.6 3.51-76.65 3.8 3.6.05 7.18.07 10.79.07 22.3 0 44.48-.97 65.94-2.28 5.74-.39 11.51-.85 17.24-1.31l57.14-7.24c-.52-.26-1.08-.48-1.65-.68m-18.74-1.08c-8.56.66-18.34 2.25-27.4 3.85 4.03-.35 8.07-.73 12.1-1.1 3.78-.36 9.13-1.42 15.31-2.75"/><path d="m90.25 304.71c5.8 2.92 11.77 5.48 17.79 7.78 42.88 15.47 89.1 19.84 134.71 19.84 16.04 0 32.01-.54 47.75-1.33 1.03-.04 2.09-.1 3.14-.17 5.61-.3 15.64-2.25 26.71-4.22-8.93.77-17.87 1.44-26.83 2-17.86 1.03-36.01 1.74-54.2 1.74-44.35 0-89.09-4.26-130.95-18.8-4.9-1.81-9.78-3.82-14.57-6.05-1.18-.26-2.38-.54-3.55-.81"/><path d="m53.38 276.39c1.41 1.76 2.9 3.47 4.44 5.11 9.41 9.75 20.57 17.22 32.43 23.21 1.17.27 2.37.54 3.55.81-13.05-6.07-25.37-13.85-35.78-24.21-1.36-1.44-2.71-2.9-3.97-4.41-.21-.18-.44-.33-.66-.51"/><path d="m47.54 268.04c1.76 2.9 3.73 5.69 5.84 8.35.23.18.45.32.66.51-2.36-2.81-4.54-5.77-6.5-8.85"/><path d="m215.91 335.28c.2 0 .42.01.64.01h.48c-.36 0-.74-.01-1.13-.01m186.34-21.76c-15.37 0-37.96 5.65-54.49 9.25 2.62-.21 5.14-.32 7.48-.32 4.47 0 8.33.39 11.25 1.41 16.36-1.8 33.03-3.57 48.83-7.86-3.07-1.77-7.62-2.48-13.07-2.48"/><path d="m58.5 290.26c4.15 3.72 8.54 7.08 13.13 10.16 10.91 6.94 22.71 12.34 34.78 16.71 35.29 11.76 72.32 16.76 109.5 18.15.38 0 .77.01 1.13.01 26.05-.29 51.99-2.09 76.65-3.8 19.95-1.61 39.86-3.66 59.71-6.14 4.33-.54 8.7-1.01 13.09-1.5-2.92-1.01-6.78-1.41-11.25-1.41-2.34 0-4.86.11-7.48.32-6.17 1.33-11.52 2.39-15.31 2.75-4.03.38-8.06.76-12.1 1.1-11.07 1.96-21.1 3.91-26.71 4.22-1.05.06-2.11.12-3.14.17-15.74.79-31.71 1.33-47.75 1.33-45.62 0-91.83-4.37-134.71-19.84-6.02-2.3-11.99-4.87-17.79-7.78-8.96-2.09-17.69-4.57-25.73-9.87-2.09-1.4-4.1-2.95-6.02-4.58m-28.06-53.86c-.05.6-.06 1.07-.06 1.36.06 1.43.18 2.86.33 4.3 1.41 6.91 3.62 13.51 6.54 19.73-2.11-4.76-3.76-9.75-4.9-14.94-.77-3-1.34-6.05-1.75-9.12-.05-.44-.11-.88-.16-1.33"/><path d="m30.65 234.25c-.09.82-.17 1.56-.21 2.15.05.45.11.89.16 1.33.42 3.07.98 6.12 1.75 9.12-.47-2.09-.85-4.2-1.14-6.33-.12-.93-.21-1.86-.31-2.79-.11-1.17-.19-2.33-.25-3.48"/><path d="m32.35 246.85c1.13 5.19 2.79 10.18 4.9 14.94 4.14 8.8 9.7 16.83 16.42 23.86 1.56 1.59 3.17 3.11 4.83 4.6 1.92 1.62 3.94 3.18 6.02 4.58 8.05 5.3 16.77 7.79 25.73 9.87-11.85-5.98-23.01-13.46-32.43-23.21-1.54-1.65-3.04-3.35-4.44-5.11-7.95-6.17-14.29-11.26-18.91-22.79-.84-2.2-1.54-4.46-2.12-6.74"/><path d="m33.66 216.75c-.57 0-2.34 11.34-3.01 17.49.06 1.15.14 2.31.25 3.48.1.93.19 1.86.31 2.79.29 2.13.67 4.25 1.14 6.33.58 2.29 1.28 4.54 2.12 6.74 4.62 11.53 10.96 16.62 18.91 22.79-2.11-2.66-4.08-5.45-5.84-8.35-5.87-9.2-9.92-19.56-11.79-30.75-1.08-6.21-1.49-12.46-1.91-18.73 0-1.26-.05-1.8-.17-1.8"/><path d="m27.47 234.36c-.09.97-.14 2.19-.15 3.68.08 14.01 4.47 27.68 11.57 39.42.13.2.25.4.38.59 2.64 2.43 6.35 6.12 10.96 11.05.62.64 1.27 1.27 1.88 1.9 2.43 2.34 4.93 4.53 7.47 6.63-.99-.97-1.98-1.98-2.92-2.99-2.11-1.87-4.13-3.84-6.07-5.88-12.83-13.84-21.11-31.37-22.89-50.74-.11-1.22-.2-2.43-.23-3.65"/><path d="m28.2 231.62c-.32 0-.59.91-.72 2.74.03 1.22.13 2.43.23 3.65 1.78 19.37 10.06 36.9 22.89 50.74 1.93 2.04 3.95 4 6.07 5.88-1.93-2.07-3.75-4.25-5.4-6.54-.8-1.07-1.45-1.98-1.96-2.73-1.98-2.37-3.86-4.84-5.6-7.41-7.12-10.67-11.69-22.95-13-35.89-.05-.19-.08-.37-.12-.56-.2-1.23-.42-2.47-.59-3.69-.66-4.08-1.3-6.18-1.8-6.18"/><path d="m30.7 242.06c1.31 12.94 5.88 25.22 13 35.89 1.74 2.57 3.62 5.05 5.6 7.41-1.34-2.06-1.72-3.11-1.21-3.11.57 0 2.29 1.32 5.02 3.96.88.8 1.76 1.62 2.62 2.42 5.04 4.36 10.35 8.27 15.9 11.79-4.59-3.08-8.98-6.44-13.13-10.16-1.69-1.43-3.33-2.95-4.91-4.51-6.81-6.95-12.38-15.03-16.34-23.95-2.92-6.22-5.13-12.83-6.54-19.73"/><path d="m37.25 261.79c3.96 8.92 9.53 17 16.34 23.95 1.58 1.56 3.22 3.08 4.91 4.51-1.66-1.49-3.26-3.01-4.83-4.6-6.72-7.03-12.28-15.06-16.42-23.86"/><path d="m478.32 313.38c-4.37 0-71.99 10.94-76.89 11.63l-3.21.32c-34.61 5.5-69.32 10.07-104.15 13.89-1.71.16-3.42.3-5.13.44 1.71-.07 3.43-.17 5.15-.26 7.95-.48 15.93-1.04 23.89-1.68 31.35-3.11 62.61-7.12 93.77-12.06 22.24-3.49 44.88-6.42 66.71-12.19.18-.07.13-.1-.13-.1"/><path d="m530.52 299.13c-3.55 0-75.86 14.18-81.19 15.13l-81.19 10.27c.43.23.85.46 1.22.71-18.82 4.53-39 4.93-58.18 6.51-.06 0-.13 0-.17.01l-17.2 2.16c-17.94 1.06-36.13 1.75-54.36 1.75-7.62 0-15.28-.11-22.89-.39-2.21.03-4.39.04-6.6.04-8.76 0-17.54-.19-26.28-.62 19.44 2.09 39.07 2.91 58.64 2.91 17.32 0 34.59-.63 51.6-1.56l104.3-10.73c20.73-3.29 41.42-6.9 62.06-10.89 23.44-4.5 47.29-8.45 70.27-15.22.16-.05.13-.09-.03-.09"/><path d="m368.14 324.53-57.14 7.24s.11-.01.17-.01c19.18-1.59 39.36-1.99 58.18-6.51-.37-.25-.79-.48-1.22-.71"/><path d="m164.36 332.16c6.41 1 12.86 1.84 19.31 2.55 8.74.43 17.52.62 26.28.62 2.21 0 4.39 0 6.6-.04-.23 0-.44-.01-.64-.01-17.23-.29-34.49-1.22-51.55-3.11"/><path d="m71.63 300.42c10.77 7.22 22.57 12.81 34.55 17.32 18.91 6.7 38.41 11.33 58.18 14.43 17.06 1.9 34.32 2.83 51.55 3.11-37.18-1.39-74.21-6.39-109.5-18.15-12.07-4.37-23.87-9.78-34.78-16.71"/><path d="m56.66 294.63c.94 1.01 1.93 2.02 2.92 2.99 8.17 6.63 17.08 12.12 26.38 16.77 2.78 1.06 6.09 2.39 9.93 4.02 2.94 1.19 5.89 2.33 8.85 3.41 44.11 14.69 90.86 19.15 137.28 19.15 15.71 0 31.39-.51 46.91-1.31 1.71-.14 3.41-.28 5.13-.44 34.82-3.81 69.54-8.39 104.15-13.89l-104.3 10.73c-17.01.92-34.28 1.56-51.6 1.56-19.57 0-39.2-.82-58.64-2.91-24.46-1.23-48.59-4.41-71.46-10.9-2.46-.73-4.92-1.51-7.34-2.35-5.1-1.89-10.16-3.97-15.11-6.32-8.2-3.57-16.11-7.83-23.57-12.98-3.31-2.32-6.5-4.82-9.53-7.52"/><path d="m49.3 285.36c.51.76 1.16 1.67 1.96 2.73 1.65 2.28 3.48 4.46 5.4 6.54 3.03 2.7 6.22 5.2 9.53 7.52 7.46 5.15 15.37 9.41 23.57 12.98-14.14-6.69-27.44-15.47-38.27-27.3-.75-.8-1.49-1.64-2.19-2.47"/><path d="m89.76 315.13c4.95 2.36 10.01 4.43 15.11 6.32 2.43.84 4.88 1.62 7.34 2.35 22.87 6.49 46.99 9.67 71.46 10.9-6.45-.71-12.9-1.54-19.31-2.55-20.18-2.24-40.09-5.82-59.32-11.24-5.15-1.68-10.27-3.61-15.28-5.79"/><path d="m48.1 282.26c-.51 0-.13 1.04 1.21 3.11.7.83 1.44 1.67 2.19 2.47 10.83 11.83 24.13 20.61 38.27 27.3 5 2.18 10.12 4.11 15.28 5.79 19.23 5.42 39.14 9.01 59.32 11.24-19.77-3.1-39.27-7.73-58.18-14.43-11.97-4.5-23.78-10.09-34.55-17.32-5.55-3.52-10.86-7.43-15.9-11.79-.86-.8-1.74-1.62-2.62-2.42-2.73-2.64-4.44-3.96-5.02-3.96"/><path d="m34.75 274.68c-1.17 0 2.59 5.61 12.47 17.44 1.03 1.21 2.07 2.39 3.14 3.56 14.37 15.37 32.81 25.86 51.77 33.51 8.54 3.44 17.31 6.3 26.2 8.64 33.91 8.73 68.87 11.67 103.84 11.67 20.82 0 41.67-1.03 62.28-2.54 57.85-4.84 115.42-12.91 172.6-23.34 21.57-3.89 43.29-7.39 64.5-13.1.19-.05.2-.07.05-.07-2.44 0-51.71 8.41-59.88 9.83-9.8 1.71-19.62 3.35-29.46 4.93-49.02 9-98.35 16.27-147.85 20.75-19.26 1.47-38.61 2.38-57.92 2.38-21.15 0-42.28-1.09-63.28-3.73-23.89-3.11-47.78-8.48-70.18-18.01-2.28-.94-4.53-1.95-6.81-2.99-9.5-4.49-16.01-7.98-19.27-10.12-10.38-6.16-20.04-13.64-28.29-22.85-3.45-3.9-6.63-8.1-9.4-12.59-2.44-2.23-3.99-3.37-4.52-3.37"/><path d="m39.27 278.05c2.77 4.5 5.95 8.7 9.4 12.59 8.24 9.21 17.91 16.68 28.29 22.85-2.34-1.57-2.96-2.41-1.78-2.41.56 0 1.56.19 2.99.6-6.52-4.02-12.92-8.61-18.58-14.05-2.54-2.1-5.04-4.29-7.47-6.63-.61-.63-1.26-1.25-1.88-1.9-4.61-4.93-8.32-8.62-10.96-11.05"/><path d="m59.59 297.62c5.66 5.44 12.06 10.03 18.58 14.05 1.85.52 4.45 1.42 7.8 2.72-9.3-4.65-18.21-10.15-26.38-16.77"/><path d="m582.08 291.41c-16.08 0-47.97 12.74-58.51 14.92-67.98 14.11-136.5 25.81-205.59 31.39-7.95.79-15.9 1.51-23.87 2.18-19.99 1.44-40.34 2.72-60.76 3.13 3.91.08 7.84.09 11.74.09 16.49 0 32.89-.54 49.09-1.37 49.63-2.58 98.99-8.67 148.08-16.54 25.57-4.69 51.06-9.84 76.43-15.3 22.65-4.88 45.45-9.28 67.68-15.94.51-.18 2.4-.56 2.63-1.17-1.66-.95-4.03-1.38-6.91-1.38"/><path d="m317.97 337.72c-7.96.63-15.93 1.2-23.89 1.68-1.72.08-3.43.19-5.15.26-21.01 1.78-42.09 3.05-63.17 3.2 2.55.07 5.08.13 7.58.17 20.41-.41 40.77-1.68 60.76-3.13 7.96-.67 15.91-1.39 23.87-2.18"/><path d="m85.97 314.39c6.04 3.01 12.25 5.67 18.55 8.04 38.78 13.9 80.03 19.22 121.25 20.42 21.09-.14 42.16-1.41 63.17-3.2-15.52.8-31.19 1.31-46.91 1.31-46.43 0-93.17-4.46-137.28-19.15-2.97-1.07-5.92-2.21-8.85-3.41-3.84-1.63-7.15-2.96-9.93-4.02"/><path d="m76.96 313.49c3.26 2.15 9.77 5.64 19.27 10.12 2.27 1.04 4.53 2.05 6.81 2.99 22.4 9.53 46.29 14.9 70.18 18.01 21 2.64 42.13 3.73 63.28 3.73 19.32 0 38.67-.91 57.92-2.38 49.5-4.49 98.83-11.75 147.85-20.75-49.08 7.87-98.45 13.95-148.08 16.54-16.2.83-32.61 1.37-49.09 1.37-3.9 0-7.83-.01-11.74-.09-4.34.08-8.67.14-13 .14-35.89 0-71.82-3.17-106.07-13.37-3.72-1.14-7.4-2.39-11.04-3.75-9-3.46-17.88-7.58-26.28-12.56"/><path d="m75.17 311.08c-1.18 0-.56.84 1.78 2.41 8.41 4.97 17.29 9.1 26.28 12.56 3.64 1.36 7.32 2.61 11.04 3.75 34.25 10.19 70.18 13.37 106.07 13.37 4.33 0 8.66-.06 13-.14-2.51-.04-5.04-.1-7.58-.17-1.16 0-2.34 0-3.51 0-22.14 0-44.25-1.3-66.22-4.67-17.74-2.8-35.37-7.22-52.2-13.83-8.7-3.48-17.16-7.54-25.24-12.42-.15-.09-.29-.19-.43-.27-1.43-.41-2.43-.6-2.99-.6"/><path d="m78.16 311.67c.14.08.28.18.43.27 8.08 4.88 16.55 8.94 25.24 12.42 16.83 6.61 34.46 11.03 52.2 13.83 21.97 3.37 44.08 4.67 66.22 4.67h3.51c-41.22-1.2-82.47-6.52-121.25-20.42-6.29-2.37-12.5-5.02-18.55-8.04-3.35-1.3-5.95-2.2-7.8-2.72"/></g><g opacity=".8"><path d="m678.48 145.2c2.27 3.69 4.21 7.61 5.76 11.77 2.17 6.12 3.33 12.64 3.36 19.2.03 7.23-1.26 14.38-3.44 21.21-2.96 9.59-26.97 50.46-25 50.46.04 0 .08-.02.16-.06.38.09.74.15 1.16.15 11.4 0 31.87-38.11 34.87-45.6 1.37-3.46 2.53-7.02 3.4-10.65-1.14 3.61-2.61 7.07-4.53 10.16-.42.58-.73.88-.94.88-.23 0-.32-.46-.16-1.39.1-.48.22-.97.36-1.46.17-1.07.36-2.16.53-3.23-.54 1.44-1.16 2.88-1.81 4.28-.51 1.07-3.42 7.95-5.08 7.95-.01 0-.04 0-.04 0-.93.9-1.59 1.28-2.05 1.28-2.42 0 .56-10.32.91-11.99 1.75-7.17 2.8-14.53 2.49-21.95-.23-6.64-1.57-13.19-3.9-19.35-1.64-4.12-3.68-8.01-6.04-11.66m-156-74.36c-3.13 0-5.81.43-7.74 1.49 2.9.73 5.84 1.41 8.77 2.05 24.71 3.01 48.63 9.27 72.96 13.85-10.58-3.12-21.26-5.83-32.01-8.1-8.45-1.82-29.08-9.3-41.98-9.3"/><path d="m596.48 88.24c3.34.99 6.69 2.04 10.01 3.11 12.46 4.34 25.58 9.06 38.37 14.06-9.4-5.33-19.23-9.86-29.22-13.77-2.83-.39-5.74-.84-8.7-1.53-3.48-.58-6.98-1.2-10.46-1.86m-116.28-20.35c-5.01 0-9.34.66-12.28 2.41 29.14 4.49 58.45 5.65 87.46 11.6 16.79 3.43 33.44 7.79 49.7 13.46 18.5 6.74 36.72 15.33 52.61 27.55 7.89 6.27 15.22 13.64 20.78 22.29-5.43-8.79-12.68-16.27-20.5-22.65-15.78-12.51-34.03-21.32-52.54-28.24l-13.34-4.52c-22.58-7.12-45.69-10.33-68.58-15.4h-.05c-9.15-1.13-29-6.49-43.27-6.49"/><path d="m523.52 74.39c22.9 5.07 46 8.28 68.58 15.4l13.34 4.52c18.51 6.92 36.75 15.73 52.54 28.24 7.82 6.38 15.06 13.87 20.5 22.65 2.36 3.65 4.4 7.54 6.04 11.66 2.33 6.16 3.67 12.71 3.9 19.35.3 7.43-.74 14.79-2.49 21.95-.36 1.67-3.33 11.99-.91 11.99.46 0 1.12-.39 2.05-1.28h.04c1.66 0 4.56-6.88 5.08-7.95.65-1.41 1.27-2.84 1.81-4.28 1.08-6.62 1.88-13.26 1.65-20.01-.23-7.57-1.66-15.05-4.26-22.11-5.87-15.33-16.72-27.77-29.01-37.68-.36-.29-.75-.6-1.13-.9-5.29-3.84-10.74-7.33-16.38-10.54-12.78-5-25.91-9.72-38.37-14.06-3.32-1.07-6.67-2.11-10.01-3.11-24.33-4.59-48.25-10.85-72.96-13.85"/><path d="m678.69 118.3c6.28 8.73 13.17 19.21 12.56 19.21-.14 0-.66-.53-1.64-1.71 1.31 2.34 2.43 4.73 3.28 7.13 1.62 3.11 3.03 6.33 4.18 9.64 2.68 7.81 3.94 16.08 3.72 24.36-.01.66-.05 1.29-.1 1.93-.23 4.35-.91 8.64-1.95 12.83 1.5-4.81 2.4-9.89 2.82-14.71.69-8.44-.23-16.95-2.62-25.05-.91-3.17-2.11-6.27-3.45-9.26-4.18-9.15-10.02-17.24-16.8-24.37m-277.69-53.72c-.93.03-1.84.06-2.77.1-2.11.06-4.87.37-8.13.83 3.57-.23 7.27-.56 10.89-.93m37.12-5.04c-2.95 0-5.9.01-8.83.03-3.75.04-7.48.11-11.21.21-1.4.03-2.82.05-4.23.07l-48.13 3.58c.51.3 1.07.56 1.72.8 3.94-.2 7.85-.41 11.71-.67 16.68-1.17 33.41-1.98 50.14-2.34 11.34-.17 22.88-.32 34.55-.32s24.31.17 36.54.62c-2.37-.22-4.74-.42-7.09-.6-18.58-1.02-37.07-1.38-55.16-1.38"/><path d="m692.89 142.93c.56 1.59 1 3.2 1.28 4.79.67 1.72 1.27 3.47 1.8 5.23 2.31 7.7 3.2 15.8 2.61 23.85-.54 6.82-2.12 13.52-4.59 19.84-.17 1.07-.36 2.16-.53 3.23-.14.49-.26.98-.36 1.46-.16.93-.07 1.39.16 1.39.21 0 .53-.3.94-.88 1.92-3.09 3.39-6.55 4.53-10.16 1.04-4.2 1.71-8.48 1.95-12.83.05-.63.08-1.27.1-1.93.23-8.28-1.04-16.55-3.72-24.36-1.16-3.3-2.57-6.53-4.18-9.64"/><path d="m661.24 115.94c.39.29.77.6 1.13.9 12.29 9.91 23.14 22.35 29.01 37.68 2.6 7.06 4.03 14.54 4.26 22.11.23 6.75-.57 13.39-1.65 20.01 2.47-6.32 4.04-13.02 4.59-19.84.58-8.05-.3-16.15-2.61-23.85-.53-1.76-1.13-3.51-1.8-5.23.36 1.93.48 3.84.37 5.73-.02.34-.1.52-.23.52-.11 0-.24-.1-.4-.3-.45-.59-.78-1.35-1.12-2.02-8.33-13.58-17.95-25.19-30.38-34.84-.39-.27-.79-.57-1.17-.86"/><path d="m429.16 61.73c-4.15 0-12.1 1.04-21.11 2.07-2.3.26-4.67.53-7.05.79 9.42-.33 18.83-.54 28.27-.58h3.09c58.81 0 118.9 5.39 175.11 24.55 2.73.99 5.45 2.01 8.17 3.08 1.05.14 2.06.25 3.1.39-3.63-1.53-7.29-2.95-10.96-4.3-54.05-19.24-112.11-25.12-168.82-25.89-3.23-.05-6.46-.08-9.69-.1h-.11"/><path d="m615.64 91.63c9.99 3.92 19.82 8.44 29.22 13.77.76.31 1.54.62 2.3.92-9.07-5.55-18.64-10.24-28.41-14.31-1.04-.13-2.06-.25-3.1-.39"/><path d="m644.86 105.4c5.64 3.2 11.09 6.7 16.38 10.54-4.53-3.47-9.23-6.66-14.08-9.62-.76-.3-1.53-.61-2.3-.92"/><path d="m367.42 64.23c-14.88.77-30.06 1.52-44.37 4.91 2.98 2.16 8.33 2.98 14.88 2.98 15.66 0 38.25-4.64 52.18-6.6-3.24.22-6.41.35-9.37.35-5.45 0-10.15-.45-13.32-1.64"/><path d="m672.7 117.38c3.59 3.34 6.98 6.92 10.06 10.8 3.94 4.44 7.35 9.41 10.14 14.75-.85-2.4-1.96-4.79-3.28-7.13-.8-.96-1.91-2.37-3.38-4.27-4.12-5.13-8.67-9.82-13.53-14.14m-208.89-56.49c-11.67 0-23.21.15-34.55.32-16.73.36-33.46 1.17-50.14 2.34-3.86.26-7.77.47-11.71.67 3.17 1.19 7.87 1.64 13.32 1.64 2.95 0 6.13-.13 9.37-.35 3.26-.45 6.02-.77 8.13-.83.92-.05 1.84-.08 2.77-.1 2.38-.26 4.75-.53 7.05-.79 9.01-1.02 16.96-2.07 21.11-2.07h.11c3.23.02 6.45.05 9.69.1 56.72.77 114.77 6.65 168.82 25.89 3.67 1.34 7.33 2.77 10.96 4.3 7.72.93 15.21 1.62 23.28 5.1 2.05.88 4.07 1.86 6.04 2.89-4.3-2.47-8.7-4.8-13.15-6.96-8.33-3.78-16.82-7.15-25.45-10.14-35.46-11.48-72.14-18.06-109.11-21.38-12.22-.45-24.45-.62-36.54-.62"/><path d="m682.75 128.18c1.16 1.44 2.24 2.92 3.32 4.43 3.24 4.68 6.01 9.76 8.1 15.11-.28-1.59-.72-3.2-1.28-4.79-2.79-5.33-6.2-10.31-10.14-14.75"/><path d="m618.75 92.02c9.77 4.06 19.33 8.75 28.41 14.31 6.04 2.38 11.96 4.83 17.69 7.34 4.87 2.6 9.37 6.09 13.45 9.92 1.53 1.45 3.04 2.99 4.46 4.6-3.07-3.87-6.47-7.46-10.06-10.8-2.13-1.88-4.31-3.71-6.54-5.44-5.79-4.37-11.85-8.34-18.09-11.93-1.98-1.03-4-2.01-6.04-2.89-8.07-3.48-15.56-4.17-23.28-5.1"/><path d="m647.15 106.32c4.85 2.95 9.56 6.15 14.08 9.62.39.29.79.59 1.17.86 12.43 9.65 22.05 21.26 30.38 34.84.34.67.66 1.43 1.12 2.02.16.2.3.3.4.3.14 0 .22-.18.23-.52.11-1.88-.02-3.8-.37-5.73-2.08-5.35-4.86-10.43-8.1-15.11-1.07-1.51-2.16-2.98-3.32-4.43-1.41-1.62-2.92-3.16-4.46-4.6-4.09-3.82-8.58-7.31-13.45-9.92-5.73-2.51-11.64-4.96-17.69-7.34"/><path d="m635.1 87.67c.79.54 1.64 1.11 2.5 1.68.65.31 1.33.63 1.98.95 10.26 5.02 20.05 11.18 28.98 18.52 3.54 2.94 6.94 6.1 10.13 9.48-2.74-3.84-5.37-7.35-7.21-9.48-.46-.15-1.16-.53-2.05-1.11-5.17-3-10.06-6.58-15.13-9.74-6.24-3.76-12.66-7.18-19.2-10.3m-205.84-34.47c-5.55 0-11.09.06-16.63.17-28.77 1.13-57.49 3.2-86.14 6.35-19.85 2.12-40.13 3.73-59.65 8.29-.24.09-.09.15.44.15 6.29 0 64.44-6.81 68.46-7.17l2.16-.1c30.39-3.34 60.86-5.69 91.37-7.26 3.75-.14 7.52-.26 11.29-.36-3.76-.05-7.53-.07-11.29-.07"/><path d="m637.6 89.35c1.81 1.22 3.72 2.53 5.59 3.85 6.9 3.87 13.53 8.22 19.79 13.11 1.56 1.23 3.1 2.52 4.6 3.81 6.55 5.76 16.22 15.3 22.04 25.68.97 1.19 1.5 1.71 1.64 1.71.61 0-6.28-10.48-12.56-19.21-3.2-3.38-6.6-6.54-10.13-9.48-8.93-7.34-18.72-13.5-28.98-18.52-.65-.32-1.33-.64-1.98-.95"/><path d="m634.92 93.04c4.44 2.16 8.85 4.49 13.15 6.96 6.38 3.35 12.46 7.4 18.17 11.84 2.21 1.76 4.36 3.61 6.46 5.54 4.87 4.31 9.41 9.01 13.53 14.14 1.47 1.9 2.58 3.31 3.38 4.27-5.82-10.37-15.49-19.92-22.04-25.68-1.5-1.3-3.04-2.58-4.6-3.81-6.26-4.9-12.89-9.24-19.79-13.11 7.83 5.45 15.23 10.95 14.11 10.95-.45 0-2.28-.89-6.01-3.01-5.36-2.89-10.84-5.58-16.37-8.09"/><path d="m648.07 100.01c6.24 3.6 12.29 7.57 18.09 11.93 2.24 1.73 4.41 3.56 6.54 5.44-2.1-1.93-4.25-3.78-6.46-5.54-5.71-4.43-11.79-8.49-18.17-11.84"/><path d="m429.26 56.52-91.37 4.37c-18.36 2.01-36.66 4.39-54.93 7.18-20.67 3.11-41.79 5.72-62.05 11.27-.2.08-.13.12.18.12 4.71 0 67.22-10 71.58-10.59l73.03-5.45c-.38-.22-.73-.47-1.04-.74 15.9-3.12 32.92-2.66 49.17-2.85l15.44-1.15c1.29 0 2.59-.01 3.91-.01 19.99 0 40.07.65 60.09 2.24 4.73.26 9.46.54 14.2.89 7.73.37 15.43.85 23.11 1.51-33.58-5.04-67.65-6.8-101.31-6.8"/><path d="m493.27 60.92c2.36.18 4.73.38 7.09.6 2.37.08 4.74.18 7.1.29-4.74-.35-9.47-.63-14.2-.89m-79.43-1.08c-16.25.19-33.26-.28-49.17 2.85.3.26.66.52 1.04.74l48.13-3.58"/><path d="m507.46 61.81c11.75.85 23.51 1.99 35.21 3.47-4.04-.7-8.09-1.35-12.1-1.96-7.68-.66-15.38-1.15-23.11-1.51"/><path d="m500.36 61.52c36.97 3.32 73.65 9.9 109.11 21.38 8.63 2.99 17.12 6.36 25.45 10.14-8.27-4.01-16.73-7.51-25.29-10.63-21.83-7.6-44.25-13.16-66.96-17.13-11.7-1.48-23.47-2.62-35.21-3.47-2.36-.11-4.74-.21-7.1-.29"/><path d="m440.55 53.27c-3.76.09-7.53.22-11.29.36-30.51 1.57-60.98 3.91-91.37 7.26l91.37-4.37c33.66 0 67.73 1.77 101.31 6.8 23.02 1.97 45.79 5.43 67.55 11.31 4.32 1.18 8.59 2.54 12.84 4.02 1.81.65 3.6 1.33 5.39 2.03 7.21 2.5 14.32 5.38 21.25 8.66-.86-.57-1.71-1.14-2.5-1.68-4.34-2.07-8.76-4.02-13.2-5.85-2.92-.89-6.53-2.09-10.77-3.61l-.21-.06c-55.07-17.76-112.94-24.15-170.37-24.87"/><path d="m616.35 80.69c9.17 3.55 18.2 7.66 26.84 12.51-1.87-1.31-3.78-2.62-5.59-3.85-6.93-3.28-14.03-6.16-21.25-8.66"/><path d="m530.57 63.33c4.01.61 8.06 1.26 12.1 1.96 23.23 2.96 46.18 7.3 68.21 13.57 1.83.59 3.66 1.19 5.46 1.83-1.79-.69-3.58-1.38-5.39-2.03-4.25-1.48-8.51-2.84-12.84-4.02-21.76-5.89-44.53-9.34-67.55-11.31"/><path d="m542.68 65.29c22.71 3.97 45.12 9.53 66.96 17.13 8.55 3.11 17.02 6.62 25.29 10.63 5.53 2.52 11.01 5.2 16.37 8.09 3.73 2.12 5.55 3.01 6.01 3.01 1.12 0-6.29-5.5-14.11-10.95-8.64-4.85-17.66-8.96-26.84-12.51-1.81-.63-3.63-1.24-5.46-1.83-22.04-6.27-44.98-10.61-68.21-13.57"/><path d="m447.59 45.56c-6.13 0-12.22.06-18.33.18-50.88 1.34-101.74 5.67-152.18 12.8-19.08 2.63-38.33 4.9-57.1 9.53-.23.06-.2.1.06.1 3.38 0 46.09-5.67 52.82-6.55 8.98-1.19 17.97-2.29 26.94-3.31 42.97-5.94 86.23-9.95 129.45-11.51 6.52-.16 13.04-.25 19.57-.25 31.12 0 62.24 2.01 92.99 7.18 23.57 4 47.16 10.09 69.33 19.56.5.19 1 .42 1.49.64 2.5 1.06 4.72 2.06 6.72 2.95 16.94 6.97 33.41 15.84 47.71 27.78.95.8 1.91 1.61 2.84 2.46.4.36.93.95 1.58 1.71.16.05.31.07.4.07.6 0 .2-.87-1.35-2.63-4.31-5.21-9.93-9.39-15.33-13.16-12.97-9.05-27.13-16.11-41.62-21.92-9.99-4.02-20.22-7.44-30.6-10.24-44.16-11.85-89.91-15.38-135.4-15.38"/><path d="m619.35 76.88c9.9 4.51 13.26 6.86 10.84 6.86-.34 0-.8-.04-1.37-.14 1.53.92 3.73 2.36 6.27 4.06 6.54 3.12 12.96 6.55 19.2 10.3 5.07 3.17 9.97 6.74 15.13 9.74.9.58 1.59.96 2.05 1.11-.65-.76-1.18-1.35-1.58-1.71-.93-.85-1.89-1.66-2.84-2.46-14.3-11.94-30.77-20.8-47.71-27.78"/><path d="m621.9 81.82c4.44 1.82 8.86 3.77 13.2 5.85-2.54-1.7-4.74-3.14-6.27-4.06-1.52-.25-3.85-.85-6.93-1.79"/><path d="m424.5 50.8c-41.68 0-83.28 2.81-124.69 7.51-22.93 3.15-45.77 6.88-68.5 11.06-19.76 3.59-39.75 6.8-59.14 12.38-.44.14-2.12.47-2.28 1.03 1.38.97 3.63 1.37 6.44 1.37 13.99 0 42.29-10.04 50.69-11.49 61.35-10.8 123.37-18.11 185.61-19.28 5.54-.23 11.08-.4 16.63-.54 8.65-.18 17.34-.27 26.04-.27 10.81 0 21.65.16 32.51.56-19.53-1.55-39.12-2.23-58.55-2.3-1.58-.02-3.17-.02-4.76-.02"/><path d="m455.3 52.56c-8.7 0-17.39.09-26.04.27-5.55.14-11.09.31-16.63.54 5.54-.11 11.08-.17 16.63-.17 3.75 0 7.52.02 11.29.07 7.96-.22 15.89-.35 23.84-.35 9.32 0 18.63.17 27.96.57-1.53-.14-3.02-.26-4.54-.38-10.86-.39-21.7-.56-32.51-.56"/><path d="m464.39 52.93c-7.95 0-15.89.13-23.84.35 57.43.71 115.3 7.11 170.37 24.87l.21.06c4.24 1.52 7.85 2.72 10.77 3.61-3.51-1.43-7.04-2.8-10.6-4.1-38.37-13.47-78.56-20.75-118.95-24.23-9.33-.39-18.65-.57-27.96-.57"/><path d="m448.83 46.55c-6.53 0-13.05.09-19.57.25-43.22 1.56-86.48 5.56-129.45 11.51 41.42-4.7 83.01-7.51 124.69-7.51 1.6 0 3.18 0 4.76.02 19.43.07 39.02.76 58.55 2.3 36.59 1.34 73.17 5.43 108.37 15.6 5.52 1.61 10.96 3.47 16.36 5.47 2.27.88 4.55 1.76 6.81 2.7-1.99-.89-4.22-1.88-6.72-2.95-.48-.22-.99-.45-1.49-.64-22.17-9.47-45.76-15.56-69.33-19.56-30.75-5.18-61.87-7.18-92.99-7.18"/><path d="m487.81 53.12c1.52.12 3.01.24 4.54.38 21.72.91 43.37 3.01 64.85 6.97 18.59 3.45 37.03 8.55 54.69 15.53 5.15 2.03 10.24 4.25 15.24 6.66.36.17.94.5 1.69.95.57.09 1.03.14 1.37.14 2.42 0-.94-2.35-10.84-6.86-2.27-.94-4.54-1.82-6.81-2.7-5.39-2-10.83-3.86-16.36-5.47-35.2-10.17-71.78-14.25-108.37-15.6"/><path d="m492.35 53.49c40.39 3.48 80.57 10.76 118.95 24.23 3.56 1.3 7.09 2.66 10.6 4.1 3.08.94 5.41 1.54 6.93 1.79-.75-.45-1.33-.78-1.69-.95-5-2.42-10.09-4.63-15.24-6.66-17.66-6.98-36.1-12.08-54.69-15.53-21.49-3.95-43.13-6.06-64.85-6.97"/></g><path d="m281.56 7.08c5.02-2.97 9.5-4.66 13.3-5.15 5.1-.47 11.17-.72 18.32-.72 4.41 0 11.79 1.45 22.07 4.27l14.89.88 13.54 3.79c.15.48 3.79.73 10.94.73 1.51 6.28 3.97 9.44 7.38 9.44 2.23 0 4.49-1.79 6.84-5.42h3.34c.62 0 3.66 1.21 9.22 3.79 4.1 1.21 9.14 2.18 14.91 2.82l9.8 2.56 6.71.97c4.85 1.06 9.12 2.02 12.68 2.82 1.75.48 6.08 2.42 12.86 5.87l4.94-.7c4.42 3.13 7.21 4.9 8.2 5.23 1.07.33 2.83.48 5.4.48 1.14 2.99 2.11 4.69 2.88 5.16l7.31 5.63c.77.49 1.68 1.95 2.74 4.28.99 2.09 1.52 3.62 1.52 4.75 0 .32-.69 4.11-1.97 11.28l-3.57 8.06c-1.53 6.13-2.51 9.59-3.12 10.4s-1.67 1.38-3.12 1.85v-.88c0-.8-.31-1.53-.91-2.18-2.67 1.3-4.5 2.59-5.55 4.03-.46.65-1.47 1.13-2.89 1.45-5.1 1.05-7.6 2.91-7.6 5.41 0 1.69 1.13 4.11 3.35 7.09-2.51 2.01-4.18 3.46-4.87 4.18-3.87 3.78-6.08 5.89-6.69 6.21l-8.28 2.58c-1.9.64-4.87 3.77-8.91 9.42-3.94.32-7 .88-9.12 1.69-.99.24-5.24 2.5-12.69 6.61l-9.97 2.33-10.05 3.55h-7.59c-2.05.48-3.42.72-4.03.72h-2.19c-1.07 2.49-2.46 4.12-4.28 4.91-.83.16-5.02.97-12.45 2.33l-4.88 1.46-8.67-.97-8.44 3.32c-12.79.64-20.23 1.2-22.28 1.68-1.38.49-4.71 2.03-10.04 4.68-.47.32-2.73.64-6.92.97-4.4.31-10.04 1.68-16.73 4.25 2.42 2.35 3.48 4.53 3.33 6.62l-1.06 9.92c-.44 17.87-1.06 28.84-1.82 32.79h-1.75l-.69-.49-.91.97c.31 3.15.53 5.15.67 6.13 1.38 9.26 2.07 19.73 2.07 31.41l2.43 12.03-1.15 31.65.23 8.47v16.76l.69 16.29c-.14.48-.69 1.77-1.6 3.78l-4.19.96.6 8.96h6.1c.08.96.15 1.67.15 2.18 0 1.03-.23 2.97-.84 5.63-.44 2.51-.7 4.76-.7 6.62l.94 8.7v.48l-1.16 2.82-4.5 1.69c-.29 2.01-.36 3.87-.36 5.41 0 1.93.66 4.43 2.2 7.57 4.18 0 6.24 1.93 6.24 5.88 0 5.96-.47 13.62-1.38 22.89-.14 1.45-.23 2.64-.23 3.54 0 1.45 1.62 7.66 4.72 18.7.31 1.2.46 2.58.46 4.03 0 3.13-.91 5.32-2.65 6.61-.76.49-4.96 1.78-12.56 3.95-.53 2.89-1.22 4.99-1.98 6.44-.91 1.54-3.72 2.99-8.42 4.19-9.51 3.32-15.75 5.48-18.79 6.38-2.37-3.29-3.51-5.79-3.51-7.49 0-.32 1.37-5 4.17-13.93l-.66-8.54s.66-3.95 2.05-12.01c.45-2.51 2.28-5.25 5.56-8.31-2.52-6.11-3.81-9.9-3.81-11.29v-.23l2.28-12.98 1.28-10.64c.32-.97 1.45-2.5 3.35-4.74-1.62-5.33-3.73-9.36-6.25-12.01.91-3.63 1.38-5.64 1.38-6.13l.23-29.56c.67-4.68 1.06-7.25 1.06-7.74 0-1.3-.62-3.71-1.75-7.34l7.16-5.64c-.76-3.14-1.15-5.41-1.15-6.6-.31-2.9-.6-4.76-.91-5.73 0-.48-.98-1.69-3.12-3.78.32-3.3.47-5.57.47-6.85l-.47-19.33c0-2.35 1.74-5.82 5.18-10.4-.16-1.7-1.38-4.59-3.58-8.72-.15-.31-.23-.79-.23-1.43 0-.33.54-2.43 1.54-6.37v-12.49l.67-10.14c0-5.02-2.13-9.36-6.47-13 .15-3.12.39-5.23.69-6.11.6-3.95.92-6.28.92-7.09 0-.16-.39-2.08-1.16-5.72l-.45-9.91c-1.37-5.64-1.97-8.71-1.97-9.18 0-1.05.77-4.03 2.42-8.71.3-1.12.46-2.64.46-4.75s-.16-4.27-.46-6.85c-.3-3.94-.52-6.68-.66-8.22-.15-4.11-.69-9.1-1.61-14.9-.15-5.8-.15-8.86-.15-9.1 0-.16-.61-1.21-1.84-2.89h-.91l-1.97-13.95c3.14-2.66 4.65-5.41 4.65-8.23 0-3.3-1.22-6.19-3.73-8.54 3.8-2.01 5.77-4.11 5.77-6.13 0-1.13-2.5-5.96-7.6-14.67-.99-4.67-1.92-8.46-2.66-11.28l3.13-5.87c-3.6-4.92-5.33-7.82-5.33-8.78 0-1.13.3-2.5.83-4.28.45-1.22.99-3.29 1.61-6.12-2.51-1.86-4.59-2.82-6.01-2.82-2.05 0-4.49.48-7.17 1.46-.91-1.62-1.28-3.24-1.28-5.01 0-2.66 1.37-4.83 4.18-6.6 2.97-1.7 8.61-4.03 16.75-6.85l7.13-4.67 4.19-1.69c6.22-2.66 10.03-4.03 11.39-4.03 3.13 0 5.39 2.42 6.93 7.08zm-1.37 66.33h4.03c-.17 3.46-.32 5.64-.48 6.61-.29 1.93-.45 10.23-.45 25.06-.29 2.65-.47 6.2-.47 10.55l4.5 2.43c-.6 3.77-.91 6.44-.91 7.97v.47c0 1.45.08 2.99.23 4.76v2.34c0 1.28-.16 3.15-.47 5.64 1.53.64 2.61.96 3.35.96 0 0 1.82-.16 5.32-.48h1.37c2.06 0 4.63.09 7.62.24v5.48h1.96c1.77 0 3.82-.4 6.01-1.22.92-1.59 1.75-2.47 2.44-2.8 1.06-.32 10.64-1.7 28.73-4.03 8.75-.32 15.44-.98 20.1-1.85 2.95-.49 5.01-.89 6.22-1.2 1.76-1.14 3.21-2.02 4.19-2.82l6.69-.26c4.64-1.44 7.14-2.18 7.6-2.18 1.29 0 2.96.33 4.87.97 1.99-1.7 3.8-2.74 5.63-3.06 2.97-.81 8.98-3.13 18.02-7.09 7.52 0 15.2-4.59 22.95-13.94 1.46-1.85 3.64-5.25 6.6-10.15.91-1.53 2.22-5.33 3.82-11.29 2.49-4.6 3.8-7.41 3.8-8.54 0-6.27-2.65-11.45-7.98-15.54-.91-.82-5.7-3.88-14.28-9.21-.48-.32-5.79-2.17-16.07-5.47-1.29-.49-3.33-1.14-6.01-2.1l1.61-5.24-8.05-3.06c-3.28 3.31-6.02 5.01-8.22 5.01-.3 0-2.66-.73-7.15-2.1-8.42-.65-13.37-1.21-14.67-1.7-1.97-.8-4.03-2.83-6.22-6.12-3.88.17-6.39.4-7.61.73-.3.16-1.36.89-3.35 2.33h-1.73c-5.42-.16-9.28-.65-11.8-1.44-1.67-.32-5.7-1.62-12.1-3.95.17-7.11-1.12-12.65-3.93-16.6-.62-.74-1.23-1.13-1.83-1.13-2.37 0-5.79 5.39-10.27 16.28-3.94-1.29-11.33-1.86-22.04-1.86-.99 0-2.46.33-4.18 1.13-.77 3.94-1.15 6.52-1.15 7.8-.76 10.4-1.67 17.17-2.89 20.32-.14.49-.23 1.13-.23 2.1 0 1.29.09 2.67.23 4.28-2.5 3.29-3.72 5.71-3.57 7.32l.23 1.61v4.04z"/></g></svg>