<svg viewBox="0 0 461.66 702.69" xmlns="http://www.w3.org/2000/svg"><g fill="#e87200"><path d="m422.44 325.07c0 145-101.28 208.19-195.24 208.19-105.34 0-187.99-77.77-187.99-201.71 0-130.42 86.69-207.39 194.44-207.39s188.79 81.84 188.79 200.92zm-310.3 4.05c0 85.87 48.59 150.69 118.31 150.69s119.04-64.02 119.04-152.27c0-66.44-33.21-149.92-117.45-149.92s-119.9 77.8-119.9 151.5zm3.25-287.82c0-22.69 17.82-41.3 41.31-41.3 21.85 0 38.9 17.82 38.9 41.3 0 21.89-16.22 41.35-40.52 41.35-22.7 0-39.69-19.46-39.69-41.35zm149.87 0c0-22.69 17.82-41.3 40.51-41.3s39.69 17.82 39.69 41.3c0 21.89-16.23 41.35-40.56 41.35s-39.65-19.46-39.65-41.35z"/><path d="m76.38 595.68-11.34 22.06c-2.63-2.11-5.54-3.84-8.77-5.14-3.25-1.32-6.61-1.96-10.08-1.96-.52 0-1.01.04-1.61.06-.59.05-1.17.17-1.73.38-2.24.47-4.28 1.45-6.1 2.91-1.84 1.43-2.78 3.39-2.78 5.8s.89 4.19 2.61 5.6c1.75 1.39 3.64 2.54 5.67 3.42.78.29 1.52.56 2.25.79.72.25 1.43.47 2.12.65l7.25 2.03c7.65 2.34 14.06 5.68 19.25 10.09 5.17 4.42 7.76 11.07 7.76 19.96v2.34c-.19 5.04-1.12 9.92-2.74 14.74-1.67 4.79-4.53 8.92-8.57 12.4-3.7 3.19-7.83 5.57-12.5 7.14-4.67 1.52-9.37 2.51-14.23 2.9-.78 0-1.54.04-2.25.08-.73.04-1.45.05-2.12.05-6.88 0-13.61-1.08-20.18-3.26-6.58-2.15-12.7-5.21-18.29-9.07l12.19-23.07c3.59 3.16 7.48 5.87 11.7 8.11 4.2 2.21 8.72 3.33 13.55 3.33h1.17c3.21-.17 6.11-1.19 8.72-2.96 2.63-1.8 3.92-4.5 3.92-8.08 0-2.7-1.07-4.88-3.26-6.54-2.18-1.63-4.63-2.95-7.32-3.9-1.18-.38-2.33-.77-3.49-1.1-1.14-.34-2.22-.66-3.2-.94-.19-.08-.39-.16-.64-.22-.24-.03-.47-.13-.67-.2-8.61-2.45-15.47-5.54-20.62-9.31-5.11-3.78-7.69-10.85-7.69-21.21 0-11.12 3.56-20.04 10.66-26.71 7.13-6.7 16.17-10.03 27.11-10.03 2.22 0 4.5.13 6.81.36 2.32.26 4.66.67 6.96 1.25 3.69.77 7.28 1.79 10.83 3.05 3.54 1.25 6.75 2.69 9.66 4.35v-.14z"/><path d="m137.94 699.07h-28.44v-85.38h-23.53v-24.11h75.51v24.11h-23.54z"/><path d="m226.81 585.93c15.79.11 29.83 5.43 42.13 15.9 12.28 10.52 18.44 24.04 18.44 40.61 0 17.72-5.72 32.18-17.07 43.41-11.36 11.23-25.87 16.84-43.5 16.84s-31.97-5.61-43.42-16.84c-11.4-11.23-17.12-25.69-17.12-43.41 0-16.57 6.16-30.09 18.45-40.61 12.28-10.47 26.3-15.74 42.09-15.74zm-21.85 36.54c-6.03 5.84-9.05 12.55-9.05 20.11 0 9.39 3.01 17.17 9.05 23.37 6.06 6.22 13.33 9.31 21.85 9.31s15.81-3.1 21.87-9.33c6.07-6.21 9.06-13.99 9.06-23.44 0-7.57-2.99-14.3-9.06-20.15-6.05-5.88-13.31-8.79-21.87-8.79-8.52.08-15.79 3.05-21.85 8.93z"/><path d="m357.24 654.19 34.41 44.88h-35.44l-26.84-42.12h-.3v42.12h-28.48v-109.49h42.56c10.86.08 19.89 2.82 27.17 8.2 7.25 5.37 10.87 13.92 10.87 25.64 0 7.54-2.06 14.25-6.17 20.11-4.12 5.84-10.04 9.46-17.78 10.81v-.14zm-28.18-15.54h2.76c.47.11.97.15 1.46.15h1.3c4.23-.19 8.16-1.16 11.69-2.98 3.51-1.76 5.29-5.33 5.29-10.66s-1.77-8.99-5.29-10.78c-3.53-1.83-7.46-2.84-11.69-3.02h-5.52z"/><path d="m427.81 613.69v18.28h32.08v24.11h-32.08v18.88h33.85v24.11h-62.33v-109.49h62.33v24.11z"/></g></svg>