<svg viewBox="0 0 1036.94 517.52" xmlns="http://www.w3.org/2000/svg"><g fill="#d0c695"><path d="m910.76 449.68c13.63-11.17 18.46-23.55 17.77-32.84-1.04-13.79-16.92-27.96-29.73-29.79 2.97 2.15 5.73 5.39 7.21 8.73 1.69 3.83 1.94 6.44 1.46 10.71-.27 2.3-.99 4.53-1.56 6.75-2.08 7.85-1.61 16.65 1.22 24.27l2.05 5.11c7.6-6.3 10.65-21.15 8.91-30.1 1.14 1.36 2.11 4.26 2.41 5.39 1.25 4.8.56 9.43-1.1 15.07-1.7 5.86-5.03 11.46-8.65 16.42v.28z"/><path d="m844.94 361.64c-.95 6.04.16 12.51 3.63 18.06 8.31 13.24 25.74 16.85 40.02 12.67 14.15-4.13 27.02-16.21 32.92-28.43 16.8-34.8 4.58-77.58-6.5-111.74-.9-2.76-1.77-5.45-2.61-8.08-7.95-24.85-14.79-50.24-17.49-76.26-1.25-12.03-2.6-24.4-.49-36.41 1.68-9.57 7.47-19.03 16.08-23.93 9.61-5.47 21.89-1.31 28.13 7.94 6.05 8.96 5.86 22.5-7.31 27.28-7.92 2.88-16.93-4.75-23.82 1.61-6.05 5.59-3.65 15.05 2.06 19.91 7.16 6.08 17.18 4.65 24.54-.04 33.97-21.67 8.11-73.25-26.9-61.09-22.95 7.97-27.88 41.94-26.33 60.88 2.35 28.73 10.98 56.56 19.68 83.88.85 2.64 1.73 5.37 2.63 8.15 10.4 32.05 31.09 72.76 14.12 107.91-4.22 8.75-15.27 18.6-24.72 21.58-9.26 2.92-21.8 1.31-28.62-6.18-3.48-3.82-6.05-10.6-5.16-15.94 1.27-7.63 11.03-9.74 8.58-3.99-2.07 4.89.15 10.98 10.15 10.29 9.22-.63 12.3-11.67 9.85-18.39-2.9-7.96-13.5-10.75-21.82-9.89-11.69 1.22-19.06 10.11-20.64 20.23z"/><path d="m909.14 385.09.96 1.03c32.59-32.88 31.38-61.73 27.23-97.77-1.39-12.11-2.84-24.64-3.01-38.06-.3-24.11 16.74-46.24 38.01-49.34 9.65-1.41 20.14-.42 27.56 5.35 7.39 5.76 12.72 15.28 13.71 24.79.57 5.5-1.16 13.03-4.57 17.79-4.37 6.1-11.53 8.07-16.8 8.35-3.23.18-7.94.39-11 2.1-4.09 2.28-4.9 7.79-1.55 10.76 3.91 3.47 11.59 1.07 15.35-.7 4.96-2.32 9.33-5.8 12.78-10.07 6.35-7.85 9.69-18.33 8.64-28.41-1.11-10.79-6.36-20.34-14.77-26.88-8.43-6.58-19.1-9.31-30.03-7.72-23.89 3.48-42.36 27.22-42.02 54.04.18 13.65 1.63 26.3 3.04 38.54 4.01 34.83 7.48 64.91-23.53 96.19z"/><path d="m935.49 275.22c.04 6.74.84 13.16 1.49 19.82.33 3.44.84 6.57 1.15 10.19.7 8.35.73 16.58.07 25.03-.21 2.76-1.24 13.1-5.14 19.79-.53.91 1.15.65.74.78 2.97-4.88 4.51-12.49 5.25-17.97 1.05-7.69 1.03-14.65.91-22.31-.25-18.84-6.51-40.56 5.44-57.17 2.32-3.24 8.65-8.46 13.43-8.36 5.69.11 7.91 7.64 3.15 9.62-1.1.46-3.62.92-4.75-1.5-2.92 7.48 4.62 11.65 8.1 11.5 8.87-.36 15.2-8.89 14.26-16.94-.97-8.3-7.07-11.74-12.66-13.01-11.5-2.63-20.99 6.7-26.12 15.93-4.49 8.07-5.37 16.19-5.32 24.61z" fill-rule="evenodd"/><path d="m922.46 215.16c-.29 2.34-.43 4.69-.39 7.03.26 19.44 3.16 37.65 5.98 55.26 6.2 38.78 12.01 72.68-14.16 102.5l.31.29c26.65-30.37 21.65-63.87 15.38-103.04-1.48-9.28-2.84-18.58-3.85-27.92-2.17-20.2-5.81-42.94 9.45-58.88 2.87-2.99 6.85-5.82 11.09-7.03 1.93-.56 5.02-1.2 4.83 1.41-.08 1.11-2.24 1.16-2.88 4.1-.96 4.37 2.48 7.28 6.12 7.85 4.38.69 8.73-1.62 9.94-6.21 2.04-7.78-5.26-12.73-11.04-12.48-5.25.22-10.21 2.31-14.33 5.52-8.69 6.74-14.87 18.88-16.45 31.61z"/><path d="m914.58 316.72c-1.99-6.89-5.55-13.91-12.3-15.95-6.99-2.11-8.96 4.92-13.52 5.99-2.68.64-7.31.25-9.38 2.35-2.1 2.12-1.25 6.77.77 9.29 1.82 2.27 5.66 3.5 8.2 2.97 1.63-.34 3.08-1.52 3.17-3.2.08-1.91-1.21-.71-2.04-1.66-.98-1.1 1.42-3.37 2.67-.2.65 1.64 0 3.4-1.28 4.54-3.4 3.02-8.35 1.15-11.44-1.56-4.48-3.92-5.9-10.03-4.26-15.76 2.03-7.07 6.93-10.84 13.97-12.14 8.24-1.52 14.59 2.05 19.71 8.24 3.2 3.87 5.76 8.38 7.25 13.19 1.14 3.65 1.79 7.43 2.22 11.21.61 5.58.59 11.2.15 16.68-.23 2.85-1.51 10.05-1.53 10.09-.06.33-.68.09-.83.02.94-5.02 1.59-10.43 1.37-15.87-.25-6.22-1.19-12.22-2.91-18.23z" fill-rule="evenodd"/><path d="m917.04 351.23c-.23.16-.47.21-.68-.07.47-4.26.63-9.54-.09-13.35-.42-2.15-1.88-5.77-4.33-6.73-2.52-.99-5.43 1.53-3.51 3.63.45.48 1.6 1.3 2.73.35-.27 4.42-5.02 4.75-6.72 3.87-4.35-2.24-5.71-8.09-3.2-11.78 1.9-2.79 6.26-4.23 9.36-3.57 10.55 2.23 8.04 20.35 6.45 27.65z" fill-rule="evenodd"/><path d="m943.34 331.38c-2.29-11.29.38-19.58 4.58-23.99 6.22-6.56 20.14-7.17 27.39-2.81-2.4-.15-5.14.35-7.27 1.44-2.44 1.24-3.65 2.47-5.16 4.83-.82 1.27-1.39 2.69-2.02 4.07-2.18 4.84-6.06 9.09-10.65 11.8-.31.18-3.17 1.6-3.14 1.74-1.25-6.34 3.34-15.13 7.92-18.95-1.13.23-2.84 1.3-3.45 1.74-2.63 1.91-4.19 4.54-5.68 8.09-1.56 3.68-2.2 7.9-2.39 11.91l-.14.13z"/><path d="m876.4 366.01c12.67 5.96 23.2 5.19 29.61 1.53 9.52-5.44 14.27-21.66 11.2-31.48-.51 2.87-1.9 5.96-3.78 8.17-2.16 2.51-3.97 3.58-7.19 4.69-1.74.6-3.58.86-5.37 1.2-6.34 1.19-12.48 4.54-16.98 9.16-.31.32-2.8 3.28-2.94 3.21 7.11 3.3 18.78.42 24.6-3.88-.6 1.27-2.34 2.97-3.04 3.57-3 2.54-6.57 3.62-11.19 4.36-4.77.77-9.93.31-14.72-.62l-.2.11z"/><g fill-rule="evenodd"><path d="m931.8 355.56c25.78-48.69 88.02-43.85 99.96 3.15 7.36 29.12-13.53 46.4-29.6 50.55-16.08 3.97-35.82-6.34-39.97-22.42-3.98-16.07 5.06-30.99 15.42-33.61 18.59-4.72 25.72 9.85 20.74 16.24-2.3 3.27-3.84-.24-4.35-2.03-.5-1.78-4.53-4.38-10.41-2.84-5.72 1.53-7.7 8.8-6.38 14.16 1.52 5.52 8.94 9.69 16.64 7.83 7.49-2.04 15.99-10.84 10.51-24.32-4.38-10.75-14.83-15.06-27.5-11.71-12.69 3.17-22.19 19.2-17.72 37.06 4.67 17.86 26.83 30.46 44.18 24.82 48.18-15.67 41.83-75.78-1.58-91.65-34.37-12.57-62.29 13.7-70.37 30.82-.66 1.41-.05 2.7.42 3.94z"/><path d="m928.83 373.69c4.27-1.29 9.46-1.48 12.79 1.36 3.45 2.94.45 6.33 1.42 9.07.57 1.61 2.33 3.9 1.93 5.69-.4 1.8-3.12 2.92-5.11 2.72-1.8-.19-3.73-1.78-4.31-3.29-.38-.96-.24-2.12.61-2.73.98-.69.79.39 1.56.51.9.13 1.28-1.88-.79-1.47-1.08.21-1.77 1.15-1.94 2.2-.44 2.79 2.2 4.74 4.66 5.45 3.55 1.02 7.21-.29 9.66-3.07 3.01-3.43 3.33-7.25 1.64-11.38-1.98-4.81-5.98-6.93-10.93-7.52-3.1-.37-6.32-.2-9.33.64-2.29.63-4.48 1.56-6.61 2.61-3.11 1.55-6.05 3.45-8.76 5.52-1.41 1.08-4.74 4.17-4.76 4.19-.15.14.05.15.14.2 2.3-2.18 5.22-4.5 8.13-6.2 3.33-1.96 6.27-3.38 9.99-4.5z"/><path d="m929.76 357.63c.08.36.28.61.72.53 3.22-4.55 7.64-9.82 11.64-12.9 2.27-1.74 6.81-3.98 10.03-2.8 3.31 1.22 3.96 6.18.28 6.57-.85.08-2.67-.12-2.95-2.02-3.56 4.54.76 8.95 3.18 9.57 6.17 1.6 12.55-2.92 13.31-8.68.57-4.36-2.42-9.53-6-11.57-12.19-6.96-25.42 12.81-30.19 21.29z"/><path d="m997.71 320.29c-.13-.34-.11-.66.31-.83 5.2 2.03 11.78 4.01 16.81 4.38 2.85.21 7.88-.42 9.92-3.18 2.1-2.83-.09-7.34-3.37-5.64-.76.4-2.17 1.57-1.36 3.31-5.47-1.84-4.27-7.9-2.6-9.75 4.29-4.72 12.1-4.45 15.89-.06 2.87 3.32 3.22 9.29 1.34 12.96-6.36 12.51-28.28 3.26-36.92-1.21z"/></g><path d="m988.49 330.12c-.17-.15-.37-.27-.61-.39-1.87-.87-4.3-1.18-6.32-1.49-9.57-1.48-19.36.6-27.89 5.05-3.1 1.61-6.16 3.51-8.83 5.76-.6.49-4.18 3.76-3.69 4.01l.02.08c2.33-3.07 9.77-7.61 14.59-9.76 4.04-1.82 7.58-3.02 12.45-3.16 5.11-.15 10.05.52 15.04 1.68 1.3.3 3.03 1.07 4.39.81 1.75-.34 1.8-1.75.86-2.57z"/><path d="m951.91 294.35c4.86-6.92 11.52-13.38 19.83-13.06 8.59.34 8.1 8.92 12.77 11.86 2.75 1.74 8.05 3.08 9.56 6.21 1.52 3.17-1.21 8.02-4.42 10.06-2.9 1.83-7.65 1.73-10.29.17-1.7-1-2.85-2.87-2.3-4.78.63-2.17 1.62-.33 2.91-1.07 1.51-.86-.29-4.31-2.9-1.25-1.35 1.58-1.29 3.79-.31 5.55 2.63 4.67 8.86 4.48 13.34 2.65 6.5-2.66 10.42-8.92 10.79-15.94.45-8.65-3.56-14.73-10.92-18.88-8.6-4.86-17.04-3.31-25.12 1.62-5.05 3.08-9.64 7.13-13.14 11.92-2.65 3.64-4.84 7.59-6.76 11.65-2.83 5.98-4.96 12.25-6.57 18.53-.83 3.26-2.16 11.77-2.17 11.83-.05.39.73.35.92.33.87-5.96 2.23-12.23 4.57-18.21 2.66-6.83 6.01-13.15 10.22-19.2z" fill-rule="evenodd"/><path d="m897.9 386.99c.32.11.55.32.43.72-4.57 2.65-9.93 6.36-13.18 9.86-1.84 2-4.35 6.09-3.51 9.22.86 3.23 5.49 4.27 6.17.83.15-.79.12-2.54-1.65-2.96 4.59-2.97 8.39 1.5 8.77 3.83.96 5.97-3.86 11.6-9.36 11.8-4.16.16-8.79-3.11-10.4-6.66-5.51-12.11 14.3-22.89 22.72-26.65z" fill-rule="evenodd"/><path d="m161.95 452.24c-13.63-11.17-18.46-23.55-17.77-32.84 1.04-13.79 16.92-27.96 29.73-29.79-2.97 2.15-5.73 5.39-7.21 8.73-1.69 3.83-1.94 6.44-1.46 10.71.27 2.3.99 4.53 1.56 6.75 2.08 7.85 1.61 16.65-1.22 24.27l-2.05 5.11c-7.6-6.3-10.65-21.15-8.91-30.1-1.14 1.36-2.11 4.26-2.41 5.39-1.25 4.8-.56 9.43 1.1 15.07 1.7 5.86 5.03 11.46 8.65 16.42v.28z"/><path d="m227.77 364.21c.95 6.04-.16 12.51-3.63 18.06-8.31 13.24-25.74 16.85-40.02 12.67-14.15-4.13-27.02-16.21-32.92-28.43-16.8-34.8-4.58-77.58 6.5-111.74.9-2.76 1.77-5.45 2.61-8.08 7.95-24.85 14.79-50.24 17.49-76.26 1.25-12.03 2.6-24.4.49-36.41-1.68-9.57-7.47-19.03-16.08-23.93-9.61-5.47-21.89-1.31-28.13 7.94-6.05 8.96-5.86 22.5 7.31 27.28 7.92 2.88 16.93-4.75 23.82 1.61 6.05 5.59 3.65 15.05-2.06 19.91-7.16 6.08-17.18 4.65-24.54-.04-33.97-21.67-8.11-73.25 26.9-61.09 22.95 7.97 27.88 41.94 26.33 60.88-2.35 28.73-10.98 56.56-19.68 83.88-.85 2.64-1.73 5.37-2.63 8.15-10.4 32.05-31.09 72.76-14.12 107.91 4.22 8.75 15.27 18.6 24.72 21.58 9.26 2.92 21.8 1.31 28.62-6.18 3.48-3.82 6.05-10.6 5.16-15.94-1.27-7.63-11.03-9.74-8.58-3.99 2.07 4.89-.15 10.98-10.15 10.29-9.22-.63-12.3-11.67-9.85-18.39 2.9-7.96 13.5-10.75 21.82-9.89 11.69 1.22 19.06 10.11 20.64 20.23z"/><path d="m163.57 387.66-.96 1.03c-32.59-32.88-31.38-61.73-27.23-97.77 1.39-12.11 2.84-24.64 3.01-38.06.3-24.11-16.74-46.24-38.01-49.34-9.65-1.41-20.14-.42-27.56 5.35-7.39 5.76-12.72 15.28-13.71 24.79-.57 5.5 1.16 13.03 4.57 17.79 4.37 6.1 11.53 8.07 16.8 8.35 3.23.18 7.94.39 11 2.1 4.09 2.28 4.9 7.79 1.55 10.76-3.91 3.47-11.59 1.07-15.35-.7-4.96-2.32-9.33-5.8-12.78-10.07-6.35-7.85-9.69-18.33-8.64-28.41 1.11-10.79 6.36-20.34 14.77-26.88 8.43-6.58 19.1-9.31 30.03-7.72 23.89 3.48 42.36 27.22 42.02 54.04-.18 13.65-1.63 26.3-3.04 38.54-4.01 34.83-7.48 64.91 23.53 96.19z"/><path d="m137.22 277.79c-.04 6.74-.84 13.16-1.49 19.82-.33 3.44-.84 6.57-1.15 10.19-.7 8.35-.73 16.58-.07 25.03.21 2.76 1.24 13.1 5.14 19.79.53.91-1.15.65-.74.78-2.97-4.88-4.51-12.49-5.25-17.97-1.05-7.69-1.03-14.65-.91-22.31.25-18.84 6.51-40.56-5.44-57.17-2.32-3.24-8.65-8.46-13.43-8.36-5.69.11-7.91 7.64-3.15 9.62 1.1.46 3.62.92 4.75-1.5 2.92 7.48-4.62 11.65-8.1 11.5-8.87-.36-15.2-8.89-14.26-16.94.97-8.3 7.07-11.74 12.66-13.01 11.5-2.63 20.99 6.7 26.12 15.93 4.49 8.07 5.37 16.19 5.32 24.61z" fill-rule="evenodd"/><path d="m150.25 217.72c.29 2.34.43 4.69.39 7.03-.26 19.44-3.16 37.65-5.98 55.26-6.2 38.78-12.01 72.68 14.16 102.5l-.31.29c-26.65-30.37-21.65-63.87-15.38-103.04 1.48-9.28 2.84-18.58 3.85-27.92 2.17-20.2 5.81-42.94-9.45-58.88-2.87-2.99-6.85-5.82-11.09-7.03-1.93-.56-5.02-1.2-4.83 1.41.08 1.11 2.24 1.16 2.88 4.1.96 4.37-2.48 7.28-6.12 7.85-4.38.69-8.73-1.62-9.94-6.21-2.04-7.78 5.26-12.73 11.04-12.48 5.25.22 10.21 2.31 14.33 5.52 8.69 6.74 14.87 18.88 16.45 31.61z"/><path d="m158.14 319.29c1.99-6.89 5.55-13.91 12.3-15.95 6.99-2.11 8.96 4.92 13.52 5.99 2.68.64 7.31.25 9.38 2.35 2.1 2.12 1.25 6.77-.77 9.29-1.82 2.27-5.66 3.5-8.2 2.97-1.63-.34-3.08-1.52-3.17-3.2-.08-1.91 1.21-.71 2.04-1.66.98-1.1-1.42-3.37-2.67-.2-.65 1.64 0 3.4 1.28 4.54 3.4 3.02 8.35 1.15 11.44-1.56 4.48-3.92 5.9-10.03 4.26-15.76-2.03-7.07-6.93-10.84-13.97-12.14-8.24-1.52-14.59 2.05-19.71 8.24-3.2 3.87-5.76 8.38-7.25 13.19-1.14 3.65-1.79 7.43-2.22 11.21-.61 5.58-.59 11.2-.15 16.68.23 2.85 1.51 10.05 1.53 10.09.06.33.68.09.83.02-.94-5.02-1.59-10.43-1.37-15.87.25-6.22 1.19-12.22 2.91-18.23z" fill-rule="evenodd"/><path d="m155.67 353.8c.23.16.47.21.68-.07-.47-4.26-.63-9.54.09-13.35.42-2.15 1.88-5.77 4.33-6.73 2.52-.99 5.43 1.53 3.51 3.63-.45.48-1.6 1.3-2.73.35.27 4.42 5.02 4.75 6.72 3.87 4.35-2.24 5.71-8.09 3.2-11.78-1.9-2.79-6.26-4.23-9.36-3.57-10.55 2.23-8.04 20.35-6.45 27.65z" fill-rule="evenodd"/><path d="m129.37 333.95c2.29-11.29-.38-19.58-4.58-23.99-6.22-6.56-20.14-7.17-27.39-2.81 2.4-.15 5.14.35 7.27 1.44 2.44 1.24 3.65 2.47 5.16 4.83.82 1.27 1.39 2.69 2.02 4.07 2.18 4.84 6.06 9.09 10.65 11.8.31.18 3.17 1.6 3.14 1.74 1.25-6.34-3.34-15.13-7.92-18.95 1.13.23 2.84 1.3 3.45 1.74 2.63 1.91 4.19 4.54 5.68 8.09 1.56 3.68 2.2 7.9 2.39 11.91l.14.13z"/><path d="m196.31 368.58c-12.67 5.96-23.2 5.19-29.61 1.53-9.52-5.44-14.27-21.66-11.2-31.48.51 2.87 1.9 5.96 3.78 8.17 2.16 2.51 3.97 3.58 7.19 4.69 1.74.6 3.58.86 5.37 1.2 6.34 1.19 12.48 4.54 16.98 9.16.31.32 2.8 3.28 2.94 3.21-7.11 3.3-18.78.42-24.6-3.88.6 1.27 2.34 2.97 3.04 3.57 3 2.54 6.57 3.62 11.19 4.36 4.77.77 9.93.31 14.72-.62l.2.11z"/><path d="m140.91 358.12c-25.78-48.69-88.02-43.85-99.96 3.15-7.36 29.12 13.53 46.4 29.6 50.55 16.08 3.97 35.82-6.34 39.97-22.42 3.98-16.07-5.06-30.99-15.42-33.61-18.59-4.72-25.72 9.85-20.74 16.24 2.3 3.27 3.84-.24 4.35-2.03.5-1.78 4.53-4.38 10.41-2.84 5.72 1.53 7.7 8.8 6.38 14.16-1.52 5.52-8.94 9.69-16.64 7.83-7.49-2.04-15.99-10.84-10.51-24.32 4.38-10.75 14.83-15.06 27.5-11.71 12.69 3.17 22.19 19.2 17.72 37.06-4.67 17.86-26.83 30.46-44.18 24.82-48.18-15.67-41.83-75.78 1.58-91.65 34.37-12.57 62.29 13.7 70.37 30.82.66 1.41.05 2.7-.42 3.94z" fill-rule="evenodd"/><path d="m143.88 376.26c-4.27-1.29-9.46-1.48-12.79 1.36-3.45 2.94-.45 6.33-1.42 9.07-.57 1.61-2.33 3.9-1.93 5.69.4 1.8 3.12 2.92 5.11 2.72 1.8-.19 3.73-1.78 4.31-3.29.38-.96.24-2.12-.61-2.73-.98-.69-.79.39-1.56.51-.9.13-1.28-1.88.79-1.47 1.08.21 1.77 1.15 1.94 2.2.44 2.79-2.2 4.74-4.66 5.45-3.55 1.02-7.21-.29-9.66-3.07-3.01-3.43-3.33-7.25-1.64-11.38 1.98-4.81 5.98-6.93 10.93-7.52 3.1-.37 6.32-.2 9.33.64 2.29.63 4.48 1.56 6.61 2.61 3.11 1.55 6.05 3.45 8.76 5.52 1.41 1.08 4.74 4.17 4.76 4.19.15.14-.05.15-.14.2-2.3-2.18-5.22-4.5-8.13-6.2-3.33-1.96-6.27-3.38-9.99-4.5z" fill-rule="evenodd"/><path d="m142.95 360.2c-.08.36-.28.61-.72.53-3.22-4.55-7.64-9.82-11.64-12.9-2.27-1.74-6.81-3.98-10.03-2.8-3.31 1.22-3.96 6.18-.28 6.57.85.08 2.67-.12 2.95-2.02 3.56 4.54-.76 8.95-3.18 9.57-6.17 1.6-12.55-2.92-13.31-8.68-.57-4.36 2.42-9.53 6-11.57 12.19-6.96 25.42 12.81 30.19 21.29z" fill-rule="evenodd"/><path d="m75 322.86c.13-.34.11-.66-.31-.83-5.2 2.03-11.78 4.01-16.81 4.38-2.85.21-7.88-.42-9.92-3.18-2.1-2.83.09-7.34 3.37-5.64.76.4 2.17 1.57 1.36 3.31 5.47-1.84 4.27-7.9 2.6-9.75-4.29-4.72-12.1-4.45-15.89-.06-2.87 3.32-3.22 9.29-1.34 12.96 6.36 12.51 28.28 3.26 36.92-1.21z" fill-rule="evenodd"/><path d="m84.22 332.69c.17-.15.37-.27.61-.39 1.87-.87 4.3-1.18 6.32-1.49 9.57-1.48 19.36.6 27.89 5.05 3.1 1.61 6.16 3.51 8.83 5.76.6.49 4.18 3.76 3.69 4.01l-.02.08c-2.33-3.07-9.77-7.61-14.59-9.76-4.04-1.82-7.58-3.02-12.45-3.16-5.11-.15-10.05.52-15.04 1.68-1.3.3-3.03 1.07-4.39.81-1.75-.34-1.8-1.75-.86-2.57z"/><path d="m120.8 296.92c-4.86-6.92-11.52-13.38-19.83-13.06-8.59.34-8.1 8.92-12.77 11.86-2.75 1.74-8.05 3.08-9.56 6.21-1.52 3.17 1.21 8.02 4.42 10.06 2.9 1.83 7.65 1.73 10.29.17 1.7-1 2.85-2.87 2.3-4.78-.63-2.17-1.62-.33-2.91-1.07-1.51-.86.29-4.31 2.9-1.25 1.35 1.58 1.29 3.79.31 5.55-2.63 4.67-8.86 4.48-13.34 2.65-6.5-2.66-10.42-8.92-10.79-15.94-.45-8.65 3.56-14.73 10.92-18.88 8.6-4.86 17.04-3.31 25.12 1.62 5.05 3.08 9.64 7.13 13.14 11.92 2.65 3.64 4.84 7.59 6.76 11.65 2.83 5.98 4.96 12.25 6.57 18.53.83 3.26 2.16 11.77 2.17 11.83.05.39-.73.35-.92.33-.87-5.96-2.23-12.23-4.57-18.21-2.66-6.83-6.01-13.15-10.22-19.2z" fill-rule="evenodd"/><path d="m174.81 389.56c-.32.11-.55.32-.43.72 4.57 2.65 9.93 6.36 13.18 9.86 1.84 2 4.35 6.09 3.51 9.22-.86 3.23-5.49 4.27-6.17.83-.15-.79-.12-2.54 1.65-2.96-4.59-2.97-8.39 1.5-8.77 3.83-.96 5.97 3.86 11.6 9.36 11.8 4.16.16 8.79-3.11 10.4-6.66 5.51-12.11-14.3-22.89-22.72-26.65z" fill-rule="evenodd"/></g><g fill="#be801e"><path d="m989.96 337c-7.03-28.26-32.83-50.68-60.03-53.58-13.88-1.48-25.52 2.4-29.19 3.66-4.5 1.55-18.61 6.59-30.2 19.59-4.17 4.68-14.26 17.38-22.49 26.92-1.28 1.48-4.85 5.51-9.86 5.81-.91.06-2.62.16-4.04-.76-.76-.49-3.87-2.84-2.27-13.77 6.03-41.41 36.77-82.77 36.77-82.77 3.59-4.84 8.76-11.52 15.42-19.21-7.62.29-15.25.59-22.87.88-2.22 3.62-4.42 7.49-6.57 11.63-.93 1.79-1.82 3.56-2.65 5.31-.25-1.83-1.05-5.76-4.04-9.6-.91-1.16-4.36-5.33-10.36-6.95-4.41-1.19-7.85-.36-13.52 1.01-2.26.55-7.57 1.99-14.28 5.69-6.18 3.41-10.35 6.97-12.51 8.85-15.93 13.85-24.22 21.07-34.37 33.74-7.94 9.91-14.14 20.3-26.54 41.07-6.44 10.8-17.16 29.33-28.85 31.36-1.41.24-5.28.92-8.18-1.28-.9-.68-3.26-2.82-3.54-9.73-.38-9.53 3.66-16.98 4.04-17.69 11.74-21.68 25.44-60.73 36.9-93.39.92-2.63 1.64-4.75 2.03-5.91 1.35-.02 3.37-.09 5.8-.29 12.66-1.05 21.74-4.58 25.15-5.81 6.93-2.5 17.48-3.7 38.54-6.19 25.3-2.99 29.53-1.43 32.6 1.01 3.4 2.7 6.53 7.4 12.13 7.58.77.03 4.62.15 6.82-2.53 1.83-2.22 1.52-5.14 1.39-6.44-.09-.92-.36-3.21-2.27-5.81-3.46-4.71-8.53-6.65-10.11-7.2-18.11-6.37-52.1 2.2-54.34 2.78-7.75 2-11.62 3.01-16.05 4.68-11.19 4.22-17.36 8.67-28.56 9.6-2.47.21-4.51.19-5.81.14.56-2.45 1.37-5.22 2.56-8.17 2.05-5.07 4.57-9.09 6.79-12.06.51-2.32 1.01-4.63 1.52-6.95-10.4.13-20.81.25-31.21.38-.08 1.81-.17 3.62-.25 5.43.75-.17 3.48-.73 4.55.63.79 1 .3 2.59.04 3.39-2.03 6.31-7.25 19.76-7.51 20.43-3.85.6-9.38 1.23-16.03 1.2-8.67-.04-16.82-.07-26.41-3.92-7.63-3.06-16.13-6.47-19.97-14.28-.97-1.97-2.46-5.89-3.79-5.69-.92.14-1.39 2.21-1.64 4.04.46 2.53 1.5 6.34 4.04 10.24 4.09 6.27 9.67 9.07 13.9 11.12 8.39 4.08 15.69 4.74 24.39 5.43 5.57.45 13.33.67 22.62-.38-12.04 30.87-21.05 54.34-29.2 76.15-1.27 2.46-17.95 34.62-31 47.66-5.11 5.1-9.37 6.97-12.98 7.7-2.71.54-7.32 1.47-11.36-.83-2.12-1.21-3.18-2.79-6.32-3.92-2.06-.74-3.91-.88-5.18-.88 1.28-1.1 3.03-2.64 5.05-4.55 5.07-3.65 10.45-8.04 15.84-13.31 14.63-14.31 23.55-29.47 28.98-41.11 8.34-16.14 11.89-29.53 13.56-38.33 1.39-7.31 1.78-12.98-1.52-17.44-3.96-5.36-11.33-6.47-13.65-6.82-4.66-.7-8.27.08-12.38 1.01-4.48 1.01-9.65 2.73-16.43 6.32-12.13 6.42-20.38 14.06-27.9 21.12-3.81 3.58-6.81 6.67-8.76 8.75 2.11-9.03 4.22-18.06 6.34-27.09 1.94-.08 3.88-.17 5.81-.25.11-1.85.22-3.71.34-5.56-10.9-.11-21.79-.22-32.69-.34v5.14c3.26.32 6.51.63 9.77.95-.61 2.14-1.21 4.29-1.82 6.43-5.73 18.37-11.46 36.73-17.18 55.1-1.55 1.41-3.87 3.5-6.7 6.01-14.76 13.04-24.92 21.94-38.4 30.21-12.38 7.6-19.8 9.89-26.54 10.73-11.07 1.37-15.03-1.85-16.1-2.82-3.36-3.05-4.1-7.44-4.8-11.58-.72-4.26-.3-8.26.56-16.1.44-3.94.91-7.2 1.27-9.44 3.1.06 6.2.12 9.29.18 0 0 2.96.44 13.48-1.01 11.47-1.59 46.79-17.18 59.98-49.54 4.51-11.06 3.29-16.37 1.63-19.5-3.49-6.59-11.53-8.53-14.1-9.14-8.56-2.06-15.79.68-20.89 2.7-8.47 3.35-14.5 8.17-21.13 14.45-16.38 15.53-26.23 30.35-27.88 32.86-10.35 15.77-7.59 16.07-21.71 39.34-5.21 8.59-13.36 21.35-28.03 29.94-8.9 5.21-12.02 4.09-13.27 3.19-2.83-2.06-2.26-7.56-1.55-14.3.67-6.42 2.14-11.61 3.37-15.16 6.38-17.86 13.22-36.07 20.56-54.59 13.81-34.86 28.2-67.78 42.8-98.74 1.66-2.73 3.33-5.46 4.99-8.19 1.92.26 4.88.66 8.49 1.12 27.98 3.54 41.97 5.31 54.25 4.38 12.08-.92 26.73-2.22 39.43-12.81 3.38-2.82 5.81-5.62 7.39-7.65 2.84.35 7.05.83 12.15 1.24 19.84 1.59 37.01 2.93 56.28-2.36 10.21-2.8 23.23-6.55 34.46-18.11 7.53-7.76 11.11-15.8 13.14-20.47 1.58-3.62 7.34-17.63 6.32-36.65-.46-8.56-1.29-24.05-11.37-38.16-9.57-13.38-32.14-32.14-56.11-24.26-17.39 5.71-27.46 22.8-29.82 36.9-.63 3.77-2.07 13.09 2.61 22.91 1.1 2.31 7.99 16.08 20.81 17.44 1.62.17 8.4.89 13.73-3.71 3.84-3.31 4.86-7.59 5.12-8.77.35-1.57 1.34-6.01-1.08-9.6-.34-.5-2.14-3.17-4.21-2.86-1.4.21-2.25 1.69-2.44 2.02-1 1.75-.18 2.83-.76 4.97-.48 1.77-1.7 3.47-3.2 4.38-2.4 1.46-5.19.73-6.91.25-6.18-1.71-9.72-6.78-10.28-7.58-6.9-9.88-3.9-29.25 7.83-40.69 1.92-1.87 9.93-9.44 21.9-9.83 15.9-.52 26.63 12.11 31.36 17.69 8.49 10 11.14 20.33 12.81 27.12 5.04 20.57-.02 36.99-1.11 40.34-2.63 8.09-6.27 14.24-9.08 18.32 4.19-10.41 2.92-21.71-3.55-29.44-.55-.65-11.06-12.83-22.93-8.63-9.21 3.26-14.76 14.82-11.7 22.78 1.76 4.58 6.88 9.28 11.63 8.59 2.2-.32 4.5-1.81 5.81-3.79.27-.4 1.09-1.89 1.01-3.79-.03-.63-.09-1.67-.84-2.36-.19-.17-.71-.64-1.35-.51-.58.12-.87.65-.93.76-.12.41-.45 1.35-1.35 2.11-1.02.87-2.15.97-2.61 1.01-2.34.19-4.11-1.38-4.55-1.77-2.65-2.38-2.71-5.98-2.72-6.88-.08-5.24 3.83-11.04 9.29-12.83 8.08-2.65 16.88 4.36 19.25 11.32.65 1.91.74 3.42.72 5.72-.06 9.21-4.41 16.57-5.31 18.08-8.23 13.91-25.46 20.46-28.26 21.49-14.93 5.48-28.68 4.3-46.55 2.77-5.57-.48-10.18-1.13-13.34-1.63.32-1.79.65-4.37.54-7.47-.08-2.3-.44-9.71-5.05-16.85-4.2-6.51-9.85-9.56-13.48-11.46-16.19-8.48-33.82-4.92-43.13-3.03-5.01 1.01-9.08 2.27-11.86 3.23-3.48-2.29-8.34-5.19-14.43-7.95-4.56-2.07-12.56-5.64-23.25-7.41-9.27-1.54-15.53-2.58-23.25-.34-10.45 3.03-21.76 11.52-23.9 22.63-.55 2.85-.39 5.36-.29 7.02.1 1.65.72 9.87 6.33 18.21 4.92 7.32 11.14 10.92 17.86 14.83 4.16 2.42 7.84 4.03 10.45 5.05-1.07 2.42-2.15 4.84-3.22 7.26-11.95 26.98-18.67 34.93-33.28 62.4-8.99 16.91-17.44 32.93-23.55 50.46-.83 2.38-2.86 8.35-6.21 17.79-7.07 19.9-7.04 18.61-9.24 25.57 0 0-7.38 25.76-4.57 40.46.82 4.28 3.49 7.2 3.49 7.2s2.66 3.24 6.49 4.87c8.17 3.47 17.95-2.41 21.23-4.38 1.5-.9 4.81-3.02 17.52-16.85 3.74-4.07 6.76-7.48 8.76-9.77-.1 1.64-.09 4 .5 6.75.32 1.52 1.11 5.19 3.71 8.71 2.13 2.89 5.06 5.16 8.79 6.9 11.86 5.55 33.57-2.62 37.27-4.04 19.39-7.45 33.39-18.23 44.99-27.3 4.94-3.86 8.9-7.24 11.58-9.6-1.01 2.67-2.38 6.25-4.05 10.48-.66 1.66-1.51 3.82-2.58 6.44-3.92 9.59-5.16 11.68-7.29 17.59-.62 1.73-1.51 4.33-2.46 7.56 6.49-.19 12.99-.38 19.48-.56.79-2.16 1.96-5.39 3.39-9.32 8.13-22.42 10.5-29.31 13.55-37.56 2.97-8.02 7.36-19.44 13.27-33.32 3.1-2.96 9.13-8.7 16.94-16.1 9.53-9.01 14.45-13.59 22.31-16.94 4.32-1.84 11.25-4.8 15.25-1.69 3.13 2.44 3.69 8.01 3.99 10.98.33 3.22.01 5.72-.09 6.5-6.84 50.59-37.36 77.48-37.36 77.48-1.5 1.32-3.67 3.15-6.45 5.18-4.37-.57-7.98-.58-10.51-.48-5.29.21-9.33.41-13.65 2.78-4.23 2.32-5.69 5.05-6.07 5.81-.37.75-1.09 2.26-1.01 4.3.03.64.09 2.22 1.01 3.54 1.29 1.84 3.57 2.2 5.81 2.53 5.68.82 10.21-.82 11.37-1.26 1.79-.69 4.47-1.73 7.08-4.3 2.51-2.47 3.72-5.13 4.3-6.7 1.01.19 2.54.54 4.3 1.26 4.65 1.91 7.26 4.9 8.59 6.19 6.09 5.92 17.02 7.11 24.52 5.56 6.98-1.45 12.03-5.49 12.89-6.19 1.89-1.54 3.94-3.64 6.32-6.07 2.25-2.29 4.05-4.27 5.31-5.69-.22 1.59-.43 4.61.76 8.09 1.68 4.91 5.08 7.62 6.44 8.59 3.88 2.76 7.8 3.11 9.98 3.29 10.14.8 18.24-4.86 20.98-6.82 6.14-4.42 6.38-7.03 16.05-15.42 2.67-2.32 4.99-4.03 6.44-5.05-.29 1.64-.55 4.2 0 7.2.09.51 2.07 10.4 10.49 14.41 6.22 2.96 12.32.96 17.94-.88 7.16-2.35 11.56-5.95 20.35-13.14 9.71-7.95 14.58-13.9 17.44-17.82.41-.56 1.82-2.49 3.2-4.65s0-.01.01-.02c.26-.4.51-.81.76-1.21.7-1.07 1.56-2.23 2.62-3.41 1.18-1.31 2.34-2.37 3.39-3.21-.41 1.5-1 3.73-1.64 6.44-3.54 15.05-5.26 22.73-2.53 30.45.91 2.56 2.93 8.29 8.34 10.87 5.75 2.74 11.94.31 15.16-1.01 6.02-2.46 10.03-6.21 19.21-17.69 6.43-8.04 12.87-16.73 22.37-28.05 4.48-5.35 8.4-9.8 15.04-11.75 5.68-1.67 10.57-.69 12.64-.25 2.75.58 12.19 2.58 16.18 10.61 1.61 3.24 1.7 6.19 1.77 8.47.07 2.14.18 8.68-4.12 14.03-.96 1.2-2.55 3.13-5.36 4.16-.44.16-2.25.8-4.68.63-1.21-.08-5.88-.4-8.47-4.3-2.06-3.1-1.43-6.43-1.26-7.33.21-1.1.54-2.75 1.9-3.54.22-.13 1.1-.64 2.02-.38 1.14.33 1.34 1.57 2.02 1.52.57-.04 1.09-.96 1.14-1.77.09-1.54-1.55-2.91-2.91-3.41-2.88-1.06-5.68 1.39-5.81 1.52-.74.9-3.93 4.98-3.54 10.87.32 4.84 2.86 8.04 3.79 9.1 3.95 4.51 9.25 5.19 11.25 5.31 4.65.28 8.09-1.53 9.48-2.27 8.05-4.34 10.58-13.08 11.37-15.8.31-1.07 4.08-14.84-3.79-25.53-3.68-4.99-8.78-7.78-9.35-8.09-2.07-1.11-3.94-1.77-5.32-2.17 1.89-.68 4.66-1.55 8.1-2.13 9.78-1.66 17.58.24 21.1 1.14 6.99 1.78 11.83 4.46 12.89 5.05 3.6 2.03 8.73 5.54 14.91 12.89 7.7 9.16 16.38 19.5 18.36 35.63.74 6.03 1.88 23.83-9.76 38.3-2.59 3.22-7.82 9.54-17.06 12.51-2.03.65-14.19 4.33-25.53-2.4-2.59-1.54-8.17-4.85-10.49-11.5-3.34-9.55 1.64-21.42 7.08-22.49 2.98-.59 5.3 2.21 7.46.76 1.75-1.18 2.17-4.34 1.26-6.57-.81-2-2.54-2.92-4.17-3.79-.54-.29-2.77-1.43-5.94-1.52-.34 0-3.38-.06-6.57 1.39-5.55 2.54-8.11 8.09-9.1 10.24-4.35 9.45-4.22 27.23 7.58 39.17 12.26 12.41 29.21 10.53 32.35 10.11 10.99-1.48 18.26-7.35 21.99-10.36 9.95-8.04 14.21-17.57 16.18-22.11 8.7-20.1 4.41-38.97 3.41-42.97zm-500.71-50.23c7.39-16 15.77-31.41 29.09-43.5 5.99-5.44 12.62-9.7 20.6-11.38 8.32-1.75 14.44 3.9 13.39 12.15-2.73 21.66-35.14 50.58-57.31 51.15-8.48.22-9.34-.7-5.78-8.42zm58.68-181.48c1.64-.72 5.95-2.4 14.97-1.69 8.2.64 12.3.96 16.51 3.78 4.75 3.19 9.99 9.56 9.41 16.86-.18 2.22-.85 4.01-1.42 5.22-2.01-.6-5.16-1.59-8.97-2.99-11.58-4.25-20.26-8.97-26.54-12.42-2.27-1.24-5.52-3.08-9.39-5.42 1.21-.98 3.02-2.27 5.43-3.33zm-13.05 7.41c1.64 1.21 4.08 2.98 7.12 5.01 7.54 5.05 15.65 10.42 26.54 14.4 3.4 1.24 8.28 2.8 14.4 3.95-1.52 2.27-3.95 5.37-7.62 8.19-8.23 6.32-17.64 7.34-30.21 7.34-11.62 0-27.63-.85-46.88-4.52 1.17-2 3.05-5.01 5.65-8.47 8.47-11.27 17.45-17.72 20.9-20.05 2.31-1.56 5.72-3.7 10.11-5.86zm-58.68 25.35c-7.75-5.14-12.25-8.12-14.97-13.27-4.14-7.84-3.7-19.83 3.11-26.83 4.74-4.87 10.89-5.58 16.38-6.21 14.02-1.62 25.82 4.46 33.6 8.47 3.86 1.99 6.92 3.93 9.04 5.37-3.35 1.87-8.26 4.98-13.32 9.82-3.87 3.7-5.87 6.54-10.4 12.21-3.09 3.88-7.66 9.45-13.56 16.09-2.45-1.19-5.94-3.02-9.88-5.64zm125.39 216.73c-1.17.69-3.55 1.84-6.53 1.67-1.29-.07-3.39-.18-4.04-1.52-.76-1.54.95-3.65 1.26-4.04 1.99-2.45 5.13-2.73 6.07-2.78h8.85c-.53 1.33-2.06 4.58-5.6 6.67zm202.93-38.36v.23c-9.65 13.05-20.03 18.87-26.07 21.52-5.47 2.4-12.12 5.14-17 2.18-5.62-3.4-5.75-9.91-5.31-15.64 1.16-14.76 7.58-27.73 15.18-40.08 9.63-15.64 21.72-29.32 34.9-42.05 7.13-6.89 15.45-11.55 25.54-11.87 10.28-.33 16.11 6.71 12.96 16.47-8.36 25.91-20.75 49.64-40.19 69.24z"/><path d="m87.82 198.83c-3.01 6.81-6.84 17.34-8.42 30.67-1.34 11.29-3.85 33.38 8.76 55.27 3.44 5.97 14.93 25.9 38.75 31.68 3.86.94 25.04 6.07 42.81-7.16 20.05-14.94 21.93-42.98 15.83-57.21-.96-2.23-3.58-8.34-9.95-12.66-2.57-1.74-7.69-5.22-13.98-3.85-3.35.73-8.27 3.11-9.77 7.41-1.32 3.79.97 6.3-1.01 8.76-1.51 1.88-4.63 2.67-7.08 1.68-2.93-1.17-3.72-4.41-4.04-5.73-.17-.68-.6-2.78.54-6.88 1.03-3.71 2.84-7.66 5.02-9.95 8.89-9.33 22.99-9.89 33.48-2.01 16.83 12.64 21.25 29.75 17.68 49.38-4.19 23.03-17.55 39.17-39.93 46.03-23.41 7.18-44.72.77-62.02-15.88-21.89-21.07-30.43-47.7-26.48-77.64 3.66-27.73 15.86-46.7 20.94-54.01 7.38-10.61 23.57-33.9 52.09-41.05 4.78-1.2 8.86-1.68 11.63-1.9 1.04-3.13 2.83-7.84 5.81-13.14 7.86-13.98 18.3-21.99 26.03-27.8 9.83-7.39 18.51-11.61 22.11-13.27 28.59-13.15 56.19-11.24 70.26-10.11 15.43 1.24 37.6 3.27 61.29 17.19 12.17 7.15 28.19 16.56 36.9 36.02 8.47 18.9 5.23 36.55 3.03 48.53-5.3 28.89-21.37 47.92-29.7 56.36-13.49 13.67-27.18 20.32-31.97 22.49-33 14.97-65.39 8.6-76.96 6.32-2.34-.46-4.27-.9-5.55-1.21-.51 1.5-1.02 3-1.53 4.49-2.71 10.14-5.59 18.19-7.71 23.63-4.67 11.99-9.43 25.73-18.96 53.2-.89 2.58-2.35 6.96-.25 10.36 3.38 5.48 13.65 4.61 16.47 4.3v5.73c-9.44-.16-19.02-.23-28.74-.23-8.85 0-17.58.08-26.19.23v-5.73c2.34.47 6.05.84 9.75-.78 5.75-2.51 8.25-8.4 9.46-11.35 4.19-10.25 14.45-37.27 27.34-73.88 24.19-64.35 41.74-110.77 45.54-119.4.6-1.37 2.65-5.85.71-8.54-1.63-2.27-5.41-2.34-8.23-2.06.56-1.24 1.12-2.47 1.68-3.71 8.67-1.34 21.99-4.91 33.15-15.45 1.76-1.66 3.33-3.37 4.72-5.07 2.4-.59 4.8-1.18 7.2-1.77-2.89 5.96-5.12 10.66-6.32 13.18-20.73 43.73-35.69 79.94-46.84 107.16-.81 1.98-1.62 3.95-2.43 5.93 6.71 1.11 16.41 2.17 28.04 1.48 9.85-.59 25.05-1.64 41.45-9.98 6.43-3.27 19.71-10.22 29.7-24.64 14.13-20.41 19.3-52.36 4.42-75.44-7.73-12-18.14-17.36-30.58-23.76-26.93-13.86-52.56-13.27-69.12-12.89-12.08.28-22.88.61-36.39 5.31-5.22 1.81-22.02 8.16-36.14 23.25-1.68 1.79-6.77 7.4-10.74 16.05-5.16 11.23-3.54 16.93-3.03 18.45.46 1.38 1.4 4.07 4.04 5.81 2.09 1.38 4.29 1.53 5.31 1.52 6.34-.08 12.98-6.98 12.07-12.41-.32-1.93-1.7-4.26-3.86-5.03-.25-.09-2.54-.87-4.04.38-.14.12-.98.81-1.14 1.9-.13.92.34 1.37 0 2.02-.26.51-.84.8-1.35.84-.98.08-1.65-.76-1.81-.97-.87-1.09-.62-2.52-.51-3.16.27-1.57 1.14-2.6 1.52-3.03 2.08-2.4 5.1-2.74 5.56-2.78 4.63-.45 7.99 3.23 8.59 3.92 4.12 4.73 2.7 11.1 2.49 12.09-1.48 6.67-7.02 9.96-8.42 10.78-5.08 2.98-12.55 4.17-18.45.63-2.16-1.29-3.58-2.9-4.42-4.04.05 1.39.18 3.41.51 5.81.77 5.69 2.46 18.18 11.12 27.8 2.32 2.57 12.39 13.75 26.79 12.51 17.36-1.5 25.72-19.74 26.76-22.58 2.08-5.69 1.55-10.08 1.59-11.4.19-7.75-5.73-16.22-12.93-18.23-1.17-.33-4.68-1.31-7.61.56-2.2 1.4-3.04 3.76-3.41 4.81-1.02 2.89-.58 5.43-.32 6.54-.03.26-.29 2.26-1.77 2.98-1.88.9-4.12-1.12-4.38-1.35-3.35-3.01-2.17-8.91-1.98-9.86.2-1.02 1.23-5.53 5.43-8.59 2.87-2.09 5.78-2.45 7.58-2.65 10.3-1.15 18.31 5.85 18.83 6.32 7.03 6.33 8.13 14.82 8.47 17.44 2.06 15.91-8.4 36.57-27.04 42.59-20.99 6.78-41.63-8.45-49.41-22.11-8.11-14.24-6.78-34.46-6.19-43.47.16-2.44.38-4.44.54-5.79-3.36.89-6.05 1.83-7.87 2.51-5.53 2.07-19.16 7.35-29.57 19.92-10.1 11.08-12.45 16.78-13.14 18.54-2.84 7.27-3.03 13.36-3.03 15.5-.02 4.83-.03 10.67 3.37 16.18 3.57 5.77 12.42 13.65 22.36 10.75 10.44-3.04 14.47-15.72 12.55-23.18-.38-1.47-1.3-5.45-4.33-6.64-.88-.34-2.71-.76-4.52.06-.41.18-1.34.6-2.01 1.57-.88 1.27-.39 2.14-1.14 2.78-.9.76-2.82.54-3.79-.51-.79-.86-.72-2.03-.63-3.41 0-.12.11-1.52.63-2.78 1.12-2.69 4.26-4.89 7.16-5.6 6.09-1.48 11.58 3.52 12.13 4.04 7.33 7.01 7.89 22.24.34 32.01-6.98 9.04-18.04 9.71-19.55 9.77-8.54.38-14.62-3.56-16.85-5.05-1.81-1.21-9.17-6.42-12.13-16.51-1.81-6.15-1.19-11.41-.67-14.15z"/><path d="m323.35 415.91c-3.85-.05-7.06 2.07-10.44 3.64-19.84 9.23-39.24 19.53-59.96 26.7-19.56 6.77-39.71 7.4-59.74 2.28-16.59-4.25-23.82-18.97-16.71-32.52 3.18-6.06 9.71-8.86 15.02-6.39 3.02 1.41 5.15 3.61 5.42 7.08 1.55 19.55 12.37 28.53 31.89 26.7 21.06-1.98 39.92-10.48 58.49-19.67 25.65-12.7 50.8-26.36 78.37-34.84 28.74-8.84 57.88-11.24 87.78-8.8 30.81 2.51 59.68 12.55 89.06 20.85 22.75 6.42 46.03 10.14 69.66 11.56 35.63 2.16 70.58-1.47 105.08-10.86 19.94-5.43 39.18-12.93 59.01-18.52 30.54-8.61 61.44-14.69 93.22-6.83 16.49 4.08 27.04 17 26.38 31.69-.33 7.26-4.07 10.83-10.29 9.9-2.96-.44-4.93-1.9-5.34-4.96s1.23-4.39 4.12-4.66c3.74-.36 3.62-3.25 3.69-5.93.24-8.73-6.72-17.76-15.91-21.15-14.56-5.37-29.45-3.95-44.29-2.26-29.39 3.33-57.3 12.44-85.02 22.25-38.27 13.54-77.59 20.97-118.3 18.8-36.32-1.94-72.25-7.08-108.16-13-36.46-6.02-73.27-8.54-109.76.66-16.69 4.21-31.64 11.69-42.35 25.8-3.28 4.33-6.59 8.54-3.83 15.02 1.62 3.81-1.12 7.67-5.3 8.93-4.33 1.31-10.36-4.08-10.92-9.28-1.34-12.45 4.61-21.88 12.96-30.05 15.53-15.21 35.28-21.06 56.02-24.26 7.59-1.17 15.33-1.42 23-2.01 3.05-.23 6.09-.38 10.33-2.39-27.84-3.02-53.32-1.08-77.51 10.76-30.54 14.96-58.81 33.74-87.63 51.6-34.7 21.51-71.6 31.63-112.36 20.7-4.94-1.33-9.36-3.73-14.01-5.68-1.96-.82-3.49-2.1-2.72-4.38 1.08-3.22 3.48-1.71 5.4-1.04 12.28 4.29 24.56 7.89 37.71 9.27 27.26 2.86 51.44-5 74.18-18.86 17.66-10.77 35.08-21.94 52.6-32.94.81-.51 1.62-1.1 1.16-2.93z"/><path d="m298.8 328.27c1.26-29.1 15.32-50.36 22.49-60.93 0 0 13.44-19.8 31.83-32.02 2.76-1.84 5.58-3.28 5.58-3.28 8.4-4.33 15.68-5.42 17.86-5.71 5.78-.76 10.47-1.51 15.9.47 8.88 3.24 13.06 11.19 14.11 13.19 1.79 3.4 4.47 10.09 2.4 25.23-1.22 8.96-3.95 19.75-11.46 35.05-7.48 15.24-16.23 32.6-34.71 47.18-6 4.73-12.93 10.08-23.59 12.81-4.07 1.04-23.83 6.08-34.37-4.38-6.79-6.74-6.51-16.68-6.03-27.6zm91.63-65.23c-.08-1.83-.03-5.22-.41-8.56-.32-2.82-2.66-13.33-10.94-17.02-6.19-2.76-12.58-.24-16.96 1.48-3.22 1.27-7.46 3.5-14.15 10.11-4.32 4.26-10.97 10.94-16.97 22.36-1.57 2.98-14.42 28.27-8.64 57.17 2.15 10.77 5.4 14.6 8.76 16.51 6.68 3.8 15.28.88 15.86.68 3.29-1.16 5.97-3.13 8.6-5.03 2.16-1.57 4.21-3.31 6.14-5.23 19.67-19.57 28.6-43.45 28.71-72.47z"/><path d="m147.95 488.45c-.22 6.39-.82 13.82-4.29 21.8-1.51 3.49-3.06 5.9-5.67 6.84-2.78 1-5.68.12-8.52-1.27-3.22-1.58-6.65-3.18-9.21-5.6-5.76-5.44-12-9.98-18.79-14.12-9.35-5.71-8.61-24.11-1.76-29.75 5.51-4.53 16.64-2.65 18.42 1.56.87 2.05-1.11 3.16-1.97 7.91-1.28 7.14 1.64 13.2 3.25 16.52 1.87 3.87 5.7 9.96 7.56 9.32 1.99-.69 1.03-8.85.78-11-.52-4.44-.91-8.89-1.5-13.32-.15-1.11-.34-3.14.78-4.4.72-.81 1.9-1.24 3.65-1.27 1.16-.02 2.02-.17 2.16-.16 4.09.04 9.75-5.03 12.59-4.1 3.2 1.05 2.9 9.69 2.51 21.04z"/><path d="m74.77 434.61c1.43.03 3.5.13 5.97.45.57.07 5.42.7 7.58 1.52 7.39 2.81 12.32 18.96 6.57 24.77-2.56 2.59-6.53 2.39-10.5 2.19-12.24-.62-21.08-7.2-29.71-16.55-8.92-9.66-8.31-9.81-.78-20.53 3.5-4.98 7.55-9.27 11.91-13.38 6.3-5.93 13.77-6.53 21.55-4.31 7.13 2.03 8.88 7.98 4.61 14.07-4.2 5.99-9.56 10.42-17.21 11.78z"/><path d="m111.77 391.92c-1.39 3.46 3.22 9.5-4.15 11.55-4.99 1.38-9.61 1.1-13.23-2.98-3.81-4.28-5.02-14.07-1.59-18.35 5.44-6.8 10.15-14.02 14.49-21.51.77-1.32 1.55-1.98 2.38-2.16 1.53-.33 2.98.85 3.47 1.23 6.65 5.23 19.15 5.54 27.25 17.75 5.04 7.6 5.43 15.35 5.56 18.7.26 6.97-1.38 15-3.54 15.16-1.61.12-1.46-4.28-5.39-7.87-5.69-5.2-12.16-1.57-15.84-6.28-1.47-1.89-1.78-5.03-2.4-11.32-.42-4.28-.31-8.33-2.53-9.31-.14-.06-.68-.3-1.22-.19-3.01.63-3.25 11.39-3.26 15.59z"/><path d="m138.79 426.86 9.18-.9c1.2 5.79.93 10.56.51 13.65-.44 3.21-1.81 12.4-8.86 19.48-1.67 1.67-3.24 3.22-5.85 4.15-6.14 2.18-12.04-1.28-13.79-2.06-7.26-3.23-6.46-8.89-5.19-14.57 2.82-12.64 11.28-19.62 24-19.75z"/><path d="m53.95 455.78c-5.82-2.19-13.37-4.28-21.72-4.59-4.34-.16-7.94.19-11.59 1.85-1.49.68-3.78 2.04-6.04 4.33-3.32 3.35-5.19 7.1-2.14 11.58 1.94 2.84 3.41 5.68-.32 7.99-3.86 2.39-6.94.54-9.33-2.65-5.19-6.9-3.02-20.36 5.14-24.18 3.6-1.68 7.27-2.85 10.99-3.53 5.19-.95 15.53-2.61 26.1 2.73 2.54 1.28 5.71 3.29 8.91 6.47z"/><path d="m95.57 425.88c-.19-6.42 3.66-10.33 10.02-10.43 3-.05 3.26-.07 4.73-.71 3.13-1.36 3-4.06 5.3-5.97 4-3.34 11.92-1.42 16.68 2.02 3.28 2.37 6.63 6.61 5.56 8.59-.85 1.58-3.87.55-8.54 1.62-4.28.98-7.5 3.14-9.65 4.95.09-.31.99-3.8-1.31-6.39-.35-.39-1.74-1.96-3.61-1.94-3.22.03-5.37 4.72-6.33 6.83-.36.8-1.78 4.01-2.07 9.92-.14 2.87-.06 7.16 1.19 12.31-1.89-1.54-4.17-3.74-6.27-6.74-3.81-5.44-5.16-10.82-5.7-14.06z"/><path d="m709.42 433.77c2.19-.44 5.31-.69 8.3-.69 4.62 0 7.6.84 9.69 2.7 1.69 1.47 2.63 3.74 2.63 6.29 0 4.38-2.78 7.28-6.31 8.46v.15c2.58.89 4.12 3.25 4.92 6.69 1.09 4.62 1.89 7.82 2.58 9.1h-4.47c-.55-.93-1.29-3.79-2.24-7.92-.99-4.57-2.78-6.29-6.71-6.44h-4.07v14.36h-4.32zm4.33 15.1h4.42c4.62 0 7.55-2.51 7.55-6.29 0-4.28-3.13-6.15-7.7-6.19-2.09 0-3.58.2-4.27.39v12.1z"/><path d="m738.63 455.36c.1 5.85 3.87 8.26 8.25 8.26 3.13 0 5.02-.54 6.66-1.23l.74 3.1c-1.54.69-4.17 1.47-8 1.47-7.4 0-11.82-4.82-11.82-12s4.27-12.83 11.28-12.83c7.85 0 9.93 6.83 9.93 11.21 0 .89-.1 1.57-.15 2.02zm12.81-3.1c.05-2.75-1.14-7.03-6.06-7.03-4.42 0-6.36 4.03-6.71 7.03z"/><path d="m760.48 462.05c1.29.84 3.58 1.72 5.76 1.72 3.18 0 4.67-1.57 4.67-3.54 0-2.06-1.24-3.2-4.47-4.38-4.32-1.53-6.36-3.89-6.36-6.74 0-3.83 3.13-6.98 8.3-6.98 2.43 0 4.57.69 5.91 1.47l-1.09 3.15c-.94-.59-2.68-1.38-4.92-1.38-2.58 0-4.02 1.48-4.02 3.25 0 1.97 1.44 2.85 4.57 4.03 4.17 1.57 6.31 3.64 6.31 7.18 0 4.18-3.28 7.13-8.99 7.13-2.63 0-5.07-.64-6.76-1.62z"/><path d="m786 435.84v6.83h6.26v3.29h-6.26v12.83c0 2.95.84 4.62 3.28 4.62 1.14 0 1.99-.15 2.53-.3l.2 3.24c-.84.34-2.19.59-3.88.59-2.04 0-3.68-.64-4.72-1.82-1.24-1.28-1.69-3.39-1.69-6.19v-12.98h-3.73v-3.29h3.73v-5.7l4.27-1.13z"/><path d="m810.49 466.47-.35-3h-.15c-1.34 1.87-3.92 3.54-7.35 3.54-4.87 0-7.35-3.39-7.35-6.83 0-5.75 5.17-8.9 14.46-8.85v-.49c0-1.97-.55-5.51-5.46-5.51-2.24 0-4.57.69-6.26 1.77l-.99-2.85c1.99-1.28 4.87-2.11 7.9-2.11 7.35 0 9.14 4.97 9.14 9.74v8.9c0 2.06.1 4.08.4 5.7h-3.97zm-.65-12.14c-4.77-.1-10.18.74-10.18 5.36 0 2.8 1.89 4.13 4.12 4.13 3.13 0 5.12-1.97 5.81-3.98.15-.44.25-.93.25-1.38z"/><path d="m841.23 459.98c0 2.46.05 4.62.2 6.49h-3.88l-.25-3.88h-.1c-1.14 1.92-3.67 4.42-7.95 4.42-3.78 0-8.3-2.06-8.3-10.42v-13.91h4.37v13.18c0 4.52 1.39 7.57 5.37 7.57 2.93 0 4.97-2.02 5.76-3.93.25-.64.4-1.43.4-2.21v-14.6h4.37v17.31z"/><path d="m848.48 450.1c0-2.8-.05-5.21-.2-7.42h3.82l.15 4.67h.2c1.09-3.2 3.73-5.21 6.66-5.21.5 0 .84.05 1.24.15v4.08c-.45-.1-.89-.15-1.49-.15-3.08 0-5.27 2.31-5.86 5.56-.1.59-.2 1.28-.2 2.02v12.69h-4.32v-16.37z"/><path d="m877.78 466.47-.35-3h-.15c-1.34 1.87-3.92 3.54-7.35 3.54-4.87 0-7.35-3.39-7.35-6.83 0-5.75 5.17-8.9 14.46-8.85v-.49c0-1.97-.55-5.51-5.46-5.51-2.24 0-4.57.69-6.26 1.77l-.99-2.85c1.99-1.28 4.87-2.11 7.9-2.11 7.35 0 9.14 4.97 9.14 9.74v8.9c0 2.06.1 4.08.4 5.7h-3.97zm-.64-12.14c-4.77-.1-10.18.74-10.18 5.36 0 2.8 1.89 4.13 4.12 4.13 3.13 0 5.12-1.97 5.81-3.98.15-.44.25-.93.25-1.38z"/><path d="m888.41 449.11c0-2.46-.05-4.47-.2-6.44h3.87l.25 3.93h.1c1.19-2.26 3.97-4.47 7.95-4.47 3.33 0 8.49 1.97 8.49 10.13v14.21h-4.37v-13.72c0-3.83-1.44-7.03-5.56-7.03-2.88 0-5.12 2.02-5.86 4.42-.2.54-.3 1.28-.3 2.02v14.31h-4.37z"/><path d="m921.04 435.84v6.83h6.26v3.29h-6.26v12.83c0 2.95.84 4.62 3.28 4.62 1.14 0 1.99-.15 2.53-.3l.2 3.24c-.84.34-2.19.59-3.88.59-2.04 0-3.68-.64-4.72-1.82-1.24-1.28-1.69-3.39-1.69-6.19v-12.98h-3.73v-3.29h3.73v-5.7l4.27-1.13z"/><path d="m934.35 455.36c.1 5.85 3.87 8.26 8.25 8.26 3.13 0 5.02-.54 6.66-1.23l.74 3.1c-1.54.69-4.17 1.47-8 1.47-7.4 0-11.82-4.82-11.82-12s4.27-12.83 11.28-12.83c7.85 0 9.93 6.83 9.93 11.21 0 .89-.1 1.57-.15 2.02zm12.81-3.1c.05-2.75-1.14-7.03-6.06-7.03-4.42 0-6.36 4.03-6.71 7.03z"/></g></svg>