<svg viewBox="0 0 1225.04 459.39" xmlns="http://www.w3.org/2000/svg"><g fill="#05a2d2"><path d="m246.76 361.16c-1.95 0-3.7-.45-5.23-1.36-1.54-.91-2.8-2.2-3.77-3.87-1.39-2.1-2.1-4.82-2.1-8.18-.42-4.19.35-8.86 2.31-14.03 5.87-15.22 15.29-27.99 28.27-38.33 2.1-1.67 4.47-3.07 7.12-4.19.7-.28 1.74-.42 3.14-.42 2.37 0 4.3.91 5.76 2.73 1.46 1.81 2.06 3.76 1.78 5.86.14 2.52-.84 5.59-2.93 9.21-5.59 8.94-13.13 15.71-22.62 20.32-1.12.55-1.92 1.08-2.41 1.57s-.87 1.14-1.15 1.99c-2.09 5.86-3.42 9.98-3.98 12.36-.42.97-.76 2.58-1.04 4.82v.21c0 .56.55.56 1.68 0 5.86-2.52 10.47-5.31 13.82-8.38l7.54-7.12c1.25-1.25 2.31-1.95 3.14-2.1.27-.14.7-.21 1.25-.21.84 0 1.54.28 2.1.84.14.14.21.42.21.84 0 1.4-.42 2.52-1.26 3.35l-7.53 7.96c-2.66 2.93-6.08 5.97-10.27 9.11-4.19 3.13-7.54 5.27-10.06 6.39-1.25.42-2.51.63-3.77.63zm16.77-42.73c4.61-3.63 8.59-7.96 11.94-12.98.84-1.54 1.43-2.76 1.78-3.67s.31-1.78-.11-2.62c-1.95.98-5 3.94-9.11 8.9-4.12 4.95-6.46 8.62-7.01 10.99-.15.42-.15.63 0 .63.84-.27 1.67-.69 2.52-1.25z"/><path d="m308.97 354.45c-1.67-2.37-3.07-5.16-4.19-8.38l-1.46-3.77c-3.92 6.42-6.42 10.55-7.54 12.36-.28.28-.49.56-.63.84-.15.28-.28.56-.42.84-1.13 1.54-2.59 1.95-4.4 1.25-.71-.28-1.3-.8-1.78-1.57-.49-.76-.67-1.57-.53-2.41.14-1.12.55-2.24 1.25-3.35 3.63-6.71 6.78-12.15 9.43-16.34.84-1.25 1.25-2.44 1.25-3.56 0-.42-.15-1.18-.42-2.31-2.65-9.07-4.26-17.04-4.82-23.88l-.21-2.3c0-.84.14-1.95.42-3.35.27-1.4.63-2.44 1.04-3.14 1.12-1.95 2.58-2.93 4.4-2.93 1.54 0 2.93.77 4.19 2.31l1.68 3.35c1.67 3.63 3.21 7.96 4.61 12.98 0 .15.06.49.21 1.04.14.56.35 1.05.63 1.47.55 0 .94-.21 1.15-.63.21-.43.38-.7.52-.84 4.2-5.16 7.9-9.35 11.1-12.57 1.12-1.12 2.1-1.81 2.93-2.09.28-.15.7-.22 1.25-.22.7 0 1.26.22 1.68.64 1.12.84 1.33 1.88.63 3.13-.15.56-.35 1.02-.63 1.36-.28.35-.49.66-.63.94l-3.77 5.44c-4.19 6.15-7.4 10.68-9.64 13.62-.7 1.12-1.04 2.24-1.04 3.35 0 .7.06 1.25.21 1.67.42 1.4 1.12 4.19 2.1 8.38 1.81 6.71 2.85 10.41 3.13 11.1l1.05 2.93c.27.84.84.98 1.67.42 1.39-1.25 2.73-2.58 3.98-3.98 1.67-1.67 3.21-2.09 4.61-1.25.7.42 1.19 1.04 1.47 1.88.27.84.27 1.75 0 2.73-.28.84-.7 1.67-1.26 2.52-1.67 2.51-3.84 4.95-6.49 7.32-1.54 1.4-3.35 2.1-5.45 2.1-1.4 0-2.72-.28-3.98-.84-3.07-1.26-5.51-3.35-7.33-6.29z"/><path d="m372.01 361.05c-.7-1.04-1.04-2.33-1.04-3.87 0-4.32.76-8.24 2.3-11.73l5.87-12.36 1.46-2.93c-.28 0-.42-.14-.42-.42l-2.93 3.14c-6.98 7.82-14.86 14.94-23.67 21.36-2.93 2.1-5.02 3.35-6.28 3.77-1.12.55-2.38.84-3.77.84-1.82 0-3.35-.59-4.61-1.78-1.26-1.18-2.03-2.83-2.31-4.92-.14-.43-.21-1.05-.21-1.89 0-.7.1-1.54.32-2.52.21-.97.31-1.67.31-2.09.7-3.07 2.03-6.56 3.98-10.48 5.17-10.89 12.28-21.78 21.37-32.67 2.37-2.93 5.16-5.59 8.38-7.96 1.81-1.4 4.04-2.44 6.7-3.14.56-.14 1.26-.21 2.1-.21 3.91 0 6.71 1.74 8.38 5.23.98 2.1 1.47 4.4 1.47 6.91 0 1.25-.07 2.24-.21 2.93 0 .28-.04.66-.11 1.15s-.04 1.08.11 1.78c.42-.28 1.46-1.23 3.13-2.83 1.68-1.6 3.07-3.24 4.19-4.92 2.24-3.35 3.98-5.8 5.24-7.33 1.39-1.68 2.79-2.93 4.19-3.77.97-.56 2.02-.84 3.14-.84.97 0 1.95.28 2.93.84 1.82 1.25 2.59 3.07 2.31 5.44 0 1.68-.49 3.49-1.46 5.45-2.24 4.47-3.98 7.81-5.24 10.05-8.38 16.06-14.87 29.05-19.48 38.96-.97 2.24-2.24 4.43-3.77 6.6-1.54 2.16-2.51 3.53-2.93 4.09-.84.97-1.85 1.67-3.04 2.09-1.19.43-2.33.49-3.45.21-1.25-.42-2.24-1.14-2.93-2.2zm-16.33-18.53c4.47-3.07 8.66-6.56 12.57-10.48 3.91-3.91 8.38-8.72 13.41-14.45.42-.42.55-.91.42-1.47-.42-1.12-.6-2.54-.53-4.29.07-1.74.11-3.11.11-4.09 0-2.37-.28-4.25-.84-5.65-2.37 1.67-7.15 8.13-14.35 19.37-7.2 11.25-11.07 18.4-11.62 21.47l.84-.42z"/><path d="m470.66 361.69c-.7-1.05-1.04-2.27-1.04-3.67 0-3.91.27-7.47.84-10.68.84-4.19 2.1-8.38 3.77-12.57 2.24-6.01 4.74-12.07 7.54-18.23.55-.84.76-1.54.63-2.09-.55.14-1.33.7-2.3 1.67-7.97 6.42-14.45 13.69-19.48 21.79-.71 1.12-3.29 5.38-7.75 12.77-1.96 3.07-3.5 5.24-4.62 6.5-1.54 1.54-3.07 2.3-4.61 2.3-.42 0-1.04-.14-1.88-.42-2.38-.7-3.71-2.58-3.98-5.65v-.84c0-1.82.35-3.91 1.04-6.29 2.65-9.78 5.86-18.99 9.63-27.65.56-1.12.84-2.1.84-2.93-.42.28-1.13 1.04-2.1 2.31-6.42 8.79-13.06 18.29-19.9 28.48-2.93 4.47-5.59 8.03-7.96 10.68-1.4 1.54-2.73 2.79-3.98 3.77-1.12.7-2.24 1.04-3.35 1.04-2.65 0-4.53-1.46-5.65-4.4-.28-1.39-.43-2.44-.43-3.14 0-.84.15-2.09.43-3.77.97-5.58 2.58-11.24 4.82-16.96 5.02-13.68 11.94-26.39 20.73-38.12l2.73-2.73c1.12-.84 2.16-1.25 3.14-1.25.55 0 1.25.21 2.09.63 1.82.98 2.58 2.52 2.31 4.61 0 .84-.28 2.1-.84 3.77-.84 2.65-2.1 5.73-3.77 9.22-4.47 9.49-7.75 16.68-9.85 21.57 0 .15-.17.49-.53 1.05-.35.55-.38 1.12-.1 1.67.42-.28.97-.91 1.67-1.89l6.91-9.42c4.74-6.01 9.36-12.28 13.83-18.85 1.67-2.79 4.67-5.93 9-9.42 1.25-1.12 2.73-1.68 4.4-1.68 1.54 0 2.9.53 4.09 1.57 1.18 1.05 1.92 2.48 2.2 4.3v1.46c0 .84-.15 2.24-.42 4.19-.7 4.05-2.31 9.5-4.82 16.34-.14.27-.31.7-.52 1.25s-.25 1.04-.11 1.46c.55-.27 1.12-.84 1.68-1.67 5.86-6.99 12.77-13.34 20.73-19.06l7.33-5.66c1.54-1.25 2.93-1.88 4.19-1.88 1.12 0 2.03.28 2.73.84 2.23 1.12 3.35 3.14 3.35 6.08 0 1.95-.71 4.47-2.1 7.54-1.4 3.63-3.63 8.93-6.71 15.92-4.05 10.05-7.05 18.22-9 24.5-1.12 3.77-2.86 7.2-5.23 10.27l-.84 1.25c-1.25 1.54-2.72 2.31-4.4 2.31-.7 0-1.25-.07-1.67-.21-1.12-.28-2.03-.94-2.73-1.99z"/><path d="m510.25 361.16c-1.95 0-3.7-.45-5.23-1.36-1.54-.91-2.8-2.2-3.77-3.87-1.39-2.1-2.1-4.82-2.1-8.18-.42-4.19.35-8.86 2.31-14.03 5.87-15.22 15.29-27.99 28.27-38.33 2.1-1.67 4.47-3.07 7.12-4.19.7-.28 1.74-.42 3.14-.42 2.37 0 4.3.91 5.76 2.73 1.46 1.81 2.06 3.76 1.78 5.86.14 2.52-.84 5.59-2.93 9.21-5.59 8.94-13.13 15.71-22.62 20.32-1.12.55-1.92 1.08-2.41 1.57s-.87 1.14-1.15 1.99c-2.09 5.86-3.42 9.98-3.98 12.36-.42.97-.76 2.58-1.04 4.82v.21c0 .56.55.56 1.68 0 5.86-2.52 10.47-5.31 13.82-8.38l7.54-7.12c1.25-1.25 2.31-1.95 3.14-2.1.27-.14.7-.21 1.25-.21.84 0 1.54.28 2.1.84.14.14.21.42.21.84 0 1.4-.42 2.52-1.26 3.35l-7.53 7.96c-2.66 2.93-6.08 5.97-10.27 9.11-4.19 3.13-7.54 5.27-10.06 6.39-1.25.42-2.51.63-3.77.63zm16.76-42.73c4.61-3.63 8.59-7.96 11.94-12.98.84-1.54 1.43-2.76 1.78-3.67s.31-1.78-.11-2.62c-1.95.98-5 3.94-9.11 8.9-4.12 4.95-6.46 8.62-7.01 10.99-.15.42-.15.63 0 .63.84-.27 1.67-.69 2.52-1.25z"/><path d="m553.4 359.27c-3.34 0-5.65-1.74-6.9-5.23-.42-.97-.64-2.52-.64-4.61 0-2.65.64-5.87 1.89-9.64 3.77-10.88 9.21-20.94 16.34-30.15l3.35-3.56c1.39-1.12 2.44-1.82 3.14-2.1 1.39-.55 2.37-.84 2.93-.84 1.11 0 2.23.42 3.34 1.25 1.12.98 1.68 2.24 1.68 3.77 0 .42-.15 1.19-.42 2.31-.84 2.37-2.1 5.23-3.77 8.59-3.92 6.99-6.63 12.36-8.17 16.13-.7.98-.98 1.82-.84 2.52.56-.14 1.33-.7 2.31-1.68l26.39-24.92 10.89-9.84c.14-.15 1.33-1.12 3.56-2.93 3.21-2.8 6.77-4.82 10.68-6.08 1.68-.55 2.93-.84 3.77-.84 1.95 0 3.6.7 4.92 2.1 1.33 1.39 2.06 3.28 2.2 5.65v1.67c0 .84-.14 2.24-.42 4.19-1.12 5.59-3.49 12.37-7.12 20.32l-7.75 16.34c-1.12 2.8-2.62 5.55-4.5 8.28-1.89 2.72-3.12 4.5-3.67 5.33-1.25 1.68-2.73 2.52-4.4 2.52-.42 0-1.04-.14-1.89-.42-1.25-.28-2.27-.91-3.03-1.89-.76-.97-1.23-2.09-1.36-3.34v-.64c0-.97.28-2.3.84-3.98 1.81-6.28 5.02-13.89 9.63-22.82 1.95-3.92 3.35-6.84 4.19-8.8l5.23-11.1c0-.14.11-.38.32-.73s.25-.87.11-1.57c-.56.42-1.3.94-2.2 1.57-.92.63-1.64 1.22-2.21 1.78-6.56 5.02-13.33 11.17-20.31 18.43l-9.42 9.85-14.66 15.08c-1.4 1.54-3.63 3.7-6.71 6.5-1.25 1.25-2.51 2.16-3.77 2.72-1.12.55-2.3.84-3.56.84z"/></g><path d="m1149.99 315.78c-58.76 86.87-176.82 109.66-263.69 50.91-86.87-58.76-109.67-176.82-50.91-263.69 24-35.48 57.95-60.06 95.56-72.97-46.44 11.84-88.9 40.04-117.86 82.86-62.76 92.79-38.42 218.89 54.37 281.64 92.79 62.76 218.89 38.42 281.64-54.37 28.96-42.82 39.33-92.72 33.03-140.23 2.02 39.72-8.16 80.38-32.16 115.86z" fill="#b21917"/><path d="m982.16 444.75c-118.77 0-215.05-96.28-215.05-215.05s96.28-215.06 215.05-215.06c48.51 0 93.11 16.25 129.08 43.34-40.56-36.05-93.95-57.98-152.49-57.98-126.86 0-229.7 102.84-229.7 229.7s102.84 229.7 229.7 229.7c58.54 0 111.93-21.93 152.5-57.99-35.98 27.09-80.58 43.34-129.09 43.34z" fill="#05a2d2"/><path d="m1142.8 248.4s30.84-80.95 28.27-124.64c0 0 41.12 65.53 53.97 134.92l-27.41-28.98-13.71-6.57z" fill="#b21917"/><path d="m1146.92 305.2c-22.94 28.27-44.73 49.34-64.75 59.54v-112.89s64.75 0 64.75 0z" fill="#b21917"/><path d="m1062.52 372.68c-16.96 13.47-38.54 19.27-64.75 17.39v-99.48s64.75 0 64.75 0z" fill="#b21917"/><path d="m975.23 390.41c-22.74-.56-44.47-6.29-64.75-19.47v-40.47h64.75z" fill="#b21917"/><path d="m890.82 321.81s83.25-54.34 106.95-94.81 142.79 3.47 141.63 16.76c0 0-34.69-61.28-115.62-63.59l-2.89-11.56s33.53 10.98 46.25 0c0 0 22.55-12.14 36.42-32.95 0 0-35.84 35.26-81.51 8.67 0 0-80.93-60.12-145.1 45.09 0 0 93.07-64.17 98.28-25.44 5.2 38.73-51.76 136.16-84.4 157.82z" fill="#59595b"/><circle cx="1018.58" cy="105.31" fill="#59595b" r="23.99"/><path d="m970.02 72.07c1.16-.58 28.91-23.12 28.91-23.12l46.68 2.31-30.42 22.18z" fill="#5a595e"/><path d="m1018.58 73.17c13.55 0 24.67 10 26.62 23.01.2-1.32.41-2.64.41-4.02 0-14.93-12.1-27.03-27.03-27.03s-27.03 12.1-27.03 27.03c0 1.38.21 2.7.41 4.02 1.96-13.01 13.07-23.01 26.62-23.01z" fill="#5a595e"/><path d="m970.02 100.1v-28.03" fill="none" stroke="#5d5f63" stroke-miterlimit="10" stroke-width=".25"/><g fill="#59595b"><path d="m104.04 130.53h47.98c24.74 0 41.41 13.8 41.41 35.86 0 25.25-19.02 36.87-41.92 36.87h-22.39v43.26h-25.08zm25.08 52.69h19.19c11.61 0 19.86-4.54 19.86-16.33s-8.75-16.5-19.36-16.5h-19.69v32.82z"/><path d="m236.87 200.06v46.46h-24.58v-115.99h51.01c25.25 0 38.89 13.8 38.89 31.82 0 15.49-8.42 23.9-16.83 27.44 5.72 2.19 14.48 8.08 14.48 28.95v5.72c0 7.74 0 16.66 1.68 22.05h-23.9c-2.02-5.05-2.36-13.81-2.36-26.09v-1.68c0-12.62-3.2-18.68-21.89-18.68h-16.49zm0-20.04h21.04c13.63 0 19.02-5.22 19.02-14.81s-6.23-14.81-18.51-14.81h-21.55v29.63z"/><path d="m404.53 196.52h-55.55v29.46h61.27l-3.03 20.54h-82.66v-115.99h82.32v20.54h-57.91v24.75h55.55v20.71z"/><path d="m428.11 130.53h47.98c24.74 0 41.41 13.8 41.41 35.86 0 25.25-19.02 36.87-41.92 36.87h-22.39v43.26h-25.08zm25.08 52.69h19.19c11.61 0 19.86-4.54 19.86-16.33s-8.75-16.5-19.36-16.5h-19.69v32.82z"/><path d="m548.14 219.75-8.92 26.77h-24.74l39.39-115.99h31.48l41.24 115.99h-26.43l-9.6-26.77zm37.04-20.54c-8.25-24.58-13.47-40.23-16.33-50.67h-.17c-2.86 11.45-8.59 29.63-15.15 50.67z"/></g><path d="m7.9 332.72c.1 13.63 6.96 22.57 17.59 22.57s13.59-5.54 15.59-10.1h7.88c-2.38 7.61-8.62 16.94-23.74 16.94-18.05 0-25.22-15.15-25.22-30.09 0-17.02 8.51-31.16 25.9-31.16 18.4 0 24.33 15.36 24.33 27.03 0 1.7 0 3.27-.13 4.82h-42.2zm34.35-6.04c-.12-10.68-5.75-19.16-16.54-19.16s-16.29 7.84-17.46 19.16z" fill="#727272"/><path d="m63.94 317.01c0-5.11 0-10.12-.12-14.73h7.59c.25 1.8.39 8.74.31 10.42 2.46-5.53 7.24-11.82 18.95-11.82 10.65 0 19.59 6.24 19.59 22.1v37.75h-7.78v-36.65c0-9.69-3.92-16.09-13.53-16.09-12.6 0-17.23 10.12-17.23 22.41v30.33h-7.78v-43.73z" fill="#727272"/><path d="m170.31 360.73v-66.94c-3.88 3.15-12.18 7.01-16.58 7.92v-6.73c5.41-1.67 12.82-6.12 18.37-11.18h6.23v76.93h-8.01z" fill="#727272"/></svg>