<svg viewBox="0 0 1241.46 696.79" xmlns="http://www.w3.org/2000/svg" xmlns:xlink="http://www.w3.org/1999/xlink"><linearGradient id="a" gradientUnits="userSpaceOnUse" x1="463.15" x2="56.68" y1="253.86" y2="610.99"><stop offset="0" stop-color="#e93290"/><stop offset=".06" stop-color="#d33e97"/><stop offset=".2" stop-color="#9c5daa"/><stop offset=".38" stop-color="#4490c9"/><stop offset=".47" stop-color="#19a9d9"/><stop offset=".77" stop-color="#fcd130"/><stop offset="1" stop-color="#ea2331"/></linearGradient><linearGradient id="b" x1="434.27" x2="27.79" xlink:href="#a" y1="220.98" y2="578.11"/><linearGradient id="c" x1="420.12" x2="13.65" xlink:href="#a" y1="204.88" y2="562.01"/><linearGradient id="d" x1="422.52" x2="16.04" xlink:href="#a" y1="207.62" y2="564.75"/><path d="m0 0h1241.46v696.79h-1241.46z" fill="none" opacity=".64"/><text fill="#485ba4" font-family="MuseoSansRounded-700, 'Museo Sans Rounded'" font-size="204.76" transform="translate(577.6 386.21)"><tspan x="0" y="0">p</tspan><tspan letter-spacing="-.02em" x="123.47" y="0">r</tspan><tspan letter-spacing="0em" x="196.98" y="0">epa</tspan></text><text font-family="MuseoSansRounded-700, 'Museo Sans Rounded'" font-size="204.76" transform="translate(645.46 542.51)"><tspan fill="#727475" x="0" y="0">vir</tspan><tspan fill="#485ba4" letter-spacing="0em" x="234.86" y="0">t</tspan><tspan fill="#727475" letter-spacing="0em" x="309.4" y="0">ual</tspan></text><path d="m85.4 578.63 321.7-33.09c47.88-5.63 85.05-38.08 85.05-85.05v-116.98c0-46.97-38.08-85.05-85.05-85.05h-289.89c-46.97 0-72.02 27.05-85.05 85.05l-31.81 150.07c0 46.97 38.08 85.05 85.05 85.05z" fill="#485ba4"/><path d="m242.89 354.85-185.95 92.53 185.95 92.53 185.95-92.53z" fill="url(#a)"/><path d="m262.75 320.92-199.47 57.89 166.47 124.2 199.47-57.89z" fill="#fff"/><path d="m288.34 291.07-206.59 21.39 141.65 151.9 206.6-21.39z" fill="url(#b)"/><path d="m318.84 266.27-207.09-15.8 112.29 174.73 207.1 15.79z" fill="#fff"/><path d="m353.28 247.3-200.96-52.47 79.34 191.95 200.96 52.47z" fill="url(#c)"/><path d="m390.55 234.77-188.39-87.46 43.85 203.02 188.38 87.47z" fill="#fff"/><path d="m429.45 229.1-169.77-119.66 6.94 207.58 169.77 119.66z" fill="url(#d)"/><path d="m259.68 109.44s44.2 44.19 83.9 159.61c40.22 116.93 92.81 167.63 92.81 167.63l-169.77-119.66z" fill="#221f1f" opacity=".2"/></svg>