<svg viewBox="0 0 1238.68 229.62" xmlns="http://www.w3.org/2000/svg"><g fill-rule="evenodd"><g fill="#b1b1b1"><path d="m0 113.35c0-31.19 11.75-57.89 35.24-80.1v-.02c11.73-11.06 24.64-19.38 38.74-24.91 14.09-5.54 29.34-8.32 45.74-8.32s30.99 2.81 44.85 8.41 26.6 13.99 38.21 25.13c11.59 11.15 20.29 23.4 26.12 36.7 5.84 13.34 8.75 27.7 8.75 43.11 0 16.23-2.87 31.23-8.63 45.01-5.75 13.75-14.37 26.29-25.83 37.52v.02c-11.48 11.21-24.26 19.64-38.37 25.28-14.09 5.63-29.44 8.44-46.05 8.44s-31.65-2.85-45.68-8.5c-14.02-5.66-26.81-14.15-38.34-25.46-11.56-11.29-20.24-23.82-26.03-37.56-5.82-13.76-8.72-28.69-8.72-44.75m40.76-74.26c-21.79 20.62-32.68 45.34-32.68 74.26 0 15.03 2.68 28.91 8.05 41.63s13.44 24.37 24.24 34.91l.02.02c10.76 10.56 22.67 18.47 35.7 23.72 13.04 5.28 27.26 7.91 42.68 7.91s29.98-2.62 43.08-7.85c13.08-5.23 24.98-13.1 35.71-23.58 10.68-10.44 18.69-22.07 24.02-34.83 5.32-12.77 7.99-26.74 7.99-41.92 0-14.31-2.69-27.61-8.06-39.91-5.38-12.3-13.49-23.67-24.32-34.1-10.86-10.43-22.73-18.26-35.62-23.46-12.87-5.2-26.83-7.81-41.85-7.81s-29.66 2.57-42.8 7.74c-13.13 5.16-25.19 12.93-36.16 23.27z"/><path d="m34.16 58.68c-16.6 26.04-20.68 58.99-9.56 88.94l60.82.06z"/><path d="m29.65 161.1c14.24 27.38 40.73 47.39 72.22 52.73l30.48-52.64z"/><path d="m114.31 215.17c30.84 1.35 61.42-11.58 81.8-36.17l-30.35-52.72-51.44 88.89z"/><path d="m203.47 168.89c16.6-26.03 20.69-58.98 9.57-88.93l-60.83-.07 51.25 88.99z"/><path d="m207.99 68.54c-14.24-27.39-40.74-47.39-72.22-52.74l-30.48 52.63z"/></g><path d="m123.33 14.45c-30.84-1.35-61.41 11.58-81.8 36.18l30.35 52.71z" fill="#758592"/></g><path d="m346.09 198.15v-166.68h35.82c6.55 0 12.33.86 17.32 2.58s9.52 4.76 13.58 9.13 6.87 9.48 8.43 15.33 2.34 13.78 2.34 23.76c0 7.49-.43 13.81-1.29 18.96s-2.69 9.99-5.5 14.51c-3.28 5.46-7.65 9.72-13.11 12.76s-12.64 4.56-21.54 4.56h-12.17v65.08h-23.88zm23.88-144.2v56.65h11.47c4.84 0 8.58-.7 11.24-2.11 2.65-1.4 4.6-3.35 5.85-5.85 1.25-2.34 1.99-5.23 2.22-8.66s.35-7.26.35-11.47c0-3.9-.08-7.61-.23-11.12-.16-3.51-.86-6.59-2.11-9.25-1.25-2.65-3.12-4.68-5.62-6.09-2.5-1.4-6.09-2.11-10.77-2.11h-12.41z" fill="#758592"/><path d="m453.07 198.15v-166.68h38.39c28.09 0 42.14 16.31 42.14 48.93 0 9.83-1.52 18.18-4.56 25.05s-8.39 12.41-16.04 16.62l25.75 76.08h-25.28l-22.24-71.16h-14.28v71.16zm23.88-144.2v51.97h13.58c4.21 0 7.57-.59 10.07-1.76 2.49-1.17 4.45-2.85 5.85-5.03 1.25-2.18 2.11-4.88 2.57-8.08.47-3.2.7-6.91.7-11.12s-.23-7.92-.7-11.12-1.4-5.97-2.81-8.31c-2.97-4.37-8.58-6.55-16.85-6.55z" fill="#758592"/><path d="m563.09 70.8c0-6.71 1.17-12.64 3.51-17.79s5.46-9.44 9.36-12.87c3.75-3.28 8-5.77 12.76-7.49s9.56-2.58 14.4-2.58 9.63.86 14.4 2.58c4.76 1.72 9.09 4.21 12.99 7.49 3.75 3.43 6.79 7.73 9.13 12.87 2.34 5.15 3.51 11.08 3.51 17.79v88.02c0 7.02-1.17 13.03-3.51 18.03s-5.38 9.13-9.13 12.41c-3.9 3.43-8.23 6.01-12.99 7.72-4.76 1.72-9.56 2.58-14.4 2.58s-9.64-.86-14.4-2.58-9.01-4.29-12.76-7.72c-3.9-3.28-7.02-7.41-9.36-12.41-2.34-4.99-3.51-11-3.51-18.03zm23.88 88.02c0 5.78 1.6 10.03 4.8 12.76s6.98 4.1 11.35 4.1 8.15-1.36 11.35-4.1c3.2-2.73 4.8-6.98 4.8-12.76v-88.02c0-5.77-1.6-10.03-4.8-12.76s-6.99-4.1-11.35-4.1-8.16 1.37-11.35 4.1c-3.2 2.73-4.8 6.99-4.8 12.76z" fill="#758592"/><g fill="#b1b1b1"><path d="m753.18 79.46h-23.88v-5.38c0-5.46-1.29-10.18-3.86-14.16-2.58-3.98-6.91-5.97-12.99-5.97-3.28 0-5.93.63-7.96 1.87-2.03 1.25-3.67 2.81-4.92 4.68-1.25 2.03-2.11 4.33-2.58 6.91s-.7 5.27-.7 8.08c0 3.28.12 6.01.35 8.19.23 2.19.82 4.14 1.76 5.85.94 1.72 2.3 3.2 4.1 4.45 1.79 1.25 4.25 2.5 7.37 3.75l18.26 7.26c5.3 2.03 9.6 4.41 12.87 7.14 3.28 2.73 5.85 5.89 7.73 9.48 1.72 3.75 2.89 8 3.51 12.76s.94 10.18.94 16.27c0 7.02-.7 13.54-2.11 19.55-1.4 6.01-3.67 11.12-6.79 15.33-3.28 4.37-7.57 7.81-12.88 10.3s-11.78 3.75-19.43 3.75c-5.78 0-11.16-1.02-16.15-3.04-5-2.03-9.29-4.84-12.88-8.43s-6.44-7.76-8.54-12.52c-2.11-4.76-3.16-9.95-3.16-15.57v-8.9h23.88v7.49c0 4.37 1.29 8.31 3.86 11.82 2.58 3.51 6.91 5.27 12.99 5.27 4.06 0 7.22-.59 9.48-1.76s4.02-2.85 5.27-5.03 1.99-4.8 2.22-7.84.35-6.44.35-10.18c0-4.37-.16-7.96-.47-10.77-.32-2.81-.94-5.07-1.87-6.79-1.09-1.72-2.54-3.12-4.33-4.21-1.8-1.09-4.18-2.26-7.14-3.51l-17.09-7.02c-10.3-4.21-17.21-9.79-20.72-16.74-3.51-6.94-5.27-15.64-5.27-26.1 0-6.24.86-12.17 2.57-17.79 1.72-5.62 4.29-10.45 7.73-14.51 3.28-4.06 7.45-7.29 12.52-9.72 5.07-2.42 11.12-3.63 18.14-3.63 5.93 0 11.35 1.09 16.27 3.28s9.17 5.07 12.76 8.66c7.18 7.49 10.77 16.08 10.77 25.75v11.7z"/><path d="m781.26 70.8c0-6.71 1.17-12.64 3.51-17.79s5.46-9.44 9.36-12.87c3.75-3.28 8-5.77 12.76-7.49s9.56-2.58 14.4-2.58 9.63.86 14.4 2.58c4.76 1.72 9.09 4.21 12.99 7.49 3.75 3.43 6.79 7.73 9.13 12.87 2.34 5.15 3.51 11.08 3.51 17.79v88.02c0 7.02-1.17 13.03-3.51 18.03s-5.38 9.13-9.13 12.41c-3.9 3.43-8.23 6.01-12.99 7.72-4.76 1.72-9.56 2.58-14.4 2.58s-9.64-.86-14.4-2.58-9.01-4.29-12.76-7.72c-3.9-3.28-7.02-7.41-9.36-12.41-2.34-4.99-3.51-11-3.51-18.03zm23.88 88.02c0 5.78 1.6 10.03 4.8 12.76s6.98 4.1 11.35 4.1 8.15-1.36 11.35-4.1c3.2-2.73 4.8-6.98 4.8-12.76v-88.02c0-5.77-1.6-10.03-4.8-12.76s-6.99-4.1-11.35-4.1-8.16 1.37-11.35 4.1c-3.2 2.73-4.8 6.99-4.8 12.76z"/><path d="m969.94 150.63v10.3c0 5.15-.98 10.03-2.93 14.63s-4.65 8.7-8.08 12.29-7.45 6.44-12.06 8.54c-4.6 2.11-9.56 3.16-14.86 3.16-4.53 0-9.13-.63-13.81-1.87-4.68-1.25-8.9-3.43-12.64-6.55-3.75-3.12-6.83-7.14-9.25-12.06s-3.63-11.2-3.63-18.84v-91.76c0-5.46.94-10.53 2.81-15.22 1.87-4.68 4.52-8.74 7.96-12.17 3.43-3.43 7.53-6.12 12.29-8.08 4.76-1.95 10.03-2.93 15.8-2.93 11.24 0 20.37 3.67 27.39 11 3.43 3.59 6.12 7.84 8.08 12.76 1.95 4.92 2.93 10.26 2.93 16.04v9.36h-23.88v-7.96c0-4.68-1.33-8.74-3.98-12.17-2.66-3.43-6.24-5.15-10.77-5.15-5.93 0-9.87 1.84-11.82 5.5-1.95 3.67-2.93 8.31-2.93 13.93v85.21c0 4.84 1.05 8.9 3.16 12.17 2.11 3.28 5.89 4.92 11.35 4.92 1.56 0 3.24-.27 5.03-.82s3.47-1.44 5.03-2.69c1.4-1.25 2.58-2.96 3.51-5.15.94-2.18 1.4-4.92 1.4-8.19v-8.19h23.88z"/><path d="m1001.78 198.15v-166.68h23.88v166.67h-23.88z"/><path d="m1049.77 198.15 37.22-166.67h19.9l37.22 166.67h-23.88l-7.02-35.82h-32.54l-7.02 35.82zm58.99-58.29-11.7-60.4h-.47l-11.7 60.4h23.88z"/><path d="m1167.52 198.15v-166.68h23.88v142.8h47.29v23.88h-71.16z"/></g></svg>