<?xml version="1.0" encoding="UTF-8"?>
<svg id="Capa_1" data-name="Capa 1" xmlns="http://www.w3.org/2000/svg" version="1.1" viewBox="0 0 1616.1 926.9">
  <defs>
    <style>
      .cls-1 {
        fill: #00bed6;
      }

      .cls-1, .cls-2 {
        stroke-width: 0px;
      }

      .cls-2 {
        fill: #53575a;
      }
    </style>
  </defs>
  <g>
    <path class="cls-2" d="M52.1,612.5c0-54.3,41-92.3,95.6-92.3s95.3,38,95.3,92.3-8.3,46-22.5,61.8l11.2,13.7-31.9,25.7-13.4-16.1c-11.8,4.6-24.9,7.2-38.8,7.2-54.6,0-95.6-38-95.6-92.3h0ZM158.1,663l-16.3-19.8,31.9-25.7,16.8,20.3c3.5-7.5,5.6-16.1,5.6-25.4,0-29.2-19-51.7-48.4-51.7s-48.7,22.5-48.7,51.7,19.3,51.6,48.7,51.6,7-.3,10.4-1.1h0Z"/>
    <path class="cls-2" d="M293.2,629.3v-106.3h46.8v104.7c0,21.1,12.8,36.4,37.7,36.4s37.5-15.2,37.5-36.4v-104.7h46.6v106c0,44.4-26.8,75.8-84.1,75.8s-84.6-31.6-84.6-75.5h0Z"/>
    <path class="cls-2" d="M632.1,701.6l-8.8-25.7h-70.4l-8.8,25.7h-52.2l67.2-178.5h58.1l67.2,178.5h-52.2ZM588.2,568.6l-22.8,67.2h45.2l-22.5-67.2Z"/>
    <path class="cls-2" d="M845.8,701.6l-75.5-103.3v103.3h-46v-178.5h47.4l72.3,98.2v-98.2h46.3v178.5h-44.4Z"/>
    <path class="cls-2" d="M989.1,701.6v-138.4h-50.1v-40.2h145.9v40.2h-49.8v138.4h-46Z"/>
    <path class="cls-2" d="M1133.8,629.3v-106.3h46.8v104.7c0,21.1,12.8,36.4,37.7,36.4s37.5-15.2,37.5-36.4v-104.7h46.6v106c0,44.4-26.8,75.8-84.1,75.8s-84.6-31.6-84.6-75.5h0Z"/>
    <path class="cls-2" d="M1518,701.6v-118l-45,118h-20.3l-45.2-118v118h-46v-178.5h64l37.5,98.5,37.2-98.5h64v178.5h-46Z"/>
    <path class="cls-2" d="M488.1,862.3v-53.7h39.4v12.1h-25.5v8.4h25v12.1h-25v9.1h25.5v12.1h-39.4Z"/>
    <path class="cls-2" d="M551.2,862.3v-53.7h13.9v41.6h21.6v12.1h-35.4Z"/>
    <path class="cls-2" d="M609.7,862.3v-53.7h39.4v12.1h-25.5v8.4h25v12.1h-25v9.1h25.5v12.1h-39.4Z"/>
    <path class="cls-2" d="M687.6,862.3l-20.2-53.7h15.7l13.3,38.7,13.2-38.7h15.7l-20.2,53.7h-17.5Z"/>
    <path class="cls-2" d="M778.1,862.3l-2.6-7.7h-21.2l-2.7,7.7h-15.7l20.2-53.7h17.5l20.2,53.7h-15.7ZM764.9,822.2l-6.8,20.2h13.6l-6.8-20.2Z"/>
    <path class="cls-2" d="M813.7,862.3v-53.7h22.5c16.9,0,29.1,10.1,29.1,26.8s-12.2,26.9-29,26.9h-22.6,0ZM851.1,835.4c0-8.3-5-14.7-14.8-14.7h-8.8v29.5h8.7c9.4,0,14.9-6.8,14.9-14.8Z"/>
    <path class="cls-2" d="M885.4,835.5c0-16.3,12.3-27.8,28.7-27.8s28.7,11.4,28.7,27.8-12.2,27.8-28.7,27.8-28.7-11.4-28.7-27.8ZM928.7,835.5c0-8.8-5.7-15.5-14.6-15.5s-14.6,6.8-14.6,15.5,5.8,15.5,14.6,15.5,14.6-6.8,14.6-15.5Z"/>
    <path class="cls-2" d="M995.7,862.3l-9-18h-7.1v18h-13.8v-53.7h26.9c11.9,0,18.7,7.9,18.7,17.9s-5.6,14.3-10.7,16.1l10.9,19.7h-15.9,0ZM997.2,826.3c0-3.7-3-5.7-6.7-5.7h-11v11.5h11c3.7,0,6.7-2,6.7-5.8Z"/>
    <path class="cls-2" d="M1034.9,862.3v-53.7h39.4v12.1h-25.5v8.4h25v12.1h-25v9.1h25.5v12.1h-39.4Z"/>
    <path class="cls-2" d="M1094.4,854.7l7.3-10.8c3.9,3.9,9.8,7.1,17.2,7.1s7.6-1.6,7.6-4.3c0-7.1-30.3-1.2-30.3-21.9s7.6-17.1,21.3-17.1,16.1,2.6,21.8,7.5l-7.6,10.4c-4.5-3.8-10.4-5.6-15.7-5.6s-5.8,1.4-5.8,3.7c0,6.6,30.4,1.6,30.4,21.6s-8,18-22.4,18-18.4-3.5-23.8-8.5h0Z"/>
  </g>
  <g>
    <path class="cls-1" d="M806.8,382.5c-87.9,0-159.4-71.5-159.4-159.4s71.5-159.4,159.4-159.4,159.4,71.5,159.4,159.4-71.5,159.4-159.4,159.4ZM806.8,120.4c-56.6,0-102.7,46.1-102.7,102.7s46.1,102.7,102.7,102.7,102.7-46.1,102.7-102.7-46.1-102.7-102.7-102.7Z"/>
    <path class="cls-1" d="M940.2,393.1l-39.4-41.2-137.3-137.3,34.8-34.8,137.4,137.3,42.4,38.2-37.8,37.8Z"/>
    <path class="cls-1" d="M801.2,283.3h-49.2v-116.1h115v49.2l-73.4-7.6,7.6,74.5Z"/>
  </g>
</svg>