<svg viewBox="0 0 1254.39 583.76" xmlns="http://www.w3.org/2000/svg" xmlns:xlink="http://www.w3.org/1999/xlink"><linearGradient id="a" gradientUnits="userSpaceOnUse" x1="218.48" x2="104.3" y1="156.76" y2="156.76"><stop offset="0" stop-color="#808080"/><stop offset=".44" stop-color="#808080"/><stop offset="1" stop-color="#0a4451"/></linearGradient><linearGradient id="b" gradientUnits="userSpaceOnUse" x1="78.56" x2="17" y1="110.83" y2="109.75"><stop offset="0" stop-color="#0f8031"/><stop offset=".5" stop-color="#007c36"/><stop offset="1" stop-color="#002e20"/></linearGradient><linearGradient id="c" gradientUnits="userSpaceOnUse" x1="54.88" x2="216.68" y1="391.93" y2="394.75"><stop offset="0" stop-color="#b20911"/><stop offset=".5" stop-color="#af0821"/><stop offset="1" stop-color="#800c59"/></linearGradient><linearGradient id="d" gradientUnits="userSpaceOnUse" x1="-1.73" x2="139.91" y1="267.63" y2="267.63"><stop offset="0" stop-color="#97af00"/><stop offset=".42" stop-color="#97af00"/><stop offset="1" stop-color="#ffd500"/></linearGradient><g fill-rule="evenodd"><path d="m160.32 122.07c-20.52-12.97-38.35-29.94-49.52-57.72v106.32c13.7 30.59 35.32 48.38 59.71 62.45 7.37 4.47 14.13 9.91 19.93 16.04 9.01-10.78 16.47-22.94 19.16-36.2.96-4.75 1.05-9.17 1.35-13.95.9-36.53-23.28-59.81-50.63-76.95z" fill="url(#a)"/><path d="m48.92 55.72c19.81-12.52 37.02-28.9 47.81-55.72v102.65c-13.23 29.54-30.46 40.52-51.83 57.38-21.52 15.25-43.49 37.55-44.85 60.57v-89.64c-1.31-35.81 22.22-58.54 48.87-75.23z" fill="url(#b)"/><path d="m135.92 467.98c-50.4 32.6-75.56 71.54-79.38 115.79v-166.03c-.35-29.09 12.48-57.33 42.23-84.47 52.56-44.97 114.97-81.13 115.79-130.35v174.04c-.68 23.08-35.72 66.25-78.65 91.03z" fill="url(#c)"/><path d="m69.08 351.84c1.63 1.05 3.22 2.12 4.79 3.19 6.43-8.85 14.04-17.06 22.41-24.7 2.53-2.16 5.09-4.31 7.65-6.44 9.62-7.96 19.53-15.68 29.41-23.46-2.5-20.11-13.17-39.69-33.92-58.63-25.5-21.82-53.83-41.1-72.78-61.58-10.07 9.96-18.89 21.8-21.79 34.18v63.08c.56 18.85 29.17 54.11 64.24 74.35z" fill="url(#d)"/><path d="m380.66 238.91h-39v116.65h-27.71v-116.65h-39v-24.35h105.71zm110.83 116.65h-93.18v-141h93.18v22.59h-66.35v33.71h65.47v22.06h-65.47v38.82h66.35zm150.18-25.41c-7.06 8.59-15.62 15.41-25.68 20.47s-21.15 7.59-33.27 7.59c-10.47 0-20.29-1.91-29.47-5.74-9.18-3.82-17.15-9.03-23.94-15.62s-12.15-14.32-16.06-23.21c-3.91-8.88-5.88-18.44-5.88-28.68s1.97-19.8 5.88-28.68 9.26-16.65 16.06-23.29c6.8-6.65 14.77-11.85 23.94-15.62 9.18-3.76 19-5.65 29.47-5.65 12.12 0 23.21 2.53 33.27 7.59s18.44 11.65 25.15 19.77l-18.88 19.41c-4.35-6.24-9.97-11.26-16.85-15.09-6.88-3.82-14.44-5.73-22.68-5.73-6.59 0-12.79 1.26-18.62 3.79-5.82 2.53-10.91 5.94-15.27 10.24-4.35 4.29-7.79 9.29-10.32 15s-3.79 11.8-3.79 18.27 1.26 12.38 3.79 18.09 5.97 10.71 10.32 15 9.44 7.71 15.27 10.24c5.82 2.53 12.03 3.79 18.62 3.79 8.71 0 16.41-1.97 23.12-5.91s12.29-9.15 16.77-15.62l19.06 19.59zm106.06-162.36-25.41 34.06h-18.71l15.88-34.06zm50.65 187.77h-30l-13.06-28.24h-68.47l-13.23 28.24h-30l66.71-141.18h21.35l66.71 141.18zm-53.82-51-23.47-50.82-23.82 50.82zm208.77 51h-26.82v-94.24l-44.47 75-42.71-75.71v94.94h-26.82v-141.18h30.88l39.18 70.06 40.94-70.06h29.82v141.18zm168.88 0h-30l-13.06-28.24h-68.47l-13.23 28.24h-30l66.71-141.18h21.35l66.71 141.18zm-53.82-51-23.47-50.82-23.82 50.82h47.3zm185.48 25.59-19.06-19.59c-4.47 6.47-10.06 11.68-16.77 15.62s-14.41 5.91-23.12 5.91c-6.59 0-12.79-1.26-18.62-3.79-5.82-2.53-10.91-5.94-15.27-10.24-4.35-4.29-7.79-9.29-10.32-15s-3.8-11.74-3.8-18.09 1.27-12.56 3.8-18.27 5.97-10.71 10.32-15 9.44-7.71 15.27-10.24c5.82-2.53 12.03-3.79 18.62-3.79 8.23 0 15.79 1.91 22.68 5.73 6.88 3.82 12.5 8.85 16.85 15.09l18.88-19.41c-6.71-8.12-15.09-14.71-25.15-19.77s-21.15-7.59-33.27-7.59c-10.47 0-20.29 1.88-29.47 5.65s-17.15 8.97-23.94 15.62c-6.8 6.65-12.15 14.41-16.06 23.29s-5.88 18.44-5.88 28.68 1.97 19.79 5.88 28.68c3.91 8.88 9.26 16.62 16.06 23.21 6.79 6.59 14.76 11.79 23.94 15.62 9.18 3.82 19 5.74 29.47 5.74 12.12 0 23.21-2.53 33.27-7.59s18.62-11.88 25.68-20.47z" fill="#5c5b5f"/><path d="m710.32 446.22c-3.6 4.39-7.97 7.87-13.11 10.45s-10.8 3.87-16.99 3.87c-5.35 0-10.36-.98-15.05-2.93s-8.76-4.61-12.22-7.97c-3.47-3.36-6.2-7.31-8.2-11.85s-3-9.42-3-14.64 1.01-10.11 3-14.64c2-4.54 4.73-8.5 8.2-11.89 3.47-3.4 7.54-6.05 12.22-7.98 4.69-1.92 9.7-2.88 15.05-2.88 6.19 0 11.85 1.29 16.99 3.87s9.42 5.95 12.84 10.09l-9.64 9.91c-2.22-3.18-5.09-5.75-8.61-7.7-3.51-1.95-7.37-2.93-11.58-2.93-3.36 0-6.53.64-9.51 1.94-2.97 1.29-5.57 3.03-7.79 5.23-2.22 2.19-3.98 4.75-5.27 7.66s-1.94 6.02-1.94 9.33.65 6.32 1.94 9.24c1.29 2.91 3.05 5.47 5.27 7.66s4.82 3.93 7.79 5.23c2.97 1.29 6.14 1.94 9.51 1.94 4.45 0 8.38-1.01 11.8-3.02 3.43-2.01 6.28-4.67 8.56-7.97l9.73 10zm54.88 12.98h-47.58v-72h47.58v11.53h-33.88v17.21h33.43v11.26h-33.43v19.82h33.88v12.16zm64.96 0h-15.38l-5.12-16.4c-.54-1.8-1.22-3.45-2.03-4.96-.81-1.5-1.79-2.79-2.91-3.87-1.14-1.08-2.51-1.92-4.1-2.52s-3.45-.9-5.62-.9h-5.21v28.65h-13.79v-72l28.43-.09c3.05 0 5.9.53 8.55 1.58 2.63 1.05 4.91 2.51 6.83 4.37s3.41 4.05 4.49 6.58c1.08 2.52 1.62 5.26 1.62 8.2 0 2.1-.33 4.14-.99 6.13-.64 1.98-1.58 3.81-2.76 5.5-1.2 1.68-2.61 3.17-4.25 4.46-1.65 1.29-3.45 2.27-5.42 2.93 2.27.84 4.11 2.06 5.56 3.65 1.43 1.59 2.57 3.5 3.39 5.72.42 1.02.81 2.04 1.17 3.06.34 1.02.72 2.09 1.11 3.2s.81 2.31 1.26 3.61c.43 1.29.93 2.72 1.47 4.28.66 1.98 1.28 3.68 1.85 5.09s1.19 2.66 1.85 3.74zm-18.2-50.37c0-1.68-.32-3.21-.95-4.6-.63-1.38-1.49-2.58-2.57-3.6s-2.36-1.82-3.83-2.39-3.05-.86-4.73-.86h-10.09v22.44h10.09c1.68 0 3.26-.26 4.73-.77s2.75-1.25 3.83-2.21 1.94-2.12 2.57-3.47.95-2.87.95-4.55zm92.72 37.39c-3.6 4.39-7.97 7.87-13.11 10.45s-10.8 3.87-16.99 3.87c-5.35 0-10.36-.98-15.05-2.93s-8.76-4.61-12.22-7.97c-3.47-3.36-6.2-7.31-8.2-11.85s-3-9.42-3-14.64 1.01-10.11 3-14.64c2-4.54 4.73-8.5 8.2-11.89 3.47-3.4 7.54-6.05 12.22-7.98 4.69-1.92 9.7-2.88 15.05-2.88 6.19 0 11.85 1.29 16.99 3.87s9.42 5.95 12.84 10.09l-9.64 9.91c-2.22-3.18-5.09-5.75-8.61-7.7-3.51-1.95-7.37-2.93-11.58-2.93-3.36 0-6.53.64-9.51 1.94-2.97 1.29-5.57 3.03-7.79 5.23-2.22 2.19-3.98 4.75-5.27 7.66s-1.94 6.02-1.94 9.33.65 6.32 1.94 9.24c1.29 2.91 3.05 5.47 5.27 7.66s4.82 3.93 7.79 5.23c2.97 1.29 6.14 1.94 9.51 1.94 4.45 0 8.38-1.01 11.8-3.02 3.43-2.01 6.28-4.67 8.56-7.97l9.73 10zm80.02 12.98h-15.32l-6.67-14.42h-34.96l-6.76 14.42h-15.32l34.06-72.09h10.9l34.06 72.09zm-27.48-26.04-11.98-25.95-12.16 25.95h24.15z" fill="#808080"/><path d="m1084.36 423.16c0 4.99-.84 9.66-2.52 14.01-1.68 4.36-4.02 8.17-7.03 11.44-3 3.27-6.59 5.86-10.77 7.75s-8.73 2.84-13.65 2.84h-30.1v-72.09h30.1c4.93 0 9.48.96 13.65 2.88s7.76 4.51 10.77 7.75c3 3.24 5.35 7.06 7.03 11.44 1.68 4.39 2.52 9.04 2.52 13.97zm-14.15-.36c.06-3.36-.45-6.55-1.53-9.55s-2.64-5.63-4.68-7.89c-2.04-2.25-4.55-4.02-7.53-5.32-2.97-1.29-6.32-1.94-10.05-1.94h-12.16v49.2h12.16c3.66 0 6.95-.62 9.87-1.85 2.91-1.23 5.39-2.94 7.43-5.14 2.04-2.19 3.62-4.78 4.73-7.75s1.7-6.23 1.76-9.78zm72.54 36.4h-47.58v-72h47.58v11.53h-33.88v17.21h33.43v11.26h-33.43v19.82h33.88v12.16zm88.67-59.56h-19.91v59.56h-14.15v-59.56h-19.91v-12.43h53.97zm22.97 59.56h-13.97v-72h13.97z" fill="#09802f"/><path d="m287.61 520.83c-2.44 0-4.63-.41-6.55-1.24-1.93-.82-3.57-1.96-4.94-3.4s-2.41-3.13-3.13-5.05c-.72-1.93-1.08-3.99-1.08-6.2v-.09c0-2.12.38-4.14 1.13-6.07s1.8-3.63 3.16-5.1c1.35-1.47 2.98-2.64 4.88-3.51s4.01-1.3 6.33-1.3c1.29 0 2.48.09 3.55.26 1.07.18 2.07.44 3 .8.93.35 1.79.79 2.6 1.3.81.52 1.6 1.1 2.36 1.74l-2.25 2.65c-.59-.53-1.21-1.01-1.85-1.43-.65-.43-1.35-.8-2.1-1.1-.75-.31-1.57-.55-2.47-.73s-1.89-.26-2.98-.26c-1.71 0-3.28.34-4.72 1.01-1.44.68-2.68 1.59-3.71 2.74s-1.84 2.49-2.43 4.04c-.59 1.54-.88 3.17-.88 4.88v.09c0 1.85.29 3.56.86 5.12s1.39 2.91 2.45 4.06 2.34 2.04 3.84 2.69 3.19.97 5.07.97c1.76 0 3.43-.3 4.99-.9s2.87-1.33 3.93-2.18v-7.68h-9.4v-3.13h12.75v12.31c-1.44 1.29-3.21 2.41-5.32 3.33-2.1.93-4.46 1.39-7.08 1.39zm61.35-3.22c1.76 0 3.39-.33 4.88-.99 1.48-.66 2.76-1.57 3.82-2.71 1.06-1.15 1.89-2.48 2.49-4.02.6-1.53.9-3.18.9-4.94v-.09c0-1.76-.3-3.42-.9-4.96s-1.45-2.89-2.54-4.04-2.38-2.06-3.86-2.74-3.11-1.01-4.88-1.01-3.39.33-4.87.99c-1.49.66-2.76 1.57-3.82 2.71-1.06 1.15-1.89 2.48-2.49 4.01s-.9 3.18-.9 4.94v.09c0 1.77.3 3.42.9 4.96.6 1.55 1.45 2.89 2.54 4.04s2.38 2.06 3.86 2.74c1.49.68 3.11 1.02 4.88 1.02zm-.09 3.22c-2.35 0-4.49-.43-6.42-1.28s-3.58-2.01-4.96-3.46c-1.38-1.46-2.45-3.15-3.2-5.07-.75-1.93-1.13-3.95-1.13-6.07v-.09c0-2.12.38-4.15 1.15-6.09.76-1.94 1.84-3.64 3.22-5.1s3.04-2.62 4.99-3.49c1.94-.87 4.09-1.3 6.44-1.3s4.49.43 6.42 1.28 3.58 2.01 4.96 3.46c1.38 1.46 2.45 3.15 3.2 5.07.75 1.93 1.13 3.95 1.13 6.07.03.03.03.06 0 .09 0 2.12-.38 4.15-1.15 6.09-.76 1.94-1.84 3.64-3.22 5.1s-3.04 2.62-4.99 3.49c-1.94.87-4.09 1.3-6.44 1.3zm63.67-3.66c2.35 0 4.19-.48 5.54-1.46 1.35-.97 2.02-2.32 2.02-4.06v-.09c0-1.68-.69-2.98-2.07-3.9-1.38-.93-3.42-1.39-6.12-1.39h-9.73v10.9h10.35zm-1.24-14.03c2.11 0 3.82-.46 5.13-1.38 1.3-.93 1.96-2.29 1.96-4.11v-.09c0-1.52-.59-2.74-1.76-3.65-1.18-.9-2.86-1.36-5.06-1.36h-9.38v10.59zm-12.59-13.72h13.13c1.76 0 3.32.24 4.68.73 1.37.49 2.49 1.16 3.37 2 1.32 1.38 1.99 3.03 1.99 4.94v.09c0 1-.14 1.89-.42 2.66-.28.78-.65 1.46-1.12 2.03s-.99 1.06-1.57 1.45c-.57.4-1.17.73-1.78.99.9.26 1.76.61 2.57 1.04s1.51.94 2.09 1.53c.59.59 1.06 1.29 1.41 2.1.35.82.53 1.75.53 2.81v.09c0 1.32-.27 2.52-.8 3.56s-1.28 1.93-2.26 2.65c-.99.73-2.17 1.28-3.54 1.66-1.38.38-2.91.57-4.58.57h-13.7v-30.89zm58.83 0h3.49v30.89h-3.49zm39.2 0h22.33v3.13h-18.84v10.63h16.86v3.13h-16.86v10.85h19.06v3.13h-22.55v-30.89zm69.23 15.75c1.15 0 2.21-.15 3.18-.44.98-.3 1.82-.71 2.52-1.26.71-.54 1.27-1.21 1.66-1.99.4-.78.59-1.67.59-2.67v-.09c0-1.91-.69-3.4-2.08-4.48-1.38-1.07-3.33-1.61-5.84-1.61h-9.55v12.53h9.51zm-12.99-15.75h13.28c1.91 0 3.61.27 5.1.82 1.49.54 2.71 1.3 3.69 2.27.76.76 1.35 1.66 1.76 2.69s.62 2.16.62 3.4v.09c0 1.29-.21 2.45-.62 3.46s-.99 1.9-1.74 2.65-1.64 1.37-2.67 1.85-2.15.83-3.35 1.04l9.49 12.62h-4.28l-8.96-12h-8.82v12h-3.49v-30.89zm58.57 0h3.27l19.46 24.75v-24.75h3.4v30.89h-2.78l-19.94-25.33v25.33h-3.4v-30.89zm75.96 28.19c1.76 0 3.39-.33 4.88-.99 1.48-.66 2.76-1.57 3.82-2.71 1.06-1.15 1.89-2.48 2.49-4.02.6-1.53.9-3.18.9-4.94v-.09c0-1.76-.3-3.42-.9-4.96s-1.45-2.89-2.54-4.04-2.38-2.06-3.86-2.74-3.11-1.01-4.88-1.01-3.39.33-4.87.99c-1.49.66-2.76 1.57-3.82 2.71-1.06 1.15-1.89 2.48-2.49 4.01s-.9 3.18-.9 4.94v.09c0 1.77.3 3.42.9 4.96.6 1.55 1.45 2.89 2.54 4.04s2.38 2.06 3.86 2.74c1.49.68 3.11 1.02 4.88 1.02zm-.09 3.22c-2.35 0-4.49-.43-6.42-1.28s-3.58-2.01-4.96-3.46c-1.38-1.46-2.45-3.15-3.2-5.07-.75-1.93-1.13-3.95-1.13-6.07v-.09c0-2.12.38-4.15 1.15-6.09s1.84-3.64 3.22-5.1 3.04-2.62 4.99-3.49c1.94-.87 4.09-1.3 6.44-1.3s4.49.43 6.42 1.28 3.58 2.01 4.96 3.46c1.38 1.46 2.45 3.15 3.2 5.07.75 1.93 1.13 3.95 1.13 6.07.03.03.03.06 0 .09 0 2.12-.38 4.15-1.15 6.09s-1.84 3.64-3.22 5.1-3.04 2.62-4.99 3.49c-1.94.87-4.09 1.3-6.44 1.3zm102.78-31.41h3.53l11.25 16.85 11.25-16.85h3.53v30.89h-3.48v-25.02l-11.25 16.55h-.18l-11.25-16.5v24.97h-3.4zm77.32 31.37c-1.91 0-3.65-.29-5.23-.86-1.57-.57-2.93-1.43-4.06-2.56s-2.01-2.54-2.63-4.21c-.62-1.68-.93-3.6-.93-5.78v-17.96h3.49v17.74c0 3.35.83 5.93 2.49 7.72s3.98 2.69 6.95 2.69 5.12-.85 6.79-2.56c1.68-1.71 2.52-4.25 2.52-7.63v-17.96h3.49v17.69c0 2.26-.31 4.25-.93 5.96s-1.49 3.13-2.62 4.28-2.49 2.01-4.06 2.58-3.33.86-5.27.86zm47.81-31.37h3.27l19.46 24.75v-24.75h3.4v30.89h-2.78l-19.94-25.33v25.33h-3.4v-30.89zm61.84 0h3.49v30.89h-3.49zm53.32 31.41c-2.24 0-4.29-.41-6.18-1.24-1.88-.82-3.52-1.95-4.9-3.38s-2.46-3.11-3.24-5.05-1.17-4.02-1.17-6.22v-.09c0-2.18.39-4.24 1.17-6.18s1.86-3.64 3.24-5.1 3.03-2.6 4.94-3.44 4-1.26 6.27-1.26c1.41 0 2.68.12 3.82.35 1.13.24 2.18.57 3.16.99.97.43 1.87.94 2.69 1.55.82.6 1.62 1.27 2.38 2.01l-2.38 2.56c-1.32-1.24-2.74-2.25-4.26-3.04-1.51-.8-3.33-1.19-5.45-1.19-1.71 0-3.29.32-4.74.97-1.46.65-2.72 1.54-3.8 2.69-1.07 1.15-1.91 2.49-2.52 4.04-.6 1.54-.9 3.2-.9 4.96v.09c0 1.79.3 3.46.9 5.01.6 1.54 1.44 2.89 2.52 4.04 1.07 1.15 2.34 2.05 3.8 2.71s3.04.99 4.74.99c2.12 0 3.94-.39 5.47-1.17s3.03-1.87 4.5-3.29l2.29 2.25c-.8.82-1.63 1.57-2.49 2.23s-1.8 1.23-2.8 1.7-2.07.84-3.22 1.1-2.43.4-3.84.4zm45.42-31.41h3.49v30.89h-3.49zm50.34 16.85c1.26 0 2.43-.16 3.47-.48 1.05-.32 1.95-.8 2.7-1.4s1.33-1.32 1.73-2.15c.4-.82.6-1.76.6-2.79v-.09c0-2.21-.76-3.89-2.28-5.02-1.52-1.14-3.53-1.71-6.04-1.71h-7.83v13.63h7.66zm-11.14-16.85h11.56c1.73 0 3.32.23 4.74.68 1.43.46 2.65 1.1 3.66 1.94 1.02.84 1.79 1.86 2.34 3.07.54 1.21.82 2.57.82 4.1v.09c0 1.68-.32 3.14-.97 4.39s-1.52 2.3-2.62 3.15-2.39 1.49-3.86 1.92-3.03.64-4.68.64h-7.5v10.9h-3.49v-30.89zm76.18 19.59-7.02-15.75-7.06 15.75zm-8.61-19.81h3.27l14.08 31.11h-3.75l-3.62-8.16h-16.81l-3.66 8.16h-3.57l14.07-31.11zm50.1.22h3.49v27.67h17.38v3.22h-20.87z" fill="#1f140f"/></g></svg>