<svg viewBox="0 0 869.18 870.65" xmlns="http://www.w3.org/2000/svg"><path d="m651.61 651.61v-488.43l-325.99 244.03z" fill="#ffbd44"/><path d="m217.2 651.61v-325.62l434.41 325.62z" fill="#dd8b2d"/><path d="m217.2 163.18v-163.18h434.41l-325.99 244.4z" fill="#807870"/><g fill="#988c87"><path d="m134.88 848.6v-9.92c0-1.47-.37-2.57-1.1-2.94-.74-.74-1.84-.74-3.68-1.1v-1.84h14.7v1.84c-1.47 0-2.94.37-3.31 1.1-.37.74-1.1 1.47-1.1 2.94v24.62c0 1.47.37 2.57 1.1 2.94.74.74 1.84 1.1 3.31 1.1v1.84h-14.7v-1.84c1.84 0 2.94-.37 3.68-1.1.74-.74 1.1-1.47 1.1-2.94v-11.76h-16.17v11.76c0 1.47.37 2.57 1.1 2.94.74.74 1.84 1.1 3.68 1.1v1.84h-14.7v-1.84c1.47 0 2.94-.37 3.31-1.1.74-.74 1.1-1.47 1.1-2.94v-24.62c0-1.47-.37-2.57-1.1-2.94-.74-.74-1.84-1.1-3.31-1.1v-1.84h14.7v1.84c-1.84 0-2.94.37-3.68 1.1s-1.1 1.47-1.1 2.94v9.92z"/><path d="m175.67 869.91c-2.57 0-4.78-.37-6.98-1.47-2.21-.74-4.04-2.21-5.88-3.68-1.84-1.84-2.94-3.68-4.04-6.25s-1.47-4.78-1.47-7.72c0-2.57.37-5.15 1.47-7.72 1.1-2.21 2.21-4.41 4.04-6.25 1.84-1.84 3.68-2.94 5.88-4.04 2.21-.74 4.41-1.47 6.98-1.47s4.78.37 6.98 1.47c2.21.74 4.04 2.21 5.88 4.04 1.84 1.84 3.31 3.68 4.04 6.25 1.1 2.21 1.47 4.78 1.47 7.72 0 2.57-.37 5.15-1.47 7.72s-2.21 4.41-4.04 6.25c-1.47 1.84-3.68 2.94-5.88 3.68-2.21 1.1-4.78 1.47-6.98 1.47m0-2.57c3.68 0 6.62-1.47 8.82-4.41 2.21-2.94 3.31-6.98 3.31-12.13s-1.1-9.19-3.31-12.13-5.15-4.41-8.82-4.41-6.62 1.47-8.82 4.41c-2.21 2.94-3.31 6.98-3.31 12.13s1.1 9.19 3.31 12.13 5.15 4.41 8.82 4.41"/><path d="m237.42 832.79.37 8.82h-1.84c-.37-2.21-1.1-4.04-2.57-4.78-1.1-.74-2.94-1.47-5.51-1.47h-3.68v27.56c0 1.47.37 2.57 1.1 2.94.74.37 1.84.74 3.68 1.1v1.84h-15.07v-1.84c1.84 0 2.94-.37 3.68-1.1s1.1-1.47 1.1-2.94v-27.56h-3.68c-2.57 0-4.41.37-5.51 1.47s-1.84 2.57-2.57 4.78h-1.84l.37-8.82z"/><path d="m251.01 868.81v-1.84c1.47 0 2.94-.37 3.31-1.1.74-.74 1.1-1.47 1.1-2.94v-24.62c0-1.47-.37-2.57-1.1-2.94-.74-.74-1.84-1.1-3.31-1.1v-1.84h29.4v8.09h-1.84c-.37-1.84-.74-3.31-1.84-4.04-1.1-.74-2.57-1.1-5.15-1.1h-10.66v13.23h5.88c1.84 0 2.94-.37 3.68-1.1.74-.74 1.1-1.84 1.47-3.68h1.84v12.5h-1.84c0-1.84-.74-3.31-1.47-4.04-.74-.74-1.84-1.1-3.68-1.1h-5.88v10.66c0 1.84.37 2.94.74 3.68.74.37 1.84.74 3.68.74h7.35c2.21 0 3.68-.37 4.78-1.47s2.21-2.57 2.94-4.78h1.84l-1.47 8.82h-29.77z"/><path d="m295.12 868.81v-1.84c1.47 0 2.94-.37 3.31-1.1.74-.74 1.1-1.47 1.1-2.94v-24.62c0-1.47-.37-2.57-1.1-2.94-.74-.74-1.84-1.1-3.31-1.1v-1.84h15.07v1.84h-.37c-1.84 0-2.94.37-3.68.74-.74.74-1.1 1.47-1.1 2.94v23.15c0 1.84.37 2.94.74 3.31.74.37 1.84.74 4.04.74h5.15c2.21 0 4.04-.37 5.51-1.47s2.57-2.94 3.31-5.51h1.84l-1.84 9.56h-28.67v1.1z"/><path d="m386.63 862.56c1.47 1.47 2.57 2.57 3.68 2.94 1.1.74 2.21 1.1 2.94 1.1s1.47 0 2.21-.37 1.47-.74 2.21-1.1l.74 1.1c-1.47 1.47-2.94 2.21-4.41 2.94-1.47.74-2.94 1.1-4.04 1.1s-2.57-.37-3.68-.74c-1.1-.74-2.57-1.47-3.68-2.94-2.21 1.47-4.04 2.57-5.51 2.94-1.84.74-3.31 1.1-4.78 1.1-3.31 0-5.88-.74-8.09-2.57-2.21-1.84-2.94-4.04-2.94-6.98 0-2.57.74-4.41 2.21-6.25s3.68-3.31 6.62-4.78c-.74-1.47-1.47-2.94-2.21-4.41-.37-1.47-.74-2.57-.74-3.68 0-2.57.74-4.78 2.57-6.62 1.84-1.84 4.04-2.57 6.62-2.57s4.41.74 5.88 2.21 2.57 3.31 2.57 5.51c0 1.84-.74 3.68-2.21 5.15s-3.68 2.94-6.98 4.41c1.47 2.21 2.94 4.41 4.41 6.25s3.31 4.04 4.78 5.51c1.1-1.47 2.21-2.57 2.94-4.04.74-1.1 1.1-2.21 1.1-2.94s-.37-1.47-.74-1.84-1.47-.74-2.57-.74v-2.21h12.13v1.47c-.74 0-1.47.37-2.21.74s-1.47 1.1-2.21 1.84c0 0-.37.37-.74.74-1.47 2.94-3.31 5.51-5.88 7.72m-15.06-11.38c-1.84 1.1-2.94 2.21-3.68 3.31s-1.1 2.57-1.1 4.41c0 2.21.74 4.04 2.57 5.88 1.47 1.47 3.68 2.21 5.88 2.21 1.1 0 2.21-.37 3.31-.74s2.21-1.1 3.31-1.84c-1.84-1.84-3.31-3.68-5.15-5.88-1.84-2.21-3.68-4.41-5.15-7.35m3.32-4.41c2.21-1.1 3.68-2.21 4.78-3.68 1.1-1.1 1.47-2.57 1.47-4.04s-.37-2.57-1.1-3.31c-.74-.74-1.84-1.1-3.31-1.1s-2.57.37-3.31 1.47-1.47 2.21-1.47 4.04c0 1.1.37 2.21.74 3.31.37.74 1.1 1.84 2.21 3.31"/><path d="m434.41 868.81v-1.84c1.47 0 2.94-.37 3.31-1.1.74-.74 1.1-1.47 1.1-2.94v-24.62c0-1.47-.37-2.57-1.1-2.94-.74-.74-1.84-1.1-3.31-1.1v-1.84h17.27c4.04 0 7.35.74 9.56 2.21s3.31 3.68 3.31 6.25c0 2.21-.74 4.04-2.21 5.15-1.47 1.47-3.68 2.57-6.25 3.31 3.31.37 5.88 1.47 7.72 2.94s2.57 3.68 2.57 6.25c0 2.94-1.1 5.15-3.68 6.98-2.57 1.84-5.51 2.94-9.56 2.94h-18.74v.37zm9.92-20.21h4.78c2.94 0 5.15-.74 6.62-1.84s2.21-2.94 2.21-5.15-.74-3.68-2.21-4.78-3.68-1.47-6.25-1.47h-5.51v13.23h.37zm0 2.94v11.03c0 1.84.37 2.94.74 3.31s1.84.74 4.04.74c3.31 0 5.88-.74 7.72-1.84s2.57-2.94 2.57-5.51c0-2.21-.74-4.04-2.21-5.51s-3.68-1.84-6.62-1.84h-6.25v-.37z"/><path d="m507.54 838.67c0-1.47-.37-2.57-1.1-3.31-.74-.74-1.84-1.1-3.68-1.1v-1.84h12.13v1.84c-1.47 0-2.57.37-3.31 1.1-.74.74-1.1 1.84-1.1 3.31v16.17c0 5.15-1.1 8.82-3.68 11.03-2.57 2.57-5.88 3.68-11.03 3.68-4.78 0-8.45-1.1-11.03-3.31-2.57-2.21-3.68-5.51-3.68-9.92v-18.01c0-1.47-.37-2.57-1.1-2.94-.74-.74-1.84-.74-3.31-1.1v-1.84h14.7v1.84c-1.84 0-2.94.37-3.68 1.1-.74.74-1.1 1.47-1.1 2.94v17.64c0 3.68.74 6.25 2.57 8.09 1.47 1.84 4.04 2.57 7.72 2.57s6.25-1.1 8.09-2.94 2.57-4.78 2.57-8.82v-16.17z"/><path d="m529.96 869.55h-1.84l-.74-11.76h1.84c1.1 3.31 2.94 5.51 4.78 6.98s4.41 2.21 6.98 2.21 4.41-.74 5.88-1.84 2.21-2.94 2.21-4.78c0-1.47-.37-2.94-1.47-4.04s-2.94-2.21-5.51-2.94l-4.04-1.47c-3.68-1.1-5.88-2.57-7.35-4.04s-2.21-3.31-2.21-5.88c0-2.94 1.1-5.51 3.31-7.35s5.15-2.94 8.82-2.94c1.47 0 3.31.37 5.15 1.1 1.84.74 2.94 1.1 2.94 1.1.37 0 .74 0 1.1-.37.37-.37.74-.74.74-1.47h1.84l.37 10.66h-1.47c-.74-2.57-2.21-4.78-4.04-5.88-1.84-1.47-4.04-2.21-6.62-2.21-2.21 0-4.04.37-5.15 1.47-1.47 1.1-1.84 2.57-1.84 4.04s.37 2.57 1.47 3.31c1.1 1.1 2.57 1.84 5.15 2.57l4.41 1.47c3.68 1.47 6.62 2.94 8.09 4.41s2.21 3.68 2.21 6.25c0 3.31-1.1 5.88-3.68 8.09-2.57 2.21-5.51 3.31-9.19 3.31-2.21 0-4.41-.37-6.62-1.1-2.21-.74-3.31-1.1-3.31-1.1-.37 0-.74 0-1.1.37-.37.37-.74 1.1-1.1 1.84"/><path d="m579.21 862.93c0 1.47.37 2.57 1.1 2.94.74.74 1.84.74 3.68 1.1v1.84h-15.07v-1.84c1.84 0 2.94-.37 3.68-1.1.74-.74 1.1-1.47 1.1-2.94v-24.62c0-1.47-.37-2.57-1.1-2.94-.74-.74-1.84-.74-3.68-1.1v-1.84h15.07v1.84c-1.84 0-2.94.37-3.68 1.1-.74.74-1.1 1.47-1.1 2.94z"/><path d="m604.2 862.93c0 1.47.37 2.57 1.1 3.31.74.74 1.84 1.1 3.31 1.1h.37v1.84h-12.5v-1.84c1.47 0 2.57-.37 3.31-1.1.74-.74 1.1-1.84 1.1-3.31v-26.09c-.37-.74-1.1-1.1-1.84-1.47s-1.47-.37-2.57-.74v-1.84h9.56l21.68 26.46v-20.58c0-1.47-.37-2.57-1.1-3.31-.74-.74-1.84-1.1-3.68-1.1v-1.84h12.5v1.84c-1.47 0-2.57.37-3.31 1.1-.74.74-1.1 1.84-1.1 3.31v30.5h-1.84l-24.62-30.5v24.26z"/><path d="m646.83 868.81v-1.84c1.47 0 2.94-.37 3.31-1.1.74-.74 1.1-1.47 1.1-2.94v-24.62c0-1.47-.37-2.57-1.1-2.94-.74-.74-1.84-1.1-3.31-1.1v-1.84h29.4v8.09h-1.84c-.37-1.84-.74-3.31-1.84-4.04-1.1-.74-2.57-1.1-5.15-1.1h-10.66v13.23h5.51c1.84 0 2.94-.37 3.68-1.1.74-.74 1.1-1.84 1.47-3.68h1.84v12.5h-1.84c0-1.84-.74-3.31-1.47-4.04-.74-.74-1.84-1.1-3.68-1.1h-5.88v10.66c0 1.84.37 2.94.74 3.68.74.37 1.84.74 3.68.74h7.35c2.21 0 3.68-.37 4.78-1.47s2.21-2.57 2.94-4.78h1.84l-1.47 8.82h-29.4z"/><path d="m694.24 869.55h-1.84l-.74-11.76h1.84c1.1 3.31 2.94 5.51 4.78 6.98s4.41 2.21 6.98 2.21 4.41-.74 5.88-1.84 2.21-2.94 2.21-4.78c0-1.47-.37-2.94-1.47-4.04s-2.94-2.21-5.51-2.94l-4.04-1.47c-3.68-1.1-5.88-2.57-7.35-4.04s-2.21-3.31-2.21-5.88c0-2.94 1.1-5.51 3.31-7.35s5.15-2.94 8.82-2.94c1.47 0 3.31.37 5.15 1.1 1.84.74 2.94 1.1 2.94 1.1.37 0 .74 0 1.1-.37.37-.37.74-.74.74-1.47h1.84l.37 10.66h-1.47c-.74-2.57-2.21-4.78-4.04-5.88-1.84-1.47-4.04-2.21-6.62-2.21-2.21 0-4.04.37-5.15 1.47-1.47 1.1-1.84 2.57-1.84 4.04s.37 2.57 1.47 3.31c1.1 1.1 2.57 1.84 5.15 2.57l4.41 1.47c3.68 1.47 6.62 2.94 8.09 4.41s2.21 3.68 2.21 6.25c0 3.31-1.1 5.88-3.68 8.09-2.57 2.21-5.51 3.31-9.19 3.31-2.21 0-4.41-.37-6.62-1.1-2.21-.74-3.31-1.1-3.31-1.1-.37 0-.74 0-1.1.37-.74.37-1.1 1.1-1.1 1.84"/><path d="m735.4 869.55h-1.84l-.74-11.76h1.84c1.1 3.31 2.94 5.51 4.78 6.98s4.41 2.21 6.98 2.21 4.41-.74 5.88-1.84 2.21-2.94 2.21-4.78c0-1.47-.37-2.94-1.47-4.04s-2.94-2.21-5.51-2.94l-4.04-1.47c-3.68-1.1-5.88-2.57-7.35-4.04s-2.21-3.31-2.21-5.88c0-2.94 1.1-5.51 3.31-7.35s5.15-2.94 8.82-2.94c1.47 0 3.31.37 5.15 1.1 1.84.74 2.94 1.1 2.94 1.1.37 0 .74 0 1.1-.37.37-.37.74-.74.74-1.47h1.84l.37 10.66h-1.47c-.74-2.57-2.21-4.78-4.04-5.88-1.84-1.47-4.04-2.21-6.62-2.21-2.21 0-4.04.37-5.15 1.47-1.47 1.1-1.84 2.57-1.84 4.04s.37 2.57 1.47 3.31c1.1 1.1 2.57 1.84 5.15 2.57l4.41 1.47c3.68 1.47 6.62 2.94 8.09 4.41s2.21 3.68 2.21 6.25c0 3.31-1.1 5.88-3.68 8.09-2.57 2.21-5.51 3.31-9.19 3.31-2.21 0-4.41-.37-6.62-1.1-2.21-.74-3.31-1.1-3.31-1.1-.37 0-.74 0-1.1.37-.37.37-.73 1.1-1.1 1.84"/></g><g fill="#807870"><path d="m30.87 796.41-30.87-72.4h12.5l23.88 56.96 23.89-56.96h12.13l-30.87 72.4z"/><path d="m133.41 796.41v-72.03h52.55v10.29h-41.53v20.21h29.77v10.29h-29.77v20.58h41.53v10.66z"/><path d="m248.07 796.41v-72.03h32.71c7.35 0 13.23 1.84 17.27 5.51 4.04 3.68 6.25 8.82 6.25 14.7 0 9.92-5.88 17.64-15.8 19.85l22.79 31.61h-13.6l-21.68-30.5h-16.54v30.5h-11.39v.37zm11.4-40.43h20.95c8.09 0 13.23-3.68 13.23-10.66 0-6.62-4.78-10.66-13.23-10.66h-20.95z"/><path d="m363.84 724.38h59.17v10.29h-23.89v61.74h-11.39v-61.74h-23.89z"/><path d="m484.76 724.38h11.39v72.03h-11.39z"/><path d="m571.86 787.22c-7.35-6.98-10.66-16.17-10.66-26.83s3.68-19.85 10.66-26.83c7.35-6.98 16.17-10.66 27.2-10.66 7.35 0 13.97 1.47 19.48 4.78v11.39c-5.88-3.68-12.5-5.51-19.48-5.51-7.35 0-13.97 2.57-18.74 7.72-5.15 5.15-7.35 11.39-7.35 19.11s2.57 14.33 7.72 19.11c5.15 5.15 11.39 7.35 19.11 7.35s15.07-2.21 20.58-6.62v11.39c-5.88 3.68-12.86 5.88-20.95 5.88-11.03 0-20.21-3.31-27.56-10.29"/><path d="m690.2 787.22c-7.35-6.98-10.66-16.17-10.66-26.83s3.68-19.85 10.66-26.83c7.35-6.98 16.17-10.66 27.2-10.66 7.35 0 13.97 1.47 19.48 4.78v11.39c-5.88-3.68-12.5-5.51-19.48-5.51-7.35 0-13.97 2.57-18.74 7.72-5.15 5.15-7.35 11.39-7.35 19.11s2.57 14.33 7.72 19.11c5.15 5.15 11.39 7.35 19.11 7.35s15.07-2.21 20.58-6.62v11.39c-5.88 3.68-12.86 5.88-20.95 5.88-11.03 0-20.21-3.31-27.56-10.29"/><path d="m794.94 796.41 31.61-72.4h11.03l31.61 72.4h-12.13l-7.72-18.01h-34.18l-7.72 18.01zm23.52-27.93h26.46l-13.23-30.14z"/></g></svg>