<svg viewBox="0 0 8.53 9.23" xmlns="http://www.w3.org/2000/svg" xmlns:xlink="http://www.w3.org/1999/xlink"><linearGradient id="a" gradientUnits="userSpaceOnUse" x1=".42" x2="8.12" y1="-.64" y2="4.74"><stop offset="0" stop-color="#fc0"/><stop offset=".35" stop-color="#fc0"/><stop offset=".59" stop-color="#deb200"/><stop offset=".7" stop-color="#c39c04"/><stop offset="1" stop-color="#3d3217"/></linearGradient><linearGradient id="b" gradientUnits="userSpaceOnUse" x1="1.11" x2=".41" y1="25.16" y2="-14.67"><stop offset="0" stop-color="#56a7b2"/><stop offset=".3" stop-color="#4d959e"/><stop offset=".64" stop-color="#3f7175"/><stop offset=".93" stop-color="#293938"/><stop offset="1" stop-color="#293938"/></linearGradient><linearGradient id="c" gradientUnits="userSpaceOnUse" x1="9.06" x2="1.82" y1="4.39" y2="8.91"><stop offset="0" stop-color="#56a7b2"/><stop offset=".27" stop-color="#56a7b2"/><stop offset=".55" stop-color="#4d959e"/><stop offset=".71" stop-color="#3f7175"/><stop offset=".93" stop-color="#293938"/><stop offset="1" stop-color="#293938"/></linearGradient><g fill-rule="evenodd"><path d="m1.38.91c-.25-.13-.44-.25-.91-.16.67-.73 1.42-.98 2.33-.51l4.58 2.64c.5.35.64.89.37 1.15l-.55.46c0-.13-.07-.24-.21-.32z" fill="url(#a)"/><path d="m1.3 8.37c.01.29 0 .51.32.87-.96-.21-1.56-.73-1.61-1.76v-5.29c.05-.61.46-1.03.81-.93l.62.31c-.11.07-.13.14-.13.31v6.49zm-.85-6.11c-.06 0-.1.04-.1.1v.2c0 .05.05.1.1.1h.41c.06 0 .1-.04.1-.1v-.2c0-.05-.05-.1-.1-.1zm0 1.01c-.06 0-.1.04-.1.1v.2c0 .05.05.1.1.1h.41c.06 0 .1-.04.1-.1v-.2c0-.05-.05-.1-.1-.1zm0 1.03c-.06 0-.1.04-.1.1v.2c0 .05.05.1.1.1h.41c.06 0 .1-.04.1-.1v-.2c0-.05-.05-.1-.1-.1zm0 1.01c-.06 0-.1.04-.1.1v.2c0 .05.05.1.1.1h.41c.06 0 .1-.04.1-.1v-.2c0-.05-.05-.1-.1-.1zm0 .99c-.06 0-.1.04-.1.1v.2c0 .05.05.1.1.1h.41c.06 0 .1-.04.1-.1v-.2c0-.05-.05-.1-.1-.1zm0 1.01c-.06 0-.1.04-.1.1v.2c0 .05.05.1.1.1h.41c.06 0 .1-.04.1-.1v-.2c0-.05-.05-.1-.1-.1z" fill="url(#b)"/><path d="m7.8 4.66c.24-.15.44-.25.59-.71.3.94.14 1.71-.72 2.27l-4.58 2.64c-.56.25-1.13.11-1.21-.25l-.04-.69c.11.06.19.04.33-.04l5.63-3.23z" fill="url(#c)"/><path d="m5.91 4.62-3.65-2.09v4.17z" fill="#63c3d1"/></g></svg>