<svg viewBox="0 0 1066.65 400.25" xmlns="http://www.w3.org/2000/svg"><path d="m1004.28 78.91 62.37 123s-27.04 94.65-166.18 78.07l-27.77-65.37s128.08-27.1 131.57-135.7z" fill="#9c3529"/><path d="m938.41 72.8 62.37 123s13.52 69.12-100.32 84.18l-27.77-65.37s94.93-29.71 65.71-141.81z" fill="#eb943e"/><path d="m886.95 89.81 60.63 120.82s23.12 54.96-47.11 69.35l-27.77-65.37s43.47-34.19 14.24-124.8z" fill="#eea44a"/><path d="m886.95 89.81 49.75 98.96s-10.19 12.37-63.99 25.84c0 0 43.47-34.19 14.24-124.8z" fill="#f0ca3d"/><path d="m939.29 72.8 38.95 78.53s-44.34 56.66-105.53 63.28c0 0 92.75-27.95 66.58-141.81z" fill="#e9883a"/><g fill="#933924"><path d="m543.42 307.36v24.3c0 .95-.11 1.85-.32 2.65-.21.79-.5 1.48-.86 2.05-.34.54-.75.97-1.21 1.27-.41.28-.84.41-1.32.41-.64 0-1.4.43-1.4 1.64 0 .39.1.73.31 1.05.38.51.84.58 1.08.58.96 0 1.88-.29 2.71-.86.77-.53 1.46-1.26 2.03-2.15.55-.87.98-1.88 1.29-3.03.31-1.13.47-2.34.47-3.61v-24.3c0-2.26-2.79-2.26-2.79 0z"/><path d="m566.55 306.92c-.26-.96-.87-1.17-1.22-1.2l-.11-.42-.12.42c-.31.03-.95.21-1.25 1.17l-6.77 24.76c-.11.35-.12.7-.03 1.03.1.36.29.67.64.95.23.15.47.22.72.22l.45-.04.24-.16c.23-.15.52-.45.61-.91l2.09-7.67h6.8l2.11 7.6c.11.53.39.82.63.97l.39.2h.29c.25 0 .5-.07.8-.28.28-.22.47-.52.55-.9.09-.34.08-.69-.02-1l-6.81-24.75zm-3.85 14.88 2.51-9.1 2.49 9.1h-4.99z"/><path d="m591.19 320.75c.29-.11.57-.26.84-.45.6-.42 1.15-1 1.62-1.71.45-.69.79-1.48 1.05-2.38s.39-1.85.39-2.84-.13-1.94-.39-2.85-.62-1.7-1.05-2.37c-.46-.7-1-1.28-1.64-1.71-.68-.47-1.42-.71-2.19-.71h-4.45c-.7 0-1.4.51-1.4 1.64v24.88c0 1.13.7 1.63 1.4 1.63s1.4-.51 1.4-1.63v-11.23h1.43l4.83 11.99c.16.34.4.59.68.73l.33.15h.24c.34 0 .67-.15.89-.39.24-.24.77-.9.33-1.97l-4.3-10.75zm.29-10.66c.24.38.45.86.6 1.4.15.56.23 1.19.23 1.87s-.08 1.26-.23 1.83c-.15.55-.35 1.03-.6 1.44-.23.38-.5.66-.78.85-.26.17-.53.25-.82.25h-3.1v-8.73h3.1c.29 0 .55.08.82.25.3.2.56.47.79.84z"/><path d="m618.9 309.99c-.82-1.28-1.8-2.32-2.92-3.08-1.18-.8-2.46-1.2-3.79-1.2h-4.74c-.24 0-.72.08-1.08.6-.21.29-.32.64-.32 1.04v24.88c0 .4.11.75.31 1.04.37.51.84.6 1.08.6h4.74c1.34 0 2.61-.4 3.79-1.19 1.13-.76 2.11-1.8 2.92-3.08.79-1.26 1.43-2.74 1.88-4.42.46-1.66.68-3.47.68-5.35s-.23-3.7-.68-5.38c-.46-1.68-1.09-3.17-1.88-4.45zm-6.71 20.6h-3.34v-21.6h3.34c.83 0 1.6.24 2.36.75.79.51 1.49 1.26 2.1 2.19.62.96 1.11 2.13 1.48 3.47.37 1.35.56 2.82.56 4.41s-.19 2.97-.56 4.31c-.37 1.32-.86 2.49-1.48 3.47-.6.95-1.31 1.71-2.11 2.24-.76.51-1.53.76-2.35.76z"/><path d="m631.63 307.36v24.88c0 1.13.7 1.63 1.4 1.63s1.4-.51 1.4-1.63v-24.88c0-2.25-2.8-2.27-2.8 0z"/><path d="m656.42 307.36v18.18l-8.3-18.77c-.11-.29-.28-.53-.5-.72-.23-.21-.51-.32-.82-.32h-.15s-.41-.92-.41-.92v1.04l-.14.1c-.45.32-.7.82-.7 1.41v24.88c0 2.26 2.8 2.24 2.8 0v-18.13l8.38 18.96c.38.72.99.8 1.22.8h.14l.42.96v-1.08c.47-.2.83-.69.83-1.51v-24.88c0-2.26-2.79-2.26-2.79 0z"/><path d="m696.5 309.99c-.82-1.29-1.8-2.32-2.92-3.08-1.17-.8-2.45-1.2-3.79-1.2h-4.74c-.24 0-.72.08-1.08.6-.21.29-.32.64-.32 1.04v24.88c0 .4.11.75.31 1.04.37.51.84.6 1.09.6h4.74c1.34 0 2.61-.4 3.79-1.19 1.12-.76 2.1-1.8 2.92-3.08.79-1.26 1.43-2.74 1.88-4.42.46-1.66.69-3.47.69-5.35s-.23-3.7-.69-5.38-1.09-3.17-1.88-4.45zm-6.71 20.6h-3.34v-21.6h3.34c.83 0 1.6.24 2.36.75.79.51 1.49 1.26 2.1 2.19.62.96 1.12 2.13 1.48 3.47.37 1.35.55 2.83.55 4.41s-.19 2.97-.55 4.31c-.36 1.31-.87 2.49-1.48 3.48-.6.95-1.31 1.7-2.1 2.24-.76.51-1.53.76-2.35.76z"/><path d="m718.67 309c.69 0 1.39-.51 1.39-1.64s-.7-1.64-1.39-1.64h-8.36c-.69 0-1.4.51-1.4 1.64v24.88c0 1.13.7 1.63 1.4 1.63h8.36c.69 0 1.39-.51 1.39-1.63s-.7-1.64-1.39-1.64h-6.96v-9.34h4.14c.7 0 1.4-.51 1.4-1.64s-.7-1.64-1.4-1.64h-4.14v-8.97h6.96z"/><path d="m753.86 309c.7 0 1.4-.51 1.4-1.64s-.7-1.64-1.4-1.64h-8.35c-.69 0-1.39.51-1.39 1.64v24.88c0 1.13.7 1.63 1.39 1.63h8.35c.7 0 1.4-.51 1.4-1.63s-.7-1.64-1.4-1.64h-6.95v-9.34h4.14c.69 0 1.4-.51 1.4-1.64s-.71-1.64-1.4-1.64h-4.14v-8.97h6.95z"/><path d="m779.53 305.86c-.23-.16-.49-.24-.75-.24l-.42.05-.24.15c-.23.14-.53.42-.65.96l-4.56 19.52-4.58-19.49c-.11-.56-.42-.84-.62-.97l-.4-.21h-.29c-.27 0-.52.09-.8.29-.28.22-.47.53-.56.88-.09.33-.08.7 0 .97l5.89 24.95c.23.83.77 1.08 1.12 1.14l.24 1.04.24-1.04c.33-.07.87-.33 1.09-1.22l5.87-24.81c.11-.33.11-.69.02-1.02-.09-.37-.29-.68-.61-.94z"/><path d="m800.3 309c.69 0 1.39-.51 1.39-1.64s-.7-1.64-1.39-1.64h-8.36c-.69 0-1.39.51-1.39 1.64v24.88c0 1.13.69 1.63 1.39 1.63h8.36c.69 0 1.39-.51 1.39-1.63s-.7-1.64-1.39-1.64h-6.96v-9.34h4.15c.69 0 1.39-.51 1.39-1.64s-.7-1.64-1.39-1.64h-4.15v-8.97h6.96z"/><path d="m823.38 307.36v18.18l-8.3-18.77c-.11-.29-.28-.53-.5-.72-.23-.21-.51-.32-.82-.32h-.16s-.41-.92-.41-.92v1.04l-.14.11c-.45.32-.69.82-.69 1.4v24.88c0 2.25 2.79 2.26 2.79 0v-18.14l8.39 18.97c.39.72.99.8 1.22.8h.14l.42.96v-1.08c.47-.2.84-.69.84-1.51v-24.88c0-2.25-2.8-2.27-2.8 0z"/><path d="m847.47 305.59h-9.52c-.7 0-1.4.51-1.4 1.64s.7 1.64 1.4 1.64h3.36v23.36c0 1.13.7 1.63 1.4 1.63s1.4-.51 1.4-1.63v-23.36h3.37c.69 0 1.39-.51 1.39-1.64s-.7-1.64-1.39-1.64z"/><path d="m872.92 310.02c-.82-1.3-1.81-2.34-2.92-3.1-2.33-1.59-5.21-1.6-7.56 0-1.11.76-2.09 1.8-2.9 3.11-.79 1.26-1.43 2.76-1.88 4.44-.46 1.66-.69 3.47-.69 5.35s.23 3.69.69 5.35c.46 1.68 1.09 3.17 1.88 4.43.82 1.28 1.79 2.32 2.9 3.08 1.17.79 2.44 1.19 3.78 1.19s2.61-.4 3.78-1.19c1.11-.76 2.09-1.79 2.91-3.08.81-1.26 1.44-2.75 1.9-4.43.46-1.67.69-3.48.69-5.35s-.24-3.68-.69-5.35c-.45-1.68-1.09-3.17-1.89-4.45zm-6.7-1.02c.83 0 1.6.24 2.35.75.8.55 1.5 1.3 2.11 2.24.62.98 1.12 2.15 1.48 3.5s.55 2.8.55 4.32-.19 3.01-.55 4.35c-.37 1.33-.87 2.49-1.48 3.44-.6.94-1.31 1.69-2.1 2.23-1.53 1.03-3.24 1.01-4.72 0-.79-.55-1.49-1.3-2.08-2.23-.61-.97-1.11-2.13-1.47-3.45-.37-1.35-.55-2.81-.55-4.35s.18-2.98.55-4.32c.36-1.33.86-2.51 1.48-3.5.59-.95 1.28-1.7 2.06-2.24.75-.51 1.53-.75 2.37-.75z"/><path d="m897.83 322.35c-.26-.87-.64-1.65-1.14-2.32-.49-.66-1.09-1.26-1.8-1.8-.65-.5-1.39-1-2.27-1.53-.39-.22-.82-.47-1.31-.74-.4-.22-.78-.51-1.15-.84-.33-.3-.6-.63-.82-1.01-.18-.31-.27-.69-.27-1.11 0-.77.11-1.43.33-1.95s.49-.95.8-1.27c.3-.32.61-.53.94-.65.6-.23 1-.26 1.61-.13.2.05.42.15.68.29.26.16.52.39.77.68.26.29.51.71.71 1.14.14.44.43.77.93.98l.38.06c.33 0 .8-.13 1.22-.76.33-.53.36-1.17.04-1.85-.34-.66-.73-1.24-1.16-1.72-.43-.5-.87-.89-1.34-1.2s-.95-.55-1.44-.69c-1.22-.39-2.42-.29-3.6.33-.69.37-1.31.87-1.87 1.52-.54.63-.98 1.4-1.32 2.27-.34.88-.52 1.88-.52 2.97 0 .97.2 1.87.6 2.64.38.74.86 1.4 1.44 1.96.56.56 1.18 1.03 1.84 1.41.63.38 1.23.69 1.71.91.54.31 1.04.64 1.53 1 .42.3.8.67 1.12 1.08.29.38.54.86.71 1.39.18.55.27 1.2.27 1.94 0 .8-.11 1.54-.32 2.21s-.5 1.25-.83 1.71-.71.82-1.11 1.05c-.57.35-1.04.48-1.9.15-.36-.14-.71-.33-1.05-.59-.34-.24-.67-.56-.97-.93-.28-.35-.48-.73-.64-1.22-.45-1.14-2.09-1.23-2.59-.05-.18.42-.2.9-.04 1.43.22.73.57 1.41 1.02 2 .42.56.92 1.04 1.46 1.45.54.42 1.13.74 1.74.97.62.23 1.25.34 1.84.34.87 0 1.7-.25 2.47-.75.73-.47 1.36-1.08 1.92-1.85.55-.76.98-1.66 1.3-2.67.31-1 .47-2.11.47-3.27s-.13-2.13-.38-2.97z"/></g><g fill="#231f20"><path d="m504.03 338.02c-6.12 4.32-12.38 7.62-18.79 9.9-6.41 2.27-13.23 3.8-20.46 4.58-7.23.79-14.33.91-21.3.4-6.97-.52-14.2-1.61-21.69-3.25s-14.59-3.6-21.3-5.87c-6.71-2.28-13.49-4.9-20.35-7.89-32.13-14.09-61.57-32.98-88.33-56.69 8.2-1.79 14.46-4.54 18.79-8.27 2.01-1.79 4.06-4.01 6.15-6.66 2.09-2.64 3.67-4.85 4.76-6.59 1.08-1.75 2.74-4.54 4.97-8.39 1.4-2.41 2.42-4.18 3.15-5.45.67-.69 1.33-1.37 2.06-2.05 2.05-1.9 4.17-3.41 6.37-4.53s4.55-1.88 7.05-2.29 4.94-.1 7.33.95c3.35 1.42 6.07 3.74 8.16 6.99 2.09 3.24 3.41 6.8 3.97 10.68s.73 7.71.5 11.51c-.22 3.8-.82 7.34-1.79 10.62.45-1.41 1.61-3.34 3.47-5.76s3.02-4.3 3.47-5.65c2.31-8.05 2.57-15.65.78-22.8.44-.6.82-1.2 1.12-1.79.45-.6.97-1.23 1.57-1.9 1.42-1.41 3.39-2.38 5.93-2.9 2.24-.45 4.41-.17 6.54.84 2.12 1 4.01 2.44 5.65 4.3 6.34 7.16 7.79 19.39 4.36 36.67.23-1.34 1.35-3.22 3.36-5.65 2.01-2.42 3.17-4.34 3.46-5.75.6-2.91 1.05-5.8 1.34-8.66.3-2.87.4-6.14.28-9.79-.11-3.65-.56-6.93-1.34-9.84-.78-2.9-2.16-5.57-4.14-8-1.97-2.42-4.45-4.15-7.44-5.2-5.66-1.79-10.73.82-15.2 7.82-2.46 3.81-4.32 6.86-5.59 9.17-.52-1.71-1.12-3.39-1.79-5.03-1.49-3.57-3.63-6.58-6.43-9s-5.91-3.52-9.34-3.3c-2.01.15-3.99.58-5.92 1.28-1.94.71-3.67 1.53-5.2 2.46s-3.11 2.24-4.75 3.92c-.37.38-.67.7-1.01 1.06.13-.25.22-.42.2-.44-.18.27-.32.49-.49.74-1.06 1.13-2.04 2.2-2.84 3.17-1.12 1.34-2.39 3.09-3.8 5.25-1.42 2.16-2.52 3.89-3.3 5.2-.41.68-.89 1.49-1.43 2.44-2.05 2.15-4.45 4.09-7.25 5.79-1.34.82-3.02 1.57-5.03 2.23-2.01.68-3.69 1.17-5.03 1.46s-3.34.69-5.98 1.17-4.3.8-4.97.95c-6.94 1.34-14.31 2.19-22.14 2.56-7.46-7.6-14.5-15.5-21.13-23.7-28.92-35.48-47.97-71.71-57.14-108.69-4.92-20.2-6.23-40.29-3.91-60.27 1.04-9.69 3.31-19.75 6.82-30.19 1.34-4.03 3.21-8.65 5.59-13.87.74-1.72 3.15-6.11 7.21-13.19 3.52-6.13 6.09-10.41 7.74-12.85-5.3 7.53-10.01 14.79-14.11 21.74-4.29 7.27-8.33 15.02-12.13 23.25-3.8 8.24-6.91 16.71-9.33 25.38-2.43 8.69-4.01 17.43-4.76 26.22-2.68 30.87 4.21 63.85 20.69 98.96 10.96 23.26 25.04 45.18 42.26 65.75-.82-.07-1.53-.15-2.13-.22-15.2-1.79-33.62-6.11-55.23-12.97 5.07-20.58 7.64-41.97 7.72-64.18 0 .75-.41 1.79-1.23 3.13s-1.81 2.76-2.97 4.25c-1.15 1.49-1.84 2.42-2.06 2.79-.23.38-.9 1.33-2.02 2.86s-2.07 2.96-2.85 4.3c-.79 1.34-1.18 2.39-1.18 3.13-.07 13.94-1.16 27.65-3.24 41.15-2.02-.67-4.81-1.6-8.39-2.79-3.58-1.2-6.88-2.3-9.89-3.3-3.02-1-5.87-1.92-8.55-2.73-4.85-1.57-9.43-2.95-13.75-4.14s-9.13-2.37-14.43-3.52-10.27-2.06-14.93-2.73c-4.66-.68-9.58-1.1-14.76-1.29s-10.06-.04-14.65.45-9.22 1.38-13.92 2.68c-4.7 1.31-9.06 3.02-13.08 5.14-4.02 2.13-7.93 4.86-11.74 8.22-3.8 3.36-7.2 7.24-10.17 11.63-9.69 14.09-17.04 28.16-22.03 42.21-4.99 14.06-7.19 28.72-6.6 44 .22 6.18 1.1 12.19 2.63 18.01 1.53 5.81 3.67 11.32 6.43 16.55 2.76 5.21 6.39 9.88 10.9 13.98s9.63 7.23 15.37 9.39c4.99 1.87 10.23 2.86 15.71 2.96 5.48.11 10.7-.44 15.65-1.67 4.96-1.23 10.02-3.06 15.21-5.48 5.18-2.42 9.91-5.01 14.2-7.77s8.51-5.85 12.7-9.28c6.11-4.99 11.98-10.58 17.6-16.77 5.63-6.19 10.83-12.79 15.6-19.79 4.77-7.01 9.09-13.85 12.97-20.52s7.83-13.92 11.86-21.75c4.25-8.42 7.98-17.22 11.18-26.39 30.63 9.39 58.59 13.49 83.86 12.3 16.1 16.18 33.77 30.75 53 43.72 8.12 5.52 16.34 10.66 24.65 15.44 8.31 4.77 17.59 9.45 27.84 14.03 10.25 4.59 20.24 8.36 29.96 11.29 9.73 2.95 19.85 4.96 30.36 6.04s20.39.88 29.63-.61c9.24-1.48 18.32-4.75 27.22-9.77 8.91-5.04 16.83-11.84 23.76-20.41 1.64-2.01 3.69-5.43 6.15-10.23 2.46-4.81 4.51-8.22 6.15-10.23-4.99 6.11-10.55 11.33-16.66 15.66zm-340.13-41.82c-2.68 7.3-5.96 14.76-9.84 22.36-1.19 2.46-4.02 6.53-8.49 12.19-9.99 12.6-21.76 23.6-35.33 32.99-5.29 3.65-10.79 6.71-16.49 9.17s-11.63 4.32-17.78 5.59c-6.15 1.26-12.37 1.45-18.67.55-6.3-.89-12.17-2.9-17.61-6.04-5.52-3.2-10.23-7.4-14.14-12.57-3.91-5.18-6.8-10.88-8.66-17.11s-3.15-12.43-3.86-18.62c-.7-6.18-.87-12.52-.5-19.01.82-13.72 3.77-26.57 8.84-38.58 1.26-1.49 2.83-3.13 4.7-4.92 3.65-3.43 8.05-6.52 13.19-9.28 4.62-2.38 9.62-4.23 14.98-5.53 5.36-1.31 10.86-2.01 16.49-2.12s10.98.07 16.04.56c5.07.49 10.44 1.25 16.1 2.29 7.23 1.34 14.38 3.02 21.47 5.03 7.08 2.01 16.13 4.92 27.17 8.72 11.03 3.8 17.96 6.18 20.79 7.16-2.31 9.24-5.1 18.3-8.38 27.17z"/><path d="m418.89 267.57c.97 1.94 2.66 3.44 5.09 4.53 2.42 1.08 4.84 1.64 7.27 1.67 2.42.04 4.71-.16 6.87-.61 1.94-.52 3.84-1.51 5.7-2.96s3.33-2.84 4.41-4.14c1.09-1.31 2.41-3 3.97-5.09.52-.74 2.38-3.73 5.59-8.94 1.04 1.49 2.13 3.09 3.25 4.81.44-.74 1.09-1.84 1.95-3.3s1.51-2.55 1.95-3.3c1.94-2.54 2.91-4.14 2.91-4.81.07-3.95.07-9.65 0-17.11-.07-7.45-.15-11.85-.22-13.19.07-1.93.09-3.93.06-5.98-.04-2.05-.06-4.06-.06-6.04s-.06-3.99-.17-6.04-.26-4.06-.45-6.03c-.19-1.98-.47-3.97-.84-5.98-.38-2.01-.8-3.95-1.29-5.81s-1.12-3.75-1.9-5.65c-.79-1.9-1.66-3.71-2.63-5.43.3.6-.87 2.48-3.52 5.65-2.64 3.17-3.78 5.08-3.41 5.76 1.94 3.28 3.47 6.92 4.59 10.9 1.12 3.99 1.84 7.89 2.18 11.69.33 3.8.55 7.79.67 11.96.11 4.18.09 8.13-.06 11.85 0 2.69.04 5.97.11 9.84-3.35-4.32-6.75-8.09-10.17-11.29-1.57-1.48-3.04-2.6-4.42-3.35-1.38-.74-2.97-1.19-4.75-1.35-1.79-.15-3.62.23-5.48 1.13-1.12.45-2.24 1.31-3.35 2.57-1.12 1.27-2.02 2.42-2.68 3.47-.67 1.04-1.49 2.5-2.46 4.36-.97 1.87-1.6 3.03-1.9 3.48-1.12 1.93-2.16 3.88-3.13 5.81-.97 1.94-1.92 4.14-2.85 6.59-.93 2.46-1.61 4.83-2.01 7.11-.41 2.28-.55 4.59-.39 6.94.15 2.34.67 4.45 1.56 6.31zm4.75-21.97c.34-2.8.91-5.38 1.73-7.78.82-2.38 1.71-3.95 2.68-4.69 2.24-1.87 5.18-2.5 8.83-1.91.59.16 1.25.4 1.96.73s1.29.65 1.73.96c.45.29 1.06.77 1.84 1.45.79.67 1.31 1.13 1.57 1.39s.78.82 1.57 1.68c.78.85 1.21 1.31 1.29 1.4 3.43 3.51 6.94 7.71 10.51 12.63-1.94 2.39-3.86 4.34-5.76 5.87s-4.01 2.79-6.32 3.8c-2.31 1-4.81 1.42-7.49 1.23s-5.48-1.07-8.39-2.63c-2.31-1.2-3.93-3.15-4.86-5.87s-1.23-5.48-.89-8.27z"/><path d="m799 198.57c.07-.22-1.35-1.91-4.26-5.08-2.91-3.16-4.34-4.82-4.3-4.97-2.32 8.54-7.02 14.24-14.07 17.1.08-.05 1.48 1.64 4.21 5.07 2.72 3.43 4.16 5.09 4.34 4.98 7.06-2.86 11.75-8.57 14.07-17.11z"/><path d="m900.68 254.15c-3.06 2.9-6.19 5.11-9.39 6.6-2.99 1.49-6.04 2.03-9.17 1.62-3.13-.42-5.89-1.81-8.27-4.19-2.61-2.61-4.32-6.27-5.14-10.97 2.53-5.29 3.72-11.41 3.57-18.33v-.67c-1.94-2.39-4.51-4.15-7.72-5.32-3.2-1.15-6.39-1.67-9.55-1.56-3.17.11-6.36.42-9.56.95-3.66.68-6.73 1.9-9.23 3.69-2.5 1.8-4.79 4.22-6.87 7.27-.23.3-.45.6-.67.9-.82 1.19-1.72 2.61-2.68 4.25-.68 1.19-1.35 2.42-2.02 3.69-.23.49-.43.96-.64 1.44-.06.08-.1.15-.15.24-1.19 2.01-2.55 3.99-4.08 5.92-1.53 1.94-3.34 3.86-5.43 5.76s-4.23 3.41-6.43 4.53-4.53 1.88-6.98 2.29c-2.46.41-4.89.09-7.27-.95-3.35-1.41-6.08-3.75-8.17-6.98-2.08-3.24-3.4-6.82-3.97-10.74-.55-3.91-.73-7.78-.51-11.57.23-3.8.78-7.3 1.68-10.51-.38 1.41-1.51 3.33-3.41 5.75s-3.04 4.31-3.41 5.65c-.98 3.34-1.57 6.62-1.83 9.81-4.94 8.18-10.54 13.94-16.85 17.24-6.26 3.35-15.87 4.47-28.84 3.35-3.21-.23-6.45-.9-9.73-2.02-3.28-1.11-6.36-2.59-9.23-4.41s-5.08-4.14-6.65-6.94c-1.57-2.79-2.13-5.79-1.68-9 5.44-4.69 11.81-6.94 19.12-6.71 2.53.07 4.94.45 7.21 1.12s4.32 1.88 6.14 3.63c1.83 1.75 2.86 3.86 3.08 6.31-.15-1.11.97-2.97 3.35-5.59 2.39-2.61 3.54-4.54 3.47-5.81-.38-3.66-1.94-6.39-4.7-8.22s-5.94-2.74-9.55-2.74-7.2.47-10.74 1.4-6.42 2.15-8.66 3.63c-1.04.68-2 1.42-2.86 2.24-.85.82-1.73 1.87-2.62 3.13-.9 1.27-1.57 2.22-2.02 2.85-.45.64-1.16 1.81-2.12 3.52-.97 1.71-1.57 2.77-1.8 3.13-.52.9-1.04 1.79-1.57 2.68-.09.16-.14.31-.23.47-.82 1.23-1.71 2.46-2.68 3.66-1.57 1.94-3.37 3.86-5.42 5.76-2.06 1.9-4.18 3.41-6.38 4.53s-4.54 1.88-7.04 2.29-4.94.09-7.33-.95c-3.35-1.41-6.07-3.75-8.16-6.98-2.09-3.24-3.41-6.8-3.97-10.68s-.73-7.72-.51-11.52.82-7.34 1.79-10.61c-.44 1.41-1.6 3.33-3.47 5.75-1.86 2.42-3.02 4.31-3.47 5.65-2.31 8.04-2.57 15.65-.77 22.8-.45.6-.82 1.19-1.12 1.79-.45.6-.97 1.23-1.57 1.9-1.42 1.42-3.39 2.39-5.93 2.91-2.24.44-4.41.16-6.54-.84s-4.01-2.44-5.65-4.31c-6.34-7.16-7.79-19.38-4.37-36.67-.22 1.34-1.34 3.23-3.35 5.65-2.02 2.42-3.17 4.35-3.47 5.76-.6 2.91-1.04 5.79-1.34 8.66-.07.74-.14 1.52-.19 2.31-7.02 11.48-15.31 18.01-24.86 19.55-3.13.52-6.15-.22-9.06-2.23-2.9-2.02-5.24-4.54-6.98-7.56-1.75-3.02-2.89-6.01-3.41-9-.3-2.02-.47-4.19-.51-6.54s.02-5.03.17-8.05c.15-3.01.22-5.24.22-6.65 0-.6.02-4.02.06-10.29.03-6.26.02-9.69-.06-10.28-.07-7.38-.61-13.98-1.62-19.79-1-5.82-2.93-11.18-5.76-16.11.38.6-.76 2.48-3.4 5.65-2.65 3.17-3.79 5.08-3.41 5.76 2.15 3.8 3.81 8.16 4.97 13.08s1.84 9.22 2.07 12.92c.22 3.69.38 8.37.45 14.03 0 2.84-.02 6.98-.06 12.41-.04 5.45-.06 9.39-.06 11.86v.64c-.74 1.25-1.45 2.46-2.11 3.61-1.57 2.61-3.88 5.37-6.94 8.27s-6.18 5.11-9.39 6.6c-2.98 1.49-6.04 2.03-9.17 1.62-3.13-.42-5.89-1.81-8.28-4.19-2.61-2.61-4.32-6.27-5.14-10.97 2.53-5.29 3.72-11.41 3.57-18.33v-.67c-1.93-2.39-4.51-4.15-7.71-5.32-3.2-1.15-6.39-1.67-9.56-1.56s-6.35.42-9.56.95c-3.66.68-6.73 1.9-9.23 3.69-2.5 1.8-4.79 4.22-6.87 7.27-.22.3-.44.6-.67.9-.82 1.19-1.71 2.61-2.68 4.25-.67 1.19-1.34 2.42-2.02 3.69-1.71 3.58-2.87 7.08-3.46 10.51-.6 3.43-.32 6.9.84 10.4 1.15 3.5 3.45 6.26 6.88 8.27 3.13 1.94 6.47 2.83 10.01 2.68s6.95-.99 10.23-2.52 6.11-3.52 8.5-5.98c1.64-1.56 3.28-3.69 4.92-6.37.82 3.8 2.35 7.08 4.59 9.84s5.1 4.44 8.61 5.03c2.16.29 4.32.19 6.49-.33 2.16-.52 4.14-1.29 5.92-2.29 1.8-1 3.64-2.44 5.53-4.31 1.9-1.86 3.52-3.65 4.86-5.36 1.35-1.71 2.82-3.8 4.42-6.27 1.6-2.46 2.87-4.53 3.8-6.2.93-1.68 2.09-3.75 3.47-6.21.06-.1.1-.18.16-.28 0 .78-.02 1.94-.05 3.57-.04 2.73-.04 4.55 0 5.48s.23 2.32.56 4.19c.33 1.86.8 3.54 1.4 5.03 1.19 2.68 2.81 5.09 4.86 7.21 2.05 2.13 4.34 3.79 6.88 4.98 4.4 1.94 9.99.82 16.77-3.35 1.57-.97 3.12-2.16 4.64-3.58 1.53-1.41 2.84-2.74 3.92-3.97s2.31-2.87 3.69-4.92 2.42-3.66 3.13-4.81 1.75-2.9 3.13-5.25c1.03-1.76 1.79-3.11 2.31-4.06-.13 2.19-.16 4.55-.08 7.13.11 3.65.56 6.93 1.35 9.84.78 2.9 2.16 5.56 4.14 7.99 1.97 2.42 4.45 4.15 7.43 5.21 5.67 1.79 10.74-.82 15.21-7.83 2.46-3.8 4.32-6.86 5.59-9.17.52 1.72 1.12 3.39 1.8 5.03 1.48 3.57 3.63 6.58 6.43 9 2.79 2.42 5.9 3.52 9.33 3.3 2.02-.15 3.99-.58 5.92-1.29 1.94-.71 3.67-1.53 5.2-2.46s3.12-2.24 4.76-3.91c1.64-1.68 3.02-3.19 4.14-4.53s2.38-3.09 3.8-5.25 2.51-3.9 3.3-5.2c.41-.68.88-1.5 1.43-2.45-.24.64-.48 1.28-.64 1.88-.41 1.53-.56 3.21-.45 5.03.11 1.84.58 3.68 1.4 5.54 1.11 2.24 2.59 4.21 4.41 5.92 1.83 1.71 3.7 3.08 5.65 4.09 1.93 1 4.31 1.79 7.1 2.34 2.79.56 5.27.94 7.43 1.13 2.16.18 4.81.24 7.94.16 3.13-.07 5.56-.19 7.27-.34s3.99-.37 6.82-.66c1.71-.15 3.39-.49 5.03-1.01s3.21-1.26 4.69-2.24c1.49-.96 2.86-1.9 4.08-2.79 1.23-.9 2.52-2.13 3.86-3.7 1.35-1.57 2.44-2.86 3.3-3.91.86-1.04 1.92-2.54 3.19-4.48 1.26-1.93 2.19-3.41 2.8-4.41.6-1.01 1.51-2.55 2.73-4.64.9-1.51 1.55-2.63 1.99-3.4-.47 6.4.47 12.49 2.87 18.28 1.49 3.57 3.66 6.58 6.49 9s5.96 3.52 9.39 3.3c2.02-.15 3.97-.58 5.87-1.29s3.61-1.55 5.14-2.52c1.53-.96 3.12-2.27 4.76-3.91s3.02-3.13 4.14-4.47 2.4-3.09 3.85-5.25c1.46-2.16 2.58-3.92 3.35-5.26.78-1.34 1.83-3.15 3.13-5.42.12-.21.23-.39.34-.6-1.02 2.57-1.75 5.1-2.19 7.58-.6 3.43-.32 6.9.84 10.4 1.15 3.5 3.44 6.26 6.88 8.27 3.12 1.94 6.46 2.83 10 2.68s6.95-.99 10.23-2.52 6.11-3.52 8.5-5.98c1.63-1.56 3.28-3.69 4.92-6.37.82 3.8 2.34 7.08 4.58 9.84s5.11 4.44 8.62 5.03c2.16.29 4.32.19 6.49-.33 2.15-.52 4.13-1.29 5.92-2.29s3.63-2.44 5.53-4.31c1.9-1.86 3.52-3.65 4.86-5.36 1.35-1.71 2.82-3.8 4.41-6.27 1.61-2.46 2.87-4.53 3.8-6.2.94-1.68 2.09-3.75 3.47-6.21s2.33-4.18 2.86-5.15c-1.79 2.91-3.39 5.59-4.81 8.05-1.57 2.61-3.88 5.37-6.93 8.27zm-381.16-14.42c-.3.9-.88 2.1-1.73 3.64-.86 1.53-1.44 2.7-1.73 3.52-.82 2.46-1.01 5.63-.56 9.51-4.47 3.73-9.77 5.74-15.88 6.04-4.47.22-8.26-.84-11.35-3.18-3.1-2.35-5.19-5.37-6.26-9.06-1.08-3.69-1.22-7.54-.39-11.57 3.42-2.6 7.58-4.45 12.47-5.53 4.88-1.08 9.69-1.08 14.42 0s8.4 3.22 11.01 6.43v.22zm345.94 0c-.3.9-.87 2.1-1.73 3.64-.86 1.53-1.44 2.7-1.74 3.52-.82 2.46-1 5.63-.55 9.51-4.47 3.73-9.77 5.74-15.88 6.04-4.47.22-8.26-.84-11.35-3.18-3.1-2.35-5.18-5.37-6.27-9.06-1.08-3.69-1.21-7.54-.38-11.57 3.43-2.6 7.58-4.45 12.47-5.53 4.88-1.08 9.68-1.08 14.42 0 4.73 1.08 8.4 3.22 11.01 6.43v.22z"/></g></svg>