<svg viewBox="0 0 637.98 697.82" xmlns="http://www.w3.org/2000/svg" xmlns:xlink="http://www.w3.org/1999/xlink"><linearGradient id="a" gradientTransform="matrix(-1 0 0 1 5810.27 0)" gradientUnits="userSpaceOnUse" x1="5664.8" x2="5609.01" y1="663.82" y2="-180.12"><stop offset="0" stop-color="#80b7b1"/><stop offset=".2" stop-color="#0094b8"/><stop offset=".7" stop-color="#11739e"/><stop offset="1" stop-color="#1b4a80"/></linearGradient><linearGradient id="b" gradientTransform="matrix(-1 0 0 1 5810.27 0)" gradientUnits="userSpaceOnUse" x1="5412.79" x2="5731.28" y1="90.5" y2="470.57"><stop offset="0" stop-color="#80b7b1"/><stop offset=".32" stop-color="#0094b8"/><stop offset=".34" stop-color="#0092b6"/><stop offset=".56" stop-color="#0c7ba4"/><stop offset=".7" stop-color="#11739e"/><stop offset="1" stop-color="#1b4a80"/></linearGradient><linearGradient id="c" gradientTransform="matrix(-1 0 0 1 5810.27 0)" gradientUnits="userSpaceOnUse" x1="5473.2" x2="5473.2" y1="739.44" y2="-171.24"><stop offset="0" stop-color="#00a0df"/><stop offset=".15" stop-color="#00809e"/><stop offset=".76" stop-color="#176284"/><stop offset="1" stop-color="#1b75a2"/></linearGradient><linearGradient id="d" x1="5618.51" x2="5507.01" xlink:href="#b" y1="198.17" y2="100.77"/><linearGradient id="e" gradientTransform="matrix(-1 0 0 1 5810.27 0)" gradientUnits="userSpaceOnUse" x1="5671.34" x2="5502.75" y1="177.17" y2="-42.56"><stop offset="0" stop-color="#80b7b1"/><stop offset=".32" stop-color="#0094b8"/><stop offset=".34" stop-color="#0092b6"/><stop offset=".62" stop-color="#0c7ba4"/><stop offset=".79" stop-color="#11739e"/><stop offset="1" stop-color="#1b4a80"/></linearGradient><path d="m27.54 601.11h7.68l26.75 62.51h-9.89l-6.27-15.45h-29.75l-6.18 15.45h-9.88zm15.19 39.64-11.65-28.69h-.18l-11.83 28.69z" fill="#145b80"/><path d="m134.64 663.62h-36.02c-4.41 0-8.59-.79-12.54-2.38-3.94-1.59-7.39-3.79-10.33-6.62s-5.27-6.2-6.98-10.11-2.56-8.2-2.56-12.85.82-8.84 2.47-12.76 3.93-7.32 6.84-10.2 6.33-5.13 10.24-6.75 8.17-2.43 12.76-2.43 8.55.79 12.4 2.38 7.22 3.78 10.11 6.58c2.88 2.8 5.17 6.09 6.84 9.89 1.68 3.79 2.52 7.93 2.52 12.4 0 2.65-.31 5.25-.93 7.81s-1.53 4.96-2.74 7.2-2.71 4.24-4.5 6c-1.8 1.77-3.84 3.18-6.14 4.24v.18h18.54v7.42zm-36.37-7.95c3.41 0 6.55-.63 9.4-1.9s5.3-3 7.33-5.21 3.6-4.81 4.72-7.81 1.68-6.21 1.68-9.62-.57-6.38-1.72-9.27c-1.15-2.88-2.75-5.39-4.81-7.5-2.06-2.12-4.5-3.8-7.33-5.04-2.83-1.23-5.92-1.85-9.27-1.85s-6.34.62-9.14 1.85c-2.8 1.24-5.22 2.91-7.28 5.04-2.06 2.12-3.68 4.61-4.85 7.46-1.18 2.86-1.77 5.9-1.77 9.14 0 3.41.56 6.62 1.68 9.62s2.69 5.62 4.72 7.86 4.46 4 7.29 5.3c2.82 1.29 5.94 1.94 9.36 1.94z" fill="#145b80"/><path d="m150.88 601.11v38.32c0 1.94.27 3.96.8 6.05s1.41 4.02 2.65 5.78c1.24 1.77 2.85 3.21 4.86 4.33 2 1.12 4.47 1.68 7.42 1.68s5.42-.56 7.42-1.68 3.62-2.56 4.86-4.33 2.12-3.69 2.65-5.78.8-4.11.8-6.05v-38.32h8.48v39.64c0 3.65-.62 6.96-1.85 9.93-1.24 2.97-2.94 5.55-5.12 7.72-2.18 2.18-4.74 3.86-7.68 5.03-2.94 1.18-6.12 1.77-9.54 1.77s-6.59-.59-9.53-1.77-5.5-2.85-7.68-5.03-3.88-4.75-5.12-7.72-1.85-6.28-1.85-9.93v-39.64h8.48z" fill="#145b80"/><path d="m225.31 601.11h7.68l26.75 62.51h-9.89l-6.27-15.45h-29.75l-6.18 15.45h-9.89zm15.19 39.64-11.65-28.69h-.18l-11.83 28.69z" fill="#145b80"/><g fill="#00a0df"><path d="m290.73 601.11h20.84l14.39 40.79h.18l14.48-40.79h20.75v62.51h-13.78v-47.94h-.18l-16.42 47.94h-10.51l-15.8-47.94h-.18v47.94h-13.77z"/><path d="m394.65 601.11h11.39l27.19 62.51h-15.54l-5.39-13.24h-24.28l-5.21 13.24h-15.18zm5.3 18.19-7.6 19.42h15.27l-7.68-19.42z"/><path d="m439.5 601.11h24.19c3.18 0 6.19.31 9.05.93s5.35 1.65 7.51 3.09c2.15 1.44 3.85 3.39 5.12 5.83s1.9 5.49 1.9 9.14c0 4.41-1.15 8.17-3.45 11.26s-5.65 5.05-10.07 5.87l15.89 26.4h-16.51l-13.06-24.99h-6.8v24.99h-13.77v-62.51zm13.77 25.87h8.12c1.23 0 2.54-.04 3.93-.13 1.38-.09 2.63-.35 3.75-.8 1.12-.44 2.04-1.13 2.78-2.08.74-.94 1.1-2.26 1.1-3.97 0-1.59-.32-2.86-.97-3.8s-1.47-1.66-2.47-2.16-2.15-.84-3.44-1.02c-1.3-.18-2.56-.26-3.8-.26h-9.01v14.21z"/><path d="m490.53 601.11h15.71l15.45 40.97h.18l15.72-40.97h14.75l-25.78 62.51h-11.04l-24.98-62.51z"/><path d="m558.69 601.11h13.77v62.51h-13.77z"/><path d="m625.88 617.36c-1.36-1.65-3.02-2.91-4.99-3.79s-4.25-1.33-6.84-1.33-4.99.5-7.2 1.5-4.12 2.4-5.74 4.2-2.88 3.93-3.79 6.4c-.92 2.47-1.37 5.15-1.37 8.03s.45 5.64 1.37 8.08c.91 2.45 2.16 4.56 3.75 6.36 1.59 1.79 3.46 3.19 5.61 4.19s4.46 1.5 6.93 1.5c2.83 0 5.33-.59 7.51-1.77s3.97-2.83 5.39-4.95l11.48 8.56c-2.65 3.71-6.01 6.44-10.07 8.21-4.06 1.76-8.24 2.65-12.53 2.65-4.89 0-9.39-.76-13.51-2.3-4.12-1.53-7.68-3.72-10.68-6.57-3-2.86-5.34-6.31-7.02-10.38-1.68-4.06-2.52-8.59-2.52-13.6s.84-9.53 2.52-13.6c1.67-4.06 4.02-7.52 7.02-10.38s6.56-5.05 10.68-6.58 8.62-2.29 13.51-2.29c1.76 0 3.6.16 5.52.48 1.91.32 3.8.84 5.65 1.55s3.63 1.65 5.34 2.83 3.24 2.62 4.59 4.32l-10.6 8.65z"/></g><g fill="#231f20"><path d="m21.2 680.53c-.64-.86-1.42-1.5-2.36-1.92-.93-.43-1.91-.64-2.92-.64-1.17 0-2.25.24-3.24.71-.98.48-1.83 1.12-2.55 1.93-.72.8-1.27 1.74-1.67 2.8s-.6 2.17-.6 3.32c0 1.23.2 2.38.6 3.44s.95 1.99 1.65 2.77c.71.79 1.55 1.41 2.53 1.86.99.46 2.07.68 3.27.68 1.29 0 2.44-.25 3.46-.76 1.01-.51 1.9-1.24 2.65-2.19l1.88 1.58c-.95 1.27-2.1 2.2-3.44 2.8s-2.86.9-4.55.9c-1.51 0-2.92-.28-4.23-.83-1.31-.56-2.45-1.33-3.41-2.31s-1.72-2.15-2.27-3.5-.82-2.83-.82-4.44.26-3 .79-4.35 1.27-2.52 2.22-3.52c.95-.99 2.09-1.78 3.4-2.36s2.75-.87 4.32-.87c1.43 0 2.81.26 4.13.78s2.43 1.36 3.32 2.53l-2.18 1.58z"/><path d="m36.35 676.18h5.4c1.01 0 2.02.06 3.03.18 1 .12 1.9.38 2.7.77.8.4 1.44.98 1.94 1.74.5.77.75 1.8.75 3.12 0 1.55-.47 2.8-1.4 3.76-.93.95-2.23 1.56-3.88 1.82l5.99 9.72h-3.07l-5.72-9.48h-3.22v9.48h-2.51v-21.11zm2.5 9.3h2.24c.7 0 1.42-.02 2.16-.06.75-.04 1.43-.17 2.06-.39s1.14-.56 1.55-1.03.61-1.14.61-2.01c0-.76-.15-1.36-.45-1.82s-.69-.81-1.18-1.06-1.03-.41-1.64-.49-1.22-.12-1.83-.12h-3.52z"/><path d="m73.32 697.82c-1.61 0-3.09-.28-4.43-.83-1.34-.56-2.5-1.33-3.49-2.31-.98-.98-1.75-2.15-2.3-3.52-.55-1.36-.82-2.84-.82-4.43s.27-3.07.82-4.43 1.31-2.53 2.3-3.52c.98-.98 2.15-1.75 3.49-2.31s2.82-.84 4.43-.84 3.09.28 4.43.84 2.5 1.32 3.49 2.31c.99.98 1.75 2.16 2.3 3.52s.82 2.84.82 4.43-.27 3.07-.82 4.43-1.31 2.53-2.3 3.52c-.98.99-2.15 1.76-3.49 2.31-1.34.56-2.82.83-4.43.83zm0-2.33c1.23 0 2.36-.23 3.38-.68 1.02-.46 1.9-1.08 2.64-1.88.74-.79 1.31-1.73 1.71-2.79.41-1.06.61-2.2.61-3.41s-.2-2.35-.61-3.41-.98-1.99-1.71-2.79-1.61-1.42-2.64-1.88c-1.02-.46-2.15-.68-3.38-.68s-2.36.23-3.38.68c-1.02.46-1.9 1.08-2.64 1.88-.74.79-1.31 1.73-1.71 2.79-.41 1.06-.61 2.2-.61 3.41s.2 2.35.61 3.41.98 1.99 1.71 2.79 1.62 1.42 2.64 1.88 2.15.68 3.38.68z"/><path d="m107.34 679.9c-.42-.68-.97-1.17-1.67-1.48s-1.42-.46-2.18-.46c-.56 0-1.1.07-1.64.21s-1.02.35-1.45.63-.77.65-1.03 1.1c-.26.46-.39.99-.39 1.61 0 .48.07.9.22 1.27s.39.7.73 1 .8.58 1.37.84 1.28.52 2.12.77c.82.26 1.61.54 2.37.84s1.44.67 2.03 1.13 1.05 1.03 1.4 1.71c.35.69.52 1.55.52 2.58s-.21 1.97-.63 2.74c-.42.78-.97 1.42-1.65 1.92-.68.51-1.48.89-2.37 1.14s-1.82.37-2.77.37c-.62 0-1.23-.05-1.85-.16s-1.21-.28-1.77-.51c-.57-.23-1.1-.53-1.6-.89-.5-.37-.92-.82-1.28-1.36l2.15-1.76c.46.78 1.09 1.36 1.91 1.76.81.4 1.68.6 2.59.6.54 0 1.08-.08 1.63-.24s1.04-.39 1.47-.7c.44-.31.8-.69 1.07-1.15.28-.46.42-.98.42-1.58 0-.66-.11-1.19-.33-1.6s-.56-.76-1.01-1.06c-.46-.3-1.03-.56-1.73-.81-.7-.24-1.51-.51-2.44-.83-.76-.24-1.45-.51-2.09-.82s-1.19-.69-1.65-1.13c-.47-.45-.84-.98-1.1-1.61-.27-.63-.4-1.38-.4-2.25 0-1.01.2-1.9.6-2.65.4-.76.94-1.39 1.61-1.89.68-.51 1.44-.89 2.3-1.15.85-.26 1.75-.39 2.68-.39 1.19 0 2.28.19 3.27.55.98.37 1.86 1.01 2.64 1.93l-2.06 1.79z"/><path d="m132.86 679.9c-.42-.68-.97-1.17-1.67-1.48s-1.42-.46-2.18-.46c-.56 0-1.1.07-1.64.21s-1.02.35-1.45.63-.77.65-1.03 1.1c-.26.46-.39.99-.39 1.61 0 .48.07.9.22 1.27s.39.7.73 1 .79.58 1.37.84 1.28.52 2.12.77c.82.26 1.61.54 2.37.84s1.44.67 2.03 1.13 1.05 1.03 1.4 1.71c.35.69.52 1.55.52 2.58s-.21 1.97-.63 2.74c-.42.78-.97 1.42-1.65 1.92-.69.51-1.48.89-2.37 1.14s-1.82.37-2.77.37c-.62 0-1.23-.05-1.85-.16s-1.21-.28-1.77-.51c-.57-.23-1.1-.53-1.6-.89-.5-.37-.92-.82-1.28-1.36l2.15-1.76c.46.78 1.09 1.36 1.91 1.76.81.4 1.68.6 2.59.6.54 0 1.08-.08 1.63-.24.54-.16 1.04-.39 1.48-.7s.79-.69 1.07-1.15.42-.98.42-1.58c0-.66-.11-1.19-.33-1.6s-.56-.76-1.01-1.06c-.46-.3-1.03-.56-1.73-.81-.7-.24-1.51-.51-2.44-.83-.76-.24-1.45-.51-2.09-.82s-1.19-.69-1.65-1.13c-.47-.45-.84-.98-1.1-1.61-.27-.63-.4-1.38-.4-2.25 0-1.01.2-1.9.6-2.65.4-.76.94-1.39 1.61-1.89.68-.51 1.44-.89 2.3-1.15.85-.26 1.75-.39 2.68-.39 1.19 0 2.28.19 3.27.55.98.37 1.86 1.01 2.64 1.93l-2.06 1.79z"/><path d="m148.36 676.18h13.09v2.32h-10.58v6.98h9.84v2.32h-9.84v9.48h-2.51v-21.11z"/><path d="m173.88 676.18h2.51v21.11h-2.51z"/><path d="m204.74 678.5h-6.98v18.78h-2.5v-18.78h-6.98v-2.32h16.46z"/><path d="m246.06 694.24c-.85 1.08-1.77 1.91-2.74 2.51s-2.17.89-3.58.89c-.89 0-1.75-.13-2.56-.4s-1.52-.66-2.13-1.18-1.09-1.15-1.46-1.89c-.37-.75-.55-1.6-.55-2.55 0-.74.12-1.42.37-2.04s.59-1.19 1.01-1.7c.43-.51.92-.96 1.49-1.34.57-.39 1.17-.73 1.8-1.03-.7-.69-1.29-1.43-1.79-2.21s-.75-1.67-.75-2.68c0-.77.15-1.46.45-2.07s.7-1.11 1.19-1.52c.5-.41 1.07-.72 1.73-.92.66-.21 1.35-.31 2.09-.31s1.39.1 2.03.3c.63.2 1.2.49 1.68.88.49.39.87.87 1.15 1.46s.42 1.27.42 2.04c0 .66-.13 1.26-.4 1.8-.27.55-.62 1.03-1.04 1.46-.43.43-.91.82-1.43 1.16-.53.35-1.06.66-1.59.94l4.47 4.74 2.83-4.74h2.83l-4.06 6.5 4.83 4.95h-3.43l-2.86-3.04zm-6.79-7.21c-.46.24-.91.5-1.34.79-.44.29-.83.61-1.19.97s-.65.77-.86 1.22c-.22.46-.33.96-.33 1.52s.11 1.1.33 1.58.52.89.89 1.25c.38.36.81.64 1.31.84s1.02.3 1.58.3 1.03-.08 1.49-.24.88-.37 1.27-.64.75-.58 1.1-.93.69-.72 1.03-1.12l-5.28-5.55zm.62-2.71c.4-.22.81-.45 1.22-.69.42-.24.8-.51 1.13-.81.34-.3.62-.65.84-1.04.22-.4.33-.86.33-1.37 0-.78-.26-1.38-.79-1.82s-1.16-.66-1.89-.66c-.84 0-1.55.25-2.15.76s-.89 1.2-.89 2.07c0 .58.15 1.09.46 1.54s.64.86 1 1.24l.74.77z"/><path d="m281.57 676.18h13.09v2.32h-10.58v6.98h9.84v2.32h-9.84v9.48h-2.51v-21.11z"/><path d="m307.09 676.18h2.51v21.11h-2.51z"/><path d="m337.95 678.5h-6.98v18.78h-2.5v-18.78h-6.98v-2.32h16.46z"/><path d="m349.85 676.18h3.16l12.22 17.53h.06v-17.53h2.5v21.11h-3.16l-12.22-17.53h-.06v17.53h-2.51v-21.11z"/><path d="m381.99 676.18h13.27v2.32h-10.76v6.62h10.04v2.33h-10.04v7.51h11.3v2.32h-13.81v-21.11z"/><path d="m418.63 679.9c-.42-.68-.98-1.17-1.67-1.48-.7-.31-1.42-.46-2.18-.46-.56 0-1.1.07-1.64.21s-1.02.35-1.45.63-.77.65-1.03 1.1c-.26.46-.39.99-.39 1.61 0 .48.07.9.22 1.27s.39.7.73 1 .79.58 1.37.84 1.28.52 2.12.77c.82.26 1.61.54 2.37.84.77.3 1.44.67 2.03 1.13s1.05 1.03 1.4 1.71c.34.69.52 1.55.52 2.58s-.21 1.97-.63 2.74c-.42.78-.97 1.42-1.65 1.92-.69.51-1.48.89-2.37 1.14-.9.25-1.82.37-2.77.37-.61 0-1.23-.05-1.85-.16s-1.21-.28-1.77-.51c-.57-.23-1.1-.53-1.6-.89-.5-.37-.93-.82-1.28-1.36l2.15-1.76c.46.78 1.09 1.36 1.91 1.76.81.4 1.68.6 2.59.6.53 0 1.08-.08 1.62-.24.55-.16 1.04-.39 1.48-.7s.8-.69 1.07-1.15c.28-.46.42-.98.42-1.58 0-.66-.11-1.19-.33-1.6s-.56-.76-1.01-1.06c-.46-.3-1.03-.56-1.73-.81-.7-.24-1.51-.51-2.44-.83-.76-.24-1.45-.51-2.09-.82s-1.19-.69-1.65-1.13c-.47-.45-.84-.98-1.1-1.61-.27-.63-.4-1.38-.4-2.25 0-1.01.2-1.9.6-2.65.4-.76.93-1.39 1.61-1.89.68-.51 1.44-.89 2.3-1.15s1.75-.39 2.68-.39c1.19 0 2.28.19 3.27.55.98.37 1.86 1.01 2.64 1.93l-2.05 1.79z"/><path d="m444.15 679.9c-.42-.68-.97-1.17-1.67-1.48s-1.42-.46-2.18-.46c-.56 0-1.1.07-1.64.21-.53.14-1.02.35-1.44.63-.43.28-.77.65-1.03 1.1-.26.46-.39.99-.39 1.61 0 .48.07.9.22 1.27s.39.7.73 1 .8.58 1.37.84c.58.26 1.28.52 2.11.77.82.26 1.61.54 2.37.84.77.3 1.44.67 2.03 1.13s1.05 1.03 1.4 1.71c.35.69.52 1.55.52 2.58s-.21 1.97-.63 2.74c-.42.78-.97 1.42-1.65 1.92-.68.51-1.48.89-2.37 1.14s-1.82.37-2.77.37c-.62 0-1.23-.05-1.85-.16s-1.21-.28-1.77-.51c-.57-.23-1.1-.53-1.6-.89-.5-.37-.92-.82-1.28-1.36l2.14-1.76c.46.78 1.09 1.36 1.91 1.76s1.68.6 2.6.6c.54 0 1.08-.08 1.63-.24.54-.16 1.04-.39 1.48-.7.43-.31.79-.69 1.07-1.15s.42-.98.42-1.58c0-.66-.11-1.19-.33-1.6s-.55-.76-1.02-1.06c-.45-.3-1.03-.56-1.73-.81-.7-.24-1.51-.51-2.45-.83-.75-.24-1.45-.51-2.09-.82s-1.19-.69-1.65-1.13c-.47-.45-.84-.98-1.1-1.61-.27-.63-.4-1.38-.4-2.25 0-1.01.2-1.9.6-2.65.4-.76.94-1.39 1.61-1.89.68-.51 1.44-.89 2.3-1.15.85-.26 1.75-.39 2.68-.39 1.19 0 2.28.19 3.26.55.98.37 1.86 1.01 2.64 1.93l-2.06 1.79z"/><path d="m491.67 680.53c-.63-.86-1.42-1.5-2.35-1.92-.93-.43-1.91-.64-2.92-.64-1.17 0-2.25.24-3.23.71-.99.48-1.84 1.12-2.55 1.93-.71.8-1.27 1.74-1.67 2.8s-.6 2.17-.6 3.32c0 1.23.2 2.38.6 3.44s.95 1.99 1.66 2.77c.7.79 1.55 1.41 2.53 1.86.98.46 2.07.68 3.26.68 1.29 0 2.45-.25 3.46-.76s1.9-1.24 2.65-2.19l1.88 1.58c-.95 1.27-2.1 2.2-3.44 2.8s-2.86.9-4.55.9c-1.51 0-2.92-.28-4.23-.83-1.31-.56-2.45-1.33-3.42-2.31-.96-.98-1.72-2.15-2.27-3.5s-.82-2.83-.82-4.44.26-3 .79-4.35 1.27-2.52 2.22-3.52c.95-.99 2.09-1.78 3.4-2.36s2.75-.87 4.32-.87c1.43 0 2.81.26 4.13.78s2.43 1.36 3.32 2.53l-2.18 1.58z"/><path d="m506.82 676.18h13.27v2.32h-10.76v6.62h10.04v2.33h-10.04v7.51h11.3v2.32h-13.81v-21.11z"/><path d="m533.45 676.18h3.16l12.22 17.53h.06v-17.53h2.5v21.11h-3.16l-12.22-17.53h-.06v17.53h-2.51v-21.11z"/><path d="m579.75 678.5h-6.98v18.78h-2.51v-18.78h-6.97v-2.32h16.46z"/><path d="m591.64 676.18h13.27v2.32h-10.77v6.62h10.05v2.33h-10.05v7.51h11.3v2.32h-13.81v-21.11z"/><path d="m618.27 676.18h5.4c1.02 0 2.02.06 3.03.18 1 .12 1.9.38 2.7.77.8.4 1.44.98 1.94 1.74.5.77.75 1.8.75 3.12 0 1.55-.47 2.8-1.4 3.76-.93.95-2.22 1.56-3.87 1.82l5.99 9.72h-3.07l-5.72-9.48h-3.22v9.48h-2.5v-21.11zm2.5 9.3h2.24c.7 0 1.41-.02 2.16-.06.74-.04 1.43-.17 2.06-.39s1.14-.56 1.55-1.03.61-1.14.61-2.01c0-.76-.15-1.36-.45-1.82s-.69-.81-1.18-1.06-1.04-.41-1.64-.49c-.61-.08-1.22-.12-1.83-.12h-3.52z"/></g><path d="m81.27 200.1c13.27-26.73 37.54-33.9 58.09-61.37 57.59-76.99-48.82-154.42-97.21-41.15-31.66 74.12-44.14 210.55 14.06 305.55s180.2 95.2 262.06 49.65c-50.68 10.82-82.33-.42-107.9-33.59-16.71-21.67-27.19-39.6-44.23-27.63-63.26 44.42-143.71-90.56-84.87-191.47z" fill="url(#a)" fill-rule="evenodd"/><path d="m318.27 452.78c-80.61 8.72-181.36-111.3-143.18-195.52.62-1.36 1.27-2.71 1.96-4.05 12.42-24.15 11.16-43.81.05-55.67-11.31-12.08-31.95-14.74-44.68 13.34-1.85 4.07-3.53 8.79-4.99 14.23-18.56 69.01-60.05 52.33-54.97 7.35 1.53-13.57 4.62-23.94 8.81-32.37-58.84 100.9 21.6 235.89 84.87 191.47 17.05-11.97 27.53 5.96 44.23 27.63 25.57 33.17 57.22 44.41 107.9 33.59z" fill="url(#b)" fill-rule="evenodd"/><path d="m572.95 171.4c-31.56-125.88-159.05-121.29-170.91 11.58-2.19 24.57-1.46 51.42-.37 77.92 1.78 42.82-1.06 77.27-7.33 104.51-28.53 124.14-202.58 158.6-302.14 93.16 17.78 20.99 39.14 39 64.48 52.7 222.77 120.39 476.48-99.71 416.26-339.87z" fill="url(#c)" fill-rule="evenodd"/><path d="m184 170.95c17.73-5.95 27.85-3.2 40.24 3.39 56.74 30.2 52.1-58.19-5.26-31.5-12.58 5.85-25.46 15.76-34.98 28.11z" fill="url(#d)" fill-rule="evenodd"/><path d="m181.02 139.52c20.47-30.83 49.94-40.5 74.62-59.81 63.37-49.57-8.54-121.22-48.1-49.22-19.12 34.81-22.29 60.52-26.52 109.03z" fill="url(#e)" fill-rule="evenodd"/><path d="m563.65 310.54c18.06 4.72 21.21-10.99-11-20.42-32.2-9.42-51.05 14.14-93.46 22.78-22.18 4.52-35.76 12.9-43.68 19.87-7.39 6.5-17.14 9.72-26.94 8.86-42.12-3.71-47.09 20.06-52.69 20.75-1.32.16-2.58.35-3.81.54-1.99 10.94-4.95 19.58-5.02 19.76-2.88 7.03-10.65 16.56-21.54 22.03-2.41 1.21-5.11 1.85-7.81 1.85s-5.4-.64-7.81-1.85c-10.89-5.47-18.67-15-21.54-22.03-.07-.18-3.03-8.82-5.02-19.76-1.23-.19-2.49-.38-3.81-.54-5.6-.7-10.57-24.47-52.69-20.75-9.81.86-19.56-2.36-26.95-8.86-7.92-6.97-21.5-15.35-43.68-19.87-42.41-8.64-61.26-32.2-93.47-22.78-32.2 9.42-29.06 25.14-10.99 20.42 18.06-4.71 24.35-.79 24.35-.79s-20.42 16.5-4.71 11.79 21.99-10.21 30.63-8.64 21.21 4.71 30.63 13.35c9.43 8.64 32.2 24.9 39.27 24.62 5.69-.22 23.11 21.65 47.32 27.71 14.6 3.65 27.41 12.33 35.49 25.03 1.58 2.49 3.1 5.01 4.53 7.51h116.88c1.44-2.5 2.95-5.02 4.53-7.51 8.08-12.7 20.89-21.38 35.49-25.03 24.21-6.06 41.63-27.93 47.33-27.71 7.07.28 29.84-15.98 39.27-24.62s22-11.78 30.63-13.35c8.64-1.57 14.92 3.93 30.64 8.64 15.7 4.71-4.72-11.79-4.72-11.79s6.29-3.92 24.35.79z" fill="#054371"/><path d="m297.69 314.09s-16.35-.55-26.88 13.03.51 50.28 1.94 53.76c2.13 5.22 8.73 14.29 19.27 19.58 3.57 1.79 7.78 1.79 11.34 0 10.54-5.29 17.13-14.36 19.27-19.58 1.43-3.49 12.47-40.18 1.94-53.76s-26.88-13.03-26.88-13.03z" fill="#054371"/><path d="m320.82 448.21c-.97.48-29.12.81-50.97-12.13-17.5-10.37-27.37-22.79-30.61-24.95-3.23-2.16 117.98-2.02 117.98-2.02s-8.9 25.62-36.4 39.1z" fill="#054371"/></svg>