<svg viewBox="0 0 1081.38 504.05" xmlns="http://www.w3.org/2000/svg"><g fill="#00578d"><path d="m1081.38 252.55c-.71.55-1.49 1.03-2.12 1.66-25.93 25.9-51.85 51.81-77.78 77.73-56.9 56.88-113.8 113.76-170.7 170.63-.47.47-.96.9-1.58 1.47-.67-.6-1.27-1.09-1.82-1.63-16.34-16.32-32.67-32.64-49-48.97-17.63-17.62-35.25-35.24-52.88-52.86-1.71-1.71-2.01-1.61.05-3.64 8.1-7.97 16.09-16.05 24.14-24.06 3.25-3.23 6.56-6.39 9.84-9.58.26-.25.56-.45.98-.78.42.36.85.67 1.22 1.04 19.53 19.52 39.06 39.04 58.58 58.56 2.38 2.38 4.74 4.76 7.13 7.12.51.51 1.09.95 1.78 1.55.7-.62 1.35-1.14 1.93-1.73 20.01-19.99 40.01-39.99 60.01-59.98 10.02-10.02 20.04-20.04 30.07-30.05 28.41-28.35 56.82-56.69 85.22-85.04.59-.59 1.12-1.25 1.81-2.03-59.68-59.73-119.23-119.35-178.89-179.06-.77.69-1.37 1.19-1.92 1.73-13.73 13.65-27.46 27.3-41.18 40.97-8.14 8.11-16.25 16.24-24.37 24.35-.13.13-.25.26-.39.39-1.07 1.01-1.21 1.03-2.24.03-1.66-1.62-3.29-3.27-4.93-4.91-5.01-5.01-10-10.04-15.04-15.03-4.6-4.56-9.24-9.07-13.85-13.61-.55-.55-1.04-1.16-1.52-1.7.77-1.37 103.86-104.01 105.37-104.95.34.3.71.6 1.05.94 45.71 45.69 91.41 91.38 137.12 137.07 37.33 37.31 74.65 74.62 111.99 111.92.54.54 1.25.91 1.87 1.35v1.1z"/><path d="m396.68 286.89c.62.56 1.08.94 1.51 1.36 11.15 11.14 22.29 22.28 33.44 33.43.26.26.52.52.77.79.56.62.46 1.21-.08 1.78-.34.35-.69.7-1.03 1.04-16.85 16.84-33.7 33.68-50.54 50.53-42.23 42.26-84.45 84.52-126.67 126.79-.17.17-.34.35-.52.51-1.04.96-1.18.98-2.23-.06-2.69-2.66-5.36-5.35-8.04-8.03-35.04-35.02-70.07-70.05-105.12-105.06-45.62-45.54-91.24-91.06-136.85-136.59-.43-.43-.83-.87-1.32-1.4 84.17-83.96 167.96-168.16 252.41-251.98.55.47 1.02.82 1.43 1.23 20.05 20.04 40.09 40.08 60.13 60.12 6.95 6.95 13.91 13.91 20.87 20.86 32.19 32.12 64.39 64.23 96.58 96.35.26.26.53.51.77.78.77.88.78 1.14.01 2.02-.2.23-.43.44-.64.65-11.02 11.01-22.03 22.03-33.05 33.04-.26.26-.51.53-.78.77-.88.77-1.17.79-2.02 0-.98-.92-1.91-1.89-2.86-2.84-42.43-42.41-84.85-84.82-127.28-127.23-3.84-3.84-7.76-7.61-11.64-11.41-1.42-1.4-1.67-1.4-3.11.03-9.68 9.67-19.35 19.35-29.03 29.02-48.82 48.8-97.64 97.6-146.46 146.41-2.17 2.16-2.73 1.89.04 4.65 15.31 15.28 30.58 30.59 45.89 45.86 31.79 31.7 63.59 63.39 95.41 95.07 11.42 11.38 22.89 22.72 34.33 34.07.26.26.5.54.8.75.56.4 1.12.43 1.63-.13.5-.54 1.01-1.07 1.52-1.58l99.93-99.9c13.39-13.39 26.79-26.78 40.18-40.16.47-.47.96-.91 1.63-1.55z"/><path d="m472.52 362.68c.29.26.76.64 1.18 1.06 21.99 21.98 43.97 43.96 65.95 65.95 1.13 1.13 1.44 1.12 2.81-.25 7.3-7.29 14.6-14.59 21.9-21.89 39.31-39.29 78.61-78.58 117.91-117.88.85-.85 1.65-1.76 2.46-2.62 2.92 2.17 35.6 35.25 36.46 36.92-.37.4-.77.86-1.19 1.28-59.05 59.03-118.09 118.05-177.14 177.08-2.06 2.06-1.83 1.94-3.8-.03-13.78-13.78-27.57-27.54-41.33-41.33-20.2-20.22-40.38-40.46-60.56-60.7-.42-.42-.81-.87-1.08-1.16l36.44-36.44z"/><path d="m436.02 104.64c34.79-34.72 69.75-69.61 104.61-104.39h.38c.06 0 .13.01.17.05.29.22.6.42.85.68 59.62 59.6 119.24 119.21 178.85 178.81.12.12.18.31.25.46v.21c0 .06 0 .14-.05.17-11.5 11.55-23.01 23.11-34.52 34.66-.34.35-.71.68-1.08.99-.13.11-.32.16-.66.31-.54-.47-1.16-.95-1.7-1.49-23.46-23.45-46.92-46.9-70.38-70.35-11.45-11.44-22.92-22.87-34.35-34.33-11.86-11.9-23.68-23.83-35.51-35.75-.3-.3-.59-.62-.9-.91-.66-.59-1.31-.56-1.95.05-.18.17-.34.35-.51.52-20.3 20.21-40.6 40.43-60.9 60.64-1.69 1.68-3.37 3.37-5.06 5.05-.42.42-.89.8-1.18 1.06-12.14-12.16-24.17-24.19-36.38-36.42z"/><path d="m279.46 206.24c-.24 2.3-.51 4.6-.72 6.9-.04.44-.03 1.13.22 1.28.31.19.95.07 1.34-.13 2.57-1.31 5.27-2.2 8.11-2.73 3.59-.67 7.12-.59 10.72.1 7.12 1.35 12.92 5.03 17.92 10.01 4.8 4.78 8.66 10.26 10.59 16.87 1.31 4.5 1.68 9.1.98 13.76-1.18 7.89-4.56 14.88-8.91 21.45-4.23 6.38-9.23 12.13-14.63 17.54-15.37 15.38-30.75 30.75-46.13 46.12-1.77 1.77-1.53 2.33-3.86.04-5.46-5.34-10.83-10.76-16.22-16.17-10.95-10.99-21.86-22.01-32.84-32.97-14.73-14.72-29.51-29.4-44.26-44.09-.26-.26-.51-.53-.78-.78-.62-.58-.59-1.15 0-1.73.43-.43.86-.87 1.29-1.3 15.08-15.07 30.1-30.19 45.25-45.18 6.12-6.06 12.68-11.64 20.11-16.09 3.87-2.32 7.88-4.42 12.22-5.69 4.92-1.44 9.94-1.79 15.02-.64 4.96 1.12 9.14 3.64 12.85 7.01 3.46 3.14 6.5 6.61 8.41 10.95 1.06 2.41 1.87 4.87 2.4 7.47.54 2.65.85 5.3.92 8.02zm-13.13 78.71c.63-.59 1.08-1 1.5-1.43 3.16-3.15 6.33-6.28 9.45-9.46 2.1-2.13 4.18-4.28 6.16-6.52 1.99-2.24 3.8-4.64 4.71-7.56.71-2.26.8-4.53-.16-6.78-1.19-2.79-3.19-4.87-5.66-6.55-2.15-1.47-4.45-2.1-7.09-1.65-2.56.43-4.77 1.56-6.71 3.13-3.03 2.45-5.99 5-8.82 7.68-3.55 3.36-6.94 6.87-10.39 10.34-1.02 1.03-1 1.18-.01 2.23.08.09.17.17.26.26 5.13 5.06 10.25 10.12 15.39 15.17.38.37.82.68 1.38 1.14zm-16.62-60.58c-.1-.5-.24-1.46-.48-2.4-.89-3.44-3.34-5.61-6.23-7.32-2.09-1.24-4.34-1.4-6.68-.55-2.35.86-4.31 2.36-6.06 4.01-4.97 4.68-9.79 9.53-14.65 14.33-.81.8-.76 1.29.1 2.17 4.53 4.61 9.06 9.22 13.62 13.81 1.02 1.02 1.49 1.04 2.45.06 4.63-4.68 9.29-9.34 13.84-14.11 2.51-2.63 3.92-5.84 4.09-10.01z"/><path d="m565.93 190.6c-.38.41-.77.86-1.19 1.28-6.22 6.22-12.44 12.43-18.65 18.66-2.41 2.42-4.79 4.87-7.18 7.33-.94.97-.95 1.34-.04 2.29 1.06 1.1 2.16 2.16 3.24 3.24 21.7 21.74 43.39 43.49 65.09 65.23q1.74 1.75-.06 3.55c-9.48 9.43-18.97 18.85-28.45 28.28-.26.26-.53.5-.78.77-.59.62-1.15.58-1.72-.04-.21-.23-.43-.43-.65-.65-16.07-16.06-32.14-32.11-48.2-48.19-6.6-6.61-13.15-13.27-19.73-19.91-.3-.3-.58-.64-.91-.9-.81-.65-1.3-.6-2.05.16-8.42 8.5-16.84 17-25.26 25.51-.6.6-1.21 1.2-1.81 1.79-1.2-.65-24.05-23.38-25.39-25.31 29.4-29.47 58.84-58.97 88.19-88.39.21-.02.27-.04.33-.03.06 0 .14 0 .17.03 7.93 7.87 15.86 15.74 23.78 23.61.35.34.68.7 1 1.07.11.13.14.33.27.63z"/><path d="m745.4 230.38c10.7-10.68 21.23-21.19 31.84-31.78.19.16.57.45.9.78 5.58 5.56 11.16 11.12 16.72 16.7 18.19 18.25 36.38 36.51 54.57 54.77q1.72 1.73 3.4.05c13.39-13.38 26.78-26.77 40.18-40.15.13-.13.25-.26.39-.39 1.25-1.21 1.42-1.2 2.67.03 6.51 6.44 13.03 12.88 19.54 19.32.13.13.26.25.39.38 1.36 1.38 1.37 1.4.02 2.75-4.36 4.36-8.74 8.71-13.09 13.08-19.58 19.63-39.15 39.27-58.72 58.92-2.46 2.47-2.23 1.88-4.09.02-14.22-14.2-28.41-28.42-42.64-42.61-16.95-16.9-33.94-33.77-50.91-50.65-.43-.42-.83-.86-1.18-1.22z"/></g></svg>