<svg viewBox="0 0 892.79 892.79" xmlns="http://www.w3.org/2000/svg"><path d="m764.02 369.39c-8.28.96-12.81 6.23-11.61 15.97.88 7.1 2.06 14.16 2.98 21.25.69 5.36.6 5.37-4.89 6.58-3.99.88-5.42.04-6.06-3.86-.83-5.03-1.5-10.08-2.28-15.12-.96-6.22-1.97-12.43-2.98-18.77-3.96.65-7.46 1.22-10.89 1.78-.06.79-.15 1.14-.1 1.47 2.15 14.1 4.02 28.24 6.57 42.27 1.94 10.7 7.18 13.61 18 11.78 11.49-1.94 23.05-3.46 34.57-5.22 8.1-1.24 16.19-2.58 24.5-3.91-.09-1.07-.11-1.97-.24-2.86-1.05-7-2.07-14-3.2-20.98-1.33-8.21-2.39-16.5-4.24-24.59-1.7-7.42-5.9-10.4-13.35-9.63-8.96.94-17.81 2.8-26.76 3.84zm30.89 18.41c.84 5.93 1.75 11.85 2.69 18.15-9.89 1.53-19.56 3.02-29.74 4.6-.33-1.92-.66-3.67-.94-5.43-.66-4.22-1.22-8.46-1.96-12.67-.41-2.34.42-3.44 2.74-3.79 7.66-1.14 15.31-2.36 22.96-3.57 2.24-.35 3.86.07 4.23 2.71z"/><path d="m752.78 503.79c-.15.68 1.01 2.22 1.83 2.46 4.77 1.36 9.62 2.43 14.43 3.63 7.81 1.93 15.61 3.89 23.69 5.9-1.38 5.8-2.74 11.29-3.97 16.8-.68 3.05-1.91 4.12-5.33 3.2-12-3.21-24.1-6.03-36.35-9.05-1.59 6.48-3.1 12.64-4.68 19.06 13.52 3.33 26.44 6.54 39.37 9.69 6.18 1.51 11.03-.68 13.89-6.36.98-1.95 1.7-4.07 2.25-6.18 2.07-7.99 4.02-16.02 6.1-24.35 6.09 1.45 11.89 2.83 17.9 4.27 1.59-6.48 3.1-12.61 4.67-19.01-23.28-5.74-46.33-11.42-69.57-17.15-1.51 5.93-3.01 11.48-4.24 17.09z"/><path d="m773.39 286.44c-16.54 6.88-32.71 13.61-49.05 20.4 2.66 6.35 5.1 12.18 7.57 18.09 13.04-5.4 25.73-10.66 38.54-15.96 2.25 5.42 4.31 10.7 6.65 15.85 1.35 2.97.87 4.52-2.32 5.8-11.49 4.58-22.88 9.41-34.61 14.27 2.48 6 4.89 11.84 7.53 18.22 13.42-5.64 26.47-10.95 39.35-16.65 4.32-1.91 6.15-6.03 5.57-10.7-.4-3.17-1.27-6.37-2.47-9.34-4.98-12.33-10.16-24.59-15.28-36.87-.43-1.02-.96-2-1.49-3.1z"/><path d="m759.01 451.29c-1.35 9.1-1.6 18.37-2.34 27.78 4.29.32 8.02.6 11.66.87.34-5.61.53-10.59 1.05-15.55.1-.98 1.44-2.63 2.19-2.62 9.14.13 18.27.51 27.46.83v18.64h11.13c.31-6.01.62-11.96.94-18.06 6.34.28 12.19.54 18.57.83v-19.89c-2.87 0-5.76.1-8.64-.02-16.71-.69-33.41-1.52-50.12-2.1-6.63-.23-10.91 2.72-11.89 9.3z"/><g fill="none"><path d="m519.99 771.78c-.48-1.06-2.06-2.45-2.99-2.34-5.59.67-11.16 1.63-16.68 2.75-.86.17-2.04 1.65-2.05 2.54-.03 1.9.61 3.81 1.05 6.14 7.32-1.19 14.42-2.35 21.62-3.52-.33-2.21-.27-4.06-.95-5.58z"/><path d="m198.7 543.69c-13.49-33.26-26.88-66.55-40.18-99.88-.61-1.52-.67-3.72-.06-5.21 26.95-65.38 53.99-130.72 81.14-196.02.65-1.57 2.38-3.15 3.98-3.81 51.2-21.27 102.44-42.44 153.7-63.54 2.14-.88 3.24-2.03 3.96-4.26 10.61-33.03 21.34-66.03 32.04-99.03 3.07-9.46 6.15-18.92 9.35-28.75-131.09-.26-277.02 70.16-353.89 216.32-70.47 133.99-53.85 285.71 9.37 390.11.79-.71 1.58-1.37 2.31-2.1 32.33-32.43 64.64-64.88 97.03-97.24 2.14-2.14 2.36-3.85 1.25-6.57zm109.35-438.37c5.33-2.74 10.95-4.93 16.5-7.23 8-3.31 16.06-6.49 24.39-9.85 1.61 3.95 3.12 7.65 4.79 11.75-4.96 2.03-9.82 4.02-14.69 5.99-4.72 1.91-9.41 3.9-14.19 5.64-3.71 1.35-2.65 3.59-1.62 6.11 1.01 2.44 1.81 4.43 5.25 2.84 5.24-2.43 10.64-4.54 16.07-6.54 2.91-1.07 5.98-2.02 9.05-2.33 6.24-.62 10.49 2 13.06 7.7 1.48 3.26 2.8 6.62 3.93 10.01 1.93 5.79.52 11.22-4.67 14.37-5.1 3.1-10.72 5.4-16.25 7.72-10.23 4.29-20.55 8.35-31.17 12.64-1.67-4.16-3.17-7.88-4.75-11.81 10.64-4.3 21.17-8.49 31.63-12.85 1.66-.69 4.42-2.41 4.27-3.17-.58-2.85-2.01-5.57-3.49-8.13-.25-.44-2.39-.12-3.48.31-5.4 2.09-10.7 4.46-16.13 6.48-4.53 1.68-9.12 3.54-14.12 1.76-.22-.08-.48-.04-.68-.13-7.76-3.46-9.19-11.05-10.94-17.97-1.52-6.01 1.98-10.63 7.24-13.33zm-61.86 5.34c0-.71.31-1.73.84-2.09 4.86-3.28 9.81-6.44 15.35-10.04-1.26 8.68-2.39 16.58-3.58 24.46-.09.6-.55 1.32-1.06 1.66-3.84 2.56-7.74 5.04-11.59 7.52 0-7.36-.02-14.44.04-21.51zm-40.78 64.43c6.48-6.94 13.73-13.15 20.8-19.83 2.98 3.26 5.71 6.24 8.67 9.47-4.04 3.73-7.83 7.43-11.85 10.87-2.59 2.21-2.42 3.94-.2 6.32 9.44 10.09 18.76 20.3 28.34 30.71-5.27 4.87-10.45 9.66-15.96 14.75-4.21-4.54-8.37-9-12.51-13.5-5.67-6.15-11.34-12.31-16.96-18.5-6.43-7.09-6.86-13.29-.34-20.28zm-49.78 56.73c4.41-5.97 8.77-11.98 13.26-17.89 3.04-4 6.32-7.8 11.62-8.86 3.61-.72 6.98.09 9.89 2.22 11.98 8.77 23.89 17.63 35.82 26.47.26.19.4.55.71 1.01-7.63 10.31-15.25 20.67-22.93 30.97-2.63 3.53-5.18 7.16-8.19 10.34-6.09 6.43-12.36 6.84-19.48 1.67-2.35-1.71-4.73-3.38-6.94-5.25-4.88-4.15-6.37-9.16-3.74-14.95 1.79-3.96 4.41-7.58 6.93-11.16 3.79-5.4 7.82-10.63 12.01-16.28-2.06-1.54-3.82-3.36-5.95-4.21-.97-.39-3.18.78-4.02 1.87-6.28 8.19-12.35 16.54-18.5 24.83-.61.83-1.27 1.63-2.07 2.65-3.34-2.46-6.55-4.84-10.15-7.49 3.97-5.4 7.85-10.68 11.75-15.95zm-42.29 77.37c4.64-10.72 9.43-21.37 14.16-32.05.41-.93.89-1.82 1.44-2.94 3.87 1.71 7.54 3.34 11.5 5.09-3.71 8.43-7.32 16.66-10.94 24.89-.33.74-.7 1.47-1.02 2.21-1.91 4.38.29 7.92 5.21 7.82 1.02-.02 2.37-1.67 2.95-2.86 2.29-4.79 4.31-9.71 6.48-14.56.8-1.8 1.64-3.59 2.64-5.29 4.96-8.46 10.8-10.3 19.84-6.36 1.8.79 3.62 1.52 5.41 2.33 8.04 3.65 10.94 9.34 8.11 17.8-2.27 6.78-5.41 13.28-8.27 19.86-3.54 8.14-7.19 16.23-10.92 24.63-3.94-1.74-7.6-3.35-11.61-5.11 3.51-7.98 6.93-15.77 10.36-23.56 1.45-3.29 2.9-6.57 4.38-9.85.87-1.93.44-3.19-1.55-4.2-7.36-3.72-7.36-3.75-10.71 3.85-2.25 5.09-4.42 10.21-6.86 15.21-4.01 8.23-10.47 11.84-20.93 7.54-11.95-4.91-15.27-11.5-9.66-24.45zm33.1 183.86c-.61 9.77-6.38 15-16.17 15.46-14.94.69-29.87 1.61-44.79 2.7-9.87.72-16.82-4.93-17.82-15.61-.94-10.05-1.42-20.15-2.02-30.23-.55-9.16-1-18.32-1.48-27.48-.04-.8 0-1.6 0-3.06h14.32c.34 5.65.71 11.52 1.04 17.39.55 9.74 1.02 19.48 1.62 29.22.32 5.04 1.03 5.61 5.93 5.34 12.87-.71 25.74-1.41 38.61-2.17 5.67-.34 6.17-1.21 5.81-6.87-.93-14.72-1.69-29.44-2.49-44.17-.04-.66.11-1.33.19-2.22 4.61-.24 9.08-.48 14.05-.74.33 5.06.7 10.1.98 15.14.78 13.91 1.53 27.83 2.26 41.74.1 1.85.08 3.72-.04 5.57zm7.68-119.07c-2.05 10.54-4.09 21.09-6.29 31.6-.52 2.46-1.4 4.93-2.55 7.16-2.84 5.5-7.44 7.78-13.57 6.69-10.58-1.88-21.19-3.64-31.65-6.03-8.41-1.92-11.36-7.29-10.39-14.91 1.6-12.6 4.17-25.11 7.1-37.48 2.32-9.78 8-12.78 17.91-10.91 6.11 1.15 12.23 2.29 18.81 3.52-2.77 14.32-5.42 28.07-8.21 42.51 3.26.56 6.35 1.38 9.45 1.45.84.02 2.22-2.15 2.51-3.5 1.61-7.68 2.95-15.41 4.41-23.11.77-4.08 1.61-8.15 2.51-12.71 4.08.77 8 1.51 12.35 2.33-.82 4.64-1.53 9.04-2.38 13.4z"/><path d="m661.48 627.22c-2.02-.37-3.11.06-3.99 2.08-2.63 6.05-5.4 12.06-8.38 17.95-.75 1.48-2.26 2.95-3.77 3.6-18.4 7.88-36.87 15.62-55.33 23.38-47.61 20.01-95.22 40.02-142.87 59.94-1.31.55-3.22.65-4.51.11-66.26-27.59-132.48-55.27-198.67-83.03-1.5-.63-2.93-2.23-3.65-3.73-2.99-6.26-5.84-12.6-8.42-19.03-1.11-2.78-2.42-3.12-5.2-2.47-23.75 5.58-47.56 10.95-71.33 16.44-17.94 4.14-35.86 8.36-54.08 12.61 57.96 98.45 188.05 205.99 374.3 193.65 140.79-9.33 258.41-93.57 317.79-197.16-20.19-3.75-40.33-7.51-60.48-11.22-23.81-4.38-47.62-8.71-71.43-13.11zm-416.97 120.09c-3.79 4.28-8.94 5.58-13.92 3.19-5.25-2.52-10.18-5.93-14.75-9.59-13.7-10.95-27.15-22.22-40.7-33.35-.53-.44-1.09-.84-1.83-1.41 3.06-3.72 5.7-6.93 8.51-10.34 8.82 7.26 17.41 14.33 26.01 21.4 4.75 3.91 9.53 7.79 14.25 11.74 2.3 1.92 4.25 2.04 6.17-.54 1.73-2.33 3.65-4.51 5.46-6.78 2.8-3.52 2.79-4.03-.75-6.98-7.5-6.24-15.16-12.3-22.53-18.68-3.22-2.78-6.31-5.89-8.72-9.37-3.51-5.06-3.31-10.5.55-15.48 2.77-3.58 5.61-7.12 8.65-10.47 4.12-4.54 9.27-5.72 15.16-3.13 3.35 1.47 6.57 3.49 9.42 5.79 13.99 11.32 27.83 22.82 42 34.49-2.88 3.48-5.64 6.83-8.47 10.26-11.07-9.12-21.91-18.06-32.76-27-1.08-.89-2.17-1.75-3.25-2.63-1.97-1.59-3.73-1.61-5.34.58-1.24 1.68-2.65 3.23-3.95 4.87-2.48 3.11-2.41 3.89.77 6.51 7.79 6.44 15.75 12.69 23.34 19.35 3.35 2.94 6.43 6.41 8.84 10.15 2.89 4.48 2.39 9.43-.86 13.7-3.58 4.71-7.36 9.29-11.29 13.72zm36.84 54.86c-2.16 1.74-3.91 1.97-6.42.7-5.24-2.64-10.66-4.91-16.56-7.58 5.18-4.14 9.73-7.91 14.45-11.47 1.68-1.27 2.25-2.6 2.15-4.68-1-19.14-1.91-38.28-2.82-57.42-.07-1.38 0-2.76 0-4.64 6.48 2.91 12.71 5.6 18.81 8.56.76.37 1.14 2.13 1.2 3.27.59 11.25 1.06 22.5 1.58 33.76.05 1.13.22 2.26.39 4.05 6.31-4.99 12.18-9.62 18.04-14.27 4-3.18 7.95-6.42 12.01-9.52.78-.6 2.21-1.17 2.95-.86 6.17 2.61 12.25 5.43 18.9 8.44-6.22 4.97-12.04 9.64-17.87 14.29-15.61 12.44-31.25 24.85-46.8 37.36zm89.82-26.53c6.71 1.35 13.45 2.6 20.1 4.19 2.77.66 5.52 1.82 8.01 3.24 4.48 2.56 6.36 6.63 5.53 11.78-.5 3.09-1.04 6.19-1.83 9.22-1.67 6.45-7.49 9.91-15.34 8.86-5.51-.74-10.96-1.98-16.42-3.05-9.65-1.89-19.3-3.8-28.95-5.74-1-.2-1.96-.62-3.11-.99.72-3.56 1.42-7.04 2.23-11.07 5.79 1.15 11.42 2.24 17.05 3.38 6.13 1.24 12.24 2.62 18.4 3.71 1.41.25 4-.05 4.29-.78.93-2.37 1.35-5.08 1.24-7.63-.03-.68-2.63-1.49-4.15-1.82-6.74-1.5-13.55-2.75-20.27-4.33-2.21-.52-4.4-1.52-6.35-2.7-3.83-2.3-6.25-5.65-5.66-10.34.44-3.53 1.06-7.07 2.02-10.49 1.8-6.45 9.26-8.56 15.11-7.56 9.9 1.68 19.73 3.79 29.58 5.75 4.52.9 9.03 1.85 13.82 2.84-.78 3.91-1.5 7.51-2.27 11.38-10.02-2.05-19.83-4.05-29.63-6.09-5.01-1.04-5.48-.59-6.38 4.33-.51 2.79.8 3.48 3 3.92zm93.35-.19h-21.12c0 6.87.02 13.57-.01 20.27-.01 2.09 0 4.2-.29 6.25-.42 3.01 1.08 4.04 3.72 4.06 5.55.03 11.1.01 16.85.01v11.96c-1.7 0-3.39.07-5.08-.01-8.8-.4-17.64-.45-26.38-1.39-7.59-.82-11.42-5.57-11.3-12.98.31-18.93.79-37.86 1.21-56.79.01-.67.14-1.33.22-1.95h21.85v19.04h20.34v11.52zm45.45 37.76c-3.77.62-7.54 1.26-11.33 1.8-8.62 1.22-17.33-1.21-18.4-12.21-.83-8.48-2.72-16.84-3.9-25.29-1-7.22 1.24-11.5 8.12-13.75 6.01-1.96 12.38-2.91 18.63-4.06 6.94-1.28 13.9-2.44 20.89-3.37 9.17-1.22 17.33 1.69 18.11 12.49.39 5.37 1.76 10.66 2.75 16.4-14.74 2.42-29.06 4.77-43.63 7.17.4 2.76.72 5.15 1.11 7.52.44 2.72 2.58 2.37 4.35 2.1 7.65-1.2 15.28-2.55 22.93-3.82 4.67-.77 9.34-1.5 14.41-2.31.59 3.86 1.15 7.55 1.74 11.45-12.26 2.01-24.02 3.94-35.79 5.87zm136.63-45.85c-5.17-10.92-10.23-21.57-15.26-32.22q-2.83-5.99-8.82-3.12c-3.14 1.5-6.28 2.98-9.42 4.48-.2.1-.37.25-1 .68 5.9 12.53 11.84 25.14 17.9 38.01-6.74 3.2-13.3 6.31-20.07 9.52-5.31-11.23-10.55-22.31-15.78-33.4q-2.26-4.79-7.19-2.47c-3.84 1.81-7.68 3.63-11.63 5.5 6.02 12.76 11.93 25.29 18.01 38.18-6.81 3.22-13.33 6.3-20.09 9.5-7.71-16.3-15.27-32.29-23.01-48.66 4.41-2.13 8.75-4.25 13.11-6.31 21.04-9.95 42.06-19.95 63.17-29.75 3.41-1.58 7.2-2.63 10.92-3.24 4.64-.76 8.76 1.09 10.86 5.31 6.29 12.64 12.24 25.44 18.44 38.45-6.81 3.22-13.35 6.33-20.14 9.54zm75.13-58.28c-6.8 6.82-14.13 13.1-21.26 19.57-4.88 4.43-9.81 8.8-14.91 13.36-2.72-2.99-5.2-5.71-7.83-8.6 9.09-8.15 18.02-16.1 26.85-24.15 1.07-.97 2.56-3.21 2.21-3.71-1.54-2.22-3.6-4.12-5.7-5.85-.33-.27-2.02.81-2.85 1.53-4.8 4.21-9.3 8.81-14.37 12.65-3.41 2.59-7.55 4.24-11.47 6.11-.92.44-2.31.24-3.37-.05-6.98-1.92-10.98-7.21-13.51-13.4-2.22-5.43.93-10.02 4.6-13.66 6.1-6.05 12.59-11.69 18.95-17.47 4.38-3.98 8.82-7.89 13.55-12.12 2.73 3.02 5.21 5.76 7.81 8.64-7.78 6.98-15.38 13.8-22.99 20.6-3.22 2.88-2.59 7.01 1.48 8.38.89.3 2.45-.4 3.3-1.12 4.5-3.85 8.85-7.88 13.29-11.79 1.56-1.38 3.18-2.73 4.9-3.9 7.97-5.44 13.82-4.6 20.03 2.78.52.62.99 1.3 1.58 1.85 7 6.51 6.31 13.76-.27 20.35z"/><path d="m331.5 328.61c-2.64 3.12-4.95 7.88-10.87 6.74-.78 3.81-3.35 5.49-6.74 6.34-.74.18-1.74.53-2.03 1.1-2.08 4.08-5.36 5.49-10.16 4.32-1.42 5.37-2.52 10.32-4.08 15.12-1.02 3.14-1.1 6.09 0 9.11 6.81 18.66 13.61 37.33 20.57 55.94.39 1.05 2.14 2.13 3.34 2.23 6.81.57 12.42 3.46 17.1 8.28 5.66 5.81 8.72 13.02 10.81 20.7 4.44 16.33 4.72 32.98 3.82 49.73-.1 1.84-.19 3.68-.28 5.53.85-.81 1.18-1.66 1.48-2.51 4.96-14.16 11.15-27.73 19.65-40.15 15.39-22.48 35.47-38.73 62.09-45.95 6.53-1.77 13.3-2.62 19.98-3.9-.15-1.16-.31-2.49-.48-3.87-9.8 6.61-17.85 3.75-20.88-7.45-1.2 1.33-2.28 2.66-3.5 3.86-6.35 6.28-16.07 6.75-22.38 1.11-5.59-4.99-5.59-14.11.02-21.07 2.48-3.07 5-6.11 7.49-9.17 4.09-5.01 8.17-10.02 12.33-15.13-12.81-11.15-25.29-22.02-37.86-32.96-8.82 10.4-17.39 20.64-26.11 30.74-3.7 4.28-8.73 5.79-14.15 4.77-9.56-1.8-14.24-13.07-9.46-22.44 1.12-2.21 2.76-4.15 4.35-6.49-4.37.39-8.32-.37-10.37-4.06-1.75-3.13-2.46-6.83-3.7-10.46z"/><path d="m188.64 259.87c1.88 1.25 3.15.98 4.39-.71 3.55-4.83 7.12-9.64 10.88-14.74-2.96-2.22-5.79-4.35-9.03-6.78-2.84 3.87-5.49 7.5-8.16 11.11-4.92 6.65-4.89 6.59 1.92 11.12z"/><path d="m735.17 249.21c-4.39-5.96-3.28-7.78-11.25-1 3.72 5.1 7.45 10.21 11.27 15.44 1.47-1.04 2.61-2.02 3.9-2.74 2.62-1.45 2.58-3.17.87-5.32-1.65-2.08-3.21-4.25-4.78-6.39z"/><path d="m106.68 374.92c-.71 4.41-1.89 8.76-2.51 13.18-.18 1.29.46 3.58 1.35 3.96 2.2.95 4.76 1.06 7.26 1.52 1.39-7.24 2.67-13.91 4.03-20.97-2.12-.4-3.76-.54-5.27-1.04-3.21-1.06-4.38.33-4.86 3.35z"/><path d="m447.03 43.1c.16.88.2 1.45.36 1.99 12.56 41.52 25.09 83.04 37.79 124.52.48 1.55 2.21 3.22 3.76 3.87 51.64 21.74 103.33 43.38 155.05 64.93 3.11 1.3 4.98 2.99 6.28 6.17 26.67 65.26 53.45 130.48 80.27 195.68.86 2.1.86 3.8 0 5.89-13.24 31.74-26.39 63.52-39.58 95.29-.61 1.48-1.31 2.57.36 4.18 34.52 33.34 68.96 66.77 103.42 100.18.45.43 1 .76 1.52 1.15 69.26-118.14 76.3-281.07-7.98-414.7-90-142.72-235.62-190.46-341.24-189.15zm166.43 131.58c-3.58 8.78-9.54 12.01-18.59 8.92-11.39-3.89-22.51-8.56-33.72-12.94-6.56-2.56-13.09-5.21-20.05-7.99 1.58-4.03 3.11-7.94 4.78-12.2 14.14 5.58 27.9 11.02 41.67 16.46 4.42 1.75 4.94 1.53 6.67-2.85 1.02-2.58 1.87-5.24 3.04-7.76 1.36-2.94.36-4.55-2.45-5.64-7.67-2.98-15.31-6.03-22.96-9.07-1.5-.6-3.01-1.21-4.47-1.9-10.49-4.94-12.88-10.86-8.69-21.52.93-2.36 1.87-4.72 2.8-7.08 3.76-9.59 9.73-12.83 19.49-9.42 12 4.2 23.75 9.12 35.61 13.75 4.09 1.6 8.15 3.24 12.51 4.97-1.6 4.05-3.14 7.97-4.81 12.19-9.92-3.93-19.57-7.75-29.22-11.56-2.79-1.1-5.62-2.13-8.38-3.32-2.53-1.09-4.23-.6-5.17 2.12-.6 1.75-1.35 3.45-2.04 5.17-1.68 4.23-1.4 4.94 2.92 6.66 7.84 3.12 15.72 6.14 23.53 9.32 2.56 1.04 5.12 2.25 7.41 3.78 6.22 4.16 7.91 9.58 5.33 16.62-1.64 4.46-3.42 8.87-5.22 13.28zm32.95 41.92c-7.6-5.41-15.3-10.35-22.35-16.09-5.24-4.27-5.77-10.22-2.17-15.62 10.68-16.02 21.53-31.93 32.32-47.88.25-.37.61-.67 1.11-1.22 5.3 3.58 10.54 7.13 16.02 10.83-3.44 5.13-6.71 10.02-10.23 15.28 4.99 3.4 9.91 6.75 15.2 10.36-2.25 3.35-4.25 6.31-6.4 9.49-5.11-3.42-10.09-6.76-15.3-10.25-5.19 7.68-10.28 15.26-15.43 22.81-1.45 2.13-.1 3.18 1.39 4.21 4.02 2.74 8.06 5.44 12.39 8.36-2.12 3.15-4.16 6.18-6.55 9.72zm6.25 4.97c4.2-4.53 8.27-8.93 12.35-13.32 4.9-5.27 9.79-10.57 14.74-15.8 5.54-5.86 11.11-6.66 17.54-1.56 6.71 5.33 12.84 11.39 19.58 17.44-2.64 2.92-5.09 5.63-7.8 8.61-3.72-3.44-7.39-6.74-10.92-10.17-1.9-1.85-3.24-1.86-5.12.2-8.53 9.33-17.21 18.52-26.02 27.94-4.78-4.45-9.45-8.79-14.35-13.35zm97.85 55.33c-4.22 3.06-8.44 6.12-13.06 9.47-7.72-10.58-15.22-20.87-22.96-31.49-2.16 1.54-4.25 2.94-6.23 4.47-1.95 1.51-.92 2.98.18 4.49 5.55 7.58 11.06 15.19 16.59 22.79.88 1.21 1.74 2.45 2.83 4-3.06 2.24-6.01 4.41-9.21 6.76-3.74-5.09-7.38-10.02-10.99-14.97-4.23-5.81-8.48-11.62-12.63-17.5-1.33-1.88-2.55-3.9-3.46-6.01-2.43-5.61-1.32-10.53 3.56-14.24 7.75-5.9 15.65-11.62 23.63-17.22 4.75-3.33 9.71-3.11 14.12.65 2.43 2.08 4.49 4.67 6.42 7.25 5.07 6.78 10.14 13.58 14.92 20.56 6.03 8.8 4.85 14.79-3.7 20.99z"/><path d="m305.77 241.64c1.86.7 3.58.88 5.3.94 9.87.34 19.74.62 29.61 1.03 1.42.06 3.1.37 4.17 1.19 2.56 1.97 4.83 4.33 7.21 6.52-1.08-.6-2.3-1.05-3.22-1.84-2.95-2.53-6.16-3.63-10.15-3.43-6.61.33-13.29.59-19.86-.01-16.38-1.5-31.7 1.5-46.13 9.34-1.62.88-3.54 1.26-5.05 2.28-1.42.96-3.02 2.24-3.64 3.74-24.27 58.87-48.45 117.78-72.55 176.73-.57 1.4-.57 3.45 0 4.85 23.85 58.78 47.82 117.52 71.69 176.29.96 2.37 2.45 3.56 4.72 4.52 58.68 24.71 117.33 49.51 176.03 74.19 1.58.67 3.91.63 5.52 0 18.86-7.4 37.64-14.98 56.45-22.5 14.37-5.75 28.74-11.49 42.26-16.89-8.92-29.56-16.64-58.96-16.88-89.47-7.74 4.48-15.17 9.25-22.99 13.24-35.61 18.19-73.93 25.73-113.48 27.88-17.51.96-35 .6-52.43-1.98-16.03-2.37-31.45-6.44-45.93-13.91-28.82-14.85-49.76-36.68-59.53-68-6.63-21.26-8.93-43.36-9.41-65.51-.44-20.54-.01-41.13.76-61.67.73-19.21 2.63-38.37 7.53-57.07 2-7.64 4.36-15.17 9.38-21.48 1.61-2.03 3.37-4.11 5.1-4.01 3.23 3.5 5.34 6.68 8.23 8.76 8.91 6.41 19.01 9.31 30.04 8.87.99-.04 2.02.15 2.98.41 5.34 1.5 10.62 3.2 16 4.54 4.19 1.04 7.27-1.53 6.42-5.74-.56-2.77-2.35-5.43-4.07-7.79-2.18-2.99-4.85-5.63-7.31-8.42 4.38 3.35 8.3 7.15 12.71 10.23 4.24 2.95 8.28 2.53 11.19-.2 3.16-2.97 3.71-6.78 1.21-11.47-1.48-2.78-3.49-5.29-5.33-8.03 3.42 1.9 6.58 4.05 10.03 5.48 7.15 2.96 13.44-.14 15.42-7.48 1.19-4.4.46-8.73-1.53-12.82-.98-2.01-2.07-3.97-3.35-6.4 3.06 1.65 5.49 3.22 8.11 4.33 9.48 4 19.18-2.31 18.52-12.58-.27-4.26-2.68-8.44-4.45-12.51-.9-2.06-2.54-3.79-3.85-5.67 5.74 5.28 10.77 11.09 13.66 19.29.63-.93.95-1.57 1.41-2.08 3.96-4.4 7.79-8.94 11.98-13.12 3.03-3.02 6.9-4.53 11.14-2.54 4.25 1.99 7.01 5.26 7.24 10.22.03.58.17 1.16.33 2.16 1.57-1.8 2.74-3.25 4.02-4.58 7.75-8.06 18.34-6.64 23.24 3.13 2.63 5.25 1.74 10.2-1.89 14.6-7.07 8.59-14.28 17.06-21.55 25.73 12.61 10.85 25.09 21.58 37.7 32.44.61-.71 1.06-1.21 1.49-1.73 7.88-9.61 15.68-19.29 23.67-28.81 5.84-6.96 13.35-7.62 20.26-2.11 6.08 4.86 6.63 12.44 1.41 19.46-1.07 1.44-2.15 2.88-3.42 4.58.88 0 1.34.07 1.77-.01 4.91-.86 8.64 1.24 11.49 4.95s2.07 7.66-.08 11.41c-.92 1.6-2.09 3.07-3.23 4.53-9.59 12.4-19.2 24.78-28.79 37.18-.56.73-1.01 1.55-1.51 2.33l.69.54c5.19-5.32 10.1-10.96 15.64-15.89 5.53-4.92 11.51-9.42 17.62-13.62 22.98-15.78 48.5-22.11 76.17-19.34 14.4 1.44 28.71 1.77 42.84-1.61 13.2-3.16 23.21-10.39 27.57-23.86.48-1.48.42-3.49-.19-4.91-8.07-19.1-16.33-38.11-24.4-57.21-1.13-2.67-2.72-4.2-5.37-5.31-57.71-24.28-115.38-48.67-173.1-72.93-1.48-.62-3.68-.65-5.16-.03-45.12 19-90.2 38.11-135.28 57.21-.98.41-1.9.94-2.85 1.42zm-50.9 68.73c3.09-6.47 3.94-6.67 14.71-3.66-5.06.53-10.7-1.53-14.71 3.66zm36.93-13.91c-.39-.13-.78-.26-1.17-.38 1.52-3.11 3.04-6.22 4.56-9.33.36.17.72.34 1.08.51-1.49 3.07-2.98 6.13-4.47 9.2zm12.96-16.86c1.67-6.43 5.29-11.17 11.73-13.44-3.91 4.48-7.82 8.96-11.73 13.44zm29.89-29.47c-3.72 4.23-7.43 8.46-11.15 12.7 1.03-6.58 5.07-10.54 11.15-12.7zm3.83 32.49c-3.14-3.01-6.28-6.03-9.42-9.04.19-.19.38-.39.57-.58 3.08 3.07 6.16 6.15 9.24 9.22-.13.14-.26.27-.39.41z"/></g><path d="m891.58 415.83c-5.29-77.57-28.85-149.18-71.85-213.9-64.53-97.11-153.7-160.15-266.7-189.11-27.99-7.17-56.55-11.07-85.45-12.29-1.25-.05-2.5-.35-3.75-.54h-34.87c-4.96.41-9.91.88-14.87 1.22-54.74 3.79-106.94 17.39-156.63 40.61-50.4 23.55-94.85 55.45-133.31 95.61-45.26 47.26-78.66 101.84-100 163.73-8.5 24.64-15.15 49.77-18.55 75.63-2.14 16.3-3.41 32.72-5.08 49.09-.11 1.03-.34 2.04-.51 3.07v34.87c.41 4.96.89 9.92 1.24 14.89 4.6 65.35 22.91 126.63 54.59 183.93 25.08 45.36 57.2 85.14 96.17 119.26 56.38 49.36 121.17 82.56 194.17 99.53 26.68 6.2 53.75 9.81 81.15 10.81 1.25.05 2.5.36 3.74.55h30.69c5.07-.41 10.15-.85 15.22-1.21 90.75-6.39 172.33-37.26 243.82-93.38 82.26-64.57 135.68-148.1 160.14-249.93 6.54-27.21 10.2-54.83 11.3-82.8.05-1.25.36-2.49.56-3.74v-30.69c-.41-5.07-.86-10.14-1.21-15.22zm-442.52-232.79c57.72 24.26 115.39 48.64 173.1 72.93 2.65 1.12 4.24 2.64 5.37 5.31 8.06 19.1 16.33 38.12 24.4 57.21.6 1.43.67 3.43.19 4.91-4.36 13.47-14.37 20.7-27.57 23.86-14.13 3.38-28.44 3.05-42.84 1.61-27.67-2.77-53.19 3.56-76.17 19.34-6.11 4.2-12.09 8.69-17.62 13.62-5.54 4.93-10.45 10.56-15.64 15.89-.23-.18-.46-.36-.69-.54.5-.78.94-1.6 1.51-2.33 9.59-12.4 19.2-24.78 28.79-37.18 1.13-1.47 2.31-2.93 3.23-4.53 2.15-3.75 2.93-7.7.08-11.41s-6.58-5.81-11.49-4.95c-.44.08-.9.01-1.77.01 1.27-1.7 2.34-3.14 3.42-4.58 5.22-7.02 4.67-14.61-1.41-19.46-6.91-5.52-14.42-4.85-20.26 2.11-7.99 9.52-15.79 19.2-23.67 28.81-.43.52-.88 1.02-1.49 1.73-12.62-10.85-25.09-21.59-37.7-32.44 7.27-8.66 14.48-17.14 21.55-25.73 3.62-4.4 4.52-9.35 1.89-14.6-4.9-9.77-15.49-11.19-23.24-3.13-1.28 1.33-2.45 2.78-4.02 4.58-.16-1-.31-1.58-.33-2.16-.22-4.96-2.99-8.23-7.24-10.22-4.24-1.99-8.11-.48-11.14 2.54-4.19 4.17-8.02 8.71-11.98 13.12-.46.51-.78 1.14-1.41 2.08-2.88-8.21-7.92-14.01-13.66-19.29 1.31 1.88 2.95 3.61 3.85 5.67 1.77 4.07 4.18 8.25 4.45 12.51.65 10.26-9.05 16.57-18.52 12.58-2.62-1.11-5.05-2.68-8.11-4.33 1.28 2.44 2.37 4.39 3.35 6.4 1.99 4.09 2.72 8.42 1.53 12.82-1.98 7.34-8.27 10.44-15.42 7.48-3.45-1.43-6.61-3.58-10.03-5.48 1.84 2.74 3.85 5.24 5.33 8.03 2.5 4.69 1.95 8.5-1.21 11.47-2.91 2.73-6.95 3.16-11.19.2-4.41-3.08-8.33-6.87-12.71-10.23 2.46 2.79 5.13 5.43 7.31 8.42 1.72 2.36 3.51 5.02 4.07 7.79.85 4.21-2.23 6.78-6.42 5.74-5.38-1.34-10.66-3.04-16-4.54-.96-.27-1.99-.45-2.98-.41-11.03.45-21.13-2.46-30.04-8.87-2.89-2.08-5-5.25-8.23-8.76-1.73-.1-3.49 1.98-5.1 4.01-5.01 6.32-7.38 13.84-9.38 21.48-4.9 18.7-6.8 37.86-7.53 57.07-.78 20.54-1.21 41.13-.76 61.67.48 22.15 2.78 44.25 9.41 65.51 9.76 31.31 30.71 53.15 59.53 68 14.48 7.46 29.91 11.54 45.93 13.91 17.42 2.57 34.92 2.93 52.43 1.98 39.55-2.16 77.87-9.69 113.48-27.88 7.82-4 15.26-8.76 22.99-13.24.24 30.51 7.96 59.91 16.88 89.47-13.52 5.4-27.89 11.14-42.26 16.89-18.81 7.53-37.59 15.1-56.45 22.5-1.62.63-3.94.67-5.52 0-58.7-24.67-117.34-49.47-176.03-74.19-2.27-.96-3.76-2.16-4.72-4.52-23.88-58.77-47.84-117.51-71.69-176.29-.57-1.41-.58-3.45 0-4.85 24.1-58.94 48.28-117.85 72.55-176.73.62-1.51 2.21-2.78 3.64-3.74 1.51-1.02 3.43-1.4 5.05-2.28 14.43-7.84 29.75-10.84 46.13-9.34 6.57.6 13.25.34 19.86.01 4-.2 7.21.89 10.15 3.43.92.79 2.14 1.24 3.22 1.84-2.39-2.2-4.65-4.55-7.21-6.52-1.07-.83-2.75-1.14-4.17-1.19-9.87-.41-19.74-.69-29.61-1.03-1.72-.06-3.43-.24-5.3-.94.95-.48 1.88-1 2.85-1.42 45.08-19.1 90.16-38.21 135.28-57.21 1.48-.62 3.67-.6 5.16.03zm125.37 464.98c-2.75 1.11-5.44 2.4-8.26 3.2-.74.21-2.22-.87-2.84-1.73-6.61-9.2-10.21-19.72-12.85-30.57-3.32-13.66-5.36-27.54-5.71-41.61-.21-8.46-.04-16.93-.04-25.4-.36-.13-.73-.27-1.09-.4-1.01.65-2.03 1.3-3.03 1.96-24.74 16.25-50.19 31.18-77.68 42.44-27.19 11.14-54.49 10.72-81.98 1.54-2.23-.74-3.95-.72-6.19.18-10.81 4.34-22.21 4.68-33.63 3.99-11.95-.72-23.88-1.94-35.04-6.71-11.04-4.72-20.05-11.58-23.68-23.78-.22-.73-1.05-1.49-1.78-1.82-24.36-10.92-36.72-31.03-42.6-55.95-2.81-11.88-3.51-23.99-2.81-36.05 14.09 25.32 34.4 45.56 54.15 66.25.27-.2.53-.41.8-.61-.47-.71-.86-1.49-1.42-2.12-14.88-16.73-25.69-36.07-35.43-56.01-6.35-13-12.52-26.14-17.75-39.61-2.92-7.51-3.74-15.84-5.56-24.01 5.26 0 9.49-.05 13.73.02 2 .03 2.92-.68 3.02-2.8.59-12.62 1.27-25.25 1.93-38.08-3.65-.5-7.41-1.02-11.53-1.59-.11-16.01 1.01-31.52 10.45-45.75 4.7 9.17 12.57 11.38 21.39 11.5 3.93.05 7.86-.54 11.8-.58 1.6-.02 3.22.58 4.8 1.03 3.09.87 6.15 1.83 9.53 2.84-1.04 4.1-1.87 8.3-3.19 12.34-1.43 4.38-1.65 8.75-.18 13 7.16 20.66 14.45 41.27 21.8 61.86.27.74 1.67 1.6 2.49 1.55 12.34-.77 19.43 6.12 24.08 16.46 3.8 8.43 5.34 17.43 6.55 26.54 2.4 18.08.97 36.18.62 54.28-.05 2.43-.5 4.85-.62 7.28-.05.89.31 1.81.48 2.71.36.02.73.03 1.09.05.64-2.92 1.03-5.93 1.96-8.76 10.6-32.42 23.67-63.4 51.85-85.05 17.23-13.24 36.66-20.53 58.6-20.44.83 0 1.88.53 2.44 1.16 13.36 15.13 30.74 22.15 50.28 23.85 10.45.91 21.05.16 31.29.16 1.34 7.3 2.35 15 4.23 22.48 4.31 17.12 12.12 32.3 25.75 44.06.99.85 1.35 2.8 1.42 4.27.19 3.74 1.17 7.1 3.79 11.08.59-4.01 1.03-6.97 1.42-9.66 6.34 2.3 12.14 5.03 18.25 6.5 17.62 4.23 34.58.8 51.04-5.77 5.47-2.18 10.64-5.09 15.97-7.63 2.05-.98 2.18-2.17.81-3.47-9.32 2.52-18.39 5.35-27.64 7.37-14.2 3.09-28.48 3.71-42.43-1.51-16.47-6.16-26.76-18.71-34.32-33.91-5.81-11.69-9.44-24.11-11.93-36.88-.24-1.23-.54-2.45-.84-3.81-4.64.29-9.13.66-13.62.83-16.78.63-33.06-1.41-48.15-9.39-8.04-4.25-14.79-9.99-20.04-17.47-.96-1.36-1.69-2.5-.51-4.33 15.21-23.6 34.33-42.96 60.18-54.77 18.09-8.26 36.87-10.41 56.4-5.52 6.03 1.51 12.35 2.13 18.57 2.56 4.44.31 7.97 1.71 11.13 4.81 7.44 7.33 12.4 16.25 16.21 25.75 3.44 8.58 6.27 17.43 8.94 26.28.83 2.74 1.49 3.87 4.37 2.73 1.47-.58 3.12-.74 4.96-1.15-5.3-21.22-11.62-41.7-26.15-59.11 8.01-1.94 15.4-4.58 21.56-9.71 6.26-5.21 10.4-11.75 12.05-20.93.83 1.8 1.28 2.74 1.69 3.7 15.22 35.44 30.44 70.87 45.57 106.34.55 1.28.61 3.18.09 4.46-24.92 60.49-49.91 120.94-74.98 181.36-.54 1.31-1.83 2.7-3.11 3.25-6.39 2.75-12.85 5.33-19.38 7.72-1.6.59-3.69.71-5.31.23-22.92-6.95-35.99-22.81-40.45-45.91-1.37-7.11-1.44-14.47-2.16-22.3-4.04 29.04-3.44 56.53 16.39 80.67zm-173.26-370.9c-6.01 7.23-12.09 14.41-18.15 21.59-10.19 12.07-20.45 24.07-30.53 36.22-2.32 2.8-4.93 4.46-8.55 4.52-4.55.03-9.23-5.68-8.23-10.11.17-.75.51-1.8 1.08-2.06 6.58-3.03 9.81-9.44 14.45-14.37 8.11-8.63 16.47-17.18 23.33-26.77 4.23-5.91 8.63-11.56 13.42-16.96.92-1.04 1.92-2.03 3.01-2.88 3.71-2.88 6.69-2.67 9.82.59 3.17 3.31 3.37 6.64.38 10.23zm11.49-4.46c3.09-3.46 6.8-6.04 11.59-4.65 4.13 1.19 6.69 4.44 7.77 8.65 1.1 4.25-1.28 7.3-3.75 10.26-9.36 11.24-18.73 22.46-28.11 33.69-12.13 14.52-24.35 28.96-36.35 43.58-2.77 3.38-6.28 3.97-9.35 4.3-5.97.13-8.72-3.2-10.71-7.35-2.25-4.66-1.5-9.29 1.78-13.01 22.29-25.23 44.72-50.33 67.12-75.47zm-67.09 70.47c-1.59 2.34-3.22 4.28-4.35 6.49-4.78 9.37-.1 20.64 9.46 22.44 5.42 1.02 10.45-.49 14.15-4.77 8.72-10.1 17.29-20.34 26.11-30.74 12.57 10.94 25.05 21.81 37.86 32.96-4.16 5.1-8.24 10.12-12.33 15.13-2.5 3.06-5.01 6.1-7.49 9.17-5.61 6.95-5.61 16.07-.02 21.07 6.31 5.63 16.03 5.17 22.38-1.11 1.22-1.2 2.3-2.54 3.5-3.86 3.03 11.21 11.08 14.07 20.88 7.45.17 1.38.34 2.71.48 3.87-6.67 1.27-13.45 2.12-19.98 3.9-26.62 7.23-46.71 23.47-62.09 45.95-8.5 12.42-14.69 25.99-19.65 40.15-.3.86-.63 1.7-1.48 2.51.09-1.84.18-3.68.28-5.53.9-16.74.62-33.4-3.82-49.73-2.09-7.67-5.15-14.88-10.81-20.7-4.69-4.82-10.29-7.71-17.1-8.28-1.2-.1-2.95-1.19-3.34-2.23-6.96-18.61-13.76-37.28-20.57-55.94-1.1-3.02-1.02-5.97 0-9.11 1.56-4.8 2.66-9.74 4.08-15.12 4.8 1.17 8.08-.24 10.16-4.32.29-.57 1.29-.92 2.03-1.1 3.38-.84 5.96-2.53 6.74-6.34 5.91 1.14 8.23-3.61 10.87-6.74 1.24 3.63 1.95 7.34 3.7 10.46 2.06 3.68 6 4.45 10.37 4.06zm131.95 6.84c-15.13 19.55-30.3 39.07-45.45 58.6-5.29 6.82-11.47 8.46-18.15 4.9-4.22-2.25-5.7-5.85-6.21-10.82 1.34-2.57 2.28-5.47 4.09-7.67 20.92-25.48 41.97-50.85 62.99-76.24.59-.72 1.2-1.42 1.83-2.1 4.83-5.14 9.64-5.48 15.32-1.07 4.33 3.36 4.99 8.45 1.14 13.88-4.96 7-10.31 13.72-15.56 20.51zm20.72-9.41c5.43 2.19 6.86 6.76 3.39 11.82-3.14 4.58-6.59 8.96-9.96 13.39-11.88 15.59-23.79 31.15-35.67 46.73-2.05 2.68-4.36 4.84-8.04 4.73-3.6-.07-6.76-1.31-8.27-4.69-1.49-3.34-1.23-6.71 1.28-9.77 16.11-19.64 32.16-39.33 48.25-58.99 3.04-3.71 5.63-4.58 9.02-3.22zm-400.14 309.04c-63.21-104.39-79.84-256.12-9.37-390.11 76.87-146.16 222.8-216.58 353.9-216.32-3.2 9.83-6.28 19.29-9.35 28.75-10.7 33-21.42 66-32.04 99.03-.71 2.22-1.82 3.38-3.96 4.26-51.26 21.11-102.5 42.28-153.7 63.54-1.6.67-3.33 2.24-3.98 3.81-27.15 65.3-54.19 130.64-81.14 196.02-.62 1.5-.55 3.69.06 5.21 13.3 33.33 26.69 66.63 40.18 99.88 1.1 2.72.89 4.42-1.25 6.57-32.4 32.36-64.7 64.81-97.03 97.24-.73.73-1.52 1.39-2.31 2.1zm377.5 199.12c-186.26 12.34-316.34-95.2-374.3-193.65 18.22-4.25 36.14-8.47 54.08-12.61 23.78-5.49 47.58-10.86 71.33-16.44 2.78-.65 4.09-.31 5.2 2.47 2.58 6.44 5.43 12.77 8.42 19.03.72 1.5 2.15 3.1 3.65 3.73 66.19 27.77 132.41 55.44 198.67 83.03 1.28.53 3.2.43 4.51-.11 47.65-19.92 95.26-39.93 142.87-59.94 18.46-7.76 36.92-15.49 55.33-23.38 1.51-.65 3.02-2.12 3.77-3.6 2.97-5.89 5.74-11.89 8.38-17.95.88-2.02 1.97-2.45 3.99-2.08 23.8 4.4 47.62 8.73 71.43 13.11 20.15 3.71 40.29 7.47 60.48 11.22-59.38 103.6-177 187.84-317.79 197.16zm320.65-201.77c-.52-.39-1.07-.72-1.52-1.15-34.46-33.41-68.9-66.84-103.42-100.18-1.67-1.61-.97-2.7-.36-4.18 13.19-31.76 26.34-63.54 39.58-95.29.87-2.09.87-3.79 0-5.89-26.82-65.2-53.6-130.42-80.27-195.68-1.3-3.18-3.16-4.88-6.28-6.17-51.73-21.54-103.41-43.19-155.05-64.93-1.55-.65-3.28-2.32-3.76-3.87-12.69-41.48-25.23-83-37.79-124.52-.16-.54-.21-1.11-.36-1.99 105.62-1.31 251.24 46.43 341.24 189.15 84.27 133.63 77.24 296.56 7.98 414.7z"/><g fill="#fff"><path d="m621.5 518.97c-2.67-.01-4.85-2.12-4.91-4.76-.06-2.74 2.26-5.09 5-5.05 2.72.03 4.73 2.04 4.78 4.79.06 2.95-1.97 5.04-4.87 5.02z"/><path d="m624.38 563.33c1.44 1.55 3.15 3.41 5.12 5.53-11.69 9.75-22.77 19.88-36.64 27.08-.78-2.2-1.35-3.81-1.64-4.62 11.15-9.42 22.08-18.64 33.16-28z"/><path d="m583.03 573.7c5.31-8.1 13.22-13.48 20.95-19.48 2.77 3.02 5.41 5.9 8.35 9.11-11.66 11.03-23.68 21.24-38.54 26.01 2.97-5.06 5.87-10.5 9.24-15.64z"/><path d="m290.02 408.16c-.03.96-.81 2.11-1.58 2.79-9.23 8.17-14.79 17.88-14.45 30.69.17 6.46-.87 12.95-1.37 19.42-.15.04-.31.07-.46.11v-86.06c5.48 7.03 9.39 14.92 17.94 18.7 0 4.66.09 9.52-.07 14.36z"/><path d="m333.49 474.7c.46 1.08 1.36 2.18 1.3 3.22-.68 11.88-1.01 23.82-2.47 35.62-.97 7.85-7 10.2-15.56 7.21 6.03-15.07 17.13-28.35 16.73-46.05z"/><path d="m332.49 595.21c4.44-5.99 8.88-11.97 13.56-18.28-15.37-3.51-27.65-11.82-38.93-21.83.13-.27.26-.55.39-.82 1.08.45 2.19.87 3.25 1.37 11.32 5.25 22.92 9.9 35.65 8.55 6.09-.64 11.98-3.16 17.99-4.72 13.42-3.48 26.86-6.89 40.3-10.33.11.3.21.6.32.9-25.71 12.53-48.62 29.49-72.52 45.17z"/><path d="m383.18 496.4c20.24 17.56 24.6 19.3 44.65 25.41-18.13 5.96-41.55-7.37-44.65-25.41z"/><path d="m477.56 469.5c.47 2.44.24 5.78 1.77 7.78 1.29 1.69 4.63 2.52 7.05 2.49 4.21-.06 8.43-.93 12.6-1.73 2.67-.51 5.25-1.51 8.07-1.82-13.21 6.33-26.42 12.66-40.04 19.18 1.54-11.07 6.61-22.87 10.56-25.91z"/><path d="m481.35 515.93c5.53-10.03 17.71-16.4 27.91-14.77-5.62 9.68-19.09 16.89-27.91 14.77z"/><path d="m516.82 551.25c1-12.39 4.1-24.38 2.67-37.25 9.21-1.86 18.52-3.73 28.7-5.78-8.46 16.53-15.1 33.27-31.37 43.03z"/></g><path d="m364.4 559.48c-6.01 1.56-11.9 4.07-17.99 4.72-12.73 1.34-24.33-3.31-35.65-8.55-1.07-.49-2.17-.91-3.25-1.37-.13.27-.26.55-.39.82 11.28 10.01 23.57 18.32 38.93 21.83-4.68 6.31-9.12 12.3-13.56 18.28 23.9-15.67 46.81-32.64 72.52-45.17-.11-.3-.21-.6-.32-.9-13.43 3.44-26.87 6.85-40.3 10.33z"/><path d="m272.15 375.1v86.06c.15-.04.31-.07.46-.11.49-6.47 1.54-12.96 1.37-19.42-.33-12.81 5.22-22.53 14.45-30.69.77-.68 1.55-1.83 1.58-2.79.16-4.84.07-9.7.07-14.36-8.55-3.78-12.46-11.66-17.94-18.7z"/><path d="m516.82 551.25c16.27-9.76 22.91-26.5 31.37-43.03-10.18 2.05-19.49 3.92-28.7 5.78 1.43 12.86-1.68 24.85-2.67 37.25z"/><path d="m603.98 554.23c-7.73 5.99-15.64 11.37-20.95 19.48-3.37 5.14-6.27 10.58-9.24 15.64 14.86-4.77 26.88-14.99 38.54-26.01-2.94-3.21-5.58-6.09-8.35-9.11z"/><path d="m332.31 513.54c1.46-11.8 1.79-23.73 2.47-35.62.06-1.05-.84-2.15-1.3-3.22.4 17.7-10.7 30.98-16.73 46.05 8.56 2.99 14.59.64 15.56-7.21z"/><path d="m592.86 595.94c13.87-7.2 24.95-17.34 36.64-27.08-1.97-2.12-3.68-3.98-5.12-5.53-11.08 9.36-22.01 18.58-33.16 28 .29.81.86 2.41 1.64 4.62z"/><path d="m498.97 478.03c-4.17.8-8.39 1.68-12.6 1.73-2.42.03-5.75-.8-7.05-2.49-1.53-2-1.3-5.34-1.77-7.78-3.95 3.03-9.02 14.84-10.56 25.91 13.62-6.53 26.83-12.86 40.04-19.18-2.82.31-5.4 1.3-8.07 1.82z"/><path d="m427.83 521.8c-20.05-6.1-24.41-7.85-44.65-25.41 3.1 18.04 26.51 31.37 44.65 25.41z"/><path d="m481.35 515.93c8.82 2.12 22.29-5.09 27.91-14.77-10.2-1.63-22.38 4.74-27.91 14.77z"/><path d="m621.59 509.16c-2.74-.03-5.07 2.31-5 5.05.06 2.64 2.23 4.75 4.91 4.76 2.9.02 4.93-2.07 4.87-5.02-.05-2.75-2.06-4.76-4.78-4.79z"/><path d="m144.21 445.73c-.28-5.04-.65-10.08-.98-15.14-4.97.26-9.44.49-14.05.74-.08.89-.23 1.56-.19 2.22.81 14.72 1.56 29.45 2.49 44.17.36 5.66-.13 6.54-5.81 6.87-12.87.76-25.74 1.47-38.61 2.17-4.91.27-5.62-.29-5.93-5.34-.61-9.73-1.08-19.48-1.62-29.22-.33-5.87-.7-11.74-1.04-17.39h-14.32c0 1.46-.04 2.26 0 3.06.48 9.16.93 18.32 1.48 27.48.6 10.08 1.08 20.18 2.02 30.23 1 10.69 7.95 16.34 17.82 15.61 14.92-1.09 29.85-2.01 44.79-2.7 9.79-.45 15.56-5.68 16.17-15.46.12-1.85.13-3.72.04-5.57-.73-13.92-1.48-27.83-2.26-41.74z"/><path d="m156.11 252.62c6.14-8.29 12.22-16.64 18.5-24.83.83-1.09 3.05-2.25 4.02-1.87 2.14.85 3.89 2.67 5.95 4.21-4.19 5.65-8.21 10.88-12.01 16.28-2.52 3.58-5.14 7.2-6.93 11.16-2.62 5.79-1.14 10.81 3.74 14.95 2.21 1.88 4.59 3.55 6.94 5.25 7.12 5.17 13.4 4.76 19.48-1.67 3.01-3.18 5.56-6.82 8.19-10.34 7.68-10.31 15.3-20.66 22.93-30.97-.32-.46-.45-.82-.71-1.01-11.93-8.84-23.84-17.7-35.82-26.47-2.91-2.13-6.28-2.95-9.89-2.22-5.29 1.06-8.58 4.86-11.62 8.86-4.49 5.91-8.85 11.92-13.26 17.89-3.89 5.27-7.77 10.55-11.75 15.95 3.6 2.66 6.81 5.03 10.15 7.49.8-1.02 1.46-1.82 2.07-2.65zm38.77-14.99c3.24 2.44 6.07 4.56 9.03 6.78-3.76 5.09-7.33 9.91-10.88 14.74-1.24 1.69-2.51 1.96-4.39.71-6.8-4.53-6.84-4.47-1.92-11.12 2.67-3.61 5.32-7.24 8.16-11.11z"/><path d="m141.63 370.95c-1.46 7.71-2.8 15.44-4.41 23.11-.28 1.35-1.67 3.52-2.51 3.5-3.11-.06-6.2-.88-9.45-1.45 2.79-14.44 5.45-28.19 8.21-42.51-6.58-1.23-12.69-2.37-18.81-3.52-9.91-1.86-15.6 1.13-17.91 10.91-2.93 12.37-5.5 24.88-7.1 37.48-.97 7.62 1.98 12.99 10.39 14.91 10.47 2.39 21.08 4.15 31.65 6.03 6.13 1.09 10.73-1.2 13.57-6.69 1.15-2.24 2.04-4.7 2.55-7.16 2.2-10.51 4.24-21.06 6.29-31.6.85-4.37 1.56-8.76 2.38-13.4-4.35-.82-8.27-1.56-12.35-2.33-.9 4.56-1.74 8.63-2.51 12.71zm-28.85 22.63c-2.5-.46-5.06-.57-7.26-1.52-.89-.38-1.54-2.67-1.35-3.96.63-4.42 1.8-8.77 2.51-13.18.49-3.02 1.65-4.41 4.86-3.35 1.51.5 3.14.63 5.27 1.04-1.36 7.06-2.64 13.73-4.03 20.97z"/><path d="m311.76 136.62c.21.09.47.05.68.13 5 1.78 9.59-.08 14.12-1.76 5.43-2.02 10.72-4.39 16.13-6.48 1.09-.42 3.23-.75 3.48-.31 1.48 2.56 2.91 5.28 3.49 8.13.15.75-2.6 2.48-4.27 3.17-10.46 4.36-20.99 8.55-31.63 12.85 1.58 3.93 3.08 7.65 4.75 11.81 10.62-4.29 20.95-8.34 31.17-12.64 5.53-2.32 11.15-4.62 16.25-7.72 5.18-3.15 6.59-8.57 4.67-14.37-1.13-3.4-2.46-6.75-3.93-10.01-2.58-5.7-6.82-8.32-13.06-7.7-3.07.3-6.13 1.26-9.05 2.33-5.43 2-10.83 4.11-16.07 6.54-3.44 1.59-4.24-.4-5.25-2.84-1.04-2.51-2.09-4.76 1.62-6.11 4.78-1.74 9.47-3.73 14.19-5.64 4.87-1.97 9.73-3.97 14.69-5.99-1.67-4.1-3.18-7.8-4.79-11.75-8.33 3.36-16.39 6.54-24.39 9.85-5.55 2.3-11.17 4.49-16.5 7.23-5.25 2.7-8.76 7.32-7.24 13.33 1.75 6.92 3.19 14.51 10.94 17.97z"/><path d="m123.01 333.64c10.46 4.3 16.92.68 20.93-7.54 2.44-4.99 4.61-10.12 6.86-15.21 3.36-7.6 3.35-7.57 10.71-3.85 1.99 1.01 2.42 2.27 1.55 4.2-1.47 3.28-2.93 6.56-4.38 9.85-3.43 7.79-6.85 15.58-10.36 23.56 4.01 1.77 7.67 3.38 11.61 5.11 3.73-8.4 7.38-16.49 10.92-24.63 2.86-6.58 6-13.08 8.27-19.86 2.83-8.46-.07-14.15-8.11-17.8-1.79-.81-3.61-1.54-5.41-2.33-9.04-3.94-14.88-2.1-19.84 6.36-.99 1.7-1.83 3.49-2.64 5.29-2.17 4.85-4.19 9.77-6.48 14.56-.57 1.2-1.93 2.84-2.95 2.86-4.91.09-7.12-3.44-5.21-7.82.32-.74.69-1.47 1.02-2.21 3.62-8.23 7.23-16.46 10.94-24.89-3.95-1.75-7.63-3.38-11.5-5.09-.55 1.12-1.03 2.01-1.44 2.94-4.73 10.68-9.52 21.33-14.16 32.05-5.61 12.95-2.29 19.54 9.66 24.45z"/><path d="m222.71 213.87c4.14 4.49 8.3 8.96 12.51 13.5 5.51-5.09 10.69-9.88 15.96-14.75-9.58-10.41-18.9-20.62-28.34-30.71-2.23-2.38-2.4-4.1.2-6.32 4.02-3.43 7.81-7.14 11.85-10.87-2.96-3.23-5.69-6.21-8.67-9.47-7.07 6.68-14.32 12.9-20.8 19.83-6.53 6.99-6.1 13.2.34 20.28 5.62 6.2 11.29 12.35 16.96 18.5z"/><path d="m257.75 124.65c.51-.34.96-1.06 1.06-1.66 1.2-7.88 2.32-15.78 3.58-24.46-5.55 3.6-10.49 6.76-15.35 10.04-.52.35-.83 1.37-.84 2.09-.06 7.07-.04 14.15-.04 21.51 3.85-2.48 7.75-4.96 11.59-7.52z"/><path d="m613.35 144.78c-2.29-1.53-4.85-2.74-7.41-3.78-7.81-3.19-15.69-6.2-23.53-9.32-4.33-1.72-4.61-2.43-2.92-6.66.69-1.72 1.43-3.42 2.04-5.17.94-2.72 2.64-3.21 5.17-2.12 2.76 1.19 5.58 2.22 8.38 3.32 9.65 3.82 19.3 7.64 29.22 11.56 1.66-4.22 3.21-8.14 4.81-12.19-4.36-1.73-8.42-3.38-12.51-4.97-11.85-4.63-23.6-9.55-35.61-13.75-9.76-3.41-15.74-.17-19.49 9.42-.92 2.36-1.87 4.72-2.8 7.08-4.19 10.65-1.8 16.58 8.69 21.52 1.46.69 2.97 1.3 4.47 1.9 7.65 3.04 15.29 6.09 22.96 9.07 2.81 1.09 3.81 2.7 2.45 5.64-1.17 2.52-2.02 5.18-3.04 7.76-1.73 4.39-2.25 4.6-6.67 2.85-13.76-5.44-27.53-10.87-41.67-16.46-1.67 4.26-3.2 8.17-4.78 12.2 6.96 2.78 13.49 5.43 20.05 7.99 11.22 4.38 22.34 9.05 33.72 12.94 9.05 3.09 15-.14 18.59-8.92 1.8-4.4 3.58-8.81 5.22-13.28 2.58-7.04.89-12.46-5.33-16.62z"/><path d="m739.29 235.35c-1.93-2.58-3.99-5.17-6.42-7.25-4.41-3.76-9.37-3.98-14.12-.65-7.98 5.6-15.87 11.32-23.63 17.22-4.88 3.71-5.98 8.63-3.56 14.24.91 2.11 2.13 4.13 3.46 6.01 4.14 5.88 8.39 11.68 12.63 17.5 3.61 4.96 7.26 9.89 10.99 14.97 3.2-2.35 6.16-4.52 9.21-6.76-1.1-1.55-1.95-2.79-2.83-4-5.52-7.6-11.04-15.21-16.59-22.79-1.1-1.51-2.13-2.98-.18-4.49 1.98-1.53 4.07-2.93 6.23-4.47 7.74 10.61 15.25 20.91 22.96 31.49 4.62-3.35 8.84-6.42 13.06-9.47 8.55-6.19 9.73-12.18 3.7-20.99-4.78-6.99-9.85-13.78-14.92-20.56zm-.21 25.57c-1.29.71-2.43 1.69-3.9 2.74-3.82-5.24-7.55-10.35-11.27-15.44 7.98-6.78 6.87-4.97 11.25 1 1.58 2.14 3.13 4.31 4.78 6.39 1.71 2.15 1.75 3.86-.87 5.32z"/><path d="m640.58 198.52c-1.5-1.02-2.84-2.08-1.39-4.21 5.15-7.54 10.24-15.13 15.43-22.81 5.21 3.49 10.19 6.83 15.3 10.25 2.15-3.19 4.14-6.15 6.4-9.49-5.29-3.6-10.22-6.96-15.2-10.36 3.52-5.26 6.79-10.15 10.23-15.28-5.48-3.71-10.72-7.25-16.02-10.83-.5.55-.86.84-1.11 1.22-10.79 15.95-21.64 31.86-32.32 47.88-3.6 5.4-3.07 11.35 2.17 15.62 7.05 5.74 14.75 10.68 22.35 16.09 2.39-3.54 4.43-6.58 6.55-9.72-4.32-2.91-8.37-5.61-12.39-8.36z"/><path d="m698.15 206.77c3.53 3.43 7.21 6.72 10.92 10.17 2.71-2.99 5.16-5.7 7.8-8.61-6.73-6.05-12.86-12.12-19.58-17.44-6.43-5.1-11.99-4.3-17.54 1.56-4.95 5.23-9.83 10.53-14.74 15.8-4.08 4.39-8.15 8.79-12.35 13.32 4.9 4.56 9.56 8.9 14.35 13.35 8.8-9.43 17.49-18.61 26.02-27.94 1.88-2.06 3.22-2.05 5.12-.2z"/><path d="m637.43 714.06c-3.72.61-7.5 1.65-10.92 3.24-21.11 9.8-42.13 19.8-63.17 29.75-4.36 2.06-8.7 4.19-13.11 6.31 7.74 16.37 15.3 32.36 23.01 48.66 6.76-3.2 13.28-6.28 20.09-9.5-6.08-12.89-11.99-25.42-18.01-38.18 3.95-1.87 7.79-3.69 11.63-5.5q4.92-2.32 7.19 2.47c5.24 11.08 10.48 22.16 15.78 33.4 6.78-3.21 13.34-6.33 20.07-9.52-6.06-12.87-12-25.48-17.9-38.01.63-.43.8-.58 1-.68 3.14-1.5 6.28-2.98 9.42-4.48q6.01-2.87 8.82 3.12c5.03 10.65 10.09 21.3 15.26 32.22 6.78-3.21 13.33-6.31 20.14-9.54-6.21-13.01-12.15-25.81-18.44-38.45-2.1-4.22-6.23-6.07-10.86-5.31z"/><path d="m256.66 719.89c-2.41-3.74-5.49-7.21-8.84-10.15-7.6-6.66-15.55-12.91-23.34-19.35-3.18-2.63-3.25-3.4-.77-6.51 1.3-1.64 2.71-3.19 3.95-4.87 1.62-2.18 3.37-2.16 5.34-.58 1.09.87 2.18 1.74 3.25 2.63 10.85 8.94 21.69 17.88 32.76 27 2.83-3.43 5.6-6.78 8.47-10.26-14.17-11.67-28.02-23.17-42-34.49-2.85-2.3-6.07-4.32-9.42-5.79-5.89-2.59-11.04-1.41-15.16 3.13-3.04 3.35-5.88 6.89-8.65 10.47-3.86 4.98-4.06 10.43-.55 15.48 2.41 3.47 5.51 6.59 8.72 9.37 7.38 6.38 15.04 12.44 22.53 18.68 3.55 2.95 3.55 3.45.75 6.98-1.81 2.27-3.73 4.46-5.46 6.78-1.92 2.58-3.88 2.46-6.17.54-4.72-3.95-9.5-7.83-14.25-11.74-8.6-7.07-17.19-14.15-26.01-21.4-2.81 3.41-5.45 6.62-8.51 10.34.74.57 1.3.97 1.83 1.41 13.55 11.14 27 22.4 40.7 33.35 4.57 3.65 9.5 7.07 14.75 9.59 4.97 2.39 10.12 1.09 13.92-3.19 3.93-4.43 7.7-9.01 11.29-13.72 3.25-4.27 3.75-9.23.86-13.7z"/><path d="m529.61 798.21c-7.64 1.27-15.27 2.62-22.93 3.82-1.77.28-3.91.62-4.35-2.1-.39-2.38-.7-4.77-1.11-7.52 14.56-2.39 28.88-4.75 43.63-7.17-1-5.74-2.36-11.03-2.75-16.4-.78-10.8-8.94-13.71-18.11-12.49-6.99.93-13.96 2.09-20.89 3.37-6.25 1.15-12.62 2.1-18.63 4.06-6.89 2.24-9.13 6.52-8.12 13.75 1.17 8.45 3.07 16.81 3.9 25.29 1.07 11 9.78 13.44 18.4 12.21 3.79-.54 7.56-1.18 11.33-1.8 11.76-1.92 23.52-3.86 35.79-5.87-.59-3.89-1.15-7.58-1.74-11.45-5.07.81-9.74 1.53-14.41 2.31zm-31.34-23.48c.01-.89 1.19-2.37 2.05-2.54 5.52-1.12 11.09-2.08 16.68-2.75.93-.11 2.52 1.28 2.99 2.34.68 1.51.62 3.36.95 5.58-7.2 1.17-14.3 2.33-21.62 3.52-.44-2.33-1.08-4.24-1.05-6.14z"/><path d="m327.13 742.08c-.75-.32-2.17.26-2.95.86-4.06 3.1-8.01 6.34-12.01 9.52-5.86 4.65-11.72 9.28-18.04 14.27-.18-1.79-.34-2.92-.39-4.05-.52-11.25-1-22.51-1.58-33.76-.06-1.14-.44-2.89-1.2-3.27-6.1-2.96-12.33-5.66-18.81-8.56 0 1.89-.06 3.27 0 4.64.92 19.14 1.82 38.28 2.82 57.42.11 2.08-.46 3.4-2.15 4.68-4.71 3.56-9.27 7.33-14.45 11.47 5.9 2.67 11.33 4.94 16.56 7.58 2.51 1.27 4.26 1.04 6.42-.7 15.55-12.52 31.19-24.92 46.8-37.36 5.83-4.65 11.65-9.32 17.87-14.29-6.65-3-12.73-5.83-18.9-8.44z"/><path d="m720.42 686.88c-6.21-7.38-12.06-8.21-20.03-2.78-1.72 1.17-3.33 2.52-4.9 3.9-4.44 3.92-8.79 7.94-13.29 11.79-.84.72-2.41 1.42-3.3 1.12-4.07-1.37-4.69-5.51-1.48-8.38 7.61-6.8 15.2-13.62 22.99-20.6-2.6-2.88-5.07-5.61-7.81-8.64-4.74 4.23-9.17 8.14-13.55 12.12-6.36 5.78-12.86 11.42-18.95 17.47-3.67 3.64-6.81 8.23-4.6 13.66 2.53 6.19 6.53 11.47 13.51 13.4 1.06.29 2.45.49 3.37.05 3.92-1.86 8.06-3.52 11.47-6.11 5.07-3.85 9.57-8.44 14.37-12.65.83-.72 2.52-1.8 2.85-1.53 2.11 1.73 4.16 3.63 5.7 5.85.35.51-1.14 2.74-2.21 3.71-8.83 8.06-17.76 16-26.85 24.15 2.63 2.89 5.11 5.61 7.83 8.6 5.1-4.56 10.03-8.93 14.91-13.36 7.13-6.48 14.47-12.76 21.26-19.57 6.57-6.59 7.26-13.83.27-20.35-.59-.55-1.06-1.23-1.58-1.85z"/><path d="m374.56 767.39c9.8 2.04 19.61 4.03 29.63 6.09.77-3.87 1.49-7.47 2.27-11.38-4.79-.99-9.3-1.94-13.82-2.84-9.85-1.96-19.68-4.07-29.58-5.75-5.85-.99-13.31 1.11-15.11 7.56-.95 3.42-1.58 6.96-2.02 10.49-.58 4.69 1.83 8.04 5.66 10.34 1.96 1.18 4.14 2.18 6.35 2.7 6.73 1.58 13.53 2.82 20.27 4.33 1.51.34 4.12 1.14 4.15 1.82.12 2.55-.31 5.26-1.24 7.63-.29.73-2.88 1.03-4.29.78-6.16-1.09-12.27-2.47-18.4-3.71-5.63-1.14-11.26-2.24-17.05-3.38-.81 4.03-1.51 7.51-2.23 11.07 1.15.37 2.11.79 3.11.99 9.64 1.94 19.29 3.85 28.95 5.74 5.47 1.07 10.91 2.3 16.42 3.05 7.85 1.06 13.67-2.41 15.34-8.86.78-3.03 1.33-6.13 1.83-9.22.83-5.15-1.05-9.22-5.53-11.78-2.48-1.42-5.23-2.58-8.01-3.24-6.65-1.59-13.39-2.84-20.1-4.19-2.2-.44-3.51-1.13-3-3.92.9-4.92 1.37-5.37 6.38-4.33z"/><path d="m444.18 744.89h-21.85c-.07.62-.2 1.29-.22 1.95-.42 18.93-.9 37.86-1.21 56.79-.12 7.41 3.7 12.16 11.3 12.98 8.74.94 17.58.99 26.38 1.39 1.68.08 3.38.01 5.08.01v-11.96c-5.75 0-11.3.02-16.85-.01-2.64-.02-4.14-1.05-3.72-4.06.29-2.06.28-4.17.29-6.25.03-6.7.01-13.41.01-20.27h21.12v-11.52h-20.34v-19.04z"/><path d="m304.76 279.6 11.73-13.44c-6.44 2.28-10.05 7.01-11.73 13.44z"/><path d="m323.5 262.82c3.72-4.23 7.43-8.46 11.15-12.7-6.08 2.16-10.13 6.12-11.15 12.7z"/><path d="m254.87 310.37c4.02-5.19 9.65-3.13 14.71-3.66-10.77-3.01-11.63-2.81-14.71 3.66z"/><path d="m329.06 273.58c3.14 3.01 6.28 6.03 9.42 9.04.13-.14.26-.27.39-.41-3.08-3.07-6.16-6.15-9.24-9.22-.19.19-.38.39-.57.58z"/><path d="m290.63 296.08c.39.13.78.26 1.17.38 1.49-3.07 2.98-6.13 4.47-9.2-.36-.17-.72-.34-1.08-.51-1.52 3.11-3.04 6.22-4.56 9.33z"/></svg>