<svg viewBox="0 0 1075.08 462.99" xmlns="http://www.w3.org/2000/svg"><g fill="#717274"><path d="m1059.99 418.53c-4.21-.15-8.59.67-12.57-1.36-1.93-.98-3.06-2.6-3.18-4.81-.07-1.19.12-2.23 1.63-2.39 2.13-.22 3.51.16 4.87 2.37 1.92 3.1 14.28 3.64 16.84 1.28 1.38-1.28 1.2-2.85.86-4.36-.41-1.83-1.97-2.31-3.61-2.43-4.47-.32-8.95-.54-13.42-.91-4.35-.36-7.12-2.34-7.25-7.15-.13-4.9 2.81-7.01 7.01-7.38 6.24-.55 12.54-1.2 18.72.65 2.4.72 3.89 2.16 4.03 4.75.05.93-.1 1.83-1.28 1.96-2.03.21-3.49-.14-5.23-1.87-4.18-4.17-9.61-2.19-14.57-1.59-1.68.2-2.28 1.95-2.2 3.7.09 1.92 1.3 2.9 2.98 3.07 4.23.45 8.48.81 12.74 1.01 5.04.25 8.84 1.58 8.72 7.72-.13 6.09-4.21 7.32-9.03 7.7-2 .16-4.03.03-6.05.03z"/><path d="m993.01 404.92q0-13.74 13.61-13.74c3.14 0 6.29-.04 9.43.03 1.47.03 3.51-.37 3.32 2.08-.15 1.94-1.93 1.45-3.14 1.47-4.27.07-8.54.12-12.8 0-2.63-.07-4.19.46-4.16 3.64.04 3.1.96 4.51 4.26 4.36 4.26-.2 8.53-.02 12.8 0 .95 0 1.89.29 2.05 1.29.24 1.48-.85 1.91-2.07 1.92-4.27.04-8.54.19-12.8 0-3.32-.15-4.19 1.3-4.25 4.38-.06 3.35 1.37 4.31 4.44 4.17 3.59-.16 7.19-.17 10.78.03 1.76.1 4.7-1.2 4.88 1.84.19 3.26-2.84 2.01-4.57 2.14-2.68.2-5.39.05-8.08.05q-13.69 0-13.69-13.66z"/><path d="m960.34 411.86c0-5.57.02-11.14 0-16.71-.01-2.16.01-4.02 3.06-4 2.85.02 3.31 1.55 3.28 3.87-.06 5.4.17 10.81-.1 16.19-.12 2.41 1.73 6.15-1.78 6.99-3.73.89-7.96 1.5-11.03-2.61-3.5-4.67-7.38-9.07-11.18-13.5-.94-1.09-1.67-3.02-3.63-2.3-1.92.71-1.33 2.65-1.37 4.12-.11 3.82-.1 7.65-.05 11.47.03 2.29-.99 3.2-3.26 3.21-2.34 0-3.17-1.07-3.14-3.3.06-5.62-.16-11.25.09-16.87.11-2.42-1.65-6.23 1.88-6.96 3.7-.76 8.02-1.51 10.95 2.8 2.26 3.33 5.1 6.27 7.68 9.4 2.4 2.91 4.79 5.83 7.19 8.75.47-.19.95-.37 1.42-.56zm-21.46-13.97c-.23-.37-.46-.73-.69-1.1-.26.31-.66.59-.75.95-.18.72.19 1.23.97 1.11.2-.03.31-.62.46-.96z"/><path d="m888.39 390.96h1.35c14.72-.34 17.77 3.9 15.17 20.88-.96 6.28-9.74 8.4-23.86 6.63-6.08-.76-9.91-3.26-10.03-10.23-.24-15.27 1.58-17.27 17.37-17.28zm.15 3.84c-10.6-.01-11.08.4-11.11 9.46-.04 10.02.73 10.81 10.58 10.86 10.04.06 11.34-1.13 11.32-10.34-.01-9.17-.87-9.97-10.79-9.98z"/><path d="m845.18 405.27c0 3.37-.08 6.75.03 10.12.07 2.34-.98 3.2-3.21 3.18-2.28-.02-3.17-1.05-3.14-3.31.07-6.97.06-13.94.02-20.91-.02-2.3 1.03-3.15 3.27-3.18 2.41-.03 3.11 1.13 3.06 3.31-.08 3.6-.02 7.2-.02 10.79z"/><path d="m798.21 418.92c-1.13-.08-2.03-.17-2.93-.21-12.99-.6-18.94-10.11-13.75-22.09.51-1.17 1.43-2.3 2.44-3.08 4.18-3.24 22.08-3.73 26.24-.85 1.81 1.26 2.71 2.95 2.59 5.17-.07 1.35-.84 1.97-2.13 2.08-1.93.17-2.98-.53-4.28-2.26-4.2-5.59-10.3-2.85-15.47-2.22-4.51.55-3.58 5.13-3.39 8.35.23 3.74-1.9 9.34 3.62 10.21 5.59.88 12.65 4.26 16.46-3.83.93-1.97 2.64-1.51 4.07-1.3 2.22.32 1.9 2.18 1.67 3.72-.46 3.03-2.3 4.86-5.32 5.27-3.33.46-6.7.72-9.82 1.04z"/><path d="m722.78 417.74c4.09-8.09 7.94-16.13 12.19-23.95 2.3-4.24 9.55-3.8 11.93.6 3.52 6.49 6.88 13.06 10.14 19.68.58 1.18 2.63 2.77.68 4-1.66 1.05-3.76.86-5.5-.79-6.28-5.94-16-5.86-22.88.09q-1.32 1.14-6.56.37zm17.47-21.58c-1.33 2.57-2.45 5.22-3.98 7.61-3.3 5.18-1.28 6.19 3.96 6.03 8.15-.26 8.21-.04 4.33-7.57-1.08-2.1-1.52-4.7-4.31-6.07z"/><path d="m685.68 390.96c3.38.16 7.27-.49 10.89 1.27 2.19 1.07 3.47 2.81 3.69 5.26.11 1.2-.11 2.21-1.61 2.42-2.52.35-3.45-1.1-5.15-2.86-4.22-4.39-10.16-2.41-15.3-1.62-4.59.7-3.72 5.09-3.51 8.31.26 3.94-1.78 9.84 4.29 10.47 5.29.54 12.24 4.31 15.7-3.89.96-2.26 3.06-1.74 4.68-1.33 2.13.54 1.47 2.48 1.21 3.95-.61 3.45-3.17 4.66-6.27 5.15-6.04.95-12.1 1.01-18.13.12-5.19-.76-7.64-3.81-7.95-9.2-.92-15.82 1-17.98 17.46-18.03z"/><path d="m635.46 404.2c0-3.38.01-6.76-.01-10.14-.02-1.9.72-2.9 2.78-2.89 2.04 0 3.59.35 3.59 2.85-.01 7.21-.01 14.42.02 21.63 0 1.94-.84 2.89-2.81 2.92-2.04.04-3.58-.38-3.56-2.88.03-3.83 0-7.66 0-11.49z"/><path d="m578.61 398.15c0 5.12.02 10.23 0 15.35-.01 2.38.68 5.18-3.36 5.08-3.67-.09-2.91-2.67-2.93-4.78-.06-5.39-.19-10.8.06-16.18.1-2.15-1.69-5.67 1.91-6.17 3.31-.46 7.2-1.67 10.03 1.8 4.26 5.23 8.56 10.42 12.86 15.6.82.99 1.49 2.6 3.01 2.25 2.17-.5 1.35-2.54 1.39-3.95.13-4.27.09-8.54.07-12.81-.01-2.24.96-3.2 3.26-3.19 2.4 0 3.12 1.18 3.11 3.33-.03 6.97-.02 13.93 0 20.9 0 1.8-.52 3.23-2.58 3.11-3.43-.19-7.1 1.19-9.93-2.39-4.98-6.29-10.28-12.32-15.45-18.46-.48.16-.96.33-1.45.49z"/><path d="m512.4 402.91c0-2.47.03-4.94 0-7.4-.03-2.41.08-4.48 3.47-4.35 3.08.12 2.91 2.13 2.92 4.18 0 4.26.27 8.54-.06 12.78-.36 4.68 1.71 6.62 6.12 6.69 2.02.03 4.04 0 6.06.08 5.66.21 8.22-2.23 7.67-8.11-.37-4-.05-8.07-.07-12.11-.01-1.98.26-3.46 2.85-3.51 2.69-.05 3.58 1.14 3.49 3.64-.09 2.69-.02 5.38-.02 8.07 0 14.16-1.54 15.74-15.63 15.97-1.79.03-3.58-.16-5.37-.26-9.89-.59-11.38-2.2-11.41-12.3 0-1.12 0-2.24 0-3.36z"/><path d="m462.13 412c3.35-5.8 6.79-10.83 9.27-16.29 2.38-5.25 6.5-5.07 10.69-4.37 4.51.76 2.24 4.72 2.4 7.22.34 5.38.06 10.8.12 16.21.03 2.37-.52 3.85-3.35 3.83-3.02-.02-3.09-1.87-3.07-4.06.04-4.93.01-9.86.01-16.61-5.09 5.69-7.41 11.17-10.46 16.12-3.99 6.48-7.22 6.54-11.14.03-3-4.97-5.95-9.97-9.54-15.97-2.17 6-.93 11.06-1.25 15.96-.15 2.29.24 4.65-3.29 4.51-3.19-.13-2.71-2.35-2.72-4.32-.03-5.4-.23-10.82.09-16.21.14-2.3-1.95-6.07 2.15-6.68 3.8-.57 7.89-1.27 10.28 3.81 2.65 5.62 6.24 10.8 9.81 16.82z"/><path d="m396.94 390.76c3.13.25 6.31.25 9.39.82 4.8.88 7.48 3.87 7.53 8.91.02 2.7-.07 5.41.02 8.1.19 5.81-2.91 8.87-8.34 9.5-4.22.49-8.52.64-12.77.47-12.02-.47-18.34-12.69-12-22.96 2.17-3.52 6.06-4.64 16.17-4.84zm.07 4.04c-10.43 0-11.5.93-11.47 10.07.03 8.98 1.33 10.22 10.79 10.25 10.23.04 11.22-.88 11.22-10.3 0-9.57-.47-10.02-10.54-10.03z"/><path d="m340.33 418.9c-.72-.05-1.62-.13-2.51-.17-13.09-.55-18.91-9.74-13.94-22.07.33-.81.85-1.6 1.44-2.25 3.74-4.1 23.57-5.15 27.76-1.33 1.79 1.63 3.89 4.18 1.45 6.25-1.88 1.59-3.78.5-5.78-2.05-3.89-4.95-10-2.46-15.1-1.94-4.68.48-4.02 4.86-3.72 8.09.35 3.88-2.2 9.83 3.87 10.66 5.49.75 12.58 4.33 16.27-4.02.94-2.14 3.24-1.59 4.77-1.03 1.88.69 1.22 2.64.89 4.13-.67 3.07-2.99 4.43-5.81 4.84-3.11.45-6.26.59-9.57.88z"/></g><path d="m888.54 394.8c9.92.01 10.78.81 10.79 9.98.01 9.22-1.28 10.4-11.32 10.34-9.85-.06-10.62-.84-10.58-10.86.03-9.06.52-9.48 11.11-9.46z" fill="#e5e5e5"/><g fill="#80a60f"><path d="m0 462.99c9.91-31.99 14.86-64.27 28.23-94.12 6.48-14.46 14.34-28.06 24.7-40.08 29.42-34.12 66.83-48.08 111.4-43.79 19.05 1.83 36.92 7.35 53.97 16.04 18.58 9.47 31.25 23.86 38.25 43.44 8.31 23.21 12.54 46.89 8.72 71.55-3.14 20.28-12.87 26.83-32.94 22.8-16.68-3.35-27-13.37-32.11-29.29-4.64-14.46-5.38-29.61-7.94-44.44-.92-5.31-1.83-10.65-3.29-15.82-6.63-23.45-22.03-34.55-46.39-35.6-34.52-1.49-61.34 11.38-81.91 39.25-23.33 31.61-40.12 66.54-55.28 102.46-1.03 2.43-1.16 5.68-5.43 7.61z"/><path d="m280.3 83.39c.28 20.67-3.78 40.44-9.68 59.81-8.81 28.96-21.81 55.6-43.66 77.27-20.62 20.45-45.6 31.36-74.14 35.23-35.01 4.75-68.96 12.96-98.94 32.89-13.5 8.97-24.82 20.06-32.34 34.66-.41.79-.91 1.55-1.49 2.21-.22.25-.8.19-1.86.4 5.9-22.74 15.85-42.99 31.26-60.4 23.43-26.47 53.65-39.88 88.16-43.15 52.73-4.99 90.4-32.21 117.25-76.38 10.93-17.98 18.86-37.25 24.03-57.66.42-1.64.93-3.26 1.4-4.89z"/><path d="m120.61 212.27c-6.65-.32-12.96-1-18.94-3.04-12.84-4.39-23.33-11.7-25.06-26.27-1.69-14.23 4.14-26.11 15.13-34.98 10.54-8.5 22.98-9.94 35.83-6.7 15.04 3.79 26.91 12.44 35.29 25.45 9.67 15.02 5.71 29.52-9.98 38.03-10.17 5.52-21.31 6.8-32.27 7.51z"/><path d="m306.86 58.88c-13.47-16.61-29.89-19.27-50.33-10.17 8.64-8 20.77-10.23 31.75-6.81 8.86 2.76 15.65 7.84 18.58 16.97z"/><path d="m238.86 36.34c18.81-15.44 39.55-18.96 61.8-9.53 16.32 6.92 26.71 19.17 29.61 37.08-21.21-39.9-52.56-45.68-91.41-27.55z"/><path d="m212.55 31.3c13.03-18.49 31.68-27.18 53.38-30.44 35.39-5.31 71.34 14.55 84.05 46.36 3.34 8.36 3.78 11.54 2.24 18.24-5.17-19.48-15.96-34.17-32.25-44.76-32.18-20.91-75.37-17.33-103.81 8.49-1.03.94-1.69 2.88-3.75 2.01l.14.09z"/></g><path d="m1008.94 312.7c19.64 17.57 37.86 33.86 57.38 51.33-14.28 0-27.05-.82-39.66.21-15.06 1.23-27.78-1.31-37.14-14.39-2.82-3.95-7.35-6.63-10.72-10.24-17.5-18.76-39.28-27.08-64.64-26.96-13.07.06-26.14.22-39.2-.1-4.94-.12-6.02 1.74-5.94 6.26.24 13.28-.04 26.58.16 39.86.06 4.02-1.05 5.54-5.3 5.44-11.26-.26-22.53-.23-33.79-.01-3.89.07-4.96-1.29-4.95-5.06.1-51.12.1-102.25 0-153.37 0-4 1.56-4.95 5.18-4.94 57.9.07 115.79-.02 173.69.18 5.78.02 11.64.56 17.41 1.88 19.01 4.33 29.82 14.74 32.67 33.93 1.98 13.35 1.96 27.09.1 40.42-3.07 22-15.9 32.92-38.81 35.08-1.5.14-3 .23-6.44.49zm-70.97-71.68c-21.15 0-42.31.13-63.46-.1-4.55-.05-5.92 1.44-5.74 5.77.26 6.29.43 12.62-.04 18.89-.44 5.79 1.2 7.67 7.36 7.62 38.7-.31 77.41-.15 116.12-.15 18.29 0 19.39-1.12 19.18-19.54-.1-9.31-3.23-12.45-12.67-12.46-20.25-.04-40.51-.01-60.76-.01z" fill="#717274"/><path d="m684.06 199.1c22.76 0 45.52-.1 68.27.03 26.23.15 48.11 17.33 53.02 41.5.53 2.62.71 5.36.71 8.04.05 36.27-.09 72.53.16 108.8.04 5.35-1.4 6.88-6.71 6.68-11.03-.41-22.09-.41-33.11 0-5.46.2-7.46-1.13-7.26-6.97.45-12.82-.1-25.68.26-38.51.15-5.28-1.36-6.89-6.76-6.86-36.05.23-72.1-.04-108.15.27-6.27.05-8.18-1.66-7.75-7.85.54-7.85.5-15.78 0-23.64-.36-5.75 1.06-7.59 7.26-7.53 35.82.34 71.65-.04 107.47.35 6.79.07 8.54-1.99 7.91-8.29-.6-6.03-.13-12.16-.52-18.21-.37-5.84-3.77-8.98-9.71-8.98-43.71-.02-87.42-.03-131.14.01-5.95 0-9.15 3.21-9.56 9.12-.19 2.69-.28 5.4-.29 8.09-.02 34.01-.1 68.03.08 102.04.03 4.99-.83 7.21-6.56 6.97-11.7-.48-23.43-.32-35.14-.05-4.17.09-5.32-1.16-5.3-5.32.16-37.39-.11-74.79.17-112.18.16-21.57 19.21-42.03 42.29-46.29 4.65-.86 9.33-1.3 14.09-1.28 22.08.1 44.16.04 66.24.04z" fill="#717274"/><path d="m407.15 364.03c-25.91 0-51.82-.14-77.72.12-5.08.05-6.41-1.35-6.37-6.39.24-30.63.21-61.26.02-91.89-.03-4.72 1.32-6.17 6.06-6.05 11.93.32 23.88.27 35.82.02 4.22-.09 5.37 1.34 5.33 5.41-.18 17.79.07 35.59-.18 53.38-.07 4.83 1.02 6.66 6.3 6.63 33.79-.23 67.58-.03 101.38-.16 13.53-.05 17.51-4.34 17.53-17.97.02-16.67.01-33.33 0-50 0-15.32-3.68-19.15-19.15-19.18-46.86-.08-93.72-.03-140.58-.03q-12.4 0-12.4-12.34c0-6.98.27-13.98-.1-20.94-.25-4.61 1.5-5.64 5.79-5.61 25.91.17 51.81.08 77.72.08 24.56 0 49.12-.35 73.67.11 21.22.4 39.62 7.74 53.06 24.97 6.01 7.7 8.85 16.64 8.89 26.38.08 18.47.02 36.94.02 55.4 0 28.46-14.59 47.53-42.11 55.15-7.66 2.12-15.44 2.95-23.37 2.93-23.2-.06-46.41-.02-69.61-.02z" fill="#717274"/></svg>