<?xml version="1.0" encoding="UTF-8"?>
<svg id="Capa_1" data-name="Capa 1" xmlns="http://www.w3.org/2000/svg" version="1.1" viewBox="0 0 1082.2 348.9">
  <defs>
    <style>
      .cls-1 {
        fill: #fbf39a;
      }

      .cls-1, .cls-2, .cls-3 {
        stroke-width: 0px;
      }

      .cls-2, .cls-3 {
        fill: #ed2b2b;
      }

      .cls-3 {
        fill-rule: evenodd;
      }
    </style>
  </defs>
  <g>
    <path class="cls-3" d="M931.6,160.8c0-6.4-2.1-10.9-6.3-13.4-4.2-2.5-11.1-3.8-20.6-3.8h-8.8v33.5h9c10.2,0,17.2-1.1,20.9-3.3,3.8-2.3,5.8-6.6,5.8-12.9M951.5,194.7c4.5,2.6,8.1,5.7,11.1,9.3,2.9,3.5,6.9,10.7,11.9,21.6l14,30.2h-45l-10.9-24.7c-4-9-7.6-15.6-10.8-19.7-3.2-4.3-6.4-6.9-9.5-8-3-1.2-6.9-1.8-11.7-1.8h-4.7v54.3h-41.9V116.9h71.3c11.5,0,20.9,2.3,28.3,7,7.3,4.7,12.6,10.4,15.8,17.1,3.3,6.7,4.9,13,4.9,19s-1.3,13-4.1,17.9c-2.7,4.8-5.5,8.3-8.6,10.5-2.9,2.2-6.4,4.3-10.1,6.3"/>
    <path class="cls-2" d="M785.2,116.9h41.9v139h-41.9V116.9Z"/>
    <path class="cls-3" d="M772,116.9l-62.7,140.8h-27.7l-61.5-140.8h43.6l31.8,80.2,32.7-80.2h43.7Z"/>
  </g>
  <path class="cls-1" d="M537.2,210.4h69.3v47.4h-69.3v-47.4Z"/>
  <path class="cls-1" d="M537.2,150.8h69.3v47.4h-69.3v-47.4Z"/>
  <path class="cls-1" d="M537.2,91.1h69.3v47.4h-69.3v-47.4Z"/>
  <g>
    <path class="cls-3" d="M525.4,116.9l-62.7,140.8h-27.7l-61.5-140.8h43.6l31.8,80.2,32.7-80.2h43.7Z"/>
    <path class="cls-3" d="M342.4,203.5l-20.3-50.8-20.5,50.8h40.9ZM406.2,255.9h-42.9l-11.3-28.2h-60.4l-11.5,28.2h-42.9l61.5-139h46.3l61.3,139Z"/>
    <path class="cls-3" d="M193.9,187.1c0-11.3-2.2-20.1-6.6-26.4-4.3-6.3-9.4-10.6-15.5-12.8-6-2.1-12.2-3.2-18.5-3.2h-17.8v82.3h17.8c11,0,20.5-2.6,28.5-7.9,8-5.2,12-15.9,12-32.2M236.5,188.9c0,14.3-2.6,25.7-7.8,34.3-5.1,8.6-11.2,15.6-18.3,21-10,7.8-23.9,11.7-41.8,11.7h-75V116.9h57.7c8.7,0,16.1.4,22.3,1.4,6.2.9,11.8,2.1,16.8,3.8,4.9,1.6,9.1,3.4,12.6,5.5,3.5,2,6.6,4.2,9.3,6.5,4.8,3.9,8.9,8.5,12.4,13.8,3.6,5.3,6.5,11.4,8.5,18.3,2.2,6.9,3.2,14.5,3.2,22.7"/>
  </g>
</svg>