<svg viewBox="0 0 510.69 570.52" xmlns="http://www.w3.org/2000/svg"><g fill-rule="evenodd"><g fill="#c0984d"><path d="m34.79 250.13c0-57.5 22.59-111.38 63.6-151.7l-.05-.05c40.42-39.58 93.46-61.38 149.41-61.38 117.37 0 212.86 95.49 212.86 212.86 0 54.95-22.37 109.33-61.39 149.4l-.03-.03c-40.32 41.01-94.19 63.6-151.69 63.6-117.29 0-212.71-95.42-212.71-212.71zm212.71-239.7c-62.1 0-120.69 23.58-165.48 66.37l16.4 16.4-.92.92c40.89-39.21 94.12-60.8 150.26-60.8 119.41 0 216.55 97.15 216.55 216.55 0 55.44-22.39 110.28-61.46 150.93l1.58-1.59 16.4 16.39c42.8-44.8 66.38-103.39 66.38-165.48 0-132.17-107.53-239.7-239.7-239.7zm263.19 495.04-84.64-84.64c44.19-46.19 68.53-106.64 68.53-170.7-0-136.24-110.84-247.07-247.08-247.07-64.06 0-124.51 24.34-170.7 68.54l-71.59-71.6-5.21 5.21 90.63 90.64c-40.76 41.41-63.21 96.03-63.21 154.28 0 121.35 98.73 220.08 220.09 220.08 58.25 0 112.87-22.45 154.28-63.21l103.69 103.68 5.22-5.21z"/><path d="m223.03 556.8c-2.5-.41-4.53-1.19-6.03-2.3-1.52-1.12-2.75-2.5-3.67-4.1-.93-1.61-1.56-3.44-1.87-5.43-.33-2.05-.46-4.2-.38-6.4.06-1.63.23-3.29.52-4.92.23-1.37.47-2.72.71-4.05 9.35-1.49 18.68-2.67 27.75-3.51 9.39-.87 19.54-1.36 29.9-1.49.93.13 1.71-.02 2.29-.51.39-.32.87-.94.91-2.03.04-1.05-.36-1.71-.7-2.08-.51-.55-1.23-.84-2.18-.87h-.1c-10.55 0-20.68.44-30.11 1.31-8.68.8-17.46 1.93-26.14 3.34.23-.88.15-1.64-.24-2.26-.27-.42-.79-.97-1.82-1.15-1.56-.29-2.77.39-3.29 1.76-.3.7-.5 1.39-.6 2.03-.03.19-.08.39-.13.6-3.24.56-6.47 1.14-9.7 1.75l-.56.11c-.68-3.45-2.6-6.36-5.72-8.67-3.89-2.88-8.99-5.16-15.16-6.79-6.05-1.6-12.98-2.79-20.58-3.54-7.48-.73-15.06-1.36-22.51-1.86-5.63-.43-11.17-.89-16.62-1.39-5.35-.48-10.22-1.15-14.47-2.01-4.16-.84-7.55-1.89-10.08-3.12-2.79-1.36-3.07-2.82-3.04-3.79.14-4.1 1.85-8.23 5.09-12.28 3.35-4.19 7.81-8.18 13.25-11.85 5.49-3.7 11.85-7.17 18.89-10.3s14.44-5.82 22-8c7.6-2.18 15.19-3.87 22.54-5.03 7.37-1.16 14.21-1.64 20.33-1.43 3.89.13 7.49.83 10.7 2.09 3.21 1.25 6.07 2.93 8.5 5.01 2.44 2.08 4.49 4.49 6.1 7.16 1.63 2.71 2.87 5.6 3.67 8.56.41 1.62 1.68 2.44 3.3 2.16 1-.18 1.54-.7 1.82-1.11.42-.63.54-1.42.34-2.35 0-.02 0-.03-.01-.05-.88-3.53-2.31-6.93-4.26-10.12-1.94-3.18-4.38-6.05-7.23-8.53-2.88-2.49-6.27-4.48-10.08-5.92s-8.07-2.25-12.66-2.41c-6.57-.22-13.81.29-21.54 1.54-7.71 1.24-15.61 3.08-23.47 5.46-7.85 2.38-15.56 5.26-22.93 8.57-7.39 3.32-14.06 7.05-19.83 11.1-5.83 4.08-10.61 8.45-14.19 12.98-3.7 4.69-5.67 9.59-5.85 14.57-.11 3.31 1.37 6 4.41 8.01 2.74 1.81 6.48 3.25 11.09 4.27 4.51 1.01 9.77 1.78 15.63 2.28 5.82.5 11.91.98 18.28 1.44 7.34.49 14.68 1.08 21.82 1.74s13.65 1.7 19.34 3.08c5.57 1.35 10.11 3.2 13.47 5.5 2.37 1.62 3.76 3.62 4.23 6.07l-4.77.9c-1.14.11-1.75.64-2.06 1.06-.31.43-.64 1.17-.39 2.33.24 1.13.84 1.68 1.3 1.94.68.39 1.49.42 2.23.17 1.09-.22 2.1-.4 3.17-.61-.86 2.52-2.49 5.18-5.01 7.97-3.82 4.24-8.59 8.21-14.17 11.78-5.59 3.57-11.69 6.52-18.13 8.77-6.37 2.22-12.19 3.29-17.24 3.09-2.59-.09-4.42-.79-5.59-2.15-1.2-1.39-1.75-3.05-1.68-5.09.09-2.51 1.01-5.34 2.74-8.42 1.75-3.11 4.37-6.01 7.58-8.52 1.3-.71 1.71-2.1 1.05-3.54-.42-.92-1.06-1.27-1.54-1.4-.77-.22-1.58-.03-2.53.61-4.09 3.21-7.24 6.71-9.37 10.39-2.16 3.73-3.32 7.33-3.43 10.69-.12 3.5.88 6.51 2.97 8.96 2.12 2.49 5.36 3.83 9.62 3.98.4.01.8.02 1.2.02 3.51 0 7.33-.51 11.36-1.54 4.41-1.12 8.88-2.7 13.3-4.68 4.38-1.98 8.71-4.32 12.87-6.97 4.18-2.66 7.93-5.5 11.13-8.44 3.25-2.96 5.9-6.08 7.88-9.24 1.58-2.54 2.57-5.02 3-7.42.35-.06.72-.14 1.07-.21 2.6-.47 5.17-.95 7.74-1.42-.47 2.65-.76 5.26-.84 7.78-.09 2.62.07 5.24.48 7.79.42 2.64 1.25 5.07 2.46 7.24 1.23 2.21 2.99 4.12 5.22 5.71 2.24 1.59 5.06 2.64 8.38 3.14.21.03.42.05.62.05 1.4 0 2.45-.8 2.8-2.18.25-.99-.03-1.69-.31-2.11-.45-.66-1.19-1.08-2.2-1.22z"/><path d="m349.2 534.91c.27.16.67.31 1.18.31.23 0 .49-.03.77-.11l5.27-1.09c1.61-.4 2.44-1.66 2.15-3.29-.18-1-.7-1.54-1.11-1.81-.63-.42-1.42-.54-2.34-.35l-5.4 1.12c-1.5.45-2.2 1.78-1.8 3.38.21.87.64 1.49 1.27 1.84z"/><path d="m294.57 542.54s0 0 0 0zm-13.71 9.51c.15-.26.39-.57.74-.94.18-.19.41-.35.61-.53 1.07-.54 2.02-1.07 2.73-1.57.2-.13.32-.3.48-.45 1.22-.56 2.55-1.05 4.02-1.44.97-.25 1.95-.42 2.92-.51-2.07 1.61-4.07 2.88-5.96 3.79-2.02.97-3.87 1.53-5.53 1.65zm102.16 3.39c.23-.62.51-1.23.86-1.82-.02.99-.23 1.9-.62 2.76-.23.49-.47.86-.69 1.05.02-.58.18-1.25.46-2zm40.22-4.84c-.28-1.01-.84-1.5-1.26-1.73-.41-.23-1.09-.43-2.05-.16-5.28 1.68-11.7 2.42-19.05 2.14-2.24-.08-4.5-.25-6.72-.5-2.13-.24-4.21-.62-6.17-1.12.05-.47-.03-.99-.24-1.54-.73-1.88-2.22-2.2-3.4-1.85-.03 0-.07.02-.11.03-1.07.4-2.04 1.05-2.93 1.88-2.21 1.17-4.67 2.27-7.34 3.26-2.76 1.03-5.56 1.92-8.34 2.64-2.75.72-5.53 1.28-8.27 1.66-2.68.37-5.15.53-7.33.44-1.84-.06-3.15-.64-4.03-1.77-.83-1.06-.93-2.5-.25-4.52.25-1.07-.11-2.43-1.92-3.06-1.05-.36-1.85-.19-2.44.2-.2.06-.38.06-.59.16-5.06 2.43-9.13 4.11-12.13 4.99-2.93.87-5.95 1.27-9.03 1.15-2.23-.08-3.73-1.03-4.72-3-1.12-2.2-1.62-5.31-1.48-9.25.16-4.67 1.2-10.46 3.04-17.1.54-1.46-.07-2.82-1.58-3.46-.8-.34-1.53-.36-2.18-.08-.43.19-1.02.6-1.3 1.38-2.54 5.22-5.29 9.84-8.18 13.72-2.07 2.79-4.16 5.25-6.25 7.35-.04-.08-.08-.16-.13-.22-.41-.64-1.11-1.04-2.07-1.19-.06 0-.12-.01-.18-.02-2.31-.08-4.61.2-6.88.82-2.24.62-4.3 1.48-6.13 2.57-.34.2-.61.43-.94.65-.66.35-1.42.72-2.37 1.12-1.5.64-3.21 1.26-5.08 1.85s-3.7 1.09-5.44 1.49c-1.68.39-3.2.58-4.5.52-2.15-.07-3.81-.62-4.93-1.63-1.3-1.15-2.43-2.49-3.4-4-.77-1.13-1.65-1.72-2.64-1.75-.69-.02-1.6.22-2.49 1.41-1.41 1.86-3.1 3.52-5.01 4.92-1.49 1.09-2.85 1.71-4.04 1.84.04-.6.15-1.3.31-2.07.2-.92.48-1.9.86-2.91.37-.99.74-1.82 1.15-2.59.57-1.29.11-2.57-1.19-3.35-1.34-.79-2.73-.49-3.56.78-.05.08-.09.16-.13.25-.4.97-.87 2.2-1.41 3.71-.57 1.57-.98 3.14-1.22 4.65-.27 1.69-.17 3.19.31 4.46.34.93 1.34 2.51 4.09 2.6h.3c2.28 0 4.7-.89 7.19-2.67 1.77-1.26 3.26-2.49 4.46-3.69.98 1.09 2.18 2.14 3.58 3.13 2.11 1.49 4.66 2.3 7.59 2.4 1.58.05 3.39-.13 5.59-.57 2.11-.42 4.2-.93 6.22-1.53.06-.02.11-.04.17-.06.1 1.05.48 1.96 1.18 2.72.86.92 1.99 1.41 3.35 1.46 4.39.12 9.38-1.81 15.16-5.82 4.49-3.11 8.95-7.76 13.3-13.88-.07.89-.11 1.75-.14 2.59-.18 5.18.6 9.4 2.29 12.56 1.85 3.43 4.95 5.24 9.22 5.39.37.01.74.02 1.12.02 3.13 0 6.26-.46 9.32-1.36 2.58-.76 5.83-2.03 9.71-3.78.16 1.58.7 2.97 1.65 4.17 1.89 2.39 4.78 3.67 8.58 3.81.44.01.89.02 1.35.02 2.11 0 4.4-.16 6.84-.48 2.97-.39 5.99-.97 8.97-1.71 3.04-.76 6.07-1.7 9.01-2.81.41-.15.79-.33 1.18-.49-.2 1.49-.1 2.89.32 4.19.37 1.12 1.44 3.02 4.54 3.12h.28c2.46 0 4.42-1.17 5.68-3.4.8-1.44 1.31-2.87 1.53-4.26 1.29.19 2.7.35 4.22.49 2.14.2 4.47.34 6.92.42 8.19.28 15.17-.48 20.95-2.32 1.41-.64 2-1.92 1.6-3.43z"/></g><path d="m247.5 10.43c132.17 0 239.7 107.53 239.7 239.7 0 62.1-23.58 120.69-66.38 165.48-5.57-5.57 15.07 15.07 5.22 5.22 44.19-46.19 68.53-106.64 68.53-170.7.01-136.24-110.83-247.07-247.07-247.07-64.06 0-124.5 24.33-170.69 68.52l5.25 5.27-.04-.04c44.79-42.8 103.38-66.38 165.48-66.38z" fill="#808080"/><path d="m271.41 63.05-1.07-.32v44.61c-13.14-3.81-27.04-5.88-41.42-5.88-81.09 0-146.83 64.86-146.83 144.87 0 48.17 23.84 90.81 60.49 117.16l2.69-16.08c-29.06-24.02-47.55-60.08-47.55-100.41 0-72.31 59.41-130.93 132.7-130.93 13.91 0 27.32 2.12 39.92 6.04l-.02 249.8v13.46l.29-.12c60.78-17.73 105.14-73.19 105.14-138.91 0-60.65-37.78-112.56-91.38-134.15v-34.99c71.28 21.1 123.4 88.32 123.4 168.01 0 94.73-73.65 171.81-165.57 174.77v-242.18h-14.06v255.47c1.95.06 3.89.13 5.86.13 103.3 0 187.05-83.74 187.05-187.05 0-90.49-64.26-165.95-149.63-183.28zm91.7 183.95c0 53.35-32.35 99.23-78.75 119.64v-239.26c46.39 20.4 78.75 66.27 78.75 119.62z" fill="#c0984d"/></g></svg>