<?xml version="1.0" encoding="UTF-8"?>
<svg xmlns="http://www.w3.org/2000/svg" xmlns:xlink="http://www.w3.org/1999/xlink" viewBox="0 0 738.62 857.98">
  <defs>
    <style>
      .cls-1 {
        fill: url(#radial-gradient-21);
      }

      .cls-1, .cls-2, .cls-3, .cls-4, .cls-5, .cls-6, .cls-7, .cls-8, .cls-9, .cls-10, .cls-11, .cls-12, .cls-13, .cls-14, .cls-15, .cls-16, .cls-17, .cls-18, .cls-19, .cls-20, .cls-21, .cls-22, .cls-23, .cls-24, .cls-25, .cls-26, .cls-27, .cls-28, .cls-29, .cls-30, .cls-31, .cls-32, .cls-33, .cls-34, .cls-35, .cls-36, .cls-37, .cls-38, .cls-39, .cls-40, .cls-41, .cls-42, .cls-43, .cls-44, .cls-45, .cls-46, .cls-47, .cls-48, .cls-49, .cls-50, .cls-51, .cls-52, .cls-53, .cls-54, .cls-55 {
        stroke-width: 0px;
      }

      .cls-1, .cls-2, .cls-3, .cls-4, .cls-5, .cls-6, .cls-7, .cls-8, .cls-9, .cls-10, .cls-11, .cls-12, .cls-56, .cls-41, .cls-42 {
        mix-blend-mode: screen;
      }

      .cls-1, .cls-2, .cls-3, .cls-4, .cls-5, .cls-6, .cls-7, .cls-8, .cls-9, .cls-10, .cls-11, .cls-12, .cls-41, .cls-42 {
        opacity: .85;
      }

      .cls-2 {
        fill: url(#radial-gradient-20);
      }

      .cls-3 {
        fill: url(#radial-gradient-19);
      }

      .cls-4 {
        fill: url(#radial-gradient-10);
      }

      .cls-5 {
        fill: url(#radial-gradient-11);
      }

      .cls-6 {
        fill: url(#radial-gradient-17);
      }

      .cls-7 {
        fill: url(#radial-gradient-18);
      }

      .cls-8 {
        fill: url(#radial-gradient-15);
      }

      .cls-9 {
        fill: url(#radial-gradient-12);
      }

      .cls-10 {
        fill: url(#radial-gradient-13);
      }

      .cls-11 {
        fill: url(#radial-gradient-14);
      }

      .cls-12 {
        fill: url(#radial-gradient-16);
      }

      .cls-13, .cls-57 {
        fill: #8478b3;
      }

      .cls-14 {
        fill: url(#radial-gradient-23);
      }

      .cls-14, .cls-15, .cls-35, .cls-36, .cls-37, .cls-38, .cls-39, .cls-54 {
        mix-blend-mode: color-dodge;
      }

      .cls-15 {
        fill: url(#radial-gradient-22);
      }

      .cls-16 {
        fill: url(#linear-gradient);
      }

      .cls-17 {
        fill: #72c6d7;
      }

      .cls-18 {
        fill: url(#linear-gradient-11);
      }

      .cls-19 {
        fill: url(#linear-gradient-12);
      }

      .cls-20 {
        fill: url(#linear-gradient-13);
      }

      .cls-21 {
        fill: url(#linear-gradient-10);
      }

      .cls-22 {
        fill: url(#linear-gradient-17);
      }

      .cls-23 {
        fill: url(#linear-gradient-16);
      }

      .cls-24 {
        fill: url(#linear-gradient-19);
      }

      .cls-25 {
        fill: url(#linear-gradient-15);
      }

      .cls-26 {
        fill: url(#linear-gradient-23);
      }

      .cls-27 {
        fill: url(#linear-gradient-21);
      }

      .cls-28 {
        fill: url(#linear-gradient-18);
      }

      .cls-29 {
        fill: url(#linear-gradient-14);
      }

      .cls-30 {
        fill: url(#linear-gradient-22);
      }

      .cls-31 {
        fill: url(#linear-gradient-20);
      }

      .cls-32 {
        fill: #2c7aba;
      }

      .cls-57 {
        stroke: #8478b3;
        stroke-miterlimit: 10;
      }

      .cls-33 {
        fill: #72438f;
      }

      .cls-34 {
        fill: url(#radial-gradient-5);
      }

      .cls-35 {
        fill: url(#radial-gradient-9);
      }

      .cls-36 {
        fill: url(#radial-gradient-6);
      }

      .cls-37 {
        fill: url(#radial-gradient-8);
      }

      .cls-38 {
        fill: url(#radial-gradient-7);
      }

      .cls-39 {
        fill: url(#radial-gradient-2);
      }

      .cls-58 {
        opacity: .3;
      }

      .cls-59 {
        opacity: .5;
      }

      .cls-40 {
        fill: #a97ca8;
      }

      .cls-41 {
        fill: url(#radial-gradient-4);
      }

      .cls-42 {
        fill: url(#radial-gradient-3);
      }

      .cls-43 {
        fill: #c5bfde;
      }

      .cls-44 {
        fill: url(#linear-gradient-4);
      }

      .cls-45 {
        fill: url(#linear-gradient-2);
      }

      .cls-46 {
        fill: url(#linear-gradient-3);
      }

      .cls-47 {
        fill: url(#linear-gradient-8);
      }

      .cls-48 {
        fill: url(#linear-gradient-9);
      }

      .cls-49 {
        fill: url(#linear-gradient-7);
      }

      .cls-50 {
        fill: url(#linear-gradient-5);
      }

      .cls-51 {
        fill: url(#linear-gradient-6);
      }

      .cls-60 {
        isolation: isolate;
      }

      .cls-52 {
        fill: #fff;
      }

      .cls-53 {
        fill: #b1b1b1;
      }

      .cls-54 {
        fill: url(#radial-gradient);
      }

      .cls-55 {
        fill: #76448f;
      }
    </style>
    <linearGradient id="linear-gradient" x1="93.07" y1="152.1" x2="407.22" y2="152.1" gradientUnits="userSpaceOnUse">
      <stop offset=".03" stop-color="#5f418e"/>
      <stop offset=".32" stop-color="#6464a2"/>
      <stop offset=".96" stop-color="#71bfd7"/>
      <stop offset="1" stop-color="#72c6db"/>
    </linearGradient>
    <linearGradient id="linear-gradient-2" x1="483.61" y1="722.05" x2="584.51" y2="722.05" gradientTransform="translate(-2.08 2.08)" gradientUnits="userSpaceOnUse">
      <stop offset="0" stop-color="#eaeaea"/>
      <stop offset=".04" stop-color="#dedede"/>
      <stop offset=".12" stop-color="#bfbfbf"/>
      <stop offset=".23" stop-color="#8d8d8d"/>
      <stop offset=".28" stop-color="#6e6e6e"/>
      <stop offset=".63" stop-color="#262626"/>
      <stop offset="1" stop-color="#eaeaea"/>
    </linearGradient>
    <linearGradient id="linear-gradient-3" x1="484.41" y1="721.25" x2="585.32" y2="721.25" gradientTransform="translate(-1.82 1.82)" xlink:href="#linear-gradient-2"/>
    <linearGradient id="linear-gradient-4" x1="485.22" y1="720.45" x2="586.12" y2="720.45" gradientTransform="translate(-1.56 1.56)" xlink:href="#linear-gradient-2"/>
    <linearGradient id="linear-gradient-5" x1="486.02" y1="719.65" x2="586.92" y2="719.65" gradientTransform="translate(-1.3 1.3)" xlink:href="#linear-gradient-2"/>
    <linearGradient id="linear-gradient-6" x1="486.82" y1="718.84" x2="587.72" y2="718.84" gradientTransform="translate(-1.04 1.04)" xlink:href="#linear-gradient-2"/>
    <linearGradient id="linear-gradient-7" x1="487.62" y1="718.04" x2="588.53" y2="718.04" gradientTransform="translate(-.78 .78)" xlink:href="#linear-gradient-2"/>
    <linearGradient id="linear-gradient-8" x1="488.43" y1="717.24" x2="589.33" y2="717.24" gradientTransform="translate(-.52 .52)" xlink:href="#linear-gradient-2"/>
    <linearGradient id="linear-gradient-9" x1="489.23" y1="716.44" x2="590.13" y2="716.44" gradientTransform="translate(-.26 .26)" xlink:href="#linear-gradient-2"/>
    <linearGradient id="linear-gradient-10" x1="490.03" y1="715.63" x2="590.93" y2="715.63" gradientTransform="matrix(1,0,0,1,0,0)" xlink:href="#linear-gradient-2"/>
    <linearGradient id="linear-gradient-11" x1="490.03" y1="715.63" x2="590.93" y2="715.63" xlink:href="#linear-gradient"/>
    <linearGradient id="linear-gradient-12" x1="490.03" y1="715.63" x2="590.93" y2="715.63" gradientUnits="userSpaceOnUse">
      <stop offset="0" stop-color="#eaeaea"/>
      <stop offset=".05" stop-color="#dedede"/>
      <stop offset=".14" stop-color="#bfbfbf"/>
      <stop offset=".25" stop-color="#8d8d8d"/>
      <stop offset=".31" stop-color="#6e6e6e"/>
      <stop offset=".62" stop-color="#262626"/>
      <stop offset="1" stop-color="#eaeaea"/>
    </linearGradient>
    <linearGradient id="linear-gradient-13" x1="404.27" y1="713.16" x2="505.11" y2="713.16" gradientTransform="translate(-2.08 2.08)" xlink:href="#linear-gradient"/>
    <linearGradient id="linear-gradient-14" x1="405.33" y1="712.1" x2="506.18" y2="712.1" gradientTransform="translate(-1.82 1.82)" xlink:href="#linear-gradient"/>
    <linearGradient id="linear-gradient-15" x1="406.4" y1="711.03" x2="507.25" y2="711.03" gradientTransform="translate(-1.56 1.56)" xlink:href="#linear-gradient"/>
    <linearGradient id="linear-gradient-16" x1="407.47" y1="709.96" x2="508.32" y2="709.96" gradientTransform="translate(-1.3 1.3)" xlink:href="#linear-gradient"/>
    <linearGradient id="linear-gradient-17" x1="408.54" y1="708.89" x2="509.39" y2="708.89" gradientTransform="translate(-1.04 1.04)" xlink:href="#linear-gradient"/>
    <linearGradient id="linear-gradient-18" x1="409.61" y1="707.82" x2="510.46" y2="707.82" gradientTransform="translate(-.78 .78)" xlink:href="#linear-gradient"/>
    <linearGradient id="linear-gradient-19" x1="410.68" y1="706.75" x2="511.52" y2="706.75" gradientTransform="translate(-.52 .52)" xlink:href="#linear-gradient"/>
    <linearGradient id="linear-gradient-20" x1="411.75" y1="705.68" x2="512.59" y2="705.68" gradientTransform="translate(-.26 .26)" xlink:href="#linear-gradient"/>
    <linearGradient id="linear-gradient-21" x1="412.82" y1="704.61" x2="513.66" y2="704.61" xlink:href="#linear-gradient"/>
    <linearGradient id="linear-gradient-22" x1="463.24" y1="767.01" x2="463.24" y2="642.22" xlink:href="#linear-gradient"/>
    <linearGradient id="linear-gradient-23" x1="412.82" y1="704.61" x2="513.66" y2="704.61" xlink:href="#linear-gradient"/>
    <radialGradient id="radial-gradient" cx="-195.2" cy="691.07" fx="-195.2" fy="691.07" r="33.38" gradientTransform="translate(954.91 191.5) rotate(78.41)" gradientUnits="userSpaceOnUse">
      <stop offset="0" stop-color="#fff"/>
      <stop offset=".04" stop-color="rgba(240, 240, 240, .94)" stop-opacity=".94"/>
      <stop offset=".25" stop-color="rgba(168, 168, 168, .66)" stop-opacity=".66"/>
      <stop offset=".45" stop-color="rgba(108, 108, 108, .43)" stop-opacity=".43"/>
      <stop offset=".63" stop-color="rgba(61, 61, 61, .24)" stop-opacity=".24"/>
      <stop offset=".78" stop-color="rgba(28, 28, 28, .11)" stop-opacity=".11"/>
      <stop offset=".91" stop-color="rgba(7, 7, 7, .03)" stop-opacity=".03"/>
      <stop offset="1" stop-color="#000" stop-opacity="0"/>
    </radialGradient>
    <radialGradient id="radial-gradient-2" cx="-195.2" cy="691.07" fx="-195.2" fy="691.07" r="60.06" gradientTransform="translate(753.45 -361.56) rotate(30.02)" xlink:href="#radial-gradient"/>
    <radialGradient id="radial-gradient-3" cx="23240.42" cy="3686.15" fx="23240.42" fy="3686.15" r="21.86" gradientTransform="translate(1658.07 13536.52) rotate(-168.49) scale(.17 3.48) skewX(-.11)" gradientUnits="userSpaceOnUse">
      <stop offset="0" stop-color="#fff"/>
      <stop offset=".1" stop-color="rgba(255, 255, 255, .8)" stop-opacity=".8"/>
      <stop offset=".22" stop-color="rgba(255, 255, 255, .59)" stop-opacity=".59"/>
      <stop offset=".35" stop-color="rgba(255, 255, 255, .41)" stop-opacity=".41"/>
      <stop offset=".47" stop-color="rgba(255, 255, 255, .26)" stop-opacity=".26"/>
      <stop offset=".59" stop-color="rgba(255, 255, 255, .15)" stop-opacity=".15"/>
      <stop offset=".71" stop-color="rgba(255, 255, 255, .07)" stop-opacity=".07"/>
      <stop offset=".83" stop-color="rgba(255, 255, 255, .02)" stop-opacity=".02"/>
      <stop offset=".94" stop-color="#fff" stop-opacity="0"/>
    </radialGradient>
    <radialGradient id="radial-gradient-4" cx="12438.13" cy="1831.91" fx="12438.13" fy="1831.91" r="21.86" gradientTransform="translate(-6448.74 1002.76) rotate(-78.49) scale(.17 3.48) skewX(-.11)" xlink:href="#radial-gradient-3"/>
    <radialGradient id="radial-gradient-5" cx="-639.9" cy="3718.63" fx="-639.9" fy="3718.63" r="19.39" gradientTransform="translate(3957.26 798.4) rotate(90) scale(1.02 1)" gradientUnits="userSpaceOnUse">
      <stop offset="0" stop-color="#fff"/>
      <stop offset=".08" stop-color="rgba(249, 249, 249, .98)" stop-opacity=".98"/>
      <stop offset=".19" stop-color="rgba(234, 234, 234, .92)" stop-opacity=".92"/>
      <stop offset=".3" stop-color="rgba(210, 210, 210, .83)" stop-opacity=".83"/>
      <stop offset=".42" stop-color="rgba(176, 176, 176, .69)" stop-opacity=".69"/>
      <stop offset=".54" stop-color="rgba(131, 131, 131, .52)" stop-opacity=".52"/>
      <stop offset=".67" stop-color="rgba(77, 77, 77, .3)" stop-opacity=".3"/>
      <stop offset=".8" stop-color="rgba(15, 15, 15, .06)" stop-opacity=".06"/>
      <stop offset=".83" stop-color="#000" stop-opacity="0"/>
    </radialGradient>
    <radialGradient id="radial-gradient-6" cx="2108.22" cy="-817.74" fx="2108.22" fy="-817.74" r="82.98" gradientTransform="translate(-1995.25 -216.14) rotate(30.42)" gradientUnits="userSpaceOnUse">
      <stop offset="0" stop-color="#f8d6d7"/>
      <stop offset=".07" stop-color="rgba(227, 196, 196, .92)" stop-opacity=".92"/>
      <stop offset=".42" stop-color="rgba(131, 113, 113, .53)" stop-opacity=".53"/>
      <stop offset=".7" stop-color="rgba(60, 52, 52, .24)" stop-opacity=".24"/>
      <stop offset=".9" stop-color="rgba(16, 14, 14, .07)" stop-opacity=".07"/>
      <stop offset="1" stop-color="#000" stop-opacity="0"/>
    </radialGradient>
    <radialGradient id="radial-gradient-7" cx="2108.22" cy="-817.74" fx="2108.22" fy="-817.74" r="80.57" gradientTransform="translate(-1145.59 1935.79) rotate(-31.12)" gradientUnits="userSpaceOnUse">
      <stop offset="0" stop-color="#fae0e0"/>
      <stop offset=".08" stop-color="rgba(227, 203, 203, .91)" stop-opacity=".91"/>
      <stop offset=".42" stop-color="rgba(131, 117, 117, .52)" stop-opacity=".52"/>
      <stop offset=".7" stop-color="rgba(60, 54, 54, .24)" stop-opacity=".24"/>
      <stop offset=".9" stop-color="rgba(16, 15, 15, .07)" stop-opacity=".07"/>
      <stop offset="1" stop-color="#000" stop-opacity="0"/>
    </radialGradient>
    <radialGradient id="radial-gradient-8" cx="-11747.98" cy="-831.18" fx="-11747.98" fy="-831.18" r="101.63" gradientTransform="translate(1233.55 964.88) rotate(-.04) scale(.09 1) skewX(-.41)" xlink:href="#radial-gradient-6"/>
    <radialGradient id="radial-gradient-9" cx="-11747.98" cy="-831.18" fx="-11747.98" fy="-831.18" r="98.68" gradientTransform="translate(1524.85 279.69) rotate(-33.28) scale(.09 1) skewX(-.41)" xlink:href="#radial-gradient-7"/>
    <radialGradient id="radial-gradient-10" cx="20892.6" cy="3855.63" fx="20892.6" fy="3855.63" r="26.94" gradientTransform="translate(3136.34 13755.98) rotate(-176.82) scale(.17 3.48) skewX(-.36)" xlink:href="#radial-gradient-3"/>
    <radialGradient id="radial-gradient-11" cx="15814.19" cy="1950.36" fx="15814.19" fy="1950.36" r="26.94" gradientTransform="translate(-6698.52 2526.79) rotate(-86.82) scale(.17 3.48) skewX(-.36)" xlink:href="#radial-gradient-3"/>
    <radialGradient id="radial-gradient-12" cx="15497.51" cy="4111.84" fx="15497.51" fy="4111.84" r="21.86" gradientTransform="translate(5832.11 13603.11) rotate(168.12) scale(.17 3.48) skewX(-.49)" xlink:href="#radial-gradient-3"/>
    <radialGradient id="radial-gradient-13" cx="20923.07" cy="2221.72" fx="20923.07" fy="2221.72" r="21.86" gradientTransform="translate(-6582.54 5314.61) rotate(-101.88) scale(.17 3.48) skewX(-.49)" xlink:href="#radial-gradient-3"/>
    <radialGradient id="radial-gradient-14" cx="9951.29" cy="4268.4" fx="9951.29" fy="4268.4" r="16.81" gradientTransform="translate(8039.95 12918.8) rotate(155.25) scale(.17 3.48) skewX(-.15)" xlink:href="#radial-gradient-3"/>
    <radialGradient id="radial-gradient-15" cx="24043.99" cy="2499.69" fx="24043.99" fy="2499.69" r="16.81" gradientTransform="translate(-5909.85 7606.57) rotate(-114.75) scale(.17 3.48) skewX(-.15)" xlink:href="#radial-gradient-3"/>
    <radialGradient id="radial-gradient-16" cx="27012.34" cy="3137.46" fx="27012.34" fy="3137.46" r="21.86" gradientTransform="translate(-2167.85 11804.34) rotate(-144.97) scale(.17 3.48) skewX(-.02)" xlink:href="#radial-gradient-3"/>
    <radialGradient id="radial-gradient-17" cx="1514" cy="1642.76" fx="1514" fy="1642.76" r="21.86" gradientTransform="translate(-4599.35 -2923.47) rotate(-54.97) scale(.17 3.48) skewX(-.02)" xlink:href="#radial-gradient-3"/>
    <radialGradient id="radial-gradient-18" cx="26204.45" cy="3339.86" fx="26204.45" fy="3339.86" r="26.95" gradientTransform="translate(-899.77 12595.22) rotate(-153.29) scale(.17 3.48) skewX(-.16)" xlink:href="#radial-gradient-3"/>
    <radialGradient id="radial-gradient-19" cx="5547.41" cy="1683.56" fx="5547.41" fy="1683.56" r="26.95" gradientTransform="translate(-5436.28 -1625.54) rotate(-63.29) scale(.17 3.48) skewX(-.16)" xlink:href="#radial-gradient-3"/>
    <radialGradient id="radial-gradient-20" cx="27113.47" cy="2821.5" fx="27113.47" fy="2821.5" r="35.36" gradientTransform="translate(-3856.84 10256.96) rotate(-132.22) scale(.17 3.48) skewX(-.39)" xlink:href="#radial-gradient-3"/>
    <radialGradient id="radial-gradient-21" cx="-4789.71" cy="1637.93" fx="-4789.71" fy="1637.93" r="35.36" gradientTransform="translate(-2974.18 -4644.55) rotate(-42.22) scale(.17 3.48) skewX(-.39)" xlink:href="#radial-gradient-3"/>
    <radialGradient id="radial-gradient-22" cx="-55067.67" cy="4298.09" fx="-55067.67" fy="4298.09" r="101.59" gradientTransform="translate(6596.97 547.41) rotate(46.09) scale(.09 1) skewX(-.22)" xlink:href="#radial-gradient-6"/>
    <radialGradient id="radial-gradient-23" cx="-55067.67" cy="4298.09" fx="-55067.67" fy="4298.09" r="98.64" gradientTransform="translate(6596.97 547.41) rotate(46.09) scale(.09 1) skewX(-.22)" xlink:href="#radial-gradient-7"/>
  </defs>
  <g class="cls-60">
    <g id="Capa_2" data-name="Capa 2">
      <g id="Capa_1-2" data-name="Capa 1">
        <g>
          <g>
            <path class="cls-53" d="M114.5,842.05c-1.5,4.51-4.01,8.1-7.51,10.77-3.46,2.67-7.55,4.01-12.27,4.01-6.58,0-11.85-2.48-15.81-7.44-3.77-4.6-5.65-10.27-5.65-16.99s1.88-12.36,5.65-16.96c3.96-4.96,9.23-7.44,15.81-7.44,4.63,0,8.72,1.36,12.27,4.07,3.51,2.7,6.01,6.29,7.51,10.78l-4.9.86c-1.17-3.29-3.08-5.92-5.72-7.87-2.6-1.95-5.65-2.93-9.16-2.93-5.2,0-9.31,2.01-12.34,6.04-2.82,3.67-4.22,8.16-4.22,13.48s1.41,9.84,4.22,13.51c3.03,4,7.14,6.01,12.34,6.01,3.46,0,6.5-.97,9.12-2.9,2.65-1.98,4.57-4.61,5.76-7.91l4.9.93Z"/>
            <path class="cls-53" d="M119.01,856.83v-48.84h21.4l-.61,4.9h-15.89v17.07h9.77l.61,4.9h-10.38v17.07h15.89l.61,4.9h-21.4Z"/>
            <path class="cls-53" d="M167.85,856.83l-16.46-37.86v37.86h-4.9v-48.84h4.9l16.46,37.85v-37.85h4.9v48.84h-4.9Z"/>
            <path class="cls-53" d="M206.06,812.89h-11.59v43.94h-4.9v-43.94h-12.2l.61-4.9h28.7l-.61,4.9Z"/>
            <path class="cls-53" d="M234.58,856.83l-18.43-21.97v21.97h-4.9v-48.84h16.57c3.72,0,6.77,1.3,9.16,3.9,2.41,2.62,3.62,5.8,3.62,9.52s-1.21,6.93-3.62,9.55c-2.39,2.6-5.44,3.9-9.16,3.9h-5.69l18.46,21.97h-6.01ZM235.69,821.43c0-2.43-.69-4.44-2.08-6.03-1.5-1.66-3.44-2.5-5.8-2.5h-11.66v17.07h11.66c2.36,0,4.29-.83,5.8-2.5,1.38-1.6,2.08-3.61,2.08-6.03Z"/>
            <path class="cls-53" d="M286.35,832.39c0,6.63-1.85,12.3-5.55,16.99-3.96,4.96-9.21,7.44-15.74,7.44s-11.85-2.48-15.81-7.44c-3.74-4.6-5.62-10.27-5.62-16.99s1.87-12.36,5.62-16.96c3.96-4.96,9.23-7.44,15.81-7.44s11.78,2.48,15.74,7.44c3.7,4.63,5.55,10.28,5.55,16.96ZM281.45,832.41c0-5.29-1.38-9.78-4.14-13.48-3.02-4.03-7.11-6.04-12.25-6.04s-9.3,2.01-12.32,6.04c-2.81,3.67-4.21,8.16-4.21,13.48s1.41,9.84,4.21,13.51c3.02,4,7.13,6.01,12.32,6.01s9.2-2,12.25-6.01c2.76-3.69,4.14-8.2,4.14-13.51Z"/>
            <path class="cls-33" d="M344.25,857.98h-9.16l-16.67-19.79v19.79h-7.34v-51.2h17.78c4.08,0,7.43,1.42,10.05,4.26,2.62,2.84,3.94,6.3,3.94,10.38s-1.31,7.5-3.94,10.41c-2.62,2.84-5.98,4.26-10.05,4.26h-3.04l18.43,21.9ZM335.51,821.43c0-2.07-.61-3.81-1.83-5.21-1.19-1.41-2.8-2.11-4.83-2.11h-10.45v14.63h10.45c2.03,0,3.65-.74,4.87-2.21,1.19-1.33,1.79-3.03,1.79-5.1Z"/>
            <path class="cls-33" d="M375.26,857.98h-7.66l-3.11-12.13h-12.2l-3.11,12.13h-7.58l13.31-51.2h6.9l13.45,51.2ZM362.99,838.51l-4.58-17.21-4.58,17.21h9.16Z"/>
            <path class="cls-33" d="M410.3,832.39c0,7.01-1.98,12.97-5.94,17.86-4.2,5.15-9.73,7.73-16.6,7.73h-12.27v-51.2h12.27c6.87,0,12.4,2.6,16.6,7.8,3.96,4.89,5.94,10.83,5.94,17.82ZM402.96,832.38c0-4.97-1.26-9.15-3.79-12.52-2.79-3.83-6.6-5.75-11.41-5.75h-4.94v36.53h4.94c4.82,0,8.62-1.9,11.41-5.71,2.53-3.38,3.79-7.56,3.79-12.56Z"/>
            <path class="cls-33" d="M419.78,857.98h-7.34v-51.2h7.34v51.2Z"/>
            <path class="cls-33" d="M467.11,832.39c0,7.09-1.97,13.04-5.91,17.86-4.2,5.15-9.74,7.73-16.61,7.73s-12.51-2.58-16.76-7.73c-3.94-4.82-5.91-10.77-5.91-17.86s1.99-12.98,5.98-17.82c4.23-5.2,9.79-7.8,16.69-7.8s12.41,2.6,16.61,7.8c3.94,4.84,5.91,10.78,5.91,17.82ZM459.78,832.38c0-4.97-1.26-9.15-3.79-12.52-2.84-3.83-6.64-5.75-11.4-5.75s-8.66,1.89-11.47,5.67c-2.57,3.47-3.86,7.67-3.86,12.6s1.29,9.18,3.86,12.63c2.83,3.76,6.66,5.64,11.47,5.64s8.59-1.9,11.4-5.71c2.52-3.38,3.79-7.56,3.79-12.56Z"/>
            <path class="cls-33" d="M493.23,857.98h-24.01v-51.2h7.34v43.87h15.74l.93,7.34Z"/>
            <path class="cls-33" d="M538.86,832.39c0,7.09-1.97,13.04-5.91,17.86-4.2,5.15-9.74,7.73-16.61,7.73s-12.51-2.58-16.76-7.73c-3.94-4.82-5.91-10.77-5.91-17.86s1.99-12.98,5.98-17.82c4.23-5.2,9.79-7.8,16.69-7.8s12.41,2.6,16.61,7.8c3.94,4.84,5.91,10.78,5.91,17.82ZM531.52,832.38c0-4.97-1.26-9.15-3.79-12.52-2.84-3.83-6.64-5.75-11.4-5.75s-8.66,1.89-11.47,5.67c-2.57,3.47-3.86,7.67-3.86,12.6s1.29,9.18,3.86,12.63c2.83,3.76,6.66,5.64,11.47,5.64s8.59-1.9,11.4-5.71c2.52-3.38,3.79-7.56,3.79-12.56ZM523.18,792.71l-7.44,13.42h-6.08l4.51-13.42h9.02Z"/>
            <path class="cls-33" d="M583.51,823.84l-7.26,1.29c-1.2-3.32-2.95-5.95-5.26-7.91-2.55-2.08-5.5-3.11-8.84-3.11-4.84,0-8.67,1.89-11.49,5.67-2.58,3.47-3.86,7.67-3.86,12.6s1.29,9.18,3.86,12.63c2.84,3.76,6.66,5.64,11.47,5.64,3.12,0,5.89-.88,8.29-2.63,2.41-1.75,4.2-4.11,5.36-7.08v-2.42h-14.96v-7.34h22.29v26.8h-7.34v-5.65c-3.62,3.77-8.18,5.65-13.67,5.65-6.89,0-12.45-2.58-16.67-7.73-3.98-4.84-5.98-10.79-5.98-17.86s2-12.98,6.01-17.82c4.23-5.2,9.78-7.8,16.68-7.8,5.15,0,9.65,1.61,13.49,4.82,3.53,3.04,6.16,7.12,7.87,12.25Z"/>
            <path class="cls-33" d="M594.1,857.98h-7.34v-51.2h7.34v51.2Z"/>
            <path class="cls-33" d="M640.29,841.05c-1.74,5.15-4.37,9.22-7.87,12.19-3.84,3.16-8.34,4.73-13.49,4.73-6.9,0-12.45-2.58-16.68-7.73-4-4.84-6.01-10.79-6.01-17.86s2-12.98,6.01-17.82c4.23-5.2,9.78-7.8,16.68-7.8,5.15,0,9.65,1.61,13.49,4.82,3.53,3.04,6.16,7.12,7.87,12.25l-7.26,1.29c-1.2-3.34-2.95-5.98-5.26-7.91-2.55-2.08-5.5-3.11-8.84-3.11-4.84,0-8.67,1.89-11.49,5.67-2.58,3.47-3.86,7.67-3.86,12.6s1.29,9.18,3.86,12.63c2.84,3.76,6.67,5.64,11.49,5.64,3.34,0,6.28-1.04,8.84-3.11,2.34-1.91,4.09-4.53,5.26-7.87l7.26,1.4Z"/>
            <path class="cls-33" d="M685.7,832.39c0,7.09-1.97,13.04-5.91,17.86-4.2,5.15-9.74,7.73-16.61,7.73s-12.51-2.58-16.76-7.73c-3.94-4.82-5.91-10.77-5.91-17.86s1.99-12.98,5.98-17.82c4.23-5.2,9.79-7.8,16.69-7.8s12.41,2.6,16.61,7.8c3.94,4.84,5.91,10.78,5.91,17.82ZM678.36,832.38c0-4.97-1.26-9.15-3.79-12.52-2.84-3.83-6.64-5.75-11.4-5.75s-8.66,1.89-11.47,5.67c-2.57,3.47-3.86,7.67-3.86,12.6s1.29,9.18,3.86,12.63c2.83,3.76,6.66,5.64,11.47,5.64s8.59-1.9,11.4-5.71c2.52-3.38,3.79-7.56,3.79-12.56Z"/>
          </g>
          <rect class="cls-55" y="696.34" width="738.62" height="87.94"/>
          <g>
            <path class="cls-16" d="M133.27,262.3s-61.02-113.32-32.69-189.59C128.91-3.56,189.93.8,189.93.8c0,0,63.2-10.9,167.8,47.94,104.6,58.84,10.9,202.66,10.9,202.66,0,0-91.53,111.14-235.35,10.9Z"/>
            <path class="cls-40" d="M605.35,262.89s61.02-113.32,32.69-189.59C609.71-2.97,548.69,1.39,548.69,1.39c0,0-63.2-10.9-167.8,47.94-104.6,58.84-10.9,202.66-10.9,202.66,0,0,91.53,111.14,235.35,10.9Z"/>
            <path class="cls-13" d="M416.1,315.43s-98.64-20.24-132.93,45.76c-33.02,63.57,30.51,128.57,30.51,128.57l-1,89.35s-6.94,19.96-21.86,26.36c-10.21,4.38-40.68,11.73-73.03-6.74-49.67-28.37-98.06-163.64-84.99-337.98,0,0,39.43-106.58,140.66-102.22,101.23,4.36,155.71,87.17,142.64,156.9Z"/>
            <path class="cls-43" d="M281.42,364.47S155.02,107.53,362.05,57.4c0,0,270.22-26.15,246.25,246.25-23.97,272.4-95.88,305.09-95.88,305.09,0,0-26.74,6.54-59.43,0,0,0-18.67-2.37-26.47-76.46l36.4-3.36s13.88-19.55,2.99-44.33c6.36-11.34,14.63-10.33,14.63-10.33l-4.55-15.68,19.61-13.65-25.73-30.74c-3.59-6.28-5.4-20.07-5.87-27.29-2.89-44.17-26.76-74.61-76.09-74.53-54.41.09-83.77,17.83-106.48,52.1Z"/>
          </g>
          <g>
            <g>
              <path class="cls-52" d="M173.08,708.08c44.76,0,44.76,68.17,0,68.17h-23.02v-68.17h23.02ZM173.08,774.79c42.81,0,42.81-65.24,0-65.24h-21.55v65.24h21.55Z"/>
              <path class="cls-52" d="M234.69,774.79h36.28v1.46h-37.84v-68.17h37.65v1.46h-36.08v31.79h35.3v1.56h-35.3v31.89Z"/>
              <path class="cls-52" d="M297.58,776.25v-68.37l1.37.1,45.35,65.54v-65.54h1.46v68.27h-1.56l-45.06-65.15v65.15h-1.56Z"/>
              <path class="cls-52" d="M384.07,776.25v-66.71h-23.6v-1.56h48.66v1.56h-23.6v66.71h-1.46Z"/>
            </g>
            <g>
              <g class="cls-58">
                <path class="cls-45" d="M527.79,775.16h-46.26c-1.17,0-2.11-.94-2.11-2.11v-97.83c0-1.17.94-2.11,2.11-2.11h46.26c10.98,0,20.88,2.09,29.42,6.22,8.62,4.16,15.4,10.16,20.16,17.84,4.75,7.67,7.16,16.74,7.16,26.97s-2.41,19.3-7.16,26.97c-4.76,7.67-11.54,13.67-20.16,17.84-8.54,4.13-18.44,6.22-29.43,6.22ZM483.64,770.94h44.15c10.34,0,19.63-1.95,27.59-5.8,7.89-3.81,14.08-9.28,18.41-16.26,4.33-6.99,6.53-15.31,6.53-24.74s-2.2-17.75-6.53-24.74c-4.33-6.98-10.53-12.45-18.41-16.26-7.97-3.85-17.25-5.8-27.59-5.8h-44.15v93.61ZM526.67,753.08h-17.47c-1.17,0-2.11-.94-2.11-2.11v-53.67c0-1.17.94-2.11,2.11-2.11h17.47c8.9,0,16.18,2.59,21.63,7.7,5.5,5.14,8.29,12.29,8.29,21.24s-2.79,16.1-8.28,21.24c-5.46,5.11-12.74,7.7-21.64,7.7ZM511.31,748.86h15.36c7.79,0,14.1-2.21,18.75-6.56,4.67-4.38,6.95-10.32,6.95-18.17s-2.27-13.79-6.95-18.17c-4.65-4.35-10.96-6.56-18.75-6.56h-15.36v49.45Z"/>
                <path class="cls-46" d="M528.85,774.1h-46.26c-1.17,0-2.11-.94-2.11-2.11v-97.83c0-1.17.94-2.11,2.11-2.11h46.26c10.98,0,20.88,2.09,29.43,6.22,8.61,4.16,15.4,10.16,20.16,17.84,4.75,7.67,7.16,16.74,7.16,26.97s-2.41,19.3-7.16,26.96c-4.76,7.67-11.54,13.67-20.16,17.84-8.54,4.13-18.44,6.22-29.43,6.22ZM484.7,769.88h44.15c10.34,0,19.63-1.95,27.59-5.8,7.89-3.81,14.08-9.28,18.41-16.26,4.33-6.99,6.53-15.31,6.53-24.74s-2.2-17.75-6.53-24.74c-4.33-6.98-10.53-12.45-18.41-16.26-7.97-3.85-17.25-5.8-27.59-5.8h-44.15v93.61ZM527.73,752.02h-17.47c-1.17,0-2.11-.94-2.11-2.11v-53.66c0-1.17.94-2.11,2.11-2.11h17.47c8.9,0,16.18,2.59,21.63,7.7,5.5,5.14,8.29,12.29,8.29,21.24s-2.79,16.1-8.28,21.24c-5.46,5.11-12.74,7.7-21.64,7.7ZM512.37,747.8h15.36c7.79,0,14.1-2.21,18.75-6.56,4.67-4.38,6.95-10.32,6.95-18.17s-2.27-13.79-6.95-18.17c-4.65-4.35-10.96-6.56-18.75-6.56h-15.36v49.45Z"/>
                <path class="cls-44" d="M529.91,773.03h-46.26c-1.17,0-2.11-.94-2.11-2.11v-97.83c0-1.17.94-2.11,2.11-2.11h46.26c10.98,0,20.88,2.09,29.43,6.22,8.61,4.16,15.4,10.16,20.16,17.84,4.75,7.67,7.16,16.74,7.16,26.97s-2.41,19.3-7.16,26.97c-4.76,7.67-11.54,13.67-20.16,17.84-8.54,4.13-18.44,6.22-29.43,6.22ZM485.76,768.82h44.15c10.34,0,19.63-1.95,27.59-5.8,7.89-3.81,14.08-9.28,18.41-16.26,4.33-6.99,6.53-15.31,6.53-24.74s-2.2-17.75-6.53-24.74c-4.33-6.98-10.53-12.45-18.41-16.26-7.97-3.85-17.25-5.8-27.59-5.8h-44.15v93.61ZM528.79,750.95h-17.47c-1.17,0-2.11-.94-2.11-2.11v-53.67c0-1.17.94-2.11,2.11-2.11h17.47c8.9,0,16.18,2.59,21.63,7.7,5.5,5.14,8.29,12.29,8.29,21.24s-2.79,16.1-8.28,21.24c-5.46,5.11-12.74,7.7-21.64,7.7ZM513.43,746.73h15.36c7.79,0,14.1-2.21,18.75-6.56,4.67-4.38,6.95-10.32,6.95-18.17s-2.27-13.79-6.95-18.17c-4.65-4.35-10.96-6.56-18.75-6.56h-15.36v49.45Z"/>
                <path class="cls-50" d="M530.98,771.97h-46.26c-1.17,0-2.11-.94-2.11-2.11v-97.83c0-1.17.94-2.11,2.11-2.11h46.26c10.98,0,20.88,2.09,29.43,6.22,8.61,4.16,15.4,10.16,20.16,17.84,4.75,7.67,7.16,16.74,7.16,26.97s-2.41,19.3-7.16,26.97c-4.76,7.67-11.54,13.67-20.16,17.84-8.54,4.13-18.44,6.22-29.43,6.22ZM486.83,767.75h44.15c10.34,0,19.63-1.95,27.59-5.8,7.89-3.81,14.08-9.28,18.41-16.26,4.33-6.99,6.53-15.31,6.53-24.74s-2.2-17.75-6.53-24.74c-4.33-6.98-10.53-12.45-18.41-16.26-7.97-3.85-17.25-5.8-27.59-5.8h-44.15v93.61ZM529.86,749.89h-17.47c-1.17,0-2.11-.94-2.11-2.11v-53.66c0-1.17.94-2.11,2.11-2.11h17.47c8.9,0,16.18,2.59,21.63,7.7,5.5,5.14,8.29,12.29,8.29,21.24s-2.79,16.1-8.28,21.24c-5.46,5.11-12.74,7.7-21.64,7.7ZM514.5,745.67h15.36c7.79,0,14.1-2.21,18.75-6.56,4.67-4.38,6.95-10.32,6.95-18.17s-2.27-13.79-6.95-18.17c-4.65-4.35-10.96-6.56-18.75-6.56h-15.36v49.45Z"/>
                <path class="cls-51" d="M532.04,770.91h-46.26c-1.17,0-2.11-.94-2.11-2.11v-97.83c0-1.17.94-2.11,2.11-2.11h46.26c10.98,0,20.88,2.09,29.42,6.22,8.62,4.16,15.4,10.16,20.16,17.84,4.75,7.67,7.16,16.74,7.16,26.97s-2.41,19.3-7.16,26.97c-4.76,7.67-11.54,13.67-20.16,17.84-8.54,4.13-18.44,6.22-29.43,6.22ZM487.89,766.69h44.15c10.34,0,19.63-1.95,27.59-5.8,7.89-3.81,14.08-9.28,18.41-16.26,4.33-6.99,6.53-15.31,6.53-24.74s-2.2-17.75-6.53-24.74c-4.33-6.98-10.53-12.45-18.41-16.26-7.97-3.85-17.25-5.8-27.59-5.8h-44.15v93.61ZM530.92,748.83h-17.47c-1.17,0-2.11-.94-2.11-2.11v-53.67c0-1.17.94-2.11,2.11-2.11h17.47c8.9,0,16.18,2.59,21.63,7.7,5.5,5.14,8.29,12.29,8.29,21.24s-2.79,16.1-8.28,21.24c-5.46,5.11-12.74,7.7-21.64,7.7ZM515.56,744.61h15.36c7.79,0,14.1-2.21,18.75-6.56,4.67-4.38,6.95-10.32,6.95-18.17s-2.27-13.79-6.95-18.17c-4.65-4.35-10.96-6.56-18.75-6.56h-15.36v49.45Z"/>
                <path class="cls-49" d="M533.1,769.85h-46.26c-1.17,0-2.11-.94-2.11-2.11v-97.83c0-1.17.94-2.11,2.11-2.11h46.26c10.98,0,20.88,2.09,29.42,6.22,8.62,4.16,15.4,10.16,20.16,17.84,4.75,7.67,7.16,16.74,7.16,26.97s-2.41,19.3-7.16,26.97c-4.76,7.67-11.54,13.67-20.16,17.84-8.54,4.13-18.44,6.22-29.43,6.22ZM488.95,765.63h44.15c10.34,0,19.63-1.95,27.59-5.8,7.89-3.81,14.08-9.28,18.41-16.26,4.33-6.99,6.53-15.31,6.53-24.74s-2.2-17.75-6.53-24.74c-4.33-6.98-10.53-12.45-18.41-16.26-7.97-3.85-17.25-5.8-27.59-5.8h-44.15v93.61ZM531.98,747.76h-17.47c-1.17,0-2.11-.94-2.11-2.11v-53.66c0-1.17.94-2.11,2.11-2.11h17.47c8.9,0,16.18,2.59,21.63,7.7,5.5,5.14,8.29,12.29,8.29,21.24s-2.79,16.1-8.28,21.24c-5.46,5.11-12.74,7.7-21.64,7.7ZM516.62,743.55h15.36c7.79,0,14.1-2.21,18.75-6.56,4.67-4.38,6.95-10.32,6.95-18.17s-2.27-13.79-6.95-18.17c-4.65-4.35-10.96-6.56-18.75-6.56h-15.36v49.45Z"/>
                <path class="cls-47" d="M534.16,768.78h-46.26c-1.17,0-2.11-.94-2.11-2.11v-97.83c0-1.17.94-2.11,2.11-2.11h46.26c10.98,0,20.88,2.09,29.42,6.22,8.62,4.16,15.4,10.16,20.16,17.84,4.75,7.67,7.16,16.74,7.16,26.97s-2.41,19.3-7.16,26.96c-4.76,7.67-11.54,13.67-20.16,17.84-8.54,4.13-18.44,6.22-29.43,6.22ZM490.01,764.56h44.15c10.34,0,19.63-1.95,27.59-5.8,7.89-3.81,14.08-9.28,18.41-16.26,4.33-6.99,6.53-15.31,6.53-24.74s-2.2-17.75-6.53-24.74c-4.33-6.98-10.53-12.45-18.41-16.26-7.97-3.85-17.25-5.8-27.59-5.8h-44.15v93.61ZM533.05,746.7h-17.47c-1.17,0-2.11-.94-2.11-2.11v-53.67c0-1.17.94-2.11,2.11-2.11h17.47c8.9,0,16.18,2.59,21.63,7.7,5.5,5.14,8.29,12.29,8.29,21.24s-2.79,16.1-8.28,21.24c-5.46,5.11-12.74,7.7-21.64,7.7ZM517.69,742.48h15.36c7.79,0,14.1-2.21,18.75-6.56,4.67-4.38,6.95-10.32,6.95-18.17s-2.27-13.79-6.95-18.17c-4.65-4.35-10.96-6.56-18.75-6.56h-15.36v49.45Z"/>
                <path class="cls-48" d="M535.23,767.72h-46.26c-1.17,0-2.11-.94-2.11-2.11v-97.83c0-1.17.94-2.11,2.11-2.11h46.26c10.98,0,20.88,2.09,29.43,6.22,8.61,4.16,15.4,10.16,20.16,17.84,4.75,7.67,7.16,16.74,7.16,26.97s-2.41,19.3-7.16,26.97c-4.76,7.67-11.54,13.67-20.16,17.84-8.54,4.13-18.44,6.22-29.43,6.22ZM491.08,763.5h44.15c10.34,0,19.63-1.95,27.59-5.8,7.89-3.81,14.08-9.28,18.41-16.26,4.33-6.99,6.53-15.31,6.53-24.74s-2.2-17.75-6.53-24.74c-4.33-6.98-10.53-12.45-18.41-16.26-7.97-3.85-17.25-5.8-27.59-5.8h-44.15v93.61ZM534.11,745.64h-17.47c-1.17,0-2.11-.94-2.11-2.11v-53.66c0-1.17.94-2.11,2.11-2.11h17.47c8.9,0,16.18,2.59,21.63,7.7,5.5,5.14,8.29,12.29,8.29,21.24s-2.79,16.1-8.28,21.24c-5.46,5.11-12.74,7.7-21.64,7.7ZM518.75,741.42h15.36c7.79,0,14.1-2.21,18.75-6.56,4.67-4.38,6.95-10.32,6.95-18.17s-2.27-13.79-6.95-18.17c-4.65-4.35-10.96-6.56-18.75-6.56h-15.36v49.45Z"/>
                <path class="cls-21" d="M536.29,766.66h-46.26c-1.17,0-2.11-.94-2.11-2.11v-97.83c0-1.17.94-2.11,2.11-2.11h46.26c10.98,0,20.88,2.09,29.43,6.22,8.61,4.16,15.4,10.16,20.16,17.84,4.75,7.67,7.16,16.74,7.16,26.97s-2.41,19.3-7.16,26.96c-4.76,7.67-11.54,13.67-20.16,17.84-8.54,4.13-18.44,6.22-29.43,6.22ZM492.14,762.44h44.15c10.34,0,19.63-1.95,27.59-5.8,7.89-3.81,14.08-9.28,18.41-16.26,4.33-6.99,6.53-15.31,6.53-24.74s-2.2-17.75-6.53-24.74c-4.33-6.98-10.53-12.45-18.41-16.26-7.97-3.85-17.25-5.8-27.59-5.8h-44.15v93.61ZM535.17,744.58h-17.47c-1.17,0-2.11-.94-2.11-2.11v-53.67c0-1.17.94-2.11,2.11-2.11h17.47c8.9,0,16.18,2.59,21.63,7.7,5.5,5.14,8.29,12.29,8.29,21.24s-2.79,16.1-8.28,21.24c-5.46,5.11-12.74,7.7-21.64,7.7ZM519.81,740.36h15.36c7.79,0,14.1-2.21,18.75-6.56,4.67-4.38,6.95-10.32,6.95-18.17s-2.27-13.79-6.95-18.17c-4.65-4.35-10.96-6.56-18.75-6.56h-15.36v49.45Z"/>
              </g>
              <path class="cls-18" d="M490.03,666.72h46.26c10.71,0,20.21,2.01,28.51,6.01,8.29,4.01,14.72,9.69,19.29,17.05,4.56,7.36,6.85,15.98,6.85,25.86s-2.28,18.49-6.85,25.85c-4.57,7.36-10.99,13.04-19.29,17.05-8.29,4.01-17.8,6.01-28.51,6.01h-46.26v-97.83ZM535.17,742.47c8.39,0,15.12-2.38,20.19-7.13,5.08-4.75,7.62-11.32,7.62-19.7s-2.54-14.95-7.62-19.7c-5.08-4.75-11.81-7.13-20.19-7.13h-17.47v53.67h17.47Z"/>
              <g class="cls-56">
                <path class="cls-19" d="M536.29,765.34h-46.26c-.44,0-.79-.35-.79-.79v-97.83c0-.44.35-.79.79-.79h46.26c10.78,0,20.49,2.05,28.85,6.09,8.39,4.05,14.99,9.89,19.61,17.34,4.62,7.46,6.97,16.3,6.97,26.27s-2.34,18.81-6.97,26.27c-4.63,7.46-11.22,13.29-19.61,17.35-8.36,4.04-18.07,6.09-28.85,6.09ZM490.82,763.76h45.47c10.54,0,20.02-2,28.16-5.93,8.11-3.92,14.49-9.56,18.96-16.75,4.46-7.2,6.73-15.76,6.73-25.44s-2.26-18.24-6.73-25.44c-4.47-7.2-10.85-12.83-18.96-16.75-8.15-3.94-17.63-5.93-28.16-5.93h-45.47v96.25ZM535.17,743.26h-17.47c-.44,0-.79-.35-.79-.79v-53.67c0-.44.35-.79.79-.79h17.47c8.55,0,15.53,2.47,20.73,7.34,5.22,4.88,7.87,11.71,7.87,20.28s-2.65,15.4-7.87,20.28c-5.21,4.87-12.18,7.34-20.73,7.34ZM518.49,741.68h16.68c8.14,0,14.75-2.33,19.66-6.91,4.89-4.58,7.37-11.01,7.37-19.13s-2.48-14.55-7.37-19.13c-4.9-4.59-11.52-6.92-19.66-6.92h-16.68v52.08Z"/>
              </g>
            </g>
            <g>
              <g class="cls-58">
                <path class="cls-20" d="M449.72,780.28c-8.8,0-17.63-1.09-26.24-3.22-8.68-2.15-16.32-5.26-22.69-9.23-1.14-.71-1.57-2.17-.98-3.39l12.58-26.04c.33-.69.95-1.2,1.69-1.4.74-.2,1.53-.07,2.17.37,4.52,3.09,9.71,5.5,15.42,7.16,5.74,1.67,11.46,2.52,17,2.52s9.7-.98,12.74-2.91c2.74-1.74,4.02-4.03,4.02-7.21,0-2.53,0-9.25-16.06-9.25h-14.51c-1.46,0-2.64-1.18-2.64-2.64v-21.85c0-.67.25-1.31.7-1.79l17.75-19.17h-42.2c-1.46,0-2.64-1.18-2.64-2.64v-26.74c0-1.46,1.18-2.64,2.64-2.64h88.43c1.46,0,2.64,1.18,2.64,2.64v21.67c0,.67-.25,1.31-.7,1.8l-22.29,23.98c8.56,2.45,15.38,6.56,20.34,12.26h0c5.82,6.7,8.78,14.9,8.78,24.36,0,7.7-2.11,14.93-6.26,21.51-4.15,6.57-10.52,11.93-18.92,15.92-8.31,3.94-18.65,5.93-30.76,5.93ZM405.61,764.55c5.48,3.11,11.91,5.59,19.14,7.38,8.2,2.04,16.6,3.07,24.97,3.07,11.31,0,20.9-1.83,28.49-5.43,7.49-3.55,13.11-8.25,16.73-13.97,3.61-5.72,5.45-12.01,5.45-18.69,0-8.27-2.45-15.11-7.48-20.9-5.01-5.76-12.37-9.68-21.88-11.64-.93-.19-1.69-.87-1.98-1.78-.29-.91-.07-1.9.58-2.6l24.64-26.5v-18h-83.16v21.47h45.6c1.05,0,2,.62,2.42,1.58.42.96.23,2.08-.48,2.85l-21.14,22.84v18.17h11.87c17.64,0,21.34,7.9,21.34,14.52,0,4.95-2.24,8.99-6.47,11.67-3.9,2.47-9.14,3.73-15.57,3.73-6.05,0-12.26-.92-18.48-2.72-5.2-1.51-10.01-3.6-14.35-6.22l-10.24,21.18Z"/>
                <path class="cls-29" d="M451.05,778.95c-8.8,0-17.63-1.09-26.24-3.22-8.68-2.15-16.32-5.26-22.69-9.23-1.14-.71-1.57-2.17-.98-3.39l12.58-26.04c.33-.69.95-1.2,1.69-1.4.74-.2,1.53-.06,2.17.37,4.52,3.09,9.71,5.5,15.42,7.16,5.74,1.67,11.46,2.52,17,2.52s9.7-.98,12.74-2.91c2.74-1.74,4.02-4.03,4.02-7.21,0-2.53,0-9.25-16.06-9.25h-14.51c-1.46,0-2.64-1.18-2.64-2.64v-21.85c0-.67.25-1.31.7-1.79l17.75-19.16h-42.2c-1.46,0-2.64-1.18-2.64-2.64v-26.74c0-1.46,1.18-2.64,2.64-2.64h88.43c1.46,0,2.64,1.18,2.64,2.64v21.67c0,.66-.25,1.31-.7,1.8l-22.29,23.98c8.56,2.45,15.38,6.56,20.34,12.26h0c5.82,6.7,8.78,14.9,8.78,24.36,0,7.7-2.11,14.93-6.26,21.51-4.15,6.57-10.52,11.93-18.92,15.92-8.31,3.94-18.65,5.93-30.76,5.93ZM406.94,763.22c5.48,3.11,11.91,5.59,19.14,7.38,8.2,2.04,16.6,3.07,24.97,3.07,11.31,0,20.9-1.83,28.49-5.43,7.49-3.55,13.11-8.25,16.73-13.97,3.61-5.72,5.45-12.01,5.45-18.69,0-8.27-2.45-15.11-7.48-20.9-5.01-5.76-12.37-9.68-21.88-11.65-.93-.19-1.69-.87-1.98-1.78-.29-.91-.07-1.9.58-2.6l24.64-26.5v-18h-83.16v21.47h45.6c1.05,0,2,.62,2.42,1.58.42.96.23,2.08-.48,2.85l-21.14,22.84v18.17h11.87c17.64,0,21.34,7.9,21.34,14.52,0,4.95-2.24,8.99-6.47,11.67-3.9,2.47-9.14,3.73-15.57,3.73-6.05,0-12.26-.92-18.48-2.73-5.2-1.51-10.01-3.6-14.35-6.22l-10.24,21.18Z"/>
                <path class="cls-25" d="M452.38,777.62c-8.8,0-17.63-1.09-26.24-3.22-8.68-2.15-16.32-5.26-22.69-9.23-1.14-.71-1.57-2.17-.98-3.39l12.58-26.04c.33-.69.95-1.2,1.69-1.4.74-.2,1.53-.06,2.17.37,4.52,3.09,9.71,5.5,15.42,7.16,5.74,1.67,11.46,2.52,17,2.52s9.7-.98,12.74-2.91c2.74-1.74,4.02-4.03,4.02-7.21,0-2.53,0-9.25-16.06-9.25h-14.51c-1.46,0-2.64-1.18-2.64-2.64v-21.85c0-.67.25-1.31.7-1.79l17.75-19.16h-42.2c-1.46,0-2.64-1.18-2.64-2.64v-26.74c0-1.46,1.18-2.64,2.64-2.64h88.43c1.46,0,2.64,1.18,2.64,2.64v21.67c0,.67-.25,1.31-.7,1.8l-22.29,23.98c8.56,2.45,15.38,6.56,20.34,12.26h0c5.82,6.7,8.78,14.9,8.78,24.36,0,7.7-2.11,14.93-6.26,21.51-4.15,6.57-10.52,11.93-18.92,15.92-8.31,3.94-18.65,5.93-30.76,5.93ZM408.27,761.89c5.48,3.11,11.91,5.59,19.14,7.38,8.2,2.04,16.6,3.07,24.97,3.07,11.31,0,20.9-1.83,28.49-5.43,7.49-3.55,13.11-8.25,16.73-13.97,3.61-5.72,5.45-12.01,5.45-18.69,0-8.27-2.45-15.11-7.48-20.9-5.01-5.76-12.37-9.68-21.88-11.64-.93-.19-1.69-.87-1.98-1.78-.29-.91-.07-1.9.58-2.6l24.64-26.5v-18h-83.16v21.47h45.6c1.05,0,2,.62,2.42,1.58.42.96.23,2.08-.48,2.85l-21.14,22.84v18.17h11.87c17.64,0,21.34,7.9,21.34,14.52,0,4.95-2.24,8.99-6.47,11.67-3.9,2.47-9.14,3.73-15.57,3.73-6.05,0-12.26-.92-18.48-2.72-5.2-1.51-10.01-3.6-14.35-6.22l-10.24,21.18Z"/>
                <path class="cls-23" d="M453.71,776.29c-8.8,0-17.63-1.09-26.24-3.22-8.68-2.15-16.32-5.26-22.69-9.23-1.14-.71-1.57-2.17-.98-3.39l12.58-26.04c.33-.69.95-1.2,1.69-1.4.74-.2,1.53-.06,2.17.37,4.52,3.09,9.71,5.5,15.42,7.16,5.74,1.67,11.46,2.52,17,2.52s9.7-.98,12.74-2.91c2.74-1.74,4.02-4.03,4.02-7.21,0-2.53,0-9.25-16.06-9.25h-14.51c-1.46,0-2.64-1.18-2.64-2.64v-21.85c0-.67.25-1.3.7-1.79l17.75-19.16h-42.2c-1.46,0-2.64-1.18-2.64-2.64v-26.74c0-1.46,1.18-2.64,2.64-2.64h88.43c1.46,0,2.64,1.18,2.64,2.64v21.67c0,.66-.25,1.31-.71,1.8l-22.29,23.98c8.56,2.45,15.38,6.56,20.34,12.26h0c5.82,6.7,8.78,14.9,8.78,24.36,0,7.7-2.11,14.93-6.26,21.51-4.15,6.57-10.52,11.93-18.92,15.92-8.31,3.94-18.65,5.93-30.76,5.93ZM409.6,760.56c5.48,3.11,11.91,5.59,19.14,7.38,8.2,2.04,16.6,3.07,24.97,3.07,11.31,0,20.9-1.83,28.49-5.43,7.49-3.55,13.11-8.25,16.73-13.97,3.61-5.72,5.45-12.01,5.45-18.69,0-8.27-2.45-15.11-7.48-20.9-5.01-5.76-12.37-9.68-21.88-11.64-.93-.19-1.69-.87-1.98-1.78-.29-.91-.07-1.9.58-2.6l24.64-26.5v-18h-83.16v21.47h45.6c1.05,0,2,.62,2.42,1.58.42.96.23,2.08-.48,2.85l-21.14,22.84v18.17h11.87c17.64,0,21.34,7.9,21.34,14.52,0,4.95-2.24,8.99-6.47,11.67-3.9,2.47-9.14,3.73-15.57,3.73-6.05,0-12.26-.92-18.48-2.73-5.2-1.51-10.01-3.6-14.35-6.22l-10.24,21.18Z"/>
                <path class="cls-22" d="M455.04,774.96c-8.8,0-17.63-1.09-26.24-3.22-8.68-2.15-16.32-5.26-22.69-9.23-1.14-.71-1.57-2.17-.98-3.39l12.58-26.04c.33-.69.95-1.2,1.69-1.4.74-.2,1.53-.07,2.17.37,4.52,3.09,9.71,5.5,15.42,7.16,5.74,1.67,11.46,2.52,17,2.52s9.7-.98,12.74-2.91c2.74-1.74,4.02-4.03,4.02-7.21,0-2.53,0-9.25-16.06-9.25h-14.51c-1.46,0-2.64-1.18-2.64-2.64v-21.85c0-.67.25-1.31.7-1.79l17.75-19.16h-42.2c-1.46,0-2.64-1.18-2.64-2.64v-26.74c0-1.46,1.18-2.64,2.64-2.64h88.43c1.46,0,2.64,1.18,2.64,2.64v21.67c0,.67-.25,1.31-.7,1.8l-22.29,23.98c8.56,2.45,15.38,6.56,20.34,12.26h0c5.82,6.7,8.78,14.9,8.78,24.36,0,7.7-2.11,14.93-6.26,21.51-4.15,6.57-10.52,11.93-18.92,15.92-8.31,3.94-18.65,5.93-30.76,5.93ZM410.93,759.24c5.48,3.11,11.91,5.59,19.14,7.38,8.2,2.04,16.6,3.07,24.97,3.07,11.31,0,20.9-1.83,28.49-5.43,7.49-3.55,13.11-8.25,16.73-13.97,3.61-5.72,5.45-12.01,5.45-18.69,0-8.27-2.45-15.11-7.48-20.9-5.01-5.76-12.37-9.68-21.88-11.64-.93-.19-1.69-.87-1.98-1.78-.29-.91-.07-1.9.58-2.6l24.64-26.5v-18h-83.16v21.47h45.6c1.05,0,2,.62,2.42,1.58.42.96.23,2.08-.48,2.85l-21.14,22.84v18.17h11.87c17.64,0,21.34,7.9,21.34,14.52,0,4.95-2.24,8.99-6.47,11.67-3.9,2.47-9.14,3.73-15.57,3.73-6.05,0-12.26-.92-18.48-2.72-5.2-1.51-10.01-3.6-14.35-6.22l-10.24,21.18Z"/>
                <path class="cls-28" d="M456.37,773.63c-8.8,0-17.63-1.09-26.24-3.22-8.68-2.15-16.32-5.26-22.69-9.23-1.14-.71-1.57-2.17-.98-3.39l12.58-26.04c.33-.69.95-1.2,1.69-1.4.74-.2,1.53-.06,2.17.37,4.52,3.09,9.71,5.5,15.42,7.16,5.74,1.67,11.46,2.52,17,2.52s9.7-.98,12.74-2.91c2.74-1.74,4.02-4.03,4.02-7.21,0-2.53,0-9.25-16.06-9.25h-14.51c-1.46,0-2.64-1.18-2.64-2.64v-21.85c0-.66.25-1.3.7-1.79l17.75-19.17h-42.2c-1.46,0-2.64-1.18-2.64-2.64v-26.74c0-1.46,1.18-2.64,2.64-2.64h88.43c1.46,0,2.64,1.18,2.64,2.64v21.67c0,.66-.25,1.31-.71,1.8l-22.29,23.98c8.56,2.45,15.38,6.56,20.34,12.26h0c5.82,6.7,8.78,14.9,8.78,24.36,0,7.7-2.11,14.93-6.26,21.51-4.15,6.57-10.52,11.93-18.92,15.92-8.31,3.94-18.65,5.93-30.76,5.93ZM412.26,757.91c5.48,3.11,11.91,5.59,19.14,7.38,8.2,2.04,16.6,3.07,24.97,3.07,11.31,0,20.9-1.83,28.49-5.43,7.49-3.55,13.11-8.25,16.73-13.97,3.61-5.72,5.45-12.01,5.45-18.69,0-8.27-2.45-15.11-7.48-20.9-5.01-5.76-12.37-9.68-21.88-11.64-.93-.19-1.69-.87-1.98-1.78-.29-.91-.07-1.9.58-2.6l24.64-26.5v-18h-83.16v21.47h45.6c1.05,0,2,.62,2.42,1.58.42.96.23,2.08-.48,2.85l-21.14,22.84v18.17h11.87c17.64,0,21.34,7.9,21.34,14.52,0,4.95-2.24,8.99-6.47,11.67-3.9,2.47-9.14,3.73-15.57,3.73-6.05,0-12.26-.92-18.48-2.73-5.2-1.51-10.01-3.6-14.35-6.22l-10.24,21.18Z"/>
                <path class="cls-24" d="M457.7,772.3c-8.8,0-17.63-1.09-26.24-3.22-8.68-2.15-16.32-5.26-22.69-9.23-1.14-.71-1.57-2.17-.98-3.39l12.58-26.04c.33-.69.95-1.2,1.69-1.4.74-.2,1.53-.06,2.17.37,4.52,3.09,9.71,5.5,15.42,7.16,5.74,1.67,11.46,2.52,17,2.52s9.7-.98,12.74-2.91c2.74-1.74,4.02-4.03,4.02-7.21,0-2.53,0-9.25-16.06-9.25h-14.51c-1.46,0-2.64-1.18-2.64-2.64v-21.85c0-.67.25-1.31.7-1.79l17.75-19.16h-42.2c-1.46,0-2.64-1.18-2.64-2.64v-26.74c0-1.46,1.18-2.64,2.64-2.64h88.43c1.46,0,2.64,1.18,2.64,2.64v21.67c0,.67-.25,1.31-.71,1.8l-22.29,23.98c8.56,2.45,15.38,6.56,20.34,12.26h0c5.82,6.7,8.78,14.9,8.78,24.36,0,7.7-2.11,14.93-6.26,21.51-4.15,6.57-10.52,11.93-18.92,15.92-8.31,3.94-18.65,5.93-30.76,5.93ZM413.59,756.58c5.48,3.11,11.91,5.59,19.14,7.38,8.2,2.04,16.6,3.07,24.97,3.07,11.31,0,20.9-1.83,28.49-5.42,7.49-3.55,13.11-8.25,16.73-13.97,3.61-5.72,5.45-12.01,5.45-18.69,0-8.27-2.45-15.11-7.48-20.9-5.01-5.76-12.37-9.68-21.88-11.64-.93-.19-1.69-.87-1.98-1.78-.29-.91-.07-1.9.58-2.6l24.64-26.5v-18h-83.16v21.47h45.6c1.05,0,2,.62,2.42,1.58.42.96.23,2.08-.48,2.85l-21.14,22.84v18.17h11.87c17.64,0,21.34,7.9,21.34,14.52,0,4.95-2.24,8.99-6.47,11.67-3.9,2.47-9.14,3.73-15.57,3.73-6.05,0-12.26-.92-18.48-2.73-5.2-1.51-10.01-3.6-14.35-6.22l-10.24,21.18Z"/>
                <path class="cls-31" d="M459.03,770.98c-8.8,0-17.63-1.09-26.24-3.22-8.68-2.15-16.32-5.26-22.69-9.23-1.14-.71-1.57-2.17-.98-3.39l12.58-26.04c.33-.69.95-1.2,1.69-1.4.74-.2,1.53-.06,2.17.37,4.52,3.09,9.71,5.5,15.42,7.16,5.74,1.67,11.46,2.52,17,2.52s9.7-.98,12.74-2.91c2.74-1.74,4.02-4.03,4.02-7.21,0-2.53,0-9.25-16.06-9.25h-14.51c-1.46,0-2.64-1.18-2.64-2.64v-21.85c0-.66.25-1.3.7-1.79l17.75-19.17h-42.2c-1.46,0-2.64-1.18-2.64-2.64v-26.74c0-1.46,1.18-2.64,2.64-2.64h88.43c1.46,0,2.64,1.18,2.64,2.64v21.67c0,.66-.25,1.31-.71,1.8l-22.29,23.98c8.56,2.45,15.38,6.56,20.34,12.26h0c5.82,6.7,8.78,14.9,8.78,24.36,0,7.7-2.11,14.93-6.26,21.51-4.15,6.57-10.52,11.93-18.92,15.92-8.31,3.94-18.65,5.93-30.76,5.93ZM414.91,755.25c5.48,3.11,11.91,5.59,19.14,7.38,8.2,2.04,16.6,3.07,24.97,3.07,11.31,0,20.9-1.83,28.49-5.43,7.49-3.55,13.11-8.25,16.73-13.97,3.61-5.72,5.45-12.01,5.45-18.69,0-8.27-2.45-15.11-7.48-20.9-5.01-5.76-12.37-9.68-21.88-11.64-.93-.19-1.69-.87-1.98-1.78-.29-.91-.07-1.9.58-2.6l24.64-26.5v-18h-83.16v21.47h45.6c1.05,0,2,.62,2.42,1.58.42.96.23,2.08-.48,2.85l-21.14,22.84v18.17h11.87c17.64,0,21.34,7.9,21.34,14.52,0,4.95-2.24,8.99-6.47,11.67-3.9,2.47-9.14,3.73-15.57,3.73-6.05,0-12.26-.92-18.48-2.73-5.2-1.51-10.01-3.6-14.35-6.22l-10.24,21.18Z"/>
                <path class="cls-27" d="M460.36,769.65c-8.8,0-17.63-1.09-26.24-3.22-8.68-2.15-16.32-5.26-22.69-9.23-1.14-.71-1.57-2.17-.98-3.39l12.58-26.04c.33-.69.95-1.2,1.69-1.4.74-.2,1.53-.06,2.17.37,4.52,3.09,9.71,5.5,15.42,7.16,5.74,1.67,11.46,2.52,17,2.52s9.7-.98,12.74-2.91c2.74-1.74,4.02-4.03,4.02-7.21,0-2.53,0-9.25-16.06-9.25h-14.51c-1.46,0-2.64-1.18-2.64-2.64v-21.85c0-.67.25-1.31.7-1.79l17.75-19.16h-42.2c-1.46,0-2.64-1.18-2.64-2.64v-26.74c0-1.46,1.18-2.64,2.64-2.64h88.43c1.46,0,2.64,1.18,2.64,2.64v21.67c0,.67-.25,1.31-.71,1.8l-22.29,23.98c8.56,2.45,15.38,6.56,20.34,12.26h0c5.82,6.7,8.78,14.9,8.78,24.36,0,7.7-2.11,14.93-6.26,21.51-4.15,6.57-10.52,11.93-18.92,15.92-8.31,3.94-18.65,5.93-30.76,5.93ZM416.24,753.92c5.48,3.11,11.91,5.59,19.14,7.38,8.2,2.04,16.6,3.07,24.97,3.07,11.31,0,20.9-1.83,28.49-5.42,7.49-3.55,13.11-8.25,16.73-13.97,3.61-5.72,5.45-12.01,5.45-18.69,0-8.27-2.45-15.11-7.48-20.9-5.01-5.76-12.37-9.68-21.88-11.64-.93-.19-1.69-.87-1.98-1.78-.29-.91-.07-1.9.58-2.6l24.64-26.5v-18h-83.16v21.47h45.6c1.05,0,2,.62,2.42,1.58.42.96.23,2.08-.48,2.85l-21.14,22.84v18.17h11.87c17.64,0,21.34,7.9,21.34,14.52,0,4.95-2.24,8.99-6.47,11.67-3.9,2.47-9.14,3.73-15.57,3.73-6.05,0-12.26-.92-18.48-2.73-5.2-1.51-10.01-3.6-14.35-6.22l-10.24,21.18Z"/>
              </g>
              <path class="cls-30" d="M505.53,703.65c5.42,6.23,8.13,13.78,8.13,22.63,0,7.23-1.95,13.92-5.86,20.1-3.9,6.18-9.85,11.16-17.82,14.94-7.98,3.78-17.86,5.68-29.62,5.68-8.62,0-17.16-1.05-25.6-3.15-8.45-2.1-15.76-5.07-21.93-8.91l12.58-26.04c4.78,3.26,10.17,5.77,16.17,7.51,6,1.75,11.91,2.62,17.74,2.62s10.66-1.11,14.16-3.32c3.5-2.21,5.24-5.36,5.24-9.44,0-7.92-6.23-11.88-18.7-11.88h-14.51v-21.85l21.85-23.59h-48.24v-26.74h88.43v21.67l-25.34,27.26c10.14,2.1,17.91,6.26,23.33,12.5Z"/>
              <g class="cls-56">
                <path class="cls-26" d="M460.36,768c-8.66,0-17.36-1.07-25.84-3.18-8.51-2.11-15.99-5.15-22.22-9.03-.43-.27-.59-.81-.37-1.27l12.58-26.04c.13-.26.36-.45.64-.53.27-.07.58-.02.81.14,4.67,3.19,10.01,5.67,15.88,7.38,5.89,1.71,11.76,2.58,17.46,2.58s10.31-1.07,13.63-3.17c3.22-2.04,4.79-4.85,4.79-8.6,0-7.33-5.79-10.9-17.71-10.9h-14.51c-.55,0-.99-.44-.99-.99v-21.85c0-.25.09-.49.26-.67l20.31-21.93h-45.97c-.55,0-.99-.44-.99-.99v-26.74c0-.55.44-.99.99-.99h88.43c.55,0,.99.44.99.99v21.67c0,.25-.09.49-.26.67l-24.17,26c9.49,2.24,16.95,6.42,22.18,12.44h0c5.55,6.39,8.37,14.23,8.37,23.28,0,7.38-2.02,14.32-6.01,20.63-3.99,6.31-10.12,11.46-18.24,15.31-8.09,3.83-18.19,5.77-30.05,5.77ZM414.1,754.57c5.9,3.55,12.93,6.35,20.89,8.33,8.33,2.07,16.86,3.12,25.37,3.12,11.56,0,21.38-1.88,29.2-5.58,7.77-3.69,13.63-8.59,17.41-14.58,3.79-5.99,5.7-12.57,5.7-19.57,0-8.57-2.65-15.96-7.89-21.98-5.25-6.04-12.92-10.13-22.78-12.18-.35-.07-.64-.33-.74-.67-.11-.34-.02-.71.22-.97l25.08-26.98v-20.3h-86.46v24.76h47.25c.39,0,.75.23.91.59.16.36.09.78-.18,1.07l-21.58,23.31v20.47h13.52c13.07,0,19.69,4.33,19.69,12.87,0,4.42-1.92,7.88-5.7,10.28-3.64,2.3-8.58,3.47-14.68,3.47s-11.95-.89-18.02-2.66c-5.68-1.65-10.89-4.01-15.49-7.01l-11.7,24.21Z"/>
              </g>
            </g>
          </g>
          <g>
            <g>
              <circle class="cls-54" cx="238.73" cy="139.15" r="33.38" transform="translate(28.71 318.73) rotate(-70.77)"/>
              <circle class="cls-39" cx="238.73" cy="139.15" r="60.06" transform="translate(-35 101.37) rotate(-22.38)"/>
            </g>
            <g>
              <path class="cls-42" d="M222.44,219.19c2.07.42,10.55-32.64,18.95-73.85,8.39-41.2,13.52-74.95,11.45-75.37-2.07-.42-10.55,32.64-18.95,73.85-8.39,41.2-13.52,74.95-11.45,75.37Z"/>
              <path class="cls-41" d="M163.04,129.39c-.42,2.07,32.64,10.55,73.85,18.95,41.2,8.39,74.95,13.52,75.37,11.45.42-2.07-32.64-10.55-73.84-18.95-41.2-8.39-74.95-13.52-75.37-11.45Z"/>
            </g>
            <g class="cls-56">
              <ellipse class="cls-34" cx="238.52" cy="145.43" rx="19.39" ry="19.81" transform="translate(-39.32 174.56) rotate(-37.36)"/>
            </g>
            <g class="cls-59">
              <circle class="cls-36" cx="236.68" cy="146.32" r="82.97" transform="translate(.57 293.54) rotate(-63.67)"/>
              <circle class="cls-38" cx="236.68" cy="146.32" r="80.56" transform="translate(-5.27 8.9) rotate(-2.13)"/>
            </g>
            <g class="cls-59">
              <ellipse class="cls-37" cx="231.56" cy="134.38" rx="8.67" ry="101.61" transform="translate(-35.77 148.93) rotate(-33.24)"/>
              <path class="cls-35" d="M177.48,51.87c-3.89,2.55,17.17,41.56,47.05,87.13,29.87,45.57,57.24,80.45,61.13,77.9,3.89-2.55-17.17-41.56-47.05-87.13-29.87-45.57-57.24-80.45-61.13-77.9Z"/>
            </g>
            <g>
              <path class="cls-4" d="M232.41,238.29c2.6.15,7.05-41.69,9.94-93.44,2.89-51.75,3.13-93.82.53-93.97-2.6-.15-7.05,41.69-9.94,93.44-2.89,51.75-3.13,93.82-.53,93.97Z"/>
              <path class="cls-5" d="M143.94,139.35c-.15,2.6,41.69,7.05,93.44,9.94,51.75,2.89,93.82,3.13,93.97.53.15-2.6-41.69-7.05-93.44-9.94-51.75-2.89-93.82-3.13-93.97-.53Z"/>
            </g>
            <g>
              <path class="cls-9" d="M253.29,219.1c2.07-.43-3.26-34.15-11.91-75.3-8.64-41.15-17.32-74.16-19.39-73.73-2.07.43,3.26,34.15,11.91,75.3,8.64,41.15,17.32,74.16,19.39,73.73Z"/>
              <path class="cls-10" d="M163.13,160.23c.43,2.07,34.15-3.26,75.3-11.91,41.15-8.64,74.16-17.32,73.73-19.39-.43-2.07-34.15,3.26-75.3,11.91-41.15,8.64-74.16,17.32-73.73,19.39Z"/>
            </g>
            <g>
              <path class="cls-11" d="M262.14,197.75c1.47-.68-8.3-25.03-21.83-54.39-13.53-29.36-25.69-52.61-27.17-51.93-1.47.68,8.3,25.03,21.83,54.39,13.53,29.36,25.69,52.61,27.17,51.93Z"/>
              <path class="cls-8" d="M184.48,169.08c.68,1.47,25.03-8.3,54.39-21.83,29.36-13.53,52.61-25.69,51.93-27.17-.68-1.47-25.03,8.3-54.39,21.83-29.36,13.53-52.61,25.69-51.93,27.17Z"/>
            </g>
            <g>
              <path class="cls-12" d="M193.93,206.93c1.73,1.21,22.7-25.72,46.84-60.15,24.14-34.43,42.31-63.33,40.58-64.54-1.73-1.21-22.7,25.72-46.84,60.15-24.14,34.43-42.31,63.33-40.58,64.54Z"/>
              <path class="cls-6" d="M175.3,100.87c-1.21,1.73,25.72,22.7,60.15,46.84,34.43,24.14,63.33,42.31,64.54,40.58,1.21-1.73-25.72-22.7-60.15-46.84-34.43-24.14-63.33-42.31-64.54-40.58Z"/>
            </g>
            <g>
              <path class="cls-7" d="M195.45,228.41c2.32,1.17,23.1-35.41,46.41-81.71,23.3-46.3,40.31-84.78,37.99-85.95-2.32-1.17-23.1,35.41-46.41,81.71-23.3,46.3-40.31,84.78-37.99,85.95Z"/>
              <path class="cls-3" d="M153.81,102.39c-1.17,2.32,35.41,23.1,81.71,46.41,46.3,23.3,84.78,40.31,85.95,37.99,1.17-2.32-35.41-23.1-81.71-46.41-46.3-23.3-84.78-40.31-85.95-37.99Z"/>
            </g>
            <g>
              <path class="cls-2" d="M146.41,227.31c2.29,2.53,45-32.46,95.39-78.14,50.39-45.69,89.37-84.77,87.08-87.3-2.29-2.53-45,32.46-95.39,78.14-50.39,45.69-89.37,84.77-87.08,87.3Z"/>
              <path class="cls-1" d="M154.92,53.35c-2.53,2.29,32.46,45,78.14,95.39,45.69,50.39,84.77,89.37,87.3,87.08,2.53-2.29-32.46-45-78.14-95.39-45.69-50.39-84.77-89.37-87.3-87.08Z"/>
            </g>
            <g class="cls-59">
              <path class="cls-15" d="M312.99,69.73c-3.32-3.45-38.8,25.29-79.24,64.2-40.44,38.91-70.54,73.24-67.22,76.69,3.32,3.45,38.8-25.29,79.24-64.2,40.44-38.91,70.54-73.24,67.22-76.69Z"/>
              <path class="cls-14" d="M310.87,71.78c-3.22-3.35-37.67,24.56-76.94,62.33-39.27,37.78-68.49,71.12-65.27,74.47,3.22,3.35,37.67-24.56,76.94-62.33,39.27-37.78,68.49-71.12,65.27-74.47Z"/>
            </g>
          </g>
          <polygon class="cls-32" points="388.04 471.77 386.44 470.21 459.56 384.84 461.16 386.39 388.04 471.77"/>
          <polygon class="cls-32" points="388 515.96 386.64 403.24 388.86 403.23 390.21 515.95 388 515.96"/>
          <path class="cls-17" d="M421.95,475.37c-2.4,0-5.15-1.05-6.06-1.96-2.05.6-4.53.06-5.99-.83-.97-.59-1.54-1.31-1.65-2.1-.93-5.2,2.13-9.56,2.64-10.24.21-1.03,1.97-9.75,2.7-13.19l.02-.07c.32-.82.75-1.25,1.3-1.29.89-.08,1.56,1.01,1.63,1.13l.05.08v.1c.03.23.59,5.77.59,7.8,0,1.79.48,2.3,2.32,2.47,1.63.15,2.13-1.9,2.15-1.99.02-.06,1.17-4.12,1.94-7.47l.02-.07.04-.06c.71-1.15,1.38-1.65,2.05-1.52,1.06.2,1.41,1.92,1.47,2.26v.05s0,.05,0,.05c-.03.43-.76,10.47-1.25,13.51.63,1.9,1.86,5.72.65,10.24-.48,1.76-1.79,2.81-3.77,3.04-.27.03-.55.05-.84.05ZM416.25,472.36l.18.33c.32.57,3.53,2.08,6.26,1.76,1.62-.19,2.64-1,3.02-2.4,1.16-4.34-.08-8.05-.67-9.83l-.03-.1.02-.11c.46-2.75,1.19-12.64,1.25-13.48-.13-.67-.46-1.43-.76-1.49-.18-.04-.58.22-1.1,1.05-.77,3.35-1.92,7.38-1.93,7.42-.23.98-1.17,2.83-3.08,2.65-2.3-.22-3.11-1.09-3.11-3.35,0-1.84-.49-6.83-.57-7.61-.19-.29-.54-.65-.75-.63-.13.01-.33.2-.53.7-.77,3.67-2.69,13.15-2.71,13.25l-.02.1-.06.08s-3.45,4.47-2.53,9.64c.08.53.51,1.05,1.24,1.49,1.56.94,3.94,1.22,5.54.65l.35-.13Z"/>
          <path class="cls-17" d="M417.03,501.29s-.08,0-.12,0c-.91-.12-1.22-1.47-1.31-1.91l-.02-.07v-.07c.3-3.12.48-6.98.48-7.02,0-.1.16-1.99-1.16-2.27-1.52-.32-2.04,0-2.53,1.54-.56,1.78-2.56,6.47-2.65,6.67l-.04.08-.07.06c-.16.15-.98.88-1.72.58-.46-.19-.72-.7-.75-1.52v-.03s0-.03,0-.03c.36-3.2,1.32-11.26,1.44-12.24-.24-.75-1.54-5.35.67-9.67.32-.69,1.08-1.21,2.13-1.45,1.68-.39,3.69-.04,5.03.87,1.16-.61,4.13-.79,6.18.12,1.64.73,2.45,2.01,2.36,3.71-.26,4.27-2.33,7.29-3.38,8.79-.45,2.79-2.62,11.75-2.72,12.14l-.04.1c-.14.28-.87,1.61-1.79,1.61ZM416.47,499.25c.21.92.47,1.15.55,1.16.19.02.68-.51.99-1.09.18-.76,2.32-9.59,2.71-12.11l.02-.1.06-.08c.98-1.4,3.03-4.32,3.28-8.42.07-1.32-.55-2.28-1.84-2.86-2.13-.95-5.12-.48-5.52-.08l-.28.28-.31-.24c-1.11-.88-3.02-1.25-4.54-.89-.78.18-1.32.53-1.54.98-2.19,4.28-.61,9.04-.6,9.09l.03.1v.1c-.02.09-1.07,8.88-1.46,12.29.03.52.16.69.2.71.12.04.45-.12.72-.34.29-.67,2.07-4.9,2.58-6.5.62-1.97,1.59-2.55,3.55-2.13,1.67.35,1.95,2.24,1.86,3.19,0,.02-.17,3.83-.47,6.97Z"/>
          <polygon class="cls-32" points="455.62 484.3 369.31 466.65 369.58 463.89 455.9 481.55 455.62 484.3"/>
          <polygon class="cls-32" points="461.04 390.4 367.07 410.45 366.38 407.95 460.35 387.9 461.04 390.4"/>
          <path class="cls-57" d="M430.55,320.64s21.85,18.13,29.41,30.72c7.56,12.6,7.14,25.61,5.04,31.49-2.1,5.88-3.24,14.28,1.32,22.25s7.5,15.12,24.29,30.65c16.79,15.54-6.3,22.25-6.3,22.25l-4.09,2.01s-4.31,2.18-1.79,5.54,3.36,6.3,3.36,6.3c0,0,2.52,4.2-1.26,6.3-3.78,2.1-6.72,3.78-6.72,3.78,0,0,5.46,3.78,5.46,7.98s-3.98,7.62-7.67,8.04c0,0-4.09,2.87-1.57,7.07,2.52,4.2,3.96,13.02.69,19.31,0,0-3.21,11.34-23.36,10.08-20.15-1.26-57.1-5.68-64.24.1,5.88-4.3,25.61-6.4,39.05-4.72,13.44,1.68,25.61,2.1,32.33.42,6.72-1.68,15.96-8.4,13.44-15.54-2.52-7.14-5.88-15.12-2.1-17.63,3.78-2.52,3.78-4.2.42-5.88-3.36-1.68-11.34-7.98-11.34-7.98,0,0,11.34,1.26,23.09-9.66-1.26-3.36-5.46-7.56-5.46-7.56,0,0-3.36-7.14,2.94-9.66,6.3-2.52,12.6-5.88,12.6-5.88,0,0,9.66-2.94-.84-10.5-9.66-7.98-23.09-24.2-27.71-38.34-1.68-14.14.42-14.56.42-14.56,0,0-6.06-6.72-20.03-1.68-13.98,5.04-16.5,3.78-16.5,3.78,0,0,17.46-11.34,27.21-11.34s10.58,2.94,10.58,2.94c0,0,3.78-7.32-2.1-24.35-5.88-17.04-28.57-35.76-28.57-35.76Z"/>
        </g>
      </g>
    </g>
  </g>
</svg>