<svg viewBox="0 0 895.48 492.46" xmlns="http://www.w3.org/2000/svg"><g fill="#e90489"><path d="m2.19.02h146.05c33.88 0 64.01 4.63 90.48 13.73 26.56 9.19 48.92 22.13 67.09 38.73 18.23 16.58 32.11 36.26 41.67 59.19 9.54 22.9 14.34 48.04 14.34 75.45v1.1c0 27.33-4.92 52.64-14.62 75.93-9.75 23.26-23.81 43.32-42.22 60.26-18.33 16.94-41 30.22-67.8 39.77-26.86 9.54-57.22 14.29-91.09 14.29h-143.9zm147.83 285.47c31.45 0 56.77-8.3 75.9-24.89 19.26-16.54 28.77-40.15 28.77-70.78v-1.1c0-30.28-9.51-53.84-28.77-70.56-19.13-16.75-44.46-25.17-75.9-25.17h-42.96v192.49h42.96z"/><path d="m417.96 0h105.47v378.44h-105.47z"/><path d="m592.6.02h302.88v91.92h-197.88v63.82h178.89v87.55h-178.89v135.16h-105z"/></g><g fill="#59595c"><path d="m0 431.84h44.88v11.65h-31.95v12.1h28.1v11.67h-28.1v12.52h32.42v11.65h-45.35v-59.6z"/><path d="m78.35 492.29c-4.51 0-9-.77-13.32-2.35-4.38-1.55-8.34-3.97-11.99-7.19l7.77-9.27c2.71 2.24 5.52 3.97 8.45 5.27 2.81 1.31 5.99 1.97 9.35 1.97 2.71 0 4.87-.49 6.39-1.5 1.48-.99 2.24-2.37 2.24-4.13v-.16c0-.88-.17-1.61-.47-2.27-.36-.63-.95-1.25-1.77-1.83-.95-.57-2.18-1.14-3.77-1.69-1.48-.58-3.55-1.18-6.09-1.81-3-.71-5.71-1.55-8.15-2.44-2.44-.93-4.48-2.03-6.28-3.38-1.67-1.34-3-2.98-3.93-4.97-.95-1.99-1.4-4.48-1.4-7.43v-.16c0-2.73.46-5.19 1.48-7.37 1.04-2.21 2.44-4.07 4.32-5.68 1.8-1.58 4.02-2.81 6.55-3.63 2.54-.88 5.35-1.29 8.45-1.29 4.31 0 8.34.65 11.98 1.96 3.66 1.31 7.05 3.18 10.13 5.61l-6.84 9.87c-2.62-1.8-5.24-3.23-7.78-4.29-2.62-1.06-5.16-1.58-7.68-1.58s-4.51.5-5.8 1.48c-1.21 1.01-1.88 2.24-1.88 3.69v.21c0 .95.19 1.78.55 2.51.39.69 1.04 1.32 1.97 1.91 1.03.57 2.35 1.12 4.04 1.62 1.67.49 3.74 1.1 6.36 1.78 3 .8 5.72 1.69 8.06 2.66 2.35 1.01 4.32 2.21 6.01 3.59 1.59 1.39 2.81 3.03 3.66 4.89.74 1.88 1.21 4.12 1.21 6.72v.19c0 2.96-.57 5.58-1.61 7.87-1.12 2.3-2.6 4.23-4.48 5.79-1.97 1.58-4.21 2.78-6.85 3.6-2.71.8-5.63 1.21-8.89 1.21z"/><path d="m125.47 443.92h-18.18v-12.08h49.39v12.08h-18.09v47.51h-13.12z"/><path d="m187.23 431.4h12.1l25.48 60.04h-13.69l-5.44-13.37h-25.2l-5.44 13.37h-13.41l25.59-60.04zm13.76 35.09-7.95-19.34-7.89 19.34h15.83z"/><path d="m234 431.84h23.23c4.68 0 8.89.76 12.84 2.26 3.85 1.5 7.19 3.58 10.01 6.26 2.81 2.68 4.98 5.8 6.56 9.4 1.5 3.61 2.24 7.51 2.24 11.7v.19c0 4.18-.74 8.11-2.24 11.73-1.58 3.63-3.75 6.8-6.56 9.46-2.82 2.66-6.17 4.76-10.01 6.31-3.94 1.51-8.15 2.29-12.84 2.29h-23.23zm23.23 47.77c2.71 0 5.14-.43 7.3-1.29 2.24-.83 4.12-2.07 5.71-3.64 1.5-1.61 2.73-3.47 3.67-5.63.82-2.16 1.29-4.56 1.29-7.24v-.16c0-2.62-.47-5.05-1.29-7.25-.95-2.21-2.18-4.12-3.67-5.71-1.59-1.58-3.47-2.81-5.71-3.69-2.16-.88-4.59-1.33-7.3-1.33h-10.14v35.94z"/><path d="m329.57 492.46c-4.61 0-8.82-.82-12.66-2.43-3.94-1.62-7.21-3.79-10.01-6.56-2.81-2.74-4.95-5.99-6.56-9.7-1.59-3.72-2.33-7.7-2.33-11.97v-.16c0-4.26.74-8.26 2.33-11.97 1.61-3.74 3.83-6.99 6.64-9.79 2.81-2.82 6.2-5.02 10.04-6.66 3.93-1.61 8.14-2.43 12.74-2.43s8.8.82 12.63 2.43c3.85 1.64 7.22 3.82 10.03 6.56 2.82 2.78 4.97 5.99 6.58 9.72 1.59 3.72 2.33 7.69 2.33 11.95v.19c0 4.26-.74 8.23-2.33 11.94-1.61 3.74-3.86 7.02-6.67 9.79-2.81 2.81-6.18 5.03-10.01 6.65-3.93 1.61-8.15 2.43-12.74 2.43zm.19-12.11c2.62 0 4.95-.46 7.22-1.42 2.24-.98 4.12-2.3 5.69-4 1.5-1.7 2.73-3.69 3.66-5.93.85-2.24 1.31-4.64 1.31-7.19v-.16c0-2.55-.46-4.98-1.31-7.25-.93-2.27-2.16-4.26-3.74-5.96-1.69-1.69-3.56-3.06-5.82-4.02-2.14-1.01-4.59-1.5-7.21-1.5s-5.06.49-7.32 1.43c-2.16.96-4.04 2.3-5.61 4.02-1.5 1.67-2.73 3.66-3.67 5.9-.82 2.24-1.29 4.64-1.29 7.19v.19c0 2.55.47 4.97 1.29 7.24.95 2.27 2.18 4.23 3.75 5.94 1.7 1.7 3.56 3.04 5.72 4.05 2.14.99 4.59 1.47 7.32 1.47z"/><path d="m398.52 431.84h23.26c4.68 0 8.89.76 12.82 2.26 3.86 1.5 7.22 3.58 10.03 6.26s4.97 5.8 6.58 9.4c1.48 3.61 2.22 7.51 2.22 11.7v.19c0 4.18-.74 8.11-2.22 11.73-1.61 3.63-3.77 6.8-6.58 9.46s-6.17 4.76-10.03 6.31c-3.93 1.51-8.14 2.29-12.82 2.29h-23.26zm23.26 47.77c2.7 0 5.14-.43 7.3-1.29 2.25-.83 4.12-2.07 5.72-3.64 1.48-1.61 2.71-3.47 3.66-5.63.82-2.16 1.29-4.56 1.29-7.24v-.16c0-2.62-.47-5.05-1.29-7.25-.95-2.21-2.18-4.12-3.66-5.71-1.61-1.58-3.47-2.81-5.72-3.69-2.16-.88-4.61-1.33-7.3-1.33h-10.13v35.94z"/><path d="m465.16 431.84h44.77v11.65h-31.84v12.1h28.1v11.67h-28.1v12.52h32.31v11.65h-45.24v-59.6z"/><path d="m547.71 431.84h14.15l15.66 25.19 15.65-25.19h14.14v59.6h-12.93v-38.9l-16.76 25.45h-.39l-16.58-25.2v38.65h-12.93v-59.6z"/><path d="m621.64 431.84h44.9v11.65h-31.95v12.1h28.1v11.67h-28.1v12.52h32.42v11.65h-45.37v-59.6zm24.93-19.78 11.15 4.86-10.86 10.25h-9.84l9.56-15.11z"/><path d="m694.92 461.14-19.87-29.3h15.27l12.58 19.34 12.55-19.34h14.89l-19.87 29.11 20.72 30.48h-15.28l-13.41-20.42-13.48 20.42h-14.9z"/><path d="m741.6 431.84h13.11v59.6h-13.11z"/><path d="m797.52 492.46c-4.4 0-8.42-.79-12.19-2.38-3.74-1.59-6.92-3.77-9.63-6.51-2.71-2.76-4.87-6.02-6.47-9.75-1.51-3.75-2.26-7.74-2.26-12.02v-.16c0-4.26.74-8.26 2.26-11.97 1.59-3.74 3.75-6.99 6.47-9.79 2.71-2.82 6.01-5.02 9.75-6.66 3.83-1.61 8.07-2.43 12.65-2.43 2.71 0 5.25.25 7.59.69 2.26.44 4.42 1.07 6.28 1.86 1.88.8 3.58 1.77 5.17 2.9 1.58 1.14 3.09 2.38 4.38 3.75l-8.34 9.62c-2.24-2.08-4.68-3.75-7.1-4.95-2.35-1.18-5.08-1.77-8.07-1.77-2.54 0-4.87.49-6.94 1.43-2.14.96-4.02 2.3-5.52 4.02-1.5 1.67-2.71 3.66-3.55 5.9-.87 2.24-1.32 4.64-1.32 7.19v.19c0 2.55.46 4.97 1.32 7.24.84 2.27 2.05 4.23 3.55 5.94 1.5 1.7 3.27 3.04 5.44 4.05 2.07.99 4.4 1.47 7.02 1.47 3.39 0 6.28-.6 8.63-1.86 2.33-1.25 4.67-2.93 7.02-5.11l8.34 8.42c-1.5 1.67-3.09 3.15-4.78 4.45-1.67 1.31-3.47 2.43-5.44 3.38-1.96.93-4.02 1.64-6.36 2.11-2.35.47-4.97.73-7.89.73z"/><path d="m861.44 492.46c-4.59 0-8.8-.82-12.66-2.43-3.93-1.62-7.21-3.79-10.02-6.56-2.81-2.74-4.98-5.99-6.58-9.7-1.58-3.72-2.33-7.7-2.33-11.97v-.16c0-4.26.76-8.26 2.33-11.97 1.59-3.74 3.85-6.99 6.67-9.79 2.81-2.82 6.18-5.02 10.01-6.66 3.96-1.61 8.17-2.43 12.76-2.43s8.82.82 12.65 2.43c3.85 1.64 7.21 3.82 10.01 6.56 2.84 2.78 4.98 5.99 6.58 9.72 1.58 3.72 2.33 7.69 2.33 11.95v.19c0 4.26-.76 8.23-2.33 11.94-1.59 3.74-3.85 7.02-6.65 9.79-2.81 2.81-6.2 5.03-10.03 6.65-3.93 1.61-8.17 2.43-12.74 2.43zm.19-12.11c2.62 0 4.97-.46 7.22-1.42 2.22-.98 4.1-2.3 5.69-4 1.51-1.7 2.73-3.69 3.66-5.93.85-2.24 1.33-4.64 1.33-7.19v-.16c0-2.55-.47-4.98-1.33-7.25-.93-2.27-2.14-4.26-3.74-5.96-1.69-1.69-3.55-3.06-5.82-4.02-2.16-1.01-4.59-1.5-7.21-1.5s-5.06.49-7.32 1.43c-2.14.96-4.02 2.3-5.61 4.02-1.51 1.67-2.71 3.66-3.66 5.9-.84 2.24-1.29 4.64-1.29 7.19v.19c0 2.55.46 4.97 1.29 7.24.95 2.27 2.14 4.23 3.75 5.94 1.7 1.7 3.56 3.04 5.71 4.05 2.14.99 4.61 1.47 7.32 1.47z"/></g></svg>