<svg viewBox="0 0 820.85 460.72" xmlns="http://www.w3.org/2000/svg"><path d="m0 0h820.85v460.72h-820.85z" fill="none" opacity=".64"/><g fill="#1ab0e6"><path d="m186.22 77.83h35.78v229.99h-35.78z"/><path d="m263.52 154.81h35.78v153.01h-35.78z"/><path d="m341.14 154.81h34.82v19.49h.96c2.56-2.77 5.43-5.64 8.63-8.63 3.19-2.97 6.87-5.59 11.02-7.82 4.15-2.24 8.95-4.09 14.37-5.59 5.43-1.49 11.66-2.24 18.69-2.24 9.79 0 19.11 1.97 27.95 5.91 8.83 3.94 16.61 9.48 23.32 16.61s12.03 15.7 15.97 25.71 5.91 21.19 5.91 33.54-1.97 22.9-5.91 32.9c-3.95 10.01-9.32 18.63-16.13 25.87-6.82 7.24-14.81 12.83-23.96 16.77-9.16 3.94-18.85 5.92-29.07 5.92-11.93 0-22.04-2.4-30.34-7.19s-15.01-10.38-20.13-16.77h-.96v93.59h-35.13v-228.07zm124.89 76.66c0-6.39-.96-12.61-2.88-18.69-1.92-6.07-4.79-11.39-8.62-15.97s-8.63-8.3-14.37-11.18c-5.75-2.87-12.57-4.31-20.44-4.31-6.18 0-12.03 1.22-17.57 3.67s-10.33 5.86-14.38 10.22c-4.05 4.37-7.24 9.69-9.58 15.97-2.35 6.28-3.51 13.26-3.51 20.92s1.22 14.27 3.67 20.44c2.45 6.18 5.75 11.45 9.9 15.82s8.95 7.77 14.38 10.22 11.23 3.68 17.41 3.68c7.66 0 14.37-1.44 20.12-4.31 5.75-2.88 10.54-6.71 14.37-11.5s6.71-10.22 8.62-16.29c1.92-6.07 2.88-12.3 2.88-18.69"/><path d="m603.38 194.1c-.85-5.54-3.14-10.01-6.87-13.42-3.73-3.4-8.26-5.11-13.58-5.11-6.18 0-10.92 1.65-14.22 4.95s-4.95 7.08-4.95 11.34c0 2.35.37 4.52 1.12 6.55.74 2.02 2.24 3.99 4.47 5.91 2.24 1.92 5.43 3.89 9.58 5.91s9.53 4.1 16.13 6.23c16.4 5.32 27.89 12.13 34.49 20.44s9.9 17.79 9.9 28.43c0 14.05-4.95 25.55-14.85 34.5-9.9 8.94-23.69 13.42-41.36 13.42s-32.1-4.53-41.36-13.58-14.64-20.71-16.13-34.98h33.22c.85 6.39 3.24 11.71 7.18 15.97s9.95 6.39 18.05 6.39c6.81 0 12.03-1.81 15.65-5.43s5.43-8.09 5.43-13.41c0-5.75-2.19-10.7-6.55-14.85-4.37-4.15-12.83-8.36-25.39-12.62-14.48-4.68-25.29-10.75-32.42-18.21-7.14-7.45-10.7-17.14-10.7-29.06 0-6.39 1.22-12.25 3.68-17.57 2.45-5.32 5.91-9.9 10.38-13.74 4.47-3.83 9.9-6.87 16.29-9.1 6.39-2.24 13.62-3.36 21.72-3.36s15.6 1.18 21.88 3.52 11.66 5.49 16.13 9.42c4.47 3.94 7.98 8.62 10.54 14.05 2.55 5.43 4.36 11.23 5.43 17.41h-32.9z"/><path d="m149.65 200.97c-3.09-9.47-7.78-17.99-14.06-25.55s-14.27-13.74-23.96-18.53-21.14-7.19-34.34-7.19c-12.14 0-23 2.14-32.58 6.39-9.58 4.26-17.73 10.06-24.44 17.41-6.71 7.34-11.82 15.87-15.33 25.55-1.81 4.99-3.13 10.15-4.01 15.45h34.78l-.25 25.88h-35.19c.84 8.15 2.63 15.84 5.48 23.04 4.04 10.22 9.69 19.01 16.93 26.36s15.86 13.1 25.88 17.25c10.01 4.15 20.87 6.23 32.58 6.23 9.58 0 18.21-1.28 25.87-3.84 7.67-2.55 14.42-5.91 20.28-10.06 5.85-4.15 10.81-8.99 14.85-14.53s7.35-11.18 9.9-16.93h-36.73c-4.05 5.54-8.79 9.8-14.22 12.78-5.43 2.99-12.09 4.47-19.96 4.47-6.18 0-12.03-1.23-17.57-3.68-5.54-2.44-10.38-5.7-14.53-9.74s-7.46-8.78-9.9-14.22c-2.45-5.43-3.67-11.12-3.67-17.09h118.19c.42-1.7.64-3.46.64-5.27v-5.27c0-9.79-1.55-19.43-4.63-28.91m-113.89 13.57c.43-4.89 1.7-9.63 3.84-14.21 2.13-4.58 4.95-8.63 8.46-12.14 3.51-3.52 7.72-6.33 12.62-8.47 4.9-2.13 10.43-3.19 16.61-3.19 5.75 0 11.07 1.01 15.97 3.03 4.9 2.03 9.1 4.79 12.62 8.31 3.51 3.52 6.33 7.56 8.47 12.14 2.13 4.58 3.51 9.43 4.15 14.53z"/><path d="m815.17 201.72c-3.09-9.48-7.78-17.99-14.06-25.55s-14.27-13.74-23.96-18.53-21.14-7.19-34.34-7.19c-12.14 0-23 2.13-32.58 6.39s-17.73 10.06-24.44 17.41-11.82 15.87-15.33 25.55c-1.81 4.99-3.13 10.15-4.01 15.45h34.78l-.25 25.88h-35.2c.84 8.15 2.63 15.84 5.48 23.04 4.04 10.22 9.69 19.01 16.93 26.36s15.86 13.1 25.88 17.25c10.01 4.15 20.87 6.23 32.58 6.23 9.59 0 18.21-1.28 25.87-3.84 7.67-2.55 14.42-5.91 20.28-10.06 5.85-4.15 10.8-8.99 14.85-14.53 4.04-5.54 7.35-11.18 9.9-16.93h-36.74c-4.05 5.54-8.79 9.8-14.21 12.78-5.43 2.99-12.09 4.48-19.97 4.48-6.18 0-12.03-1.23-17.56-3.68-5.54-2.44-10.38-5.69-14.54-9.74-4.15-4.04-7.46-8.78-9.9-14.22-2.45-5.43-3.67-11.12-3.67-17.08h118.19c.42-1.7.64-3.46.64-5.27v-5.27c0-9.79-1.55-19.43-4.63-28.91m-113.86 13.55c.43-4.89 1.7-9.63 3.83-14.21s4.95-8.63 8.46-12.14c3.52-3.52 7.72-6.33 12.62-8.47 4.9-2.13 10.43-3.19 16.61-3.19 5.75 0 11.07 1.01 15.97 3.03 4.89 2.03 9.1 4.79 12.62 8.31 3.51 3.52 6.33 7.56 8.46 12.14 2.12 4.58 3.51 9.43 4.15 14.53h-82.73z"/></g><g fill="#6ebe44"><path d="m553.98 111.62h-23.45v22.33h-8.79v-50.77h8.79v20.62h23.45v-20.62h8.78v50.77h-8.78z"/><path d="m574.9 116.08c0-2.73.48-5.26 1.45-7.59s2.31-4.34 4.02-6.03 3.74-3 6.07-3.95c2.33-.94 4.84-1.41 7.52-1.41s5.34.48 7.67 1.45 4.34 2.29 6.03 3.98 3 3.7 3.95 6.03c.94 2.33 1.41 4.84 1.41 7.52s-.47 5.1-1.41 7.41-2.26 4.33-3.95 6.07-3.7 3.12-6.03 4.13c-2.33 1.02-4.89 1.52-7.67 1.52s-5.25-.5-7.56-1.49-4.32-2.34-6.03-4.06c-1.71-1.71-3.05-3.74-4.02-6.07s-1.45-4.84-1.45-7.52m8.49.01c0 1.74.28 3.31.86 4.73.57 1.41 1.34 2.64 2.31 3.69.97 1.04 2.08 1.85 3.35 2.42s2.62.86 4.06.86c1.59 0 3.04-.3 4.36-.89 1.31-.6 2.43-1.41 3.35-2.46.92-1.04 1.64-2.28 2.16-3.72s.78-2.98.78-4.61-.25-3.09-.74-4.5c-.5-1.42-1.2-2.64-2.12-3.69-.92-1.04-2.03-1.87-3.35-2.49s-2.79-.93-4.43-.93-3.04.3-4.36.89c-1.32.6-2.43 1.42-3.35 2.46s-1.63 2.27-2.12 3.69c-.5 1.41-.74 2.94-.74 4.58"/><path d="m641.01 107.45c-.2-1.29-.74-2.33-1.6-3.13-.87-.79-1.93-1.19-3.17-1.19-1.44 0-2.54.38-3.31 1.15s-1.15 1.65-1.15 2.64c0 .55.09 1.05.26 1.52s.52.93 1.04 1.38 1.27.91 2.23 1.38c.97.47 2.22.95 3.76 1.45 3.82 1.24 6.5 2.83 8.04 4.76 1.54 1.94 2.31 4.15 2.31 6.63 0 3.28-1.16 5.96-3.46 8.04-2.31 2.08-5.52 3.13-9.64 3.13s-7.48-1.05-9.64-3.16-3.41-4.83-3.76-8.15h7.74c.2 1.49.76 2.73 1.68 3.72s2.32 1.49 4.21 1.49c1.59 0 2.8-.42 3.65-1.27.84-.84 1.26-1.89 1.26-3.13 0-1.34-.51-2.49-1.52-3.46-1.02-.97-2.99-1.95-5.92-2.94-3.37-1.09-5.89-2.51-7.55-4.24-1.66-1.74-2.49-4-2.49-6.78 0-1.49.28-2.85.86-4.09.57-1.24 1.38-2.31 2.42-3.2s2.31-1.6 3.8-2.12 3.18-.78 5.06-.78 3.64.27 5.1.82 2.72 1.28 3.76 2.2 1.86 2.01 2.45 3.27c.6 1.27 1.02 2.62 1.27 4.06h-7.67z"/><path d="m661.63 98.29h8.12v4.54h.22c.6-.65 1.27-1.31 2.01-2.01.74-.69 1.6-1.3 2.57-1.83.97-.52 2.08-.95 3.35-1.3 1.26-.34 2.72-.52 4.35-.52 2.28 0 4.46.46 6.51 1.38 2.06.92 3.87 2.21 5.43 3.87 1.57 1.67 2.8 3.66 3.72 6 .92 2.33 1.38 4.94 1.38 7.82s-.46 5.33-1.38 7.67c-.92 2.33-2.17 4.34-3.76 6.03s-3.45 2.99-5.58 3.91c-2.14.92-4.39 1.38-6.77 1.38-2.78 0-5.14-.56-7.07-1.67-1.94-1.12-3.5-2.42-4.69-3.91h-.22v21.82h-8.19v-53.16zm29.11 17.87c0-1.49-.22-2.94-.67-4.36-.45-1.41-1.12-2.65-2.01-3.72-.89-1.06-2.01-1.94-3.35-2.6-1.34-.67-2.93-1.01-4.76-1.01-1.44 0-2.81.28-4.09.86-1.29.57-2.41 1.36-3.35 2.38-.95 1.02-1.69 2.26-2.23 3.72-.55 1.46-.82 3.09-.82 4.87s.28 3.33.86 4.77c.57 1.44 1.34 2.67 2.31 3.68.97 1.02 2.08 1.81 3.35 2.38 1.26.57 2.62.86 4.06.86 1.79 0 3.35-.33 4.69-1s2.46-1.56 3.35-2.68 1.56-2.38 2.01-3.8.67-2.87.67-4.36"/><path d="m710.54 81.91h9.23v8.49h-9.23zm.45 16.38h8.34v35.66h-8.34z"/><path d="m729.68 98.29h4.47v-11.39h8.34v11.39h8.86v7h-8.86v15.93c0 2.43.38 4.07 1.15 4.91s2.02 1.27 3.76 1.27c.69 0 1.43-.06 2.19-.19.77-.12 1.48-.26 2.12-.41v6.77c-.94.25-1.97.45-3.09.6s-2.2.22-3.24.22c-2.23 0-4.07-.32-5.51-.97-1.44-.64-2.58-1.52-3.42-2.64-.85-1.12-1.44-2.44-1.79-3.98s-.52-3.23-.52-5.06v-16.46h-4.47v-7z"/><path d="m798.02 133.95h-8.11v-4.54h-.22c-1.24 1.54-2.84 2.89-4.8 4.06s-4.43 1.75-7.41 1.75c-2.04 0-4.07-.4-6.11-1.19-2.03-.79-3.87-2-5.51-3.61s-2.96-3.61-3.98-5.99-1.53-5.16-1.53-8.34c0-2.83.47-5.41 1.41-7.74s2.22-4.32 3.83-5.96 3.49-2.92 5.62-3.83c2.13-.92 4.42-1.38 6.85-1.38 1.49 0 2.83.17 4.02.52s2.27.81 3.24 1.38 1.81 1.22 2.53 1.94 1.35 1.43 1.9 2.12h.15v-4.84h8.11v35.66zm-29.11-17.87c0 1.49.21 2.94.63 4.36.42 1.41 1.08 2.68 1.97 3.8.89 1.11 2.02 2.01 3.39 2.68 1.36.67 2.97 1.01 4.8 1.01 1.39 0 2.72-.28 3.98-.86 1.27-.57 2.38-1.36 3.35-2.38s1.75-2.23 2.35-3.65c.6-1.41.89-2.99.89-4.73s-.27-3.42-.82-4.91-1.29-2.75-2.23-3.8c-.94-1.04-2.06-1.85-3.35-2.42s-2.66-.86-4.09-.86c-1.84 0-3.44.33-4.8 1-1.37.67-2.49 1.56-3.39 2.68-.89 1.12-1.56 2.38-2.01 3.8s-.67 2.84-.67 4.28"/><path d="m812.24 80.35h8.34v53.6h-8.34z"/><path d="m257.61 117.27c1.02-5.24 3.83-9.84 7.78-13.1 3.89-3.25 8.92-5.18 14.39-5.18s10.48 1.94 14.39 5.18c3.97 3.3 6.8 7.92 7.78 13.22.16.78-.37 1.54-1.17 1.7-.08.02-.17.02-.25.02h-41.49c-.82 0-1.47-.65-1.47-1.47 0-.12.02-.25.04-.37"/><path d="m301.94 125.85c-1.02 5.22-3.81 9.81-7.76 13.08-3.91 3.24-8.94 5.2-14.39 5.2s-10.5-1.96-14.39-5.2c-3.99-3.29-6.8-7.92-7.8-13.2-.14-.8.37-1.57 1.17-1.7.1-.02.17-.04.27-.04h41.49c.8 0 1.47.66 1.47 1.47 0 .14-.02.28-.06.39"/></g></svg>