<svg viewBox="0 0 1077.92 355.28" xmlns="http://www.w3.org/2000/svg"><g fill-rule="evenodd"><g fill="#41505d"><path d="m87.23 46.28h-39.58v9.73h29.17v23.82l-5.55 3.76-6.64 3.04-7.45 2.04-8.02.75-7.43-.61-6.75-1.79-6-2.85-5.22-3.84-4.38-4.73-3.49-5.53-2.56-6.25-1.57-6.86-.53-7.39v-.27l.69-7.82 2.02-7.34 3.22-6.67 4.32-5.83 5.32-4.84 6.21-3.67 6.99-2.32 7.65-.81 9.24.8 7.66 2.26 6.5 3.47 5.77 4.42 6.99-8.21-5.85-4.43-6.22-3.55-6.87-2.6-7.8-1.61-9-.55-7.6.56-7.09 1.63-6.53 2.59-5.93 3.48-5.28 4.27-4.6 4.96-3.85 5.57-3.08 6.08-2.25 6.51-1.39 6.84-.47 7.08v.28l.46 7.32 1.34 6.97 2.21 6.56 3.04 6.06 3.83 5.49 4.59 4.85 5.32 4.14 6.02 3.35 6.69 2.48 7.32 1.54 7.93.53 9.35-.76 8.61-2.11 7.78-3.19 6.87-4.02 5.87-4.57z"/><path d="m101.07 241.95-8.32-8.18-6.41 5.63-6.55 4.5-6.95 3.31-7.66 2.05-8.64.7-7.21-.6-6.77-1.73-6.27-2.77-5.68-3.73-5.02-4.59-4.28-5.37-3.46-6.06-2.57-6.67-1.6-7.17-.54-7.6v-.33l.54-7.55 1.59-7.13 2.55-6.62 3.44-6.02 4.27-5.33 5.01-4.56 5.68-3.7 6.28-2.75 6.79-1.72 7.25-.59 8.61.74 7.65 2.09 6.88 3.26 6.27 4.25 5.83 5.04 8.66-9.29-5.73-4.99-6.08-4.32-6.64-3.54-7.4-2.67-8.36-1.68-9.53-.58-7.44.46-7.07 1.33-6.67 2.15-6.21 2.91-5.74 3.62-5.2 4.27-4.64 4.86-4.03 5.39-3.38 5.87-2.71 6.29-1.98 6.66-1.21 6.96-.42 7.22v.32l.42 7.3 1.22 7.01 1.98 6.67 2.71 6.28 3.39 5.83 4.02 5.34 4.62 4.8 5.17 4.19 5.69 3.55 6.15 2.85 6.58 2.1 6.96 1.3 7.31.44 8.28-.47 7.47-1.36 6.77-2.19 6.18-2.95 5.71-3.64 5.35-4.27z"/><path d="m190.9 97.5-28-37.25-1.44-1.91 7.16-1.92 6.28-3.02 5.22-4.1 3.96-5.21 2.52-6.29.86-7.26.02-.41-.5-5.48-3.78-9.56-6.68-6.66v22.11.27l-1.18 6.79-3.35 5.48-5.23 4.06-6.8 2.52-8.09.87h-29.44v-38.89h29.58l8.49.84 6.83 2.42 5.02 3.9 3.11 5.25 1.06 6.49v-22.11l-1.58-1.24-6.32-3.01-7.41-1.89-8.38-.65h-41.21v95.86h10.81v-37.25h27.39l27.8 37.25z"/><path d="m288.96 1.64h-10.82v55.74l-.67 8.35-1.97 7.08-3.17 5.81-4.3 4.54-5.33 3.24-6.29 1.96-7.16.65-7.36-.71-6.42-2.08-5.4-3.42-4.33-4.71-3.17-5.95-1.96-7.15-.67-8.3v-55.05h-10.81v55.74l.58 8.57 1.71 7.61 2.77 6.66 3.75 5.67 4.67 4.68 5.5 3.67 6.28 2.64 6.98 1.59 7.6.53 7.69-.53 7.02-1.6 6.31-2.66 5.52-3.71 4.66-4.75 3.75-5.77 2.75-6.8 1.71-7.81.58-8.82z"/><path d="m370 147.6h-12.33v89.86l-70.64-89.86h-11.86v112.13h12.34v-91.95l72.4 91.95h10.09z"/><path d="m386.33 32.04-.85-7.63-2.48-6.66-3.98-5.61-3.64-3.04v23.35.28l-1.21 7.03-3.47 5.83-5.5 4.43-7.28 2.81-8.84.98h-23.69v-42.17h24.24l8.62.85 7.13 2.53 5.39 4.19 3.41 5.82 1.2 7.42v-23.35l-1.72-1.44-6.63-3.3-7.78-2.03-8.8-.69h-35.87v95.86h10.81v-33.83h23.28l7.48-.5 7.02-1.49 6.38-2.48 5.6-3.45 2.03-1.94 2.62-2.49 3.52-5.38 2.23-6.34.77-7.15z"/><path d="m497.84 241.95-8.33-8.18-6.41 5.63-6.54 4.5-6.96 3.31-7.65 2.05-8.64.7-7.21-.6-6.78-1.73-6.27-2.77-5.68-3.73-5.02-4.59-4.27-5.37-3.47-6.06-2.56-6.67-1.6-7.17-.55-7.6v-.33l.55-7.55 1.58-7.13 2.55-6.62 3.45-6.02 4.26-5.33 5.01-4.56 5.68-3.7 6.28-2.75 6.8-1.72 7.25-.59 8.6.74 7.66 2.09 6.87 3.26 6.28 4.25 5.83 5.04 8.65-9.29-5.72-4.99-6.08-4.32-6.64-3.54-7.4-2.67-8.37-1.68-9.52-.58-7.44.46-7.08 1.33-6.66 2.15-6.22 2.91-5.73 3.62-5.2 4.27-4.64 4.86-4.03 5.39-3.39 5.87-2.7 6.29-1.98 6.66-1.22 6.96-.41 7.22v.32l.41 7.3 1.22 7.01 1.99 6.67 2.71 6.28 3.38 5.83 4.03 5.34 4.62 4.8 5.17 4.19 5.68 3.55 6.16 2.85 6.57 2.1 6.97 1.3 7.31.44 8.28-.47 7.46-1.36 6.77-2.19 6.19-2.95 5.7-3.64 5.35-4.27z"/><path d="m499.59 49.3-.48-7.11-1.4-6.84-2.29-6.49-3.12-6.05-3.91-5.53-.03-.03v32.32.28l-.71 7.94-2.07 7.38-3.32 6.68-4.45 5.81-5.47 4.79-6.4 3.62-7.2 2.28-7.9.79-7.07-.64-6.54-1.84-5.93-2.94-5.24-3.91-4.47-4.78-3.61-5.52-2.69-6.16-1.67-6.69-.57-7.09v-.27l.71-7.94 2.07-7.39 3.31-6.68 4.45-5.81 5.47-4.79 6.4-3.61 7.2-2.29 7.91-.79 7.06.64 6.54 1.84 5.93 2.94 5.24 3.91 4.47 4.78 3.62 5.52 2.68 6.17 1.67 6.68.58 7.09v-32.32l-4.63-4.89-3-2.36-2.35-1.86-6.02-3.43-6.62-2.56-7.19-1.6-7.71-.55-7.72.56-7.2 1.62-6.65 2.58-6.05 3.47-5.39 4.25-4.7 4.95-3.94 5.57-3.16 6.08-2.31 6.52-1.42 6.86-.46 6.84-.02.55.47 7.1 1.41 6.84 2.28 6.49 3.12 6.06 3.92 5.52 4.65 4.92 5.36 4.22 6.01 3.43 6.63 2.56 7.19 1.6 7.71.55 7.71-.56 7.21-1.62 6.65-2.58 6.04-3.47 5.4-4.25 4.69-4.95 3.95-5.57 3.15-6.08 2.31-6.52 1.42-6.86.47-6.83z"/><path d="m601.81 248.23h-69.2v-39.22h61.19v-11.69h-61.19v-38.23h68.4v-11.49h-81.05v11.49 38.23 11.69 39.22 11.49h81.85z"/><path d="m722.13 147.6h-12.34v89.86l-70.64-89.86h-11.85v112.13h12.33v-91.95l72.4 91.95h10.1z"/><path d="m833.94 147.6h-88.1v11.69h37.64v100.43h12.81v-100.43h37.65z"/><path d="m950.4 259.73-32.76-43.57-1.68-2.24 7.23-1.85 6.51-2.78 5.63-3.73.77-.77 3.86-3.9 3.48-5.61 2.19-6.55.75-7.33.01-.48-.58-6.41-1.7-5.9-5.98-9.32-4.55-3.75v25.86.32l-.97 6.71-2.77 5.68-4.37 4.55-5.77 3.35-6.98 2.07-7.97.71h-34.44v-45.5h34.6l8.41.68 7.06 1.99 5.65 3.22 4.14 4.36 2.54 5.44.87 6.42v-25.86l-1.85-1.45-7.4-3.53-8.66-2.2-9.8-.76h-48.22v112.13h12.66v-43.57h32.03l32.52 43.57z"/><path d="m1077.92 259.73-13.41-29.64-5.23-11.53-13.07-28.93v28.93h-51.11l25.63-57.03 25.48 57.03v-28.93l-12.72-28.1-6.68-14.73h-11.84l-51.11 112.93h12.97l13.3-29.64h61.03l13.13 29.64z"/></g><path d="m201.88 121.28-10.95.97-6.02 1.27-6.18 1.81-6.24 2.41-6.14 3.01-5.92 3.67-5.57 4.33-5.08 5.04-4.45 5.77-3.69 6.53-2.81 7.32-1.78 8.15-.62 8.99.76 11.53 2.13 9.75 3.26 8.14 4.15 6.67 4.8 5.34 5.21 4.15 5.39 3.12 10.34 3.7 8.18 1.31 2.68.11 3.68-1.08 1.23-2.48-1.23-2.69-3.68-1.71-3.87-.67-2.54-.65-5.58-2.72-12.41-10.55-7.08-12.77-.15-17.41 3.13-9.14 4.06-7.69 4.81-6.36 5.42-5.14 5.85-4.03 6.11-3.02 6.22-2.13 6.15-1.35 5.93-.69 5.53-.12 4.98.32 4.25.65 3.37.88 5.72 2.26 12.28 5.64 5.6 2.26 4.62 1.12 3.13-.57 1.18-2.85-4.33-11.64-4.41-5.11-5.47-4.26-6.27-3.44-6.8-2.63-7.06-1.86-7.05-1.1z" fill="#0c5a9d"/><path d="m145.07 123.69-10.75 6.36-5.71 5.51-5.64 6.45-5.49 8.97-2.34 5.66-1.99 6.28-1.57 6.8-1.08 7.22-.53 7.51.09 7.69.78 7.78 1.52 7.74 2.34 7.59 3.21 7.34 4.16 6.97 5.17 6.5 6.25 5.91 8.69 6.36 8.27 4.62 7.83 3.03 7.38 1.6 6.91.34 6.41-.76 5.9-1.7 10.18-5.61 7.9-7.45 5.47-8.03 1.92-5.99-1.07-3.58-2.95-.98-3.72 1.82-2.39 2.31-2.74 2.88-3.09 3.1-3.42 2.98-4.06 2.62-4.44 1.79-4.7.91-4.82-.05-6.26-.99-7.39-2.11-7.6-3.78-6.91-6.04-6.42-8.59-4.7-8.46-3.19-8.24-1.86-7.95-.73-7.57.21-7.1.95-6.55 1.5-5.91 3.88-9.57 7.85-11.65 5.58-6.75 4.36-5.57 2.2-4.65-.9-3.97-3.83-2.93z" fill="#00aa60"/><path d="m202.88 150.82-8.17.5-7.2 1.87-6.29 2.97-5.4 3.76-4.56 4.28-6.72 8.97-3.79 7.6-.88 2.56.06 3.84 2.06 1.84 2.92-.46 2.63-3.1 1.73-3.56 1.58-2.44 2.35-2.43 4.02-3.54 3.01-1.5 8.37-2.27 12.76.29 16.16 6.19 7.95 5.58 6.28 6.31 4.76 6.86 3.41 7.24 2.21 7.46 1.16 7.51.28 7.39-.46 7.1-1.03 6.64-1.45 6.02-3.53 9.48-5.42 7.9-4.25 4.84-4.2 4.66-3.49 4.25-2.13 3.59-.12 2.7 2.54 1.55 5.85.18 5.94-1.41 5.67-3.1 5.3-4.49 4.84-5.56 4.29-6.3 3.62-6.74 2.88-6.85 2.02-6.67 1.07-6.15.62-10.54-.05-6-.38-6.34-.79-6.57-1.29-6.7-1.86-6.7-2.5-6.62-3.24-6.41-4.03-6.09-4.92-5.68-5.88-5.15-6.92-4.51-8.03-3.77-10.2-3.11z" fill="#f0c030"/><path d="m191.7 176.8-2.71.05-3.58 1.37-1.03 2.57 1.44 2.58 3.81 1.41 3.94.4 2.83.65 7.79 3.93 8.3 9.59 4.21 12.11-1.22 17.09-3.23 8.89-4.29 7.31-5.16 5.85-5.86 4.51-6.36 3.31-6.69 2.24-6.82 1.28-6.76.47-6.54-.23-6.11-.79-10.22-2.76-12.95-6.94-7.61-4.44-5.99-3.38-4.36-2.08-2.71-.51-1.04 1.33.64 3.43 2.35 5.78 3.22 5.43 4.49 5.17 5.51 4.8 6.25 4.32 6.75 3.7 6.99 2.98 6.97 2.14 6.69 1.18 6.15.1 5.3-.56 11.93-2.14 6.34-1.68 6.42-2.16 6.35-2.68 6.15-3.27 5.8-3.9 5.31-4.58 4.7-5.31 3.94-6.1 3.04-6.93 2.01-7.82.83-8.76-.57-10.65-2.05-9.01-3.27-7.5-4.24-6.12-4.94-4.89-5.39-3.79-5.58-2.81-10.73-3.23-4.64-.7z" fill="#d93d34"/><path d="m30.22 344-3.14-7.08-10.17-4.08-5.89-1.62-3.61-1.94-1.81-2.39-.49-2.91v-.11l.71-2.98 2-2.42 3.12-1.64 4.06-.6 3.23.25 3.06.8 2.93 1.42 2.87 2.1 1.91-2.37-3.07-2.16-3.2-1.53-3.53-.92-4.08-.31-5.21.82-4.12 2.25-2.71 3.38-.98 4.19v.12l3.18 7.26 10.47 4.14 5.67 1.52 3.51 1.88 1.78 2.32.5 2.9v.11l-.75 3.21-2.09 2.55-3.24 1.68-4.16.6-4.16-.36-3.66-1.11-3.39-1.87-3.31-2.67-1.97 2.25 3.69 2.84 3.86 2.03 4.17 1.21 4.6.4 5.39-.8 4.24-2.27 2.79-3.49 1-4.49z" fill="#41505d"/></g><g fill="#41505d"><path d="m40.52 314.09h3.01v40.49h-3.01z"/><path d="m89.63 314.09h-2.89v35.23l-27.94-35.23h-2.84v40.49h2.89v-35.98l28.52 35.98h2.26z" fill-rule="evenodd"/><path d="m130.76 351.73h-26.09v-16.24h23.2v-2.78h-23.2v-15.84h25.8v-2.78h-28.8v2.78 15.84 2.78 16.24 2.77h29.09z" fill-rule="evenodd"/><path d="m173.4 354.58-12.96-16.77-.41-.52 4.73-1.25 1.53-.95 2.23-1.4 2.48-3.44.89-4.53v-.12l-.21-2.12-.61-2.01-.96-1.81-1.23-1.51v7.57.11l-.89 3.91-2.47 2.91-3.74 1.81-4.7.63h-13.65v-18.22h13.82l4.92.62 3.65 1.76 2.28 2.79.78 3.68v-7.57l-.05-.07-1.56-1.21-.55-.43-2.64-1.26-3.11-.81-3.54-.28h-17.01v40.49h3.01v-16.77h13.25l12.9 16.77z" fill-rule="evenodd"/><path d="m216.73 333.59h-16.43v2.77h13.53v11.63l-2.53 1.77-3.09 1.48-3.5 1-3.78.38-7.27-1.39-5.46-3.83-3.43-5.79-1.19-7.27v-.12l1.23-6.95 3.44-5.77 5.29-3.93 6.76-1.46 4.17.37 3.44 1.03 2.89 1.53 2.51 1.93 1.97-2.25-3.1-2.25-3.35-1.67-3.83-1.04-4.53-.36-6.72 1.12-5.55 3.1-4.18 4.62-2.64 5.72-.92 6.49.89 6.54 2.59 5.72 4.19 4.52 5.66 2.97 7.03 1.08 4.75-.5 4.31-1.33 3.75-1.93 3.1-2.32z" fill-rule="evenodd"/><path d="m228.01 314.09h3.01v40.49h-3.01z"/><path d="m280.59 354.58-5.24-11.33-1.26-2.72-3.22-6.96v6.96h-21.34l10.7-23.43 10.64 23.43v-6.96l-7.61-16.47-1.52-3.3h-2.9l-18.86 40.78h3.13l5.15-11.33h23.89l5.14 11.33z" fill-rule="evenodd"/><path d="m341.51 334.22-1.02-6.47-2.11-4.03v10.62.11l-1.28 6.79-3.68 5.51-5.8 3.71-7.63 1.35h-10.47v-34.94h10.47l7.63 1.38 5.8 3.75 3.68 5.56 1.28 6.78v-10.62l-.78-1.51-4.54-4.31-2.18-1.03-3.77-1.78-7.12-1h-13.48v40.49h13.48l7.12-1.01 5.95-2.83 4.54-4.35 2.89-5.57 1-6.37z" fill-rule="evenodd"/><path d="m380.85 351.73h-26.09v-16.24h23.19v-2.78h-23.19v-15.84h25.8v-2.78h-28.81v2.78 15.84 2.78 16.24 2.77h29.1z" fill-rule="evenodd"/><path d="m441.53 314.09h-2.89v35.23l-27.94-35.23h-2.84v40.49h2.9v-35.98l28.51 35.98h2.26z" fill-rule="evenodd"/><path d="m482.66 351.73h-26.09v-16.24h23.2v-2.78h-23.2v-15.84h25.8v-2.78h-28.8v2.78 15.84 2.78 16.24 2.77h29.09z" fill-rule="evenodd"/><path d="m526.8 333.59h-16.43v2.77h13.54v11.63l-2.54 1.77-3.09 1.48-3.5 1-3.77.38-7.28-1.39-5.45-3.83-3.43-5.79-1.19-7.27v-.12l1.23-6.95 3.44-5.77 5.28-3.93 6.76-1.46 4.18.37 3.44 1.03 2.88 1.53 2.52 1.93 1.97-2.25-3.1-2.25-3.35-1.67-3.84-1.04-4.52-.36-6.73 1.12-5.54 3.1-4.18 4.62-2.65 5.72-.92 6.49.89 6.54 2.6 5.72 4.19 4.52 5.66 2.97 7.02 1.08 4.76-.5 4.3-1.33 3.76-1.93 3.09-2.32z" fill-rule="evenodd"/><path d="m576.61 334.22-.93-6.41-2.19-4.65v11.18.11l-1.28 7.05-3.56 5.76-5.44 3.88-6.9 1.42-6.93-1.44-5.47-3.92-3.6-5.79-1.3-7.07v-.12l1.28-7.05 3.56-5.75 5.44-3.88 6.9-1.43 6.93 1.44 5.47 3.92 3.6 5.8 1.3 7.07v-11.18l-4.74-5.62-5.62-3.04-6.82-1.1-6.83 1.11-5.66 3.07-4.28 4.61-2.7 5.73-.93 6.3-.02.23.93 6.41 2.68 5.69 4.25 4.58 5.62 3.04 6.82 1.11 6.83-1.12 5.66-3.07 4.27-4.61 2.71-5.72.93-6.31z" fill-rule="evenodd"/><path d="m621.27 348.22-2.02-1.97-3.09 2.7-3.23 1.97-3.56 1.22-4.06.42-6.75-1.41-5.44-3.86-3.62-5.79-1.31-7.16v-.12l1.3-7.12 3.58-5.75 5.41-3.84 6.77-1.4 4.2.46 3.58 1.24 3.1 1.89 2.77 2.37 2.14-2.2-3.2-2.62-3.52-2.05-4.09-1.33-4.92-.47-6.6 1.07-5.58 3-4.31 4.55-2.78 5.74-.98 6.58v.11l.98 6.63 2.78 5.73 4.29 4.49 5.54 2.93 6.54 1.05 4.94-.51 4.19-1.44 3.64-2.23z" fill-rule="evenodd"/><path d="m629.96 314.09h3.01v40.49h-3.01z"/><path d="m684.33 334.22-.93-6.41-2.19-4.65v11.18.11l-1.28 7.05-3.56 5.76-5.43 3.88-6.91 1.42-6.92-1.44-5.48-3.92-3.6-5.79-1.29-7.07v-.12l1.27-7.05 3.56-5.75 5.44-3.88 6.9-1.43 6.93 1.44 5.48 3.92 3.59 5.8 1.3 7.07v-11.18l-4.74-5.62-5.62-3.04-6.82-1.1-6.83 1.11-5.66 3.07-4.27 4.61-2.71 5.73-.93 6.3-.02.23.94 6.41 2.68 5.69 4.24 4.58 5.62 3.04 6.82 1.11 6.84-1.12 5.65-3.07 4.28-4.61 2.71-5.72.93-6.31z" fill-rule="evenodd"/><path d="m721.41 344-3.14-7.08-10.16-4.08-5.9-1.62-3.6-1.94-1.81-2.39-.49-2.91v-.11l.7-2.98 2.01-2.42 3.12-1.64 4.06-.6 3.23.25 3.05.8 2.93 1.42 2.88 2.1 1.91-2.37-3.08-2.16-3.19-1.53-3.54-.92-4.08-.31-5.2.82-4.12 2.25-2.72 3.38-.97 4.19v.12l3.18 7.26 10.47 4.14 5.67 1.52 3.51 1.88 1.78 2.32.49 2.9v.11l-.74 3.21-2.1 2.55-3.23 1.68-4.17.6-4.15-.36-3.67-1.11-3.39-1.87-3.31-2.67-1.96 2.25 3.69 2.84 3.86 2.03 4.16 1.21 4.6.4 5.39-.8 4.25-2.27 2.78-3.49 1-4.49z" fill-rule="evenodd"/></g></svg>