<svg viewBox="0 0 1353.09 759.45" xmlns="http://www.w3.org/2000/svg" xmlns:xlink="http://www.w3.org/1999/xlink"><clipPath id="a"><path d="m394.01 181.99.5 2.28c-2.03-1.86-40.57-37.11-108.85-33.1-18.91 1.11-39.92 5.37-62.81 14.45-4.68 1.92-93.59 38.37-140.15 123.5l-.5-2.28c46.56-85.13 135.47-121.58 140.15-123.5 22.89-9.08 43.9-13.34 62.81-14.45 68.28-4.01 106.83 31.25 108.85 33.1z"/></clipPath><clipPath id="b"><path d="m70.81 381.83-.5-2.28c-10.56-47.63 10.67-90.26 11.89-92.72l.5 2.28c-1.22 2.46-22.46 45.09-11.89 92.72z"/></clipPath><clipPath id="c"><path d="m7.15 393.66-.5-2.28c18.65 84.11 107.52 97.1 112.75 97.87l.5 2.28c-5.24-.77-94.1-13.76-112.75-97.87z"/></clipPath><clipPath id="d"><path d="m361.22 432.69.5 2.28c-3.55 2.59-70.99 51.81-179.26 58.18-19.69 1.16-40.61.81-62.56-1.62l-.5-2.28c21.95 2.43 42.87 2.78 62.56 1.62 108.27-6.37 175.71-55.59 179.26-58.18z"/></clipPath><path d="m0 0h1353.09v759.45h-1353.09z" fill="none" opacity=".64"/><path d="m439.1 144.86.5 2.28-45.08 37.12-.51-2.27z" fill="#73171c"/><g clip-path="url(#a)"><path d="m394.01 181.99.5 2.28c-2.03-1.86-40.57-37.11-108.85-33.1-18.91 1.11-39.92 5.37-62.81 14.45-3.3 1.35-48.59 19.92-91.31 60.67l-.5-2.28c42.73-40.76 88.01-59.32 91.31-60.67 22.89-9.08 43.9-13.34 62.81-14.45 68.28-4.01 106.83 31.25 108.85 33.1" fill="#73171c"/><path d="m131.03 224.01.5 2.28c-10.04 9.57-19.94 20.37-29.11 32.46l-.5-2.28c9.18-12.09 19.08-22.89 29.11-32.46" fill="#77181d"/><path d="m101.92 256.47.5 2.28c-6.43 8.47-12.51 17.58-18.04 27.34l-.5-2.28c5.53-9.76 11.61-18.87 18.04-27.34" fill="#7c191e"/><path d="m83.88 283.81.5 2.28c-.57 1-1.13 2.01-1.68 3.03l-.5-2.28c.56-1.02 1.12-2.02 1.68-3.03" fill="#801a1f"/></g><g clip-path="url(#b)"><path d="m82.19 286.84.5 2.28c-.26.52-1.43 2.88-3.01 6.72l-.5-2.28c1.58-3.84 2.75-6.2 3.01-6.72" fill="#801a1f"/><path d="m79.18 293.56.5 2.28c-1.81 4.41-4.16 10.77-6.29 18.57l-.5-2.28c2.13-7.8 4.47-14.16 6.29-18.57" fill="#851a20"/><path d="m72.89 312.13.5 2.28c-1.67 6.13-3.2 13.15-4.23 20.81l-.5-2.28c1.03-7.66 2.56-14.68 4.23-20.81" fill="#891b21"/><path d="m68.67 332.94.5 2.28c-.93 6.97-1.45 14.46-1.27 22.29l-.5-2.28c-.18-7.83.33-15.33 1.27-22.29" fill="#8d1c23"/><path d="m67.4 355.23.5 2.28c.18 7.83 1.06 16 2.9 24.32l-.5-2.28c-1.85-8.32-2.72-16.49-2.9-24.32" fill="#921d24"/></g><g clip-path="url(#c)"><path d="m119.4 489.25.5 2.28c-5.24-.77-94.1-13.76-112.75-97.87l-.5-2.28c18.65 84.11 107.52 97.1 112.75 97.87" fill="#73171c"/></g><path d="m293.86 111.82c44.52-2.62 98.91 2.86 145.24 33.04l-45.08 37.12c-2.03-1.86-40.57-37.11-108.85-33.1-18.91 1.11-39.92 5.37-62.81 14.45-4.68 1.92-93.59 38.37-140.15 123.5-1.35 2.71-27 54.21-7.61 107.42 1.49 3.03 29.88 60.53 109.83 55.83 6.63-.39 13.6-1.23 20.94-2.59 4.4-.97 87.96-19.47 125.95-48.13l29.93 33.33c-3.55 2.59-70.99 51.81-179.26 58.18-19.69 1.16-40.61.81-62.56-1.62-5.9-.86-118.04-17.26-116.15-133.51.48-8.07 9.55-161.31 203.43-227.96 1.87-.65 37.42-13.04 87.17-15.97z" fill="#b8252d"/><g clip-path="url(#d)"><path d="m361.22 432.69.5 2.28c-3.55 2.59-70.99 51.81-179.26 58.18-19.69 1.16-40.61.81-62.56-1.62l-.5-2.28c21.95 2.43 42.87 2.78 62.56 1.62 108.27-6.37 175.71-55.59 179.26-58.18" fill="#73171c"/></g><path d="m130.38 642.87 2.22.02-38.57.15-2.22-.02z" fill="#6f161b"/><path d="m157.08 642.77 2.22.02-26.7.1-2.22-.02z" fill="#6f161b"/><path d="m285.08 277.95 2.22.02-113.5 323.49-2.22-.03z" fill="#811a1f"/><path d="m305.4 642.19 2.22.02-148.32.58-2.22-.02z" fill="#6f161b"/><path d="m224.57 278.18 60.51-.23-113.5 323.48 145.53-.57-11.71 41.33-148.32.58-26.7.1-38.57.15z" fill="#b9252d"/><path d="m317.11 600.86 2.22.03-11.71 41.32-2.22-.02z" fill="#841a20"/><g fill="#666665"><path d="m960.5 248.52h25.69v97.6c0 15.43-12.89 28.06-28.64 28.06h-68.42c-15.75 0-28.64-12.63-28.64-28.06v-97.62h25.72l-.03 5.76v69.27c0 10.95 7.55 19.91 16.77 19.91h40.06c9.22 0 16.77-8.96 16.77-19.91v-75.02h.71"/><path d="m1045.12 569.55h-68.42c-15.75 0-28.64-12.63-28.64-28.06v-97.62h25.72l-.03 5.76v69.27c0 10.95 7.55 23.39 16.77 23.39h79.14v27.17z"/><path d="m1352.71 543.15h-60.67c-11.18 0-20.32-7.55-20.32-16.77v-40.06c0-9.22 9.14-16.77 20.32-16.77h60.67v-25.69h-83.72c-15.75 0-28.64 12.89-28.64 28.64v68.42c0 15.75 12.89 28.64 28.64 28.64h83.72v-26.4z"/><path d="m698.59 277.16h-71c-15.75 0-28.64 12.89-28.64 28.64v9.88c0 15.75 12.89 28.64 28.64 28.64h31.7c4.24 0 7.72-3.47 7.72-7.72v-2.66c0-4.24-3.47-7.72-7.72-7.72l-28.74.26v-30.13h39.4c15.75 0 28.64 12.89 28.64 28.64v20.59c0 15.75-12.89 28.64-28.64 28.64h-71c-15.75 0-28.64-12.89-28.64-28.64v-68.42c0-15.75 12.89-28.64 28.64-28.64h99.63v28.64"/><path d="m710.93 299.69v74.49h31.96v-47.79h38.75l33.49 47.82h40.94l-38.34-47.83c15.75 0 28.64-12.89 28.64-28.64v-20.59c0-15.75-12.89-28.64-28.64-28.64h-106.8v28.45h96.53c4.24 0 7.72 3.48 7.72 7.72v2.66c0 4.24-3.47 7.72-7.72 7.72h-96.53v4.62z"/><path d="m1001.95 299.69v74.49h31.96v-47.79h74.84c15.75-.01 28.64-12.9 28.64-28.65v-20.59c0-15.75-12.89-28.64-28.64-28.64h-106.8v28.45h96.53c4.24 0 7.72 3.48 7.72 7.72v2.66c0 4.24-3.47 7.72-7.72 7.72h-96.53v4.62z"/><path d="m1255.56 248.52h-71.76c-15.54 0-28.25 12.71-28.25 28.25v69.19c0 15.54 12.71 28.25 28.25 28.25h71.76c15.54 0 28.25-12.71 28.25-28.25v-69.19c0-15.54-12.71-28.25-28.25-28.25zm1.33 81.15c0 8.76-7.16 15.92-15.92 15.92h-42.6c-8.76 0-15.92-7.16-15.92-15.92v-36.93c0-8.76 7.16-15.92 15.92-15.92h42.6c8.76 0 15.92 7.16 15.92 15.92z"/><path d="m783.91 541.21c0 15.54-12.71 28.25-28.25 28.25h-100.02v-27.95h89.76c5.04 0 9.16-4.12 9.16-9.16v-2.31c0-5.04-4.12-9.16-9.16-9.16h-73.84c-8.76 0-15.92-7.16-15.92-15.92v-32.94c0-15.54 12.71-28.25 28.25-28.25h71.76l28.25.09v28.21h-89.63c-5.04 0-9.16 4.12-9.16 9.16v2.31c0 5.04 4.12 9.16 9.16 9.16h63.85l9.86.06c8.76 0 15.92 7.16 15.92 15.92v32.53z"/><path d="m906.47 443.78h-71.76c-15.54 0-28.25 12.71-28.25 28.25v69.19c0 15.54 12.71 28.25 28.25 28.25h100.02v-27.23h-91.98c-8.76 0-15.92-7.16-15.92-15.92v-6.51h91.98c8.76 0 15.92-7.16 15.92-15.92v-31.86c0-15.54-12.71-28.25-28.25-28.25zm6.22 49.15v.04h-85.58v-.04s0-6.47 0-6.47c0-8.76 7.16-15.92 15.92-15.92h53.74c8.76 0 15.92 7.16 15.92 15.92z"/><path d="m602.36 443.87h-76.69l-27.51.09v27.17h88.7c10.06 0 18.32 11.79 18.75 22.52-.39-.02-.76-.12-1.16-.12h-84.32c-12.09 0-21.97 9.89-21.97 21.97v32.08c0 12.09 9.89 21.97 21.97 21.97h79.34c5.62 0 10.48-9.31 10.48-9.31v9.21l24.49.09v-97.62c0-15.43-14.44-28.06-32.1-28.06zm-2.84 89.35c0 4.56-3.73 8.3-8.3 8.3h-57.84c-4.56 0-8.3-3.73-8.3-8.3v-2.09c0-4.56 3.73-8.3 8.3-8.3h57.84c4.56 0 8.3 3.73 8.3 8.3z"/><path d="m1187.58 443.87h-76.69l-27.51.09v27.17h88.7c10.06 0 18.32 11.79 18.75 22.52-.39-.02-.76-.12-1.16-.12h-84.32c-12.09 0-21.97 9.89-21.97 21.97v32.08c0 12.09 9.89 21.97 21.97 21.97h79.34c5.62 0 10.48-9.31 10.48-9.31v9.21l24.49.09v-97.62c0-15.43-14.44-28.06-32.1-28.06zm-2.84 89.35c0 4.56-3.73 8.3-8.3 8.3h-57.84c-4.56 0-8.3-3.73-8.3-8.3v-2.09c0-4.56 3.73-8.3 8.3-8.3h57.84c4.56 0 8.3 3.73 8.3 8.3z"/></g></svg>