<svg viewBox="0 0 1588.35 311.75" xmlns="http://www.w3.org/2000/svg"><g fill="#f67500"><path d="m464.38 50.85h11.46v111.54h-11.46z"/><path d="m512.76 50.85h7.39l77.47 91.64-.15-91.64h11.46v111.54h-7.39l-77.47-91.64.15 91.64h-11.46z"/><path d="m631.08 50.85h12.36l42.05 97.82 42.05-97.82h12.21l-48.84 111.54h-10.85l-48.99-111.54z"/><path d="m762.06 50.85h11.46v111.54h-11.46z"/><path d="m880.54 152.9v9.5h-70.09v-111.55h68.73v9.5h-57.28v40.4h53.51v9.5h-53.51v42.66h58.63z"/><path d="m983.94 162.39-29.69-45.52h-31.65v45.52h-11.46v-111.54h41.15c22.61 0 37.38 13.11 37.38 33.01 0 15.22-9.04 26.68-23.82 31.05l31.65 47.48h-13.57zm-61.35-55.01h28.19c16.13 0 26.98-9.5 26.98-23.51s-10.7-23.51-26.98-23.51h-28.19v47.03z"/><path d="m1089.75 60.35h-35.87v102.04h-11.46v-102.04h-36.02v-9.5h83.35z"/><path d="m1183.5 152.9v9.5h-70.09v-111.55h68.73v9.5h-57.28v40.4h53.51v9.5h-53.51v42.66h58.63z"/></g><g fill="#444"><path d="m1299.41 129.98c0 19.44-15.37 32.41-38.89 32.41h-48.38v-111.54h47.78c20.05 0 33.46 11.76 33.46 29.24 0 10.1-5.43 18.09-14.92 23.21 12.96 4.37 20.95 14.02 20.95 26.68zm-66.02-33.61h21.4c10.1 0 16.73-5.58 16.73-14.02s-6.78-13.87-16.58-13.87h-21.55v27.88zm44.16 33.01c0-9.35-7.39-15.52-18.09-15.52h-26.08v30.9h25.77c11 0 18.39-6.18 18.39-15.37z"/><path d="m1325.33 50.85h21.25v111.54h-21.25z"/><path d="m1456.61 144.76v17.63h-77.02v-111.54h75.82v17.63h-54.56v28.64h49.74v17.48h-49.74v30.15h55.77z"/><path d="m1484.04 50.85h13.26l70.24 75.51-.45-75.51h21.25v111.54h-13.11l-70.24-75.51.3 75.51h-21.25z"/></g><path d="m134.02 162.86 64 64 7.13-7.13 55.04-55.04v-17.52l-27.13-27.13-27.91-27.91 20.98-20.98 48.88 48.89 3.44 3.44 9.33 9.33 22.2 22.2h-22.2v24.04l-21.89 21.89-39.76 39.76-7.13 7.13 20.21 20.21 112.17-112.17-112.17-112.17-105.19 105.19zm40.58-28.1h42.23v42.23h-42.23z" fill="none"/><path d="m287.79 132.81-9.34-9.33-3.43-3.44-48.89-48.88-20.97 20.97 27.91 27.91 27.13 27.14v7.83 9.68l-55.04 55.05-7.13 7.13-1.25 1.24-20.6 20.61-.38.37-.14.15-8.23 8.23-11.98 11.97-113.5-113.51 15.39-15.38 20.5-20.51 77.61-77.61 11.98 11.97 20.97-20.97-32.95-32.95-155.45 155.45 155.45 155.46 32.95-32.95 8.18-8.17.2-.21.37-.37 20.61-20.6 1.24-1.25 7.13-7.13 39.77-39.76 21.89-21.89v-24.05h22.2z" fill="#f67500" fill-rule="evenodd"/><path d="m174.6 134.76h42.23v42.23h-42.23z" fill="#f67500"/><path d="m215.85 23.36-19.07 18.44-20.98 20.98-8.37 8.38-48.89 48.88-3.44 3.44-8.66 8.67-22.87 22.86h.63z" fill="#444"/><path d="m374.55 135.34-113.97-113.97-20.98-20.98-.39-.39-23.36 23.36-131.65 131.65h21.99v11.65h.25v12.32l60.2 60.2 21.85-21.85-54.47-54.47v-13.97l105.19-105.19 112.17 112.18-112.17 112.17-13.41-13.41-21.85 21.85 1.58 1.58 33.45 33.45.23.23 131.54-131.54 24.34-24.33z" fill="#444"/><path d="m528.03 237.26c0 17.49-11.74 28.65-27.91 28.65s-29.39-12.23-29.39-29.88 13.05-29.72 29.39-29.72c9.03 0 17.32 3.45 22.41 9.61l-3.61 3.45c-4.43-5.5-11.25-8.29-18.8-8.29-14.28 0-24.22 10.34-24.22 24.96s9.85 25.12 24.22 25.12c12.15 0 21.51-7.47 22.58-21.26h-22.17v-4.68h27.42c.08.57.08.82.08 2.05z"/><path d="m565.38 223.63-1.56 4.35c-1.48-.57-3.12-.9-4.84-.9-7.31 0-13.71 5.5-13.71 14.28v23.48h-4.52v-41.05h3.94l.41 7.88c2.71-5.5 8.05-8.95 14.53-8.95 2.05 0 4.02.33 5.75.9z"/><path d="m609.72 223.8v41.05h-4.02l-.33-7.22c-2.54 5.09-7.63 8.29-14.04 8.29-9.19 0-16.34-6.49-16.34-16.99v-25.12h4.52v25.12c0 7.96 5.58 12.64 12.64 12.64s12.97-5.09 13.05-13.22v-24.55z"/><path d="m665.38 244.4c0 12.72-8.95 21.51-20.52 21.51-7.06 0-12.72-3.28-15.76-8.78v28.24h-4.52v-61.57h3.94l.41 8.54c2.96-5.91 8.78-9.6 16.09-9.6 11.33 0 20.36 8.87 20.36 21.67zm-4.76-.08c0-10.18-6.57-17.24-15.93-17.24s-15.93 7.06-15.93 17.24 6.49 17.24 15.93 17.24 15.93-7.06 15.93-17.24z"/><path d="m674.66 244.32c0-12.72 8.87-21.59 20.93-21.59s20.93 8.87 20.93 21.59-8.87 21.59-20.93 21.59-20.93-8.87-20.93-21.59zm37.1 0c0-10.18-6.57-17.24-16.17-17.24s-16.17 7.06-16.17 17.24 6.57 17.24 16.17 17.24 16.17-7.06 16.17-17.24z"/><path d="m756.51 264.84h-4.93v-57.47h4.93z"/><path d="m808.39 239.72v25.12h-4.52v-24.63c0-7.8-4.93-13.14-12.48-13.14s-13.79 5.01-13.79 13.22v24.55h-4.52v-41.05h3.94l.33 7.22c2.71-5.09 8.05-8.29 14.53-8.29 9.36 0 16.5 6.49 16.5 16.99z"/><path d="m887.37 239.72v25.12h-4.52v-24.63c0-8.13-4.68-13.14-11.99-13.14-6.9 0-12.56 4.52-13.22 11.9v25.86h-4.6v-24.63c0-8.13-4.68-13.14-11.9-13.14s-13.38 5.09-13.38 13.22v24.55h-4.52v-41.05h3.94l.33 7.31c2.71-5.17 7.88-8.37 14.2-8.37 6.65 0 12.07 3.45 14.53 9.44 2.54-5.83 8.29-9.44 15.19-9.44 9.19 0 15.93 6.49 15.93 16.99z"/><path d="m899.28 244.32c0-12.72 8.87-21.59 20.93-21.59s20.93 8.87 20.93 21.59-8.87 21.59-20.93 21.59-20.93-8.87-20.93-21.59zm37.1 0c0-10.18-6.57-17.24-16.17-17.24s-16.17 7.06-16.17 17.24 6.57 17.24 16.17 17.24 16.17-7.06 16.17-17.24z"/><path d="m994.26 244.24c0 12.81-9.03 21.67-20.36 21.67-7.31 0-13.14-3.69-16.09-9.61l-.41 8.54h-3.94v-61.57h4.52v28.24c3.04-5.5 8.7-8.78 15.76-8.78 11.58 0 20.52 8.78 20.52 21.51zm-4.84.08c0-10.18-6.49-17.24-15.84-17.24s-16.01 7.06-16.01 17.24 6.57 17.24 16.01 17.24 15.84-7.06 15.84-17.24z"/><path d="m1005.68 212.3c0-1.89 1.56-3.45 3.45-3.45s3.45 1.56 3.45 3.45-1.64 3.45-3.45 3.45-3.45-1.56-3.45-3.45zm5.66 52.54h-4.52v-41.05h4.52z"/><path d="m1027.84 203.27h4.52v61.57h-4.52z"/><path d="m1047.63 212.3c0-1.89 1.56-3.45 3.45-3.45s3.45 1.56 3.45 3.45-1.64 3.45-3.45 3.45-3.45-1.56-3.45-3.45zm5.66 52.54h-4.52v-41.05h4.52z"/><path d="m1103.04 239.72v25.12h-3.94l-.41-7.47c-3.45 5.58-10.26 8.54-16.34 8.54-7.39 0-14.28-4.35-14.28-12.81 0-9.11 8.13-12.81 16.83-12.81 4.1 0 9.11.66 13.63 2.13v-2.71c0-8.37-4.27-12.64-12.23-12.64-4.93 0-10.26 1.64-14.04 4.84l-2.13-3.53c3.86-3.28 9.93-5.66 16.67-5.66 10.26 0 16.25 5.5 16.25 16.99zm-4.51 8.95v-2.22c-4.1-1.48-8.78-2.22-13.05-2.22-7.06 0-12.64 2.55-12.64 8.78 0 5.25 4.1 8.46 10.18 8.46 7.96 0 15.52-5.34 15.52-12.81z"/><path d="m1142.78 223.63-1.56 4.35c-1.48-.57-3.12-.9-4.84-.9-7.31 0-13.71 5.5-13.71 14.28v23.48h-4.52v-41.05h3.94l.41 7.88c2.71-5.5 8.05-8.95 14.53-8.95 2.05 0 4.02.33 5.75.9z"/><path d="m1152.79 212.3c0-1.89 1.56-3.45 3.45-3.45s3.45 1.56 3.45 3.45-1.64 3.45-3.45 3.45-3.45-1.56-3.45-3.45zm5.67 52.54h-4.52v-41.05h4.52z"/><path d="m1171.18 244.32c0-12.72 8.87-21.59 20.93-21.59s20.93 8.87 20.93 21.59-8.87 21.59-20.93 21.59-20.93-8.87-20.93-21.59zm37.11 0c0-10.18-6.57-17.24-16.17-17.24s-16.17 7.06-16.17 17.24 6.57 17.24 16.17 17.24 16.17-7.06 16.17-17.24z"/></svg>