<svg viewBox="0 0 881.9 222.41" xmlns="http://www.w3.org/2000/svg"><path d="m18.6 14.78c5.27-4.24 11.32-7.52 18.03-8.41 67.89-8.98 169.82-8.48 240.51 1.59 0 0 20.71 9.56 20.71 28.67v82.82s0 7.17-7.17 7.17h-23.09s-7.57-1.59-7.57-7.57v-79.23h-89.59v76.45s3.19 10.35-10.35 10.35h-23.09s-6.37-1.59-6.37-9.16v-77.64h-89.21v79.64s-1.59 7.96-7.96 7.96h-25.49s-7.96 0-7.96-7.96v-73.96c0-4.22 1.08-8.36 3.16-12.03 2.97-5.24 8.06-12.76 15.44-18.7z" fill="#ff0001"/><path d="m322.81 1.59c-2.8 0-5.06 2.27-5.06 5.06v115.19s0 3.19 3.19 3.19h23.89s5.57 0 5.57-5.57v-43.28c0-2.48 2.03-4.51 4.51-4.51h6.66c.69 0 1.72.33 2.28.73l73.35 55.06h47.24c1.22 0 1.73-1.55.76-2.28l-79.32-59.1c-1.07-.8-1.08-2.39-.03-3.21l39.58-30.79c.86-.67 1.92-1.04 3.02-1.04h70.05c1.72 0 3.12 1.4 3.12 3.12v86.16c0 3.94 3.19 7.13 7.13 7.13h19.19c3.94 0 7.13-3.19 7.13-7.13v-84.61c0-1.69 1.37-3.06 3.06-3.06h60.65l47.79-31.85h-225.8c-1.27 0-2.51.42-3.52 1.18l-56.35 42.83c-1.18.9-2.62 1.38-4.1 1.38h-24.8v-39.54c0-2.8-2.27-5.06-5.06-5.06h-24.12z" fill="#ff0001"/><g fill="#004796"><path d="m625.74 70.48c1.77 0 3.25.3 4.43.89s2.11 1.38 2.81 2.36c.69.98 1.18 2.09 1.48 3.32s.44 2.49.44 3.77c-1.08-.3-1.87-.44-2.36-.44-2.26 0-4.63.42-7.09 1.25-2.46.84-4.72 1.95-6.79 3.32-2.26 1.48-4.13 3.15-5.61 5.02s-2.21 3.64-2.21 5.32c0 .79.61 1.92 1.85 3.39 1.23 1.48 2.78 3.1 4.65 4.87 2.16 2.07 4.45 4.16 6.86 6.28s4.45 4.01 6.13 5.68c-3.05 2.46-6.15 4.45-9.3 5.98s-6.11 2.73-8.86 3.62c-2.26.79-4.35 1.33-6.27 1.62s-3.42.44-4.5.44c-1.77 0-3.17-.76-4.21-2.29-1.03-1.53-1.55-3.13-1.55-4.8 0-2.26.35-3.91 1.03-4.95.69-1.03 1.58-1.7 2.66-1.99-.1.4-.15.94-.15 1.62 0 1.08.49 1.62 1.48 1.62 1.38 0 2.81-.05 4.28-.15 1.48-.1 2.9-.34 4.28-.74 2.56-.59 5.26-1.62 8.12-3.1-1.67-.79-3.15-1.75-4.43-2.88s-2.41-2.34-3.39-3.62c-2.76-3.64-4.13-7.87-4.13-12.7 0-3.05.81-6.05 2.44-9.01 1.62-2.95 3.62-5.56 5.98-7.82 1.97-1.77 3.96-3.2 5.98-4.28s4.01-1.62 5.98-1.62z"/><path d="m646.27 120.38c-5.71 0-9.89-2.16-12.55-6.5-1.87-2.95-2.81-6.54-2.81-10.78 0-3.05.74-6.57 2.21-10.56 1.48-3.99 3.44-7.75 5.91-11.29 2.26-3.25 4.75-6 7.46-8.27 2.71-2.26 5.48-3.4 8.34-3.4 2.56 0 4.89.47 7.01 1.4 2.12.94 4.01 2.24 5.68 3.91 1.87 1.97 3.32 4.23 4.35 6.79s1.55 5.37 1.55 8.42c0 3.54-.66 6.96-1.99 10.26s-3.08 6.27-5.24 8.93c-2.76 3.35-5.91 6.03-9.45 8.05s-7.04 3.03-10.48 3.03zm-2.96-10.78c3.34 0 6.4-.69 9.15-2.07s5.12-3.05 7.09-5.02c2.26-2.26 3.96-4.67 5.09-7.23s1.7-4.87 1.7-6.94c0-1.18-.2-2.31-.59-3.39s-1.03-2.02-1.92-2.81c-1.38-1.18-3.3-1.77-5.76-1.77-1.97 0-3.94.62-5.91 1.84-1.97 1.23-3.79 2.83-5.46 4.8-1.38 1.48-2.66 3.1-3.84 4.87s-2.19 3.52-3.03 5.24-1.5 3.32-1.99 4.8-.74 2.71-.74 3.69c0 1.18.39 2.12 1.18 2.81.98.79 2.66 1.18 5.02 1.18z"/><path d="m693.66 106.65c0 4.82-.76 8.42-2.29 10.78s-3.37 3.54-5.54 3.54c-2.95 0-4.95-1.01-5.98-3.03s-1.55-5.09-1.55-9.23c0-2.46.32-6 .96-10.63s1.94-10.92 3.91-18.9c1.18-4.72 2.63-9.69 4.35-14.91s3.42-10.68 5.09-16.39c1.08-3.74 2.11-7.58 3.1-11.52.98-3.94 1.87-7.92 2.66-11.96.98 2.26 1.75 4.48 2.29 6.64.54 2.17.81 4.33.81 6.5 0 3.54-.54 7.6-1.62 12.18s-2.66 10.36-4.72 17.35c-2.86 9.75-5.02 18.46-6.5 26.13-1.48 7.68-2.21 13.49-2.21 17.42.2 1.18.69 1.77 1.48 1.77.69 0 1.33-.22 1.92-.66s1.13-.98 1.62-1.62.91-1.28 1.26-1.92c.34-.64.66-1.16.96-1.55z"/><path d="m706.65 69.74c.49.49.96 1.25 1.4 2.29.44 1.03.66 2.34.66 3.91 0 .79-.1 1.53-.3 2.21-.2.69-.39 1.38-.59 2.07-.69 1.87-1.38 3.82-2.07 5.83-.69 2.02-1.33 4.11-1.92 6.28-.79 2.76-1.45 5.49-1.99 8.19-.54 2.71-.81 5.19-.81 7.46 0 .79.25 1.65.74 2.58.49.94 1.38 1.6 2.66 1.99 3.15-2.66 5.61-5.98 7.38-9.97s3.15-8.09 4.13-12.33c.79-3.25 1.33-6.4 1.62-9.45.3-3.05.54-5.71.74-7.97 1.48-.3 2.95-.44 4.43-.44 1.08 0 2.36.15 3.84.44-.49 2.76-1.03 5.71-1.63 8.86-.59 3.15-1.11 6.3-1.55 9.45s-.81 6.2-1.11 9.15-.44 5.61-.44 7.97c0 1.08.15 2.21.44 3.4.3 1.18.89 2.36 1.77 3.54 1.57 2.16 4.08 3.93 7.53 5.31-2.95 2.16-5.91 3.25-8.86 3.25-1.87 0-3.45-1.03-4.72-3.1-.79-1.18-1.4-2.71-1.85-4.58-.44-1.87-.71-4.18-.81-6.94-1.68 2.66-3.08 4.72-4.21 6.2s-2.14 2.58-3.03 3.32c-.88.74-1.75 1.18-2.58 1.33-.84.15-1.75.22-2.73.22-1.87 0-3.42-.39-4.65-1.18s-2.19-1.84-2.88-3.17-1.18-2.88-1.48-4.65-.44-3.59-.44-5.46c0-1.48.27-3.74.81-6.79s1.4-6.4 2.58-10.04c1.08-3.44 2.44-6.86 4.06-10.26 1.62-3.39 3.57-6.37 5.83-8.93z"/><path d="m750.94 69.89c1.67 0 3.67.54 5.98 1.62s5.34 3.2 9.08 6.35c-3.84.3-7.06.62-9.67.96-2.61.35-4.9.66-6.86.96-1.97.3-3.74.59-5.32.88-1.58.3-3.25.54-5.02.74-.89 3.45-2.02 7.01-3.4 10.7s-2.07 7.75-2.07 12.18c0 .79.05 1.58.15 2.36.1.79.34 1.53.74 2.21.69 1.18 1.57 1.77 2.66 1.77.79 0 1.62-.42 2.51-1.26.88-.83 1.77-1.89 2.66-3.17 1.28-1.97 2.39-4.16 3.32-6.57s1.4-4.55 1.4-6.42c0-1.38-.12-2.68-.37-3.91s-.71-2.63-1.4-4.21c3.54 2.36 5.32 5.91 5.32 10.63 0 2.27-.3 4.6-.89 7.01s-1.43 4.75-2.51 7.01c-1.48 3.05-3.35 5.61-5.61 7.68-2.27 2.07-4.68 3.1-7.24 3.1-1.38 0-2.66-.27-3.84-.81s-2.17-1.45-2.95-2.73c-.69-1.08-1.23-2.36-1.62-3.84s-.59-3.25-.59-5.31c0-5.02.49-9.92 1.48-14.69.98-4.77 2.21-8.88 3.69-12.33-1.18-.3-2.39-.69-3.62-1.18s-2.36-1.23-3.39-2.21-1.87-2.21-2.51-3.69-.96-3.3-.96-5.46c1.77.59 4.06 1.13 6.86 1.62 2.81.49 5.14.74 7.01.74 2.56-5.51 4.9-10.75 7.01-15.72s3.81-10.31 5.09-16.02c1.57 3.05 2.36 6.05 2.36 9.01 0 4.04-.62 8.02-1.85 11.96s-2.58 7.48-4.06 10.63c1.28 0 2.63-.1 4.06-.3s2.88-.3 4.35-.3z"/><path d="m773.09 98.83c.39.98.64 1.7.74 2.14s.15.91.15 1.4c0 3.35-1.08 6.89-3.25 10.63-1.08 1.67-2.34 3.2-3.77 4.58s-3.13 2.41-5.09 3.1c-1.48 0-2.73-.42-3.76-1.25-1.03-.84-1.92-1.97-2.66-3.4s-1.28-3.07-1.62-4.95c-.35-1.87-.52-3.79-.52-5.76 0-3.15.37-6.25 1.11-9.3s1.7-6.05 2.88-9.01c1.28-2.95 2.73-5.86 4.36-8.71 1.62-2.85 3.27-5.61 4.95-8.27.89.2 1.87.67 2.95 1.4 1.08.74 2.26 1.94 3.54 3.62-2.17 3.84-3.96 7.41-5.39 10.7-1.43 3.3-2.54 6.33-3.32 9.08-.98 3.35-1.62 6.2-1.92 8.56s-.44 4.23-.44 5.61c0 1.18.3 1.77.89 1.77.98 0 1.97-.34 2.95-1.03s1.92-1.57 2.81-2.66c.98-1.18 1.84-2.51 2.58-3.99s1.35-2.9 1.84-4.28zm-1.18-33.22c-1.38-.49-2.34-1.65-2.88-3.47s-.81-3.96-.81-6.42.15-4.5.44-6.13c.29-1.62.69-3.1 1.18-4.43s1.06-2.68 1.7-4.06 1.3-3.05 1.99-5.02c1.97 0 3.47.91 4.5 2.73s1.55 3.72 1.55 5.68-.32 3.82-.96 5.54-1.38 3.42-2.21 5.09c-.84 1.68-1.68 3.35-2.51 5.02-.84 1.67-1.5 3.49-1.99 5.46z"/><path d="m787.26 120.38c-5.71 0-9.89-2.16-12.55-6.5-1.87-2.95-2.81-6.54-2.81-10.78 0-3.05.74-6.57 2.21-10.56 1.48-3.99 3.44-7.75 5.91-11.29 2.26-3.25 4.75-6 7.46-8.27 2.71-2.26 5.48-3.4 8.34-3.4 2.56 0 4.89.47 7.01 1.4 2.12.94 4.01 2.24 5.68 3.91 1.87 1.97 3.32 4.23 4.35 6.79s1.55 5.37 1.55 8.42c0 3.54-.66 6.96-1.99 10.26s-3.08 6.27-5.24 8.93c-2.76 3.35-5.91 6.03-9.45 8.05s-7.04 3.03-10.48 3.03zm-2.95-10.78c3.34 0 6.4-.69 9.15-2.07s5.12-3.05 7.09-5.02c2.26-2.26 3.96-4.67 5.09-7.23s1.7-4.87 1.7-6.94c0-1.18-.2-2.31-.59-3.39s-1.03-2.02-1.92-2.81c-1.38-1.18-3.3-1.77-5.76-1.77-1.97 0-3.94.62-5.91 1.84-1.97 1.23-3.79 2.83-5.46 4.8-1.38 1.48-2.66 3.1-3.84 4.87s-2.19 3.52-3.03 5.24-1.5 3.32-1.99 4.8-.74 2.71-.74 3.69c0 1.18.39 2.12 1.18 2.81.98.79 2.66 1.18 5.02 1.18z"/><path d="m839.67 70.48c2.1 0 3.76.69 4.96 2.07s2.03 3.27 2.48 5.68.68 5.09.68 8.05-.15 6.15-.45 9.3-.85 6.3-1.65 9.45c-.7 2.66-1.55 5.27-2.56 7.82-1 2.56-2.2 4.97-3.61 7.24-.88-.4-1.9-1.23-3.03-2.51s-2.09-2.71-2.88-4.28c.79-2.56 1.52-4.95 2.21-7.16s1.28-4.45 1.77-6.72c.59-2.66 1.06-5.49 1.4-8.49s.52-6.37.52-10.11c0-1.28-.39-1.92-1.17-1.92-.68 0-1.44.27-2.26.81-.83.54-1.63 1.26-2.41 2.14-.78.89-1.53 1.85-2.26 2.88s-1.29 2.04-1.68 3.03c-.49 1.18-.97 2.34-1.46 3.47s-.97 2.54-1.46 4.21c-.4 1.18-.79 2.56-1.18 4.13-.39 1.58-.84 3.42-1.33 5.54s-1.06 4.6-1.7 7.46-1.4 6.2-2.29 10.04c-.98-.1-2.12-.52-3.4-1.25-1.28-.74-2.61-1.8-3.99-3.17.3-2.26.81-5.04 1.55-8.34s1.52-6.74 2.36-10.33c.83-3.59 1.55-7.14 2.14-10.63s.88-6.62.88-9.38c0-1.67-.71-3.89-2.14-6.64s-3.86-5.17-7.31-7.23c6.2.59 10.36 2.14 12.48 4.65 2.11 2.51 3.17 5.83 3.17 9.97 1.65-3.34 3.48-5.81 5.48-7.38s4.7-2.36 8.11-2.36z"/><path d="m872.74 70.48c1.77 0 3.25.3 4.43.89s2.11 1.38 2.81 2.36c.69.98 1.18 2.09 1.48 3.32s.44 2.49.44 3.77c-1.08-.3-1.87-.44-2.36-.44-2.26 0-4.63.42-7.09 1.25-2.46.84-4.72 1.95-6.79 3.32-2.26 1.48-4.13 3.15-5.61 5.02s-2.21 3.64-2.21 5.32c0 .79.61 1.92 1.85 3.39 1.23 1.48 2.78 3.1 4.65 4.87 2.16 2.07 4.45 4.16 6.86 6.28s4.45 4.01 6.13 5.68c-3.05 2.46-6.15 4.45-9.3 5.98s-6.11 2.73-8.86 3.62c-2.26.79-4.35 1.33-6.27 1.62s-3.42.44-4.5.44c-1.77 0-3.17-.76-4.21-2.29-1.03-1.53-1.55-3.13-1.55-4.8 0-2.26.35-3.91 1.03-4.95.69-1.03 1.58-1.7 2.66-1.99-.1.4-.15.94-.15 1.62 0 1.08.49 1.62 1.48 1.62 1.38 0 2.81-.05 4.28-.15 1.48-.1 2.9-.34 4.28-.74 2.56-.59 5.26-1.62 8.12-3.1-1.67-.79-3.15-1.75-4.43-2.88s-2.41-2.34-3.39-3.62c-2.76-3.64-4.13-7.87-4.13-12.7 0-3.05.81-6.05 2.44-9.01 1.62-2.95 3.62-5.56 5.98-7.82 1.97-1.77 3.96-3.2 5.98-4.28s4.01-1.62 5.98-1.62z"/></g><g fill="#717171"><path d="m271.4 200.01-3.28 9.71h-8.93l14.27-42.03h11.42l14.89 42.03h-9.55l-3.46-9.71zm13.4-7.45c-2.98-8.87-4.89-14.54-5.9-18.32h-.06c-1.04 4.14-3.14 10.74-5.53 18.32z"/><path d="m333.16 205.87c0 10.13-3.74 16.54-15.69 16.54s-13.79-6.44-14.1-10h8.91c.61 2.17 2.21 3.64 5.58 3.64 5.67 0 6.74-3.46 6.74-9.64v-1.51c-1.65 2.73-4.26 4.43-8.89 4.43-8.31 0-13.05-6.81-13.05-15.29 0-9.87 5.91-16.62 13.8-16.62 5.41 0 7.67 2.55 8.14 4.02.06-.86.28-2.77.34-3.29h8.29c-.05 2.82-.07 6.02-.07 9.06zm-21.54-12.21c0 5.43 2.71 8.63 6.58 8.63 5.26 0 6.66-3.61 6.66-8.91s-.94-8.96-6.48-8.96c-3.79 0-6.76 2.92-6.76 9.23z"/><path d="m348.1 195.81c0 3.95 1.99 7.81 6.34 7.81 3.64 0 4.68-1.46 5.51-3.37h8.74c-1.12 3.86-4.56 10.21-14.48 10.21s-14.9-7.77-14.9-16.05c0-9.9 5.08-16.97 15.22-16.97 10.84 0 14.52 7.84 14.52 15.72 0 1.07 0 1.76-.11 2.66h-20.83zm12.19-5.37c-.06-3.67-1.53-6.77-5.79-6.77s-5.87 2.89-6.22 6.77z"/><path d="m375.22 186.11c0-2.68 0-5.62-.06-7.95h8.46c.18.82.29 3.01.34 4.02 1.07-1.98 3.63-4.75 9.15-4.75 6.34 0 10.46 4.28 10.46 12.21v20.08h-8.74v-19.11c0-3.55-1.18-6.12-5.04-6.12s-5.84 2.06-5.84 7.64v17.59h-8.74v-23.61z"/><path d="m438.65 199.52c-1.09 5.26-4.79 10.93-14.19 10.93s-14.87-6.8-14.87-16.28 5.68-16.74 15.29-16.74c10.64 0 13.6 7.63 13.77 11.2h-8.53c-.54-2.57-2-4.37-5.41-4.37-3.99 0-6.26 3.5-6.26 9.62 0 6.72 2.39 9.78 6.22 9.78 3 0 4.61-1.77 5.39-4.14h8.58z"/><path d="m444.31 165.21h8.74v7.79h-8.74zm0 12.95h8.74v31.56h-8.74z"/><path d="m486.82 201.56c0 3.01.24 7.39.43 8.15h-8.35c-.24-.62-.43-2.29-.44-3.08-1.14 1.77-3.29 3.82-8.87 3.82-7.61 0-10.82-5-10.82-9.9 0-7.19 5.77-10.51 15.03-10.51h4.5v-1.93c0-2.24-.81-4.45-4.86-4.45-3.69 0-4.5 1.57-4.9 3.85h-8.31c.47-5.61 3.94-10.15 13.54-10.09 8.45.05 13.05 3.36 13.05 10.87zm-8.51-6.21h-3.56c-5.26 0-7.22 1.61-7.22 4.65 0 2.28 1.4 4.21 4.54 4.21 5.55 0 6.23-3.86 6.23-8.03v-.83z"/><path d="m538.44 165.21v35.83c0 2.87 0 5.78.06 8.67h-8.4c-.17-.95-.34-2.58-.4-3.3-1.52 2.49-4.24 4.03-8.95 4.03-7.98 0-13.06-6.41-13.06-16.25s5.4-16.77 14.33-16.77c4.54 0 6.98 1.6 7.68 3.02v-15.23zm-21.77 28.76c0 6.15 2.4 9.48 6.67 9.48 6.01 0 6.7-5.01 6.7-9.55 0-5.4-.76-9.48-6.47-9.48-4.59 0-6.9 3.58-6.9 9.54z"/><path d="m553.14 195.81c0 3.95 1.99 7.81 6.34 7.81 3.64 0 4.68-1.46 5.51-3.37h8.74c-1.12 3.86-4.56 10.21-14.48 10.21s-14.9-7.77-14.9-16.05c0-9.9 5.08-16.97 15.22-16.97 10.84 0 14.52 7.84 14.52 15.72 0 1.07 0 1.76-.11 2.66h-20.83zm12.19-5.37c-.06-3.67-1.53-6.77-5.79-6.77s-5.87 2.89-6.22 6.77z"/><path d="m630.55 193.95c0-7.17.11-15.21.3-19.96h-.29c-1.98 8.58-6.18 22.58-10.21 35.73h-7.74c-3.06-11.5-7.41-27.45-9.25-35.85h-.28c.36 4.93.53 13.58.53 20.79v15.06h-8.28v-42.03h13.53c3.28 10.98 6.95 24.76 8.21 31.03h.07c1.03-5.53 5.65-20.25 9.15-31.03h13.04v42.03h-8.77v-15.77z"/><path d="m673.27 201.56c0 3.01.24 7.39.43 8.15h-8.35c-.24-.62-.43-2.29-.44-3.08-1.14 1.77-3.29 3.82-8.87 3.82-7.61 0-10.82-5-10.82-9.9 0-7.19 5.77-10.51 15.03-10.51h4.5v-1.93c0-2.24-.81-4.45-4.86-4.45-3.69 0-4.5 1.57-4.9 3.85h-8.31c.47-5.61 3.94-10.15 13.54-10.09 8.45.05 13.05 3.36 13.05 10.87zm-8.52-6.21h-3.56c-5.26 0-7.22 1.61-7.22 4.65 0 2.28 1.4 4.21 4.54 4.21 5.55 0 6.23-3.86 6.23-8.03v-.83z"/><path d="m681.18 186.72c0-3.14 0-5.92-.06-8.56h8.57c.11.71.23 3.84.23 5.54 1.39-3.61 4.76-6.24 10.12-6.27v8.34c-6.34-.16-10.12 1.54-10.12 10.19v13.76h-8.74z"/><path d="m713.7 191.47c2.32-3.15 6.51-8.05 10.86-13.32h10.02l-11 11.92 12.04 19.64h-9.9l-7.98-14.04-4.04 3.91v10.13h-8.74v-44.5h8.74z"/><path d="m745.08 195.81c0 3.95 1.99 7.81 6.34 7.81 3.64 0 4.68-1.46 5.51-3.37h8.74c-1.12 3.86-4.56 10.21-14.48 10.21s-14.9-7.77-14.9-16.05c0-9.9 5.08-16.97 15.22-16.97 10.84 0 14.52 7.84 14.52 15.72 0 1.07 0 1.76-.11 2.66h-20.83zm12.19-5.37c-.06-3.67-1.53-6.77-5.79-6.77s-5.87 2.89-6.22 6.77z"/><path d="m768.96 178.16h4.86v-8.54h8.74v8.54h6.18v6.57h-6.18v15.57c0 2.4.73 3.33 3.34 3.33.48 0 1.34 0 1.99-.1v6.01c-1.73.59-4.11.6-5.87.6-6.15 0-8.19-3.29-8.19-8.81v-16.6h-4.86v-6.57z"/><path d="m793.61 165.21h8.74v7.79h-8.74zm0 12.95h8.74v31.56h-8.74z"/><path d="m810.25 186.11c0-2.68 0-5.62-.06-7.95h8.46c.18.82.29 3.01.34 4.02 1.07-1.98 3.63-4.75 9.15-4.75 6.34 0 10.46 4.28 10.46 12.21v20.08h-8.74v-19.11c0-3.55-1.18-6.12-5.04-6.12s-5.84 2.06-5.84 7.64v17.59h-8.74v-23.61z"/><path d="m875.06 205.87c0 10.13-3.74 16.54-15.69 16.54s-13.79-6.44-14.1-10h8.91c.61 2.17 2.21 3.64 5.58 3.64 5.67 0 6.74-3.46 6.74-9.64v-1.51c-1.65 2.73-4.26 4.43-8.89 4.43-8.31 0-13.05-6.81-13.05-15.29 0-9.87 5.91-16.62 13.8-16.62 5.41 0 7.67 2.55 8.14 4.02.06-.86.28-2.77.34-3.29h8.29c-.05 2.82-.07 6.02-.07 9.06zm-21.53-12.21c0 5.43 2.71 8.63 6.58 8.63 5.26 0 6.66-3.61 6.66-8.91s-.94-8.96-6.48-8.96c-3.79 0-6.76 2.92-6.76 9.23z"/></g></svg>