<svg viewBox="0 0 1122.24 495.07" xmlns="http://www.w3.org/2000/svg"><g fill-rule="evenodd"><path d="m170.37 0c47.51 0 90.5 22.18 121.39 57.97-19.42 25.91-33.41 57.27-39.95 91.78-14.55-34.57-45.56-58.44-81.45-58.44-49.86 0-90.28 46.07-90.28 102.91s40.41 102.91 90.28 102.91 88.29-43.85 90.2-98.76c-.04-1.39-.06-2.76-.06-4.16.02-107.25 76.3-194.21 170.39-194.21s168.29 84.63 170.32 189.87l.06.08v197.36c-52.66-.21-80.4-47.72-79.83-90.99v-80.37l-.15-21.75c0-55.91-39.76-101.24-88.79-101.24s-88.81 45.33-88.81 101.24 39.76 101.24 88.81 101.24c32.02 0 60.08-19.35 75.7-48.32v49.19c-.3 22.74 5.86 43.33 16.43 60.05-26.87 20.25-59.1 32.04-93.73 32.04-52.25 0-99.01-26.82-130.26-69.06-31.25 42.24-78.01 69.06-130.26 69.06-32.43 0-62.74-10.34-88.55-28.28v43.9c.54 43.29-29.17 90.8-81.82 91.01v-305.09l.06.04c1.98-105.31 77.47-189.98 170.3-189.98" fill="#ed2b2b"/><path d="m951.87 0c94.09 0 170.37 86.96 170.37 194.22s-76.29 194.22-170.37 194.22c-47.29 0-90.05-21.98-120.93-57.44 19.42-25.72 33.47-56.84 40.13-91.16 14.74 33.87 45.39 57.14 80.79 57.14 49.79 0 90.14-46.01 90.14-102.76s-40.36-102.78-90.14-102.78-88.6 44.29-90.09 99.55l.02 3.23c0 .99-.02 1.97-.04 2.98.04 1.56.11 3.1.21 4.67h-.32c-3.51 103.7-78.39 186.57-170.22 186.57s-170.35-86.96-170.35-194.22 76.02-193.92 169.9-194.19v91.44c-49.58.28-89.69 46.2-89.69 102.76s40.36 102.76 90.14 102.76 88.62-44.29 90.11-99.55l-.02-3.21c0-107.27 76.27-194.23 170.36-194.23" fill="#bbb"/><path d="m321.66 475.88c-2.63 0-4.98-.51-7.06-1.56-2.08-1-3.83-2.41-5.26-4.17-1.43-1.78-2.52-3.86-3.27-6.21-.77-2.36-1.15-4.88-1.15-7.56v-.1c0-2.57.39-5.05 1.16-7.41.77-2.35 1.9-4.45 3.32-6.25 1.45-1.82 3.17-3.25 5.2-4.32 2.05-1.09 4.28-1.63 6.76-1.63 1.35 0 2.61.1 3.72.3 1.13.24 2.18.55 3.16.98.96.45 1.88.97 2.74 1.58.88.62 1.73 1.31 2.55 2.1l-1.62 2.12c-1.3-1.3-2.78-2.39-4.45-3.25-1.67-.88-3.74-1.29-6.25-1.29-2.03 0-3.87.43-5.56 1.33-1.67.92-3.14 2.14-4.36 3.68-1.2 1.56-2.16 3.36-2.82 5.41-.68 2.05-1 4.22-1 6.51v.1c0 2.44.32 4.71.98 6.81.64 2.1 1.6 3.89 2.82 5.41 1.24 1.5 2.74 2.7 4.49 3.55 1.77.88 3.76 1.33 5.97 1.33 1.05 0 2.07-.13 3.1-.36 1.01-.26 1.97-.56 2.87-.95.9-.41 1.75-.86 2.54-1.37.79-.53 1.48-1.09 2.1-1.67v-10.83h-11.14v-2.57h13.5v14.6c-1.52 1.5-3.4 2.85-5.63 3.98-2.23 1.11-4.71 1.69-7.44 1.69m143.21-38.56h23.68v2.55h-21.2v15.01h19.06v2.53h-19.06v15.28h21.45v2.55h-23.93zm166.73 19.68c1.39 0 2.67-.21 3.87-.6 1.18-.41 2.2-.96 3.06-1.71s1.52-1.67 2.03-2.72c.49-1.07.73-2.31.73-3.66v-.13c0-2.57-.85-4.6-2.5-6.08-1.67-1.5-4.02-2.23-7.06-2.23h-11.36v17.13zm-13.69-19.68h13.95c2.07 0 3.89.34 5.48 1.01 1.58.66 2.87 1.56 3.89 2.74.79.9 1.43 1.95 1.86 3.15.45 1.22.68 2.51.68 3.9v.1c0 1.58-.26 3-.75 4.24-.49 1.26-1.16 2.32-2.05 3.21-.86.92-1.9 1.67-3.08 2.21-1.18.55-2.48.96-3.87 1.18l10.97 16.19h-3.14l-10.59-15.7h-10.89v15.7h-2.46v-37.92zm155.51 0h2.35l13.35 22.44 13.35-22.44h2.33v37.92h-2.48v-32.95l-13.16 21.86h-.17l-13.18-21.86v32.95h-2.39zm179.65-10.72 2.91 1.61-5.09 5.59h-1.99zm5.34 35.47-8.75-21.92-8.79 21.92-1.05 2.55-4.23 10.62h-2.57l15.51-38.2h2.37l15.49 38.2h-2.7l-4.23-10.62zm136.19-24.75h2.33l22.97 32.99v-32.99h2.37v37.92h-1.84l-23.46-33.7v33.7h-2.37z" fill="#676767"/></g></svg>