<?xml version="1.0" encoding="UTF-8"?>
<svg id="Capa_1" data-name="Capa 1" xmlns="http://www.w3.org/2000/svg" xmlns:xlink="http://www.w3.org/1999/xlink" version="1.1" viewBox="0 0 911.1 856">
  <defs>
    <style>
      .cls-1 {
        stroke: #9578a5;
        stroke-width: 2.3px;
      }

      .cls-1, .cls-2, .cls-3, .cls-4 {
        fill: none;
      }

      .cls-1, .cls-5, .cls-3, .cls-4 {
        stroke-miterlimit: 10;
      }

      .cls-6 {
        fill: #a79370;
      }

      .cls-6, .cls-7, .cls-8, .cls-2, .cls-9, .cls-10, .cls-11, .cls-12, .cls-13, .cls-14, .cls-15, .cls-16, .cls-17, .cls-18, .cls-19, .cls-20, .cls-21, .cls-22, .cls-23, .cls-24, .cls-25, .cls-26 {
        stroke-width: 0px;
      }

      .cls-7 {
        fill: #5a5b59;
      }

      .cls-27 {
        clip-path: url(#clippath);
      }

      .cls-8 {
        fill: #aabe74;
      }

      .cls-9 {
        fill: #1c1810;
      }

      .cls-5 {
        fill: #9d1d96;
        stroke: #9d1d96;
        stroke-width: .9px;
      }

      .cls-3 {
        stroke-width: 1.3px;
      }

      .cls-3, .cls-4 {
        stroke: #1c1810;
      }

      .cls-10 {
        fill: #000;
      }

      .cls-11 {
        fill: #697e39;
      }

      .cls-4 {
        stroke-width: .4px;
      }

      .cls-12 {
        fill: #91ae5a;
      }

      .cls-13 {
        fill: #fafaf9;
      }

      .cls-14 {
        fill: #c6c3b3;
      }

      .cls-15 {
        fill: url(#Degradado_sin_nombre);
      }

      .cls-16, .cls-26 {
        fill: #6d2981;
      }

      .cls-17 {
        fill: #000005;
      }

      .cls-18 {
        fill: #242623;
      }

      .cls-19 {
        fill: #9578a5;
      }

      .cls-20 {
        fill: #5f7e3d;
      }

      .cls-21 {
        fill: #7c983f;
      }

      .cls-22 {
        fill: #fff;
      }

      .cls-23 {
        fill: #f5f1de;
      }

      .cls-24 {
        fill: #465d2f;
      }

      .cls-25 {
        fill: #84a545;
      }

      .cls-26 {
        isolation: isolate;
        opacity: .4;
      }
    </style>
    <clipPath id="clippath">
      <path class="cls-2" d="M245.7,289.1c0,120.7,97.8,218.5,218.5,218.5s218.5-97.8,218.5-218.5-97.8-218.5-218.5-218.5-218.5,97.8-218.5,218.5"/>
    </clipPath>
    <linearGradient id="Degradado_sin_nombre" data-name="Degradado sin nombre" x1="5157.4" y1="154.5" x2="5161.2" y2="154.5" gradientTransform="translate(18425 599961.7) rotate(-90) scale(116.2 -116.2)" gradientUnits="userSpaceOnUse">
      <stop offset="0" stop-color="#fff"/>
      <stop offset=".5" stop-color="#fff"/>
      <stop offset=".7" stop-color="#eaf2f9"/>
      <stop offset="1" stop-color="#6499cf"/>
    </linearGradient>
  </defs>
  <path class="cls-26" d="M466.3,582.6c297.6-20.3,291.3-291.3,291.3-291.3C757.5,130.4,627.1,0,466.3,0S175,130.4,175,291.3s3.3,50.2,9.4,73.7c0,0-59.7,9.8-80.2,42.7,0,0-28.6,33.2-53.2,38.9,0,0-46.8-6.7-50.9,25.7,0,0-7.3,47.8,88.1,57.8,0,0-10.6,20-20.7,26.6,0,0-32.9,26.8-24.7,44.2,0,0,36,55.9,127.2-6.5,0,0,24.3-24.3,27.1-33.6,0,0-.7-14.8,7.2-17.3,0,0,7.5,15.3-9.4,25.5,0,0-19.2,18.3-18.7,25.4,0,0,2.3,8.6,6.6,13.9,0,0-16.6-8.2-50.6,21.1,0,0-42.2-18.7-50.4,25.3,0,0-10.9,53.3,19.1,54.5,0,0-10,9.4-23.6,5.1,0,0-65-6.4-60.4,59.4,0,0,40.4-19,36.8-13.4,0,0,6.8,22.8,47.7-3.5,0,0,16.5,84,109.3,24.5,0,0,84.7,16.1,76-78.1,0,0,4.7,2.3,7.4,0,0,0,17.2,79.7,99.4,46.4,0,0,.7,45.3,49.4,26.7l191.2-47.7s-3.7,11.4,0,18.5c0,0-43-9-58,18.7,0,0-5,29.5,41.8,23.2,0,0-29.6,33.2-8,50.9,0,0,33.8,8.1,44.7-36.8,0,0,16,33.6,41.4,18.6,0,0,18.9-12.8,0-40.9,0,0,27.7-6.8,22.5-30.4,0,0-8.7-21.6-35.8-10.8,0,0-9.7-21.8,0-24.4,4.2-1.1,121.9-26.9,121.9-26.9,0,0,24.1-7.8,20.9-26.9l-6.4-26.9s35.6-14.4,32.3-43.6c0,0-3.2-10.1,3.6-8.5,0,0,68.2-2.5,54.1-63.8,0,0-28.3,20.4-50.7,20,0,0-25.1-6.7-38.8,8.7,0,0-15.9-32.8-60.4-2.6,0,0-20.9-9.1-31.8,11.9,0,0-31-21.2-60.9,17.4,0,0-28.7-22.8-49.9,8.4,0,0-17.3-18.3-40.4,8.5,0,0-16.8-15.4-28.6,10.2,0,0-8.3-12-25.2,0,0,0-10-24.8-34.9-12.5,0,0-19.8,5.5-17.1,31.8,0,0-4.4-3.6-9,.9,0,0-19.3-19.1-41.3-1.8,0,0,9.4-32.9-22-43.5,0,0-39.1-23.8-75,21.7,0,0-5.5-7.4-13.2-4.6,0,0,20.4-18.2,15.5-32.4,0,0,14.1-3.4,14.5-15.9,0,0,26.9,26.5,123.4,37.7h2.9s0,0,0,0Z"/>
  <path class="cls-26" d="M682.8,739.6s-7.1-16.3-3.1-22.2c0,0,.4-1.6,3.1-2.2s2.6,19.8,2,23.6l-2,.8Z"/>
  <path class="cls-22" d="M746.7,291.3c0,154.9-125.6,280.4-280.5,280.4,0,0-81-5.5-135.1-38.8v6.2c5.5,11.6-14.7,21-14.7,21,12.6,14-41,56.8-41,56.8,41.7-38.8,45.7-3.8,45.7-3.8,36.8-60.3,76.8-28.7,76.8-28.7,30,18.9,10.9,50.7,10.9,50.7,29.1-29.1,50.6-7,50.6-7,16.6-4.3,22.1,7,22.1,7-14.7-30.3,6-40.7,6-40.7,26-9.9,31.2,18.8,31.2,18.8,22.3-22.2,31.1,0,31.1,0,5.5-34.2,28.2-15.3,28.2-15.3,20.5-28.3,38.8-6.8,38.8-6.8,28.7-36,49.8-4.9,49.8-4.9,35-49.8,65.1-17.4,65.1-17.4,5.8-29.2,27.6-14.2,27.6-14.2l12.5-9.7c39.4-16.4,45.8,14.7,45.8,14.7,10.1-19.4,40.9-14.7,40.9-14.7,28.3-2,46.8-17.7,46.8-17.7,4.2,41-46.8,50.5-46.8,50.5-14.8-9.7-15.6,8.5-15.6,8.5,5.8,28.9-34.4,45.4-34.4,45.4l7.4,26.5c4.2,20.1-19,24-19,24l-126.2,29.2c13.7,8.8,4.2,34.5,4.2,34.5,39.4-8.3,36.9,8.7,36.9,8.7,1.3,18.7-25.6,23.5-25.6,23.5,22.7,25.2,5.7,38.8,5.7,38.8-24.5,9.3-37-27-37-27-17.7,52.3-41.7,43-41.7,43-12.1-11.8,14.7-49.8,14.7-49.8-47.6,5.5-42.7-15.2-42.7-15.2,15.6-18.6,57.9-13.2,57.9-13.2-7.6-26,6.7-39.5,6.7-39.5l-214.6,54.4c-27.4,7.6-29.7-9.3-29.7-9.3l-6.6-25.5c-6.8,11.7-41.8,11.6-41.8,11.6-47.4-4-56.6-53-56.6-53-8.4,3.9-23.1-3.2-23.1-3.2v34.3c-11.7,57.8-68.5,49.1-68.5,49.1-92.5,55.6-103.1-31.2-103.1-31.2-28.1,28.9-44.9,17.8-44.9,17.8,10.3-19.9-36.4,5-36.4,5,1.2-43.5,54.6-41.9,54.6-41.9,14.9,2.8,40.8-21.6,40.8-21.6-40.5,13.2-29.6-43.8-29.6-43.8,7.4-40.2,45.5-18.3,45.5-18.3,11.1-24.7,56.6-26.7,56.6-26.7l-4.9-9c-13.8-18.3,4.9-28,4.9-28,34-17.9,12.3-41.3,12.3-41.3-14.4,10.6-14.1,25.9-14.1,25.9.3,9.8-20.2,25.4-20.2,25.4-66.1,47.3-109.4,18-109.4,18-19.4-15,8.5-34.7,8.5-34.7,21-11.2,36.4-47.8,36.4-47.8-64.9-1.3-90.5-36.2-90.5-36.2-12.1-31.4,35.2-28,35.2-28,27.5-2.3,60.5-44.2,60.5-44.2,56.9-43.7,90.3-30.4,90.3-30.4-9.9-28.7-15.3-59.5-15.3-91.5,0-154.9,125.6-280.5,280.5-280.5s280.5,125.6,280.5,280.5"/>
  <path class="cls-25" d="M316.7,442.9s-145.1-43.8-185.4,43.9c-28.3,61.6-44,96.2-54.4,96.4s-14.4,9.3-.4,16c14,6.6,81.8-1,103.8-45.9,21.9-44.9,127.6-63.7,136.4-110.4"/>
  <path class="cls-21" d="M270.3,490.1c-40.4,21.9-69.6,32-87.1,58.7-17.5,26.7-49.8,51.9-87.7,52s-25.5-16.3-24.8-15c0,0,46.8-7.7,67.2-37.7,20.4-30,50.9-67.5,107.6-84.1"/>
  <path class="cls-20" d="M205.9,483.1s-.6,3.2-3.4,28.5c-2,17.6-19.3,35.8-19.3,35.8,0,0,14.9-19.8,28.2-25.7"/>
  <path class="cls-20" d="M203.5,479.7c7,2.2-28.8,14-42.3,35.1-13.4,21.1-55.3,29.1-55.3,29.1l41.4-11.3s-12.1,28-32.2,38.6c-20.1,10.6-45.9,14.8-45.9,14.8,0,0,17.3-1.2,29.7-5.7,22-8.1,36.9-16.5,49.7-43.1,12.9-26.6,53.5-50.4,53.5-50.4"/>
  <path class="cls-11" d="M210,521.6s20.2,32.6,3.1,48.1-22.2,11.4-22.7,17.6,6.2,15,9.3,7.2,33.1-17.1,50.6-8.3c17.6,8.8,42.4-10.3,47-16s8.8-17,8.8-17c0,0-85.8-20.2-96.1-31.5"/>
  <path class="cls-25" d="M205.6,483.1s-9.3,76.7,68.2,76.7,49.3-12.7,41.9-28.7c-13.5-29,33.3-45.7,33.3-45.7,0,0-21.7-16.3-24.8-19.4-3.1-3.1-96.9,1.5-118.6,17"/>
  <path class="cls-12" d="M192.1,593.2s20.4-16.3,28.2-14.7c7.8,1.5,13.9,4.7,13.9,4.7,0,0-7.5-3.9-9.8-7-2.3-3.1,19.1-10.8,30,.8l10.9,11.6.3-.8s-16.5-17.6-15-23c1.6-5.4,10.8-4.9,10.8-4.9l-8.5-.8-38.8,7.8s42.6-8.5,18.6,1.5-40.6,24.8-40.6,24.8"/>
  <path class="cls-21" d="M278.7,483.9c-7.8,14.5-16,21.7-22.7,50.6s-6.7,22.7-6.7,22.7c0,0,23.3,5.7,41.3,1,18.1-4.7,27.4-10.3,26.4-21.2s-9.3-15-2.1-27.9c7.2-12.9,20.4-16.9,20.4-16.9l-26.5-19.3"/>
  <path class="cls-20" d="M324.2,466s-42.6-.8-54.3,20.9-64.3,9.3-64.3,9.3c0,0,29.2,9.6,41.6,7.2,12.4-2.3,23.8-11.9,23.8-11.9,0,0-16.5,30.2-31.3,31-14.7.8-29.7-1-29.7-1,0,0,22.8,5.3,27.9,4.7,30.5-4.1,27.9-18.6,27.9-18.6,0,0-8.3,5.2-18.3,49.9-.3,1.4,5.4,1.5,5.4,1.5,0,0,4.4-52.5,19.1-46.2s31.3,41.6,31.3,41.6c0,0-8.3-24.7-14.7-30.8-23.2-21.7,2.3-6.5,10.9.5,8.5,7,16.3,7,16.3,7,0,0-46-28.7-40.6-39.5,5.4-10.9,40.6-21.7,48.3-21.7h7.8l-7-3.9Z"/>
  <path class="cls-24" d="M316.4,479.4s-16.7,4.1-34.9,6.4c-18.2,2.3-46.4,1.7-57-.4-39.6-7.8-19-2.3-19-2.3l5.4-4.3s57.4-8.1,65.9-6.2c8.5,1.9,31.8.4,31.8.4l7.8,6.4h0Z"/>
  <path class="cls-12" d="M311.3,523.7s4.1,23.8-12.9,29.5c-17,5.7,18.6-6.2,12.9-29.5"/>
  <path class="cls-12" d="M217.7,485.4s-9.8,24.3,1,38.8c10.8,14.5,2.1,11.9-1,5.7s-10.9-21.7,0-44.4"/>
  <path class="cls-25" d="M321.1,460.6s-108-106.4-184.5-47.5c-53.7,41.4-83.7,64.6-93,60s-17,1.5-7.8,14,72.9,37.2,113.2,7.8c40.3-29.5,142.6,3.1,172.1-34.1"/>
  <path class="cls-21" d="M270.3,480.1c-3.8.4-7.9.6-12.3.6-46,.5-76.5-4.1-104.4,11.4-27.9,15.5-68.2,22.7-101.8,5.2-33.6-17.6-15-26.4-15-24.8"/>
  <path class="cls-21" d="M36.8,472.5s45,15,77-2.1c32-17,76.4-36,134.4-24.3,43.4,8.8,66.1,8.8,66.1,8.8l6.7,5.7s-14,16.1-50.8,19.5"/>
  <path class="cls-20" d="M312.8,453.9s-44.4,0-61-11.4-52.2-37.7-52.2-37.7c0,0,17.7,14.3,27.9,23.8,20.2,18.6-2.1,8.8-23.8,6.7-21.7-2.1-68.2-7.8-68.2-7.8,0,0,63.1,7.8,68.2,12.9s-32-1-53.8,11.4c-21.7,12.4-62.5,0-62.5,0l41.9,9.3s-23.8,19.1-46.5,19.1-47.5-8.3-47.5-8.3c0,0,15.8,7,28.9,8.8,23.2,3.1,40.3,2.6,64.1-15s70.8-19.6,70.8-19.6c0,0-7.8,30-25.3,32s-40.3,25.8-40.3,25.8c0,0,35.1-22.2,49.6-21.2s11.4-35.1,35.1-36.2,27.9,11.9,20.7,18.1c-7.2,6.2-13.4,16.5-13.4,16.5,0,0,20.2-28.9,40.8-26.9,20.7,2.1,46.5-.5,46.5-.5"/>
  <path class="cls-12" d="M60.6,496.3s27.4,10.9,41.3,9.3,33.6-14.5,33.6-14.5c0,0-16.5,16-74.9,5.2"/>
  <path class="cls-8" d="M225.5,407.4s31.8,11.1,56.8,26.4l21.2,12.9s-43.4-12.4-78-39.3"/>
  <path class="cls-24" d="M119.7,508.9s21.8-7.8,29.8-10.9c19.7-7.6,37.2-15,46.3-14.6,9,.4,10.9,21.1,10.9,21.1,0,0-3.1-17.3-1.7-19.7,1.4-2.4,3.6-4.4,3.6-4.4,0,0-11.6-2.4-29.2,2.2-17.6,4.6-50.9,17.5-59.7,26.2"/>
  <path class="cls-20" d="M119.7,594.3s20.3-26,25.4-41.8,7.6-25.4,7.6-25.4c0,0-3.2,14.6-33,67.2"/>
  <path class="cls-11" d="M121.6,511s53.3-11.4,57.5-13.3c4.3-1.9,8.1-4.3,8.1-4.3,0,0-50.9,10.9-65.6,17.6"/>
  <path class="cls-20" d="M174.9,505.6s-8.9,29.2-7.6,46.3l1.3,17.1s6.3-62.8,12.7-69.1c6.3-6.3-6.3,5.7-6.3,5.7"/>
  <path class="cls-5" d="M172.1,772c-4.9,1.2-9.9,1.7-15.1,1.7-5.2,0-10-.8-14.5-2.5s-8.5-4.2-11.9-7.6-5.8-8-7.2-13.6c-1.2-5-1.3-9.7-.5-14.1s2.2-8.5,4.1-12.2c1.9-3.8,4.1-7.1,6.7-10.1,2.6-2.9,5-5.5,7.4-7.6,2.3-2.2,4.4-3.8,6.1-5,1.8-1.2,2.8-1.9,3.1-2.1-.1,0-.8-.1-2.1-.5-1.3-.4-2.8-1.1-4.6-2.1-1.7-1-3.5-2.4-5.2-4.2s-3.2-4.2-4.4-7.1c-9.1,1.3-16.1,1.1-21.1-.6s-8-4.6-9-8.8c-.7-2.9-.5-6,.5-9.2s2.5-6.2,4.3-9c1.8-2.8,3.8-5.1,5.8-7.1,2.1-2,3.7-3.1,5-3.4.6-.1,1,0,1.3.2.3.3.5.6.6,1,.1.6-.2,1.7-.9,3.4s-.8,3.6-.3,5.7c.7,2.8,2.1,5.2,4.3,7.2,2.2,2,5,3.6,8.3,4.8,1-4,2.9-8.1,5.6-12,2.7-4,5.9-7.6,9.6-10.9,3.7-3.3,7.8-6.2,12.3-8.6,4.5-2.4,9-4.1,13.6-5.2,3.1-.7,6.2-1,9.1-.9s5.6.6,7.9,1.5,4.3,2.1,6,3.8c1.6,1.7,2.7,3.7,3.2,6,.7,3,.2,6.2-1.4,9.6s-4.4,6.7-8.3,10c-3.8,3.3-8.7,6.5-14.5,9.5-5.8,3-12.5,5.7-20.1,8,.6,2,1.3,3.7,2,5.2.8,1.5,1.6,2.7,2.4,3.8.9,1.2,1.8,2.2,2.8,3.2.9-.3,2-.8,3.2-1.3,1-.4,2.2-.8,3.7-1.2s3.1-.9,4.9-1.3c6.9-1.6,10.8-.4,11.8,3.7.4,1.8-.2,3.8-1.8,6.1-1.6,2.3-4.1,3.8-7.5,4.6-2.1.5-4.1.8-5.9.9s-3.4,0-4.8,0c-1.5-.1-2.9-.4-4.3-.8-3.7,3.6-6.9,7.5-9.4,11.8-2.2,3.7-4,8.1-5.3,13.1-1.4,5-1.3,10.5,0,16.4,1.7,7.3,5,12.3,9.8,15,4.8,2.6,10.9,3.1,18.2,1.4,6.3-1.5,11.9-4.6,16.6-9.4s8.4-10.7,11-17.7c0-.4.2-.9.6-1.4.2-.3.5-.6.9-1,.4-.4.9-.7,1.5-.8,1.1-.2,2,0,2.9.4.9.5,1.4,1.3,1.6,2.2.1.6.1,1.5,0,2.8-.1.5-.2,1-.4,1.6-1.1,3.6-2.8,7.2-4.9,10.8s-4.7,7-7.9,10.2-6.8,6.1-11,8.6-9,4.4-14.4,5.7h0ZM175.1,640.2c-2.7.6-5.2,1.8-7.6,3.6s-4.6,4-6.4,6.6c-1.9,2.6-3.4,5.5-4.6,8.8-1.2,3.3-1.9,6.8-2,10.3,5-1.2,9.6-2.7,13.6-4.5,4.1-1.8,7.5-3.8,10.3-6.1s4.8-4.6,6.1-7.2c1.3-2.5,1.6-5,1-7.6-.4-1.9-1.7-3.2-3.7-3.8s-4.2-.8-6.7-.2h0Z"/>
  <path class="cls-5" d="M235.1,753.7c-3.5.8-7,1-10.5.6s-6.7-1.5-9.7-3.2c-3-1.7-5.6-4-7.8-6.9-2.2-2.9-3.8-6.4-4.8-10.5-1.4-5.8-2.2-12.5-2.5-19.9s-.1-15,.7-22.8c.8-7.8,2-15.4,3.6-22.9,1.6-7.5,3.7-14.4,6.4-20.6,2.6-6.2,5.6-11.4,9-15.5s7.2-6.7,11.4-7.7c2-.5,4-.4,5.9,0,2,.5,3.8,1.3,5.5,2.4,1.7,1.1,3.1,2.4,4.3,3.9,1.2,1.5,2,3,2.4,4.5.6,2.5.6,5.7.2,9.8-.5,4.1-1.3,8.6-2.5,13.5s-2.7,10-4.6,15.4-3.9,10.6-6.1,15.8c-2.2,5.1-4.5,10-6.9,14.5s-4.7,8.4-7.1,11.5c0,1.5.2,3,.3,4.5,0,1.3.2,2.8.5,4.4.2,1.6.6,3.2.9,4.7,1,4.1,2.7,7.2,5.2,9.3s5.6,2.8,9.2,1.9c2.3-.5,4.5-1.8,6.4-3.9,1.9-2,3.5-4.3,4.8-6.7,1.6-2.6,2.9-5.5,4-8.9,0-.4.2-.9.6-1.4.2-.3.5-.6.9-1,.4-.4.9-.7,1.5-.8.9-.2,1.9,0,2.8.5.9.5,1.5,1.2,1.7,2.2.1.5.1.9,0,1.4s-.2.9-.3,1.5-.2,1.1-.3,1.7c-1.6,4.7-3.6,9-6,12.9-2.1,3.3-4.7,6.5-7.8,9.6s-6.9,5.1-11.2,6.1h0ZM240.1,637.1c-.4-1.6-1.3-2.3-2.7-2-1.6.4-3.3,2.7-5.1,6.9s-3.4,9.6-4.9,16.1c-1.5,6.5-2.8,13.7-3.9,21.6-1.1,7.9-1.7,15.7-1.7,23.5,1.6-2.1,3.2-5,4.9-8.5,1.7-3.6,3.2-7.6,4.7-11.9,1.4-4.3,2.8-8.8,4.1-13.4,1.3-4.6,2.3-9,3.1-13.2.8-4.2,1.4-8,1.7-11.4.3-3.4.3-6-.1-7.7h0Z"/>
  <path class="cls-5" d="M373,724.9c-5.5,1.3-11.1,1.7-16.9,1.3-5.8-.4-11.2-1.9-16.2-4.3-5.1-2.4-9.6-6-13.5-10.7s-6.8-10.7-8.5-18.1c-.8-3.3-1.3-6.6-1.6-10s-.4-6.8-.2-10.3c-5.5,0-10.6-.6-15.2-1.7-4.6-1.1-8.6-2.5-12.1-4.4s-6.4-4-8.5-6.4c-2.2-2.5-3.6-5.1-4.2-7.9-1.1-4.9-.7-9.8,1.3-14.7s4.6-9.3,8-13.3c3.3-4,6.9-7.3,10.7-10.1,3.8-2.7,6.9-4.4,9.4-5,2-.5,3.1,0,3.4,1.2.2.8,0,1.5-.4,2.1-.5.6-1.1,1.4-2,2.5-1.1,1.2-2.2,2.7-3.5,4.4s-2.4,3.7-3.3,6c-1,2.2-1.6,4.8-1.9,7.7-.3,2.8,0,6.1.8,9.7.9,3.8,2.8,7.5,5.6,10.8,2.8,3.3,7.2,5.5,13.3,6.6,1.4-8.7,3.9-17.2,7.4-25.5s7.7-15.8,12.5-22.5,10-12.4,15.6-17c5.6-4.6,11.3-7.5,16.9-8.8,3.5-.8,7-.8,10.5.1,3.5.9,6.6,2.3,9.4,4.3s5.2,4.2,7.1,6.7,3.2,5.1,3.8,7.5c1.1,4.5.6,10-1.5,16.2s-5.6,12.5-10.6,18.7c-5,6.2-11.5,12-19.4,17.3s-17.3,9.3-28.1,12.1c0,6.3.7,12.3,2,18.2,2.6,11.2,6.8,18.7,12.4,22.5,5.6,3.8,12.6,4.7,21,2.7,3.1-.7,6.2-2,9.1-3.8s5.6-3.9,8.2-6.4,4.9-5.2,6.9-8.2c2-3,3.7-6.1,5-9.2,0-.4.2-.9.6-1.4.2-.3.5-.6.9-1,.4-.4.9-.7,1.5-.8,1-.2,2,0,2.9.4.9.5,1.4,1.3,1.6,2.2.1.5.1.9,0,1.4,0,.5-.2.9-.3,1.5s-.2,1.1-.3,1.7c-1.3,3.5-3,7-5.3,10.7-2.2,3.6-5,7-8.3,10.3s-7.1,6.2-11.3,8.8c-4.3,2.5-9.1,4.4-14.5,5.7h0ZM374.3,598.1c-3.9.9-7.6,3.2-11.1,6.9s-6.8,8.3-9.8,13.8-5.5,11.8-7.6,18.6-3.5,13.8-4.3,21c7.9-2.1,14.7-5.4,20.3-9.8s10.2-9.4,13.6-14.7,5.7-10.8,6.9-16.2c1.2-5.5,1.3-10.3.3-14.5-.5-2-1.4-3.5-2.9-4.4-1.5-1-3.3-1.2-5.5-.7h0Z"/>
  <path class="cls-5" d="M495.5,670c-1.6,4.7-3.6,9-6,12.9-2.1,3.3-4.7,6.5-7.8,9.6s-6.9,5.1-11.2,6.1c-4.9,1.2-9.3.9-13.3-.8-4-1.7-6.8-5-8.6-9.7-1.6,3.5-3.6,6.6-5.8,9.3-1.9,2.4-4.1,4.7-6.7,6.9s-5.5,3.7-8.9,4.5c-2.3.5-4.7.6-7,.3s-4.5-1.2-6.5-2.5c-2-1.3-3.7-2.9-5.1-4.9s-2.5-4.3-3.1-7c-1.5-6.3-1.7-12.8-.8-19.6s2.8-13,5.5-18.9,6.1-10.9,10.1-15,8.5-6.8,13.3-7.9c3.5-.8,6.6-1.1,9.2-.8s4.9.8,6.6,1.5c2,.9,3.8,1.9,5.1,3,1.3-.3,2.7-.5,4.2-.5,1.5,0,3,0,4.4.5,1.4.4,2.6,1,3.7,1.8s1.8,2,2.1,3.6c.3,1.3.3,3.5-.1,6.7-.4,3.2-.8,6.7-1.2,10.5s-.8,7.8-.9,11.8.1,7.5.8,10.4c.3,1.4,1,2.5,2.1,3.2,1.1.7,2.4.9,3.9.6,2.3-.5,4.5-1.8,6.4-3.9,1.9-2,3.5-4.3,4.8-6.7,1.6-2.6,3-5.5,4-8.9,0-.4.2-.9.6-1.4.2-.3.5-.6.9-1,.4-.4.9-.7,1.5-.8.9-.2,1.9,0,2.8.5.9.5,1.5,1.2,1.7,2.2.1.5.1.9,0,1.4s-.2.9-.3,1.5c-.1.5-.2,1.1-.3,1.7h0ZM447.6,648.5c-.6-2.6-1.7-4.3-3.2-5.3s-3.1-1.2-4.9-.8c-2.6.6-4.9,2.6-6.9,5.9s-3.7,7.2-5,11.6-2,9.1-2.4,14c-.3,4.9,0,9.1.8,12.8,1.2,5.2,3.5,7.5,6.9,6.7,2.1-.5,4.2-2.5,6.3-5.9s3.9-7.5,5.4-12.2,2.6-9.4,3.2-14.3.6-9-.2-12.4h0Z"/>
  <path class="cls-5" d="M535.1,664.6c.5,2,1.3,3.4,2.6,4.2,1.3.8,2.8,1,4.6.6,2.3-.5,4.5-1.8,6.4-3.9,1.9-2,3.5-4.3,4.8-6.7,1.6-2.6,3-5.5,4-8.9,0-.4.2-.9.6-1.4.2-.3.5-.6.9-1,.4-.4.9-.7,1.5-.8.9-.2,1.9,0,2.8.5.9.5,1.5,1.2,1.7,2.2.1.5.1.9,0,1.4s-.2.9-.3,1.5c-.1.5-.2,1.1-.3,1.7-1.6,4.7-3.6,9-6,12.9-2.1,3.3-4.7,6.5-7.8,9.6s-6.9,5.1-11.2,6.1c-3.4.8-6.5,1-9.4.7-2.9-.3-5.5-1-7.9-2.1s-4.3-2.6-5.8-4.5c-1.5-1.8-2.6-4-3.2-6.5-.9-3.9-1.2-7.6-.8-11.3.4-3.7.9-7,1.6-10.2.7-3.1,1.4-5.9,2-8.3.7-2.4.8-4.3.5-5.8-.2-.9-.9-1.5-2.2-1.7-1.2-.2-2.5-.3-3.9-.4-1.6,0-3.4.1-5.5.4-1.4,9.3-3,17-4.7,23.2-1.8,6.1-3.3,10.8-4.5,13.9-.1.4-.5,1-.9,1.9-.5.8-1.2,1.4-2.3,1.6-.9.2-1.9,0-2.8-.5s-1.5-1.3-1.7-2.3c-.2-.8-.1-1.7.2-2.5.4-.9.6-1.6.7-2.1,1.1-2.7,2.5-7,4.3-12.7,1.8-5.8,3-13.1,3.6-22-1.4-.5-2.6-1.4-3.7-2.5-1-.9-1.9-2.1-2.9-3.6-1-1.5-1.7-3.3-2.2-5.6-.4-1.8-.5-3.5-.2-5.2.3-1.7.8-3.3,1.6-4.7.8-1.4,1.7-2.6,2.7-3.6,1-1,2-1.6,3.1-1.8,1.2-.3,2.5-.2,3.9,0s2.8.8,4,1.5,2.4,1.4,3.3,2.4,1.5,1.8,1.7,2.6c.5,2.3.6,4.3.2,6-.4,1.7-.4,3.2-.1,4.7.3,1.3,1.2,2,2.8,2.3s3.4.1,5.5-.4c2-.5,3.6-1,4.9-1.5s2.4-1.1,3.4-1.6c1-.5,1.9-1,2.8-1.5.9-.5,1.8-.8,2.9-1,2.1-.5,4,0,5.7,1.2s2.9,3.2,3.4,5.5c.5,2,.3,4.5-.3,7.6-.7,3.1-1.5,6.4-2.3,10.1s-1.6,7.4-2.1,11.3c-.5,3.9-.3,7.6.5,11.1h0Z"/>
  <path class="cls-5" d="M632.3,640.3c-.9-4-1.3-7.7-1.1-11.2s.5-6.7,1-9.7c.5-2.9.9-5.7,1.3-8.2.4-2.5.3-4.8-.1-6.8-.3-1.2-.8-2-1.5-2.3-.7-.4-1.5-.5-2.5-.2-2,.5-4.2,2.9-6.8,7.4-2.5,4.5-4.4,10.7-5.6,18.6-1.1,6.8-1.7,12.9-1.6,18.4,0,5.5.5,10.2,1.5,14.3.4,1.5.3,2.5-.3,3.1-.5.6-1.5,1-2.7,1.3-4.7,1.1-8.8,1.1-12.4,0s-5.7-3-6.3-5.8c-.8-3.6-1.2-7.6-1.2-12s.3-8.7.7-13,.8-8.2,1-11.9c.3-3.6.1-6.5-.4-8.6-.6-2.5-1.9-3.4-4-2.9s-4.2,2.2-6.5,5.2c-2.2,3-4,7-5.3,12-1.3,5.1-2,11.1-2.1,18s.8,14.7,2.8,23.1c.4,1.5.3,2.5-.3,3.1-.5.6-1.5,1-2.8,1.3-4.7,1.1-8.8,1.1-12.4,0-3.6-1.1-5.7-3-6.3-5.8-1.2-5.1-1.9-10.6-2.1-16.3-.2-5.7,0-11.3.2-16.7s.8-10.3,1.4-14.9,1.1-8.2,1.6-10.9c.4-2.4,1.7-3.9,4-4.4,1.3-.3,3.1-.2,5.5.4,2.3.6,5.3,2.6,9,6.2,2-2.7,4.1-5.1,6.4-7.4,2-2,4.3-3.8,6.9-5.7,2.6-1.8,5.4-3.1,8.4-3.8,3.8-.9,7.2-.4,10,1.5,2.8,1.9,5.3,4.6,7.4,8,2.1-3,4.4-5.8,6.9-8.5,2.1-2.2,4.5-4.3,7.3-6.4,2.8-2.1,5.8-3.5,9.1-4.2,1.5-.3,3.2-.3,4.9,0,1.8.4,3.4,1,5,2,1.6.9,2.9,2.1,4,3.4s1.8,2.8,2.2,4.3c.5,2.3.6,5.2.2,8.5s-.9,6.8-1.5,10.6-1,7.6-1.3,11.5,0,7.6.8,11.1c.5,2,1.3,3.5,2.6,4.5s2.8,1.3,4.5.9c2.3-.5,4.5-1.8,6.4-3.9,1.9-2,3.5-4.3,4.8-6.7,1.6-2.6,2.9-5.5,4-8.9,0-.4.2-.8.6-1.4.2-.3.5-.6.9-1s.9-.7,1.5-.8c.9-.2,1.9,0,2.8.5.9.5,1.5,1.2,1.7,2.2.1.5.1.9,0,1.4s-.2.9-.3,1.5c-.1.5-.2,1.1-.3,1.7-1.6,4.7-3.6,9-6,12.9-2.1,3.3-4.7,6.5-7.8,9.6s-6.9,5.1-11.2,6.1c-6.7,1.6-12.4,1-17.4-1.6-4.9-2.6-8-6.8-9.4-12.5h0Z"/>
  <path class="cls-5" d="M746.7,611.1c-1.6,4.7-4,9.1-7.1,13.1-2.6,3.5-6.1,6.9-10.5,10.2s-9.8,5.8-16.5,7.4c-4.4,1-8.7,1.3-12.7,1-4-.4-7.7-1.4-10.9-3.1-3.2-1.7-6-3.9-8.2-6.7-2.3-2.8-3.8-6.1-4.7-9.8-1.6-6.7-1.8-13-.6-19.1s3.2-11.5,6-16.3c2.8-4.8,6.2-8.7,10.1-11.9s7.8-5.1,11.6-6c2.7-.6,5.3-.7,7.9-.2,2.6.5,4.9,1.4,7.1,2.7s4,2.9,5.5,4.9c1.5,2,2.5,4.2,3.1,6.5.5,2.1.6,4.8.4,8-.2,3.2-1.1,6.4-2.7,9.6s-3.9,6.2-7.1,9-7.6,4.8-13.1,6.1c-1.3.3-2.7.4-4.2.4-.8,0-1.8.1-2.8,0,1.2,5.3,3.7,8.9,7.4,11,3.7,2.1,7.6,2.6,11.8,1.7s7.6-2.7,10.6-5.2,5.4-5,7.3-7.5c2.3-3,4-6.2,5.3-9.7,0-.4.2-.8.6-1.4.2-.3.5-.6.9-1,.4-.4.9-.7,1.5-.8.9-.2,1.9,0,2.8.5.9.5,1.5,1.2,1.7,2.2.1.5.1.9,0,1.4,0,.5-.2.9-.3,1.5-.1.5-.2,1.1-.3,1.7h0ZM696.6,609.6c3.2-.7,5.9-2.3,8.3-4.7s4.3-5.1,5.8-8.1c1.5-3,2.5-6,3-8.9s.6-5.4.2-7.2c-.5-2.3-1.9-3.3-4-2.8-2.5.6-4.6,2.1-6.5,4.7s-3.4,5.4-4.5,8.6c-1.2,3.2-2,6.5-2.4,10-.4,3.4-.4,6.2.1,8.5h0Z"/>
  <path class="cls-5" d="M803.1,601.2c.5,2,1.3,3.5,2.6,4.5,1.3,1,2.8,1.3,4.5.9,2.3-.5,4.5-1.8,6.4-3.9,1.9-2,3.5-4.3,4.8-6.7,1.6-2.6,3-5.5,4-8.9,0-.4.2-.9.6-1.4.2-.3.5-.6.9-1,.4-.4.9-.7,1.5-.8.9-.2,1.9,0,2.8.5.9.5,1.5,1.2,1.7,2.2.1.5.1.9,0,1.4s-.2.9-.3,1.5c-.1.5-.2,1.1-.3,1.7-1.6,4.7-3.6,9-6,12.9-2.1,3.3-4.7,6.5-7.8,9.6s-6.9,5.1-11.2,6.1c-6.7,1.6-12.4,1.1-17.3-1.4-4.9-2.5-7.9-6.2-9.1-11.1-.8-3.6-1.2-7.2-1-10.8.2-3.5.4-7,.8-10.4.4-3.4.7-6.7,1-9.7.3-3.1,0-6-.5-8.7-.2-.8-.7-1.4-1.5-1.8-.8-.4-1.7-.4-2.6-.2-2.7.6-5.3,2.6-7.8,5.8-2.5,3.2-4.6,7.5-6.2,12.9-1.6,5.4-2.6,11.6-2.8,18.8-.2,7.1.6,14.9,2.6,23.3.4,1.5.3,2.5-.3,3.1-.5.6-1.5,1-2.8,1.3-4.7,1.1-8.8,1.1-12.4,0-3.6-1.1-5.7-3-6.3-5.8-1.2-4.9-1.8-10.2-2-15.9-.2-5.7,0-11.2.2-16.7s.8-10.5,1.3-15.2c.6-4.7,1.1-8.4,1.6-11.1.4-2.4,1.7-3.9,4-4.4,1.3-.3,3.1-.2,5.5.4,2.3.6,5.3,2.6,9,6.2,2-2.7,4.3-5.2,6.9-7.5,2.2-2,4.8-4,7.8-5.9,3-1.9,6.4-3.3,10.1-4.2,1.9-.4,3.8-.4,5.8.1s3.9,1.3,5.7,2.5,3.2,2.5,4.5,4c1.2,1.6,2,3.2,2.5,5,.6,2.7.8,5.6.5,8.8-.3,3.2-.6,6.5-1,9.9s-.7,6.8-.9,10.3,0,6.7.8,9.9h0Z"/>
  <path class="cls-5" d="M39.9,749.7s7.7-15.6,26.3-14.9c17.1.7,39.3-9,39.3-9,0,0-28.9,24.1-37.1,19.6-18.7-10.3-28.6,4.2-28.6,4.2"/>
  <path class="cls-5" d="M825.6,568.7s7.7-15.6,26.3-14.9c17.1.7,39.3-9,39.3-9,0,0-28.9,24.1-37.1,19.6-18.7-10.3-28.6,4.2-28.6,4.2"/>
  <g>
    <path class="cls-7" d="M433.9,745.5c-1.2,1.6-3.1,2.7-5.8,3.3l-5.2,1.3,2.2,8.9-5.1,1.2-6-24.8,10.6-2.6c2.5-.6,4.6-.4,6.3.5s3,2.7,3.6,5.4c.7,2.9.5,5.2-.7,6.7M427.7,737.6c-.8-.4-1.8-.4-3-.2l-4.7,1.1,1.8,7.3,4.7-1.1c1.2-.3,2-.8,2.5-1.6.5-.8.6-1.8.3-3.1s-.9-2.1-1.7-2.5"/>
    <path class="cls-7" d="M452.8,726.7c1,.2,1.9.6,2.7,1.2.7.5,1.3,1.1,1.8,1.8.5.7.9,1.5,1.1,2.5.3,1.2.3,2.4,0,3.7s-1.1,2.3-2.4,3.1c1.3.2,2.2.6,2.9,1.4s1.2,2,1.7,3.7l.4,1.7c.3,1.1.5,1.9.7,2.3.3.6.7,1,1.3,1.2v.6c.1,0-5.6,1.4-5.6,1.4-.3-.5-.5-.9-.7-1.2-.3-.7-.5-1.4-.7-2.1l-.6-2.3c-.4-1.6-.9-2.6-1.6-3-.6-.4-1.7-.4-3.1,0l-5.1,1.2,2.4,9.7-5.1,1.2-6-24.8,11.9-2.9c1.7-.4,3.1-.5,4.1-.3M443,733l1.6,6.7,5.6-1.4c1.1-.3,1.9-.6,2.4-1,.9-.7,1.1-1.8.8-3.2-.4-1.5-1.1-2.4-2.2-2.7-.6-.2-1.4-.1-2.5.2l-5.7,1.4Z"/>
    <path class="cls-7" d="M486.3,741.8c-1.4,2.4-3.9,4-7.4,4.9-3.5.9-6.5.6-8.8-.9-3.1-1.8-5.2-4.9-6.3-9.3-1.1-4.5-.7-8.3,1.3-11.2,1.4-2.4,3.9-4,7.4-4.9,3.5-.9,6.5-.6,8.8.9,3.1,1.7,5.1,4.8,6.2,9.3,1.1,4.5.7,8.2-1.3,11.1M482.1,738.9c.8-1.8.9-4.1.2-6.9-.7-2.8-1.8-4.8-3.4-6-1.6-1.2-3.4-1.6-5.4-1.1s-3.5,1.7-4.4,3.5-.9,4.1-.3,6.9,1.8,4.8,3.4,6c1.6,1.2,3.4,1.6,5.5,1.1,2-.5,3.5-1.7,4.3-3.5"/>
    <path class="cls-7" d="M503.1,714.4c1.9.2,3.5.8,5,2.1,1.2,1,2.1,2.2,2.7,3.6s1.2,2.7,1.5,4c.8,3.3.8,6.2,0,8.9-1,3.5-3.4,5.7-7.2,6.7l-10.7,2.6-6-24.8,10.7-2.6c1.5-.3,2.9-.5,4-.4M494.5,720.4l3.9,16.2,4.8-1.2c2.5-.6,3.9-2.2,4.2-4.9.2-1.5,0-3.1-.4-4.9-.6-2.5-1.5-4.4-2.6-5.5s-2.9-1.5-5.2-.9l-4.8,1.2h0Z"/>
    <path class="cls-7" d="M513.3,711.3l5.3-1.3,3.7,15.2c.4,1.7.9,2.9,1.5,3.6,1,1.2,2.5,1.6,4.6,1.1,2.1-.5,3.3-1.5,3.6-3.1.2-.9.1-2.2-.3-3.9l-3.7-15.2,5.3-1.3,3.7,15.2c.6,2.6.7,4.8.3,6.5-.9,3.1-3.4,5.1-7.7,6.2s-7.5.4-9.7-1.9c-1.2-1.3-2.1-3.2-2.7-5.9l-3.7-15.2h0Z"/>
    <path class="cls-7" d="M541.2,707.2c1.5-2.5,3.8-4.2,6.9-4.9,4.1-1,7.5-.4,10.1,1.9,1.4,1.3,2.4,2.7,2.8,4.2l-5.2,1.3c-.6-1.1-1.3-1.9-1.9-2.4-1.2-.8-2.7-1.1-4.5-.6-1.8.5-3.1,1.6-3.8,3.3-.7,1.8-.7,4.1,0,6.8s1.8,4.7,3.2,5.8,3.1,1.5,4.8,1c1.8-.4,3-1.4,3.6-2.8.4-.8.5-1.8.6-3.2l5.2-1.2c.2,2.8-.4,5.3-1.8,7.4-1.4,2.1-3.5,3.5-6.4,4.2-3.5.9-6.6.4-9.2-1.4-2.6-1.8-4.4-4.7-5.3-8.7-1-4.3-.7-8,1-10.8"/>
    <path class="cls-7" d="M581.2,694.8l1.1,4.4-7.4,1.8,5,20.4-5.2,1.3-5-20.4-7.5,1.8-1.1-4.4,20.1-4.9Z"/>
    <path class="cls-7" d="M608.2,712.1c-1.4,2.4-3.9,4-7.4,4.9-3.5.9-6.5.6-8.8-.9-3.1-1.8-5.2-4.9-6.3-9.3-1.1-4.5-.7-8.3,1.3-11.2,1.4-2.4,3.9-4,7.4-4.9,3.5-.9,6.5-.6,8.8.9,3.1,1.7,5.1,4.8,6.2,9.3,1.1,4.5.7,8.2-1.3,11.1M604,709.2c.8-1.8.9-4.1.2-6.9-.7-2.8-1.8-4.8-3.4-6-1.6-1.2-3.4-1.6-5.4-1.1s-3.5,1.7-4.4,3.5-.9,4.1-.3,6.9,1.8,4.8,3.4,6c1.6,1.2,3.4,1.6,5.5,1.1,2-.5,3.5-1.7,4.3-3.5"/>
    <path class="cls-7" d="M618.3,703.9c.4,1.1,1,1.9,1.6,2.3,1.1.8,2.7,1,4.8.5,1.2-.3,2.2-.7,2.9-1.1,1.3-.9,1.9-2,1.5-3.4-.2-.8-.7-1.4-1.5-1.6-.8-.3-2.1-.4-3.7-.3h-2.8c-2.8.1-4.8,0-5.9-.5-2-.7-3.2-2.3-3.8-4.8-.5-2.2-.2-4.3,1.1-6.1,1.3-1.9,3.5-3.2,6.7-4,2.7-.6,5.1-.5,7.3.4,2.2.9,3.7,2.7,4.4,5.3l-5,1.2c-.5-1.5-1.4-2.4-2.8-2.7-.9-.2-2-.2-3.2.1-1.4.3-2.4.9-3.1,1.6s-.9,1.6-.7,2.5c.2.9.8,1.5,1.7,1.7.6.2,1.8.2,3.5.2h4.6c2,0,3.6.2,4.7.7,1.8.8,2.9,2.3,3.5,4.5.5,2.3.1,4.4-1.3,6.3-1.4,1.9-3.7,3.3-6.9,4-3.3.8-6,.7-8.2-.3s-3.7-2.8-4.3-5.4l5-1.2h0Z"/>
    <path class="cls-7" d="M642.9,679.7l5.2-1.3,5,20.3,12.4-3,1.1,4.5-17.6,4.3-6-24.8Z"/>
    <path class="cls-7" d="M671.1,672.9l5.9-1.4,14.8,22.7-5.6,1.4-2.9-4.7-9.1,2.2-.4,5.5-5.4,1.3,2.8-27h0ZM674.5,688.4l6.3-1.5-5.5-9-.8,10.5h0ZM678,663.8l-3.9,6.3-3.5.8,2-5.8,5.3-1.3Z"/>
    <path class="cls-7" d="M691.9,670.6c1.5-2.5,3.8-4.2,6.9-4.9,4.1-1,7.5-.4,10.1,1.9,1.4,1.3,2.4,2.7,2.8,4.2l-5.2,1.3c-.6-1.1-1.3-1.9-1.9-2.4-1.2-.8-2.7-1.1-4.5-.6-1.8.5-3.1,1.6-3.8,3.3-.7,1.8-.7,4.1,0,6.8s1.8,4.7,3.2,5.8,3.1,1.5,4.8,1c1.8-.4,3-1.4,3.6-2.8.4-.8.5-1.8.6-3.2l5.2-1.2c.2,2.8-.4,5.3-1.8,7.4-1.4,2.1-3.5,3.5-6.4,4.2-3.5.9-6.6.4-9.2-1.4-2.6-1.8-4.4-4.7-5.3-8.7-1-4.3-.7-8,1-10.8"/>
    <path class="cls-7" d="M731.8,658.1l1.1,4.4-7.4,1.8,5,20.4-5.2,1.3-5-20.4-7.5,1.8-1.1-4.4,20.1-4.9Z"/>
    <path class="cls-7" d="M754.2,657.3l-13.1,3.2,1.3,5.3,12-2.9,1,4.3-12,2.9,1.5,6.4,13.7-3.3,1.1,4.5-18.8,4.6-6-24.8,18.2-4.4,1.1,4.4Z"/>
    <path class="cls-7" d="M782.4,669.7c-1.4,2.4-3.9,4-7.4,4.9-3.5.9-6.5.6-8.8-.9-3.1-1.8-5.2-4.9-6.3-9.3-1.1-4.5-.7-8.3,1.3-11.2,1.4-2.4,3.9-4,7.4-4.9,3.5-.9,6.5-.6,8.8.9,3.1,1.7,5.1,4.8,6.2,9.3s.7,8.2-1.3,11.1M778.2,666.7c.8-1.8.9-4.1.2-6.9-.7-2.8-1.8-4.8-3.4-6-1.6-1.2-3.4-1.6-5.4-1.1s-3.5,1.7-4.4,3.5-.9,4.1-.3,6.9,1.8,4.8,3.4,6c1.6,1.2,3.4,1.6,5.5,1.1,2-.5,3.5-1.7,4.3-3.5"/>
    <path class="cls-7" d="M792.5,661.5c.4,1.1,1,1.9,1.6,2.3,1.1.8,2.7,1,4.8.5,1.2-.3,2.2-.7,2.9-1.1,1.3-.9,1.9-2,1.5-3.4-.2-.8-.7-1.4-1.5-1.6-.8-.3-2.1-.4-3.7-.3h-2.8c-2.8.1-4.8,0-5.9-.5-2-.7-3.2-2.3-3.8-4.8-.5-2.2-.2-4.3,1.1-6.1,1.3-1.9,3.5-3.2,6.7-4,2.7-.6,5.1-.5,7.3.4,2.2.9,3.7,2.7,4.4,5.3l-5,1.2c-.5-1.5-1.4-2.4-2.8-2.7-.9-.2-2-.2-3.2.1-1.4.3-2.4.9-3.1,1.6s-.9,1.6-.7,2.5c.2.9.8,1.5,1.7,1.7.6.2,1.8.2,3.5.2h4.6c2,0,3.6.2,4.7.7,1.8.8,2.9,2.3,3.5,4.5.5,2.3.1,4.4-1.3,6.3-1.4,1.9-3.7,3.3-6.9,4-3.3.8-6,.7-8.2-.3s-3.7-2.8-4.3-5.4l5-1.2h0Z"/>
  </g>
  <path class="cls-1" d="M666.1,726c-16.7-16.7-21.5,52.5,8.3,76.3,29.8,23.8,14.3-48.9-54.8-39.3-69.2,9.5,44.1,20.3,73.9,3.6s-29.8-37-64.4,35.7c-34.6,72.7,53.7-59.5,37-76.2h0Z"/>
  <path class="cls-16" d="M731.7,291.3c0,146.6-118.8,265.4-265.4,265.4s-265.4-118.8-265.4-265.4S319.7,25.9,466.3,25.9s265.4,118.8,265.4,265.4"/>
  <path class="cls-22" d="M718.7,294.4c0,139.8-113.3,253-253,253s-253-113.3-253-253S325.9,41.4,465.6,41.4s253,113.3,253,253"/>
  <path class="cls-19" d="M714.7,294.4c0,137.6-111.5,249.1-249.1,249.1s-249.1-111.5-249.1-249.1S328,45.3,465.6,45.3s249.1,111.5,249.1,249.1"/>
  <path class="cls-22" d="M677,412.4c1.6-4.5-24.7,45.9-92.6,90.8-61.4,40.7,76.4-31.5,92.6-90.8"/>
  <path class="cls-22" d="M263.6,165.2s10.3-23.8,23.8-37.8c13.5-14,36.9-31.4,36.9-31.4,0,0-31.6,26.7-60.6,69.2"/>
  <g class="cls-27">
    <path class="cls-15" d="M245.7,70.6h437.1v437.1H245.7V70.6Z"/>
  </g>
  <path class="cls-20" d="M254.7,353.2s70.9-114.7,145.6-70.4c74.7,44.4,233.9,104.1,245.9,104.1h12s-59.3,144.1-223,119.4c-170.1-25.7-169.9-137.5-180.5-153.1"/>
  <path class="cls-18" d="M613.1,254.1s66.4,30.5,70.3,31.8c4,1.3,9.7,56.2-33.2,120.8-37.4,56.3-12,14.6-12,14.6,0,0-19.9-128.7-25.2-167.2"/>
  <path class="cls-13" d="M389.7,173.9s21.5-14.9,35.5-25c14-10.1,24.8-16.5,29.1-23.4,4.3-6.9,20.5-6.9,26.4-6.9s8.1-1.1,8.1-1.1c0,0,13.5,1.6,18.8,7.5,5.4,5.9,10.8,11.2,10.8,11.2,0,0,5.4-2.1,9.2,1.1,3.8,3.2,3.2,5.9,3.2,5.9l-7,2.1-3.8,3.7h-10.2l3.8,2.7-2.7,3.7-11.8-1.1-1.6,4.3-8.1,4.8s-12.9,7.5-16.1,12.8c-3.2,5.3-13.5,12.2-16.7,22.9s-5.4,19.7-5.4,19.7l-9.1,14.9-7,.5-4.3,4.8-10.8,5.9-5.9,8-2.7,8.5-3.8,17s0,8.5,1.1,11.7,4.8,7.5,4.8,7.5l5.4,6.9-4.8,3.7s9.7,17,22.1,24.5c12.4,7.5,19.4,8.5,19.4,8.5l1.6,3.7s8.1-1.1,12.4,0c4.3,1.1.5,10.1-5.4,24s1.6,12.8,1.6,12.8l-3.8,8-.5,6.9-3.2,3.7,3.8,2.1,11.8-6.4,7,4.8-1.6,5.9,1.6,1.1s23.1-15.5,30.1-19.7c7-4.3,10.8-7.5,10.8-7.5l2.2-10.6,8.6-17,3.2-9,4.8-10.1,3.2,3.7,2.7-9,1.6,15.5,6.5-9-4.3,34.6s-2.7,20.8-4.3,31.4c-1.6,10.6-23.1,37.3-23.1,37.3l3.2,21.3,2.2,26.6s-14-22.9-16.1-32c-2.1-9.1-21-32.5-21-32.5,0,0-6.5-9.6-14-9.6s-28.5-1.6-28.5-1.6l-26.9,3.2-15.1-4.8s-11.3,8.5-33.9,6.9-48.4-12.8-48.4-12.8l-7-3.7s-19.4-1.6-21.5-5.9-3.8-17.6,1.6-32.5-1.1-21.3,0-29.3,7-22.4,28-31.4c21-9,46.3-34.1,56-52.7,9.7-18.6,14.5-27.2,14.5-27.2l2.7-18.6-2.7-5.3-4.3-3.2s-.5-12.8-1.6-19.2"/>
  <path class="cls-9" d="M389.7,173.9l47.9-33.9c4-2.9,8-5.7,11.6-9,1.8-1.6,3.4-3.4,4.8-5.4,1.3-2.1,3.6-3.6,5.8-4.5,4.6-1.9,9.6-2.4,14.4-2.7,2.4-.2,4.9-.1,7.3-.2,2.4-.1,4.9-.2,7.1-1h.1s0,0,0,0c1.5.2,3,.5,4.5.8,1.5.4,3,.7,4.4,1.2,1.5.4,2.9,1,4.3,1.6.7.2,1.4.7,2,1.1.6.4,1.4.7,1.9,1.2,1.2,1,2.4,2,3.4,3.1l3.1,3.2,6.3,6.5h-.5c1.4-.6,2.8-.8,4.2-.8.7,0,1.4.1,2.2.2.7.3,1.4.4,2,.8l.9.6c.3.2.6.5.8.8l1.4,1.5c.3.2.4.6.6.9l.5,1c.2.3.2.7.3,1.1,0,.4.1.8,0,1.2v.3s-.3,0-.3,0l-7,2.1h.2c0-.1-3.8,3.6-3.8,3.6h-.2c0,.1-10.4.1-10.4.1l.3-.9,3.8,2.7.4.3-.3.4-2.7,3.7-.2.2h-.3s-11.8-1.1-11.8-1.1l.5-.3-1.6,4.3v.2c0,0-.2.1-.2.1-5.6,3.4-11.5,6.6-16.7,10.5-1.3.9-2.6,2-3.8,3.1l-1.8,1.7c-.5.6-1,1.2-1.5,1.8-1,1.4-1.9,2.7-3.1,3.9-1.1,1.3-2.3,2.4-3.4,3.6-2.2,2.4-4.5,4.8-6.3,7.5-1,1.3-1.7,2.8-2.5,4.2-.6,1.5-1.3,3-1.7,4.5l-5.2,19.1h0c0,0,0,.2,0,.2l-9.1,14.9-.2.3h-.3s-7,.6-7,.6l.4-.2-4.3,4.8h0c0,0,0,.1,0,.1l-10.8,5.9.2-.2-5.9,8v-.2c.1,0-2.6,8.5-2.6,8.5h0s-3.7,17-3.7,17h0c0,2.3.1,4.7.4,7.1,0,1.2.4,2.4.6,3.5,0,.3,0,.6.2.8l.4.8c.3.5.5,1.1.8,1.6.7,1,1.2,2,2,2.9l2.3,2.9,4.5,5.8.4.6-.6.4-4.8,3.7.2-.9c1.1,1.9,2.4,3.8,3.6,5.7,1.3,1.8,2.6,3.7,4.1,5.4,1.4,1.8,2.9,3.4,4.4,5.1,1.5,1.7,3.3,3.1,4.9,4.6.8.7,1.8,1.3,2.7,2,.9.6,1.8,1.4,2.8,1.8l6,3.2c2,1.2,4.1,1.8,6.1,2.8,1,.5,2.1.8,3.1,1.1,1.1.3,2.1.7,3.2.9h.4c0,0,.2.5.2.5l1.6,3.7-.8-.5c2.3-.2,4.5-.5,6.8-.4,1.1,0,2.3,0,3.5.2l1.7.2h.4c.1,0,0,0,.3.1h.2c.3.2.5.2.9.6,1.3,1.2,1.2,2.6,1.2,3.8,0,1.2-.4,2.3-.6,3.5-.6,2.2-1.4,4.4-2.2,6.5-1.6,4.2-3.5,8.4-5.1,12.5-.4,1.1-.7,2.1-1,3.1-.3,1-.5,2.1-.5,3.1,0,1,.2,2,.7,2.7.5.6,1.4,1,2.3.9h1.5c0-.1-.6,1.2-.6,1.2l-3.8,8v-.3c0,0-.5,6.9-.5,6.9v.3s-.2.2-.2.2l-3.2,3.7-.2-1.3,3.8,2.1h-.8l11.8-6.4.5-.2.4.3,7,4.8.5.4-.2.6-1.6,5.9-.4-1,1.6,1.1h-1l20.5-13.5,10.2-6.7,5.1-3.4c1.8-1.1,3.3-2.3,4.9-3.5l-.3.5,2.2-10.7h0c0-.1,0-.2,0-.2l8.6-17h0c0,.1,3.2-9,3.2-9h0s0,0,0,0l4.8-10.1.6-1.3,1,1.1,3.2,3.7-1.7.4,2.7-9.1,1.4-4.7.5,4.9,1.6,15.4-1.8-.5,6.5-9,2.3-3.2-.5,3.9-3.4,27.5c-1.1,9.2-2.5,18.3-3.7,27.5l-.9,6.9-.5,3.4c-.2,1.3-.5,2.3-.8,3.5-.8,2.4-1.8,4.5-2.9,6.5-1.1,2.1-2.3,4.1-3.5,6-5,7.9-10.5,15.3-16.2,22.5l.2-.7,1.8,11.9.9,6,.5,3c.2,1.1.2,2,.3,3.1l1.9,24.1.3,3.6-1.8-3.1c-3.2-5.4-6.3-10.8-9.2-16.3-1.5-2.8-2.9-5.5-4.2-8.4-.6-1.5-1.3-2.8-1.8-4.4l-.7-2.3-.2-.6-.2-.5-.4-1.1c-.5-1.5-1.1-2.9-1.9-4.2-.8-1.3-1.4-2.7-2.2-4-1.6-2.6-3.3-5.2-5.1-7.8-3.5-5.1-7.2-10.1-11.1-14.9h0s0,0,0,0c-2.1-3-4.9-5.8-8-7.7-1.6-.9-3.3-1.5-5.1-1.6l-5.8-.3-23-1.3h.1l-26.9,3.2h-.1s-.1,0-.1,0l-15.1-4.8h.6c-1.6,1-3.2,1.7-4.8,2.5-1.7.6-3.3,1.4-5.1,1.9-1.7.5-3.4,1.1-5.2,1.3-1.8.3-3.5.8-5.3.9l-5.4.4c-1.8,0-3.6,0-5.4,0-1.8,0-3.6,0-5.4-.3l-5.3-.6c-1.8-.2-3.5-.6-5.3-1-1.8-.4-3.5-.6-5.3-1.1-3.5-.9-7-1.7-10.4-2.8-6.9-2-13.6-4.4-20.2-7.2h0s-7-3.8-7-3.8h.2c-5-.4-9.9-1.1-14.8-2.3-1.2-.3-2.4-.7-3.6-1.2-1.2-.5-2.4-1-3.3-2.2-.7-1.3-1-2.3-1.4-3.6-.3-1.3-.5-2.5-.6-3.8-.6-5-.3-10,.5-15,.8-4.9,2.6-9.7,3.9-14.4,1.3-4.8,1.4-9.6.4-14.5-.5-2.4-1.1-4.8-1.4-7.4-.2-1.3,0-2.5,0-3.9.3-1.2.4-2.4.8-3.6,1.3-5,3.9-9.4,7.1-13.2l2.5-2.9,2.8-2.5c1.8-1.8,4-3.1,6-4.5,2-1.5,4.4-2.5,6.6-3.6l6.6-3.4c4.5-2.1,8.5-5,12.7-7.7,3.9-3,7.9-6,11.5-9.4,3.8-3.2,7.2-6.8,10.7-10.3,1.7-1.8,3.2-3.7,4.9-5.6l2.4-2.8,2.2-3c3.1-3.9,5.5-8.2,8-12.5l14.1-26.2h0c0,0,2.7-18.6,2.7-18.6h0c0,0-2.7-5.3-2.7-5.3h0s-4.3-3.2-4.3-3.2h0c-.2-3.2-.2-6.5-.6-9.7l-.9-9.6h0ZM389.7,173.9l1,9.6c.4,3.2.4,6.4.7,9.6h0s4.3,3.2,4.3,3.2h0s2.7,5.4,2.7,5.4h0c0,0-2.6,18.7-2.6,18.7h0s0,0,0,0l-14,26.3c-2.5,4.3-4.9,8.7-8,12.6l-2.2,3-2.4,2.9c-1.6,1.9-3.2,3.8-4.9,5.6-3.5,3.5-6.9,7.2-10.7,10.4-3.6,3.5-7.6,6.4-11.5,9.5-4.2,2.7-8.2,5.8-12.7,7.8l-6.6,3.4c-2.2,1.2-4.5,2.1-6.5,3.6-2,1.4-4.1,2.7-5.9,4.4l-2.7,2.5-2.4,2.8c-3.1,3.8-5.6,8.1-6.8,12.8-.3,1.2-.5,2.4-.8,3.6,0,1.1-.2,2.4,0,3.6.2,2.4.9,4.8,1.4,7.3,1.1,4.9,1,10.1-.4,15-1.3,4.9-3,9.4-3.8,14.3-.7,4.9-1,9.8-.4,14.7.1,1.2.3,2.4.6,3.6.2,1.1.7,2.5,1.2,3.3.6.8,1.7,1.4,2.8,1.8,1.1.5,2.3.8,3.5,1.1,4.8,1.2,9.7,1.9,14.6,2.4h.2c0,0,7,3.8,7,3.8h0c6.5,2.7,13.3,5.1,20.1,7.1,3.4,1.1,6.9,1.9,10.3,2.8,1.7.4,3.5.7,5.2,1.1,1.7.3,3.4.8,5.2.9l5.3.6c1.8.3,3.5.3,5.3.3,1.8,0,3.5.1,5.3,0l5.3-.4c1.8-.1,3.5-.6,5.2-.9,1.8-.2,3.4-.9,5.1-1.3,1.7-.4,3.3-1.2,4.9-1.8,1.6-.8,3.2-1.5,4.5-2.5l.3-.2h.3c0,.1,15.1,4.9,15.1,4.9h-.3s26.9-3.2,26.9-3.2h.1l23,1.3,5.8.3c2.1,0,4.1.8,5.8,1.8,3.5,2,6.2,4.9,8.5,8.1h0c3.9,4.8,7.6,9.8,11.2,15,1.8,2.5,3.5,5.2,5.2,7.8.9,1.3,1.6,2.8,2.3,4.2.9,1.4,1.4,2.9,1.9,4.3l.4,1.1v.3c.1,0,.2.4.2.4l.2.5.7,2.1c.4,1.4,1.2,2.8,1.8,4.2,1.3,2.8,2.7,5.6,4.1,8.3,2.9,5.5,6,10.9,9.2,16.2l-1.5.5-2-24c0-1-.1-2.1-.3-2.9l-.5-3-.9-6-1.8-11.9v-.4c0,0,.2-.3.2-.3,5.7-7.2,11.2-14.6,16.1-22.4,2.4-3.9,4.8-8,6.2-12,.7-2.2.9-4.4,1.2-6.7l.9-6.9c1.2-9.2,2.6-18.3,3.6-27.4l3.4-27.5,1.8.7-6.5,9-1.5,2.1-.3-2.6-1.6-15.5,1.9.2-2.7,9-.5,1.7-1.2-1.3-3.2-3.7,1.6-.2-4.8,10.1h0c0,0-3.2,9-3.2,9h0c0,0,0,.1,0,.1l-8.6,17v-.2c0,0-2.1,10.6-2.1,10.6v.3c0,0-.3.2-.3.2-1.7,1.3-3.3,2.6-5,3.7l-5.1,3.4-10.3,6.7-20.5,13.4-.5.3-.5-.3-1.6-1.1-.5-.4.2-.6,1.6-5.9.4.9-7-4.8h.9s-11.9,6.4-11.9,6.4l-.4.2-.4-.2-3.8-2.1-.9-.5.7-.8,3.2-3.7-.2.5.5-6.9h0c0-.1,0-.3,0-.3l3.8-8,.9,1.2c-1.4.1-2.8-.4-3.8-1.5-.9-1.1-1.1-2.5-1-3.7,0-2.4.8-4.7,1.6-6.8,1.7-4.2,3.5-8.3,5.2-12.5.8-2.1,1.6-4.2,2.1-6.3.3-1.1.5-2.1.6-3.2.1-1-.1-2.1-.5-2.4-.6-.6-1.8-.4-2.9-.6-1-.2-2.1-.2-3.3-.1-2.2,0-4.5.2-6.6.4h-.6c0,0-.2-.5-.2-.5l-1.6-3.7.6.5c-1.2-.2-2.3-.6-3.4-.9-1.1-.3-2.2-.7-3.2-1.2-2.1-1-4.3-1.7-6.3-2.9l-6-3.3c-1.1-.5-1.9-1.3-2.9-1.9-.9-.7-1.9-1.3-2.8-2.1-1.6-1.6-3.5-3-5-4.8-1.6-1.7-3.1-3.4-4.5-5.2-1.5-1.8-2.8-3.6-4.1-5.5-1.3-1.9-2.5-3.8-3.7-5.8l-.3-.5.5-.4,4.9-3.7v1c-.1,0-4.6-5.8-4.6-5.8l-2.3-2.9c-.8-1-1.5-2.1-2.2-3.1-.3-.5-.5-1.1-.8-1.7l-.4-.8c-.2-.4-.2-.6-.3-1-.2-1.3-.6-2.5-.6-3.8-.2-2.5-.3-5-.4-7.4h0c0,0,0-.1,0-.1l3.8-17h0s0,0,0,0l2.7-8.5h0c0-.1,0-.2,0-.2l5.9-8h0c0-.1.1-.2.1-.2l10.8-5.9h-.2c0,.1,4.3-4.7,4.3-4.7l.2-.2h.2s7-.6,7-.6l-.5.3,9.2-14.9v.2c0,0,5.2-19.1,5.2-19.1.5-1.6,1.2-3.2,1.8-4.7.9-1.4,1.6-3,2.6-4.3,1.9-2.8,4.1-5.2,6.4-7.6,1.1-1.2,2.3-2.4,3.4-3.6,1.1-1.1,2.1-2.5,3-3.8.5-.7,1-1.4,1.6-2l1.8-1.7c1.3-1.1,2.5-2.2,3.9-3.1,5.3-4,11.2-7.1,16.8-10.5l-.2.3,1.6-4.3v-.4c.1,0,.5,0,.5,0l11.8,1.1-.5.2,2.7-3.7v.7c.1,0-3.6-2.7-3.6-2.7l-1.3-.9h11.8-.3c0,.1,3.8-3.6,3.8-3.6h0c0,0,.1-.1.1-.1l7-2.1-.3.4c0-.3,0-.6,0-.9,0-.3,0-.6-.2-.9l-.4-.8c-.2-.3-.2-.6-.5-.8l-1.4-1.5c-.3-.3-.4-.5-.7-.6l-.8-.5c-.5-.4-1.2-.5-1.8-.7-.7,0-1.3-.3-2-.2-1.3,0-2.7.2-3.9.6h-.3c0,0-.2-.1-.2-.1l-6.2-6.5-3.1-3.3c-1-1.1-2.1-2.1-3.2-3-.5-.5-1.2-.8-1.9-1.2-.6-.3-1.3-.8-2-1-1.4-.6-2.7-1.2-4.2-1.6-1.4-.5-2.9-.8-4.3-1.2-1.5-.3-2.9-.6-4.4-.8h.2c-2.4.9-4.9.9-7.4,1-2.5,0-4.9,0-7.3.2-4.8.3-9.8.8-14.3,2.6-2.2.9-4.3,2.2-5.6,4.3-1.4,2-3.1,3.9-4.9,5.5-3.6,3.3-7.7,6.1-11.6,8.9l-48,33.7h0Z"/>
  <path class="cls-6" d="M379.6,368.6s6,0,8.8-9.6-2-27.2-2-27.2l-2-1.2s2,6-9.2,8.8c-11.2,2.8-24.8,1.2-26.4,4.4s-6,11.2,5.6,21.6c11.6,10.4,21.6,4,25.2,3.2"/>
  <path class="cls-18" d="M537,150.9s1.2,43.9,10,54.3c8.8,10.4,9.2,21.6,9.2,21.6,0,0,6.7-7.7,15.3-11.9s13.1-10.9,13.1-10.9c0,0,38-16.4,45.9-28.8s46.7-48.3,33.6-68.3-68.3,4.4-79.1,14.8c-10.8,10.4-20.4,34-20.4,34l-2.1,6s-20.6-6.4-25.4-10.8"/>
  <path class="cls-18" d="M561.6,161.6s10.1-36.2,42.6-51.7,78.8-18.1,54.9,26.1-67.1,67.7-71.9,67.7h-4.8s-4.8,8.5-11.7,11.2c-6.9,2.7-15.5,4.8-16.5,11.7-1.1,6.9,3.7,46.3,4.3,56.5.5,10.1-2.7,37.3-4.3,46.3s-7.5,14.4-7.5,14.4l-.5-17.6-3.7,11.2-3.2-3.7-3.2,9-4.8,10.1-8.5,17s1.4,10.3-5.9,13.9c-4.1,2-36.8,24-36.8,24v-6.9l-.7-1.6-4.1-2.1-13.9,5.3-3.7-2.1,3.2-3.7.5-9.6,3.7-5.3-4.3-4.3,3.7-10.6,3.7-8s5.1-8.9.9-12.6-12.6-1.3-12.6-1.3l-4.3-4.3-6.4-3.2-6.9-3.2-13.3-10.6-11.7-15.5,4.8-3.7-10.1-14.4s2.1-6.4.5-9.6,3.2-20.8,2.7-22.9c-.5-2.1,3.2-6.9,3.2-6.9,0,0,2.7-6.4,8.5-9.1s11.2-7.5,11.2-7.5l4.8,1.6s7.5-8.5,11.2-17.1c3.7-8.5,4.3-22.4,11.2-29.8,6.9-7.5,20.8-24,26.6-25.6,5.9-1.6,10.1-6.4,10.1-6.4l-.5-2.7,5.9,1.1h5.9l2.7-3.7-3.7-2.7h10.1l3.7-3.7,6.9-2.1s14.4,15.4,32,18.6"/>
  <path class="cls-17" d="M313.1,324.1h18.1c5.9,0,8-8,26.1-4.3s25,3.2,26.1,12.8c1.1,9.6-11.2,8-21.8,9.1-10.7,1.1-19.7,1.1-13.9,14.4s22.4,16,22.4,16l5.3,4.8-6.4,15.5,3.7,4.8-.5,2.7s-20.8-1.6-31.4-.5-26.6-1.1-26.6-1.1l-6.4-3.2s-5.9-11.7-5.3-17.6c.5-5.9,4.8-12.2,1.6-22.9-3.2-10.6-10.1-21.3,9-30.4"/>
  <path class="cls-17" d="M384.4,340.2s-2.4,12.4-10.4,15.2-16.8-7.6-16.8-7.6l-.4-4.8s2.4-1.2,10.4-1.6,14.4,4.4,17.2-1.2"/>
  <path class="cls-10" d="M390.1,173.9s-9.1,7.1-10.1,10.9,0,11-3.6,14.4c-3.6,3.4-4.2,8.2-4.2,8.2,0,0,4.4-2.2,5.4-1.4,1,.8,2.4,7.2,2.4,11.8s-2.4,6.4-2.4,6.4l1,6.4,2.2,16.6s6.2-9.8,9.6-16.8,5.6-10.1,5.6-10.1l2.7-18.6s-3.1-6.4-4.7-7.6-2.3-.9-2.3-.9c0,0-.9-17.3-1.6-19.2"/>
  <path class="cls-10" d="M316.5,171s6-15.6,28-16.2c22-.6,24.2,1.4,31,8s13.6,12.4,13.6,12.4c0,0-8.8,8-9,9.6s-.8,10.4-3.6,14.4-4.2,8.2-4.2,8.2c0,0,1.2,3,1.6,7.4.4,4.4,4,10.8,4,10.8,0,0-15,3.8-28.6-2.8s-23.8-20.4-29-22.4c-5.2-2-12-14-3.8-29.4"/>
  <path class="cls-13" d="M377.6,206c1.4,1.3,2.4,7.8,2.4,11.2s-2.5,7.8-2.5,7.8c0,0-1.9-4.4-4-8.3-5.8-10.9,2.7-12,4.1-10.7"/>
  <path class="cls-4" d="M377.6,206c1.4,1.3,2.4,7.8,2.4,11.2s-2.5,7.8-2.5,7.8c0,0-1.9-4.4-4-8.3-5.8-10.9,2.7-12,4.1-10.7h0Z"/>
  <path class="cls-14" d="M328.4,400.6s48.7-.4,61.9-2.8,25.2,7.2,25.2,7.2c0,0-8,4-17.6,8.4-9.6,4.4-27.2,4-52.3-4-25.2-8-26.6-10.1-26.6-10.1l9.5,1.3h0Z"/>
  <path class="cls-14" d="M335.6,310.7s11.6-3.6,32-2.4c20.4,1.2,34.4,10,36.4,26.4,2,16.4-4.8,21.2-4.8,21.2l-2.8,4.4-6,4.8s.4-28.8-4-33.2c-4.4-4.4-12-10-33.6-12.4s-12,5.2-30,4.4c-18-.8-19.6,6-19.6,6,0,0,6.8-11.6,14-14.4,7.2-2.8,14.4-1.6,14.4-1.6,0,0-.8-1.2,4-3.2"/>
  <path class="cls-23" d="M406.3,360.6s2.4,15.2,9.6,20c7.2,4.8,18,9.6,18,16.4s-10.4,14.4-10.4,14.4l-12-1.2-4.1-1.3,5.7-4.3s.8-7.6-14-10-6-34,7.2-34"/>
  <path class="cls-23" d="M448.3,383s-9.2,12.8-10.4,17.2c-1.2,4.4-4.8,11.2-4.8,11.2l-4-6s13.2-4.8-2.4-17.6-14-15.2-14-15.2c0,0,22.4,17.6,35.5,10.4"/>
  <path class="cls-10" d="M518.6,391.4s15.6-11.6,18-17.2c2.4-5.6-5.2,18.8-5.2,30s.4,8.8.4,8.8c0,0,3.2-17.6,12-37.1,8.8-19.6,5.2-22.8,5.2-22.8,0,0-8.8,15.6-30.4,38.4"/>
  <path class="cls-14" d="M419.1,209.6s-41.5,60.7-47.5,75.5-6.8,19.2-6.8,19.2c0,0,18.8-4,26.4,4.8,7.6,8.8,13.2,20,13.2,20,0,0-9.6-20.8-8.4-29.2,1.2-8.4,4.4-16.8,4.4-16.8l.8-12.4s4.8-16.4,10-25.2c5.2-8.8,19.6-19.6,19.6-19.6,0,0,2.8-20-11.6-16.4"/>
  <path class="cls-23" d="M488.6,151.7s-20.8,12-24.8,28c-4,16-7.6,20.8-7.6,20.8l-3.6,6s-4.4-17.6-.8-25.6c3.6-8,25.7-26.6,36.8-29.2"/>
  <path class="cls-23" d="M493.2,141.8s-20.5,14.4-27.2,19c-6.7,4.7-20.2,13.4-20.2,13.4,0,0,19-13.4,22.1-18s14.4-15.7,14.4-15.7c0,0-6.8,9.7-8.5,11.9s14.2-7.7,19.4-10.6"/>
  <path class="cls-23" d="M397.5,172.8s2.7,23.2,1.6,30.6-4.3,19.7-4.3,19.7c0,0,5.9-11.4,12-15.7,6.1-4.3,13.3-8.5,13.3-8.5,0,0-6.4-2.4-2.7-11.2s2.7-10.1,2.7-10.1c0,0-5.3-6.4-5.1-11.4l.3-5.1-17.8,11.7h0Z"/>
  <path class="cls-23" d="M424.2,158.7s1.6,10.6,4.8,13.3c3.2,2.7,7.5,4.5,7.5,4.5,0,0-6.9.3-7.2,4.5s-1.9,11.4-1.9,11.4c0,0-1.6-4-2.4-12.2s1.1-17.8-.8-21.6"/>
  <path class="cls-23" d="M438.6,146.2s-5.6,9.3-6.4,13.6.3,9.9,3.2,12.8.5,6.1.5,6.1c0,0,2.1-4.8,6.1-6.1,4-1.3.8,1.3-1.6-2.7-2.4-4-5.3-12.2-1.9-23.7"/>
  <path class="cls-18" d="M345.6,179.5s24.2,13.3,29.3,11.4l5.1-1.9s-.8,4-1.6,6.1c-.8,2.1-10.6,1.3-23.2-6.7s-9.6-9.1-9.6-9.1"/>
  <path class="cls-10" d="M595.3,164.1s3.6-26,21.6-34.4,9.6,21.2-21.6,34.4"/>
  <path class="cls-10" d="M447.5,232.8l34-2.8s-10,6.8-15.6,19.2c-5.6,12.4-26,17.6-30,26.4s4,36,9.2,38.8c5.2,2.8-14.4,6-21.6,2s-9.5-8.1-9.5-8.1l2.7-3.5s-8-13.6-8.8-22,2.4-48.9,39.5-49.9"/>
  <path class="cls-13" d="M495.8,205.6s5.5-10.4,11.9-10.7c6.4-.3,13.6,2.3,15.5,6s2.7,14-4.7,15.4c-7.4,1.4-16.2-1.1-22.7-10.7"/>
  <path class="cls-4" d="M495.8,205.6s5.5-10.4,11.9-10.7c6.4-.3,13.6,2.3,15.5,6s2.7,14-4.7,15.4c-7.4,1.4-16.2-1.1-22.7-10.7h0Z"/>
  <path class="cls-10" d="M501,193.2s7.1-2.5,14.3.1c7.2,2.6,11.4,6.1,12,9,.6,2.9-2.1,1.2-2.2,2.7v1.5c0,0,1.3-7.5-9.3-10.4s-13.4-4-14.8-2.9"/>
  <path class="cls-10" d="M494.9,212.9s12.6,8.3,21.8,6.8c9.2-1.5,8.1-7.1,8.1-7.1,0,0-3.1,3-7.5,4.1-4.4,1.1-11.8-1.2-16.6-5.9s-5.8,2.1-5.8,2.1"/>
  <path class="cls-10" d="M493.3,175s15.7-10.2,23.3-4.5c7.6,5.7,13.6,24.6,14.5,25.4s-1.7-2.8-12.1-10.9-18.8-10.8-22.1-7.1c-3.3,3.7-3.6-2.9-3.6-2.9"/>
  <path class="cls-10" d="M467.5,380s25-5.2,37.4-18.2c12.4-13,23.4-44.4,23.4-44.4,0,0-11,36.5-13.6,41.4-2.6,4.8,5.2-1.4,7-8.6s6.2-19.4,6.2-19.4c0,0-8.8,25.6-8.4,28.6.4,3,5.6-6.4,7.4-11.8,1.8-5.4,11.4-39.5,11.4-39.5,0,0-13.8,50.1-14.4,52.5-.6,2.4,6.8-9.6,6.8-9.6,0,0,0,9-8.6,15.2-8.6,6.2-24.2,4-32,13.2-7.8,9.2-9.8,15-9.8,15,0,0,7.4-17.8,18.2-24s11.4-9,11.4-9c0,0-20.8,16.6-42.4,18.6"/>
  <path class="cls-10" d="M541,193.2s0,32.6-.8,39.8-.8,12.4-.8,12.4c0,0,3-23.6,3-30.2s1-16.6,1-16.6c0,0-.4,17,1.8,29,2.2,12,7.4,23,7.4,23,0,0-7.6-22.4-7.4-30.8s1.8-14.6,1.8-14.6c0,0-4.8-9.4-6-12"/>
  <path class="cls-10" d="M523.5,203.4s-5.5-6.2-10.9-5.4c-5.4.8-10.8,6.8-10.8,6.8,0,0,2.6,6.1,4.8,8.3s5.9,3.8,8.3,3.7,12.5-3.8,8.6-13.4"/>
  <path class="cls-13" d="M517.4,207.2c0,.9-.7,1.6-1.5,1.6s-1.5-.7-1.5-1.6.7-1.6,1.5-1.6,1.5.7,1.5,1.6"/>
  <path class="cls-4" d="M517.4,207.2c0,.9-.7,1.6-1.5,1.6s-1.5-.7-1.5-1.6.7-1.6,1.5-1.6,1.5.7,1.5,1.6Z"/>
  <path class="cls-13" d="M503.9,203s3,1,4.2,1.7c1.2.7-.5,2.2-2.2,1.8-1.7-.4-3.1-.3-3.1-.3l-1-1.4,2.1-1.8Z"/>
  <path class="cls-4" d="M503.9,203s3,1,4.2,1.7c1.2.7-.5,2.2-2.2,1.8-1.7-.4-3.1-.3-3.1-.3l-1-1.4,2.1-1.8Z"/>
  <path class="cls-13" d="M578.5,262.1s25.2-13.3,34.5-8c9.3,5.3,15.9,136.7,23.9,151.3s-1.3,21.2-6.6,29.2c-5.3,8-42.5,45.6-92.9,62.4-18.7,6.2-9.4-9.8-9.4-9.8,0,0,69.1-100.4,50.6-225.1"/>
  <path class="cls-3" d="M578.5,262.1s25.2-13.3,34.5-8c9.3,5.3,15.9,136.7,23.9,151.3s-1.3,21.2-6.6,29.2c-5.3,8-42.5,45.6-92.9,62.4-18.7,6.2-9.4-9.8-9.4-9.8,0,0,69.1-100.4,50.6-225.1h0Z"/>
  <path class="cls-10" d="M467.9,412.5s-7.2,13.3-3.5,28.5,14.1,19.4,13.9,35.2c-.3,15.7,1.6,21.6,1.6,21.6,0,0,3.7-5.9,4.8-2.1s1.1,8,1.1,8l2.7-8.8s-1.6-8-3.7-14.4-2.9-9.3-2.9-9.3l1.1-2.9,1.9-3.2s3.5,5.6,10.6,4.3c7.2-1.3,10.9-4.3,10.9-4.3l3.2-1.3s2.4-.5,4.8,3.7c2.4,4.3,13.6,18.6,13.6,18.6,0,0-23.2-43.9-25.6-50.3-2.4-6.4-16.5-21.8-21.8-23.7-5.3-1.9-10.1-.3-12.5.5"/>
  <path class="cls-18" d="M557.1,254.3s9.6,5.3,16.5,5.9c6.9.5,10.7,7.5,10.7,7.5,0,0,13.3,39.4,12.2,78.8-1.1,39.4-27.2,76.7-32,96.4-4.8,19.7-14.2,16-15.6,26.2s-12.6,6.6-15.6,11c-3,4.4-4,10.6-4,10.6l-1.4-3.4s-3.7-45.7-5.5-49.1c-1.9-3.4,15.1-11.8,22.5-34.8,7.4-23,3.6-42,8.9-64.3,5.3-22.4,8.5-75.6,3.2-84.7"/>
  <path class="cls-13" d="M479.9,496.1l1.8,11.9s19-1.3,31-4.9c12-3.5,16.4-4.9,16.4-4.9,0,0-5.3-1.8-3.1-8s-.9-8-.9-8l-13.7-18.6s-7.1,3.5-12.8,4.4c-5.8.9-13.8-3.2-13.8-3.2l-3.9,4.1s6.6,14.6,5.3,21.2-5.8,1.8-6.2,5.8"/>
  <path class="cls-3" d="M479.9,496.1l1.8,11.9s19-1.3,31-4.9c12-3.5,16.4-4.9,16.4-4.9,0,0-5.3-1.8-3.1-8s-.9-8-.9-8l-13.7-18.6s-7.1,3.5-12.8,4.4c-5.8.9-13.8-3.2-13.8-3.2l-3.9,4.1s6.6,14.6,5.3,21.2-5.8,1.8-6.2,5.8h0Z"/>
</svg>