<svg viewBox="0 0 1424.3 566.12" xmlns="http://www.w3.org/2000/svg"><g fill-rule="evenodd"><path d="m77.26 434.6v-100.59c0-24.41 3.62-44.89 10.8-61.46 20.86-48.11 63.1-87.62 120.59-87.62h9.44v66.74h-21.61c-18.16 0-31.61 4.4-40.33 13.12-8.72 8.8-13.12 22.49-13.12 41.29v128.52h-65.78z" fill="#a2d45e"/><path d="m376.8 249.97c-8.87-9.43-20.17-14.14-33.94-14.14-17.53 0-31.05 6.24-40.41 18.73-9.36 12.48-14.08 29.69-14.08 51.61v128.44h-63.86v-322.66h31.93c8.8 0 16.25 3.12 22.57 9.36 6.24 6.24 9.36 13.76 9.36 22.57v74.02c11.28-18.73 27.21-30.57 47.93-35.61.57-.14 1.14-.27 1.71-.4 21.21 12.54 35.02 34.16 38.79 68.07z" fill="#61a60e"/><path d="m381.35 255.51-.22-.3c-2.2-37.05-15.31-60.74-36.43-74.61 17.6-2.83 34.5-1.05 50.73 5.45 17.53 7.52 32.25 19.37 44.09 35.61 11.92 16.32 17.85 38.81 17.85 67.54v145.4h-62.9v-129.4c0-9.36-.8-18-2.32-25.77-1.6-7.84-5.2-15.84-10.8-23.93z" fill="#5b6670"/><path d="m328.39 54.98c106.1 29.78 178.04 121.61 187.59 225.16-14.34-93.35-81.58-174.35-178.43-201.53-132.05-37.07-269.15 39.94-306.21 171.99-36.38 129.63 37.16 264.1 164.78 304.06-2.47-.62-4.95-1.26-7.42-1.96-137.45-38.57-217.59-181.26-179.02-318.71 38.58-137.44 181.27-217.59 318.71-179.01z" fill="#61a60e"/><path d="m518.24 300.42c1.93 27.68-.76 56.15-8.69 84.39-37.06 132.06-174.16 209.06-306.21 172-1.63-.46-3.25-.94-4.86-1.43 130.53 33.83 264.71-42.88 301.32-173.31 7.39-26.33 10.24-52.86 9.03-78.76l9.42-2.9z" fill="#a2d45e"/><g fill="#4c9c2e"><path d="m678.08 262.71c-8.75 13.8-20.1 20.7-34.05 20.7-12.61 0-22.4-4.97-29.38-14.87-7.57-10.39-11.35-25.48-11.35-45.33s3.63-35.39 10.9-45.77c7.27-10.35 17.51-15.54 30.71-15.54 13.95 0 24.93 6.83 32.94 20.48l-15.36 13.35c-5.64-8.9-11.72-13.35-18.25-13.35-12.91 0-19.36 13.5-19.36 40.5s6.68 40.28 20.03 40.28c6.38 0 12.31-4.3 17.8-12.91l15.36 12.46z"/><path d="m770.91 222.32c0 19.99-3.82 35.16-11.46 45.55-7.64 10.35-18.06 15.54-31.27 15.54s-22.55-4.97-29.82-14.87c-7.72-10.39-11.57-25.48-11.57-45.33s3.78-35.31 11.35-46c7.27-10.2 17.58-15.32 30.94-15.32s22.85 4.97 30.27 14.87c7.72 10.68 11.57 25.85 11.57 45.55zm-21.59.55c0-27-6.9-40.5-20.7-40.5s-20.25 13.5-20.25 40.5 6.83 40.28 20.48 40.28c6.53 0 11.57-3.64 15.13-10.91s5.34-17.06 5.34-29.38z"/><path d="m859.06 281.18h-21.37v-71.89c0-9.79-1.07-16.76-3.23-20.92-2.15-4.15-5.9-6.23-11.24-6.23-7.27 0-13.06 3.56-17.36 10.68v88.35h-21.36v-116.84h21.36v8.01c5.49-6.97 13.06-10.46 22.7-10.46 10.98 0 18.8 3.53 23.48 10.57 4.67 7.05 7.01 18.14 7.01 33.27v75.45z"/><path d="m941.65 248.99c0 10.94-3.19 19.44-9.57 25.45-6.38 5.97-15.28 8.98-26.71 8.98-12.61 0-24.56-4.12-35.83-12.39l8.23-17.66c10.68 6.68 19.73 10.02 27.15 10.02 10.24 0 15.36-4.23 15.36-12.68 0-3.86-1.71-7.34-5.12-10.46-2.67-2.37-8.46-6.16-17.36-11.35-8.31-4.9-14.17-9.42-17.58-13.57-4.45-5.49-6.67-12.46-6.67-20.92 0-10.24 2.93-18.21 8.79-23.93 5.86-5.71 14.06-8.57 24.59-8.57 11.72 0 22.33 3.64 31.82 10.91l-8.68 18.03c-8.16-5.79-16.02-8.68-23.59-8.68s-11.57 3.41-11.57 10.2c0 3.56 1.22 6.6 3.67 9.13 2.45 2.52 7.6 6.05 15.47 10.65 9.94 5.79 16.77 10.83 20.48 15.1 4.75 5.64 7.12 12.91 7.12 21.77z"/><path d="m1028.91 281.18h-21.36v-8.01c-5.49 6.82-13.06 10.24-22.7 10.24-10.98 0-18.84-3.64-23.59-10.87-4.6-6.82-6.9-17.8-6.9-32.9v-75.3h21.36v71.89c0 9.79 1.07 16.77 3.23 20.92 2.15 4.15 5.9 6.23 11.24 6.23 7.27 0 13.06-3.56 17.36-10.68v-88.36h21.36z"/><path d="m1068.77 281.18h-21.36v-150.89l21.36-11.13z"/><path d="m1136.45 258.48-2.45 19.62c-5.49 3.52-11.87 5.3-19.14 5.3-14.99 0-22.48-9.9-22.48-29.75v-69.29h-12.68v-20.03h12.68v-33.9l21.37-11.28v45.18h22.48v20.03h-22.48v67.44c0 7.72 2.97 11.57 8.9 11.57 5.34 0 9.94-1.63 13.8-4.9z"/><path d="m1230.84 222.32c0 19.99-3.82 35.16-11.46 45.55-7.64 10.35-18.06 15.54-31.27 15.54s-22.55-4.97-29.82-14.87c-7.71-10.39-11.57-25.48-11.57-45.33s3.79-35.31 11.35-46c7.27-10.2 17.58-15.32 30.94-15.32s22.85 4.97 30.27 14.87c7.72 10.68 11.57 25.85 11.57 45.55zm-21.59.55c0-27-6.9-40.5-20.7-40.5s-20.25 13.5-20.25 40.5 6.83 40.28 20.48 40.28c6.53 0 11.57-3.64 15.13-10.91s5.34-17.06 5.34-29.38z"/><path d="m1302.52 165.9-5.12 21.37c-4.15-2.37-9.12-3.56-14.91-3.56-6.97 0-12.54 3.04-16.69 9.13v88.35h-21.37v-116.84h21.37v8.01c5.49-6.97 12.39-10.46 20.7-10.46 6.38 0 11.72 1.34 16.02 4.01z"/></g></g><path d="m1312.56 164.34h21.37v116.84h-21.37z" fill="#4c9c2e"/><g fill-rule="evenodd"><path d="m1424.3 281.18h-21.36v-8.01c-6.08 6.82-14.1 10.24-24.04 10.24-9.05 0-16.47-3.27-22.26-9.76-6.38-6.97-9.57-16.73-9.57-29.3s3.56-21.81 10.68-28.64c6.82-6.34 15.95-9.53 27.37-9.53 6.53 0 12.47 1.26 17.81 3.78v-11.35c0-11.13-5.05-16.69-15.13-16.69-7.12 0-14.76 2.45-22.92 7.34l-9.12-16.25c11.13-7.42 22.33-11.13 33.6-11.13 12.76 0 21.77 2.6 27.04 7.79s7.9 14.24 7.9 27.15v84.35zm-21.36-27.82v-23.37c-4.9-2.97-10.76-4.45-17.58-4.45-11.28 0-16.91 6.16-16.91 18.47 0 13.5 4.9 20.25 14.69 20.25 9.05 0 15.65-3.63 19.81-10.91z" fill="#4c9c2e"/><path d="m642.26 444.14h-12.52v-4.56c-3.74 3.91-8 5.87-12.78 5.87-13.74 0-20.61-12.11-20.61-36.32 0-11.28 1.87-19.91 5.61-25.91 3.74-5.98 9.04-8.98 15.91-8.98 4.61 0 8.57 1.7 11.87 5.09v-23.63l12.52-6.5v94.95zm-12.52-16.57v-35.48c-2.7-4.09-6.31-6.13-10.83-6.13-6.61 0-9.91 7.52-9.91 22.56 0 16.87 3.52 25.3 10.56 25.3 4.26 0 7.65-2.09 10.18-6.26zm68.88-17.86c0 2.09-.04 3.57-.13 4.44h-35.74c.78 12.95 5.07 19.43 12.87 19.43 4.59 0 8.7-1.69 12.33-5.08l7.67 7.89c-5.48 6.04-12.26 9.06-20.35 9.06s-14.22-3.22-18.65-9.63c-4.35-6.17-6.52-14.72-6.52-25.65 0-11.63 2.26-20.61 6.78-26.96 4.26-5.98 10.13-8.98 17.61-8.98s12.87 2.91 17.22 8.74c4.61 6.35 6.91 15.26 6.91 26.74zm-12.79-6.39c-.17-5.22-1.28-9.41-3.33-12.59-2.04-3.17-4.8-4.76-8.28-4.76-6.61 0-10.44 5.78-11.48 17.35z" fill="#5b6670"/><path d="m815.94 379.39c0 21.36-3.54 37.7-10.62 49.06-7.08 11.32-17.12 17-30.12 17-8.73 0-16.22-3.13-22.47-9.38v42.23l-23.7 12.34v-177.3h23.7v8.64c7.08-7.57 15.14-11.36 24.2-11.36 26.01 0 39.01 22.92 39.01 68.77zm-23.96 1.36c0-31.94-6.67-47.91-20-47.91-8.07 0-14.49 3.95-19.26 11.85v67.17c5.1 7.74 11.94 11.6 20.5 11.6 12.51 0 18.77-14.24 18.77-42.72z" fill="#5b6670"/><path d="m918.44 377.78c0 3.95-.08 6.75-.25 8.4h-67.66c1.48 24.53 9.59 36.79 24.37 36.79 8.68 0 16.46-3.21 23.33-9.63l14.53 14.94c-10.37 11.44-23.21 17.16-38.52 17.16s-26.92-6.09-35.31-18.23c-8.23-11.69-12.35-27.86-12.35-48.56 0-22.02 4.28-39.02 12.84-51.03 8.07-11.32 19.18-17 33.34-17s24.36 5.51 32.6 16.54c8.72 12.02 13.09 28.89 13.09 50.62zm-24.2-12.1c-.33-9.88-2.43-17.82-6.3-23.83s-9.1-9.01-15.68-9.01c-12.51 0-19.75 10.95-21.73 32.84z" fill="#5b6670"/><path d="m997.98 315.06-5.68 23.71c-4.61-2.63-10.13-3.95-16.55-3.95-7.74 0-13.91 3.38-18.52 10.13v98.03h-23.7v-129.64h23.7v8.89c6.09-7.74 13.75-11.61 22.97-11.61 7.08 0 13 1.48 17.78 4.44z" fill="#5b6670"/><path d="m1080.72 407.25c0 12.14-3.54 21.57-10.62 28.23-7.08 6.62-16.96 9.96-29.63 9.96-13.99 0-27.25-4.57-39.76-13.74l9.14-19.59c11.85 7.41 21.9 11.11 30.12 11.11 11.36 0 17.04-4.69 17.04-14.08 0-4.28-1.89-8.15-5.68-11.61-2.96-2.63-9.38-6.83-19.26-12.59-9.22-5.43-15.72-10.45-19.51-15.06-4.94-6.09-7.41-13.83-7.41-23.21 0-11.36 3.25-20.21 9.76-26.54 6.5-6.34 15.6-9.51 27.29-9.51 13 0 24.77 4.03 35.31 12.1l-9.63 20c-9.06-6.42-17.78-9.63-26.17-9.63s-12.84 3.79-12.84 11.32c0 3.95 1.36 7.33 4.08 10.12 2.71 2.8 8.44 6.71 17.16 11.81 11.03 6.42 18.6 12.02 22.72 16.75 5.27 6.26 7.9 14.32 7.9 24.16z" fill="#5b6670"/><path d="m1184.21 377.66c0 22.18-4.24 39.02-12.72 50.54-8.48 11.48-20.04 17.24-34.69 17.24s-25.02-5.51-33.09-16.5c-8.56-11.52-12.84-28.27-12.84-50.29s4.2-39.18 12.59-51.03c8.07-11.32 19.51-17 34.32-17s25.35 5.51 33.58 16.5c8.56 11.85 12.84 28.68 12.84 50.54zm-23.95.62c0-29.96-7.65-44.94-22.96-44.94s-22.47 14.98-22.47 44.94 7.57 44.69 22.72 44.69c7.24 0 12.84-4.03 16.79-12.1s5.92-18.93 5.92-32.6z" fill="#5b6670"/><path d="m1282.02 442.98h-23.7v-79.76c0-10.87-1.19-18.6-3.58-23.21s-6.54-6.91-12.47-6.91c-8.07 0-14.49 3.95-19.26 11.85v98.03h-23.7v-129.64h23.7v8.89c6.09-7.74 14.49-11.61 25.19-11.61 12.18 0 20.87 3.91 26.05 11.73 5.19 7.82 7.78 20.13 7.78 36.92v83.71z" fill="#5b6670"/><path d="m1380.32 442.98h-23.7v-8.89c-6.75 7.57-15.64 11.36-26.67 11.36-10.04 0-18.27-3.62-24.69-10.82-7.08-7.74-10.62-18.56-10.62-32.51s3.95-24.2 11.85-31.77c7.57-7.04 17.7-10.58 30.37-10.58 7.24 0 13.83 1.4 19.76 4.2v-12.59c0-12.35-5.6-18.52-16.79-18.52-7.9 0-16.38 2.72-25.43 8.15l-10.12-18.03c12.35-8.23 24.77-12.35 37.29-12.35 14.16 0 24.16 2.88 30 8.64 5.85 5.76 8.77 15.8 8.77 30.13v93.59zm-23.7-30.87v-25.93c-5.43-3.29-11.93-4.94-19.51-4.94-12.51 0-18.77 6.83-18.77 20.49 0 14.98 5.43 22.47 16.3 22.47 10.04 0 17.37-4.03 21.98-12.1z" fill="#5b6670"/><path d="m1424.3 442.98h-29.11v-167.43l29.11-12.34z" fill="#5b6670"/><path d="m1315.57 119.77-1.81 34.55h14.42l15.63-35.16z" fill="#4c9c2e"/><path d="m108.86 1.89c40.18 0 72.76 32.58 72.76 72.76s-32.58 72.76-72.76 72.76-72.76-32.57-72.76-72.76 32.58-72.76 72.76-72.76z" fill="#fff"/><path d="m108.86 11.13c35.08 0 63.52 28.44 63.52 63.53s-28.44 63.53-63.52 63.53-63.53-28.44-63.53-63.53 28.45-63.53 63.53-63.53z" fill="#5b6670"/></g><path d="m77.26 183.53h65.78v138.94h-65.78z" fill="#a2d45e"/><circle cx="256.9" cy="71.7" fill="#fff" r="71.7"/><path d="m256.9 9.1c34.57 0 62.6 28.02 62.6 62.6s-28.03 62.6-62.6 62.6-62.6-28.03-62.6-62.6 28.03-62.6 62.6-62.6z" fill="#5b6670" fill-rule="evenodd"/><path d="m173.19 39.77h19.28v48.19h-19.28z" fill="#fff"/><path d="m394.21 153.02v-84.46l25.39 15.63v102.4l-10.03-3.66c-20.93-7.63-44.6-12.97-66.9-9.29l-4.15.69-22.44-26.18 15.45-.6c21.25-.82 42.5-.94 62.68 5.47z" fill="#fff" fill-rule="evenodd"/><path d="m331.81 155.02 9.64 11.24c21.31-3.52 45.08.31 70.67 9.64v-87.54l-10.44-6.42v81.92c-21.91-9.85-45.81-9.76-69.87-8.83z" fill="#5b6670" fill-rule="evenodd"/><path d="m77.26 437.73h65.78v19.23h-65.78z" fill="#a2d45e"/><path d="m224.33 437.73h64.21v19.23h-64.21z" fill="#a2d45e"/><path d="m393.16 437.73h64.2v19.23h-64.2z" fill="#a2d45e"/></svg>