<svg viewBox="0 0 511.93 742.46" xmlns="http://www.w3.org/2000/svg"><path d="m48.92 552.27v-134.05h-20.79c-15.54 0-28.13-12.59-28.13-28.13s132.1 0 132.1 0v28.13h-49.17v134.05h-34z"/><path d="m196.17 552.27c-.49-1.63-.89-3.3-1.21-5.01-.33-1.71-.57-3.63-.73-5.75-3.75 4.24-8.68 7.62-14.8 10.15s-13.33 3.79-21.65 3.79c-13.86 0-24.01-3.06-30.46-9.17-6.44-6.12-9.66-14.07-9.66-23.85 0-8.64 1.39-15.53 4.16-20.67s6.6-9.17 11.5-12.11c4.89-2.94 10.72-5.09 17.49-6.48 6.77-1.38 14.15-2.65 22.14-3.79s13.37-2.65 16.14-4.53c2.77-1.87 4.16-4.93 4.16-9.17 0-3.91-1.84-6.97-5.51-9.17s-8.6-3.3-14.8-3.3c-7.34 0-12.6 1.63-15.78 4.89s-5.18 7.58-5.99 12.97h-29.6c.16-6.2 1.18-11.9 3.06-17.12 1.87-5.22 4.89-9.7 9.05-13.45s9.57-6.64 16.25-8.68c6.67-2.04 14.81-3.06 24.4-3.06s17.43 1.06 24.01 3.18 11.87 5.18 15.85 9.17c3.98 4 6.86 8.97 8.65 14.92 1.79 5.96 2.68 12.68 2.68 20.18v76.08h-29.37zm-2.18-58.95c-1.63 1.63-4 2.94-7.09 3.91-3.1.98-7.58 2.04-13.46 3.18-9.13 1.8-15.41 4.08-18.83 6.85-3.42 2.78-5.14 6.77-5.14 11.99 0 8.97 5.14 13.46 15.41 13.46 4.07 0 7.87-.69 11.37-2.08 3.51-1.38 6.52-3.26 9.05-5.63 2.53-2.36 4.56-5.14 6.12-8.32 1.55-3.18 2.32-6.56 2.32-10.15l.24-13.21z"/><path d="m315.56 552.27v-72.9c0-9.29-1.55-15.57-4.65-18.84-3.1-3.26-8.4-4.89-15.9-4.89-16.47 0-24.71 9.21-24.71 27.64v68.98h-31.8v-120.35h30.33v17.56c3.74-6.91 8.69-12.13 14.87-15.67s14.15-5.31 23.9-5.31c5.69 0 10.97.86 15.85 2.58s9.07 4.29 12.56 7.72 6.26 7.64 8.29 12.62 3.05 10.74 3.05 17.28v83.58h-31.8z"/><path d="m361.06 417.48v-29.6h31.8v29.6zm0 134.79v-120.35h31.8v120.35z"/><path d="m481.64 552.27c-.49-1.63-.89-3.3-1.21-5.01-.33-1.71-.57-3.63-.73-5.75-3.75 4.24-8.68 7.62-14.8 10.15s-13.33 3.79-21.65 3.79c-13.86 0-24.01-3.06-30.46-9.17-6.44-6.12-9.66-14.07-9.66-23.85 0-8.64 1.39-15.53 4.16-20.67s6.6-9.17 11.5-12.11c4.89-2.94 10.72-5.09 17.49-6.48 6.77-1.38 14.15-2.65 22.14-3.79s13.37-2.65 16.14-4.53c2.77-1.87 4.16-4.93 4.16-9.17 0-3.91-1.84-6.97-5.51-9.17s-8.6-3.3-14.8-3.3c-7.34 0-12.6 1.63-15.78 4.89s-5.18 7.58-5.99 12.97h-29.6c.16-6.2 1.18-11.9 3.06-17.12 1.87-5.22 4.89-9.7 9.05-13.45s9.57-6.64 16.25-8.68c6.67-2.04 14.81-3.06 24.4-3.06s17.43 1.06 24.01 3.18 11.87 5.18 15.85 9.17c3.98 4 6.86 8.97 8.65 14.92 1.79 5.96 2.68 12.68 2.68 20.18v76.08h-29.37zm-2.19-58.95c-1.63 1.63-4 2.94-7.09 3.91-3.1.98-7.58 2.04-13.46 3.18-9.13 1.8-15.41 4.08-18.83 6.85-3.42 2.78-5.14 6.77-5.14 11.99 0 8.97 5.14 13.46 15.41 13.46 4.07 0 7.87-.69 11.37-2.08 3.51-1.38 6.52-3.26 9.05-5.63 2.53-2.36 4.56-5.14 6.12-8.32 1.55-3.18 2.32-6.56 2.32-10.15l.24-13.21z"/><path d="m60.37 730.93c-3.77 5.54-11.53 11.53-26.61 11.53-5.99 0-13.08-1.11-17.96-3.77-1.11-.67-2.88-1.77-5.1-3.77-3.55-3.11-5.99-6.65-7.76-11.31-1.55-4.44-1.77-7.98-1.77-12.64v-22.18h10.87v12.64c0 3.33-.22 6.43 0 9.76.44 7.54 2.88 21.73 23.07 21.73 1.77 0 6.65 0 11.31-2.88 5.54-3.33 8.65-9.98 8.65-22.84 0-12.2-2.66-17.74-5.54-22.4-5.77-8.87-16.19-18.85-17.74-20.18-9.09-8.87-14.64-15.08-17.96-19.74-3.77-5.1-8.87-13.97-8.87-29.05 0-.89 0-7.32.89-11.75 1.55-8.87 6.65-22.84 28.61-22.84 2.44 0 11.31 0 18.41 4.44 10.87 7.1 10.87 20.4 10.87 31.71v11.31h-10.65v-13.97c0-5.54 0-7.32-.67-10.42-.89-5.32-4.21-13.75-17.74-13.75-1.55 0-6.65 0-11.09 2.66-4.88 3.11-7.76 9.31-7.76 20.85 0 14.86 3.99 20.85 13.53 31.71 3.33 3.99 6.88 7.76 10.65 11.75 5.54 5.54 11.09 10.87 15.97 17.08 7.76 9.76 9.98 18.41 9.98 30.83 0 13.08-2.44 20.85-5.54 25.5z"/><path d="m127.57 736.91c-1.55-1.33-2.22-2.22-3.11-5.54-3.11 2.44-10.2 8.65-21.51 8.65-15.53 0-21.73-12.42-21.73-26.17 0-8.65 2.22-14.19 3.99-17.52 6.43-11.75 18.63-16.19 29.27-22.18 4.44-2.44 5.99-3.33 9.76-6.43v-12.64c0-5.77.22-12.42-5.32-16.19-2.66-2-5.54-2-8.87-2-8.2 0-11.09 3.55-12.64 7.1-2.44 5.32-2.22 13.08-2 18.85h-9.54c0-12.2 0-17.08 2.66-22.84 5.54-12.42 19.3-12.2 22.84-12.2 4.66 0 8.87.89 13.08 3.11 8.65 4.88 9.54 12.64 9.54 21.51v74.96c.44 3.99 3.55 3.77 6.65 3.77v8.87c-7.1 0-10.42-.67-13.08-3.11zm-3.1-58.77c-2.22 1.77-4.66 3.33-7.1 4.66-3.77 2.22-7.54 3.99-11.09 5.99-10.2 6.21-15.53 13.08-15.53 25.28 0 3.55.67 17.08 14.64 17.08 8.65 0 13.75-4.66 19.07-10.42v-42.58z"/><path d="m198.32 740.02v-89.38c-.22-.89-.22-3.99-1.11-6.87-1.11-2.88-4.44-8.65-12.64-8.43-6.43 0-12.2 3.33-15.75 8.43-1.11 1.55-1.55 2.44-2.88 5.54v90.71h-9.32v-111.55h9.32v10.64c1.77-2.88 3.11-4.21 4.21-5.32 5.99-5.99 13.31-6.65 16.41-6.65 9.09.22 17.3 4.66 19.96 14.19.89 3.11 1.11 5.99 1.11 9.09v89.6h-9.32z"/><path d="m271.51 740.02v-11.75c-.89 2-2.22 3.55-3.55 5.1-2.22 2.66-7.32 7.54-16.86 7.54-2.88 0-11.98-.67-17.52-8.65-4.21-5.99-4.66-12.86-4.66-19.52v-56.11c0-3.1-.67-16.86 9.76-24.17 2-1.55 6.21-3.99 12.64-3.99 11.98 0 17.08 7.32 19.74 10.42v-55.44h9.32v156.57zm-.44-82.94c-.44-2-1.33-12.64-9.09-17.52-2.66-1.55-5.32-2.22-8.43-2.22-7.1 0-12.42 4.88-14.41 11.31-.89 2.66-.89 5.54-.89 8.21v54.11c0 6.87.22 13.31 5.77 18.19 2.66 2.22 5.99 3.33 9.53 3.33 9.54 0 15.97-7.76 17.52-16.19v-59.21z"/><path d="m351.35 722.94c-4.66 16.19-19.96 17.52-24.84 17.52-9.53 0-19.96-4.21-23.73-13.75-1.77-4.21-2-9.09-2-13.53v-58.55c0-6.65.44-11.31 4.66-16.86 3.11-4.44 9.76-9.98 22.18-9.98 6.88 0 13.53 1.55 18.63 6.43 2.22 2.22 3.99 5.32 5.1 8.21 1.55 4.44 1.55 8.43 1.55 12.86v53.23c0 5.1-.22 9.98-1.55 14.42zm-7.98-66.75c0-6.43-.67-12.42-6.43-16.41-1.77-1.33-4.66-2.66-9.32-2.66-1.77 0-6.65 0-10.64 3.11-6.65 4.88-6.65 11.75-6.65 18.85v53.89c0 1.11 0 4.44.66 7.32 2 7.54 7.99 11.09 15.52 11.09 9.98 0 13.75-5.77 15.3-9.54.89-2.22 1.55-4.66 1.55-9.76v-55.89z"/><path d="m396.6 740.02h-10.87l-21.07-111.55h9.76l16.85 96.92 16.41-96.92h10.2l-21.29 111.55z"/><path d="m474.22 736.91c-1.55-1.33-2.22-2.22-3.11-5.54-3.11 2.44-10.2 8.65-21.51 8.65-15.53 0-21.73-12.42-21.73-26.17 0-8.65 2.22-14.19 3.99-17.52 6.43-11.75 18.63-16.19 29.27-22.18 4.44-2.44 5.99-3.33 9.76-6.43v-12.64c0-5.77.22-12.42-5.32-16.19-2.66-2-5.54-2-8.87-2-8.2 0-11.09 3.55-12.64 7.1-2.44 5.32-2.22 13.08-2 18.85h-9.54c0-12.2 0-17.08 2.66-22.84 5.54-12.42 19.3-12.2 22.84-12.2 4.66 0 8.87.89 13.08 3.11 8.65 4.88 9.54 12.64 9.54 21.51v74.96c.44 3.99 3.55 3.77 6.65 3.77v8.87c-7.1 0-10.42-.67-13.08-3.11zm-3.1-58.77c-2.22 1.77-4.66 3.33-7.1 4.66-3.77 2.22-7.54 3.99-11.09 5.99-10.2 6.21-15.53 13.08-15.53 25.28 0 3.55.67 17.08 14.64 17.08 8.65 0 13.75-4.66 19.07-10.42v-42.58z"/><path d="m502.61 740.02v-156.57h9.31v156.57z"/><path d="m403.43 84.88v14.39h59.28v-10.92c0-52.7-28.21-83.96-83.14-87.06v49.87c15.28 2.27 23.86 12.2 23.86 33.71z"/><path d="m394.31 140.2c-31.15-23.73-45.88-28.73-51.17-40.83h-64.59c3.14 30.72 21.24 41.37 68.45 77.55 41.05 31.26 53.58 50.11 53.58 75.42s-12.54 33.74-32.49 33.74-32.49-8.93-32.49-33.74v-24.81h-59.28v21.33c0 55.58 31.92 87.33 93.48 87.33s93.48-31.76 93.48-87.33c0-39.69-16.53-68.47-68.97-108.66z"/><path d="m166.6 335.08v-270.47h-48.29c-35.69 0-64.61-28.93-64.61-64.61s343.51 0 343.51 0c35.69 0 64.61 28.93 64.61 64.61s-227.59 0-227.59 0v270.46h-67.63z"/></svg>