<svg viewBox="0 0 1596.36 425.54" xmlns="http://www.w3.org/2000/svg"><g fill="#28245f"><path d="m1557.55 403.21c0-11 8.92-19.1 19.45-19.1s19.36 8.11 19.36 19.1-8.92 19.2-19.36 19.2-19.45-8.11-19.45-19.2zm19.46 16.01c8.66 0 15.5-6.79 15.5-16.01s-6.84-15.91-15.5-15.91-15.6 6.84-15.6 15.91 6.84 16.01 15.6 16.01zm-3.38-6.39h-2.9v-19.15h7.29c4.52 0 6.76 1.67 6.76 5.45 0 3.43-2.15 4.92-4.96 5.27l5.45 8.43h-3.25l-5.05-8.3h-3.34zm3.44-10.79c2.52 0 4.77-.18 4.77-3.2 0-2.43-2.21-2.88-4.28-2.88h-4.05v6.08z"/><path d="m1421.82 193.46v-39.68c0-21.28-7.89-43.42-40.36-43.42-12.29 0-24 3.14-32.63 8.12v15.63c7.7-6.19 20.44-9.94 29.8-9.94 21.7 0 24.09 16.23 24.09 25.01v2.19c-40.97-.22-63.78 13.8-63.78 39.47 0 15.36 10.97 30.47 32.43 30.47 15.14 0 26.54-7.45 32.45-15.79h.65l1.54 13.36h17.55c-1.32-7.22-1.76-16.23-1.76-25.42zm-18.62-10.31c0 1.96-.47 4.15-1.11 6.15-3.08 8.97-11.86 17.75-25.65 17.75-9.86 0-18.2-5.91-18.2-18.4 0-20.61 23.89-24.33 44.96-23.91v18.42z"/><path d="m742.03 73.27h19.29v19.29h-19.29z"/><path d="m742.02 112.79v106.11h19.29v-106.11z"/><path d="m1172.22 73.27h19.29v19.29h-19.29z"/><path d="m1172.21 112.79v106.11s19.29 0 19.29 0v-106.11z"/><path d="m575.49 71.11v87.49c0 32.67-14.03 47.14-35.95 47.14-19.72 0-34.43-14.03-34.43-47.14v-87.49h-19.29v87.06c0 45.81 22.81 63.14 53.06 63.14 32 0 55.91-18.64 55.91-64.03v-86.17h-19.31z"/><path d="m676.95 110.36c-17.53 0-29.82 9.86-35.08 19.96h-.43l-1.09-17.55h-17.11c.65 8.77.87 17.77.87 28.72v77.41h19.31v-63.81c0-3.28.44-6.56 1.31-8.99 3.3-10.73 13.16-19.73 25.87-19.73 18.2 0 24.57 14.25 24.57 31.35v61.19h19.29v-63.38c0-36.39-22.81-45.16-37.49-45.16z"/><path d="m860.58 112.79-20.61 59.64c-3.52 9.65-6.58 18.42-8.99 27.18h-.65c-2.19-8.76-5.04-17.53-8.56-27.18l-20.98-59.66-20.46.02 40.36 106.13h18.42l41.64-106.13h-20.16z"/><path d="m1052.89 110.36c-12.98 0-23.77 7.49-28.71 19.96h-.44l-1.09-17.55h-17.11c.65 9.86.87 20.61.87 33.1v73.02h19.07v-56.58c0-3.28.45-6.35.89-8.97 2.63-14.49 12.27-24.78 25.87-24.78 2.63 0 4.6.22 6.58.65v-18.18c-1.76-.45-3.75-.67-5.94-.67z"/><path d="m1541.59 191.49v-128.27h-19.31v63.36h-.44c-4.82-8.56-15.77-16.23-32.02-16.23-25.87 0-47.79 21.1-47.57 56.41 0 32.22 19.74 54.54 45.38 54.54 17.33 0 30.26-8.99 36.19-20.83h.44l.89 18.42h17.31c-.65-7.23-.87-17.98-.87-27.41zm-19.31-17.1c0 3.06-.22 5.69-.87 8.32-3.52 14.47-15.34 23.51-28.28 23.51-20.83 0-31.36-20.13-31.36-41.64 0-23.46 11.84-40.39 31.8-40.39 14.47 0 25 11.38 27.85 23.65.65 2.41.87 5.71.87 8.12v18.42z"/><path d="m1073.96 211.71v-18.17c10.37 7.62 26.4 12.64 37.28 12.64 12.27.04 20.84-6.24 20.84-16.42s-11.38-13.84-25.55-18.01c-17.31-5.1-33.6-12.6-33.6-31.59s15.73-29.8 39.12-29.8c11.58 0 23.2 4.09 29.63 8.13v15.61s-14.35-9.91-30.9-9.91c-11.99 0-21.13 6.17-21.13 14.58s9.29 12.69 24.38 17.37c17.08 5.29 34.6 11.44 34.6 32.01s-15.95 33.17-40.21 33.17c-9.86 0-21.79-2.88-34.46-9.6z"/><path d="m1043.03 295h-34.4v-28.34h34.4zm-34.4 16.62h34.4v110.79h-34.4z"/><path d="m1417.13 295h-34.4v-28.34h34.4zm-34.4 16.62h34.4v110.79h-34.4z"/><path d="m1070.9 261.55h34.4v160.86h-34.4z"/><path d="m813.03 346.96c0-13.82-.45-25.6-.91-35.34h29.9l1.59 14.95h.68c4.76-7.02 13.99-18.08 33.53-18.08 14.84 0 25.6 7.89 30.36 19.44h.85c7.95-10.66 18.73-19.44 35.68-19.44 20.65 0 38.42 15.59 38.42 48.67v65.25h-34.42v-62.44c0-16.09-5.21-25.38-16.31-25.38-10.28 0-17.22 9.24-17.22 20.84v66.98h-34.42v-64.26c0-14.04-4.99-23.56-15.86-23.56s-17.44 9.74-17.44 21.07v66.75h-34.44v-75.45z"/><path d="m1252.12 346.96c0-13.82-.45-25.6-.91-35.34h29.91l1.59 15.18h.68c4.53-7.02 15.39-18.31 34.21-18.31 23.45 0 39.65 15.59 39.65 48.22v65.7h-34.44v-63.81c0-14.27-4.99-24.01-17.45-24.01-11.53 0-18.8 10.02-18.8 21.52v66.3h-34.44z"/><path d="m1496.22 308.49c-35.57 0-59.13 23.13-59.13 59.32s24.92 57.73 57.32 57.73c29.68 0 57.27-18.78 57.27-59.79 0-33.67-21.47-57.26-55.46-57.26zm-.91 90.95c-14.73 0-22.66-13.38-22.66-32.41s7.93-32.41 22.66-32.41 22.66 13.38 22.66 32.41-7.93 32.41-22.66 32.41z"/><path d="m1315.28 191.49v-128.27h-19.31v63.36h-.44c-4.82-8.56-15.77-16.23-32.02-16.23-25.87 0-47.79 21.1-47.57 56.41 0 32.22 19.74 54.54 45.38 54.54 17.33 0 30.26-8.99 36.19-20.83h.44l.89 18.42h17.31c-.65-7.23-.87-17.98-.87-27.41zm-19.31-17.1c0 3.06-.22 5.69-.87 8.32-3.52 14.47-15.34 23.51-28.28 23.51-20.83 0-31.36-20.13-31.36-41.64 0-23.46 11.84-40.39 31.8-40.39 14.47 0 25 11.38 27.85 23.65.65 2.41.87 5.71.87 8.12v18.42z"/><path d="m586.49 269.71h-117.36v29h41.46v123.7h34.44v-123.7h41.46z"/><path d="m697.87 367.01c0 35.26 24.7 58.52 61.27 58.52 11.93 0 22.12-1.85 28.61-4.29v-26.67c-5.31 3.14-13.66 4.84-22.47 4.84-17.68 0-31.75-10.99-31.75-32.41s14.07-32.41 31.75-32.41c8.82 0 17.16 1.7 22.47 4.84v-26.67c-6.49-2.44-16.68-4.29-28.61-4.29-36.57 0-61.27 23.26-61.27 58.52z"/><path d="m982.54 160.37c0-19.53-9.17-50-43.84-50-30.91 0-49.76 25.24-49.76 57.23s19.19 53.72 52.73 53.72c20.78 0 33.09-7.77 33.09-7.77v-18.17s-13.12 10.82-31.81 10.82c-17.31 0-35.16-10.73-35.6-36.84h74.55c.2-1.98.63-5.04.63-8.99zm-18.62-4.83h-56.35c1.54-13.36 10.08-31.35 29.59-31.35 21.72 0 26.96 19.07 26.76 31.35z"/><path d="m681.84 364.38c0-27.72-14.92-55.89-50.69-55.89-38.49 0-55.92 31.39-55.92 59.79 0 33.78 26.08 57.25 62.3 57.25 12.76 0 26.56-2.47 35.8-7.89v-25.42c-7.87 5.12-20.29 7.21-29.73 7.21-17.43 0-31.72-6.15-33.63-21.29h70.73c.46-2.52 1.14-7.8 1.14-13.76zm-71.87-7.13c.87-9.37 6.67-22.66 20.95-22.66 15.58 0 19.16 14.19 19.16 22.66z"/><path d="m1231.87 364.38c0-27.72-14.92-55.89-50.69-55.89-38.49 0-55.92 31.39-55.92 59.79 0 33.78 26.08 57.25 62.3 57.25 12.76 0 26.56-2.47 35.8-7.89v-25.42c-7.87 5.12-20.29 7.21-29.73 7.21-17.43 0-31.72-6.15-33.63-21.29h70.73c.46-2.52 1.14-7.8 1.14-13.76zm-71.88-7.13c.87-9.37 6.67-22.66 20.95-22.66 15.58 0 19.16 14.19 19.16 22.66z"/></g><path d="m409.47 29.96v-29.96h-9.43c-75.78 0-144.64 30.18-195.3 79.06-50.67-48.88-119.53-79.06-195.31-79.06h-9.43v29.96h9.39c67.92 0 129.63 27.09 174.91 70.97-8.89 10.69-17.02 22.01-24.35 33.87-38.23-39.21-91.54-63.65-150.52-63.69h-9.43v29.96h9.39c51.83 0 100.62 22.14 135.61 61.63-6.92 14.78-12.58 30.18-16.84 46.22-24.48-39.93-68.54-66.66-118.72-66.66h-9.44v29.96h9.39c60.24 0 109.24 49.01 109.24 109.24v140.95h29.96v-140.95c0-31.85 5.97-62.3 16.8-90.37 15.45 26.59 24.35 57.45 24.35 90.37v140.95h30v-140.95c0-32.92 8.89-63.78 24.35-90.37 10.83 28.07 16.8 58.53 16.8 90.37v140.95h29.96v-140.95c0-60.23 49-109.24 109.24-109.24h9.39v-29.96h-9.43c-50.17 0-94.24 26.73-118.72 66.66-4.27-16.04-9.93-31.44-16.84-46.22 34.99-39.48 83.77-61.63 135.61-61.63h9.39v-29.96h-9.43c-58.98.05-112.3 24.48-150.52 63.69-7.32-11.86-15.45-23.18-24.35-33.87 45.28-43.89 106.99-70.97 174.91-70.97h9.39zm-180.34 129.23c-9.84 13.74-18.06 28.66-24.39 44.51-6.33-15.86-14.55-30.77-24.39-44.51 7.1-12.67 15.27-24.71 24.39-35.93 9.12 11.23 17.29 23.27 24.39 35.93z" fill="#379345"/></svg>