<svg viewBox="0 0 824.83 656.77" xmlns="http://www.w3.org/2000/svg"><g fill="#5e5f5f"><path d="m530.15 656.77v-45.61h25.15c5.87 0 9.92 1.61 12.78 4.61 2.24 2.37 3.49 5.45 3.49 8.94 0 6.14-4.19 10.96-10.62 12.71l11.24 19.35h-6.92l-10.47-18.58h-18.58v18.58h-6.08zm6.09-40.24v16.28h20.6c5.03 0 8.73-3.71 8.73-8.18 0-2.02-.83-3.91-2.16-5.3-2.24-2.24-4.96-2.8-8.11-2.8z"/><path d="m388.87 656.77 21.16-45.61h5.73l21.17 45.61h-6.64l-6.22-13.69h-22.77l-6.14 13.69zm14.6-18.58h18.44l-9.02-19.91h-.42l-9.01 19.91z"/><path d="m252.62 656.77v-45.61h26.47c5.1 0 8.74 1.61 11.11 3.99 1.95 1.95 3.08 4.39 3.08 7.19 0 4.4-2.73 8.38-6.5 9.64 5.52 1.12 8.87 5.87 8.87 11.46 0 3.29-1.19 6.64-4.12 9.43-2.44 2.3-5.65 3.91-11.73 3.91h-27.18zm6.08-40.24v14.18h20.61c2.17 0 4.12-.63 5.52-2.02s2.17-3.28 2.17-5.24c0-1.82-.7-3.42-1.89-4.68-1.61-1.54-3.77-2.24-6.64-2.24zm0 19.07v15.78h21.31c2.66 0 5.24-.77 6.99-2.52 1.54-1.46 2.38-3.49 2.38-5.52s-.84-3.77-2.17-5.1c-1.54-1.61-3.77-2.65-6.29-2.65h-22.22z"/><path d="m215.67 581.78c-2.54-.33-5.51-2.31-8.82-5.86-3.5-3.75-8.11-10.17-13.71-19.08l-7.41-11.82c5.45-2.11 9.71-4.99 12.68-8.59 3.34-4.06 5.03-8.99 5.03-14.67 0-9.19-3.79-16.13-11.27-20.63-7.22-4.34-18.32-6.54-32.99-6.54h-31.62v6.17h2.99c3.44 0 5.92.68 7.38 2.03 1.42 1.31 2.14 3.57 2.14 6.71v61.51c0 3.13-.71 5.37-2.1 6.64-1.44 1.31-3.93 1.97-7.42 1.97h-2.99v6.17h40.48v-6.17h-3.44c-3.26 0-5.62-.67-7.01-1.98-1.37-1.3-2.06-3.53-2.06-6.63v-21.61c.23 0 .48.02.75.03 1.06.04 1.85.06 2.39.06 1.61 0 3.63-.04 6.09-.13 2.4-.09 3.98-.13 4.75-.13.88 0 1.57.07 2.07.23.35.1.61.24.71.35.58.72 2.19 3.16 6.6 10.73 3.61 6.21 7.25 11.54 10.84 15.87 3.14 3.68 6.73 6.5 10.67 8.39 3.95 1.9 8.32 2.86 12.96 2.86h3.3l.53-5.71-1.5-.2zm-51.59-38.31h-8.55v-41.77c.91-.03 2.47-.05 4.85.04 1.25.04 2.1.06 2.54.06 7.42 0 13.18 1.85 17.12 5.48 3.9 3.61 5.88 8.94 5.88 15.84 0 6.44-1.86 11.33-5.7 14.94-3.8 3.59-9.24 5.41-16.14 5.41z"/><path d="m578.69 519.71c-2.76-5.89-6.79-11.03-11.97-15.29-4.63-3.8-10.04-6.75-16.1-8.78-12.4-4.16-27.08-4.04-38.84.34-6.05 2.25-11.54 5.61-16.3 9.98-5.17 4.64-9.22 10.16-12.02 16.39-2.81 6.23-4.23 12.8-4.23 19.54s1.42 13.02 4.22 18.89c2.78 5.87 6.85 11.07 12.08 15.46 4.52 3.77 9.84 6.69 15.82 8.7 5.96 2 12.39 3.02 19.1 3.02 7.07 0 13.64-1.08 19.53-3.22 5.9-2.14 11.37-5.42 16.27-9.74 5.3-4.68 9.44-10.22 12.29-16.45 2.85-6.25 4.3-12.89 4.3-19.74s-1.39-13.19-4.15-19.07zm-22.09 50.55c-6.31 6.91-14.52 10.42-24.41 10.42-5.34 0-10.53-1.3-15.42-3.88-4.9-2.59-9.11-6.25-12.53-10.89-2.71-3.66-4.88-8.14-6.43-13.31-1.56-5.2-2.35-10.67-2.35-16.25 0-10.63 3.25-19.49 9.67-26.33 6.38-6.82 14.6-10.27 24.42-10.27 5.25 0 10.37 1.3 15.19 3.85 4.85 2.57 9.12 6.25 12.7 10.94 2.88 3.83 5.08 8.16 6.52 12.86 1.45 4.73 2.19 9.96 2.19 15.53 0 11.19-3.21 20.39-9.55 27.35z"/><path d="m65.01 585.82h-40.41v-6.17h3.06c3.49 0 5.98-.66 7.42-1.97 1.4-1.27 2.1-3.51 2.1-6.64v-67.74h-17.58c-6.09 0-8.52 1.25-9.48 2.3-1.03 1.12-2.52 4.17-3.8 12.36l-.21 1.33h-6.11l2.56-26.55h5.44l.37 1.05c.12.33.28.45.5.53.25.09 1.08.29 3.69.29h64.29c2.65 0 3.51-.22 3.76-.31.34-.13.54-.31.67-.61l.41-.94h5.23l2.63 26.55h-6.12l-.2-1.34c-1.22-8.19-2.7-11.24-3.73-12.35-.96-1.05-3.39-2.3-9.48-2.3h-17.58v67.74c0 3.13.71 5.37 2.1 6.64 1.43 1.31 3.93 1.97 7.42 1.97h3.06v6.17z"/><path d="m327.14 585.82h-77.35v-6.17h4.22c6.28 0 9.08-1.09 10.32-2.01 1.65-1.23 2.49-3.58 2.49-6.99v-61.13c0-3.18-.71-5.45-2.11-6.75-1.43-1.32-3.93-2-7.41-2h-3.06v-6.17h69.29l1.19 23.07h-6.33l-.18-1.37c-.9-7.03-2.58-9.83-3.84-10.96-1.25-1.11-4.61-2.44-13.5-2.44h-18.61v33.29h16.62c7.37 0 9.68-1.11 10.41-1.78.89-.82 2.08-2.78 2.67-7.42l.17-1.38h5.47v30.23h-5.78l-.13-1.43c-.49-5.31-1.53-7.42-2.32-8.26-.49-.52-2.5-1.73-10.49-1.73h-16.62v23.06c0 5.27 1.11 7.35 2.04 8.17.97.85 3.46 1.87 9.8 1.87h11.67c5.82 0 9.94-.99 12.23-2.95 2.31-1.97 4.07-5.89 5.24-11.66l.25-1.26h5.92l-2.29 24.16z"/><path d="m413.58 587.82h-9.43l-29.93-76.31c-2.47-6.12-4.17-8.33-5.16-9.11-1.36-1.08-3.37-1.63-5.96-1.63h-2.73v-6.17h41.83v6.17h-1.57c-6.13 0-8.92.65-10.18 1.19-1.46.63-2.12 1.57-2.12 3.04 0 .62.1 1.33.28 2.13.19.83.54 1.87 1.03 3.09l22.2 56.15 21.24-53.63c.84-2.15 1.42-3.82 1.71-4.97.29-1.11.44-2.08.44-2.9 0-1.38-.6-2.26-1.93-2.85-1.18-.52-3.83-1.15-9.74-1.25l-1.54-.03v-6.15h35.9v6.07l-1.46.1c-3.36.23-5.95 1.06-7.71 2.47-1.23.99-3.31 3.68-6.16 10.92l-29.02 73.67z"/><path d="m697.71 581.78c-2.54-.33-5.51-2.31-8.82-5.86-3.5-3.75-8.11-10.17-13.71-19.08l-7.41-11.82c5.45-2.11 9.71-4.99 12.68-8.59 3.34-4.06 5.03-8.99 5.03-14.67 0-9.19-3.79-16.13-11.27-20.63-7.22-4.34-18.32-6.54-32.99-6.54h-31.62v6.17h2.99c3.44 0 5.92.68 7.38 2.03 1.42 1.31 2.14 3.57 2.14 6.71v61.51c0 3.13-.71 5.37-2.1 6.64-1.44 1.31-3.93 1.97-7.42 1.97h-2.99v6.17h40.48v-6.17h-3.44c-3.26 0-5.62-.67-7.01-1.98-1.37-1.3-2.06-3.53-2.06-6.63v-21.61c.23 0 .48.02.75.03 1.06.04 1.85.06 2.39.06 1.61 0 3.63-.04 6.09-.13 2.4-.09 3.98-.13 4.75-.13.88 0 1.57.07 2.07.23.35.1.61.24.71.35.58.72 2.19 3.16 6.6 10.73 3.61 6.21 7.25 11.54 10.84 15.87 3.14 3.68 6.73 6.5 10.67 8.39 3.95 1.9 8.32 2.86 12.96 2.86h3.3l.53-5.71-1.5-.2zm-51.6-38.31h-8.55v-41.77c.91-.03 2.47-.05 4.85.04 1.25.04 2.1.06 2.54.06 7.42 0 13.18 1.85 17.12 5.48 3.9 3.61 5.88 8.94 5.88 15.84 0 6.44-1.86 11.33-5.7 14.94-3.8 3.59-9.24 5.41-16.14 5.41z"/><path d="m793.4 587.95c-2.93 0-6.46-.6-10.5-1.77-4.68-1.36-6.59-1.65-7.37-1.65-.89 0-1.72.07-2.5.2-.79.14-1.56.33-2.31.56l-1.78.56-3.44-25.11 5.96.79.29.98c1.74 5.94 4.54 10.53 8.3 13.65 3.71 3.07 8.28 4.63 13.6 4.63s9.21-1.41 12.62-4.3c3.34-2.83 4.96-6.12 4.96-10.05 0-5.73-5.64-12.33-16.77-19.64-.95-.65-1.66-1.11-2.11-1.41l-.91-.57c-11.54-7.65-18.21-13.11-20.41-16.69-1.35-2.11-2.37-4.28-3.03-6.42-.67-2.16-1.01-4.44-1.01-6.78 0-6.67 2.59-12.11 7.69-16.19 4.99-3.99 11.63-6.02 19.74-6.02 3.49 0 7.35.61 11.46 1.8 5.37 1.56 6.55 1.68 6.78 1.68.56 0 1.14-.08 1.72-.24.68-.18 1.38-.42 2.12-.74l1.9-.8 2.88 21.86-5.6.26-.42-1.03c-2.08-5.13-4.91-9.12-8.41-11.86-3.49-2.72-7.28-4.05-11.6-4.05s-7.65 1.11-10.37 3.41c-2.64 2.22-3.92 4.96-3.92 8.37 0 5.38 6.05 12.03 17.99 19.76l.38.21c.47.31 1.06.69 1.86 1.19 7.99 5.12 13.73 9.52 17.07 13.09 2.06 2.2 3.68 4.73 4.82 7.54 1.15 2.81 1.73 5.71 1.73 8.62 0 8.16-2.85 14.64-8.47 19.27-5.53 4.56-13.25 6.87-22.96 6.87z"/><path d="m720.86 524.84-1.94-4.86 1.14-.54c2.79-1.33 5.03-3.09 6.64-5.25 1.57-2.09 2.37-4.27 2.37-6.45 0-.27-.04-.41-.08-.48-.05.05-.32.09-.69.16-.73.12-1.38.18-1.96.18-2.42 0-4.31-.6-5.62-1.77-1.35-1.21-2.04-2.99-2.04-5.28 0-2.08.77-3.81 2.3-5.15 1.47-1.3 3.38-1.95 5.69-1.95 2.87 0 5.2 1.09 6.94 3.24 1.68 2.07 2.53 4.84 2.53 8.26 0 4.33-1.28 8.29-3.8 11.77-2.5 3.46-5.95 6.03-10.25 7.66l-1.23.47z"/></g><path d="m599.37 82.15c4.36 0 7.9-3.54 7.9-7.9s-3.54-7.9-7.9-7.9c-58.35 0-110.75 25.81-146.49 66.58-8.55-15.09-18.5-29.29-29.77-42.33 44.64-46.11 107.16-74.81 176.26-74.81 4.36 0 7.9-3.54 7.9-7.9s-3.54-7.9-7.9-7.9c-73.21 0-139.48 30.27-186.95 78.96-47.48-48.68-113.75-78.95-186.96-78.95-4.36 0-7.9 3.54-7.9 7.9s3.54 7.9 7.9 7.9c69.1 0 131.61 28.7 176.26 74.81-11.27 13.04-21.22 27.23-29.77 42.33-35.74-40.77-88.14-66.58-146.49-66.58-4.36 0-7.9 3.54-7.9 7.9s3.54 7.9 7.9 7.9c55.8 0 105.7 25.66 138.56 65.79-9.41 19.47-16.43 40.3-20.77 62.07-19.82-45.44-65.13-77.31-117.79-77.31-4.36 0-7.9 3.54-7.9 7.9s3.54 7.9 7.9 7.9c62.14 0 112.7 50.56 112.7 112.7 0 41.48 9.8 81.81 28.2 118.08.06.12.11.23.18.34 10.59 20.8 23.99 40.27 40.04 57.83l5.83 6.37 5.83-6.37c16.05-17.55 29.45-37.02 40.04-57.81.08-.13.14-.26.21-.39 18.39-36.26 28.19-76.58 28.19-118.05 0-62.14 50.56-112.7 112.7-112.7 4.36 0 7.9-3.54 7.9-7.9s-3.54-7.9-7.9-7.9c-52.66 0-97.97 31.87-117.79 77.31-4.35-21.78-11.36-42.6-20.77-62.07 32.86-40.13 82.77-65.79 138.56-65.79zm-186.96 20.24c11.43 13.44 21.44 28.12 29.8 43.81-13.2 17.98-23.36 38.3-29.8 60.22-6.43-21.91-16.6-42.23-29.8-60.22 8.36-15.69 18.37-30.37 29.8-43.8zm-37.67 60.09c18.79 28.32 29.77 62.26 29.77 98.72s-10.29 69.53-29.77 98.82c-13.58-30.85-20.79-64.41-20.79-98.82s7.45-68.49 20.79-98.72zm37.67 257.71c-11.6-13.63-21.57-28.37-29.85-43.95 13.57-18.47 23.57-38.79 29.85-60.34 6.28 21.54 16.28 41.86 29.85 60.33-8.28 15.58-18.25 30.32-29.85 43.95zm58.46-158.99c0 34.41-7.21 67.97-20.79 98.82-19.49-29.3-29.77-63.18-29.77-98.82s10.98-70.4 29.77-98.72c13.34 30.23 20.79 63.61 20.79 98.72z" fill="#982241"/></svg>