<svg viewBox="0 0 1184.89 240.39" xmlns="http://www.w3.org/2000/svg"><g fill="#0058a2"><path d="m491.14 100.68c-6.36 0-11.64-.87-15.84-2.59-4.19-1.73-7.51-4.22-9.94-7.47s-4.14-7.2-5.12-11.83-1.47-9.84-1.47-15.65v-48.15c2.28-.31 4.24-.53 5.89-.65s3.22-.17 4.71-.17c1.33 0 2.8.06 4.41.17 1.6.12 3.55.33 5.83.65v45.67c0 3.92.16 7.26.47 10 .31 2.75.88 4.98 1.7 6.71s1.99 2.97 3.47 3.71c1.49.75 3.45 1.12 5.89 1.12s4.41-.37 5.94-1.12c1.53-.74 2.71-1.98 3.53-3.71.82-1.72 1.37-3.96 1.64-6.71.28-2.75.41-6.08.41-10v-45.67c2.36-.31 4.34-.53 5.95-.65s3.07-.17 4.41-.17c1.41 0 2.94.06 4.59.17 1.65.12 3.61.33 5.89.65v48.14c0 5.81-.5 11.02-1.47 15.65-.98 4.63-2.69 8.57-5.12 11.83s-5.75 5.75-9.94 7.47c-4.2 1.72-9.48 2.59-15.83 2.59z"/><path d="m537.16 14.99c1.73-.31 3.3-.55 4.71-.7 1.41-.16 2.79-.24 4.12-.24 1.42 0 2.89.1 4.42.29 1.52.2 2.84.41 3.94.65l27.31 46.14v-46.14c2.04-.31 3.88-.55 5.53-.7 1.65-.16 3.14-.24 4.47-.24s2.75.08 4.24.24 3.06.39 4.71.7l-.12 84.04c-.79.23-1.92.47-3.41.71-1.49.23-3.11.35-4.83.35-1.96 0-3.73-.14-5.3-.41-1.57-.28-2.71-.49-3.41-.65l-27.43-45.9v45.9c-3.45.71-6.59 1.06-9.41 1.06s-6.01-.35-9.54-1.06z"/><path d="m625.2 100.09c-2.9 0-6.4-.35-10.48-1.06v-84.04c2.12-.31 4.04-.55 5.77-.7 1.72-.16 3.25-.24 4.59-.24 1.42 0 3 .08 4.77.24s3.67.39 5.71.7v84.04c-4.16.71-7.61 1.06-10.36 1.06z"/><path d="m681.23 71.96 16.13-56.97c1.81-.31 3.63-.55 5.47-.7 1.85-.16 3.79-.24 5.83-.24 1.34 0 2.99.1 4.95.29 1.96.2 3.69.41 5.18.65l-27.07 84.16c-2.04.31-3.94.55-5.71.71-1.76.15-3.47.23-5.12.23s-3.18-.08-4.83-.23c-1.64-.16-3.61-.39-5.88-.71l-26.96-84.16c1.33-.24 3.1-.45 5.3-.65 2.19-.19 4.31-.29 6.35-.29 1.65 0 3.45.1 5.41.29 1.96.2 3.69.41 5.18.65z"/><path d="m771.04 55.25c0 2.75-.35 5.81-1.06 9.18h-22.72v16.71h29.55c.71 3.29 1.06 6.28 1.06 8.95 0 2.9-.35 6-1.06 9.3h-50.38v-84.63h49.67c.32 1.73.55 3.34.71 4.83.15 1.49.23 2.91.23 4.24 0 2.59-.32 5.69-.95 9.3h-28.84v12.95h22.72c.71 3.45 1.06 6.51 1.06 9.18z"/><path d="m788.45 14.99c3.85-.39 7.4-.77 10.65-1.12 3.26-.35 6.69-.53 10.3-.53 4.31 0 8.63.41 12.95 1.24 4.31.82 8.16 2.26 11.53 4.3 3.38 2.04 6.12 4.82 8.24 8.36 2.12 3.53 3.18 8 3.18 13.42 0 2.9-.33 5.51-1 7.83s-1.53 4.38-2.59 6.18c-1.05 1.81-2.24 3.38-3.53 4.71-1.3 1.33-2.57 2.47-3.83 3.41l18.36 36.25c-1.88.31-3.94.55-6.18.71-2.24.15-4.26.23-6.06.23-1.57 0-3.4-.08-5.47-.23-2.08-.16-3.9-.39-5.47-.71l-16.71-38.49 1.06-.59c.94-.47 1.98-1.26 3.12-2.35 1.14-1.1 2.19-2.41 3.18-3.94.98-1.53 1.8-3.24 2.47-5.12.66-1.88 1-3.84 1-5.89 0-3.92-1.1-6.79-3.29-8.59-2.2-1.81-4.91-2.71-8.12-2.71-.78 0-1.45.04-2 .12s-.9.16-1.05.24v67.33c-4.17.71-7.58 1.06-10.24 1.06-2.9 0-6.4-.35-10.48-1.06v-84.06z"/><path d="m893.92 47.71c3.3 1.34 6.26 2.69 8.89 4.06s4.88 3.02 6.77 4.94c1.88 1.92 3.33 4.24 4.35 6.94 1.02 2.71 1.53 5.99 1.53 9.83 0 4.16-.72 7.9-2.18 11.24-1.45 3.34-3.59 6.2-6.42 8.59-2.82 2.39-6.3 4.24-10.41 5.53-4.12 1.29-8.85 1.94-14.18 1.94-4.87 0-9.17-.39-12.89-1.18-3.73-.78-7.75-2-12.07-3.65.31-2.74.86-5.67 1.65-8.77.78-3.1 1.72-6.26 2.82-9.47 7.21 3.14 13.49 4.71 18.83 4.71 4 0 7.12-.61 9.35-1.82 2.24-1.22 3.36-3.31 3.36-6.3 0-1.25-.24-2.33-.71-3.23s-1.1-1.67-1.88-2.3-1.67-1.16-2.65-1.59-1.98-.84-3-1.23l-6.59-2.47c-2.82-1.02-5.4-2.24-7.71-3.65-2.32-1.42-4.3-3.08-5.95-5s-2.92-4.14-3.82-6.65-1.36-5.45-1.36-8.83c0-4.16.71-7.84 2.12-11.06s3.39-5.94 5.94-8.18c2.55-2.23 5.63-3.92 9.24-5.06 3.6-1.14 7.65-1.71 12.12-1.71 4 0 7.87.4 11.59 1.18 3.72.79 7.71 1.92 11.94 3.42-.31 2.51-.88 5.27-1.7 8.29s-1.87 5.87-3.12 8.53c-2.05-.86-4.44-1.76-7.19-2.71-2.75-.94-6.16-1.41-10.24-1.41-1.25 0-2.45.12-3.58.35-1.14.24-2.16.61-3.06 1.12s-1.63 1.22-2.18 2.12-.83 2.02-.83 3.35c0 2.28.75 3.96 2.24 5.06s3.26 2.04 5.3 2.82l5.65 2.24z"/><path d="m937.83 100.09c-2.91 0-6.4-.35-10.48-1.06v-84.04c2.12-.31 4.03-.55 5.77-.7 1.72-.16 3.25-.24 4.59-.24 1.41 0 3 .08 4.77.24 1.76.16 3.67.39 5.7.7v84.04c-4.16.71-7.61 1.06-10.36 1.06z"/><path d="m985.73 13.35c14.83 0 26.09 3.71 33.78 11.12 7.69 7.42 11.53 18.46 11.53 33.13s-3.93 25.83-11.77 32.78c-7.85 6.95-19.46 10.42-34.84 10.42-3.92 0-7.71-.18-11.36-.53s-7.24-.77-10.77-1.23v-84.05c1.18-.15 2.67-.33 4.47-.53 1.81-.2 3.77-.37 5.89-.53s4.3-.3 6.53-.41c2.24-.12 4.41-.18 6.53-.18zm-2.59 68.97c.55.08 1.18.12 1.88.12h2.24c3.06 0 5.94-.37 8.65-1.12s5.04-2.06 7-3.94 3.51-4.43 4.65-7.65c1.13-3.22 1.71-7.33 1.71-12.36s-.59-9.06-1.77-12.36c-1.18-3.29-2.72-5.91-4.64-7.83s-4.18-3.3-6.77-4.12-5.29-1.23-8.12-1.23c-1.57 0-2.71.02-3.41.06-.71.04-1.18.06-1.42.06v50.38z"/><path d="m1054.47 99.15c-1.81.31-3.45.55-4.95.71-1.49.15-2.94.23-4.35.23s-3.04-.1-4.88-.29c-1.85-.2-3.91-.49-6.18-.88l26.37-84.04c2.04-.23 3.94-.43 5.71-.58 1.77-.16 3.55-.24 5.36-.24 1.49 0 3.12.08 4.89.24 1.76.16 3.79.35 6.06.58l26.01 84.16c-4.47.71-8.39 1.06-11.77 1.06-1.57 0-3.14-.08-4.71-.23-1.57-.16-3.26-.39-5.06-.71l-4.47-16.36c-2.2.63-4.3 1.1-6.3 1.41s-3.98.47-5.94.47c-1.81 0-3.65-.13-5.53-.41s-3.85-.69-5.88-1.24l-4.36 16.13zm16.48-62.14-7.88 30.25c1.33.39 2.59.71 3.76.94 1.18.23 2.39.35 3.65.35 1.33 0 2.65-.1 3.94-.3 1.29-.19 2.65-.49 4.06-.88l-7.54-30.37z"/><path d="m1139.57 13.35c14.84 0 26.1 3.71 33.79 11.12 7.69 7.42 11.53 18.46 11.53 33.13s-3.92 25.83-11.77 32.78-19.46 10.42-34.84 10.42c-3.92 0-7.71-.18-11.35-.53-3.65-.35-7.24-.77-10.77-1.23v-84.05c1.18-.15 2.67-.33 4.47-.53 1.81-.2 3.77-.37 5.89-.53s4.3-.3 6.53-.41c2.24-.12 4.41-.18 6.53-.18zm-2.58 68.97c.55.08 1.18.12 1.88.12h2.24c3.06 0 5.94-.37 8.65-1.12s5.04-2.06 7-3.94 3.51-4.43 4.65-7.65 1.71-7.33 1.71-12.36-.59-9.06-1.77-12.36c-1.18-3.29-2.73-5.91-4.65-7.83s-4.18-3.3-6.77-4.12-5.3-1.23-8.12-1.23c-1.57 0-2.71.02-3.42.06-.7.04-1.17.06-1.41.06v50.38z"/><path d="m469.95 217.87c-2.9 0-6.4-.35-10.48-1.06v-84.04c2.12-.31 4.04-.55 5.77-.71 1.72-.15 3.25-.23 4.59-.23 1.42 0 3 .08 4.77.23 1.76.16 3.67.39 5.7.71v84.04c-4.16.71-7.61 1.06-10.36 1.06z"/><path d="m494.43 132.77c1.73-.31 3.3-.55 4.71-.71 1.42-.15 2.79-.23 4.12-.23 1.41 0 2.88.1 4.41.29 1.53.2 2.84.41 3.94.65l27.31 46.14v-46.14c2.04-.31 3.88-.55 5.53-.71 1.65-.15 3.14-.23 4.47-.23s2.75.08 4.24.23c1.49.16 3.06.39 4.71.71l-.12 84.04c-.78.23-1.92.47-3.42.71-1.49.23-3.1.35-4.82.35-1.96 0-3.73-.14-5.3-.41-1.57-.28-2.71-.49-3.41-.65l-27.43-45.9v45.9c-3.45.71-6.59 1.06-9.42 1.06s-6-.35-9.54-1.06v-84.04z"/><path d="m604.95 165.49c3.3 1.34 6.26 2.69 8.89 4.06 2.62 1.37 4.88 3.02 6.77 4.94 1.88 1.92 3.34 4.24 4.36 6.95s1.53 5.98 1.53 9.83c0 4.16-.73 7.91-2.17 11.24-1.45 3.34-3.6 6.2-6.42 8.59s-6.29 4.24-10.41 5.53-8.84 1.94-14.18 1.94c-4.87 0-9.17-.39-12.89-1.18-3.73-.78-7.75-2-12.07-3.65.31-2.74.86-5.67 1.65-8.77s1.73-6.26 2.83-9.47c7.22 3.14 13.49 4.71 18.83 4.71 4 0 7.12-.61 9.36-1.82 2.24-1.22 3.36-3.31 3.36-6.3 0-1.25-.24-2.33-.71-3.24-.47-.9-1.1-1.67-1.88-2.3s-1.67-1.16-2.65-1.59-1.98-.84-3-1.23l-6.59-2.47c-2.83-1.02-5.4-2.24-7.71-3.65s-4.29-3.08-5.95-5c-1.64-1.92-2.92-4.14-3.82-6.65-.91-2.51-1.35-5.45-1.35-8.83 0-4.16.7-7.84 2.12-11.06 1.41-3.22 3.39-5.94 5.95-8.18 2.55-2.24 5.62-3.92 9.24-5.06 3.6-1.14 7.65-1.71 12.12-1.71 4 0 7.87.4 11.6 1.18s7.71 1.92 11.95 3.42c-.32 2.51-.88 5.28-1.71 8.3-.82 3.02-1.86 5.87-3.12 8.53-2.04-.86-4.44-1.76-7.18-2.71-2.75-.94-6.16-1.41-10.24-1.41-1.26 0-2.45.12-3.59.35-1.14.24-2.16.61-3.06 1.12s-1.63 1.22-2.17 2.12c-.55.9-.83 2.02-.83 3.35 0 2.28.75 3.96 2.24 5.06s3.25 2.04 5.3 2.82l5.64 2.24z"/><path d="m670.29 218.46c-6.36 0-11.64-.87-15.83-2.59-4.2-1.73-7.52-4.22-9.95-7.47s-4.14-7.2-5.12-11.83-1.47-9.85-1.47-15.66v-48.14c2.27-.31 4.24-.53 5.88-.65 1.65-.12 3.22-.17 4.71-.17 1.33 0 2.81.06 4.41.17 1.61.12 3.55.33 5.83.65v45.67c0 3.93.16 7.26.47 10.01s.88 4.99 1.71 6.71c.82 1.73 1.98 2.97 3.47 3.71 1.49.75 3.45 1.12 5.89 1.12s4.41-.37 5.94-1.12c1.53-.74 2.71-1.98 3.53-3.71.83-1.72 1.37-3.96 1.65-6.71s.41-6.08.41-10.01v-45.67c2.36-.31 4.34-.53 5.95-.65s3.07-.17 4.41-.17c1.41 0 2.94.06 4.59.17 1.65.12 3.61.33 5.89.65v48.14c0 5.81-.49 11.03-1.47 15.66s-2.69 8.57-5.12 11.83-5.75 5.75-9.94 7.47c-4.2 1.72-9.48 2.59-15.83 2.59z"/><path d="m716.3 132.77c3.84-.39 7.4-.77 10.65-1.12s6.69-.53 10.3-.53c4.32 0 8.64.41 12.95 1.24 4.32.82 8.16 2.25 11.54 4.29 3.37 2.04 6.12 4.83 8.24 8.36s3.18 8 3.18 13.42c0 2.9-.33 5.51-1 7.83s-1.53 4.38-2.59 6.18c-1.06 1.81-2.24 3.37-3.53 4.71-1.3 1.33-2.57 2.47-3.83 3.41l18.36 36.25c-1.88.31-3.94.55-6.18.71-2.24.15-4.26.23-6.06.23-1.57 0-3.39-.08-5.47-.23-2.08-.16-3.91-.39-5.48-.71l-16.71-38.49 1.06-.59c.94-.47 1.98-1.25 3.12-2.35s2.2-2.41 3.18-3.94 1.8-3.24 2.47-5.12 1-3.84 1-5.89c0-3.92-1.1-6.79-3.3-8.59-2.2-1.81-4.91-2.71-8.12-2.71-.79 0-1.46.04-2 .12-.55.08-.9.16-1.06.24v67.33c-4.16.71-7.57 1.06-10.24 1.06-2.91 0-6.4-.35-10.48-1.06v-84.04z"/><path d="m829.3 171.38c2.12-.31 3.99-.55 5.65-.71 1.65-.15 3.18-.23 4.59-.23 1.33 0 2.94.08 4.82.23 1.88.16 3.72.39 5.53.71v42.84c-4.63 1.73-9.2 2.87-13.71 3.42-4.52.55-8.38.82-11.6.82-6.91 0-12.95-1.08-18.13-3.24s-9.52-5.16-13.01-9.01c-3.49-3.84-6.1-8.43-7.83-13.77-1.72-5.34-2.59-11.14-2.59-17.42s.9-12.1 2.71-17.48c1.8-5.37 4.41-10.02 7.83-13.95 3.41-3.92 7.63-6.99 12.65-9.18s10.72-3.3 17.07-3.3c3.77 0 7.36.28 10.77.83 3.42.55 7.16 1.69 11.24 3.41-.15 3.22-.75 6.36-1.77 9.42s-2.08 5.65-3.17 7.76c-1.58-.55-3-1.02-4.3-1.41s-2.53-.71-3.7-.94c-1.18-.24-2.36-.41-3.53-.53-1.18-.12-2.43-.18-3.77-.18-6.35 0-11.26 2.14-14.71 6.41-3.45 4.28-5.18 10.65-5.18 19.13s1.69 14.65 5.06 18.77 8.39 6.18 15.06 6.18c1.49 0 2.83-.12 4-.35v-28.25z"/><path d="m907.46 173.02c0 2.75-.35 5.81-1.06 9.18h-22.71v16.71h29.54c.71 3.29 1.06 6.28 1.06 8.95 0 2.9-.35 6-1.06 9.3h-50.38v-84.63h49.68c.31 1.73.55 3.34.7 4.82.16 1.49.24 2.91.24 4.24 0 2.59-.32 5.69-.94 9.3h-28.84v12.95h22.71c.71 3.45 1.06 6.51 1.06 9.18z"/><path d="m924.87 132.77c1.73-.31 3.3-.55 4.71-.71 1.42-.15 2.79-.23 4.12-.23 1.42 0 2.88.1 4.42.29 1.53.2 2.84.41 3.94.65l27.31 46.14v-46.14c2.04-.31 3.88-.55 5.53-.71 1.65-.15 3.14-.23 4.47-.23s2.75.08 4.24.23c1.49.16 3.06.39 4.71.71l-.12 84.04c-.78.23-1.92.47-3.42.71-1.49.23-3.1.35-4.82.35-1.96 0-3.73-.14-5.3-.41-1.57-.28-2.71-.49-3.41-.65l-27.43-45.9v45.9c-3.45.71-6.59 1.06-9.42 1.06s-6-.35-9.54-1.06v-84.04z"/><path d="m1017.87 150.9h-19.66c-.7-3.37-1.06-6.47-1.06-9.3 0-2.59.36-5.61 1.06-9.06h60.15c.31 1.73.55 3.34.71 4.82.16 1.49.23 2.91.23 4.24 0 2.59-.31 5.69-.94 9.3h-19.66v65.91c-4.16.71-7.61 1.06-10.36 1.06-2.9 0-6.4-.35-10.48-1.06v-65.91z"/><path d="m1112.74 173.02c0 2.75-.35 5.81-1.06 9.18h-22.72v16.71h29.54c.71 3.29 1.06 6.28 1.06 8.95 0 2.9-.35 6-1.06 9.3h-50.38v-84.63h49.67c.31 1.73.55 3.34.71 4.82.16 1.49.24 2.91.24 4.24 0 2.59-.31 5.69-.94 9.3h-28.84v12.95h22.72c.71 3.45 1.06 6.51 1.06 9.18z"/><path d="m1163.11 165.49c3.3 1.34 6.26 2.69 8.89 4.06s4.89 3.02 6.77 4.94 3.33 4.24 4.35 6.95 1.53 5.98 1.53 9.83c0 4.16-.73 7.91-2.18 11.24-1.45 3.34-3.59 6.2-6.42 8.59-2.82 2.39-6.3 4.24-10.41 5.53-4.12 1.29-8.85 1.94-14.19 1.94-4.87 0-9.16-.39-12.88-1.18-3.73-.78-7.76-2-12.07-3.65.31-2.74.86-5.67 1.64-8.77.79-3.1 1.73-6.26 2.83-9.47 7.22 3.14 13.5 4.71 18.84 4.71 4 0 7.12-.61 9.36-1.82 2.23-1.22 3.35-3.31 3.35-6.3 0-1.25-.24-2.33-.71-3.24-.47-.9-1.1-1.67-1.88-2.3-.79-.63-1.67-1.16-2.65-1.59s-1.98-.84-3-1.23l-6.59-2.47c-2.83-1.02-5.39-2.24-7.71-3.65s-4.3-3.08-5.94-5c-1.65-1.92-2.92-4.14-3.83-6.65-.9-2.51-1.35-5.45-1.35-8.83 0-4.16.71-7.84 2.12-11.06 1.42-3.22 3.4-5.94 5.95-8.18s5.63-3.92 9.24-5.06 7.65-1.71 12.12-1.71c4 0 7.86.4 11.59 1.18s7.71 1.92 11.95 3.42c-.32 2.51-.88 5.28-1.71 8.3-.82 3.02-1.86 5.87-3.12 8.53-2.04-.86-4.43-1.76-7.18-2.71-2.75-.94-6.16-1.41-10.24-1.41-1.26 0-2.46.12-3.59.35-1.14.24-2.16.61-3.07 1.12-.9.51-1.63 1.22-2.17 2.12-.55.9-.82 2.02-.82 3.35 0 2.28.75 3.96 2.24 5.06s3.26 2.04 5.3 2.82l5.65 2.24z"/><path d="m78.8 222.12c-15.48 0-28.32-2.11-38.54-6.3-10.22-4.2-18.29-10.27-24.21-18.19s-10.08-17.52-12.46-28.8c-2.39-11.27-3.58-23.97-3.58-38.11v-117.19c5.54-.76 10.31-1.29 14.33-1.58 4.01-.29 7.83-.43 11.46-.43 3.25 0 6.83.14 10.74.43s8.64.81 14.18 1.58v111.17c0 9.55.38 17.67 1.14 24.35.76 6.69 2.15 12.13 4.15 16.33 2.01 4.2 4.82 7.21 8.45 9.03 3.62 1.82 8.4 2.72 14.33 2.72s10.74-.9 14.47-2.72c3.72-1.81 6.59-4.82 8.6-9.03 2.01-4.2 3.34-9.64 4.01-16.33.66-6.68 1-14.8 1-24.35v-111.17c5.73-.76 10.56-1.29 14.47-1.58s7.49-.43 10.75-.43c3.44 0 7.16.14 11.18.43 4.01.29 8.78.81 14.33 1.58v117.19c0 14.14-1.2 26.84-3.58 38.11-2.39 11.27-6.55 20.87-12.47 28.8s-14 14-24.21 18.19c-10.22 4.2-23.07 6.3-38.54 6.3z"/><path d="m202 220.69c-7.07 0-15.57-.86-25.5-2.58v-204.58c5.16-.76 9.84-1.33 14.04-1.72 4.2-.38 7.93-.57 11.18-.57 3.44 0 7.31.19 11.61.57 4.3.39 8.93.96 13.9 1.72v204.58c-10.13 1.72-18.53 2.58-25.21 2.58z"/><path d="m247.27 13.53c4.2-.76 8.02-1.33 11.46-1.72 3.44-.38 6.78-.57 10.03-.57 3.44 0 7.02.24 10.74.72s6.92 1 9.6 1.58l66.48 112.32v-112.33c4.96-.76 9.45-1.33 13.47-1.72 4.01-.38 7.64-.57 10.89-.57s6.69.19 10.31.57c3.63.39 7.45.96 11.46 1.72l-.29 204.58c-1.91.57-4.68 1.15-8.31 1.72s-7.55.86-11.75.86c-4.78 0-9.07-.34-12.89-1-3.82-.67-6.59-1.19-8.31-1.58l-66.76-111.75v111.75c-8.41 1.72-16.04 2.58-22.92 2.58s-14.61-.86-23.21-2.58z"/></g><path d="m423.39 0h10.18v240.39h-10.18z" fill="#0caea4"/></svg>