<svg viewBox="0 0 1101.31 471.88" xmlns="http://www.w3.org/2000/svg"><g fill="#e79621"><path d="m924.22 96.36h-20.21v-30.62h20.21zm-10.1-96.36-53.08 39.87v84.6h106.15v-84.6z"/><path d="m924.22 307.17h-20.21v-30.62h20.21zm-63.18-58.74v84.6l53.07 39.87 53.08-39.87v-84.6z"/><path d="m1035.3 196.55h-30.75v-20.12h30.75zm25.97-62.92h-84.96v105.71h84.96l40.04-52.86-40.04-52.86z"/><path d="m823.95 196.55h-30.75v-20.12h30.75zm-56.72-62.92-40.04 52.86 40.04 52.86h84.96v-105.71h-84.96z"/><path d="m873.28 145.83h81.67v81.33h-81.67z"/></g><g fill="#5e5b5c"><path d="m163.25 219.15h53.74l-84.39 246.54h-48.88l-83.72-246.54h55.25l53.75 187.16z"/><path d="m238.58 283.38h48.54v182.31h-48.54zm48.54-21.74h-48.54v-43.99h48.54z"/><path d="m481.1 293.84c11.99 9.87 17.97 26.24 17.97 49.09v122.77h-49.04v-110.89c0-9.59-1.28-16.95-3.84-22.07-4.68-9.37-13.56-14.05-26.67-14.05-16.12 0-27.18 6.86-33.18 20.57-3.12 7.25-4.67 16.5-4.67 27.77v98.68h-47.87v-181.98h46.35v26.59c6.13-9.37 11.93-16.11 17.39-20.24 9.81-7.36 22.25-11.04 37.3-11.04 18.84 0 34.26 4.93 46.25 14.8"/><path d="m524.77 319.01v-33.95h25.53v-50.84h47.36v50.84h29.73v33.95h-29.73v96.34c0 7.47.95 12.12 2.86 13.96 1.9 1.84 7.73 2.76 17.47 2.76 1.45 0 2.99-.02 4.62-.08 1.62-.05 3.21-.14 4.78-.25v35.63l-22.67.84c-22.62.78-38.08-3.12-46.36-11.71-5.38-5.46-8.06-13.88-8.06-25.25v-112.23h-25.53z"/><path d="m705.82 328.25c-6.76 6.94-11.01 16.35-12.75 28.22h82.47c-.87-12.65-5.12-22.26-12.75-28.81s-17.1-9.83-28.39-9.83c-12.28 0-21.81 3.47-28.57 10.42m71.6-41.18c12.77 5.7 23.31 14.69 31.64 26.97 7.5 10.83 12.35 23.4 14.58 37.69 1.29 8.38 1.82 20.44 1.58 36.18h-133.33c.74 18.29 7.12 31.11 19.14 38.47 7.31 4.58 16.11 6.86 26.39 6.86 10.91 0 19.76-2.78 26.58-8.36 3.72-3.01 7-7.2 9.85-12.55h48.87c-1.29 10.82-7.2 21.8-17.75 32.95-16.4 17.73-39.36 26.59-68.87 26.59-24.37 0-45.86-7.48-64.48-22.43-18.63-14.95-27.94-39.28-27.94-72.99 0-31.58 8.41-55.8 25.23-72.65 16.81-16.85 38.63-25.28 65.46-25.28 15.93 0 30.29 2.85 43.06 8.54"/><path d="m17.11 189.49h-16.14v-77.76h16.14z"/><path d="m77.46 135.29c3.76 3.11 5.64 8.27 5.64 15.48v38.72h-15.4v-34.97c0-3.02-.4-5.35-1.21-6.96-1.46-2.95-4.26-4.43-8.38-4.43-5.06 0-8.54 2.16-10.42 6.49-.98 2.29-1.47 5.2-1.47 8.76v31.12h-15.03v-57.39h14.56v8.39c1.93-2.95 3.75-5.08 5.46-6.38 3.08-2.32 6.99-3.48 11.71-3.48 5.92 0 10.76 1.56 14.53 4.67z"/><path d="m168.82 132.2c2.46.98 4.7 2.71 6.7 5.17 1.62 2 2.71 4.47 3.27 7.39.35 1.93.53 4.77.53 8.49l-.11 36.24h-15.4v-36.61c0-2.18-.35-3.97-1.06-5.38-1.34-2.67-3.8-4.01-7.38-4.01-4.15 0-7.02 1.72-8.6 5.17-.81 1.83-1.21 4.03-1.21 6.59v34.24h-15.14v-34.24c0-3.41-.35-5.89-1.05-7.44-1.27-2.78-3.74-4.17-7.44-4.17-4.29 0-7.17 1.39-8.65 4.17-.81 1.58-1.22 3.94-1.22 7.07v34.61h-15.24v-57.39h14.61v8.39c1.86-2.99 3.62-5.12 5.28-6.38 2.92-2.25 6.7-3.38 11.35-3.38 4.4 0 7.95.97 10.65 2.9 2.18 1.79 3.83 4.1 4.96 6.91 1.97-3.38 4.41-5.86 7.33-7.44 3.1-1.58 6.54-2.37 10.34-2.37 2.53 0 5.03.49 7.49 1.48z"/><path d="m241.1 182.46c-4.86 5.99-12.22 8.99-22.11 8.99s-17.25-3-22.1-8.99c-4.86-5.99-7.28-13.2-7.28-21.64s2.42-15.48 7.28-21.56c4.85-6.08 12.22-9.12 22.1-9.12s17.25 3.04 22.11 9.12c4.85 6.08 7.28 13.27 7.28 21.56s-2.42 15.65-7.28 21.64zm-12.03-8.31c2.36-3.13 3.54-7.57 3.54-13.33s-1.18-10.19-3.54-13.3c-2.35-3.11-5.73-4.66-10.13-4.66s-7.78 1.55-10.15 4.66c-2.38 3.11-3.56 7.54-3.56 13.3s1.19 10.2 3.56 13.33c2.37 3.12 5.76 4.69 10.15 4.69s7.77-1.56 10.13-4.69z"/><path d="m308.24 138.9c4.3 5.45 6.45 12.48 6.45 21.1s-2.12 16.34-6.36 22.21c-4.25 5.87-10.16 8.81-17.76 8.81-4.77 0-8.61-.95-11.5-2.85-1.73-1.13-3.61-3.09-5.62-5.91v7.23h-14.82v-77.65h15.03v27.64c1.91-2.67 4.02-4.71 6.32-6.12 2.72-1.76 6.19-2.64 10.4-2.64 7.61 0 13.57 2.73 17.87 8.18zm-12.57 35.03c2.16-3.13 3.25-7.24 3.25-12.34 0-4.08-.54-7.46-1.6-10.13-2.02-5.06-5.75-7.6-11.17-7.6s-9.27 2.48-11.33 7.44c-1.06 2.64-1.59 6.05-1.59 10.23 0 4.92 1.1 9 3.3 12.24s5.55 4.85 10.05 4.85c3.9 0 6.93-1.56 9.1-4.69z"/><path d="m340.59 125.14h-15.24v-13.87h15.24zm-15.24 6.85h15.24v57.5h-15.24z"/><path d="m370.5 189.49h-15.03v-77.76h15.03z"/><path d="m400.62 125.14h-15.25v-13.87h15.25zm-15.25 6.85h15.25v57.5h-15.25z"/><path d="m437.96 154.52c2.8-.35 4.8-.79 6-1.32 2.16-.91 3.24-2.34 3.24-4.27 0-2.36-.83-3.98-2.49-4.88s-4.09-1.35-7.3-1.35c-3.6 0-6.15.88-7.65 2.64-1.07 1.3-1.78 3.06-2.14 5.28h-14.5c.31-5.03 1.73-9.16 4.24-12.4 3.99-5.06 10.84-7.6 20.56-7.6 6.32 0 11.94 1.25 16.85 3.75s7.36 7.21 7.36 14.14v26.38c0 1.83.04 4.04.11 6.65.1 1.97.4 3.31.9 4.01.49.71 1.23 1.28 2.22 1.74v2.22h-16.36c-.46-1.16-.77-2.25-.95-3.27s-.32-2.18-.42-3.48c-2.09 2.25-4.5 4.17-7.22 5.75-3.25 1.86-6.93 2.8-11.03 2.8-5.24 0-9.56-1.48-12.97-4.46-3.42-2.97-5.12-7.18-5.12-12.63 0-7.07 2.75-12.19 8.23-15.35 3.01-1.72 7.44-2.95 13.29-3.69l5.16-.63zm9.19 7.01c-.96.6-1.93 1.08-2.91 1.45s-2.33.71-4.04 1.03l-3.42.63c-3.2.56-5.51 1.25-6.91 2.06-2.37 1.37-3.55 3.5-3.55 6.38 0 2.57.72 4.42 2.17 5.57 1.44 1.14 3.2 1.71 5.28 1.71 3.28 0 6.31-.95 9.08-2.85s4.2-5.36 4.31-10.39v-5.59z"/><path d="m507.21 130.65c.19.02.62.04 1.29.08v15.4c-.95-.11-1.79-.18-2.53-.21-.74-.04-1.34-.05-1.79-.05-6.05 0-10.11 1.97-12.19 5.91-1.16 2.22-1.74 5.63-1.74 10.23v27.48h-15.14v-57.5h14.35v10.02c2.32-3.83 4.34-6.45 6.06-7.86 2.81-2.36 6.47-3.53 10.97-3.53.28 0 .52 0 .71.03z"/><path d="m532.76 125.14h-15.25v-13.87h15.25zm-15.24 6.85h15.25v57.5h-15.25z"/><path d="m570.1 154.52c2.8-.35 4.8-.79 6-1.32 2.16-.91 3.25-2.34 3.25-4.27 0-2.36-.83-3.98-2.49-4.88s-4.1-1.35-7.3-1.35c-3.6 0-6.15.88-7.64 2.64-1.07 1.3-1.79 3.06-2.14 5.28h-14.5c.32-5.03 1.73-9.16 4.24-12.4 3.99-5.06 10.84-7.6 20.55-7.6 6.32 0 11.94 1.25 16.85 3.75s7.36 7.21 7.36 14.14v26.38c0 1.83.04 4.04.1 6.65.11 1.97.41 3.31.9 4.01.5.71 1.23 1.28 2.22 1.74v2.22h-16.36c-.45-1.16-.77-2.25-.95-3.27s-.32-2.18-.42-3.48c-2.08 2.25-4.49 4.17-7.22 5.75-3.26 1.86-6.94 2.8-11.04 2.8-5.23 0-9.56-1.48-12.97-4.46-3.42-2.97-5.12-7.18-5.12-12.63 0-7.07 2.75-12.19 8.24-15.35 3.01-1.72 7.44-2.95 13.29-3.69l5.15-.63zm9.19 7.01c-.96.6-1.93 1.08-2.91 1.45s-2.33.71-4.04 1.03l-3.42.63c-3.21.56-5.51 1.25-6.91 2.06-2.37 1.37-3.55 3.5-3.55 6.38 0 2.57.72 4.42 2.17 5.57 1.45 1.14 3.2 1.71 5.27 1.71 3.29 0 6.31-.95 9.08-2.85s4.2-5.36 4.31-10.39z"/></g></svg>