<svg viewBox="0 0 8.46 9.16" xmlns="http://www.w3.org/2000/svg"><g fill="#3c3c3b" fill-rule="evenodd"><path d="m1.37.9c-.25-.13-.44-.25-.9-.16.66-.72 1.4-.97 2.31-.5l4.54 2.61c.5.35.63.89.37 1.14l-.54.46c0-.13-.07-.23-.21-.31z"/><path d="m1.29 8.3c.01.28 0 .5.31.86-.95-.21-1.54-.73-1.6-1.75v-5.24c.05-.6.45-1.02.8-.92l.61.31c-.11.07-.13.14-.13.3v6.44zm-.84-6.06c-.06 0-.1.04-.1.1v.2c0 .05.05.1.1.1h.41c.06 0 .1-.04.1-.1v-.2c0-.05-.05-.1-.1-.1zm0 1c-.06 0-.1.04-.1.1v.2c0 .05.05.1.1.1h.41c.06 0 .1-.04.1-.1v-.2c0-.05-.05-.1-.1-.1zm0 1.03c-.06 0-.1.04-.1.1v.2c0 .05.05.1.1.1h.41c.06 0 .1-.04.1-.1v-.2c0-.05-.05-.1-.1-.1zm0 1c-.06 0-.1.04-.1.1v.2c0 .05.05.1.1.1h.41c.06 0 .1-.04.1-.1v-.2c0-.05-.05-.1-.1-.1zm0 .98c-.06 0-.1.04-.1.1v.2c0 .05.05.1.1.1h.41c.06 0 .1-.04.1-.1v-.2c0-.05-.05-.1-.1-.1zm0 1c-.06 0-.1.04-.1.1v.2c0 .05.05.1.1.1h.41c.06 0 .1-.04.1-.1v-.2c0-.05-.05-.1-.1-.1z"/><path d="m7.73 4.62c.24-.15.44-.25.59-.7.3.93.14 1.7-.72 2.25l-4.54 2.62c-.55.25-1.12.11-1.2-.25l-.04-.68c.11.06.19.04.33-.04l5.59-3.21z"/><path d="m5.87 4.58-3.63-2.07v4.14z"/></g></svg>