<svg viewBox="0 0 400.92 314.81" xmlns="http://www.w3.org/2000/svg" xmlns:xlink="http://www.w3.org/1999/xlink"><linearGradient id="a" gradientUnits="userSpaceOnUse" x1="146.35" x2="133.6" y1="461.31" y2="-268.89"><stop offset="0" stop-color="#78a5b0"/><stop offset=".3" stop-color="#6c949b"/><stop offset=".64" stop-color="#536f70"/><stop offset=".93" stop-color="#2c3936"/><stop offset="1" stop-color="#2c3936"/></linearGradient><linearGradient id="b" gradientUnits="userSpaceOnUse" x1="292.13" x2="159.49" y1="80.43" y2="163.32"><stop offset="0" stop-color="#78a5b0"/><stop offset=".27" stop-color="#78a5b0"/><stop offset=".55" stop-color="#6c949b"/><stop offset=".71" stop-color="#536f70"/><stop offset=".93" stop-color="#2c3936"/><stop offset="1" stop-color="#2c3936"/></linearGradient><linearGradient id="c" gradientUnits="userSpaceOnUse" x1="133.8" x2="274.85" y1="-11.8" y2="86.96"><stop offset="0" stop-color="#f1cf00"/><stop offset=".35" stop-color="#f1cf00"/><stop offset=".59" stop-color="#d4b51a"/><stop offset=".7" stop-color="#b89c22"/><stop offset="1" stop-color="#393414"/></linearGradient><g fill="#8cc0cf"><path d="m396.62 305.12h-1l-4.31 9.53h1.09l1.12-2.5h5.15l1.11 2.5h1.15zm-2.68 6.06 2.16-4.82 2.15 4.82z"/><path d="m382.34 305.18h1.07v9.46h-1.07z" fill-rule="evenodd"/><path d="m370.66 314.81c-.69 0-1.32-.13-1.89-.38-.58-.25-1.08-.6-1.5-1.03-.43-.44-.76-.96-.99-1.55-.24-.59-.36-1.23-.36-1.9v-.02c0-.67.12-1.3.36-1.89s.57-1.12.99-1.56.93-.8 1.51-1.05c.59-.25 1.23-.38 1.92-.38.43 0 .82.04 1.17.11s.67.17.97.31c.3.13.57.29.82.47s.49.39.73.61l-.73.79c-.4-.38-.84-.69-1.3-.93-.46-.25-1.02-.37-1.67-.37-.52 0-1.01.1-1.45.3-.45.2-.83.47-1.16.83-.33.35-.58.76-.77 1.24-.18.47-.28.98-.28 1.52v.03c0 .55.09 1.06.28 1.53s.44.89.77 1.24.72.63 1.16.83.93.3 1.45.3c.65 0 1.21-.12 1.68-.36s.93-.57 1.38-1l.7.69c-.25.25-.5.48-.76.68-.27.2-.55.38-.86.52s-.64.25-.99.33-.74.12-1.18.12z" fill-rule="evenodd"/><path d="m349.73 305.18h1l5.96 7.59v-7.59h1.04v9.46h-.85l-6.11-7.75v7.75h-1.04z" fill-rule="evenodd"/><path d="m334.74 305.18h6.84v.96h-5.77v3.26h5.16v.96h-5.16v3.33h5.83v.95h-6.9z" fill-rule="evenodd"/><path d="m324.97 305.18h1.06v9.46h-1.06z" fill-rule="evenodd"/><path d="m316.32 308.03c-.24-.57-.59-1.07-1.04-1.49-.44-.43-.98-.75-1.59-.99-.62-.24-1.3-.36-2.04-.36h-3.28v9.46h3.28c.74 0 1.42-.12 2.04-.36s1.15-.58 1.59-1c.45-.43.79-.92 1.04-1.5.24-.58.36-1.2.36-1.87v-.03c0-.67-.12-1.29-.36-1.86zm-.75 1.91c0 .52-.09 1.01-.28 1.47-.18.45-.44.85-.78 1.18s-.75.6-1.24.79-1.03.28-1.62.28h-2.22v-7.48h2.22c.59 0 1.14.1 1.62.29s.9.46 1.24.8.6.74.78 1.19c.19.46.28.94.28 1.47v.03z"/><path d="m295.96 314.79c-.58 0-1.12-.08-1.6-.26s-.9-.44-1.24-.79c-.35-.34-.61-.78-.8-1.29-.19-.52-.28-1.1-.28-1.77v-5.5h1.07v5.43c0 1.03.26 1.82.76 2.36.51.55 1.22.83 2.13.83s1.57-.26 2.08-.78.77-1.3.77-2.34v-5.5h1.07v5.42c0 .69-.1 1.3-.28 1.83-.19.52-.46.96-.8 1.31s-.76.62-1.24.8c-.48.17-1.02.26-1.61.26z" fill-rule="evenodd"/><path d="m279.07 305.12-4.31 9.53h1.09l1.12-2.5h5.15l1.11 2.5h1.15l-4.31-9.53zm-1.68 6.06 2.16-4.82 2.15 4.82z"/><path d="m251 314.79c-.59 0-1.12-.08-1.6-.26s-.9-.44-1.24-.79c-.35-.34-.62-.78-.8-1.29-.19-.52-.28-1.1-.28-1.77v-5.5h1.07v5.43c0 1.03.26 1.82.76 2.36.51.55 1.22.83 2.13.83s1.57-.26 2.08-.78.77-1.3.77-2.34v-5.5h1.07v5.42c0 .69-.09 1.3-.28 1.83-.19.52-.46.96-.8 1.31-.35.35-.76.62-1.24.8-.48.17-1.02.26-1.61.26z" fill-rule="evenodd"/><path d="m235.02 306.17h-3.17v-.99h7.42v.99h-3.18v8.47h-1.07z" fill-rule="evenodd"/><path d="m203.75 305.18h1l5.96 7.59v-7.59h1.04v9.46h-.85l-6.11-7.75v7.75h-1.04z" fill-rule="evenodd"/><path d="m194.24 306.48c-.42-.45-.93-.8-1.52-1.06s-1.24-.39-1.97-.39-1.38.13-1.97.4c-.6.26-1.1.62-1.53 1.07-.42.45-.75.97-.99 1.56-.23.59-.35 1.21-.35 1.86v.03c0 .65.11 1.27.34 1.86s.56 1.11.98 1.55c.43.45.93.8 1.52 1.06s1.25.39 1.97.39 1.38-.13 1.97-.4 1.1-.62 1.53-1.07c.42-.45.75-.96.99-1.56.23-.6.35-1.22.35-1.87 0 0 0-.02 0-.03 0-.65-.12-1.27-.34-1.86-.23-.59-.56-1.11-.98-1.55zm.21 3.46c0 .54-.09 1.05-.28 1.51-.19.47-.44.88-.77 1.23-.32.35-.71.63-1.17.83s-.95.3-1.49.3-1.04-.1-1.49-.31-.85-.48-1.18-.84c-.33-.35-.59-.76-.78-1.24-.19-.47-.28-.98-.28-1.52v-.03c0-.54.09-1.05.28-1.51.18-.47.44-.88.76-1.23s.72-.63 1.17-.83c.46-.2.95-.3 1.49-.3s1.04.1 1.49.31.85.49 1.18.84.59.76.78 1.24c.18.47.28.98.28 1.52v.03z"/><path d="m174.75 314.81c-.68 0-1.31-.13-1.89-.38-.57-.25-1.07-.6-1.5-1.03-.42-.44-.75-.96-.99-1.55s-.36-1.23-.36-1.9v-.02c0-.67.12-1.3.36-1.89s.57-1.12.99-1.56.93-.8 1.51-1.05c.59-.25 1.23-.38 1.92-.38.43 0 .82.04 1.17.11s.67.17.97.31c.3.13.57.29.82.47s.5.39.73.61l-.73.79c-.41-.38-.84-.69-1.3-.93-.46-.25-1.02-.37-1.67-.37-.52 0-1.01.1-1.45.3-.45.2-.83.47-1.16.83-.33.35-.58.76-.77 1.24-.18.47-.28.98-.28 1.52v.03c0 .55.09 1.06.28 1.53s.44.89.77 1.24.72.63 1.16.83c.45.2.93.3 1.45.3.65 0 1.21-.12 1.68-.36s.93-.57 1.38-1l.7.69c-.24.25-.5.48-.76.68s-.55.38-.86.52-.63.25-.99.33c-.35.08-.74.12-1.18.12z" fill-rule="evenodd"/><path d="m150.99 314.78c-.76 0-1.45-.12-2.07-.37-.63-.25-1.22-.63-1.79-1.14l.66-.78c.5.45 1 .79 1.5 1.01s1.09.33 1.74.33 1.15-.15 1.53-.45.57-.68.57-1.15v-.02c0-.22-.04-.41-.11-.59s-.2-.34-.38-.48-.43-.27-.75-.39-.73-.23-1.23-.34c-.54-.12-1.01-.25-1.41-.41-.4-.15-.73-.34-.99-.55-.26-.22-.46-.47-.58-.76-.13-.29-.19-.62-.19-1.01v-.03c0-.37.08-.71.23-1.03s.37-.59.65-.82.61-.41.99-.54.79-.19 1.24-.19c.69 0 1.3.09 1.82.29.52.19 1.02.48 1.51.87l-.62.83c-.44-.36-.89-.62-1.33-.79-.45-.16-.91-.24-1.4-.24-.62 0-1.11.14-1.47.44-.36.29-.54.65-.54 1.09v.02c0 .23.04.43.11.6.07.18.2.34.39.48.19.15.45.28.78.41.33.12.76.24 1.28.34 1.06.24 1.83.56 2.33.97s.75.98.75 1.7v.02c0 .4-.08.77-.24 1.1s-.38.61-.66.84-.62.41-1.02.54-.83.19-1.3.19z" fill-rule="evenodd"/><path d="m138.22 306.48c-.42-.45-.93-.8-1.52-1.06s-1.25-.39-1.97-.39-1.38.13-1.97.4c-.59.26-1.1.62-1.53 1.07-.42.45-.75.97-.99 1.56-.23.59-.35 1.21-.35 1.86v.03c0 .65.11 1.27.34 1.86s.56 1.11.98 1.55c.42.45.93.8 1.52 1.06s1.25.39 1.97.39 1.38-.13 1.97-.4 1.1-.62 1.53-1.07c.42-.45.75-.96.99-1.56s.35-1.22.35-1.87c0 0 0-.02 0-.03 0-.65-.12-1.27-.34-1.86-.23-.59-.56-1.11-.98-1.55zm.21 3.46c0 .54-.09 1.05-.28 1.51-.19.47-.44.88-.76 1.23s-.71.63-1.17.83c-.45.2-.95.3-1.49.3s-1.04-.1-1.49-.31-.85-.48-1.18-.84c-.33-.35-.59-.76-.78-1.24-.19-.47-.28-.98-.28-1.52v-.03c0-.54.09-1.05.28-1.51.18-.47.44-.88.76-1.23s.71-.63 1.17-.83c.45-.2.95-.3 1.49-.3s1.04.1 1.49.31c.46.21.85.49 1.18.84s.59.76.78 1.24c.19.47.28.98.28 1.52z"/><path d="m112.65 305.18h1.08l3.44 5.17 3.45-5.17h1.08v9.46h-1.07v-7.66l-3.44 5.07h-.06l-3.44-5.06v7.65h-1.04z" fill-rule="evenodd"/><path d="m100.54 305.12h-1l-4.31 9.53h1.09l1.12-2.5h5.15l1.11 2.5h1.15zm-2.68 6.06 2.16-4.82 2.15 4.82z"/><path d="m83.85 306.17h-3.18v-.99h7.42v.99h-3.18v8.47h-1.06z" fill-rule="evenodd"/><path d="m69.76 314.81c-.69 0-1.32-.13-1.89-.38-.58-.25-1.08-.6-1.5-1.03-.42-.44-.76-.96-.99-1.55-.24-.59-.36-1.23-.36-1.9v-.02c0-.67.12-1.3.36-1.89s.57-1.12.99-1.56.93-.8 1.51-1.05c.59-.25 1.23-.38 1.92-.38.43 0 .82.04 1.17.11s.67.17.97.31c.3.13.57.29.82.47s.5.39.73.61l-.73.79c-.4-.38-.84-.69-1.3-.93-.46-.25-1.02-.37-1.67-.37-.52 0-1.01.1-1.45.3-.45.2-.83.47-1.16.83-.33.35-.59.76-.77 1.24-.18.47-.28.98-.28 1.52v.03c0 .55.09 1.06.28 1.53.18.47.44.89.77 1.24s.72.63 1.16.83c.45.2.93.3 1.45.3.65 0 1.21-.12 1.67-.36.47-.24.93-.57 1.38-1l.7.69c-.24.25-.5.48-.76.68-.27.2-.55.38-.86.52s-.64.25-.99.33-.74.12-1.18.12z" fill-rule="evenodd"/><path d="m50.45 305.18h6.83v.96h-5.76v3.26h5.16v.96h-5.16v3.33h5.83v.95h-6.9z" fill-rule="evenodd"/><path d="m33.84 305.18h1l5.96 7.59v-7.59h1.04v9.46h-.85l-6.11-7.75v7.75h-1.04z" fill-rule="evenodd"/><path d="m24.32 306.48c-.42-.45-.93-.8-1.52-1.06s-1.25-.39-1.97-.39-1.38.13-1.97.4c-.59.26-1.1.62-1.53 1.07-.42.45-.75.97-.99 1.56-.23.59-.35 1.21-.35 1.86v.03c0 .65.12 1.27.35 1.86s.56 1.11.98 1.55c.42.45.93.8 1.52 1.06s1.24.39 1.97.39 1.38-.13 1.97-.4 1.1-.62 1.53-1.07c.42-.45.75-.96.99-1.56.23-.6.35-1.22.35-1.87 0 0 0-.02 0-.03 0-.65-.11-1.27-.34-1.86s-.56-1.11-.98-1.55zm.22 3.46c0 .54-.09 1.05-.28 1.51-.18.47-.44.88-.76 1.23-.33.35-.71.63-1.17.83-.45.2-.95.3-1.49.3s-1.04-.1-1.49-.31c-.46-.21-.85-.48-1.18-.84-.33-.35-.59-.76-.78-1.24-.19-.47-.28-.98-.28-1.52v-.03c0-.54.09-1.05.28-1.51.18-.47.44-.88.76-1.23s.71-.63 1.17-.83c.45-.2.95-.3 1.49-.3s1.04.1 1.49.31.85.49 1.18.84.59.76.78 1.24c.19.47.28.98.28 1.52z"/><path d="m4.83 314.81c-.68 0-1.32-.13-1.89-.38-.58-.25-1.08-.6-1.5-1.03-.42-.44-.75-.96-.99-1.55s-.36-1.23-.36-1.9v-.02c0-.67.12-1.3.36-1.89s.57-1.12.99-1.56.93-.8 1.51-1.05c.59-.25 1.23-.38 1.92-.38.43 0 .82.04 1.17.11s.67.17.96.31c.3.13.57.29.82.47s.5.39.73.61l-.73.79c-.41-.38-.84-.69-1.3-.93-.46-.25-1.02-.37-1.67-.37-.52 0-1.01.1-1.45.3-.45.2-.83.47-1.16.83-.33.35-.59.76-.77 1.24-.19.47-.28.98-.28 1.52v.03c0 .55.09 1.06.28 1.53.18.47.44.89.77 1.24s.72.63 1.16.83c.45.2.93.3 1.45.3.65 0 1.21-.12 1.68-.36s.93-.57 1.38-1l.7.69c-.24.25-.5.48-.76.68-.27.2-.55.38-.86.52s-.63.25-.99.33c-.35.08-.74.12-1.17.12z" fill-rule="evenodd"/></g><path d="m367.83 217.26h-6.86l-29.56 65.34h7.51c10.35-23.07 13.84-31.04 25.39-56.82 10.18 22.85 15.8 35.59 25.21 56.82h7.88z" fill="#fff"/><path d="m321.24 217.72h7.32v64.88h-7.32z" fill="#fff"/><path d="m306.12 226.99c-3.06-2.91-6.7-5.18-10.94-6.81-4.23-1.64-8.88-2.45-13.95-2.45h-22.52v64.88h22.52c5.07 0 9.72-.83 13.95-2.5s7.88-3.95 10.94-6.86c3.06-2.9 5.42-6.33 7.09-10.29 1.67-3.95 2.5-8.22 2.5-12.79v-.19c0-4.57-.84-8.82-2.5-12.74-1.67-3.92-4.03-7.34-7.09-10.24zm1.99 23.36c0 3.58-.63 6.94-1.9 10.06s-3.06 5.83-5.38 8.11c-2.32 2.29-5.14 4.08-8.48 5.38-3.34 1.29-7.05 1.94-11.12 1.94h-15.2v-51.35h15.2c4.08 0 7.79.67 11.12 1.99 3.34 1.33 6.16 3.15 8.48 5.47s4.11 5.04 5.38 8.16c1.26 3.12 1.9 6.47 1.9 10.06z" fill="#fff"/><path d="m214.53 253.22h35.41v-6.58h-35.41v-22.34h39.58v-6.58h-46.9v64.88h47.37v-6.58h-40.05z" fill="#fff"/><path d="m168.41 253.13-23.64-35.41h-7.41v64.88h7.14v-52.46l23.63 34.67h.37l23.63-34.76v52.55h7.33v-64.88h-7.42z" fill="#fff"/><path d="m126.69 242.4c-.83-1.69-1.91-3.14-3.23-4.33-1.32-1.2-2.83-2.11-4.52-2.72s-3.36-.92-5.03-.92h-18.63c-1.97 0-3.83.34-5.58 1.01-1.75.68-3.27 1.65-4.56 2.9-1.29 1.26-2.32 2.78-3.09 4.56s-1.15 3.78-1.15 5.99v16.23c0 2.15.22 4.26.65 6.32s1.2 3.9 2.3 5.53c1.11 1.63 2.58 2.95 4.43 3.97 1.85 1.01 4.18 1.52 7.01 1.52h16.41c2.83 0 5.26-.28 7.28-.83 2.03-.55 3.7-1.54 5.03-2.95 1.32-1.42 2.3-3.32 2.95-5.72.64-2.4.97-5.44.97-9.13v-15.58c0-2.21-.41-4.16-1.25-5.85zm-10.09 15.91v7.38c0 1.6-.82 2.92-2.44 3.97-1.63 1.04-3.55 1.56-5.76 1.56h-8.48c-.8 0-1.66-.08-2.58-.23-.92-.16-1.78-.46-2.58-.92s-1.46-1.09-1.98-1.89-.78-1.82-.78-3.05v-14.75c0-.86.22-1.6.64-2.21.43-.62.97-1.11 1.61-1.48.65-.37 1.37-.63 2.17-.78s1.6-.23 2.4-.23h10.05c.92 0 1.84.09 2.77.28.92.19 1.75.48 2.49.88s1.34.89 1.8 1.48c.46.58.69 1.24.69 1.98v8.02z" fill="#8cc0cf"/><path d="m77.29 234.42h-12.54c-1.66 0-3.23.32-4.7.97-1.48.65-2.77 1.52-3.87 2.63-1.11 1.11-1.98 2.4-2.63 3.87-.65 1.48-.97 3.01-.97 4.61v35.04c0 .61.31.92.92.92h10.33c.62 0 .92-.31.92-.92v-31.81c0-.37.09-.78.28-1.25.18-.46.45-.89.78-1.29.34-.4.72-.75 1.15-1.06s.92-.46 1.47-.46h8.85c.62 0 .92-.31.92-.92v-9.41c0-.61-.31-.92-.92-.92z" fill="#8cc0cf"/><path d="m44.91 222.44c-1.47-1.9-3.41-3.39-5.81-4.47s-5.32-1.61-8.76-1.61h-29.42c-.62 0-.92.31-.92.92v64.27c0 .61.31.92.92.92h11.52c.62 0 .92-.31.92-.92v-21.12c0-.62.31-.92.92-.92h16.04c3.44 0 6.36-.51 8.76-1.52s4.34-2.47 5.81-4.38c1.48-1.91 2.55-4.18 3.23-6.82s1.01-5.59 1.01-8.85-.34-6.02-1.01-8.67c-.68-2.64-1.75-4.92-3.23-6.83zm-8.35 18.02c-.09 1.08-.29 2.14-.6 3.18-.31 1.05-.78 1.95-1.43 2.72s-1.52 1.15-2.63 1.15h-17.61c-.62 0-.92-.31-.92-.92v-17.33c0-.62.31-.92.92-.92h17.61c1.11 0 1.98.38 2.63 1.15s1.12 1.68 1.43 2.72.51 2.11.6 3.18c.09 1.08.14 1.92.14 2.54s-.05 1.46-.14 2.54z" fill="#8cc0cf"/><path d="m149.92 153.45c.24 5.23-.02 9.31 5.81 15.86-17.65-3.82-28.54-13.42-29.52-32.27l-.18-96.91c1.04-11.18 8.57-18.9 15.02-17.04l11.3 5.67c-1.96 1.29-2.35 2.61-2.33 5.61l-.1 119.07zm-15.61-112.07c-1.04 0-1.89.8-1.89 1.78v3.62c0 .98.85 1.78 1.89 1.78h7.52c1.04 0 1.89-.8 1.89-1.78v-3.62c0-.98-.85-1.78-1.89-1.78zm0 18.52c-1.04 0-1.89.8-1.89 1.78v3.61c0 .98.85 1.78 1.89 1.78h7.52c1.04 0 1.89-.8 1.89-1.78v-3.61c0-.98-.85-1.78-1.89-1.78zm0 19.01c-1.04 0-1.89.8-1.89 1.78v3.61c0 .98.85 1.78 1.89 1.78h7.52c1.04 0 1.89-.8 1.89-1.78v-3.61c0-.98-.85-1.78-1.89-1.78zm0 18.52c-1.04 0-1.89.8-1.89 1.78v3.61c0 .98.85 1.78 1.89 1.78h7.52c1.04 0 1.89-.8 1.89-1.78v-3.61c0-.98-.85-1.78-1.89-1.78zm0 18.03c-1.04 0-1.89.8-1.89 1.78v3.62c0 .98.85 1.78 1.89 1.78h7.52c1.04 0 1.89-.8 1.89-1.78v-3.62c0-.98-.85-1.78-1.89-1.78zm0 18.51c-1.04 0-1.89.8-1.89 1.78v3.61c0 .98.85 1.78 1.89 1.78h7.52c1.04 0 1.89-.8 1.89-1.78v-3.61c0-.98-.85-1.78-1.89-1.78z" fill="url(#a)" fill-rule="evenodd"/><path d="m268.97 85.43c4.42-2.81 8.09-4.62 10.86-12.94 5.48 17.21 2.59 31.42-13.26 41.67l-83.93 48.45c-10.21 4.67-20.66 1.99-22.25-4.53l-.71-12.62c2.09 1.06 3.44.74 6.02-.78l103.28-59.25z" fill="url(#b)" fill-rule="evenodd"/><path d="m234.44 84.66-67.04-38.27v76.54z" fill="#8cc0cf" fill-rule="evenodd"/><path d="m151.37 16.68c-4.65-2.41-8.05-4.67-16.64-2.91 12.14-13.38 25.89-18 42.71-9.42l84 48.32c9.16 6.49 11.66 16.4 6.82 21.05l-10.03 8.42c-.13-2.34-1.21-4.34-3.81-5.82z" fill="url(#c)" fill-rule="evenodd"/></svg>