<svg viewBox="0 0 55.82 9.67" xmlns="http://www.w3.org/2000/svg" xmlns:xlink="http://www.w3.org/1999/xlink"><linearGradient id="a" gradientUnits="userSpaceOnUse" x1="47.33" x2="55.39" y1="-.67" y2="4.96"><stop offset="0" stop-color="#fc0"/><stop offset=".35" stop-color="#fc0"/><stop offset=".59" stop-color="#deb200"/><stop offset=".7" stop-color="#c39c04"/><stop offset="1" stop-color="#3d3217"/></linearGradient><linearGradient id="b" gradientUnits="userSpaceOnUse" x1="48.05" x2="47.32" y1="26.34" y2="-15.35"><stop offset="0" stop-color="#56a7b2"/><stop offset=".3" stop-color="#4d959e"/><stop offset=".64" stop-color="#3f7175"/><stop offset=".93" stop-color="#293938"/><stop offset="1" stop-color="#293938"/></linearGradient><linearGradient id="c" gradientUnits="userSpaceOnUse" x1="56.37" x2="48.8" y1="4.59" y2="9.32"><stop offset="0" stop-color="#56a7b2"/><stop offset=".27" stop-color="#56a7b2"/><stop offset=".55" stop-color="#4d959e"/><stop offset=".71" stop-color="#3f7175"/><stop offset=".93" stop-color="#293938"/><stop offset="1" stop-color="#293938"/></linearGradient><g fill-rule="evenodd"><path d="m48.34.95c-.27-.14-.46-.27-.95-.17.69-.76 1.48-1.03 2.44-.54l4.8 2.76c.52.37.67.94.39 1.2l-.57.48c0-.13-.07-.25-.22-.33l-5.88-3.41z" fill="url(#a)"/><path d="m48.25 8.76c.01.3 0 .53.33.91-1.01-.22-1.63-.77-1.69-1.84v-5.54c.05-.64.48-1.08.85-.97l.65.32c-.11.07-.13.15-.13.32v6.8zm-.89-6.4c-.06 0-.11.05-.11.1v.21c0 .06.05.1.11.1h.43c.06 0 .11-.05.11-.1v-.21c0-.06-.05-.1-.11-.1zm0 1.06c-.06 0-.11.05-.11.1v.21c0 .06.05.1.11.1h.43c.06 0 .11-.05.11-.1v-.21c0-.06-.05-.1-.11-.1zm0 1.08c-.06 0-.11.05-.11.1v.21c0 .06.05.1.11.1h.43c.06 0 .11-.05.11-.1v-.21c0-.06-.05-.1-.11-.1zm0 1.06c-.06 0-.11.05-.11.1v.21c0 .06.05.1.11.1h.43c.06 0 .11-.05.11-.1v-.21c0-.06-.05-.1-.11-.1zm0 1.03c-.06 0-.11.05-.11.1v.21c0 .06.05.1.11.1h.43c.06 0 .11-.05.11-.1v-.21c0-.06-.05-.1-.11-.1zm0 1.06c-.06 0-.11.05-.11.1v.21c0 .06.05.1.11.1h.43c.06 0 .11-.05.11-.1v-.21c0-.06-.05-.1-.11-.1z" fill="url(#b)"/><path d="m55.05 4.88c.25-.16.46-.26.62-.74.31.98.15 1.79-.76 2.38l-4.79 2.77c-.58.27-1.18.11-1.27-.26l-.04-.72c.12.06.2.04.34-.04l5.9-3.38z" fill="url(#c)"/><path d="m53.08 4.83-3.83-2.18v4.37z" fill="#63c3d1"/><path d="m0 2.42v7.13c0 .07.03.1.1.1h1.3c.07 0 .1-.03.1-.1v-2.38c0-.07.03-.1.1-.1h1.81c.39 0 .72-.06.99-.17s.49-.28.65-.49c.17-.21.29-.47.36-.77.08-.3.11-.63.11-1s-.04-.68-.11-.98c-.08-.3-.2-.55-.36-.77-.17-.21-.38-.38-.65-.5s-.6-.18-.99-.18h-3.31c-.07 0-.1.03-.1.1zm3.6 1.13c.12 0 .22.04.3.13.07.09.13.19.16.31s.06.24.07.36.02.22.02.29 0 .16-.02.29c-.01.12-.03.24-.07.36-.03.12-.09.22-.16.31s-.17.13-.3.13h-1.98c-.07 0-.1-.03-.1-.1v-1.95c0-.07.03-.1.1-.1h1.98zm3.7.69c-.19 0-.36.04-.53.11s-.31.17-.44.3c-.12.12-.22.27-.3.44-.07.17-.11.34-.11.52v3.95c0 .07.03.1.1.1h1.16c.07 0 .1-.03.1-.1v-3.59s.01-.09.03-.14.05-.1.09-.15c.04-.04.08-.08.13-.12.05-.03.1-.05.17-.05h1c.07 0 .1-.03.1-.1v-1.06c0-.07-.03-.1-.1-.1h-1.41zm7.12 1.56c0-.25-.05-.47-.14-.66s-.21-.35-.36-.49-.32-.24-.51-.31-.38-.1-.57-.1h-2.1c-.22 0-.43.04-.63.11-.2.08-.37.19-.51.33-.15.14-.26.31-.35.51s-.13.43-.13.68v1.83c0 .24.02.48.07.71s.14.44.26.62.29.33.5.45c.21.11.47.17.79.17h1.85c.32 0 .59-.03.82-.09s.42-.17.57-.33.26-.37.33-.64.11-.61.11-1.03zm-1.28 1.13v.83c0 .18-.09.33-.28.45-.18.12-.4.18-.65.18h-.96c-.09 0-.19 0-.29-.03-.1-.02-.2-.05-.29-.1s-.16-.12-.22-.21-.09-.2-.09-.34v-1.66c0-.1.02-.18.07-.25s.11-.12.18-.17c.07-.04.15-.07.24-.09s.18-.03.27-.03h1.13c.1 0 .21.01.31.03s.2.05.28.1.15.1.2.17.08.14.08.22v.9z" fill="#63c3d1"/><path d="m15.48 2.35h.84l2.66 3.99 2.66-3.99h.84v7.31h-.83v-5.92l-2.66 3.92h-.04l-2.66-3.91v5.91h-.8v-7.31zm7.87 0h5.29v.74h-4.46v2.52h3.99v.74h-3.99v2.57h4.51v.74h-5.34zm8.35 6.55c.46 0 .88-.07 1.25-.22.38-.15.69-.35.96-.61.26-.26.46-.56.61-.91.14-.35.21-.73.21-1.13v-.02c0-.4-.07-.78-.21-1.13s-.34-.66-.61-.92c-.26-.26-.58-.47-.96-.62s-.79-.22-1.25-.22h-1.71v5.79h1.71zm-2.54-6.55h2.54c.57 0 1.1.09 1.57.28.48.18.89.44 1.23.77s.61.71.8 1.15.28.92.28 1.44v.02c0 .52-.09 1-.28 1.44-.19.45-.45.83-.8 1.16-.34.33-.76.58-1.23.77-.48.19-1 .28-1.57.28h-2.54zm7.05 0h.83v7.31h-.83zm4.85.91c-1.3 2.9-1.7 3.8-2.86 6.4h-.85l3.33-7.36h.77l3.33 7.36h-.89c-1.06-2.39-1.69-3.83-2.84-6.4z" fill="#fff"/></g></svg>